%TF.GenerationSoftware,KiCad,Pcbnew,7.0.2*%
%TF.CreationDate,2023-06-25T21:36:02-03:00*%
%TF.ProjectId,projeto_final,70726f6a-6574-46f5-9f66-696e616c2e6b,rev?*%
%TF.SameCoordinates,Original*%
%TF.FileFunction,Drillmap*%
%TF.FilePolarity,Positive*%
%FSLAX45Y45*%
G04 Gerber Fmt 4.5, Leading zero omitted, Abs format (unit mm)*
G04 Created by KiCad (PCBNEW 7.0.2) date 2023-06-25 21:36:02*
%MOMM*%
%LPD*%
G01*
G04 APERTURE LIST*
%ADD10C,0.100000*%
%ADD11C,0.200000*%
%ADD12C,0.110000*%
G04 APERTURE END LIST*
D10*
X9144000Y-3048000D02*
X18288000Y-3048000D01*
X18288000Y-10414000D01*
X9144000Y-10414000D01*
X9144000Y-3048000D01*
D11*
D12*
X16717000Y-8327000D02*
X16827000Y-8437000D01*
X16827000Y-8327000D02*
X16717000Y-8437000D01*
X16747000Y-4771000D02*
X16857000Y-4881000D01*
X16857000Y-4771000D02*
X16747000Y-4881000D01*
X16747000Y-6041000D02*
X16857000Y-6151000D01*
X16857000Y-6041000D02*
X16747000Y-6151000D01*
D11*
X9386619Y-10731524D02*
X9386619Y-10531524D01*
X9386619Y-10531524D02*
X9434238Y-10531524D01*
X9434238Y-10531524D02*
X9462810Y-10541048D01*
X9462810Y-10541048D02*
X9481857Y-10560095D01*
X9481857Y-10560095D02*
X9491381Y-10579143D01*
X9491381Y-10579143D02*
X9500905Y-10617238D01*
X9500905Y-10617238D02*
X9500905Y-10645810D01*
X9500905Y-10645810D02*
X9491381Y-10683905D01*
X9491381Y-10683905D02*
X9481857Y-10702952D01*
X9481857Y-10702952D02*
X9462810Y-10722000D01*
X9462810Y-10722000D02*
X9434238Y-10731524D01*
X9434238Y-10731524D02*
X9386619Y-10731524D01*
X9586619Y-10731524D02*
X9586619Y-10598190D01*
X9586619Y-10636286D02*
X9596143Y-10617238D01*
X9596143Y-10617238D02*
X9605667Y-10607714D01*
X9605667Y-10607714D02*
X9624714Y-10598190D01*
X9624714Y-10598190D02*
X9643762Y-10598190D01*
X9710429Y-10731524D02*
X9710429Y-10598190D01*
X9710429Y-10531524D02*
X9700905Y-10541048D01*
X9700905Y-10541048D02*
X9710429Y-10550571D01*
X9710429Y-10550571D02*
X9719952Y-10541048D01*
X9719952Y-10541048D02*
X9710429Y-10531524D01*
X9710429Y-10531524D02*
X9710429Y-10550571D01*
X9834238Y-10731524D02*
X9815190Y-10722000D01*
X9815190Y-10722000D02*
X9805667Y-10702952D01*
X9805667Y-10702952D02*
X9805667Y-10531524D01*
X9939000Y-10731524D02*
X9919952Y-10722000D01*
X9919952Y-10722000D02*
X9910429Y-10702952D01*
X9910429Y-10702952D02*
X9910429Y-10531524D01*
X10167571Y-10731524D02*
X10167571Y-10531524D01*
X10167571Y-10531524D02*
X10234238Y-10674381D01*
X10234238Y-10674381D02*
X10300905Y-10531524D01*
X10300905Y-10531524D02*
X10300905Y-10731524D01*
X10481857Y-10731524D02*
X10481857Y-10626762D01*
X10481857Y-10626762D02*
X10472333Y-10607714D01*
X10472333Y-10607714D02*
X10453286Y-10598190D01*
X10453286Y-10598190D02*
X10415190Y-10598190D01*
X10415190Y-10598190D02*
X10396143Y-10607714D01*
X10481857Y-10722000D02*
X10462810Y-10731524D01*
X10462810Y-10731524D02*
X10415190Y-10731524D01*
X10415190Y-10731524D02*
X10396143Y-10722000D01*
X10396143Y-10722000D02*
X10386619Y-10702952D01*
X10386619Y-10702952D02*
X10386619Y-10683905D01*
X10386619Y-10683905D02*
X10396143Y-10664857D01*
X10396143Y-10664857D02*
X10415190Y-10655333D01*
X10415190Y-10655333D02*
X10462810Y-10655333D01*
X10462810Y-10655333D02*
X10481857Y-10645810D01*
X10577095Y-10598190D02*
X10577095Y-10798190D01*
X10577095Y-10607714D02*
X10596143Y-10598190D01*
X10596143Y-10598190D02*
X10634238Y-10598190D01*
X10634238Y-10598190D02*
X10653286Y-10607714D01*
X10653286Y-10607714D02*
X10662810Y-10617238D01*
X10662810Y-10617238D02*
X10672333Y-10636286D01*
X10672333Y-10636286D02*
X10672333Y-10693429D01*
X10672333Y-10693429D02*
X10662810Y-10712476D01*
X10662810Y-10712476D02*
X10653286Y-10722000D01*
X10653286Y-10722000D02*
X10634238Y-10731524D01*
X10634238Y-10731524D02*
X10596143Y-10731524D01*
X10596143Y-10731524D02*
X10577095Y-10722000D01*
X10758048Y-10712476D02*
X10767571Y-10722000D01*
X10767571Y-10722000D02*
X10758048Y-10731524D01*
X10758048Y-10731524D02*
X10748524Y-10722000D01*
X10748524Y-10722000D02*
X10758048Y-10712476D01*
X10758048Y-10712476D02*
X10758048Y-10731524D01*
X10758048Y-10607714D02*
X10767571Y-10617238D01*
X10767571Y-10617238D02*
X10758048Y-10626762D01*
X10758048Y-10626762D02*
X10748524Y-10617238D01*
X10748524Y-10617238D02*
X10758048Y-10607714D01*
X10758048Y-10607714D02*
X10758048Y-10626762D01*
D12*
X9029000Y-11004000D02*
X9139000Y-11114000D01*
X9139000Y-11004000D02*
X9029000Y-11114000D01*
D11*
X9491381Y-11151524D02*
X9377095Y-11151524D01*
X9434238Y-11151524D02*
X9434238Y-10951524D01*
X9434238Y-10951524D02*
X9415190Y-10980095D01*
X9415190Y-10980095D02*
X9396143Y-10999143D01*
X9396143Y-10999143D02*
X9377095Y-11008667D01*
X9577095Y-11132476D02*
X9586619Y-11142000D01*
X9586619Y-11142000D02*
X9577095Y-11151524D01*
X9577095Y-11151524D02*
X9567571Y-11142000D01*
X9567571Y-11142000D02*
X9577095Y-11132476D01*
X9577095Y-11132476D02*
X9577095Y-11151524D01*
X9777095Y-11151524D02*
X9662810Y-11151524D01*
X9719952Y-11151524D02*
X9719952Y-10951524D01*
X9719952Y-10951524D02*
X9700905Y-10980095D01*
X9700905Y-10980095D02*
X9681857Y-10999143D01*
X9681857Y-10999143D02*
X9662810Y-11008667D01*
X9900905Y-10951524D02*
X9919952Y-10951524D01*
X9919952Y-10951524D02*
X9939000Y-10961048D01*
X9939000Y-10961048D02*
X9948524Y-10970571D01*
X9948524Y-10970571D02*
X9958048Y-10989619D01*
X9958048Y-10989619D02*
X9967571Y-11027714D01*
X9967571Y-11027714D02*
X9967571Y-11075333D01*
X9967571Y-11075333D02*
X9958048Y-11113429D01*
X9958048Y-11113429D02*
X9948524Y-11132476D01*
X9948524Y-11132476D02*
X9939000Y-11142000D01*
X9939000Y-11142000D02*
X9919952Y-11151524D01*
X9919952Y-11151524D02*
X9900905Y-11151524D01*
X9900905Y-11151524D02*
X9881857Y-11142000D01*
X9881857Y-11142000D02*
X9872333Y-11132476D01*
X9872333Y-11132476D02*
X9862810Y-11113429D01*
X9862810Y-11113429D02*
X9853286Y-11075333D01*
X9853286Y-11075333D02*
X9853286Y-11027714D01*
X9853286Y-11027714D02*
X9862810Y-10989619D01*
X9862810Y-10989619D02*
X9872333Y-10970571D01*
X9872333Y-10970571D02*
X9881857Y-10961048D01*
X9881857Y-10961048D02*
X9900905Y-10951524D01*
X10091381Y-10951524D02*
X10110429Y-10951524D01*
X10110429Y-10951524D02*
X10129476Y-10961048D01*
X10129476Y-10961048D02*
X10139000Y-10970571D01*
X10139000Y-10970571D02*
X10148524Y-10989619D01*
X10148524Y-10989619D02*
X10158048Y-11027714D01*
X10158048Y-11027714D02*
X10158048Y-11075333D01*
X10158048Y-11075333D02*
X10148524Y-11113429D01*
X10148524Y-11113429D02*
X10139000Y-11132476D01*
X10139000Y-11132476D02*
X10129476Y-11142000D01*
X10129476Y-11142000D02*
X10110429Y-11151524D01*
X10110429Y-11151524D02*
X10091381Y-11151524D01*
X10091381Y-11151524D02*
X10072333Y-11142000D01*
X10072333Y-11142000D02*
X10062810Y-11132476D01*
X10062810Y-11132476D02*
X10053286Y-11113429D01*
X10053286Y-11113429D02*
X10043762Y-11075333D01*
X10043762Y-11075333D02*
X10043762Y-11027714D01*
X10043762Y-11027714D02*
X10053286Y-10989619D01*
X10053286Y-10989619D02*
X10062810Y-10970571D01*
X10062810Y-10970571D02*
X10072333Y-10961048D01*
X10072333Y-10961048D02*
X10091381Y-10951524D01*
X10243762Y-11151524D02*
X10243762Y-11018190D01*
X10243762Y-11037238D02*
X10253286Y-11027714D01*
X10253286Y-11027714D02*
X10272333Y-11018190D01*
X10272333Y-11018190D02*
X10300905Y-11018190D01*
X10300905Y-11018190D02*
X10319952Y-11027714D01*
X10319952Y-11027714D02*
X10329476Y-11046762D01*
X10329476Y-11046762D02*
X10329476Y-11151524D01*
X10329476Y-11046762D02*
X10339000Y-11027714D01*
X10339000Y-11027714D02*
X10358048Y-11018190D01*
X10358048Y-11018190D02*
X10386619Y-11018190D01*
X10386619Y-11018190D02*
X10405667Y-11027714D01*
X10405667Y-11027714D02*
X10415191Y-11046762D01*
X10415191Y-11046762D02*
X10415191Y-11151524D01*
X10510429Y-11151524D02*
X10510429Y-11018190D01*
X10510429Y-11037238D02*
X10519952Y-11027714D01*
X10519952Y-11027714D02*
X10539000Y-11018190D01*
X10539000Y-11018190D02*
X10567572Y-11018190D01*
X10567572Y-11018190D02*
X10586619Y-11027714D01*
X10586619Y-11027714D02*
X10596143Y-11046762D01*
X10596143Y-11046762D02*
X10596143Y-11151524D01*
X10596143Y-11046762D02*
X10605667Y-11027714D01*
X10605667Y-11027714D02*
X10624714Y-11018190D01*
X10624714Y-11018190D02*
X10653286Y-11018190D01*
X10653286Y-11018190D02*
X10672333Y-11027714D01*
X10672333Y-11027714D02*
X10681857Y-11046762D01*
X10681857Y-11046762D02*
X10681857Y-11151524D01*
X11072333Y-10942000D02*
X10900905Y-11199143D01*
X11329476Y-10951524D02*
X11348524Y-10951524D01*
X11348524Y-10951524D02*
X11367572Y-10961048D01*
X11367572Y-10961048D02*
X11377095Y-10970571D01*
X11377095Y-10970571D02*
X11386619Y-10989619D01*
X11386619Y-10989619D02*
X11396143Y-11027714D01*
X11396143Y-11027714D02*
X11396143Y-11075333D01*
X11396143Y-11075333D02*
X11386619Y-11113429D01*
X11386619Y-11113429D02*
X11377095Y-11132476D01*
X11377095Y-11132476D02*
X11367572Y-11142000D01*
X11367572Y-11142000D02*
X11348524Y-11151524D01*
X11348524Y-11151524D02*
X11329476Y-11151524D01*
X11329476Y-11151524D02*
X11310429Y-11142000D01*
X11310429Y-11142000D02*
X11300905Y-11132476D01*
X11300905Y-11132476D02*
X11291381Y-11113429D01*
X11291381Y-11113429D02*
X11281857Y-11075333D01*
X11281857Y-11075333D02*
X11281857Y-11027714D01*
X11281857Y-11027714D02*
X11291381Y-10989619D01*
X11291381Y-10989619D02*
X11300905Y-10970571D01*
X11300905Y-10970571D02*
X11310429Y-10961048D01*
X11310429Y-10961048D02*
X11329476Y-10951524D01*
X11481857Y-11132476D02*
X11491381Y-11142000D01*
X11491381Y-11142000D02*
X11481857Y-11151524D01*
X11481857Y-11151524D02*
X11472333Y-11142000D01*
X11472333Y-11142000D02*
X11481857Y-11132476D01*
X11481857Y-11132476D02*
X11481857Y-11151524D01*
X11615191Y-10951524D02*
X11634238Y-10951524D01*
X11634238Y-10951524D02*
X11653286Y-10961048D01*
X11653286Y-10961048D02*
X11662810Y-10970571D01*
X11662810Y-10970571D02*
X11672333Y-10989619D01*
X11672333Y-10989619D02*
X11681857Y-11027714D01*
X11681857Y-11027714D02*
X11681857Y-11075333D01*
X11681857Y-11075333D02*
X11672333Y-11113429D01*
X11672333Y-11113429D02*
X11662810Y-11132476D01*
X11662810Y-11132476D02*
X11653286Y-11142000D01*
X11653286Y-11142000D02*
X11634238Y-11151524D01*
X11634238Y-11151524D02*
X11615191Y-11151524D01*
X11615191Y-11151524D02*
X11596143Y-11142000D01*
X11596143Y-11142000D02*
X11586619Y-11132476D01*
X11586619Y-11132476D02*
X11577095Y-11113429D01*
X11577095Y-11113429D02*
X11567572Y-11075333D01*
X11567572Y-11075333D02*
X11567572Y-11027714D01*
X11567572Y-11027714D02*
X11577095Y-10989619D01*
X11577095Y-10989619D02*
X11586619Y-10970571D01*
X11586619Y-10970571D02*
X11596143Y-10961048D01*
X11596143Y-10961048D02*
X11615191Y-10951524D01*
X11853286Y-11018190D02*
X11853286Y-11151524D01*
X11805667Y-10942000D02*
X11758048Y-11084857D01*
X11758048Y-11084857D02*
X11881857Y-11084857D01*
X11939000Y-10951524D02*
X12062810Y-10951524D01*
X12062810Y-10951524D02*
X11996143Y-11027714D01*
X11996143Y-11027714D02*
X12024714Y-11027714D01*
X12024714Y-11027714D02*
X12043762Y-11037238D01*
X12043762Y-11037238D02*
X12053286Y-11046762D01*
X12053286Y-11046762D02*
X12062810Y-11065810D01*
X12062810Y-11065810D02*
X12062810Y-11113429D01*
X12062810Y-11113429D02*
X12053286Y-11132476D01*
X12053286Y-11132476D02*
X12043762Y-11142000D01*
X12043762Y-11142000D02*
X12024714Y-11151524D01*
X12024714Y-11151524D02*
X11967572Y-11151524D01*
X11967572Y-11151524D02*
X11948524Y-11142000D01*
X11948524Y-11142000D02*
X11939000Y-11132476D01*
X12129476Y-10951524D02*
X12253286Y-10951524D01*
X12253286Y-10951524D02*
X12186619Y-11027714D01*
X12186619Y-11027714D02*
X12215191Y-11027714D01*
X12215191Y-11027714D02*
X12234238Y-11037238D01*
X12234238Y-11037238D02*
X12243762Y-11046762D01*
X12243762Y-11046762D02*
X12253286Y-11065810D01*
X12253286Y-11065810D02*
X12253286Y-11113429D01*
X12253286Y-11113429D02*
X12243762Y-11132476D01*
X12243762Y-11132476D02*
X12234238Y-11142000D01*
X12234238Y-11142000D02*
X12215191Y-11151524D01*
X12215191Y-11151524D02*
X12158048Y-11151524D01*
X12158048Y-11151524D02*
X12139000Y-11142000D01*
X12139000Y-11142000D02*
X12129476Y-11132476D01*
X12329476Y-10951524D02*
X12329476Y-10989619D01*
X12405667Y-10951524D02*
X12405667Y-10989619D01*
X12700905Y-11227714D02*
X12691381Y-11218190D01*
X12691381Y-11218190D02*
X12672334Y-11189619D01*
X12672334Y-11189619D02*
X12662810Y-11170571D01*
X12662810Y-11170571D02*
X12653286Y-11142000D01*
X12653286Y-11142000D02*
X12643762Y-11094381D01*
X12643762Y-11094381D02*
X12643762Y-11056286D01*
X12643762Y-11056286D02*
X12653286Y-11008667D01*
X12653286Y-11008667D02*
X12662810Y-10980095D01*
X12662810Y-10980095D02*
X12672334Y-10961048D01*
X12672334Y-10961048D02*
X12691381Y-10932476D01*
X12691381Y-10932476D02*
X12700905Y-10922952D01*
X12758048Y-10951524D02*
X12881857Y-10951524D01*
X12881857Y-10951524D02*
X12815191Y-11027714D01*
X12815191Y-11027714D02*
X12843762Y-11027714D01*
X12843762Y-11027714D02*
X12862810Y-11037238D01*
X12862810Y-11037238D02*
X12872334Y-11046762D01*
X12872334Y-11046762D02*
X12881857Y-11065810D01*
X12881857Y-11065810D02*
X12881857Y-11113429D01*
X12881857Y-11113429D02*
X12872334Y-11132476D01*
X12872334Y-11132476D02*
X12862810Y-11142000D01*
X12862810Y-11142000D02*
X12843762Y-11151524D01*
X12843762Y-11151524D02*
X12786619Y-11151524D01*
X12786619Y-11151524D02*
X12767572Y-11142000D01*
X12767572Y-11142000D02*
X12758048Y-11132476D01*
X13119953Y-11151524D02*
X13119953Y-10951524D01*
X13205667Y-11151524D02*
X13205667Y-11046762D01*
X13205667Y-11046762D02*
X13196143Y-11027714D01*
X13196143Y-11027714D02*
X13177096Y-11018190D01*
X13177096Y-11018190D02*
X13148524Y-11018190D01*
X13148524Y-11018190D02*
X13129476Y-11027714D01*
X13129476Y-11027714D02*
X13119953Y-11037238D01*
X13329476Y-11151524D02*
X13310429Y-11142000D01*
X13310429Y-11142000D02*
X13300905Y-11132476D01*
X13300905Y-11132476D02*
X13291381Y-11113429D01*
X13291381Y-11113429D02*
X13291381Y-11056286D01*
X13291381Y-11056286D02*
X13300905Y-11037238D01*
X13300905Y-11037238D02*
X13310429Y-11027714D01*
X13310429Y-11027714D02*
X13329476Y-11018190D01*
X13329476Y-11018190D02*
X13358048Y-11018190D01*
X13358048Y-11018190D02*
X13377096Y-11027714D01*
X13377096Y-11027714D02*
X13386619Y-11037238D01*
X13386619Y-11037238D02*
X13396143Y-11056286D01*
X13396143Y-11056286D02*
X13396143Y-11113429D01*
X13396143Y-11113429D02*
X13386619Y-11132476D01*
X13386619Y-11132476D02*
X13377096Y-11142000D01*
X13377096Y-11142000D02*
X13358048Y-11151524D01*
X13358048Y-11151524D02*
X13329476Y-11151524D01*
X13510429Y-11151524D02*
X13491381Y-11142000D01*
X13491381Y-11142000D02*
X13481857Y-11122952D01*
X13481857Y-11122952D02*
X13481857Y-10951524D01*
X13662810Y-11142000D02*
X13643762Y-11151524D01*
X13643762Y-11151524D02*
X13605667Y-11151524D01*
X13605667Y-11151524D02*
X13586619Y-11142000D01*
X13586619Y-11142000D02*
X13577096Y-11122952D01*
X13577096Y-11122952D02*
X13577096Y-11046762D01*
X13577096Y-11046762D02*
X13586619Y-11027714D01*
X13586619Y-11027714D02*
X13605667Y-11018190D01*
X13605667Y-11018190D02*
X13643762Y-11018190D01*
X13643762Y-11018190D02*
X13662810Y-11027714D01*
X13662810Y-11027714D02*
X13672334Y-11046762D01*
X13672334Y-11046762D02*
X13672334Y-11065810D01*
X13672334Y-11065810D02*
X13577096Y-11084857D01*
X13748524Y-11142000D02*
X13767572Y-11151524D01*
X13767572Y-11151524D02*
X13805667Y-11151524D01*
X13805667Y-11151524D02*
X13824715Y-11142000D01*
X13824715Y-11142000D02*
X13834238Y-11122952D01*
X13834238Y-11122952D02*
X13834238Y-11113429D01*
X13834238Y-11113429D02*
X13824715Y-11094381D01*
X13824715Y-11094381D02*
X13805667Y-11084857D01*
X13805667Y-11084857D02*
X13777096Y-11084857D01*
X13777096Y-11084857D02*
X13758048Y-11075333D01*
X13758048Y-11075333D02*
X13748524Y-11056286D01*
X13748524Y-11056286D02*
X13748524Y-11046762D01*
X13748524Y-11046762D02*
X13758048Y-11027714D01*
X13758048Y-11027714D02*
X13777096Y-11018190D01*
X13777096Y-11018190D02*
X13805667Y-11018190D01*
X13805667Y-11018190D02*
X13824715Y-11027714D01*
X13900905Y-11227714D02*
X13910429Y-11218190D01*
X13910429Y-11218190D02*
X13929477Y-11189619D01*
X13929477Y-11189619D02*
X13939000Y-11170571D01*
X13939000Y-11170571D02*
X13948524Y-11142000D01*
X13948524Y-11142000D02*
X13958048Y-11094381D01*
X13958048Y-11094381D02*
X13958048Y-11056286D01*
X13958048Y-11056286D02*
X13948524Y-11008667D01*
X13948524Y-11008667D02*
X13939000Y-10980095D01*
X13939000Y-10980095D02*
X13929477Y-10961048D01*
X13929477Y-10961048D02*
X13910429Y-10932476D01*
X13910429Y-10932476D02*
X13900905Y-10922952D01*
X14262810Y-11227714D02*
X14253286Y-11218190D01*
X14253286Y-11218190D02*
X14234238Y-11189619D01*
X14234238Y-11189619D02*
X14224715Y-11170571D01*
X14224715Y-11170571D02*
X14215191Y-11142000D01*
X14215191Y-11142000D02*
X14205667Y-11094381D01*
X14205667Y-11094381D02*
X14205667Y-11056286D01*
X14205667Y-11056286D02*
X14215191Y-11008667D01*
X14215191Y-11008667D02*
X14224715Y-10980095D01*
X14224715Y-10980095D02*
X14234238Y-10961048D01*
X14234238Y-10961048D02*
X14253286Y-10932476D01*
X14253286Y-10932476D02*
X14262810Y-10922952D01*
X14339000Y-11018190D02*
X14339000Y-11151524D01*
X14339000Y-11037238D02*
X14348524Y-11027714D01*
X14348524Y-11027714D02*
X14367572Y-11018190D01*
X14367572Y-11018190D02*
X14396143Y-11018190D01*
X14396143Y-11018190D02*
X14415191Y-11027714D01*
X14415191Y-11027714D02*
X14424715Y-11046762D01*
X14424715Y-11046762D02*
X14424715Y-11151524D01*
X14548524Y-11151524D02*
X14529477Y-11142000D01*
X14529477Y-11142000D02*
X14519953Y-11132476D01*
X14519953Y-11132476D02*
X14510429Y-11113429D01*
X14510429Y-11113429D02*
X14510429Y-11056286D01*
X14510429Y-11056286D02*
X14519953Y-11037238D01*
X14519953Y-11037238D02*
X14529477Y-11027714D01*
X14529477Y-11027714D02*
X14548524Y-11018190D01*
X14548524Y-11018190D02*
X14577096Y-11018190D01*
X14577096Y-11018190D02*
X14596143Y-11027714D01*
X14596143Y-11027714D02*
X14605667Y-11037238D01*
X14605667Y-11037238D02*
X14615191Y-11056286D01*
X14615191Y-11056286D02*
X14615191Y-11113429D01*
X14615191Y-11113429D02*
X14605667Y-11132476D01*
X14605667Y-11132476D02*
X14596143Y-11142000D01*
X14596143Y-11142000D02*
X14577096Y-11151524D01*
X14577096Y-11151524D02*
X14548524Y-11151524D01*
X14672334Y-11018190D02*
X14748524Y-11018190D01*
X14700905Y-10951524D02*
X14700905Y-11122952D01*
X14700905Y-11122952D02*
X14710429Y-11142000D01*
X14710429Y-11142000D02*
X14729477Y-11151524D01*
X14729477Y-11151524D02*
X14748524Y-11151524D01*
X14967572Y-11018190D02*
X14967572Y-11218190D01*
X14967572Y-11027714D02*
X14986619Y-11018190D01*
X14986619Y-11018190D02*
X15024715Y-11018190D01*
X15024715Y-11018190D02*
X15043762Y-11027714D01*
X15043762Y-11027714D02*
X15053286Y-11037238D01*
X15053286Y-11037238D02*
X15062810Y-11056286D01*
X15062810Y-11056286D02*
X15062810Y-11113429D01*
X15062810Y-11113429D02*
X15053286Y-11132476D01*
X15053286Y-11132476D02*
X15043762Y-11142000D01*
X15043762Y-11142000D02*
X15024715Y-11151524D01*
X15024715Y-11151524D02*
X14986619Y-11151524D01*
X14986619Y-11151524D02*
X14967572Y-11142000D01*
X15177096Y-11151524D02*
X15158048Y-11142000D01*
X15158048Y-11142000D02*
X15148524Y-11122952D01*
X15148524Y-11122952D02*
X15148524Y-10951524D01*
X15339000Y-11151524D02*
X15339000Y-11046762D01*
X15339000Y-11046762D02*
X15329477Y-11027714D01*
X15329477Y-11027714D02*
X15310429Y-11018190D01*
X15310429Y-11018190D02*
X15272334Y-11018190D01*
X15272334Y-11018190D02*
X15253286Y-11027714D01*
X15339000Y-11142000D02*
X15319953Y-11151524D01*
X15319953Y-11151524D02*
X15272334Y-11151524D01*
X15272334Y-11151524D02*
X15253286Y-11142000D01*
X15253286Y-11142000D02*
X15243762Y-11122952D01*
X15243762Y-11122952D02*
X15243762Y-11103905D01*
X15243762Y-11103905D02*
X15253286Y-11084857D01*
X15253286Y-11084857D02*
X15272334Y-11075333D01*
X15272334Y-11075333D02*
X15319953Y-11075333D01*
X15319953Y-11075333D02*
X15339000Y-11065810D01*
X15405667Y-11018190D02*
X15481858Y-11018190D01*
X15434239Y-10951524D02*
X15434239Y-11122952D01*
X15434239Y-11122952D02*
X15443762Y-11142000D01*
X15443762Y-11142000D02*
X15462810Y-11151524D01*
X15462810Y-11151524D02*
X15481858Y-11151524D01*
X15624715Y-11142000D02*
X15605667Y-11151524D01*
X15605667Y-11151524D02*
X15567572Y-11151524D01*
X15567572Y-11151524D02*
X15548524Y-11142000D01*
X15548524Y-11142000D02*
X15539000Y-11122952D01*
X15539000Y-11122952D02*
X15539000Y-11046762D01*
X15539000Y-11046762D02*
X15548524Y-11027714D01*
X15548524Y-11027714D02*
X15567572Y-11018190D01*
X15567572Y-11018190D02*
X15605667Y-11018190D01*
X15605667Y-11018190D02*
X15624715Y-11027714D01*
X15624715Y-11027714D02*
X15634239Y-11046762D01*
X15634239Y-11046762D02*
X15634239Y-11065810D01*
X15634239Y-11065810D02*
X15539000Y-11084857D01*
X15805667Y-11151524D02*
X15805667Y-10951524D01*
X15805667Y-11142000D02*
X15786620Y-11151524D01*
X15786620Y-11151524D02*
X15748524Y-11151524D01*
X15748524Y-11151524D02*
X15729477Y-11142000D01*
X15729477Y-11142000D02*
X15719953Y-11132476D01*
X15719953Y-11132476D02*
X15710429Y-11113429D01*
X15710429Y-11113429D02*
X15710429Y-11056286D01*
X15710429Y-11056286D02*
X15719953Y-11037238D01*
X15719953Y-11037238D02*
X15729477Y-11027714D01*
X15729477Y-11027714D02*
X15748524Y-11018190D01*
X15748524Y-11018190D02*
X15786620Y-11018190D01*
X15786620Y-11018190D02*
X15805667Y-11027714D01*
X15881858Y-11227714D02*
X15891381Y-11218190D01*
X15891381Y-11218190D02*
X15910429Y-11189619D01*
X15910429Y-11189619D02*
X15919953Y-11170571D01*
X15919953Y-11170571D02*
X15929477Y-11142000D01*
X15929477Y-11142000D02*
X15939000Y-11094381D01*
X15939000Y-11094381D02*
X15939000Y-11056286D01*
X15939000Y-11056286D02*
X15929477Y-11008667D01*
X15929477Y-11008667D02*
X15919953Y-10980095D01*
X15919953Y-10980095D02*
X15910429Y-10961048D01*
X15910429Y-10961048D02*
X15891381Y-10932476D01*
X15891381Y-10932476D02*
X15881858Y-10922952D01*
M02*
