%TF.GenerationSoftware,KiCad,Pcbnew,7.0.1*%
%TF.CreationDate,2023-06-23T23:38:44-03:00*%
%TF.ProjectId,EA075_Projeto_Final,45413037-355f-4507-926f-6a65746f5f46,rev?*%
%TF.SameCoordinates,Original*%
%TF.FileFunction,Paste,Top*%
%TF.FilePolarity,Positive*%
%FSLAX46Y46*%
G04 Gerber Fmt 4.6, Leading zero omitted, Abs format (unit mm)*
G04 Created by KiCad (PCBNEW 7.0.1) date 2023-06-23 23:38:44*
%MOMM*%
%LPD*%
G01*
G04 APERTURE LIST*
G04 Aperture macros list*
%AMRoundRect*
0 Rectangle with rounded corners*
0 $1 Rounding radius*
0 $2 $3 $4 $5 $6 $7 $8 $9 X,Y pos of 4 corners*
0 Add a 4 corners polygon primitive as box body*
4,1,4,$2,$3,$4,$5,$6,$7,$8,$9,$2,$3,0*
0 Add four circle primitives for the rounded corners*
1,1,$1+$1,$2,$3*
1,1,$1+$1,$4,$5*
1,1,$1+$1,$6,$7*
1,1,$1+$1,$8,$9*
0 Add four rect primitives between the rounded corners*
20,1,$1+$1,$2,$3,$4,$5,0*
20,1,$1+$1,$4,$5,$6,$7,0*
20,1,$1+$1,$6,$7,$8,$9,0*
20,1,$1+$1,$8,$9,$2,$3,0*%
G04 Aperture macros list end*
%ADD10RoundRect,0.079500X-0.079500X-0.100500X0.079500X-0.100500X0.079500X0.100500X-0.079500X0.100500X0*%
%ADD11RoundRect,0.079500X0.079500X0.100500X-0.079500X0.100500X-0.079500X-0.100500X0.079500X-0.100500X0*%
%ADD12RoundRect,0.150000X-0.825000X-0.150000X0.825000X-0.150000X0.825000X0.150000X-0.825000X0.150000X0*%
%ADD13R,3.100000X1.600000*%
%ADD14RoundRect,0.250000X0.435000X0.615000X-0.435000X0.615000X-0.435000X-0.615000X0.435000X-0.615000X0*%
%ADD15RoundRect,0.125000X0.200000X0.125000X-0.200000X0.125000X-0.200000X-0.125000X0.200000X-0.125000X0*%
G04 APERTURE END LIST*
D10*
%TO.C,C3*%
X226060000Y-91440000D03*
X226750000Y-91440000D03*
%TD*%
D11*
%TO.C,C2*%
X234370000Y-91440000D03*
X233680000Y-91440000D03*
%TD*%
D10*
%TO.C,C1*%
X241300000Y-91440000D03*
X241990000Y-91440000D03*
%TD*%
D12*
%TO.C,U4*%
X182945000Y-79375000D03*
X182945000Y-80645000D03*
X182945000Y-81915000D03*
X182945000Y-83185000D03*
X187895000Y-83185000D03*
X187895000Y-81915000D03*
X187895000Y-80645000D03*
X187895000Y-79375000D03*
%TD*%
D13*
%TO.C,U2*%
X176530000Y-106680000D03*
X176530000Y-104140000D03*
X176530000Y-101600000D03*
X176530000Y-99060000D03*
X176530000Y-96520000D03*
X176530000Y-93980000D03*
X176530000Y-91440000D03*
X176530000Y-88900000D03*
X176530000Y-86360000D03*
X176530000Y-83820000D03*
X176530000Y-81280000D03*
X176530000Y-78740000D03*
X176530000Y-76200000D03*
X176530000Y-73660000D03*
X167640000Y-73660000D03*
X167640000Y-76200000D03*
X167640000Y-78740000D03*
X167640000Y-81280000D03*
X167640000Y-83820000D03*
X167640000Y-86360000D03*
X167640000Y-88900000D03*
X167640000Y-91440000D03*
X167640000Y-93980000D03*
X167640000Y-96520000D03*
X167640000Y-99060000D03*
X167640000Y-101600000D03*
X167640000Y-104140000D03*
X167640000Y-106680000D03*
%TD*%
D14*
%TO.C,U3*%
X151560000Y-85970000D03*
X151560000Y-83820000D03*
X149860000Y-85970000D03*
X149860000Y-83820000D03*
D15*
X154460000Y-86800000D03*
X154460000Y-85530000D03*
X154460000Y-84260000D03*
X154460000Y-82990000D03*
X146960000Y-82990000D03*
X146960000Y-84260000D03*
X146960000Y-85530000D03*
X146960000Y-86800000D03*
%TD*%
D10*
%TO.C,C4*%
X218440000Y-91440000D03*
X219130000Y-91440000D03*
%TD*%
M02*
