G04*
G04 #@! TF.GenerationSoftware,Altium Limited,Altium Designer,22.1.2 (22)*
G04*
G04 Layer_Color=16711935*
%FSLAX43Y43*%
%MOMM*%
G71*
G04*
G04 #@! TF.SameCoordinates,3CF973F3-9CBB-499E-A860-84B5D62188FF*
G04*
G04*
G04 #@! TF.FilePolarity,Positive*
G04*
G01*
G75*
%ADD10C,0.200*%
%ADD12C,0.127*%
%ADD13C,0.000*%
%ADD14C,0.152*%
%ADD15C,0.120*%
%ADD53C,0.100*%
D10*
X49272Y23247D02*
G03*
X49272Y23247I-100J0D01*
G01*
X88003Y52795D02*
G03*
X88003Y52795I-100J0D01*
G01*
X30749Y47442D02*
G03*
X30749Y47442I-100J0D01*
G01*
X82777Y65988D02*
G03*
X82777Y65988I-100J0D01*
G01*
X82396Y77132D02*
G03*
X82396Y77132I-100J0D01*
G01*
D12*
X37659Y53249D02*
G03*
X36341Y54521I-1295J-23D01*
G01*
Y43171D02*
G03*
X37659Y44443I23J1295D01*
G01*
X32999D02*
G03*
X34317Y43171I1295J23D01*
G01*
Y54521D02*
G03*
X32999Y53249I-23J-1295D01*
G01*
X28586Y46216D02*
G03*
X30113Y46960I-207J2361D01*
G01*
X26179Y48707D02*
G03*
X28584Y46217I2447J-43D01*
G01*
Y51167D02*
G03*
X26179Y48677I43J-2447D01*
G01*
X30113Y50424D02*
G03*
X28586Y51168I-1733J-1616D01*
G01*
X50157Y15037D02*
Y21387D01*
X40567Y15037D02*
Y21387D01*
X50157D01*
X40567Y15037D02*
X50157D01*
X86833Y55638D02*
Y59358D01*
X93553D01*
Y55638D02*
Y59358D01*
X86833Y55638D02*
X93553D01*
X34319Y54521D02*
X36339D01*
X37659Y44441D02*
Y53251D01*
X34319Y43171D02*
X36339D01*
X32999Y44441D02*
Y53251D01*
X30119Y46967D02*
Y50417D01*
X83177Y64528D02*
Y71528D01*
X90177D01*
Y64528D02*
Y71528D01*
X83177Y64528D02*
X90177D01*
X82796Y75672D02*
Y82672D01*
X89796D01*
Y75672D02*
Y82672D01*
X82796Y75672D02*
X89796D01*
D13*
X43914Y72390D02*
G03*
X44524Y72390I305J0D01*
G01*
D14*
X40485Y70790D02*
Y71806D01*
X39926D02*
X40485D01*
X39926Y70790D02*
Y71806D01*
Y70790D02*
X40485D01*
Y68250D02*
Y69266D01*
X39926D02*
X40485D01*
X39926Y68250D02*
Y69266D01*
Y68250D02*
X40485D01*
Y65710D02*
Y66726D01*
X39926D02*
X40485D01*
X39926Y65710D02*
Y66726D01*
Y65710D02*
X40485D01*
Y63170D02*
Y64186D01*
X39926D02*
X40485D01*
X39926Y63170D02*
Y64186D01*
Y63170D02*
X40485D01*
Y60630D02*
Y61646D01*
X39926D02*
X40485D01*
X39926Y60630D02*
Y61646D01*
Y60630D02*
X40485D01*
Y58090D02*
Y59106D01*
X39926D02*
X40485D01*
X39926Y58090D02*
Y59106D01*
Y58090D02*
X40485D01*
Y55550D02*
Y56566D01*
X39926D02*
X40485D01*
X39926Y55550D02*
Y56566D01*
Y55550D02*
X40485D01*
Y53010D02*
Y54026D01*
X39926D02*
X40485D01*
X39926Y53010D02*
Y54026D01*
Y53010D02*
X40485D01*
Y50470D02*
Y51486D01*
X39926D02*
X40485D01*
X39926Y50470D02*
Y51486D01*
Y50470D02*
X40485D01*
Y47930D02*
Y48946D01*
X39926D02*
X40485D01*
X39926Y47930D02*
Y48946D01*
Y47930D02*
X40485D01*
Y45390D02*
Y46406D01*
X39926D02*
X40485D01*
X39926Y45390D02*
Y46406D01*
Y45390D02*
X40485D01*
Y42850D02*
Y43866D01*
X39926D02*
X40485D01*
X39926Y42850D02*
Y43866D01*
Y42850D02*
X40485D01*
Y40310D02*
Y41326D01*
X39926D02*
X40485D01*
X39926Y40310D02*
Y41326D01*
Y40310D02*
X40485D01*
Y37770D02*
Y38786D01*
X39926D02*
X40485D01*
X39926Y37770D02*
Y38786D01*
Y37770D02*
X40485D01*
X47953D02*
Y38786D01*
Y37770D02*
X48512D01*
Y38786D01*
X47953D02*
X48512D01*
X47953Y40310D02*
Y41326D01*
Y40310D02*
X48512D01*
Y41326D01*
X47953D02*
X48512D01*
X47953Y42850D02*
Y43866D01*
Y42850D02*
X48512D01*
Y43866D01*
X47953D02*
X48512D01*
X47953Y45390D02*
Y46406D01*
Y45390D02*
X48512D01*
Y46406D01*
X47953D02*
X48512D01*
X47953Y47930D02*
Y48946D01*
Y47930D02*
X48512D01*
Y48946D01*
X47953D02*
X48512D01*
X47953Y50470D02*
Y51486D01*
Y50470D02*
X48512D01*
Y51486D01*
X47953D02*
X48512D01*
X47953Y53010D02*
Y54026D01*
Y53010D02*
X48512D01*
Y54026D01*
X47953D02*
X48512D01*
X47953Y55550D02*
Y56566D01*
Y55550D02*
X48512D01*
Y56566D01*
X47953D02*
X48512D01*
X47953Y58090D02*
Y59106D01*
Y58090D02*
X48512D01*
Y59106D01*
X47953D02*
X48512D01*
X47953Y60630D02*
Y61646D01*
Y60630D02*
X48512D01*
Y61646D01*
X47953D02*
X48512D01*
X47953Y63170D02*
Y64186D01*
Y63170D02*
X48512D01*
Y64186D01*
X47953D02*
X48512D01*
X47953Y65710D02*
Y66726D01*
Y65710D02*
X48512D01*
Y66726D01*
X47953D02*
X48512D01*
X47953Y68250D02*
Y69266D01*
Y68250D02*
X48512D01*
Y69266D01*
X47953D02*
X48512D01*
X47953Y70790D02*
Y71806D01*
Y70790D02*
X48512D01*
Y71806D01*
X47953D02*
X48512D01*
X40485Y37186D02*
X47953D01*
Y72390D01*
X44524D02*
X47953D01*
X43914D02*
X44524D01*
X40485D02*
X43914D01*
X40485Y37186D02*
Y72390D01*
D15*
X27622Y19671D02*
X31522D01*
Y14721D02*
Y19671D01*
X27622Y14721D02*
X31522D01*
X27622D02*
Y19671D01*
D53*
X58146Y8750D02*
X68646D01*
X57746Y7595D02*
Y8245D01*
Y1855D02*
Y2505D01*
X58146Y1350D02*
X68646D01*
Y8750D01*
X58146Y8170D02*
Y8750D01*
Y2430D02*
Y7670D01*
Y1350D02*
Y1930D01*
X57746Y8245D02*
X58146Y8170D01*
X57746Y7595D02*
X58146Y7670D01*
X57746Y2505D02*
X58146Y2430D01*
X57746Y1855D02*
X58146Y1930D01*
X97244Y47745D02*
Y48245D01*
X87874Y33645D02*
Y34145D01*
Y33645D02*
X89074D01*
X96044Y48245D02*
X97244D01*
X96044Y47745D02*
Y48245D01*
X89074Y33645D02*
Y34145D01*
X97244D02*
X99069D01*
X96044D02*
X97244D01*
X84619D02*
X96044D01*
X89074Y47745D02*
Y48245D01*
X96044Y33645D02*
Y34145D01*
Y33645D02*
X97244D01*
X87874Y48245D02*
X89074D01*
X87874Y47745D02*
Y48245D01*
X97244Y33645D02*
Y34145D01*
Y47745D02*
X99069D01*
X96044D02*
X97244D01*
X89074D02*
X96044D01*
X87874D02*
X89074D01*
X84619D02*
X87874D01*
X84619Y34145D02*
Y47745D01*
X99069Y34145D02*
Y47745D01*
X91344Y40945D02*
X92344D01*
X91844Y40445D02*
Y41445D01*
X2119Y32266D02*
Y42766D01*
X2624Y31866D02*
X3274D01*
X8364D02*
X9014D01*
X9519Y32266D02*
Y42766D01*
X2119D02*
X9519D01*
X2119Y32266D02*
X2699D01*
X3199D02*
X8439D01*
X8939D02*
X9519D01*
X2624Y31866D02*
X2699Y32266D01*
X3199D02*
X3274Y31866D01*
X8364D02*
X8439Y32266D01*
X8939D02*
X9014Y31866D01*
X22967Y10147D02*
X33467D01*
X22567Y8992D02*
Y9642D01*
Y3252D02*
Y3902D01*
X22967Y2747D02*
X33467D01*
Y10147D01*
X22967Y9567D02*
Y10147D01*
Y3827D02*
Y9067D01*
Y2747D02*
Y3327D01*
X22567Y9642D02*
X22967Y9567D01*
X22567Y8992D02*
X22967Y9067D01*
X22567Y3902D02*
X22967Y3827D01*
X22567Y3252D02*
X22967Y3327D01*
M02*
