G04*
G04 #@! TF.GenerationSoftware,Altium Limited,Altium Designer,22.1.2 (22)*
G04*
G04 Layer_Color=16711935*
%FSLAX43Y43*%
%MOMM*%
G71*
G04*
G04 #@! TF.SameCoordinates,3CF973F3-9CBB-499E-A860-84B5D62188FF*
G04*
G04*
G04 #@! TF.FilePolarity,Negative*
G04*
G01*
G75*
%ADD27R,1.333X1.333*%
%ADD28C,1.333*%
%ADD29R,1.403X1.403*%
%ADD30C,1.403*%
%ADD31C,2.153*%
%ADD32C,1.603*%
%ADD33C,1.233*%
%ADD34R,1.702X1.702*%
%ADD35C,1.702*%
%ADD36O,2.283X1.243*%
%ADD37C,1.511*%
%ADD38R,1.511X1.511*%
%ADD39C,0.803*%
D27*
X49172Y22182D02*
D03*
D28*
X46632D02*
D03*
X44092D02*
D03*
X41552D02*
D03*
Y14242D02*
D03*
X44092D02*
D03*
X46632D02*
D03*
X49172D02*
D03*
D29*
X28979Y26848D02*
D03*
D30*
X31519D02*
D03*
X34059D02*
D03*
X44473Y9068D02*
D03*
X52093D02*
D03*
X58570Y22149D02*
D03*
Y14529D02*
D03*
X71905Y17704D02*
D03*
Y25324D02*
D03*
X99083Y53137D02*
D03*
Y60757D02*
D03*
X35075Y39421D02*
D03*
Y31801D02*
D03*
X34821Y58090D02*
D03*
Y65710D02*
D03*
X25000Y65620D02*
D03*
Y58000D02*
D03*
X20470Y40183D02*
D03*
Y32563D02*
D03*
X70127Y65329D02*
D03*
X77747D02*
D03*
X73937Y82093D02*
D03*
Y74473D02*
D03*
D31*
X63396Y4750D02*
D03*
X59896D02*
D03*
X66896D02*
D03*
X6119Y37516D02*
D03*
Y34016D02*
D03*
Y41016D02*
D03*
X28217Y6147D02*
D03*
X24717D02*
D03*
X31717D02*
D03*
D32*
X72159Y2210D02*
D03*
Y9830D02*
D03*
X82065Y51359D02*
D03*
Y58979D02*
D03*
X14501Y76759D02*
D03*
Y69139D02*
D03*
X68603Y41453D02*
D03*
X60983D02*
D03*
X14374Y53645D02*
D03*
Y46025D02*
D03*
X68095Y37770D02*
D03*
X60475D02*
D03*
X20216Y45771D02*
D03*
Y53391D02*
D03*
X68730Y45390D02*
D03*
X61110D02*
D03*
X86637Y26721D02*
D03*
Y19101D02*
D03*
X82319Y26721D02*
D03*
Y19101D02*
D03*
X77493Y26594D02*
D03*
Y18974D02*
D03*
X67587Y82982D02*
D03*
Y75362D02*
D03*
X61810Y80000D02*
D03*
X54190D02*
D03*
D33*
X35329Y46406D02*
D03*
Y51286D02*
D03*
D34*
X40409Y71298D02*
D03*
D35*
Y68758D02*
D03*
Y66218D02*
D03*
Y63678D02*
D03*
Y61138D02*
D03*
Y58598D02*
D03*
Y56058D02*
D03*
Y53518D02*
D03*
Y50978D02*
D03*
Y48438D02*
D03*
Y45898D02*
D03*
Y43358D02*
D03*
Y40818D02*
D03*
Y38278D02*
D03*
X48029D02*
D03*
Y40818D02*
D03*
Y43358D02*
D03*
Y45898D02*
D03*
Y48438D02*
D03*
Y50978D02*
D03*
Y53518D02*
D03*
Y56058D02*
D03*
Y58598D02*
D03*
Y61138D02*
D03*
Y63678D02*
D03*
Y66218D02*
D03*
Y68758D02*
D03*
Y71298D02*
D03*
D36*
X28344Y47422D02*
D03*
Y48692D02*
D03*
Y49962D02*
D03*
D37*
X89177Y66028D02*
D03*
Y68028D02*
D03*
Y70028D02*
D03*
X84177Y68028D02*
D03*
Y70028D02*
D03*
X88796Y77172D02*
D03*
Y79172D02*
D03*
Y81172D02*
D03*
X83796Y79172D02*
D03*
Y81172D02*
D03*
D38*
X84177Y66028D02*
D03*
X83796Y77172D02*
D03*
D39*
X90701Y35636D02*
D03*
X95082Y46978D02*
D03*
X92454Y45974D02*
D03*
X95425Y45034D02*
D03*
M02*
