G04*
G04 #@! TF.GenerationSoftware,Altium Limited,Altium Designer,22.1.2 (22)*
G04*
G04 Layer_Physical_Order=1*
G04 Layer_Color=255*
%FSLAX43Y43*%
%MOMM*%
G71*
G04*
G04 #@! TF.SameCoordinates,3CF973F3-9CBB-499E-A860-84B5D62188FF*
G04*
G04*
G04 #@! TF.FilePolarity,Positive*
G04*
G01*
G75*
%ADD10C,0.200*%
%ADD16C,0.254*%
G04:AMPARAMS|DCode=17|XSize=0.93mm|YSize=1.31mm|CornerRadius=0.07mm|HoleSize=0mm|Usage=FLASHONLY|Rotation=0.000|XOffset=0mm|YOffset=0mm|HoleType=Round|Shape=RoundedRectangle|*
%AMROUNDEDRECTD17*
21,1,0.930,1.171,0,0,0.0*
21,1,0.791,1.310,0,0,0.0*
1,1,0.140,0.395,-0.585*
1,1,0.140,-0.395,-0.585*
1,1,0.140,-0.395,0.585*
1,1,0.140,0.395,0.585*
%
%ADD17ROUNDEDRECTD17*%
G04:AMPARAMS|DCode=18|XSize=3.24mm|YSize=1.31mm|CornerRadius=0.098mm|HoleSize=0mm|Usage=FLASHONLY|Rotation=0.000|XOffset=0mm|YOffset=0mm|HoleType=Round|Shape=RoundedRectangle|*
%AMROUNDEDRECTD18*
21,1,3.240,1.114,0,0,0.0*
21,1,3.044,1.310,0,0,0.0*
1,1,0.197,1.522,-0.557*
1,1,0.197,-1.522,-0.557*
1,1,0.197,-1.522,0.557*
1,1,0.197,1.522,0.557*
%
%ADD18ROUNDEDRECTD18*%
%ADD19R,1.200X0.800*%
%ADD20R,2.000X1.500*%
G04:AMPARAMS|DCode=21|XSize=1.58mm|YSize=0.589mm|CornerRadius=0.118mm|HoleSize=0mm|Usage=FLASHONLY|Rotation=180.000|XOffset=0mm|YOffset=0mm|HoleType=Round|Shape=RoundedRectangle|*
%AMROUNDEDRECTD21*
21,1,1.580,0.353,0,0,180.0*
21,1,1.344,0.589,0,0,180.0*
1,1,0.236,-0.672,0.177*
1,1,0.236,0.672,0.177*
1,1,0.236,0.672,-0.177*
1,1,0.236,-0.672,-0.177*
%
%ADD21ROUNDEDRECTD21*%
%ADD40R,1.130X1.130*%
%ADD41C,1.130*%
%ADD42R,1.200X1.200*%
%ADD43C,1.200*%
%ADD44C,1.950*%
%ADD45C,1.400*%
%ADD46C,1.030*%
%ADD47R,1.499X1.499*%
%ADD48C,1.499*%
%ADD49O,2.080X1.040*%
%ADD50C,1.308*%
%ADD51R,1.308X1.308*%
%ADD52C,0.600*%
G36*
X92126Y61639D02*
X91999Y61601D01*
X91966Y61651D01*
X91851Y61728D01*
X91715Y61755D01*
X88671D01*
X88535Y61728D01*
X88420Y61651D01*
X88387Y61601D01*
X88260Y61639D01*
Y65555D01*
X88387Y65589D01*
X88454Y65473D01*
X88622Y65305D01*
X88828Y65186D01*
X89058Y65124D01*
X89296D01*
X89526Y65186D01*
X89732Y65305D01*
X89900Y65473D01*
X90019Y65679D01*
X90081Y65909D01*
Y66147D01*
X90019Y66377D01*
X89900Y66583D01*
X89732Y66751D01*
X89526Y66870D01*
X89296Y66932D01*
X89058D01*
X88828Y66870D01*
X88622Y66751D01*
X88454Y66583D01*
X88417Y66520D01*
X88286Y66546D01*
X88276Y66622D01*
X88834Y67180D01*
X89050Y67122D01*
Y67901D01*
X88271D01*
X88329Y67685D01*
X87651Y67006D01*
X87573Y66891D01*
X87546Y66754D01*
Y55068D01*
X87508D01*
X87381Y55043D01*
X87274Y54972D01*
X87203Y54865D01*
X87178Y54738D01*
Y54551D01*
X87051Y54498D01*
X82945Y58604D01*
X82950Y58612D01*
X83015Y58854D01*
Y59104D01*
X82950Y59346D01*
X82825Y59562D01*
X82648Y59739D01*
X82432Y59864D01*
X82190Y59929D01*
X81940D01*
X81698Y59864D01*
X81482Y59739D01*
X81305Y59562D01*
X81180Y59346D01*
X81115Y59104D01*
Y58854D01*
X81180Y58612D01*
X81305Y58396D01*
X81482Y58219D01*
X81698Y58094D01*
X81940Y58029D01*
X82190D01*
X82432Y58094D01*
X82440Y58099D01*
X86560Y53980D01*
Y53137D01*
Y46965D01*
X86587Y46828D01*
X86664Y46712D01*
X88086Y45290D01*
X88202Y45213D01*
X88339Y45186D01*
X88954D01*
X89043Y45097D01*
X88962Y44999D01*
X88914Y45030D01*
X88816Y45050D01*
X86019D01*
X85921Y45030D01*
X85839Y44975D01*
X85784Y44893D01*
X85764Y44795D01*
Y35790D01*
X85784Y35693D01*
X85805Y35660D01*
X85800Y35635D01*
X82067Y31901D01*
X81989Y31785D01*
X81962Y31649D01*
Y27609D01*
X81952Y27606D01*
X81736Y27481D01*
X81559Y27304D01*
X81434Y27088D01*
X81369Y26846D01*
Y26596D01*
X81434Y26354D01*
X81559Y26138D01*
X81736Y25961D01*
X81952Y25836D01*
X82194Y25771D01*
X82444D01*
X82686Y25836D01*
X82902Y25961D01*
X83079Y26138D01*
X83204Y26354D01*
X83269Y26596D01*
Y26846D01*
X83204Y27088D01*
X83079Y27304D01*
X82902Y27481D01*
X82686Y27606D01*
X82676Y27609D01*
Y31501D01*
X86201Y35026D01*
X87103D01*
X87219Y35000D01*
Y33000D01*
X89719D01*
Y33643D01*
X95419D01*
Y33000D01*
X97919D01*
X98000Y32907D01*
Y17000D01*
X94264D01*
X94240Y17005D01*
X94051D01*
X94036Y17026D01*
X93954Y17081D01*
X93856Y17101D01*
X93665D01*
X93567Y17081D01*
X93484Y17026D01*
X93470Y17005D01*
X93281D01*
X93257Y17000D01*
X90431D01*
X90406Y17005D01*
X89640D01*
X89615Y17000D01*
X89281D01*
X89256Y17005D01*
X88490D01*
X88465Y17000D01*
X72583D01*
X72530Y17127D01*
X72585Y17182D01*
X72697Y17376D01*
X72755Y17592D01*
Y17816D01*
X72697Y18032D01*
X72585Y18226D01*
X72427Y18384D01*
X72233Y18496D01*
X72017Y18554D01*
X71793D01*
X71577Y18496D01*
X71383Y18384D01*
X71225Y18226D01*
X71113Y18032D01*
X71055Y17816D01*
Y17592D01*
X71113Y17376D01*
X71225Y17182D01*
X71280Y17127D01*
X71227Y17000D01*
X46989D01*
Y21442D01*
X47135Y21527D01*
X47287Y21679D01*
X47395Y21866D01*
X47446Y22055D01*
X46632D01*
X45818D01*
X45869Y21866D01*
X45977Y21679D01*
X46129Y21527D01*
X46275Y21442D01*
Y17000D01*
X43509D01*
Y21445D01*
X43636Y21504D01*
X43777Y21423D01*
X43985Y21367D01*
X44199D01*
X44407Y21423D01*
X44592Y21530D01*
X44744Y21682D01*
X44851Y21867D01*
X44907Y22075D01*
Y22289D01*
X44851Y22497D01*
X44744Y22682D01*
X44592Y22834D01*
X44407Y22941D01*
X44199Y22997D01*
X43985D01*
X43777Y22941D01*
X43636Y22860D01*
X43509Y22919D01*
Y45953D01*
X47617Y50062D01*
X47643Y50047D01*
X47897Y49979D01*
X48161D01*
X48415Y50047D01*
X48643Y50178D01*
X48829Y50364D01*
X48960Y50592D01*
X49028Y50846D01*
Y51110D01*
X48960Y51364D01*
X48829Y51592D01*
X48643Y51778D01*
X48415Y51909D01*
X48161Y51977D01*
X47897D01*
X47643Y51909D01*
X47617Y51894D01*
X47268Y52243D01*
Y52700D01*
X47386Y52748D01*
X47415Y52718D01*
X47643Y52587D01*
X47897Y52519D01*
X48161D01*
X48415Y52587D01*
X48643Y52718D01*
X48829Y52904D01*
X48960Y53132D01*
X49028Y53386D01*
Y53650D01*
X48960Y53904D01*
X48829Y54132D01*
X48643Y54318D01*
X48415Y54449D01*
X48161Y54517D01*
X47897D01*
X47643Y54449D01*
X47415Y54318D01*
X47386Y54288D01*
X47268Y54336D01*
Y55240D01*
X47386Y55288D01*
X47415Y55258D01*
X47643Y55127D01*
X47897Y55059D01*
X48161D01*
X48415Y55127D01*
X48643Y55258D01*
X48829Y55444D01*
X48960Y55672D01*
X49028Y55926D01*
Y56190D01*
X48960Y56444D01*
X48829Y56672D01*
X48643Y56858D01*
X48415Y56989D01*
X48161Y57057D01*
X47897D01*
X47643Y56989D01*
X47415Y56858D01*
X47386Y56828D01*
X47268Y56876D01*
Y57780D01*
X47386Y57828D01*
X47415Y57798D01*
X47643Y57667D01*
X47897Y57599D01*
X48161D01*
X48415Y57667D01*
X48643Y57798D01*
X48829Y57984D01*
X48960Y58212D01*
X49028Y58466D01*
Y58730D01*
X48960Y58984D01*
X48829Y59212D01*
X48643Y59398D01*
X48415Y59529D01*
X48161Y59597D01*
X47897D01*
X47643Y59529D01*
X47415Y59398D01*
X47386Y59368D01*
X47268Y59416D01*
Y60320D01*
X47386Y60368D01*
X47415Y60338D01*
X47643Y60207D01*
X47897Y60139D01*
X48161D01*
X48415Y60207D01*
X48643Y60338D01*
X48829Y60524D01*
X48960Y60752D01*
X49028Y61006D01*
Y61270D01*
X48960Y61524D01*
X48829Y61752D01*
X48643Y61938D01*
X48415Y62069D01*
X48161Y62137D01*
X47897D01*
X47643Y62069D01*
X47415Y61938D01*
X47386Y61908D01*
X47268Y61956D01*
Y62860D01*
X47386Y62908D01*
X47415Y62878D01*
X47643Y62747D01*
X47897Y62679D01*
X48161D01*
X48415Y62747D01*
X48643Y62878D01*
X48829Y63064D01*
X48960Y63292D01*
X49028Y63546D01*
Y63810D01*
X48960Y64064D01*
X48829Y64292D01*
X48643Y64478D01*
X48415Y64609D01*
X48161Y64677D01*
X47897D01*
X47643Y64609D01*
X47415Y64478D01*
X47386Y64448D01*
X47268Y64496D01*
Y64796D01*
X47241Y64932D01*
X47164Y65048D01*
X41408Y70803D01*
Y72297D01*
X39410D01*
Y70299D01*
X40904D01*
X46555Y64648D01*
Y52096D01*
X46582Y51959D01*
X46659Y51843D01*
X47113Y51390D01*
X47098Y51364D01*
X47030Y51110D01*
Y50846D01*
X47098Y50592D01*
X47113Y50566D01*
X42900Y46354D01*
X42823Y46238D01*
X42795Y46101D01*
Y17000D01*
X41839D01*
X40755Y18083D01*
X40640Y18161D01*
X40503Y18188D01*
X33190D01*
X33134Y18273D01*
X33012Y18354D01*
X32868Y18383D01*
X31524D01*
X31381Y18354D01*
X31259Y18273D01*
X31178Y18151D01*
X31149Y18008D01*
Y17654D01*
X31178Y17511D01*
X31259Y17389D01*
X31381Y17308D01*
X31524Y17279D01*
X31839D01*
Y17113D01*
X31524D01*
X31381Y17084D01*
X31259Y17003D01*
X31257Y17000D01*
X29920D01*
Y17734D01*
X30930Y18744D01*
X31202D01*
X31259Y18659D01*
X31381Y18578D01*
X31524Y18549D01*
X32868D01*
X33012Y18578D01*
X33134Y18659D01*
X33215Y18781D01*
X33243Y18924D01*
Y19278D01*
X33215Y19421D01*
X33134Y19543D01*
X33012Y19624D01*
X32868Y19653D01*
X31524D01*
X31381Y19624D01*
X31259Y19543D01*
X31202Y19458D01*
X30782D01*
X30646Y19431D01*
X30530Y19353D01*
X29567Y18390D01*
X29450Y18453D01*
X29463Y18517D01*
Y24287D01*
X31223Y26047D01*
X31407Y25998D01*
X31631D01*
X31847Y26056D01*
X32041Y26168D01*
X32199Y26326D01*
X32311Y26520D01*
X32369Y26736D01*
Y26960D01*
X32311Y27176D01*
X32199Y27370D01*
X32041Y27528D01*
X31876Y27623D01*
Y31780D01*
X39997Y39902D01*
X40023Y39887D01*
X40277Y39819D01*
X40541D01*
X40795Y39887D01*
X41023Y40018D01*
X41209Y40204D01*
X41340Y40432D01*
X41408Y40686D01*
Y40950D01*
X41340Y41204D01*
X41209Y41432D01*
X41023Y41618D01*
X40795Y41749D01*
X40541Y41817D01*
X40277D01*
X40023Y41749D01*
X39795Y41618D01*
X39609Y41432D01*
X39478Y41204D01*
X39410Y40950D01*
Y40686D01*
X39478Y40432D01*
X39493Y40406D01*
X31267Y32180D01*
X31189Y32065D01*
X31162Y31928D01*
Y27623D01*
X30997Y27528D01*
X30839Y27370D01*
X30727Y27176D01*
X30669Y26960D01*
Y26736D01*
X30718Y26552D01*
X28854Y24687D01*
X28776Y24572D01*
X28749Y24435D01*
Y18665D01*
X28272Y18188D01*
X27941D01*
X27884Y18273D01*
X27763Y18354D01*
X27619Y18383D01*
X26275D01*
X26267Y18436D01*
X26383Y18545D01*
X26820D01*
Y19101D01*
X26947D01*
Y19228D01*
X27998D01*
Y19278D01*
X27969Y19423D01*
X27887Y19546D01*
X27764Y19628D01*
X27619Y19657D01*
X27304D01*
Y25684D01*
X27998Y26378D01*
X28125Y26326D01*
Y25994D01*
X28852D01*
Y26848D01*
Y27702D01*
X28701D01*
Y46641D01*
X28864D01*
X29066Y46668D01*
X29254Y46746D01*
X29416Y46870D01*
X29540Y47032D01*
X29618Y47220D01*
X29628Y47295D01*
X28344D01*
X27060D01*
X27070Y47220D01*
X27148Y47032D01*
X27272Y46870D01*
X27434Y46746D01*
X27622Y46668D01*
X27824Y46641D01*
X27987D01*
Y27483D01*
X28014Y27346D01*
X28024Y27332D01*
X27963Y27205D01*
X27826Y27178D01*
X27711Y27100D01*
X26695Y26084D01*
X26617Y25969D01*
X26590Y25832D01*
Y19657D01*
X26275D01*
X26130Y19628D01*
X26007Y19546D01*
X25925Y19423D01*
X25919Y19395D01*
X25856Y19353D01*
X25552Y19049D01*
X25474Y18933D01*
X25447Y18796D01*
Y17000D01*
X4000D01*
Y80000D01*
X53240D01*
Y79875D01*
X53305Y79633D01*
X53430Y79417D01*
X53607Y79240D01*
X53823Y79115D01*
X53833Y79112D01*
Y75067D01*
X48441Y69674D01*
X48415Y69689D01*
X48161Y69757D01*
X47897D01*
X47643Y69689D01*
X47415Y69558D01*
X47229Y69372D01*
X47098Y69144D01*
X47030Y68890D01*
Y68626D01*
X47098Y68372D01*
X47229Y68144D01*
X47415Y67958D01*
X47643Y67827D01*
X47897Y67759D01*
X48161D01*
X48415Y67827D01*
X48643Y67958D01*
X48829Y68144D01*
X48960Y68372D01*
X49028Y68626D01*
Y68890D01*
X48960Y69144D01*
X48945Y69170D01*
X54442Y74667D01*
X54520Y74782D01*
X54547Y74919D01*
Y79112D01*
X54557Y79115D01*
X54773Y79240D01*
X54950Y79417D01*
X55075Y79633D01*
X55140Y79875D01*
Y80000D01*
X60860D01*
Y79875D01*
X60925Y79633D01*
X61050Y79417D01*
X61227Y79240D01*
X61443Y79115D01*
X61685Y79050D01*
X61935D01*
X62177Y79115D01*
X62393Y79240D01*
X62570Y79417D01*
X62695Y79633D01*
X62760Y79875D01*
Y80000D01*
X70064D01*
X70459Y79605D01*
X70575Y79528D01*
X70711Y79501D01*
X76502D01*
X76639Y79528D01*
X76755Y79605D01*
X77149Y80000D01*
X83177D01*
X83213Y79873D01*
X83069Y79730D01*
X82950Y79522D01*
X82890Y79299D01*
X83796D01*
X84702D01*
X84642Y79522D01*
X84523Y79730D01*
X84379Y79873D01*
X84415Y80000D01*
X88177D01*
X88213Y79873D01*
X88069Y79730D01*
X87950Y79522D01*
X87890Y79299D01*
X88796D01*
X89702D01*
X89642Y79522D01*
X89523Y79730D01*
X89379Y79873D01*
X89415Y80000D01*
X92126D01*
Y61639D01*
D02*
G37*
G36*
X98000Y53494D02*
X93265D01*
X93204Y53568D01*
Y54738D01*
X93179Y54863D01*
X93109Y54969D01*
X93003Y55039D01*
X92878Y55064D01*
X92840D01*
Y80000D01*
X98000D01*
Y53494D01*
D02*
G37*
G36*
X88420Y60035D02*
X88535Y59958D01*
X88671Y59931D01*
X91715D01*
X91851Y59958D01*
X91966Y60035D01*
X91999Y60085D01*
X92126Y60047D01*
Y55064D01*
X92088D01*
X91963Y55039D01*
X91857Y54969D01*
X91787Y54863D01*
X91762Y54738D01*
Y53568D01*
X91701Y53494D01*
X90975D01*
X90914Y53568D01*
Y54738D01*
X90889Y54863D01*
X90819Y54969D01*
X90713Y55039D01*
X90588Y55064D01*
X89798D01*
X89673Y55039D01*
X89567Y54969D01*
X89497Y54863D01*
X89472Y54738D01*
Y53568D01*
X89411Y53494D01*
X88689D01*
X88628Y53568D01*
Y54026D01*
X87903D01*
Y54280D01*
X88628D01*
Y54738D01*
X88603Y54865D01*
X88532Y54972D01*
X88425Y55043D01*
X88298Y55068D01*
X88260D01*
Y60047D01*
X88387Y60085D01*
X88420Y60035D01*
D02*
G37*
G36*
X90308Y52860D02*
X90387Y52807D01*
X90523Y52780D01*
X98000D01*
Y48983D01*
X97919Y48890D01*
X95419D01*
Y48247D01*
X89719D01*
Y48890D01*
X87273D01*
Y52780D01*
X89914D01*
X89936Y52785D01*
X89958Y52783D01*
X90003Y52798D01*
X90050Y52807D01*
X90069Y52820D01*
X90090Y52827D01*
X90126Y52858D01*
X90166Y52885D01*
X90260D01*
X90308Y52860D01*
D02*
G37*
G36*
X94733Y47406D02*
X94616Y47289D01*
X94533Y47087D01*
Y46932D01*
X93192Y45592D01*
X93115Y45476D01*
X93087Y45339D01*
Y43256D01*
X93095Y43219D01*
X93095Y43181D01*
X93108Y43151D01*
X93115Y43120D01*
X93136Y43088D01*
X93151Y43053D01*
X93174Y43031D01*
X93192Y43004D01*
X93224Y42983D01*
X93251Y42956D01*
X93281Y42945D01*
X93308Y42927D01*
X93345Y42919D01*
X93380Y42905D01*
X93619Y42862D01*
Y42327D01*
X93481D01*
X92810Y42998D01*
Y45553D01*
X92920Y45663D01*
X93004Y45865D01*
Y46084D01*
X92920Y46286D01*
X92765Y46440D01*
X92563Y46524D01*
X92344D01*
X92142Y46440D01*
X91987Y46286D01*
X91904Y46084D01*
Y45865D01*
X91987Y45663D01*
X92097Y45553D01*
Y43218D01*
X91979Y43170D01*
X89354Y45795D01*
X89239Y45872D01*
X89102Y45899D01*
X88487D01*
X87613Y46773D01*
X87662Y46890D01*
X89719D01*
Y47533D01*
X94681D01*
X94733Y47406D01*
D02*
G37*
G36*
X96312Y35000D02*
X95419D01*
Y34357D01*
X89719D01*
Y35000D01*
X89673D01*
X89635Y35127D01*
X89639Y35130D01*
X90030Y35521D01*
X90167Y35478D01*
X90231Y35323D01*
X90387Y35167D01*
X90574Y35089D01*
Y35636D01*
X90701D01*
Y35763D01*
X91333D01*
X93492Y37923D01*
X93619Y37870D01*
Y36920D01*
Y35820D01*
X95319D01*
Y37237D01*
X95333Y37240D01*
X95449Y37318D01*
X95678Y37546D01*
X95755Y37662D01*
X95782Y37799D01*
Y44613D01*
X95892Y44723D01*
X95975Y44925D01*
Y45144D01*
X95892Y45346D01*
X95737Y45501D01*
X95535Y45584D01*
X95316D01*
X95114Y45501D01*
X94959Y45346D01*
X94875Y45144D01*
Y44925D01*
X94805Y44820D01*
X93801D01*
Y45191D01*
X95037Y46428D01*
X95192D01*
X95394Y46511D01*
X95549Y46666D01*
X95632Y46868D01*
Y46890D01*
X96312D01*
Y35000D01*
D02*
G37*
G36*
X93522Y40618D02*
X93619Y40553D01*
Y40087D01*
X93522Y40022D01*
X89239Y35739D01*
X89113D01*
X89071Y35790D01*
Y44795D01*
X89052Y44893D01*
X89020Y44940D01*
X89118Y45021D01*
X93522Y40618D01*
D02*
G37*
G36*
X97919Y46890D02*
X98000Y46797D01*
Y35093D01*
X97919Y35000D01*
X97026D01*
Y46890D01*
X97919D01*
D02*
G37*
G36*
X40712Y17117D02*
X40663Y17000D01*
X33136D01*
X33134Y17003D01*
X33012Y17084D01*
X32868Y17113D01*
X32553D01*
Y17279D01*
X32868D01*
X33012Y17308D01*
X33134Y17389D01*
X33190Y17474D01*
X40355D01*
X40712Y17117D01*
D02*
G37*
G36*
X93856Y16750D02*
X94240D01*
Y16654D01*
X94335D01*
Y16558D01*
X94527D01*
Y16367D01*
X94623D01*
Y16271D01*
X94719D01*
Y15408D01*
X94623D01*
Y15217D01*
X94527D01*
Y15121D01*
X94431D01*
Y15025D01*
X94335D01*
Y14929D01*
X94144D01*
Y14833D01*
X93377D01*
Y14929D01*
X93185D01*
Y15025D01*
X93090D01*
Y15121D01*
X92994D01*
Y15217D01*
X92898D01*
Y15408D01*
X92802D01*
Y16175D01*
X92898D01*
Y16367D01*
X92994D01*
Y16462D01*
X93090D01*
Y16558D01*
X93185D01*
Y16654D01*
X93281D01*
Y16750D01*
X93665D01*
Y16846D01*
X93856D01*
Y16750D01*
D02*
G37*
G36*
X95102Y15025D02*
X95294D01*
Y14929D01*
X95390D01*
Y14833D01*
X95485D01*
Y14738D01*
X95677D01*
Y14642D01*
X95773D01*
Y14546D01*
X95869D01*
Y14450D01*
X96060D01*
Y14354D01*
X96156D01*
Y14258D01*
X96252D01*
Y14163D01*
X96348D01*
Y14067D01*
X96444D01*
Y13971D01*
X96540D01*
Y13875D01*
X96635D01*
Y13779D01*
X96731D01*
Y13683D01*
X96827D01*
Y13587D01*
X96923D01*
Y13492D01*
X97019D01*
Y13396D01*
X97115D01*
Y13300D01*
X97019D01*
Y13204D01*
X96923D01*
Y13108D01*
X96827D01*
Y13012D01*
X96731D01*
Y12917D01*
X96635D01*
Y12821D01*
X96540D01*
Y12725D01*
X96444D01*
Y12629D01*
X96348D01*
Y12533D01*
X96252D01*
Y12438D01*
X96156D01*
Y12342D01*
X96060D01*
Y12246D01*
X95965D01*
Y12150D01*
X95869D01*
Y12054D01*
X95773D01*
Y11958D01*
X95677D01*
Y11863D01*
X95581D01*
Y11767D01*
X95485D01*
Y11671D01*
X95390D01*
Y11575D01*
X95294D01*
Y11479D01*
X95198D01*
Y11383D01*
X95102D01*
Y11288D01*
X95006D01*
Y11192D01*
X94910D01*
Y11096D01*
X94815D01*
Y11000D01*
X94719D01*
Y10904D01*
X94623D01*
Y10808D01*
X94527D01*
Y10712D01*
X94431D01*
Y10617D01*
X94335D01*
Y10521D01*
X94240D01*
Y10425D01*
X94144D01*
Y10329D01*
X94048D01*
Y10233D01*
X93952D01*
Y10137D01*
X93856D01*
Y10042D01*
X93760D01*
Y9946D01*
X93665D01*
Y9850D01*
X93569D01*
Y9754D01*
X93473D01*
Y9658D01*
X93377D01*
Y9562D01*
X93281D01*
Y9467D01*
X93185D01*
Y9371D01*
X93090D01*
Y9275D01*
X92994D01*
Y9179D01*
X92898D01*
Y9083D01*
X92802D01*
Y8988D01*
X92706D01*
Y8892D01*
X92610D01*
Y8796D01*
X92515D01*
Y8700D01*
X92419D01*
Y8604D01*
X92323D01*
Y8508D01*
X92227D01*
Y8413D01*
X92131D01*
Y8317D01*
X92035D01*
Y8221D01*
X91940D01*
Y8125D01*
X91844D01*
Y8029D01*
X91748D01*
Y7933D01*
X91652D01*
Y7838D01*
X91556D01*
Y7933D01*
X91460D01*
Y8029D01*
X91365D01*
Y8125D01*
X91173D01*
Y8221D01*
X91077D01*
Y8317D01*
X90885D01*
Y8413D01*
X90981D01*
Y8604D01*
X91077D01*
Y8892D01*
X91173D01*
Y9083D01*
X91269D01*
Y9275D01*
X91365D01*
Y9562D01*
X91460D01*
Y9754D01*
X91556D01*
Y10042D01*
X91652D01*
Y10233D01*
X91748D01*
Y10521D01*
X91844D01*
Y10712D01*
X91940D01*
Y10904D01*
X92035D01*
Y11192D01*
X92131D01*
Y11383D01*
X92227D01*
Y11671D01*
X92323D01*
Y11863D01*
X92419D01*
Y12054D01*
X92515D01*
Y12342D01*
X92610D01*
Y12533D01*
X92706D01*
Y12821D01*
X92802D01*
Y13012D01*
X92898D01*
Y13204D01*
X92994D01*
Y13492D01*
X93090D01*
Y13683D01*
X93185D01*
Y13971D01*
X93281D01*
Y14163D01*
X93377D01*
Y14354D01*
X93473D01*
Y14450D01*
X93569D01*
Y14354D01*
X94048D01*
Y14450D01*
X94335D01*
Y14546D01*
X94527D01*
Y14642D01*
X94623D01*
Y14738D01*
X94719D01*
Y14833D01*
X94815D01*
Y14929D01*
X94910D01*
Y15025D01*
X95006D01*
Y15121D01*
X95102D01*
Y15025D01*
D02*
G37*
G36*
X90406Y16654D02*
X91173D01*
Y16558D01*
X91652D01*
Y16462D01*
X92035D01*
Y16367D01*
X92419D01*
Y16175D01*
X92323D01*
Y15504D01*
X92419D01*
Y15217D01*
X92515D01*
Y15025D01*
X92610D01*
Y14929D01*
X92706D01*
Y14833D01*
X92802D01*
Y14738D01*
X92898D01*
Y14642D01*
X92994D01*
Y14354D01*
X92898D01*
Y14163D01*
X92802D01*
Y13971D01*
X92706D01*
Y13683D01*
X92610D01*
Y13492D01*
X92515D01*
Y13204D01*
X92419D01*
Y13012D01*
X92323D01*
Y12725D01*
X92227D01*
Y12533D01*
X92131D01*
Y12342D01*
X92035D01*
Y12054D01*
X91940D01*
Y11863D01*
X91844D01*
Y11575D01*
X91748D01*
Y11383D01*
X91652D01*
Y11192D01*
X91556D01*
Y10904D01*
X91460D01*
Y10712D01*
X91365D01*
Y10425D01*
X91269D01*
Y10233D01*
X91173D01*
Y10042D01*
X91077D01*
Y9754D01*
X90981D01*
Y9562D01*
X90885D01*
Y9275D01*
X90790D01*
Y9083D01*
X90694D01*
Y8796D01*
X90598D01*
Y8604D01*
X90502D01*
Y8508D01*
X90310D01*
Y8604D01*
X89927D01*
Y8700D01*
X89640D01*
Y14929D01*
Y15025D01*
Y16750D01*
X90406D01*
Y16654D01*
D02*
G37*
G36*
X89256D02*
X89160D01*
Y15887D01*
X89256D01*
Y15792D01*
X89160D01*
Y14450D01*
X89256D01*
Y14354D01*
X89160D01*
Y13971D01*
X89256D01*
Y13875D01*
X89160D01*
Y13587D01*
X89256D01*
Y13492D01*
X89160D01*
Y12725D01*
X89256D01*
Y12533D01*
X89160D01*
Y12150D01*
Y12054D01*
Y11575D01*
X89256D01*
Y11479D01*
X89160D01*
Y10904D01*
X89256D01*
Y10808D01*
X89160D01*
Y10137D01*
X89256D01*
Y10042D01*
X89160D01*
Y9179D01*
X89256D01*
Y9083D01*
X89160D01*
Y8700D01*
X88969D01*
Y8604D01*
X88490D01*
Y8508D01*
X88298D01*
Y8700D01*
X88202D01*
Y8988D01*
X88106D01*
Y9179D01*
X88010D01*
Y9371D01*
X87915D01*
Y9658D01*
X87819D01*
Y9850D01*
X87723D01*
Y10137D01*
X87627D01*
Y10329D01*
X87531D01*
Y10521D01*
X87435D01*
Y10808D01*
X87340D01*
Y11000D01*
X87244D01*
Y11288D01*
X87148D01*
Y11479D01*
X87052D01*
Y11671D01*
X86956D01*
Y11958D01*
X86860D01*
Y12150D01*
X86765D01*
Y12438D01*
X86669D01*
Y12629D01*
X86573D01*
Y12917D01*
X86477D01*
Y13108D01*
X86381D01*
Y13300D01*
X86285D01*
Y13587D01*
X86190D01*
Y13779D01*
X86094D01*
Y14067D01*
X85998D01*
Y14258D01*
X85902D01*
Y14546D01*
X85806D01*
Y14738D01*
X85710D01*
Y14929D01*
X85615D01*
Y15217D01*
X85519D01*
Y15408D01*
X85423D01*
Y15696D01*
X85327D01*
Y15983D01*
X85615D01*
Y16079D01*
X85806D01*
Y16175D01*
X86094D01*
Y16271D01*
X86477D01*
Y16367D01*
X86765D01*
Y16462D01*
X87148D01*
Y16558D01*
X87723D01*
Y16654D01*
X88490D01*
Y16750D01*
X89256D01*
Y16654D01*
D02*
G37*
G36*
X84944Y15504D02*
X85040D01*
Y15217D01*
X85135D01*
Y15025D01*
X85231D01*
Y14738D01*
X85327D01*
Y14546D01*
X85423D01*
Y14258D01*
X85519D01*
Y14067D01*
X85615D01*
Y13875D01*
X85710D01*
Y13587D01*
X85806D01*
Y13396D01*
X85902D01*
Y13108D01*
X85998D01*
Y12917D01*
X86094D01*
Y12725D01*
X86190D01*
Y12438D01*
X86285D01*
Y12246D01*
X86381D01*
Y11958D01*
X86477D01*
Y11767D01*
X86573D01*
Y11575D01*
Y11479D01*
X86669D01*
Y11288D01*
X86765D01*
Y11096D01*
X86860D01*
Y10808D01*
X86956D01*
Y10617D01*
X87052D01*
Y10329D01*
X87148D01*
Y10137D01*
X87244D01*
Y9946D01*
X87340D01*
Y9658D01*
X87435D01*
Y9467D01*
X87531D01*
Y9179D01*
X87627D01*
Y8988D01*
X87723D01*
Y8700D01*
X87819D01*
Y8508D01*
X87915D01*
Y8317D01*
X87819D01*
Y8221D01*
X87627D01*
Y8125D01*
X87531D01*
Y8029D01*
X87340D01*
Y7933D01*
X87244D01*
Y7838D01*
X87148D01*
Y7933D01*
X87052D01*
Y8029D01*
X86956D01*
Y8125D01*
X86860D01*
Y8221D01*
X86765D01*
Y8317D01*
X86669D01*
Y8413D01*
X86573D01*
Y8508D01*
X86477D01*
Y8604D01*
X86381D01*
Y8700D01*
X86285D01*
Y8796D01*
X86190D01*
Y8892D01*
X86094D01*
Y8988D01*
X85998D01*
Y9083D01*
X85902D01*
Y9179D01*
X85806D01*
Y9275D01*
X85710D01*
Y9371D01*
X85615D01*
Y9467D01*
X85519D01*
Y9562D01*
X85423D01*
Y9658D01*
X85327D01*
Y9754D01*
X85231D01*
Y9850D01*
X85135D01*
Y9946D01*
X85040D01*
Y10042D01*
X84944D01*
Y10137D01*
X84848D01*
Y10233D01*
X84752D01*
Y10329D01*
X84656D01*
Y10425D01*
X84560D01*
Y10521D01*
X84465D01*
Y10617D01*
X84369D01*
Y10712D01*
X84273D01*
Y10808D01*
X84177D01*
Y10904D01*
X84081D01*
Y11000D01*
X83985D01*
Y11096D01*
X83890D01*
Y11192D01*
X83794D01*
Y11288D01*
X83698D01*
Y11383D01*
X83602D01*
Y11479D01*
X83506D01*
Y11575D01*
X83410D01*
Y11671D01*
X83315D01*
Y11767D01*
X83219D01*
Y11863D01*
X83123D01*
Y11958D01*
X83027D01*
Y12054D01*
X82931D01*
Y12150D01*
X82835D01*
Y12246D01*
X82740D01*
Y12342D01*
X82644D01*
Y12438D01*
X82548D01*
Y12533D01*
X82452D01*
Y12629D01*
X82356D01*
Y12725D01*
X82260D01*
Y12821D01*
X82165D01*
Y12917D01*
X82069D01*
Y13012D01*
X81973D01*
Y13108D01*
X81877D01*
Y13204D01*
X81781D01*
Y13396D01*
X81877D01*
Y13587D01*
X81973D01*
Y13683D01*
X82069D01*
Y13779D01*
X82165D01*
Y13875D01*
X82260D01*
Y13971D01*
X82356D01*
Y14067D01*
X82452D01*
Y14163D01*
X82644D01*
Y14258D01*
X82740D01*
Y14354D01*
X82835D01*
Y14450D01*
X82931D01*
Y14546D01*
X83027D01*
Y14642D01*
X83219D01*
Y14738D01*
X83315D01*
Y14833D01*
X83410D01*
Y14929D01*
X83602D01*
Y15025D01*
X83698D01*
Y15121D01*
X83890D01*
Y15217D01*
X83985D01*
Y15312D01*
X84177D01*
Y15408D01*
X84369D01*
Y15504D01*
X84560D01*
Y15600D01*
X84752D01*
Y15696D01*
X84944D01*
Y15504D01*
D02*
G37*
G36*
X97498Y12725D02*
X97594D01*
Y12629D01*
X97690D01*
Y12533D01*
X97785D01*
Y12342D01*
X97881D01*
Y12150D01*
X97977D01*
Y12054D01*
X98073D01*
Y11863D01*
X98169D01*
Y11671D01*
X98265D01*
Y11479D01*
X98360D01*
Y11288D01*
X98456D01*
Y11096D01*
X98552D01*
Y10808D01*
X98648D01*
Y10617D01*
X98744D01*
Y10329D01*
X98840D01*
Y10042D01*
X98935D01*
Y9754D01*
X99031D01*
Y9467D01*
X98744D01*
Y9371D01*
X98552D01*
Y9275D01*
X98265D01*
Y9179D01*
X98073D01*
Y9083D01*
X97881D01*
Y8988D01*
X97594D01*
Y8892D01*
X97402D01*
Y8796D01*
X97115D01*
Y8700D01*
X96923D01*
Y8604D01*
X96635D01*
Y8508D01*
X96444D01*
Y8413D01*
X96252D01*
Y8317D01*
X95965D01*
Y8221D01*
X95773D01*
Y8125D01*
X95485D01*
Y8029D01*
X95294D01*
Y7933D01*
X95006D01*
Y7838D01*
X94815D01*
Y7742D01*
X94623D01*
Y7646D01*
X94335D01*
Y7550D01*
X94144D01*
Y7454D01*
X93952D01*
Y7358D01*
X93665D01*
Y7262D01*
X93473D01*
Y7167D01*
X93185D01*
Y7071D01*
X92994D01*
Y6975D01*
X92706D01*
Y6879D01*
X92515D01*
Y6783D01*
X92419D01*
Y6975D01*
X92323D01*
Y7071D01*
X92227D01*
Y7262D01*
X92131D01*
Y7358D01*
X92035D01*
Y7454D01*
X91940D01*
Y7550D01*
X92035D01*
Y7646D01*
X92131D01*
Y7742D01*
X92227D01*
Y7838D01*
X92323D01*
Y7933D01*
X92419D01*
Y8029D01*
X92515D01*
Y8125D01*
X92610D01*
Y8221D01*
X92706D01*
Y8317D01*
X92802D01*
Y8413D01*
X92898D01*
Y8508D01*
X92994D01*
Y8604D01*
X93090D01*
Y8700D01*
X93185D01*
Y8796D01*
X93281D01*
Y8892D01*
X93377D01*
Y8988D01*
X93473D01*
Y9083D01*
X93569D01*
Y9179D01*
X93665D01*
Y9275D01*
X93760D01*
Y9371D01*
X93856D01*
Y9467D01*
X93952D01*
Y9562D01*
X94048D01*
Y9658D01*
X94144D01*
Y9754D01*
X94240D01*
Y9850D01*
X94335D01*
Y9946D01*
X94431D01*
Y10042D01*
X94527D01*
Y10137D01*
X94623D01*
Y10233D01*
X94719D01*
Y10329D01*
X94815D01*
Y10425D01*
X94910D01*
Y10521D01*
X95006D01*
Y10617D01*
X95102D01*
Y10712D01*
X95198D01*
Y10808D01*
X95294D01*
Y10904D01*
X95390D01*
Y11000D01*
X95485D01*
Y11096D01*
X95581D01*
Y11192D01*
X95677D01*
Y11288D01*
X95773D01*
Y11383D01*
X95869D01*
Y11479D01*
X95965D01*
Y11575D01*
X96060D01*
Y11671D01*
X96156D01*
Y11767D01*
X96252D01*
Y11863D01*
X96348D01*
Y11958D01*
X96444D01*
Y12054D01*
X96540D01*
Y12150D01*
X96635D01*
Y12246D01*
X96731D01*
Y12342D01*
X96827D01*
Y12438D01*
X96923D01*
Y12533D01*
X97019D01*
Y12629D01*
X97115D01*
Y12725D01*
X97210D01*
Y12821D01*
X97306D01*
Y12917D01*
X97498D01*
Y12725D01*
D02*
G37*
G36*
X81590Y12821D02*
X81685D01*
Y12725D01*
X81781D01*
Y12629D01*
X81877D01*
Y12533D01*
X81973D01*
Y12438D01*
X82069D01*
Y12342D01*
X82165D01*
Y12246D01*
X82260D01*
Y12150D01*
X82356D01*
Y12054D01*
X82452D01*
Y11958D01*
X82548D01*
Y11863D01*
X82644D01*
Y11767D01*
X82740D01*
Y11671D01*
X82835D01*
Y11575D01*
X82931D01*
Y11479D01*
X83027D01*
Y11383D01*
X83123D01*
Y11288D01*
X83219D01*
Y11192D01*
X83315D01*
Y11096D01*
X83410D01*
Y11000D01*
X83506D01*
Y10904D01*
X83602D01*
Y10808D01*
X83698D01*
Y10712D01*
X83794D01*
Y10617D01*
X83890D01*
Y10521D01*
X83985D01*
Y10425D01*
X84081D01*
Y10329D01*
X84177D01*
Y10233D01*
X84273D01*
Y10137D01*
X84369D01*
Y10042D01*
X84465D01*
Y9946D01*
X84560D01*
Y9850D01*
X84656D01*
Y9754D01*
X84752D01*
Y9658D01*
X84848D01*
Y9562D01*
X84944D01*
Y9467D01*
X85040D01*
Y9371D01*
X85135D01*
Y9275D01*
X85231D01*
Y9179D01*
X85327D01*
Y9083D01*
X85423D01*
Y8988D01*
X85519D01*
Y8892D01*
X85615D01*
Y8796D01*
X85710D01*
Y8700D01*
X85806D01*
Y8604D01*
X85902D01*
Y8508D01*
X85998D01*
Y8413D01*
X86094D01*
Y8317D01*
X86190D01*
Y8221D01*
X86285D01*
Y8125D01*
X86381D01*
Y8029D01*
X86477D01*
Y7933D01*
X86573D01*
Y7838D01*
X86669D01*
Y7742D01*
X86765D01*
Y7646D01*
X86860D01*
Y7454D01*
X86765D01*
Y7262D01*
X86669D01*
Y7167D01*
X86573D01*
Y6975D01*
X86477D01*
Y6879D01*
X86381D01*
Y6783D01*
X86285D01*
Y6879D01*
X86094D01*
Y6975D01*
X85902D01*
Y7071D01*
X85615D01*
Y7167D01*
X85423D01*
Y7262D01*
X85135D01*
Y7358D01*
X84944D01*
Y7454D01*
X84752D01*
Y7550D01*
X84465D01*
Y7646D01*
X84273D01*
Y7742D01*
X83985D01*
Y7838D01*
X83794D01*
Y7933D01*
X83506D01*
Y8029D01*
X83315D01*
Y8125D01*
X83123D01*
Y8221D01*
X82835D01*
Y8317D01*
X82644D01*
Y8413D01*
X82452D01*
Y8508D01*
X82165D01*
Y8604D01*
X81973D01*
Y8700D01*
X81685D01*
Y8796D01*
X81494D01*
Y8892D01*
X81206D01*
Y8988D01*
X81015D01*
Y9083D01*
X80727D01*
Y9179D01*
X80535D01*
Y9275D01*
X80344D01*
Y9371D01*
X80056D01*
Y9467D01*
X79865D01*
Y9754D01*
X79960D01*
Y10137D01*
X80056D01*
Y10425D01*
X80152D01*
Y10712D01*
X80248D01*
Y11000D01*
X80344D01*
Y11192D01*
X80440D01*
Y11383D01*
X80535D01*
Y11575D01*
X80631D01*
Y11767D01*
X80727D01*
Y11958D01*
X80823D01*
Y12150D01*
X80919D01*
Y12246D01*
X81015D01*
Y12438D01*
X81110D01*
Y12533D01*
X81206D01*
Y12725D01*
X81302D01*
Y12821D01*
X81398D01*
Y12917D01*
X81590D01*
Y12821D01*
D02*
G37*
G36*
X99223Y8892D02*
X99319D01*
Y8604D01*
X99415D01*
Y8317D01*
X99510D01*
Y8125D01*
X99606D01*
Y7838D01*
X99702D01*
Y7550D01*
X99798D01*
Y7262D01*
X99894D01*
Y6975D01*
X99990D01*
Y6592D01*
X99798D01*
Y6496D01*
X99606D01*
Y6400D01*
X99510D01*
Y6304D01*
X99415D01*
Y6113D01*
X99319D01*
Y6017D01*
X99223D01*
Y5825D01*
X99127D01*
Y5537D01*
X92802D01*
Y5729D01*
X92706D01*
Y6208D01*
X92610D01*
Y6400D01*
X92706D01*
Y6496D01*
X92898D01*
Y6592D01*
X93185D01*
Y6688D01*
X93377D01*
Y6783D01*
X93665D01*
Y6879D01*
X93856D01*
Y6975D01*
X94048D01*
Y7071D01*
X94335D01*
Y7167D01*
X94527D01*
Y7262D01*
X94815D01*
Y7358D01*
X95006D01*
Y7454D01*
X95294D01*
Y7550D01*
X95485D01*
Y7646D01*
X95677D01*
Y7742D01*
X95965D01*
Y7838D01*
X96156D01*
Y7933D01*
X96444D01*
Y8029D01*
X96635D01*
Y8125D01*
X96827D01*
Y8221D01*
X97115D01*
Y8317D01*
X97306D01*
Y8413D01*
X97594D01*
Y8508D01*
X97785D01*
Y8604D01*
X98073D01*
Y8700D01*
X98265D01*
Y8796D01*
X98456D01*
Y8892D01*
X98744D01*
Y8988D01*
X98935D01*
Y9083D01*
X99223D01*
Y8892D01*
D02*
G37*
G36*
X79865Y8988D02*
X80152D01*
Y8892D01*
X80344D01*
Y8796D01*
X80631D01*
Y8700D01*
X80823D01*
Y8604D01*
X81015D01*
Y8508D01*
X81302D01*
Y8413D01*
X81494D01*
Y8317D01*
X81781D01*
Y8221D01*
X81973D01*
Y8125D01*
X82165D01*
Y8029D01*
X82452D01*
Y7933D01*
X82644D01*
Y7838D01*
X82931D01*
Y7742D01*
X83123D01*
Y7646D01*
X83410D01*
Y7550D01*
X83602D01*
Y7454D01*
X83794D01*
Y7358D01*
X84081D01*
Y7262D01*
X84273D01*
Y7167D01*
X84560D01*
Y7071D01*
X84752D01*
Y6975D01*
X84944D01*
Y6879D01*
X85231D01*
Y6783D01*
X85423D01*
Y6688D01*
X85710D01*
Y6592D01*
X85902D01*
Y6496D01*
X86190D01*
Y6017D01*
X86094D01*
Y5537D01*
X79960D01*
Y5921D01*
X79865D01*
Y6304D01*
X79769D01*
Y6975D01*
X79673D01*
Y8700D01*
X79769D01*
Y9083D01*
X79865D01*
Y8988D01*
D02*
G37*
G36*
X98648Y5058D02*
X99127D01*
Y4867D01*
X99223D01*
Y4579D01*
X99319D01*
Y4483D01*
X99415D01*
Y4292D01*
X99319D01*
Y4196D01*
X99223D01*
Y4100D01*
X99127D01*
Y4004D01*
X99031D01*
Y3908D01*
X98935D01*
Y3812D01*
X98840D01*
Y3717D01*
X98648D01*
Y3621D01*
X98552D01*
Y3525D01*
X98456D01*
Y3429D01*
X98360D01*
Y3333D01*
X98265D01*
Y3237D01*
X98169D01*
Y3142D01*
X98073D01*
Y3046D01*
X97977D01*
Y2950D01*
X97881D01*
Y2854D01*
X97690D01*
Y2758D01*
X97594D01*
Y2662D01*
X97498D01*
Y2567D01*
X97402D01*
Y2471D01*
X97306D01*
Y2375D01*
X97210D01*
Y2279D01*
X97115D01*
Y2183D01*
X97019D01*
Y2088D01*
X96923D01*
Y1992D01*
X96731D01*
Y1896D01*
X96635D01*
Y1800D01*
X96540D01*
Y1704D01*
X96444D01*
Y1608D01*
X96348D01*
Y1513D01*
X96252D01*
Y1417D01*
X96156D01*
Y1321D01*
X96060D01*
Y1225D01*
X95869D01*
Y1129D01*
X95773D01*
Y1033D01*
X95677D01*
Y938D01*
X95485D01*
Y842D01*
X95390D01*
Y746D01*
X95294D01*
Y650D01*
X95102D01*
Y554D01*
X95006D01*
Y458D01*
X94815D01*
Y363D01*
X94623D01*
Y458D01*
X94527D01*
Y554D01*
X94431D01*
Y650D01*
X94335D01*
Y746D01*
X94240D01*
Y842D01*
X94144D01*
Y938D01*
X94048D01*
Y1033D01*
X93952D01*
Y1129D01*
X93856D01*
Y1225D01*
X93760D01*
Y1321D01*
X93665D01*
Y1417D01*
X93569D01*
Y1513D01*
X93473D01*
Y1608D01*
X93377D01*
Y1704D01*
X93281D01*
Y1800D01*
X93185D01*
Y1896D01*
X93090D01*
Y1992D01*
X92994D01*
Y2088D01*
X92898D01*
Y2183D01*
X92802D01*
Y2279D01*
X92706D01*
Y2375D01*
X92610D01*
Y2471D01*
X92515D01*
Y2567D01*
X92419D01*
Y2662D01*
X92323D01*
Y2758D01*
X92227D01*
Y2854D01*
X92131D01*
Y2950D01*
X92035D01*
Y3046D01*
X91940D01*
Y3142D01*
X92035D01*
Y3237D01*
X92131D01*
Y3429D01*
X92227D01*
Y3525D01*
X92323D01*
Y3717D01*
X92419D01*
Y3908D01*
X92515D01*
Y4100D01*
X92610D01*
Y4387D01*
X92706D01*
Y4867D01*
X92802D01*
Y5154D01*
X92898D01*
Y5058D01*
X93185D01*
Y5154D01*
X93281D01*
Y5058D01*
X93377D01*
Y5154D01*
X93473D01*
Y5058D01*
X94144D01*
Y5154D01*
X94335D01*
Y5058D01*
X94527D01*
Y5154D01*
X94623D01*
Y5058D01*
X94815D01*
Y5154D01*
X95006D01*
Y5058D01*
X95198D01*
Y5154D01*
X95581D01*
Y5058D01*
X95677D01*
Y5154D01*
X95869D01*
Y5058D01*
X96060D01*
Y5154D01*
X96252D01*
Y5058D01*
X96444D01*
Y5154D01*
X96540D01*
Y5058D01*
X97306D01*
Y5154D01*
X97402D01*
Y5058D01*
X97594D01*
Y5154D01*
X97690D01*
Y5058D01*
X97785D01*
Y5154D01*
X97881D01*
Y5058D01*
X98073D01*
Y5154D01*
X98456D01*
Y5058D01*
X98552D01*
Y5154D01*
X98648D01*
Y5058D01*
D02*
G37*
G36*
X86094Y4579D02*
X86190D01*
Y4196D01*
X85998D01*
Y4100D01*
X85806D01*
Y4004D01*
X85615D01*
Y3908D01*
X85327D01*
Y3812D01*
X85135D01*
Y3717D01*
X84848D01*
Y3621D01*
X84656D01*
Y3525D01*
X84369D01*
Y3429D01*
X84177D01*
Y3333D01*
X83985D01*
Y3237D01*
X83698D01*
Y3142D01*
X83506D01*
Y3046D01*
X83219D01*
Y2950D01*
X83027D01*
Y2854D01*
X82835D01*
Y2758D01*
X82548D01*
Y2662D01*
X82356D01*
Y2567D01*
X82069D01*
Y2471D01*
X81877D01*
Y2375D01*
X81685D01*
Y2471D01*
X81590D01*
Y2567D01*
X81494D01*
Y2662D01*
X81398D01*
Y2854D01*
X81302D01*
Y2950D01*
X81206D01*
Y3142D01*
X81110D01*
Y3237D01*
X81015D01*
Y3429D01*
X80919D01*
Y3525D01*
X80823D01*
Y3717D01*
X80727D01*
Y3908D01*
X80631D01*
Y4100D01*
X80535D01*
Y4292D01*
X80440D01*
Y4483D01*
X80344D01*
Y4675D01*
X80248D01*
Y4963D01*
X80152D01*
Y5154D01*
X80344D01*
Y5058D01*
X80535D01*
Y5154D01*
X80631D01*
Y5058D01*
X80823D01*
Y5154D01*
X80919D01*
Y5058D01*
X81110D01*
Y5154D01*
X81206D01*
Y5058D01*
X81302D01*
Y5154D01*
X81398D01*
Y5058D01*
X81494D01*
Y5154D01*
X81590D01*
Y5058D01*
X82356D01*
Y5154D01*
X82452D01*
Y5058D01*
X82740D01*
Y5154D01*
X82835D01*
Y5058D01*
X82931D01*
Y5154D01*
X83219D01*
Y5058D01*
X83315D01*
Y5154D01*
X83602D01*
Y5058D01*
X83794D01*
Y5154D01*
X83985D01*
Y5058D01*
X84081D01*
Y5154D01*
X84369D01*
Y5058D01*
X84560D01*
Y5154D01*
X84656D01*
Y5058D01*
X84752D01*
Y5154D01*
X84848D01*
Y5058D01*
X85040D01*
Y5154D01*
X85135D01*
Y5058D01*
X85710D01*
Y5154D01*
X85806D01*
Y5058D01*
X85902D01*
Y5154D01*
X86094D01*
Y4579D01*
D02*
G37*
G36*
X100852Y6208D02*
X101044D01*
Y6113D01*
X101140D01*
Y6017D01*
X101235D01*
Y5921D01*
X101331D01*
Y5825D01*
X101427D01*
Y5537D01*
X101523D01*
Y5058D01*
X101427D01*
Y4867D01*
X101331D01*
Y4675D01*
X101235D01*
Y4579D01*
X101140D01*
Y4483D01*
X100948D01*
Y4387D01*
X100660D01*
Y4292D01*
X100277D01*
Y4387D01*
X99990D01*
Y4483D01*
X99894D01*
Y4579D01*
X99798D01*
Y4675D01*
X99702D01*
Y4771D01*
X99606D01*
Y4963D01*
X99510D01*
Y5633D01*
X99606D01*
Y5825D01*
X99702D01*
Y6017D01*
X99798D01*
Y6113D01*
X99990D01*
Y6208D01*
X100181D01*
Y6304D01*
X100852D01*
Y6208D01*
D02*
G37*
G36*
X86477Y3621D02*
X86573D01*
Y3525D01*
X86669D01*
Y3333D01*
X86765D01*
Y3237D01*
X86860D01*
Y3046D01*
X86765D01*
Y2950D01*
X86669D01*
Y2854D01*
X86573D01*
Y2758D01*
X86477D01*
Y2662D01*
X86381D01*
Y2567D01*
X86285D01*
Y2471D01*
X86190D01*
Y2375D01*
X86094D01*
Y2279D01*
X85998D01*
Y2183D01*
X85902D01*
Y2088D01*
X85806D01*
Y1992D01*
X85710D01*
Y1896D01*
X85615D01*
Y1800D01*
X85519D01*
Y1704D01*
X85423D01*
Y1608D01*
X85327D01*
Y1513D01*
X85231D01*
Y1417D01*
X85135D01*
Y1321D01*
X85040D01*
Y1225D01*
X84944D01*
Y1129D01*
X84848D01*
Y1033D01*
X84752D01*
Y938D01*
X84656D01*
Y842D01*
X84560D01*
Y746D01*
X84465D01*
Y650D01*
X84369D01*
Y554D01*
X84273D01*
Y458D01*
X84177D01*
Y363D01*
X83985D01*
Y458D01*
X83890D01*
Y554D01*
X83698D01*
Y650D01*
X83602D01*
Y746D01*
X83410D01*
Y842D01*
X83315D01*
Y938D01*
X83219D01*
Y1033D01*
X83027D01*
Y1129D01*
X82931D01*
Y1225D01*
X82835D01*
Y1321D01*
X82740D01*
Y1417D01*
X82644D01*
Y1513D01*
X82452D01*
Y1608D01*
X82356D01*
Y1704D01*
X82260D01*
Y1800D01*
X82165D01*
Y1896D01*
X82069D01*
Y2088D01*
X82260D01*
Y2183D01*
X82548D01*
Y2279D01*
X82740D01*
Y2375D01*
X83027D01*
Y2471D01*
X83219D01*
Y2567D01*
X83410D01*
Y2662D01*
X83698D01*
Y2758D01*
X83890D01*
Y2854D01*
X84177D01*
Y2950D01*
X84369D01*
Y3046D01*
X84656D01*
Y3142D01*
X84848D01*
Y3237D01*
X85040D01*
Y3333D01*
X85327D01*
Y3429D01*
X85519D01*
Y3525D01*
X85806D01*
Y3621D01*
X85998D01*
Y3717D01*
X86190D01*
Y3812D01*
X86477D01*
Y3621D01*
D02*
G37*
G36*
X91748Y2662D02*
X91844D01*
Y2567D01*
X91940D01*
Y2471D01*
X92035D01*
Y2375D01*
X92131D01*
Y2279D01*
X92227D01*
Y2183D01*
X92323D01*
Y2088D01*
X92419D01*
Y1992D01*
X92515D01*
Y1896D01*
X92610D01*
Y1800D01*
X92706D01*
Y1704D01*
X92802D01*
Y1608D01*
X92898D01*
Y1513D01*
X92994D01*
Y1417D01*
X93090D01*
Y1321D01*
X93185D01*
Y1225D01*
X93281D01*
Y1129D01*
X93377D01*
Y1033D01*
X93473D01*
Y938D01*
X93569D01*
Y842D01*
X93665D01*
Y746D01*
X93760D01*
Y650D01*
X93856D01*
Y554D01*
X93952D01*
Y458D01*
X94048D01*
Y363D01*
X94144D01*
Y267D01*
X94240D01*
Y75D01*
X94144D01*
Y-21D01*
X93952D01*
Y-117D01*
X93760D01*
Y-213D01*
X93473D01*
Y-308D01*
X93281D01*
Y-117D01*
X93185D01*
Y-21D01*
X93090D01*
Y171D01*
X92994D01*
Y267D01*
X92898D01*
Y363D01*
X92706D01*
Y458D01*
X92610D01*
Y554D01*
X92323D01*
Y650D01*
X91556D01*
Y842D01*
X91460D01*
Y1033D01*
X91365D01*
Y1321D01*
X91269D01*
Y1513D01*
X91173D01*
Y1800D01*
X91077D01*
Y1992D01*
X90981D01*
Y2183D01*
X90885D01*
Y2279D01*
X90981D01*
Y2375D01*
X91077D01*
Y2471D01*
X91269D01*
Y2567D01*
X91365D01*
Y2662D01*
X91556D01*
Y2758D01*
X91748D01*
Y2662D01*
D02*
G37*
G36*
X87340D02*
X87435D01*
Y2567D01*
X87627D01*
Y2471D01*
X87723D01*
Y2375D01*
X87915D01*
Y2279D01*
X88106D01*
Y2183D01*
X88394D01*
Y2088D01*
X88681D01*
Y1992D01*
X90119D01*
Y2088D01*
X90502D01*
Y1992D01*
X90598D01*
Y1800D01*
X90694D01*
Y1608D01*
X90790D01*
Y1321D01*
X90885D01*
Y1129D01*
X90981D01*
Y938D01*
X91077D01*
Y650D01*
X91173D01*
Y363D01*
X90981D01*
Y267D01*
X90885D01*
Y171D01*
X90790D01*
Y-21D01*
X90694D01*
Y-117D01*
X90598D01*
Y-404D01*
X90502D01*
Y-979D01*
X90406D01*
Y-1075D01*
X88490D01*
Y-979D01*
X87723D01*
Y-883D01*
X87244D01*
Y-788D01*
X86765D01*
Y-692D01*
X86381D01*
Y-596D01*
X86094D01*
Y-500D01*
X85902D01*
Y-404D01*
X85615D01*
Y-308D01*
X85327D01*
Y-213D01*
X85135D01*
Y-117D01*
X84944D01*
Y-21D01*
X84752D01*
Y75D01*
X84560D01*
Y171D01*
X84656D01*
Y267D01*
X84752D01*
Y363D01*
X84848D01*
Y458D01*
X84944D01*
Y554D01*
X85040D01*
Y650D01*
X85135D01*
Y746D01*
X85231D01*
Y842D01*
X85327D01*
Y938D01*
X85423D01*
Y1033D01*
X85519D01*
Y1129D01*
X85615D01*
Y1225D01*
X85710D01*
Y1321D01*
X85806D01*
Y1417D01*
X85902D01*
Y1513D01*
X85998D01*
Y1608D01*
X86094D01*
Y1704D01*
X86190D01*
Y1800D01*
X86285D01*
Y1896D01*
X86381D01*
Y1992D01*
X86477D01*
Y2088D01*
X86573D01*
Y2183D01*
X86669D01*
Y2279D01*
X86765D01*
Y2375D01*
X86860D01*
Y2471D01*
X86956D01*
Y2567D01*
X87052D01*
Y2662D01*
X87148D01*
Y2758D01*
X87340D01*
Y2662D01*
D02*
G37*
G36*
X92131Y171D02*
X92419D01*
Y75D01*
X92610D01*
Y-21D01*
X92706D01*
Y-213D01*
X92802D01*
Y-308D01*
X92898D01*
Y-404D01*
Y-500D01*
Y-1171D01*
X92802D01*
Y-1362D01*
X92706D01*
Y-1458D01*
X92610D01*
Y-1554D01*
X92515D01*
Y-1650D01*
X92323D01*
Y-1746D01*
X91556D01*
Y-1650D01*
X91365D01*
Y-1554D01*
X91269D01*
Y-1458D01*
X91173D01*
Y-1362D01*
X91077D01*
Y-1171D01*
X90981D01*
Y-404D01*
X91077D01*
Y-213D01*
X91173D01*
Y-21D01*
X91269D01*
Y75D01*
X91460D01*
Y171D01*
X91748D01*
Y267D01*
X92131D01*
Y171D01*
D02*
G37*
%LPC*%
G36*
X89702Y79045D02*
X88923D01*
Y78266D01*
X89146Y78326D01*
X89354Y78445D01*
X89523Y78614D01*
X89642Y78822D01*
X89702Y79045D01*
D02*
G37*
G36*
X88669D02*
X87890D01*
X87950Y78822D01*
X88069Y78614D01*
X88238Y78445D01*
X88446Y78326D01*
X88669Y78266D01*
Y79045D01*
D02*
G37*
G36*
X83669D02*
X82890D01*
X82950Y78822D01*
X83069Y78614D01*
X83238Y78445D01*
X83446Y78326D01*
X83669Y78266D01*
Y79045D01*
D02*
G37*
G36*
X88915Y78076D02*
X88677D01*
X88447Y78014D01*
X88241Y77895D01*
X88073Y77727D01*
X87954Y77521D01*
X87892Y77291D01*
Y77053D01*
X87954Y76823D01*
X88073Y76617D01*
X88241Y76449D01*
X88447Y76330D01*
X88677Y76268D01*
X88915D01*
X89145Y76330D01*
X89351Y76449D01*
X89519Y76617D01*
X89638Y76823D01*
X89700Y77053D01*
Y77291D01*
X89638Y77521D01*
X89519Y77727D01*
X89351Y77895D01*
X89145Y78014D01*
X88915Y78076D01*
D02*
G37*
G36*
X14626Y77709D02*
X14376D01*
X14134Y77644D01*
X13918Y77519D01*
X13741Y77342D01*
X13616Y77126D01*
X13551Y76884D01*
Y76634D01*
X13616Y76392D01*
X13621Y76383D01*
X13080Y75843D01*
X13003Y75727D01*
X12976Y75591D01*
Y54686D01*
X13003Y54550D01*
X13080Y54434D01*
X13494Y54021D01*
X13489Y54012D01*
X13424Y53770D01*
Y53520D01*
X13489Y53278D01*
X13614Y53062D01*
X13791Y52885D01*
X14007Y52760D01*
X14249Y52695D01*
X14499D01*
X14741Y52760D01*
X14957Y52885D01*
X15134Y53062D01*
X15259Y53278D01*
X15324Y53520D01*
Y53770D01*
X15259Y54012D01*
X15134Y54228D01*
X14957Y54405D01*
X14741Y54530D01*
X14499Y54595D01*
X14249D01*
X14007Y54530D01*
X13998Y54525D01*
X13689Y54834D01*
Y68427D01*
X13816Y68480D01*
X13918Y68379D01*
X14134Y68254D01*
X14376Y68189D01*
X14626D01*
X14868Y68254D01*
X14877Y68259D01*
X19478Y63657D01*
Y61011D01*
Y57379D01*
X19505Y57242D01*
X19583Y57126D01*
X19859Y56850D01*
Y54279D01*
X19849Y54276D01*
X19633Y54151D01*
X19456Y53974D01*
X19331Y53758D01*
X19266Y53516D01*
Y53266D01*
X19331Y53024D01*
X19456Y52808D01*
X19633Y52631D01*
X19849Y52506D01*
X20091Y52441D01*
X20341D01*
X20583Y52506D01*
X20799Y52631D01*
X20976Y52808D01*
X21101Y53024D01*
X21166Y53266D01*
Y53516D01*
X21101Y53758D01*
X20976Y53974D01*
X20799Y54151D01*
X20583Y54276D01*
X20573Y54279D01*
Y56998D01*
X20546Y57134D01*
X20468Y57250D01*
X20192Y57527D01*
Y61011D01*
Y63805D01*
X20165Y63942D01*
X20087Y64057D01*
X15381Y68763D01*
X15386Y68772D01*
X15451Y69014D01*
Y69264D01*
X15386Y69506D01*
X15261Y69722D01*
X15084Y69899D01*
X14868Y70024D01*
X14626Y70089D01*
X14376D01*
X14134Y70024D01*
X13918Y69899D01*
X13816Y69798D01*
X13689Y69851D01*
Y75443D01*
X14125Y75879D01*
X14134Y75874D01*
X14376Y75809D01*
X14626D01*
X14868Y75874D01*
X15084Y75999D01*
X15261Y76176D01*
X15386Y76392D01*
X15451Y76634D01*
Y76884D01*
X15386Y77126D01*
X15261Y77342D01*
X15084Y77519D01*
X14868Y77644D01*
X14626Y77709D01*
D02*
G37*
G36*
X74064Y75323D02*
Y74600D01*
X74787D01*
X74733Y74803D01*
X74620Y74997D01*
X74461Y75156D01*
X74267Y75269D01*
X74064Y75323D01*
D02*
G37*
G36*
X73810D02*
X73607Y75269D01*
X73413Y75156D01*
X73254Y74997D01*
X73141Y74803D01*
X73087Y74600D01*
X73810D01*
Y75323D01*
D02*
G37*
G36*
X48161Y72297D02*
X47897D01*
X47643Y72229D01*
X47415Y72098D01*
X47229Y71912D01*
X47098Y71684D01*
X47030Y71430D01*
Y71166D01*
X47098Y70912D01*
X47229Y70684D01*
X47415Y70498D01*
X47643Y70367D01*
X47897Y70299D01*
X48161D01*
X48415Y70367D01*
X48643Y70498D01*
X48829Y70684D01*
X48960Y70912D01*
X49028Y71166D01*
Y71430D01*
X48960Y71684D01*
X48829Y71912D01*
X48643Y72098D01*
X48415Y72229D01*
X48161Y72297D01*
D02*
G37*
G36*
X89296Y70932D02*
X89058D01*
X88828Y70870D01*
X88622Y70751D01*
X88454Y70583D01*
X88335Y70377D01*
X88273Y70147D01*
Y69909D01*
X88335Y69679D01*
X88454Y69473D01*
X88622Y69305D01*
X88828Y69186D01*
X89058Y69124D01*
X89296D01*
X89526Y69186D01*
X89732Y69305D01*
X89900Y69473D01*
X90019Y69679D01*
X90081Y69909D01*
Y70147D01*
X90019Y70377D01*
X89900Y70583D01*
X89732Y70751D01*
X89526Y70870D01*
X89296Y70932D01*
D02*
G37*
G36*
X84702Y79045D02*
X83923D01*
Y78266D01*
X84139Y78324D01*
X84270Y78193D01*
X84221Y78076D01*
X82892D01*
Y76268D01*
X84451D01*
Y72843D01*
X82905Y71296D01*
X82828Y71181D01*
X82800Y71044D01*
Y69048D01*
X82828Y68911D01*
X82905Y68795D01*
X83329Y68371D01*
X83271Y68155D01*
X84050D01*
Y68934D01*
X83834Y68876D01*
X83572Y69138D01*
X83582Y69181D01*
X83728Y69243D01*
X83828Y69186D01*
X84058Y69124D01*
X84296D01*
X84526Y69186D01*
X84732Y69305D01*
X84900Y69473D01*
X85019Y69679D01*
X85081Y69909D01*
Y70147D01*
X85019Y70377D01*
X84900Y70583D01*
X84732Y70751D01*
X84526Y70870D01*
X84296Y70932D01*
X84058D01*
X83828Y70870D01*
X83681Y70785D01*
X83553Y70841D01*
X83541Y70923D01*
X85061Y72443D01*
X85138Y72558D01*
X85165Y72695D01*
Y78160D01*
X85138Y78296D01*
X85061Y78412D01*
X84644Y78829D01*
X84702Y79045D01*
D02*
G37*
G36*
X89304Y68934D02*
Y68155D01*
X90083D01*
X90023Y68378D01*
X89904Y68586D01*
X89735Y68755D01*
X89527Y68874D01*
X89304Y68934D01*
D02*
G37*
G36*
X84304D02*
Y68155D01*
X85083D01*
X85023Y68378D01*
X84904Y68586D01*
X84735Y68755D01*
X84527Y68874D01*
X84304Y68934D01*
D02*
G37*
G36*
X89050D02*
X88827Y68874D01*
X88619Y68755D01*
X88450Y68586D01*
X88331Y68378D01*
X88271Y68155D01*
X89050D01*
Y68934D01*
D02*
G37*
G36*
X40541Y69757D02*
X40277D01*
X40023Y69689D01*
X39795Y69558D01*
X39609Y69372D01*
X39478Y69144D01*
X39410Y68890D01*
Y68626D01*
X39478Y68372D01*
X39609Y68144D01*
X39795Y67958D01*
X40023Y67827D01*
X40277Y67759D01*
X40541D01*
X40795Y67827D01*
X41023Y67958D01*
X41209Y68144D01*
X41340Y68372D01*
X41408Y68626D01*
Y68890D01*
X41340Y69144D01*
X41209Y69372D01*
X41023Y69558D01*
X40795Y69689D01*
X40541Y69757D01*
D02*
G37*
G36*
X90083Y67901D02*
X89304D01*
Y67122D01*
X89527Y67182D01*
X89735Y67301D01*
X89904Y67470D01*
X90023Y67678D01*
X90083Y67901D01*
D02*
G37*
G36*
X85083D02*
X84304D01*
Y67122D01*
X84527Y67182D01*
X84735Y67301D01*
X84904Y67470D01*
X85023Y67678D01*
X85083Y67901D01*
D02*
G37*
G36*
X84050D02*
X83271D01*
X83331Y67678D01*
X83450Y67470D01*
X83619Y67301D01*
X83827Y67182D01*
X84050Y67122D01*
Y67901D01*
D02*
G37*
G36*
X34948Y66560D02*
Y65837D01*
X35671D01*
X35617Y66040D01*
X35504Y66234D01*
X35345Y66393D01*
X35151Y66506D01*
X34948Y66560D01*
D02*
G37*
G36*
X34694D02*
X34491Y66506D01*
X34297Y66393D01*
X34138Y66234D01*
X34025Y66040D01*
X33971Y65837D01*
X34694D01*
Y66560D01*
D02*
G37*
G36*
X77874Y66179D02*
Y65456D01*
X78597D01*
X78543Y65659D01*
X78430Y65853D01*
X78271Y66012D01*
X78077Y66125D01*
X77874Y66179D01*
D02*
G37*
G36*
X74787Y74346D02*
X73937D01*
X73087D01*
X73141Y74143D01*
X73254Y73949D01*
X73413Y73790D01*
X73580Y73693D01*
Y69139D01*
X73607Y69002D01*
X73685Y68887D01*
X76943Y65628D01*
X76897Y65456D01*
X77620D01*
Y66179D01*
X77448Y66133D01*
X74294Y69287D01*
Y73693D01*
X74461Y73790D01*
X74620Y73949D01*
X74733Y74143D01*
X74787Y74346D01*
D02*
G37*
G36*
X48161Y67217D02*
X47897D01*
X47643Y67149D01*
X47415Y67018D01*
X47229Y66832D01*
X47098Y66604D01*
X47030Y66350D01*
Y66086D01*
X47098Y65832D01*
X47229Y65604D01*
X47415Y65418D01*
X47643Y65287D01*
X47897Y65219D01*
X48161D01*
X48415Y65287D01*
X48643Y65418D01*
X48829Y65604D01*
X48960Y65832D01*
X49028Y66086D01*
Y66350D01*
X48960Y66604D01*
X48829Y66832D01*
X48643Y67018D01*
X48415Y67149D01*
X48161Y67217D01*
D02*
G37*
G36*
X40541D02*
X40277D01*
X40023Y67149D01*
X39795Y67018D01*
X39609Y66832D01*
X39478Y66604D01*
X39410Y66350D01*
Y66086D01*
X39478Y65832D01*
X39609Y65604D01*
X39795Y65418D01*
X40023Y65287D01*
X40277Y65219D01*
X40541D01*
X40795Y65287D01*
X41023Y65418D01*
X41209Y65604D01*
X41340Y65832D01*
X41408Y66086D01*
Y66350D01*
X41340Y66604D01*
X41209Y66832D01*
X41023Y67018D01*
X40795Y67149D01*
X40541Y67217D01*
D02*
G37*
G36*
X85081Y66932D02*
X83273D01*
Y65124D01*
X85081D01*
Y66932D01*
D02*
G37*
G36*
X34694Y65583D02*
X33971D01*
X34025Y65380D01*
X34138Y65186D01*
X34297Y65027D01*
X34491Y64914D01*
X34694Y64860D01*
Y65583D01*
D02*
G37*
G36*
X25112Y66470D02*
X24888D01*
X24672Y66412D01*
X24478Y66300D01*
X24320Y66142D01*
X24208Y65948D01*
X24150Y65732D01*
Y65508D01*
X24208Y65292D01*
X24320Y65098D01*
X24478Y64940D01*
X24672Y64828D01*
X24888Y64770D01*
X25112D01*
X25328Y64828D01*
X25522Y64940D01*
X25680Y65098D01*
X25792Y65292D01*
X25850Y65508D01*
Y65732D01*
X25792Y65948D01*
X25680Y66142D01*
X25522Y66300D01*
X25328Y66412D01*
X25112Y66470D01*
D02*
G37*
G36*
X67712Y76312D02*
X67462D01*
X67220Y76247D01*
X67004Y76122D01*
X66827Y75945D01*
X66702Y75729D01*
X66637Y75487D01*
Y75237D01*
X66702Y74995D01*
X66827Y74779D01*
X67004Y74602D01*
X67220Y74477D01*
X67230Y74474D01*
Y67869D01*
X67257Y67732D01*
X67335Y67617D01*
X69326Y65625D01*
X69277Y65441D01*
Y65217D01*
X69335Y65001D01*
X69447Y64807D01*
X69605Y64649D01*
X69799Y64537D01*
X70015Y64479D01*
X70239D01*
X70455Y64537D01*
X70649Y64649D01*
X70807Y64807D01*
X70919Y65001D01*
X70977Y65217D01*
Y65441D01*
X70919Y65657D01*
X70807Y65851D01*
X70649Y66009D01*
X70455Y66121D01*
X70239Y66179D01*
X70015D01*
X69831Y66130D01*
X67944Y68017D01*
Y74474D01*
X67954Y74477D01*
X68170Y74602D01*
X68347Y74779D01*
X68472Y74995D01*
X68537Y75237D01*
Y75487D01*
X68472Y75729D01*
X68347Y75945D01*
X68170Y76122D01*
X67954Y76247D01*
X67712Y76312D01*
D02*
G37*
G36*
X78597Y65202D02*
X77874D01*
Y64479D01*
X78077Y64533D01*
X78271Y64646D01*
X78430Y64805D01*
X78543Y64999D01*
X78597Y65202D01*
D02*
G37*
G36*
X77620D02*
X76897D01*
X76951Y64999D01*
X77064Y64805D01*
X77223Y64646D01*
X77417Y64533D01*
X77620Y64479D01*
Y65202D01*
D02*
G37*
G36*
X40541Y64677D02*
X40277D01*
X40023Y64609D01*
X39795Y64478D01*
X39609Y64292D01*
X39478Y64064D01*
X39410Y63810D01*
Y63546D01*
X39478Y63292D01*
X39609Y63064D01*
X39795Y62878D01*
X40023Y62747D01*
X40277Y62679D01*
X40541D01*
X40795Y62747D01*
X41023Y62878D01*
X41209Y63064D01*
X41340Y63292D01*
X41408Y63546D01*
Y63810D01*
X41340Y64064D01*
X41209Y64292D01*
X41023Y64478D01*
X40795Y64609D01*
X40541Y64677D01*
D02*
G37*
G36*
Y62137D02*
X40277D01*
X40023Y62069D01*
X39795Y61938D01*
X39609Y61752D01*
X39478Y61524D01*
X39410Y61270D01*
Y61006D01*
X39478Y60752D01*
X39609Y60524D01*
X39795Y60338D01*
X40023Y60207D01*
X40277Y60139D01*
X40541D01*
X40795Y60207D01*
X41023Y60338D01*
X41209Y60524D01*
X41340Y60752D01*
X41408Y61006D01*
Y61270D01*
X41340Y61524D01*
X41209Y61752D01*
X41023Y61938D01*
X40795Y62069D01*
X40541Y62137D01*
D02*
G37*
G36*
Y59597D02*
X40277D01*
X40023Y59529D01*
X39795Y59398D01*
X39609Y59212D01*
X39478Y58984D01*
X39410Y58730D01*
Y58466D01*
X39478Y58212D01*
X39609Y57984D01*
X39795Y57798D01*
X40023Y57667D01*
X40277Y57599D01*
X40541D01*
X40795Y57667D01*
X41023Y57798D01*
X41209Y57984D01*
X41340Y58212D01*
X41408Y58466D01*
Y58730D01*
X41340Y58984D01*
X41209Y59212D01*
X41023Y59398D01*
X40795Y59529D01*
X40541Y59597D01*
D02*
G37*
G36*
X25112Y58850D02*
X24888D01*
X24672Y58792D01*
X24478Y58680D01*
X24320Y58522D01*
X24208Y58328D01*
X24150Y58112D01*
Y57888D01*
X24208Y57672D01*
X24320Y57478D01*
X24478Y57320D01*
X24672Y57208D01*
X24888Y57150D01*
X25112D01*
X25328Y57208D01*
X25522Y57320D01*
X25680Y57478D01*
X25792Y57672D01*
X25850Y57888D01*
Y58112D01*
X25792Y58328D01*
X25680Y58522D01*
X25522Y58680D01*
X25328Y58792D01*
X25112Y58850D01*
D02*
G37*
G36*
X40541Y57057D02*
X40277D01*
X40023Y56989D01*
X39795Y56858D01*
X39609Y56672D01*
X39478Y56444D01*
X39410Y56190D01*
Y55926D01*
X39478Y55672D01*
X39609Y55444D01*
X39795Y55258D01*
X40023Y55127D01*
X40277Y55059D01*
X40541D01*
X40795Y55127D01*
X41023Y55258D01*
X41209Y55444D01*
X41340Y55672D01*
X41408Y55926D01*
Y56190D01*
X41340Y56444D01*
X41209Y56672D01*
X41023Y56858D01*
X40795Y56989D01*
X40541Y57057D01*
D02*
G37*
G36*
X40541Y54521D02*
X40536D01*
Y53645D01*
X41412D01*
Y53650D01*
X41344Y53905D01*
X41212Y54134D01*
X41025Y54321D01*
X40796Y54453D01*
X40541Y54521D01*
D02*
G37*
G36*
X35671Y65583D02*
X34948D01*
Y64860D01*
X35120Y64906D01*
X37182Y62844D01*
Y56388D01*
X37209Y56252D01*
X37286Y56136D01*
X39490Y53933D01*
X39474Y53905D01*
X39406Y53650D01*
Y53645D01*
X40282D01*
Y54521D01*
X40277D01*
X40022Y54453D01*
X39994Y54437D01*
X37896Y56536D01*
Y62992D01*
X37868Y63129D01*
X37791Y63245D01*
X35625Y65411D01*
X35671Y65583D01*
D02*
G37*
G36*
X41412Y53391D02*
X40536D01*
Y52515D01*
X40541D01*
X40796Y52583D01*
X41025Y52715D01*
X41212Y52902D01*
X41344Y53131D01*
X41412Y53386D01*
Y53391D01*
D02*
G37*
G36*
X40282D02*
X39406D01*
Y53386D01*
X39474Y53131D01*
X39606Y52902D01*
X39793Y52715D01*
X40022Y52583D01*
X40277Y52515D01*
X40282D01*
Y53391D01*
D02*
G37*
G36*
X34933Y58940D02*
X34709D01*
X34493Y58882D01*
X34299Y58770D01*
X34141Y58612D01*
X34029Y58418D01*
X33971Y58202D01*
Y57978D01*
X34029Y57762D01*
X34141Y57568D01*
X34299Y57410D01*
X34464Y57315D01*
Y51794D01*
X34491Y51657D01*
X34569Y51542D01*
X34598Y51513D01*
X34564Y51387D01*
Y51185D01*
X34616Y50991D01*
X34717Y50816D01*
X34859Y50674D01*
X35034Y50573D01*
X35228Y50521D01*
X35430D01*
X35624Y50573D01*
X35799Y50674D01*
X35941Y50816D01*
X36042Y50991D01*
X36094Y51185D01*
Y51387D01*
X36042Y51581D01*
X35941Y51756D01*
X35799Y51898D01*
X35624Y51999D01*
X35430Y52051D01*
X35228D01*
X35178Y52090D01*
Y57315D01*
X35343Y57410D01*
X35501Y57568D01*
X35613Y57762D01*
X35671Y57978D01*
Y58202D01*
X35613Y58418D01*
X35501Y58612D01*
X35343Y58770D01*
X35149Y58882D01*
X34933Y58940D01*
D02*
G37*
G36*
X82190Y52309D02*
X81940D01*
X81698Y52244D01*
X81482Y52119D01*
X81305Y51942D01*
X81180Y51726D01*
X81115Y51484D01*
Y51234D01*
X81180Y50992D01*
X81305Y50776D01*
X81482Y50599D01*
X81698Y50474D01*
X81940Y50409D01*
X82190D01*
X82432Y50474D01*
X82648Y50599D01*
X82825Y50776D01*
X82950Y50992D01*
X83015Y51234D01*
Y51484D01*
X82950Y51726D01*
X82825Y51942D01*
X82648Y52119D01*
X82432Y52244D01*
X82190Y52309D01*
D02*
G37*
G36*
X40541Y51977D02*
X40277D01*
X40023Y51909D01*
X39795Y51778D01*
X39609Y51592D01*
X39478Y51364D01*
X39410Y51110D01*
Y50846D01*
X39478Y50592D01*
X39609Y50364D01*
X39795Y50178D01*
X40023Y50047D01*
X40277Y49979D01*
X40541D01*
X40795Y50047D01*
X41023Y50178D01*
X41209Y50364D01*
X41340Y50592D01*
X41408Y50846D01*
Y51110D01*
X41340Y51364D01*
X41209Y51592D01*
X41023Y51778D01*
X40795Y51909D01*
X40541Y51977D01*
D02*
G37*
G36*
X48161Y49441D02*
X48156D01*
Y48565D01*
X49032D01*
Y48570D01*
X48964Y48825D01*
X48832Y49054D01*
X48645Y49241D01*
X48416Y49373D01*
X48161Y49441D01*
D02*
G37*
G36*
X47902D02*
X47897D01*
X47642Y49373D01*
X47413Y49241D01*
X47226Y49054D01*
X47094Y48825D01*
X47026Y48570D01*
Y48565D01*
X47902D01*
Y49441D01*
D02*
G37*
G36*
X28864Y50739D02*
X27824D01*
X27623Y50712D01*
X27436Y50635D01*
X27275Y50511D01*
X27151Y50350D01*
X27074Y50163D01*
X27047Y49962D01*
X27074Y49761D01*
X27151Y49574D01*
X27275Y49413D01*
X27304Y49390D01*
Y49264D01*
X27275Y49241D01*
X27151Y49080D01*
X27074Y48893D01*
X27047Y48692D01*
X27074Y48491D01*
X27151Y48304D01*
X27275Y48143D01*
X27301Y48123D01*
Y47996D01*
X27272Y47974D01*
X27148Y47812D01*
X27070Y47624D01*
X27060Y47549D01*
X28344D01*
X29628D01*
X29618Y47624D01*
X29540Y47812D01*
X29416Y47974D01*
X29387Y47996D01*
Y48123D01*
X29413Y48143D01*
X29537Y48304D01*
X29614Y48491D01*
X29641Y48692D01*
X29614Y48893D01*
X29537Y49080D01*
X29413Y49241D01*
X29384Y49264D01*
Y49390D01*
X29413Y49413D01*
X29537Y49574D01*
X29614Y49761D01*
X29641Y49962D01*
X29614Y50163D01*
X29537Y50350D01*
X29413Y50511D01*
X29252Y50635D01*
X29065Y50712D01*
X28864Y50739D01*
D02*
G37*
G36*
X40541Y49437D02*
X40277D01*
X40023Y49369D01*
X39795Y49238D01*
X39609Y49052D01*
X39478Y48824D01*
X39410Y48570D01*
Y48306D01*
X39478Y48052D01*
X39609Y47824D01*
X39795Y47638D01*
X40023Y47507D01*
X40277Y47439D01*
X40541D01*
X40795Y47507D01*
X41023Y47638D01*
X41209Y47824D01*
X41340Y48052D01*
X41408Y48306D01*
Y48570D01*
X41340Y48824D01*
X41209Y49052D01*
X41023Y49238D01*
X40795Y49369D01*
X40541Y49437D01*
D02*
G37*
G36*
X49032Y48311D02*
X48156D01*
Y47435D01*
X48161D01*
X48416Y47503D01*
X48645Y47635D01*
X48832Y47822D01*
X48964Y48051D01*
X49032Y48306D01*
Y48311D01*
D02*
G37*
G36*
X47902D02*
X47026D01*
Y48306D01*
X47094Y48051D01*
X47226Y47822D01*
X47413Y47635D01*
X47642Y47503D01*
X47897Y47435D01*
X47902D01*
Y48311D01*
D02*
G37*
G36*
X48161Y46897D02*
X47897D01*
X47643Y46829D01*
X47415Y46698D01*
X47229Y46512D01*
X47098Y46284D01*
X47030Y46030D01*
Y45766D01*
X47098Y45512D01*
X47229Y45284D01*
X47415Y45098D01*
X47643Y44967D01*
X47897Y44899D01*
X48161D01*
X48415Y44967D01*
X48643Y45098D01*
X48829Y45284D01*
X48960Y45512D01*
X49028Y45766D01*
Y46030D01*
X48960Y46284D01*
X48829Y46512D01*
X48643Y46698D01*
X48415Y46829D01*
X48161Y46897D01*
D02*
G37*
G36*
X40541D02*
X40277D01*
X40023Y46829D01*
X39795Y46698D01*
X39609Y46512D01*
X39478Y46284D01*
X39410Y46030D01*
Y45766D01*
X39478Y45512D01*
X39609Y45284D01*
X39795Y45098D01*
X40023Y44967D01*
X40277Y44899D01*
X40541D01*
X40795Y44967D01*
X41023Y45098D01*
X41209Y45284D01*
X41340Y45512D01*
X41408Y45766D01*
Y46030D01*
X41340Y46284D01*
X41209Y46512D01*
X41023Y46698D01*
X40795Y46829D01*
X40541Y46897D01*
D02*
G37*
G36*
X61235Y46340D02*
X60985D01*
X60743Y46275D01*
X60527Y46150D01*
X60350Y45973D01*
X60225Y45757D01*
X60160Y45515D01*
Y45265D01*
X60225Y45023D01*
X60350Y44807D01*
X60527Y44630D01*
X60743Y44505D01*
X60985Y44440D01*
X61235D01*
X61477Y44505D01*
X61693Y44630D01*
X61870Y44807D01*
X61995Y45023D01*
X62060Y45265D01*
Y45515D01*
X61995Y45757D01*
X61870Y45973D01*
X61693Y46150D01*
X61477Y46275D01*
X61235Y46340D01*
D02*
G37*
G36*
X48161Y44357D02*
X47897D01*
X47643Y44289D01*
X47415Y44158D01*
X47229Y43972D01*
X47098Y43744D01*
X47030Y43490D01*
Y43226D01*
X47098Y42972D01*
X47229Y42744D01*
X47415Y42558D01*
X47643Y42427D01*
X47897Y42359D01*
X48161D01*
X48415Y42427D01*
X48643Y42558D01*
X48829Y42744D01*
X48960Y42972D01*
X49028Y43226D01*
Y43490D01*
X48960Y43744D01*
X48829Y43972D01*
X48643Y44158D01*
X48415Y44289D01*
X48161Y44357D01*
D02*
G37*
G36*
X40541D02*
X40277D01*
X40023Y44289D01*
X39795Y44158D01*
X39609Y43972D01*
X39478Y43744D01*
X39410Y43490D01*
Y43226D01*
X39478Y42972D01*
X39609Y42744D01*
X39795Y42558D01*
X40023Y42427D01*
X40277Y42359D01*
X40541D01*
X40795Y42427D01*
X41023Y42558D01*
X41209Y42744D01*
X41340Y42972D01*
X41408Y43226D01*
Y43490D01*
X41340Y43744D01*
X41209Y43972D01*
X41023Y44158D01*
X40795Y44289D01*
X40541Y44357D01*
D02*
G37*
G36*
X68728Y42403D02*
X68478D01*
X68236Y42338D01*
X68020Y42213D01*
X67843Y42036D01*
X67718Y41820D01*
X67653Y41578D01*
Y41328D01*
X67718Y41086D01*
X67843Y40870D01*
X68020Y40693D01*
X68236Y40568D01*
X68478Y40503D01*
X68728D01*
X68970Y40568D01*
X69186Y40693D01*
X69363Y40870D01*
X69488Y41086D01*
X69553Y41328D01*
Y41578D01*
X69488Y41820D01*
X69363Y42036D01*
X69186Y42213D01*
X68970Y42338D01*
X68728Y42403D01*
D02*
G37*
G36*
X61108D02*
X60858D01*
X60616Y42338D01*
X60400Y42213D01*
X60223Y42036D01*
X60098Y41820D01*
X60033Y41578D01*
Y41328D01*
X60098Y41086D01*
X60223Y40870D01*
X60400Y40693D01*
X60616Y40568D01*
X60858Y40503D01*
X61108D01*
X61350Y40568D01*
X61566Y40693D01*
X61743Y40870D01*
X61868Y41086D01*
X61933Y41328D01*
Y41578D01*
X61868Y41820D01*
X61743Y42036D01*
X61566Y42213D01*
X61350Y42338D01*
X61108Y42403D01*
D02*
G37*
G36*
X48161Y41817D02*
X47897D01*
X47643Y41749D01*
X47415Y41618D01*
X47229Y41432D01*
X47098Y41204D01*
X47030Y40950D01*
Y40686D01*
X47098Y40432D01*
X47229Y40204D01*
X47415Y40018D01*
X47643Y39887D01*
X47897Y39819D01*
X48161D01*
X48415Y39887D01*
X48643Y40018D01*
X48829Y40204D01*
X48960Y40432D01*
X49028Y40686D01*
Y40950D01*
X48960Y41204D01*
X48829Y41432D01*
X48643Y41618D01*
X48415Y41749D01*
X48161Y41817D01*
D02*
G37*
G36*
X6280Y42241D02*
X5958D01*
X5646Y42158D01*
X5367Y41996D01*
X5139Y41768D01*
X4977Y41489D01*
X4894Y41177D01*
Y40855D01*
X4977Y40543D01*
X5139Y40264D01*
X5367Y40036D01*
X5646Y39875D01*
X5958Y39791D01*
X6280D01*
X6592Y39875D01*
X6871Y40036D01*
X7099Y40264D01*
X7261Y40543D01*
X7344Y40855D01*
Y41177D01*
X7261Y41489D01*
X7099Y41768D01*
X6871Y41996D01*
X6592Y42158D01*
X6280Y42241D01*
D02*
G37*
G36*
X20341Y46721D02*
X20091D01*
X19849Y46656D01*
X19633Y46531D01*
X19456Y46354D01*
X19331Y46138D01*
X19266Y45896D01*
Y45646D01*
X19331Y45404D01*
X19456Y45188D01*
X19633Y45011D01*
X19849Y44886D01*
X19859Y44883D01*
Y43104D01*
X19886Y42967D01*
X19964Y42852D01*
X20113Y42702D01*
Y40958D01*
X19948Y40863D01*
X19790Y40705D01*
X19678Y40511D01*
X19620Y40295D01*
Y40071D01*
X19678Y39855D01*
X19790Y39661D01*
X19948Y39503D01*
X20142Y39391D01*
X20358Y39333D01*
X20582D01*
X20798Y39391D01*
X20992Y39503D01*
X21150Y39661D01*
X21262Y39855D01*
X21320Y40071D01*
Y40295D01*
X21262Y40511D01*
X21150Y40705D01*
X20992Y40863D01*
X20827Y40958D01*
Y42850D01*
X20800Y42987D01*
X20722Y43102D01*
X20573Y43252D01*
Y44883D01*
X20583Y44886D01*
X20799Y45011D01*
X20976Y45188D01*
X21101Y45404D01*
X21166Y45646D01*
Y45896D01*
X21101Y46138D01*
X20976Y46354D01*
X20799Y46531D01*
X20583Y46656D01*
X20341Y46721D01*
D02*
G37*
G36*
X35430Y47171D02*
X35228D01*
X35034Y47119D01*
X34859Y47018D01*
X34717Y46876D01*
X34616Y46701D01*
X34564Y46507D01*
Y46305D01*
X34616Y46111D01*
X34717Y45936D01*
X34859Y45794D01*
X34972Y45729D01*
Y43176D01*
X34823Y43026D01*
X34745Y42910D01*
X34718Y42774D01*
Y40196D01*
X34553Y40101D01*
X34395Y39943D01*
X34283Y39749D01*
X34225Y39533D01*
Y39309D01*
X34283Y39093D01*
X34395Y38899D01*
X34553Y38741D01*
X34747Y38629D01*
X34963Y38571D01*
X35187D01*
X35403Y38629D01*
X35597Y38741D01*
X35755Y38899D01*
X35867Y39093D01*
X35925Y39309D01*
Y39533D01*
X35867Y39749D01*
X35755Y39943D01*
X35597Y40101D01*
X35432Y40196D01*
Y42626D01*
X35581Y42775D01*
X35659Y42891D01*
X35686Y43028D01*
Y45729D01*
X35799Y45794D01*
X35941Y45936D01*
X36042Y46111D01*
X36094Y46305D01*
Y46507D01*
X36042Y46701D01*
X35941Y46876D01*
X35799Y47018D01*
X35624Y47119D01*
X35430Y47171D01*
D02*
G37*
G36*
X48161Y39277D02*
X47897D01*
X47643Y39209D01*
X47415Y39078D01*
X47229Y38892D01*
X47098Y38664D01*
X47030Y38410D01*
Y38146D01*
X47098Y37892D01*
X47229Y37664D01*
X47415Y37478D01*
X47643Y37347D01*
X47897Y37279D01*
X48161D01*
X48415Y37347D01*
X48643Y37478D01*
X48829Y37664D01*
X48960Y37892D01*
X49028Y38146D01*
Y38410D01*
X48960Y38664D01*
X48829Y38892D01*
X48643Y39078D01*
X48415Y39209D01*
X48161Y39277D01*
D02*
G37*
G36*
X40541D02*
X40277D01*
X40023Y39209D01*
X39795Y39078D01*
X39609Y38892D01*
X39478Y38664D01*
X39410Y38410D01*
Y38146D01*
X39478Y37892D01*
X39609Y37664D01*
X39795Y37478D01*
X40023Y37347D01*
X40277Y37279D01*
X40541D01*
X40795Y37347D01*
X41023Y37478D01*
X41209Y37664D01*
X41340Y37892D01*
X41408Y38146D01*
Y38410D01*
X41340Y38664D01*
X41209Y38892D01*
X41023Y39078D01*
X40795Y39209D01*
X40541Y39277D01*
D02*
G37*
G36*
X68220Y38720D02*
X67970D01*
X67728Y38655D01*
X67512Y38530D01*
X67335Y38353D01*
X67210Y38137D01*
X67145Y37895D01*
Y37645D01*
X67210Y37403D01*
X67335Y37187D01*
X67512Y37010D01*
X67728Y36885D01*
X67970Y36820D01*
X68220D01*
X68462Y36885D01*
X68678Y37010D01*
X68855Y37187D01*
X68980Y37403D01*
X69045Y37645D01*
Y37895D01*
X68980Y38137D01*
X68855Y38353D01*
X68678Y38530D01*
X68462Y38655D01*
X68220Y38720D01*
D02*
G37*
G36*
X60600D02*
X60350D01*
X60108Y38655D01*
X59892Y38530D01*
X59715Y38353D01*
X59590Y38137D01*
X59525Y37895D01*
Y37645D01*
X59590Y37403D01*
X59715Y37187D01*
X59892Y37010D01*
X60108Y36885D01*
X60350Y36820D01*
X60600D01*
X60842Y36885D01*
X61058Y37010D01*
X61235Y37187D01*
X61360Y37403D01*
X61425Y37645D01*
Y37895D01*
X61360Y38137D01*
X61235Y38353D01*
X61058Y38530D01*
X60842Y38655D01*
X60600Y38720D01*
D02*
G37*
G36*
X6280Y38741D02*
X5958D01*
X5646Y38658D01*
X5367Y38496D01*
X5139Y38268D01*
X4977Y37989D01*
X4894Y37677D01*
Y37355D01*
X4977Y37043D01*
X5139Y36764D01*
X5367Y36536D01*
X5646Y36374D01*
X5958Y36291D01*
X6280D01*
X6592Y36374D01*
X6871Y36536D01*
X7099Y36764D01*
X7261Y37043D01*
X7344Y37355D01*
Y37677D01*
X7261Y37989D01*
X7099Y38268D01*
X6871Y38496D01*
X6592Y38658D01*
X6280Y38741D01*
D02*
G37*
G36*
X6281Y35245D02*
X6246D01*
Y34143D01*
X7348D01*
Y34178D01*
X7264Y34490D01*
X7102Y34771D01*
X6874Y34999D01*
X6593Y35161D01*
X6281Y35245D01*
D02*
G37*
G36*
X5992D02*
X5957D01*
X5645Y35161D01*
X5364Y34999D01*
X5136Y34771D01*
X4974Y34490D01*
X4890Y34178D01*
Y34143D01*
X5992D01*
Y35245D01*
D02*
G37*
G36*
X7348Y33889D02*
X6246D01*
Y32787D01*
X6281D01*
X6593Y32871D01*
X6874Y33033D01*
X7102Y33261D01*
X7264Y33542D01*
X7348Y33854D01*
Y33889D01*
D02*
G37*
G36*
X5992D02*
X4890D01*
Y33854D01*
X4974Y33542D01*
X5136Y33261D01*
X5364Y33033D01*
X5645Y32871D01*
X5957Y32787D01*
X5992D01*
Y33889D01*
D02*
G37*
G36*
X35202Y32651D02*
Y31928D01*
X35925D01*
X35871Y32131D01*
X35758Y32325D01*
X35599Y32484D01*
X35405Y32597D01*
X35202Y32651D01*
D02*
G37*
G36*
X34948D02*
X34745Y32597D01*
X34551Y32484D01*
X34392Y32325D01*
X34279Y32131D01*
X34225Y31928D01*
X34948D01*
Y32651D01*
D02*
G37*
G36*
X14499Y46975D02*
X14249D01*
X14007Y46910D01*
X13791Y46785D01*
X13614Y46608D01*
X13489Y46392D01*
X13424Y46150D01*
Y45900D01*
X13489Y45658D01*
X13614Y45442D01*
X13791Y45265D01*
X14007Y45140D01*
X14017Y45137D01*
Y38659D01*
X14044Y38522D01*
X14122Y38407D01*
X19669Y32859D01*
X19620Y32675D01*
Y32451D01*
X19678Y32235D01*
X19790Y32041D01*
X19948Y31883D01*
X20142Y31771D01*
X20358Y31713D01*
X20582D01*
X20798Y31771D01*
X20992Y31883D01*
X21150Y32041D01*
X21262Y32235D01*
X21320Y32451D01*
Y32675D01*
X21262Y32891D01*
X21150Y33085D01*
X20992Y33243D01*
X20798Y33355D01*
X20582Y33413D01*
X20358D01*
X20174Y33364D01*
X14731Y38807D01*
Y45137D01*
X14741Y45140D01*
X14957Y45265D01*
X15134Y45442D01*
X15259Y45658D01*
X15324Y45900D01*
Y46150D01*
X15259Y46392D01*
X15134Y46608D01*
X14957Y46785D01*
X14741Y46910D01*
X14499Y46975D01*
D02*
G37*
G36*
X34948Y31674D02*
X34225D01*
X34279Y31471D01*
X34392Y31277D01*
X34551Y31118D01*
X34745Y31005D01*
X34948Y30951D01*
Y31674D01*
D02*
G37*
G36*
X29833Y27702D02*
X29106D01*
Y26975D01*
X29833D01*
Y27702D01*
D02*
G37*
G36*
X34171Y27698D02*
X33947D01*
X33731Y27640D01*
X33537Y27528D01*
X33379Y27370D01*
X33267Y27176D01*
X33209Y26960D01*
Y26736D01*
X33267Y26520D01*
X33379Y26326D01*
X33537Y26168D01*
X33731Y26056D01*
X33947Y25998D01*
X34171D01*
X34387Y26056D01*
X34581Y26168D01*
X34739Y26326D01*
X34851Y26520D01*
X34909Y26736D01*
Y26960D01*
X34851Y27176D01*
X34739Y27370D01*
X34581Y27528D01*
X34387Y27640D01*
X34171Y27698D01*
D02*
G37*
G36*
X29833Y26721D02*
X29106D01*
Y25994D01*
X29833D01*
Y26721D01*
D02*
G37*
G36*
X86762Y27671D02*
X86512D01*
X86270Y27606D01*
X86054Y27481D01*
X85877Y27304D01*
X85752Y27088D01*
X85687Y26846D01*
Y26596D01*
X85752Y26354D01*
X85877Y26138D01*
X86054Y25961D01*
X86270Y25836D01*
X86512Y25771D01*
X86762D01*
X87004Y25836D01*
X87220Y25961D01*
X87397Y26138D01*
X87522Y26354D01*
X87587Y26596D01*
Y26846D01*
X87522Y27088D01*
X87397Y27304D01*
X87220Y27481D01*
X87004Y27606D01*
X86762Y27671D01*
D02*
G37*
G36*
X68855Y46340D02*
X68605D01*
X68363Y46275D01*
X68147Y46150D01*
X67970Y45973D01*
X67845Y45757D01*
X67780Y45515D01*
Y45265D01*
X67845Y45023D01*
X67970Y44807D01*
X68147Y44630D01*
X68363Y44505D01*
X68605Y44440D01*
X68855D01*
X69097Y44505D01*
X69105Y44510D01*
X77136Y36479D01*
Y27482D01*
X77126Y27479D01*
X76910Y27354D01*
X76733Y27177D01*
X76608Y26961D01*
X76543Y26719D01*
Y26469D01*
X76608Y26227D01*
X76733Y26011D01*
X76910Y25834D01*
X77126Y25709D01*
X77368Y25644D01*
X77618D01*
X77860Y25709D01*
X78076Y25834D01*
X78253Y26011D01*
X78378Y26227D01*
X78443Y26469D01*
Y26719D01*
X78378Y26961D01*
X78253Y27177D01*
X78076Y27354D01*
X77860Y27479D01*
X77850Y27482D01*
Y36627D01*
X77823Y36764D01*
X77745Y36879D01*
X69610Y45014D01*
X69615Y45023D01*
X69680Y45265D01*
Y45515D01*
X69615Y45757D01*
X69490Y45973D01*
X69313Y46150D01*
X69097Y46275D01*
X68855Y46340D01*
D02*
G37*
G36*
X72032Y26174D02*
Y25451D01*
X72755D01*
X72701Y25654D01*
X72588Y25848D01*
X72429Y26007D01*
X72235Y26120D01*
X72032Y26174D01*
D02*
G37*
G36*
X71778D02*
X71575Y26120D01*
X71381Y26007D01*
X71222Y25848D01*
X71109Y25654D01*
X71055Y25451D01*
X71778D01*
Y26174D01*
D02*
G37*
G36*
X46759Y22996D02*
Y22309D01*
X47446D01*
X47395Y22498D01*
X47287Y22685D01*
X47135Y22837D01*
X46948Y22945D01*
X46759Y22996D01*
D02*
G37*
G36*
X41679D02*
Y22309D01*
X42366D01*
X42315Y22498D01*
X42207Y22685D01*
X42055Y22837D01*
X41868Y22945D01*
X41679Y22996D01*
D02*
G37*
G36*
X46505D02*
X46316Y22945D01*
X46129Y22837D01*
X45977Y22685D01*
X45869Y22498D01*
X45818Y22309D01*
X46505D01*
Y22996D01*
D02*
G37*
G36*
X35925Y31674D02*
X35202D01*
Y30951D01*
X35374Y30997D01*
X38147Y28224D01*
Y25230D01*
X38174Y25093D01*
X38252Y24978D01*
X40777Y22453D01*
X40738Y22309D01*
X41425D01*
Y22996D01*
X41281Y22957D01*
X38861Y25378D01*
Y28372D01*
X38834Y28509D01*
X38756Y28624D01*
X35879Y31502D01*
X35925Y31674D01*
D02*
G37*
G36*
X42366Y22055D02*
X41679D01*
Y21368D01*
X41868Y21419D01*
X42055Y21527D01*
X42207Y21679D01*
X42315Y21866D01*
X42366Y22055D01*
D02*
G37*
G36*
X41425D02*
X40738D01*
X40789Y21866D01*
X40897Y21679D01*
X41049Y21527D01*
X41236Y21419D01*
X41425Y21368D01*
Y22055D01*
D02*
G37*
G36*
X49987Y22997D02*
X48357D01*
Y21367D01*
X49987D01*
Y22997D01*
D02*
G37*
G36*
X58682Y22999D02*
X58458D01*
X58242Y22941D01*
X58048Y22829D01*
X57890Y22671D01*
X57778Y22477D01*
X57720Y22261D01*
Y22037D01*
X57778Y21821D01*
X57890Y21627D01*
X58048Y21469D01*
X58242Y21357D01*
X58458Y21299D01*
X58682D01*
X58898Y21357D01*
X59092Y21469D01*
X59250Y21627D01*
X59362Y21821D01*
X59420Y22037D01*
Y22261D01*
X59362Y22477D01*
X59250Y22671D01*
X59092Y22829D01*
X58898Y22941D01*
X58682Y22999D01*
D02*
G37*
G36*
X86764Y20055D02*
Y19228D01*
X87591D01*
X87526Y19469D01*
X87400Y19687D01*
X87223Y19864D01*
X87005Y19990D01*
X86764Y20055D01*
D02*
G37*
G36*
X82446D02*
Y19228D01*
X83273D01*
X83208Y19469D01*
X83082Y19687D01*
X82905Y19864D01*
X82687Y19990D01*
X82446Y20055D01*
D02*
G37*
G36*
X86510D02*
X86269Y19990D01*
X86051Y19864D01*
X85874Y19687D01*
X85748Y19469D01*
X85683Y19228D01*
X86510D01*
Y20055D01*
D02*
G37*
G36*
X82192D02*
X81951Y19990D01*
X81733Y19864D01*
X81556Y19687D01*
X81430Y19469D01*
X81365Y19228D01*
X82192D01*
Y20055D01*
D02*
G37*
G36*
X77620Y19928D02*
Y19101D01*
X78447D01*
X78382Y19342D01*
X78256Y19560D01*
X78079Y19737D01*
X77861Y19863D01*
X77620Y19928D01*
D02*
G37*
G36*
X72755Y25197D02*
X71905D01*
X71055D01*
X71109Y24994D01*
X71222Y24800D01*
X71381Y24641D01*
X71552Y24542D01*
X71575Y24425D01*
X71653Y24310D01*
X76610Y19352D01*
X76604Y19342D01*
X76539Y19101D01*
X77366D01*
Y19928D01*
X77125Y19863D01*
X77115Y19857D01*
X72450Y24522D01*
X72470Y24681D01*
X72588Y24800D01*
X72701Y24994D01*
X72755Y25197D01*
D02*
G37*
G36*
X27998Y18974D02*
X27074D01*
Y18545D01*
X27619D01*
X27764Y18574D01*
X27887Y18656D01*
X27969Y18779D01*
X27998Y18924D01*
Y18974D01*
D02*
G37*
G36*
X83273D02*
X82446D01*
Y18147D01*
X82687Y18212D01*
X82905Y18338D01*
X83082Y18515D01*
X83208Y18733D01*
X83273Y18974D01*
D02*
G37*
G36*
X87591D02*
X86764D01*
Y18147D01*
X87005Y18212D01*
X87223Y18338D01*
X87400Y18515D01*
X87526Y18733D01*
X87591Y18974D01*
D02*
G37*
G36*
X86510D02*
X85683D01*
X85748Y18733D01*
X85874Y18515D01*
X86051Y18338D01*
X86269Y18212D01*
X86510Y18147D01*
Y18974D01*
D02*
G37*
G36*
X82192D02*
X81365D01*
X81430Y18733D01*
X81556Y18515D01*
X81733Y18338D01*
X81951Y18212D01*
X82192Y18147D01*
Y18974D01*
D02*
G37*
G36*
X78447Y18847D02*
X77620D01*
Y18020D01*
X77861Y18085D01*
X78079Y18211D01*
X78256Y18388D01*
X78382Y18606D01*
X78447Y18847D01*
D02*
G37*
G36*
X77366D02*
X76539D01*
X76604Y18606D01*
X76730Y18388D01*
X76907Y18211D01*
X77125Y18085D01*
X77366Y18020D01*
Y18847D01*
D02*
G37*
G36*
X91248Y35509D02*
X90828D01*
Y35089D01*
X91015Y35167D01*
X91171Y35323D01*
X91248Y35509D01*
D02*
G37*
%LPD*%
D10*
X13333Y54686D02*
Y75591D01*
X43152Y15182D02*
X44092Y14242D01*
X40503Y17831D02*
X43152Y15182D01*
X86916Y46965D02*
Y53137D01*
X13333Y75591D02*
X14501Y76759D01*
X13333Y54686D02*
X14374Y53645D01*
X43152Y46101D02*
X48029Y50978D01*
X43152Y15182D02*
Y46101D01*
X71905Y24562D02*
Y25324D01*
Y24562D02*
X77493Y18974D01*
X90701Y35636D02*
X93735Y38670D01*
X94469D01*
X73937Y69139D02*
Y74473D01*
Y69139D02*
X77747Y65329D01*
X37539Y56388D02*
X40409Y53518D01*
X37539Y56388D02*
Y62992D01*
X34821Y65710D02*
X37539Y62992D01*
X28344Y27483D02*
Y47422D01*
Y27483D02*
X28979Y26848D01*
X82065Y58979D02*
X86916Y54128D01*
Y53137D02*
Y54128D01*
Y53137D02*
X89914D01*
X90193Y54153D01*
X93774Y40870D02*
X94469D01*
X89102Y45542D02*
X93774Y40870D01*
X88339Y45542D02*
X89102D01*
X86916Y46965D02*
X88339Y45542D01*
X90523Y53137D02*
X99083D01*
X90193Y53467D02*
X90523Y53137D01*
X90193Y53467D02*
Y54153D01*
X34821Y51794D02*
Y58090D01*
Y51794D02*
X35329Y51286D01*
X19835Y61011D02*
Y63805D01*
X14501Y69139D02*
X19835Y63805D01*
X67587Y67869D02*
Y75362D01*
Y67869D02*
X70127Y65329D01*
X31519Y31928D02*
X40409Y40818D01*
X31519Y26848D02*
Y31928D01*
X93444Y45339D02*
X95082Y46978D01*
X93444Y43256D02*
Y45339D01*
Y43256D02*
X94469Y43070D01*
X93334Y41970D02*
X94469D01*
X92454Y42850D02*
X93334Y41970D01*
X92454Y42850D02*
Y45974D01*
X93774Y39770D02*
X94469D01*
X89387Y35382D02*
X93774Y39770D01*
X86053Y35382D02*
X89387D01*
X82319Y31649D02*
X86053Y35382D01*
X82319Y26721D02*
Y31649D01*
X88469Y34000D02*
X96669D01*
X26109Y19101D02*
X26947D01*
X25804Y18796D02*
X26109Y19101D01*
X25804Y16866D02*
Y18796D01*
Y16866D02*
X26109Y16561D01*
X26947D01*
X88469Y47890D02*
X96669D01*
X95425Y37799D02*
Y45034D01*
X95197Y37570D02*
X95425Y37799D01*
X94469Y37570D02*
X95197D01*
X29106Y24435D02*
X31519Y26848D01*
X29106Y18517D02*
Y24435D01*
X28420Y17831D02*
X29106Y18517D01*
X26947Y17831D02*
X28420D01*
X32196D02*
X40503D01*
X67587Y82982D02*
X70711Y79858D01*
X76502D01*
X78839Y82195D01*
X91391D01*
X92483Y81102D01*
Y54153D02*
Y81102D01*
X35075Y31801D02*
X38504Y28372D01*
Y25230D02*
Y28372D01*
Y25230D02*
X41552Y22182D01*
X30782Y19101D02*
X32196D01*
X29563Y17882D02*
X30782Y19101D01*
X29563Y10993D02*
Y17882D01*
X24717Y6147D02*
X29563Y10993D01*
X41552Y14242D02*
X44473Y11321D01*
Y9068D02*
Y11321D01*
X54190Y74919D02*
Y80000D01*
X48029Y68758D02*
X54190Y74919D01*
X77493Y26594D02*
Y36627D01*
X68730Y45390D02*
X77493Y36627D01*
X14374Y38659D02*
Y46025D01*
Y38659D02*
X20470Y32563D01*
X46911Y52096D02*
X48029Y50978D01*
X46911Y52096D02*
Y64796D01*
X40409Y71298D02*
X46911Y64796D01*
X27963Y26848D02*
X28979D01*
X26947Y25832D02*
X27963Y26848D01*
X26947Y19101D02*
Y25832D01*
X87903Y54153D02*
Y66754D01*
X89177Y68028D01*
X83157Y69048D02*
X84177Y68028D01*
X83157Y69048D02*
Y71044D01*
X84808Y72695D01*
Y78160D01*
X83796Y79172D02*
X84808Y78160D01*
X32196Y16561D02*
Y17831D01*
X46632Y14242D02*
Y22182D01*
X26947Y15291D02*
Y16561D01*
X71905Y13894D02*
Y17704D01*
Y13894D02*
X72159Y13640D01*
Y9830D02*
Y13640D01*
X35329Y43028D02*
Y46406D01*
X35075Y42774D02*
X35329Y43028D01*
X35075Y39421D02*
Y42774D01*
X19835Y57379D02*
Y61011D01*
Y57379D02*
X20216Y56998D01*
Y53391D02*
Y56998D01*
Y43104D02*
Y45771D01*
Y43104D02*
X20470Y42850D01*
Y40183D02*
Y42850D01*
X32196Y10944D02*
Y15291D01*
X31717Y10465D02*
X32196Y10944D01*
X31717Y6147D02*
Y10465D01*
X96669Y34000D02*
Y47890D01*
D16*
X5254Y83778D02*
Y82762D01*
X5762Y82254D01*
X6270Y82762D01*
Y83778D01*
X6778Y82254D02*
X7285D01*
X7031D01*
Y83270D01*
X6778D01*
X8047Y82254D02*
Y83270D01*
X8809D01*
X9063Y83016D01*
Y82254D01*
X9571D02*
X10078D01*
X9825D01*
Y83270D01*
X9571D01*
X11856D02*
X11094D01*
X10840Y83016D01*
Y82508D01*
X11094Y82254D01*
X11856D01*
X12364D02*
X12872D01*
X12618D01*
Y83270D01*
X12364D01*
X13633D02*
Y82508D01*
X13887Y82254D01*
X14649D01*
Y83270D01*
X15157Y82254D02*
X15919D01*
X16172Y82508D01*
X15919Y82762D01*
X15411D01*
X15157Y83016D01*
X15411Y83270D01*
X16172D01*
X18204Y82254D02*
Y83270D01*
X18712Y83778D01*
X19219Y83270D01*
Y82254D01*
Y83016D01*
X18204D01*
X19727Y82254D02*
Y83270D01*
X20489D01*
X20743Y83016D01*
Y82254D01*
X22267Y83778D02*
Y82254D01*
X21505D01*
X21251Y82508D01*
Y83016D01*
X21505Y83270D01*
X22267D01*
X22774D02*
Y82254D01*
Y82762D01*
X23028Y83016D01*
X23282Y83270D01*
X23536D01*
X25060Y82254D02*
X24552D01*
X24298Y82508D01*
Y83016D01*
X24552Y83270D01*
X25060D01*
X25314Y83016D01*
Y82762D01*
X24298D01*
X26075Y82254D02*
X26583D01*
X26837Y82508D01*
Y83016D01*
X26583Y83270D01*
X26075D01*
X25821Y83016D01*
Y82508D01*
X26075Y82254D01*
X27345D02*
X28107D01*
X28361Y82508D01*
X28107Y82762D01*
X27599D01*
X27345Y83016D01*
X27599Y83270D01*
X28361D01*
X28868Y82254D02*
X29630D01*
X29884Y82508D01*
X29630Y82762D01*
X29122D01*
X28868Y83016D01*
X29122Y83270D01*
X29884D01*
X30392Y82254D02*
X30900D01*
X30646D01*
Y83270D01*
X30392D01*
X33185Y83016D02*
X34201D01*
X36232Y82254D02*
X36740D01*
X36486D01*
Y83778D01*
X36232Y83524D01*
X37502Y82508D02*
X37755Y82254D01*
X38263D01*
X38517Y82508D01*
Y83524D01*
X38263Y83778D01*
X37755D01*
X37502Y83524D01*
Y83270D01*
X37755Y83016D01*
X38517D01*
X40041Y83778D02*
X39025D01*
Y83016D01*
X39533Y83270D01*
X39787D01*
X40041Y83016D01*
Y82508D01*
X39787Y82254D01*
X39279D01*
X39025Y82508D01*
X40549Y82254D02*
X41056D01*
X40803D01*
Y83778D01*
X40549Y83524D01*
X42834Y82254D02*
X41818D01*
X42834Y83270D01*
Y83524D01*
X42580Y83778D01*
X42072D01*
X41818Y83524D01*
X44357Y83778D02*
X43342D01*
Y83016D01*
X43850Y83270D01*
X44103D01*
X44357Y83016D01*
Y82508D01*
X44103Y82254D01*
X43596D01*
X43342Y82508D01*
X6270Y86524D02*
X6016Y86778D01*
X5508D01*
X5254Y86524D01*
Y85508D01*
X5508Y85254D01*
X6016D01*
X6270Y85508D01*
Y86016D01*
X5762D01*
X7031Y86270D02*
X7539D01*
X7793Y86016D01*
Y85254D01*
X7031D01*
X6778Y85508D01*
X7031Y85762D01*
X7793D01*
X8301Y86778D02*
Y85254D01*
X9063D01*
X9317Y85508D01*
Y85762D01*
Y86016D01*
X9063Y86270D01*
X8301D01*
X9825D02*
Y85254D01*
Y85762D01*
X10078Y86016D01*
X10332Y86270D01*
X10586D01*
X11348Y85254D02*
X11856D01*
X11602D01*
Y86270D01*
X11348D01*
X13379Y85254D02*
X12872D01*
X12618Y85508D01*
Y86016D01*
X12872Y86270D01*
X13379D01*
X13633Y86016D01*
Y85762D01*
X12618D01*
X14141Y85254D02*
X14649D01*
X14395D01*
Y86778D01*
X14141D01*
X17950Y86524D02*
X17696Y86778D01*
X17188D01*
X16934Y86524D01*
Y86270D01*
X17188Y86016D01*
X17696D01*
X17950Y85762D01*
Y85508D01*
X17696Y85254D01*
X17188D01*
X16934Y85508D01*
X19219Y85254D02*
X18712D01*
X18458Y85508D01*
Y86016D01*
X18712Y86270D01*
X19219D01*
X19473Y86016D01*
Y85762D01*
X18458D01*
X19981Y86270D02*
X20489Y85254D01*
X20997Y86270D01*
X22267Y85254D02*
X21759D01*
X21505Y85508D01*
Y86016D01*
X21759Y86270D01*
X22267D01*
X22520Y86016D01*
Y85762D01*
X21505D01*
X23028Y86270D02*
Y85254D01*
Y85762D01*
X23282Y86016D01*
X23536Y86270D01*
X23790D01*
X24806Y85254D02*
X25314D01*
X25567Y85508D01*
Y86016D01*
X25314Y86270D01*
X24806D01*
X24552Y86016D01*
Y85508D01*
X24806Y85254D01*
X27599Y86016D02*
X28614D01*
X31661Y85254D02*
X30646D01*
X31661Y86270D01*
Y86524D01*
X31408Y86778D01*
X30900D01*
X30646Y86524D01*
X32169D02*
X32423Y86778D01*
X32931D01*
X33185Y86524D01*
Y86270D01*
X32931Y86016D01*
X32677D01*
X32931D01*
X33185Y85762D01*
Y85508D01*
X32931Y85254D01*
X32423D01*
X32169Y85508D01*
X34455Y85254D02*
Y86778D01*
X33693Y86016D01*
X34708D01*
X35216Y85508D02*
X35470Y85254D01*
X35978D01*
X36232Y85508D01*
Y86524D01*
X35978Y86778D01*
X35470D01*
X35216Y86524D01*
Y86270D01*
X35470Y86016D01*
X36232D01*
X36740Y86524D02*
X36994Y86778D01*
X37502D01*
X37755Y86524D01*
Y85508D01*
X37502Y85254D01*
X36994D01*
X36740Y85508D01*
Y86524D01*
X39279Y86778D02*
X38771Y86524D01*
X38263Y86016D01*
Y85508D01*
X38517Y85254D01*
X39025D01*
X39279Y85508D01*
Y85762D01*
X39025Y86016D01*
X38263D01*
D17*
X87903Y54153D02*
D03*
X90193D02*
D03*
X92483D02*
D03*
D18*
X90193Y60843D02*
D03*
D19*
X94469Y44170D02*
D03*
Y43070D02*
D03*
Y41970D02*
D03*
Y40870D02*
D03*
Y39770D02*
D03*
Y38670D02*
D03*
Y37570D02*
D03*
Y36470D02*
D03*
D20*
X96669Y34000D02*
D03*
X88469D02*
D03*
Y47890D02*
D03*
X96669D02*
D03*
D21*
X32196Y15291D02*
D03*
Y16561D02*
D03*
Y17831D02*
D03*
Y19101D02*
D03*
X26947D02*
D03*
Y17831D02*
D03*
Y16561D02*
D03*
Y15291D02*
D03*
D40*
X49172Y22182D02*
D03*
D41*
X46632D02*
D03*
X44092D02*
D03*
X41552D02*
D03*
Y14242D02*
D03*
X44092D02*
D03*
X46632D02*
D03*
X49172D02*
D03*
D42*
X28979Y26848D02*
D03*
D43*
X31519D02*
D03*
X34059D02*
D03*
X44473Y9068D02*
D03*
X52093D02*
D03*
X58570Y22149D02*
D03*
Y14529D02*
D03*
X71905Y17704D02*
D03*
Y25324D02*
D03*
X99083Y53137D02*
D03*
Y60757D02*
D03*
X35075Y39421D02*
D03*
Y31801D02*
D03*
X34821Y58090D02*
D03*
Y65710D02*
D03*
X25000Y65620D02*
D03*
Y58000D02*
D03*
X20470Y40183D02*
D03*
Y32563D02*
D03*
X70127Y65329D02*
D03*
X77747D02*
D03*
X73937Y82093D02*
D03*
Y74473D02*
D03*
D44*
X63396Y4750D02*
D03*
X59896D02*
D03*
X66896D02*
D03*
X6119Y37516D02*
D03*
Y34016D02*
D03*
Y41016D02*
D03*
X28217Y6147D02*
D03*
X24717D02*
D03*
X31717D02*
D03*
D45*
X72159Y2210D02*
D03*
Y9830D02*
D03*
X82065Y51359D02*
D03*
Y58979D02*
D03*
X14501Y76759D02*
D03*
Y69139D02*
D03*
X68603Y41453D02*
D03*
X60983D02*
D03*
X14374Y53645D02*
D03*
Y46025D02*
D03*
X68095Y37770D02*
D03*
X60475D02*
D03*
X20216Y45771D02*
D03*
Y53391D02*
D03*
X68730Y45390D02*
D03*
X61110D02*
D03*
X86637Y26721D02*
D03*
Y19101D02*
D03*
X82319Y26721D02*
D03*
Y19101D02*
D03*
X77493Y26594D02*
D03*
Y18974D02*
D03*
X67587Y82982D02*
D03*
Y75362D02*
D03*
X61810Y80000D02*
D03*
X54190D02*
D03*
D46*
X35329Y46406D02*
D03*
Y51286D02*
D03*
D47*
X40409Y71298D02*
D03*
D48*
Y68758D02*
D03*
Y66218D02*
D03*
Y63678D02*
D03*
Y61138D02*
D03*
Y58598D02*
D03*
Y56058D02*
D03*
Y53518D02*
D03*
Y50978D02*
D03*
Y48438D02*
D03*
Y45898D02*
D03*
Y43358D02*
D03*
Y40818D02*
D03*
Y38278D02*
D03*
X48029D02*
D03*
Y40818D02*
D03*
Y43358D02*
D03*
Y45898D02*
D03*
Y48438D02*
D03*
Y50978D02*
D03*
Y53518D02*
D03*
Y56058D02*
D03*
Y58598D02*
D03*
Y61138D02*
D03*
Y63678D02*
D03*
Y66218D02*
D03*
Y68758D02*
D03*
Y71298D02*
D03*
D49*
X28344Y47422D02*
D03*
Y48692D02*
D03*
Y49962D02*
D03*
D50*
X89177Y66028D02*
D03*
Y68028D02*
D03*
Y70028D02*
D03*
X84177Y68028D02*
D03*
Y70028D02*
D03*
X88796Y77172D02*
D03*
Y79172D02*
D03*
Y81172D02*
D03*
X83796Y79172D02*
D03*
Y81172D02*
D03*
D51*
X84177Y66028D02*
D03*
X83796Y77172D02*
D03*
D52*
X90701Y35636D02*
D03*
X95082Y46978D02*
D03*
X92454Y45974D02*
D03*
X95425Y45034D02*
D03*
M02*
