G04*
G04 #@! TF.GenerationSoftware,Altium Limited,Altium Designer,22.1.2 (22)*
G04*
G04 Layer_Color=65535*
%FSLAX43Y43*%
%MOMM*%
G71*
G04*
G04 #@! TF.SameCoordinates,3CF973F3-9CBB-499E-A860-84B5D62188FF*
G04*
G04*
G04 #@! TF.FilePolarity,Positive*
G04*
G01*
G75*
%ADD10C,0.200*%
%ADD11C,0.400*%
%ADD12C,0.127*%
%ADD13C,0.000*%
%ADD14C,0.152*%
%ADD15C,0.120*%
%ADD16C,0.254*%
D10*
X49272Y23247D02*
G03*
X49272Y23247I-100J0D01*
G01*
X88003Y52795D02*
G03*
X88003Y52795I-100J0D01*
G01*
X94644Y45145D02*
G03*
X94644Y45145I-100J0D01*
G01*
X99055Y46171D02*
G03*
X99055Y35719I9052J-5226D01*
G01*
X30749Y47442D02*
G03*
X30749Y47442I-100J0D01*
G01*
X82777Y65988D02*
G03*
X82777Y65988I-100J0D01*
G01*
X82396Y77132D02*
G03*
X82396Y77132I-100J0D01*
G01*
X26439Y24308D02*
Y29388D01*
Y24308D02*
X37869D01*
Y26848D01*
X36599D02*
X37869D01*
X36599D02*
Y29388D01*
X26439D02*
X36599D01*
X42568Y7163D02*
Y10973D01*
X53998D01*
Y7163D02*
Y10973D01*
X42568Y7163D02*
X53998D01*
X58046Y8850D02*
X68746D01*
Y1250D02*
Y8850D01*
X58046Y1250D02*
X68746D01*
X58046D02*
Y1830D01*
X57646Y1755D02*
X58046Y1830D01*
X57646Y1755D02*
Y2605D01*
X58046Y2530D01*
Y7570D01*
X57646Y7495D02*
X58046Y7570D01*
X57646Y7495D02*
Y8345D01*
X58046Y8270D01*
Y8850D01*
X56665Y24054D02*
X60475D01*
Y12624D02*
Y24054D01*
X56665Y12624D02*
X60475D01*
X56665D02*
Y24054D01*
X72159Y3480D02*
X72921D01*
Y8560D01*
X71397D02*
X72921D01*
X71397Y3480D02*
Y8560D01*
Y3480D02*
X72159D01*
Y8560D02*
Y8789D01*
Y3251D02*
Y3480D01*
X70000Y15799D02*
X73810D01*
X70000D02*
Y27229D01*
X73810D01*
Y15799D02*
Y27229D01*
X97178Y51232D02*
X100988D01*
X97178D02*
Y62662D01*
X100988D01*
Y51232D02*
Y62662D01*
X33170Y41326D02*
X36980D01*
Y29896D02*
Y41326D01*
X33170Y29896D02*
X36980D01*
X33170D02*
Y41326D01*
X32916Y56185D02*
X36726D01*
X32916D02*
Y67615D01*
X36726D01*
Y56185D02*
Y67615D01*
X82065Y52629D02*
X82827D01*
Y57709D01*
X81303D02*
X82827D01*
X81303Y52629D02*
Y57709D01*
Y52629D02*
X82065D01*
Y57709D02*
Y57938D01*
Y52400D02*
Y52629D01*
X98119Y47745D02*
X99069D01*
X84619Y34145D02*
X87119D01*
X99069D02*
Y35695D01*
X98119Y34145D02*
X99069D01*
X84619D02*
Y47745D01*
X99069Y46195D02*
Y47745D01*
X84619D02*
X87119D01*
X13739Y75489D02*
X14501D01*
X13739Y70409D02*
Y75489D01*
Y70409D02*
X15263D01*
Y75489D01*
X14501D02*
X15263D01*
X14501Y70180D02*
Y70409D01*
Y75489D02*
Y75718D01*
X67333Y41453D02*
Y42215D01*
X62253D02*
X67333D01*
X62253Y40691D02*
Y42215D01*
Y40691D02*
X67333D01*
Y41453D01*
X62024D02*
X62253D01*
X67333D02*
X67562D01*
X23095Y67525D02*
X26905D01*
Y56095D02*
Y67525D01*
X23095Y56095D02*
X26905D01*
X23095D02*
Y67525D01*
X13612Y52375D02*
X14374D01*
X13612Y47295D02*
Y52375D01*
Y47295D02*
X15136D01*
Y52375D01*
X14374D02*
X15136D01*
X14374Y47066D02*
Y47295D01*
Y52375D02*
Y52604D01*
X66825Y37770D02*
Y38532D01*
X61745D02*
X66825D01*
X61745Y37008D02*
Y38532D01*
Y37008D02*
X66825D01*
Y37770D01*
X61516D02*
X61745D01*
X66825D02*
X67054D01*
X20216Y47041D02*
X20978D01*
Y52121D01*
X19454D02*
X20978D01*
X19454Y47041D02*
Y52121D01*
Y47041D02*
X20216D01*
Y52121D02*
Y52350D01*
Y46812D02*
Y47041D01*
X67460Y45390D02*
Y46152D01*
X62380D02*
X67460D01*
X62380Y44628D02*
Y46152D01*
Y44628D02*
X67460D01*
Y45390D01*
X62151D02*
X62380D01*
X67460D02*
X67689D01*
X18565Y42088D02*
X22375D01*
Y30658D02*
Y42088D01*
X18565Y30658D02*
X22375D01*
X18565D02*
Y42088D01*
X2019Y32166D02*
Y42866D01*
X9619D01*
Y32166D02*
Y42866D01*
X9039Y32166D02*
X9619D01*
X9039D02*
X9114Y31766D01*
X8264D02*
X9114D01*
X8264D02*
X8339Y32166D01*
X3299D02*
X8339D01*
X3299D02*
X3374Y31766D01*
X2524D02*
X3374D01*
X2524D02*
X2599Y32166D01*
X2019D02*
X2599D01*
X85875Y25451D02*
X86637D01*
X85875Y20371D02*
Y25451D01*
Y20371D02*
X87399D01*
Y25451D01*
X86637D02*
X87399D01*
X86637Y20142D02*
Y20371D01*
Y25451D02*
Y25680D01*
X81557Y25451D02*
X82319D01*
X81557Y20371D02*
Y25451D01*
Y20371D02*
X83081D01*
Y25451D01*
X82319D02*
X83081D01*
X82319Y20142D02*
Y20371D01*
Y25451D02*
Y25680D01*
X76731Y25324D02*
X77493D01*
X76731Y20244D02*
Y25324D01*
Y20244D02*
X78255D01*
Y25324D01*
X77493D02*
X78255D01*
X77493Y20015D02*
Y20244D01*
Y25324D02*
Y25553D01*
X66825Y81712D02*
X67587D01*
X66825Y76632D02*
Y81712D01*
Y76632D02*
X68349D01*
Y81712D01*
X67587D02*
X68349D01*
X67587Y76403D02*
Y76632D01*
Y81712D02*
Y81941D01*
X60540Y80000D02*
Y80762D01*
X55460D02*
X60540D01*
X55460Y79238D02*
Y80762D01*
Y79238D02*
X60540D01*
Y80000D01*
X55231D02*
X55460D01*
X60540D02*
X60769D01*
X22867Y10247D02*
X33567D01*
Y2647D02*
Y10247D01*
X22867Y2647D02*
X33567D01*
X22867D02*
Y3227D01*
X22467Y3152D02*
X22867Y3227D01*
X22467Y3152D02*
Y4002D01*
X22867Y3927D01*
Y8967D01*
X22467Y8892D02*
X22867Y8967D01*
X22467Y8892D02*
Y9742D01*
X22867Y9667D01*
Y10247D01*
X68222Y63424D02*
Y67234D01*
X79652D01*
Y63424D02*
Y67234D01*
X68222Y63424D02*
X79652D01*
X72032Y83998D02*
X75842D01*
Y72568D02*
Y83998D01*
X72032Y72568D02*
X75842D01*
X72032D02*
Y83998D01*
D11*
X59246Y6550D02*
G03*
X59246Y6550I-100J0D01*
G01*
X4419Y33266D02*
G03*
X4419Y33266I-100J0D01*
G01*
X24067Y7947D02*
G03*
X24067Y7947I-100J0D01*
G01*
D12*
X37659Y53249D02*
G03*
X36341Y54521I-1295J-23D01*
G01*
Y43171D02*
G03*
X37659Y44443I23J1295D01*
G01*
X32999D02*
G03*
X34317Y43171I1295J23D01*
G01*
Y54521D02*
G03*
X32999Y53249I-23J-1295D01*
G01*
X28586Y46216D02*
G03*
X30113Y46960I-207J2361D01*
G01*
X26179Y48707D02*
G03*
X28584Y46217I2447J-43D01*
G01*
Y51167D02*
G03*
X26179Y48677I43J-2447D01*
G01*
X30113Y50424D02*
G03*
X28586Y51168I-1733J-1616D01*
G01*
X50157Y15037D02*
Y21387D01*
X40567Y15037D02*
Y21387D01*
X86833Y55638D02*
Y59358D01*
X93553Y55638D02*
Y59358D01*
X86833Y55638D02*
X87093D01*
X93303D02*
X93553D01*
X92063Y59358D02*
X93553D01*
X86833D02*
X88433D01*
X34319Y54521D02*
X36339D01*
X37659Y44441D02*
Y53251D01*
X34319Y43171D02*
X36339D01*
X32999Y44441D02*
Y53251D01*
X30119Y46967D02*
Y50417D01*
X83177Y71528D02*
X90177D01*
X83177Y64528D02*
X90177D01*
X83177D02*
Y65028D01*
Y71028D02*
Y71528D01*
X90177Y64528D02*
Y65028D01*
Y71028D02*
Y71528D01*
X82796Y82672D02*
X89796D01*
X82796Y75672D02*
X89796D01*
X82796D02*
Y76172D01*
Y82172D02*
Y82672D01*
X89796Y75672D02*
Y76172D01*
Y82172D02*
Y82672D01*
D13*
X43914Y72390D02*
G03*
X44524Y72390I305J0D01*
G01*
X32504Y14492D02*
G03*
X32504Y14492I-250J0D01*
G01*
D14*
X40485Y37186D02*
X47953D01*
X44524Y72390D02*
X47953D01*
X43914D02*
X44524D01*
X41196D02*
X43914D01*
D15*
X27622Y14682D02*
X31522D01*
X27622Y19710D02*
X31522D01*
D16*
X40536Y25730D02*
Y24460D01*
X40790Y24206D01*
X41298D01*
X41552Y24460D01*
Y25730D01*
X42060Y24206D02*
X42567D01*
X42313D01*
Y25730D01*
X42060Y25476D01*
X26591Y30252D02*
Y31775D01*
X27353D01*
X27607Y31521D01*
Y31013D01*
X27353Y30759D01*
X26591D01*
X27099D02*
X27607Y30252D01*
X28115D02*
X28623D01*
X28369D01*
Y31775D01*
X28115Y31521D01*
X43736Y13106D02*
X43482Y13360D01*
X42974D01*
X42720Y13106D01*
Y12091D01*
X42974Y11837D01*
X43482D01*
X43736Y12091D01*
X44244Y11837D02*
X44752D01*
X44498D01*
Y13360D01*
X44244Y13106D01*
X58722Y11328D02*
X58214D01*
X58468D01*
Y10059D01*
X58214Y9805D01*
X57960D01*
X57706Y10059D01*
X59230Y9805D02*
X59738D01*
X59484D01*
Y11328D01*
X59230Y11074D01*
X57833Y26187D02*
X57579Y26441D01*
X57071D01*
X56817Y26187D01*
Y25172D01*
X57071Y24918D01*
X57579D01*
X57833Y25172D01*
X59357Y24918D02*
X58341D01*
X59357Y25933D01*
Y26187D01*
X59103Y26441D01*
X58595D01*
X58341Y26187D01*
X71549Y11405D02*
Y12928D01*
X72311D01*
X72565Y12674D01*
Y12167D01*
X72311Y11913D01*
X71549D01*
X72057D02*
X72565Y11405D01*
X74089D02*
X73073D01*
X74089Y12420D01*
Y12674D01*
X73835Y12928D01*
X73327D01*
X73073Y12674D01*
X86815Y64059D02*
Y62789D01*
X87069Y62535D01*
X87577D01*
X87830Y62789D01*
Y64059D01*
X89354Y62535D02*
X88338D01*
X89354Y63551D01*
Y63805D01*
X89100Y64059D01*
X88592D01*
X88338Y63805D01*
X71168Y29362D02*
X70914Y29616D01*
X70406D01*
X70152Y29362D01*
Y28347D01*
X70406Y28093D01*
X70914D01*
X71168Y28347D01*
X71676Y29362D02*
X71930Y29616D01*
X72438D01*
X72692Y29362D01*
Y29108D01*
X72438Y28854D01*
X72184D01*
X72438D01*
X72692Y28600D01*
Y28347D01*
X72438Y28093D01*
X71930D01*
X71676Y28347D01*
X98346Y64795D02*
X98092Y65049D01*
X97584D01*
X97330Y64795D01*
Y63780D01*
X97584Y63526D01*
X98092D01*
X98346Y63780D01*
X99616Y63526D02*
Y65049D01*
X98854Y64287D01*
X99870D01*
X32967Y57150D02*
Y56896D01*
X33475Y56388D01*
X33982Y56896D01*
Y57150D01*
X33475Y56388D02*
Y55626D01*
X34490D02*
X34998D01*
X34744D01*
Y57150D01*
X34490Y56896D01*
X34338Y43459D02*
X34084Y43713D01*
X33576D01*
X33322Y43459D01*
Y42444D01*
X33576Y42190D01*
X34084D01*
X34338Y42444D01*
X35862Y43713D02*
X35354Y43459D01*
X34846Y42951D01*
Y42444D01*
X35100Y42190D01*
X35608D01*
X35862Y42444D01*
Y42697D01*
X35608Y42951D01*
X34846D01*
X34084Y69748D02*
X33830Y70002D01*
X33322D01*
X33068Y69748D01*
Y68733D01*
X33322Y68479D01*
X33830D01*
X34084Y68733D01*
X35608Y70002D02*
X34592D01*
Y69240D01*
X35100Y69494D01*
X35354D01*
X35608Y69240D01*
Y68733D01*
X35354Y68479D01*
X34846D01*
X34592Y68733D01*
X40840Y74752D02*
X40333D01*
X40587D01*
Y73482D01*
X40333Y73228D01*
X40079D01*
X39825Y73482D01*
X42364Y73228D02*
X41348D01*
X42364Y74244D01*
Y74498D01*
X42110Y74752D01*
X41602D01*
X41348Y74498D01*
X81455Y60554D02*
Y62077D01*
X82217D01*
X82471Y61823D01*
Y61316D01*
X82217Y61062D01*
X81455D01*
X81963D02*
X82471Y60554D01*
X82979Y61823D02*
X83233Y62077D01*
X83741D01*
X83995Y61823D01*
Y61569D01*
X83741Y61316D01*
X83487D01*
X83741D01*
X83995Y61062D01*
Y60808D01*
X83741Y60554D01*
X83233D01*
X82979Y60808D01*
X85621Y51206D02*
X85113D01*
X85367D01*
Y49937D01*
X85113Y49683D01*
X84859D01*
X84605Y49937D01*
X86129Y50952D02*
X86382Y51206D01*
X86890D01*
X87144Y50952D01*
Y50698D01*
X86890Y50444D01*
X86636D01*
X86890D01*
X87144Y50190D01*
Y49937D01*
X86890Y49683D01*
X86382D01*
X86129Y49937D01*
X13891Y78334D02*
Y79857D01*
X14653D01*
X14907Y79603D01*
Y79096D01*
X14653Y78842D01*
X13891D01*
X14399D02*
X14907Y78334D01*
X16177D02*
Y79857D01*
X15415Y79096D01*
X16431D01*
X60424Y43079D02*
Y44602D01*
X61186D01*
X61440Y44348D01*
Y43840D01*
X61186Y43586D01*
X60424D01*
X60932D02*
X61440Y43079D01*
X62963Y44602D02*
X61948D01*
Y43840D01*
X62456Y44094D01*
X62709D01*
X62963Y43840D01*
Y43333D01*
X62709Y43079D01*
X62202D01*
X61948Y43333D01*
X24254Y69647D02*
X24000Y69901D01*
X23493D01*
X23239Y69647D01*
Y68631D01*
X23493Y68377D01*
X24000D01*
X24254Y68631D01*
X24762Y69901D02*
X25778D01*
Y69647D01*
X24762Y68631D01*
Y68377D01*
X13764Y55220D02*
Y56743D01*
X14526D01*
X14780Y56489D01*
Y55982D01*
X14526Y55728D01*
X13764D01*
X14272D02*
X14780Y55220D01*
X16304Y56743D02*
X15796Y56489D01*
X15288Y55982D01*
Y55474D01*
X15542Y55220D01*
X16050D01*
X16304Y55474D01*
Y55728D01*
X16050Y55982D01*
X15288D01*
X59916Y39396D02*
Y40919D01*
X60678D01*
X60932Y40665D01*
Y40157D01*
X60678Y39903D01*
X59916D01*
X60424D02*
X60932Y39396D01*
X61440Y40665D02*
X61694Y40919D01*
X62201D01*
X62455Y40665D01*
Y40411D01*
X62201Y40157D01*
X62455Y39903D01*
Y39650D01*
X62201Y39396D01*
X61694D01*
X61440Y39650D01*
Y39903D01*
X61694Y40157D01*
X61440Y40411D01*
Y40665D01*
X61694Y40157D02*
X62201D01*
X19606Y54966D02*
Y56489D01*
X20368D01*
X20622Y56235D01*
Y55728D01*
X20368Y55474D01*
X19606D01*
X20114D02*
X20622Y54966D01*
X21130Y56489D02*
X22146D01*
Y56235D01*
X21130Y55220D01*
Y54966D01*
X60551Y47016D02*
Y48539D01*
X61313D01*
X61567Y48285D01*
Y47777D01*
X61313Y47523D01*
X60551D01*
X61059D02*
X61567Y47016D01*
X62075Y47270D02*
X62329Y47016D01*
X62836D01*
X63090Y47270D01*
Y48285D01*
X62836Y48539D01*
X62329D01*
X62075Y48285D01*
Y48031D01*
X62329Y47777D01*
X63090D01*
X19733Y44221D02*
X19479Y44475D01*
X18971D01*
X18717Y44221D01*
Y43206D01*
X18971Y42952D01*
X19479D01*
X19733Y43206D01*
X20241Y44221D02*
X20495Y44475D01*
X21003D01*
X21257Y44221D01*
Y43967D01*
X21003Y43713D01*
X21257Y43459D01*
Y43206D01*
X21003Y42952D01*
X20495D01*
X20241Y43206D01*
Y43459D01*
X20495Y43713D01*
X20241Y43967D01*
Y44221D01*
X20495Y43713D02*
X21003D01*
X27175Y52451D02*
Y53467D01*
X26921Y53721D01*
X26414D01*
X26160Y53467D01*
Y52451D01*
X26414Y52197D01*
X26921D01*
X26667Y52705D02*
X27175Y52197D01*
X26921D02*
X27175Y52451D01*
X27683Y52197D02*
X28191D01*
X27937D01*
Y53721D01*
X27683Y53467D01*
X3096Y45364D02*
X2588D01*
X2842D01*
Y44095D01*
X2588Y43841D01*
X2334D01*
X2080Y44095D01*
X4366Y43841D02*
Y45364D01*
X3604Y44602D01*
X4620D01*
X86027Y28296D02*
Y29819D01*
X86789D01*
X87043Y29565D01*
Y29058D01*
X86789Y28804D01*
X86027D01*
X86535D02*
X87043Y28296D01*
X87551D02*
X88059D01*
X87805D01*
Y29819D01*
X87551Y29565D01*
X89836Y28296D02*
X88821D01*
X89836Y29311D01*
Y29565D01*
X89582Y29819D01*
X89074D01*
X88821Y29565D01*
X81709Y28296D02*
Y29819D01*
X82471D01*
X82725Y29565D01*
Y29058D01*
X82471Y28804D01*
X81709D01*
X82217D02*
X82725Y28296D01*
X83233D02*
X83741D01*
X83487D01*
Y29819D01*
X83233Y29565D01*
X84503Y28296D02*
X85010D01*
X84756D01*
Y29819D01*
X84503Y29565D01*
X76883Y28169D02*
Y29692D01*
X77645D01*
X77899Y29438D01*
Y28931D01*
X77645Y28677D01*
X76883D01*
X77391D02*
X77899Y28169D01*
X78407D02*
X78915D01*
X78661D01*
Y29692D01*
X78407Y29438D01*
X79676D02*
X79930Y29692D01*
X80438D01*
X80692Y29438D01*
Y28423D01*
X80438Y28169D01*
X79930D01*
X79676Y28423D01*
Y29438D01*
X26312Y22047D02*
X26820D01*
X26566D01*
Y20523D01*
X26312D01*
X26820D01*
X28597Y21793D02*
X28343Y22047D01*
X27836D01*
X27582Y21793D01*
Y20777D01*
X27836Y20523D01*
X28343D01*
X28597Y20777D01*
X29105Y20523D02*
X29613D01*
X29359D01*
Y22047D01*
X29105Y21793D01*
X83690Y73838D02*
X83436Y74092D01*
X82929D01*
X82675Y73838D01*
Y73584D01*
X82929Y73330D01*
X83436D01*
X83690Y73076D01*
Y72822D01*
X83436Y72568D01*
X82929D01*
X82675Y72822D01*
X85214Y72568D02*
X84198D01*
X85214Y73584D01*
Y73838D01*
X84960Y74092D01*
X84452D01*
X84198Y73838D01*
X66977Y84557D02*
Y86080D01*
X67739D01*
X67993Y85826D01*
Y85319D01*
X67739Y85065D01*
X66977D01*
X67485D02*
X67993Y84557D01*
X68501D02*
X69009D01*
X68755D01*
Y86080D01*
X68501Y85826D01*
X70532Y84557D02*
Y86080D01*
X69771Y85319D01*
X70786D01*
X83309Y84988D02*
X83055Y85242D01*
X82548D01*
X82294Y84988D01*
Y84734D01*
X82548Y84480D01*
X83055D01*
X83309Y84226D01*
Y83973D01*
X83055Y83719D01*
X82548D01*
X82294Y83973D01*
X83817Y83719D02*
X84325D01*
X84071D01*
Y85242D01*
X83817Y84988D01*
X53642Y81636D02*
Y83159D01*
X54404D01*
X54658Y82905D01*
Y82398D01*
X54404Y82144D01*
X53642D01*
X54150D02*
X54658Y81636D01*
X55166D02*
X55674D01*
X55420D01*
Y83159D01*
X55166Y82905D01*
X56436D02*
X56689Y83159D01*
X57197D01*
X57451Y82905D01*
Y82651D01*
X57197Y82398D01*
X56943D01*
X57197D01*
X57451Y82144D01*
Y81890D01*
X57197Y81636D01*
X56689D01*
X56436Y81890D01*
X23543Y12725D02*
X23035D01*
X23289D01*
Y11456D01*
X23035Y11202D01*
X22781D01*
X22527Y11456D01*
X25067Y12725D02*
X24051D01*
Y11963D01*
X24559Y12217D01*
X24813D01*
X25067Y11963D01*
Y11456D01*
X24813Y11202D01*
X24305D01*
X24051Y11456D01*
X69390Y69367D02*
X69136Y69621D01*
X68628D01*
X68374Y69367D01*
Y68352D01*
X68628Y68098D01*
X69136D01*
X69390Y68352D01*
X69898Y68098D02*
X70406D01*
X70152D01*
Y69621D01*
X69898Y69367D01*
X71168D02*
X71421Y69621D01*
X71929D01*
X72183Y69367D01*
Y68352D01*
X71929Y68098D01*
X71421D01*
X71168Y68352D01*
Y69367D01*
X73200Y86131D02*
X72946Y86385D01*
X72438D01*
X72184Y86131D01*
Y85116D01*
X72438Y84862D01*
X72946D01*
X73200Y85116D01*
X73708D02*
X73962Y84862D01*
X74470D01*
X74724Y85116D01*
Y86131D01*
X74470Y86385D01*
X73962D01*
X73708Y86131D01*
Y85877D01*
X73962Y85623D01*
X74724D01*
M02*
