<?xml version="1.0" standalone="no"?>
 <!DOCTYPE svg PUBLIC "-//W3C//DTD SVG 1.1//EN" 
 "http://www.w3.org/Graphics/SVG/1.1/DTD/svg11.dtd"> 
<svg
  xmlns:svg="http://www.w3.org/2000/svg"
  xmlns="http://www.w3.org/2000/svg"
  xmlns:xlink="http://www.w3.org/1999/xlink"
  version="1.1"
  width="29.700220cm" height="21.000720cm" viewBox="0 0 297002200 210007200">
<title>SVG Picture created as CaixaDeRemedios-F_Silkscreen.svg date 2022/11/30 19:46:19 </title>
  <desc>Picture generated by PCBNEW </desc>
<g style="fill:#000000; fill-opacity:1.000000;stroke:#000000; stroke-opacity:1.000000;
stroke-linecap:round; stroke-linejoin:round;"
 transform="translate(0 0) scale(1 1)">
</g>
<g style="fill:#000000; fill-opacity:0.0; 
stroke:#000000; stroke-width:0.000000; stroke-opacity:1; 
stroke-linecap:round; stroke-linejoin:round;">
</g>
<g style="fill:#000000; fill-opacity:0.0; 
stroke:#000000; stroke-width:100000.000000; stroke-opacity:1; 
stroke-linecap:round; stroke-linejoin:round;">
<path d="M20320000 25400000
L167640000 25400000
" />
<path d="M167640000 25400000
L167640000 132080000
" />
<path d="M167640000 132080000
L20320000 132080000
" />
<path d="M20320000 132080000
L20320000 25400000
" />
</g>
<g style="fill:#000000; fill-opacity:0.0; 
stroke:#000000; stroke-width:150000.000000; stroke-opacity:1; 
stroke-linecap:round; stroke-linejoin:round;">
<g transform="rotate(-90.000000 153960000.000000 115580000.000000)">
<text x="153960000.000000" y="116080000.000000"
textLength="3147381.000000" font-size="1333333.000000" lengthAdjust="spacingAndGlyphs"
text-anchor="middle" opacity="0">U14</text>
</g>
<g class="stroked-text"><desc>U14</desc>
<path d="M153412380 116818095
L154221904 116818095
L154317142 116770476
L154364761 116722857
L154412380 116627619
L154412380 116437142
L154364761 116341904
L154317142 116294285
L154221904 116246666
L153412380 116246666
" />
<path d="M154412380 115246666
L154412380 115818095
" />
<path d="M154412380 115532380
L153412380 115532380
L153555238 115627619
L153650476 115722857
L153698095 115818095
" />
<path d="M153745714 114389523
L154412380 114389523
" />
<path d="M153364761 114627619
L154079047 114865714
L154079047 114246666
" />
</g><g transform="rotate(-90.000000 133640000.000000 115580000.000000)">
<text x="133640000.000000" y="116080000.000000"
textLength="3147381.000000" font-size="1333333.000000" lengthAdjust="spacingAndGlyphs"
text-anchor="middle" opacity="0">U13</text>
</g>
<g class="stroked-text"><desc>U13</desc>
<path d="M133092380 116818095
L133901904 116818095
L133997142 116770476
L134044761 116722857
L134092380 116627619
L134092380 116437142
L134044761 116341904
L133997142 116294285
L133901904 116246666
L133092380 116246666
" />
<path d="M134092380 115246666
L134092380 115818095
" />
<path d="M134092380 115532380
L133092380 115532380
L133235238 115627619
L133330476 115722857
L133378095 115818095
" />
<path d="M133092380 114913333
L133092380 114294285
L133473333 114627619
L133473333 114484761
L133520952 114389523
L133568571 114341904
L133663809 114294285
L133901904 114294285
L133997142 114341904
L134044761 114389523
L134092380 114484761
L134092380 114770476
L134044761 114865714
L133997142 114913333
" />
</g><g transform="rotate(-90.000000 113320000.000000 115580000.000000)">
<text x="113320000.000000" y="116080000.000000"
textLength="3147381.000000" font-size="1333333.000000" lengthAdjust="spacingAndGlyphs"
text-anchor="middle" opacity="0">U12</text>
</g>
<g class="stroked-text"><desc>U12</desc>
<path d="M112772380 116818095
L113581904 116818095
L113677142 116770476
L113724761 116722857
L113772380 116627619
L113772380 116437142
L113724761 116341904
L113677142 116294285
L113581904 116246666
L112772380 116246666
" />
<path d="M113772380 115246666
L113772380 115818095
" />
<path d="M113772380 115532380
L112772380 115532380
L112915238 115627619
L113010476 115722857
L113058095 115818095
" />
<path d="M112867619 114865714
L112820000 114818095
L112772380 114722857
L112772380 114484761
L112820000 114389523
L112867619 114341904
L112962857 114294285
L113058095 114294285
L113200952 114341904
L113772380 114913333
L113772380 114294285
" />
</g><g transform="rotate(-90.000000 93000000.000000 115580000.000000)">
<text x="93000000.000000" y="116080000.000000"
textLength="3147381.000000" font-size="1333333.000000" lengthAdjust="spacingAndGlyphs"
text-anchor="middle" opacity="0">U11</text>
</g>
<g class="stroked-text"><desc>U11</desc>
<path d="M92452380 116818095
L93261904 116818095
L93357142 116770476
L93404761 116722857
L93452380 116627619
L93452380 116437142
L93404761 116341904
L93357142 116294285
L93261904 116246666
L92452380 116246666
" />
<path d="M93452380 115246666
L93452380 115818095
" />
<path d="M93452380 115532380
L92452380 115532380
L92595238 115627619
L92690476 115722857
L92738095 115818095
" />
<path d="M93452380 114294285
L93452380 114865714
" />
<path d="M93452380 114580000
L92452380 114580000
L92595238 114675238
L92690476 114770476
L92738095 114865714
" />
</g><g transform="rotate(-90.000000 72680000.000000 115580000.000000)">
<text x="72680000.000000" y="116080000.000000"
textLength="3147381.000000" font-size="1333333.000000" lengthAdjust="spacingAndGlyphs"
text-anchor="middle" opacity="0">U10</text>
</g>
<g class="stroked-text"><desc>U10</desc>
<path d="M72132380 116818095
L72941904 116818095
L73037142 116770476
L73084761 116722857
L73132380 116627619
L73132380 116437142
L73084761 116341904
L73037142 116294285
L72941904 116246666
L72132380 116246666
" />
<path d="M73132380 115246666
L73132380 115818095
" />
<path d="M73132380 115532380
L72132380 115532380
L72275238 115627619
L72370476 115722857
L72418095 115818095
" />
<path d="M72132380 114627619
L72132380 114532380
L72180000 114437142
L72227619 114389523
L72322857 114341904
L72513333 114294285
L72751428 114294285
L72941904 114341904
L73037142 114389523
L73084761 114437142
L73132380 114532380
L73132380 114627619
L73084761 114722857
L73037142 114770476
L72941904 114818095
L72751428 114865714
L72513333 114865714
L72322857 114818095
L72227619 114770476
L72180000 114722857
L72132380 114627619
" />
</g><g transform="rotate(-90.000000 52360000.000000 115580000.000000)">
<text x="52360000.000000" y="116080000.000000"
textLength="2195000.000000" font-size="1333333.000000" lengthAdjust="spacingAndGlyphs"
text-anchor="middle" opacity="0">U9</text>
</g>
<g class="stroked-text"><desc>U9</desc>
<path d="M51812380 116341904
L52621904 116341904
L52717142 116294285
L52764761 116246666
L52812380 116151428
L52812380 115960952
L52764761 115865714
L52717142 115818095
L52621904 115770476
L51812380 115770476
" />
<path d="M52812380 115246666
L52812380 115056190
L52764761 114960952
L52717142 114913333
L52574285 114818095
L52383809 114770476
L52002857 114770476
L51907619 114818095
L51860000 114865714
L51812380 114960952
L51812380 115151428
L51860000 115246666
L51907619 115294285
L52002857 115341904
L52240952 115341904
L52336190 115294285
L52383809 115246666
L52431428 115151428
L52431428 114960952
L52383809 114865714
L52336190 114818095
L52240952 114770476
" />
</g><g transform="rotate(-90.000000 32040000.000000 115580000.000000)">
<text x="32040000.000000" y="116080000.000000"
textLength="2195000.000000" font-size="1333333.000000" lengthAdjust="spacingAndGlyphs"
text-anchor="middle" opacity="0">U8</text>
</g>
<g class="stroked-text"><desc>U8</desc>
<path d="M31492380 116341904
L32301904 116341904
L32397142 116294285
L32444761 116246666
L32492380 116151428
L32492380 115960952
L32444761 115865714
L32397142 115818095
L32301904 115770476
L31492380 115770476
" />
<path d="M31920952 115151428
L31873333 115246666
L31825714 115294285
L31730476 115341904
L31682857 115341904
L31587619 115294285
L31540000 115246666
L31492380 115151428
L31492380 114960952
L31540000 114865714
L31587619 114818095
L31682857 114770476
L31730476 114770476
L31825714 114818095
L31873333 114865714
L31920952 114960952
L31920952 115151428
L31968571 115246666
L32016190 115294285
L32111428 115341904
L32301904 115341904
L32397142 115294285
L32444761 115246666
L32492380 115151428
L32492380 114960952
L32444761 114865714
L32397142 114818095
L32301904 114770476
L32111428 114770476
L32016190 114818095
L31968571 114865714
L31920952 114960952
" />
</g><g transform="rotate(-90.000000 153960000.000000 121920000.000000)">
<text x="153960000.000000" y="122420000.000000"
textLength="2195000.000000" font-size="1333333.000000" lengthAdjust="spacingAndGlyphs"
text-anchor="middle" opacity="0">U7</text>
</g>
<g class="stroked-text"><desc>U7</desc>
<path d="M153412380 122681904
L154221904 122681904
L154317142 122634285
L154364761 122586666
L154412380 122491428
L154412380 122300952
L154364761 122205714
L154317142 122158095
L154221904 122110476
L153412380 122110476
" />
<path d="M153412380 121729523
L153412380 121062857
L154412380 121491428
" />
</g><g transform="rotate(-90.000000 133640000.000000 121920000.000000)">
<text x="133640000.000000" y="122420000.000000"
textLength="2195000.000000" font-size="1333333.000000" lengthAdjust="spacingAndGlyphs"
text-anchor="middle" opacity="0">U6</text>
</g>
<g class="stroked-text"><desc>U6</desc>
<path d="M133092380 122681904
L133901904 122681904
L133997142 122634285
L134044761 122586666
L134092380 122491428
L134092380 122300952
L134044761 122205714
L133997142 122158095
L133901904 122110476
L133092380 122110476
" />
<path d="M133092380 121205714
L133092380 121396190
L133140000 121491428
L133187619 121539047
L133330476 121634285
L133520952 121681904
L133901904 121681904
L133997142 121634285
L134044761 121586666
L134092380 121491428
L134092380 121300952
L134044761 121205714
L133997142 121158095
L133901904 121110476
L133663809 121110476
L133568571 121158095
L133520952 121205714
L133473333 121300952
L133473333 121491428
L133520952 121586666
L133568571 121634285
L133663809 121681904
" />
</g><g transform="rotate(-90.000000 113320000.000000 121920000.000000)">
<text x="113320000.000000" y="122420000.000000"
textLength="2195000.000000" font-size="1333333.000000" lengthAdjust="spacingAndGlyphs"
text-anchor="middle" opacity="0">U5</text>
</g>
<g class="stroked-text"><desc>U5</desc>
<path d="M112772380 122681904
L113581904 122681904
L113677142 122634285
L113724761 122586666
L113772380 122491428
L113772380 122300952
L113724761 122205714
L113677142 122158095
L113581904 122110476
L112772380 122110476
" />
<path d="M112772380 121158095
L112772380 121634285
L113248571 121681904
L113200952 121634285
L113153333 121539047
L113153333 121300952
L113200952 121205714
L113248571 121158095
L113343809 121110476
L113581904 121110476
L113677142 121158095
L113724761 121205714
L113772380 121300952
L113772380 121539047
L113724761 121634285
L113677142 121681904
" />
</g><g transform="rotate(-90.000000 93000000.000000 121920000.000000)">
<text x="93000000.000000" y="122420000.000000"
textLength="2195000.000000" font-size="1333333.000000" lengthAdjust="spacingAndGlyphs"
text-anchor="middle" opacity="0">U4</text>
</g>
<g class="stroked-text"><desc>U4</desc>
<path d="M92452380 122681904
L93261904 122681904
L93357142 122634285
L93404761 122586666
L93452380 122491428
L93452380 122300952
L93404761 122205714
L93357142 122158095
L93261904 122110476
L92452380 122110476
" />
<path d="M92785714 121205714
L93452380 121205714
" />
<path d="M92404761 121443809
L93119047 121681904
L93119047 121062857
" />
</g><g transform="rotate(-90.000000 72680000.000000 121920000.000000)">
<text x="72680000.000000" y="122420000.000000"
textLength="2195000.000000" font-size="1333333.000000" lengthAdjust="spacingAndGlyphs"
text-anchor="middle" opacity="0">U3</text>
</g>
<g class="stroked-text"><desc>U3</desc>
<path d="M72132380 122681904
L72941904 122681904
L73037142 122634285
L73084761 122586666
L73132380 122491428
L73132380 122300952
L73084761 122205714
L73037142 122158095
L72941904 122110476
L72132380 122110476
" />
<path d="M72132380 121729523
L72132380 121110476
L72513333 121443809
L72513333 121300952
L72560952 121205714
L72608571 121158095
L72703809 121110476
L72941904 121110476
L73037142 121158095
L73084761 121205714
L73132380 121300952
L73132380 121586666
L73084761 121681904
L73037142 121729523
" />
</g><g transform="rotate(-90.000000 52360000.000000 121920000.000000)">
<text x="52360000.000000" y="122420000.000000"
textLength="2195000.000000" font-size="1333333.000000" lengthAdjust="spacingAndGlyphs"
text-anchor="middle" opacity="0">U2</text>
</g>
<g class="stroked-text"><desc>U2</desc>
<path d="M51812380 122681904
L52621904 122681904
L52717142 122634285
L52764761 122586666
L52812380 122491428
L52812380 122300952
L52764761 122205714
L52717142 122158095
L52621904 122110476
L51812380 122110476
" />
<path d="M51907619 121681904
L51860000 121634285
L51812380 121539047
L51812380 121300952
L51860000 121205714
L51907619 121158095
L52002857 121110476
L52098095 121110476
L52240952 121158095
L52812380 121729523
L52812380 121110476
" />
</g><g transform="rotate(-90.000000 32040000.000000 121920000.000000)">
<text x="32040000.000000" y="122420000.000000"
textLength="2195000.000000" font-size="1333333.000000" lengthAdjust="spacingAndGlyphs"
text-anchor="middle" opacity="0">U1</text>
</g>
<g class="stroked-text"><desc>U1</desc>
<path d="M31492380 122681904
L32301904 122681904
L32397142 122634285
L32444761 122586666
L32492380 122491428
L32492380 122300952
L32444761 122205714
L32397142 122158095
L32301904 122110476
L31492380 122110476
" />
<path d="M32492380 121110476
L32492380 121681904
" />
<path d="M32492380 121396190
L31492380 121396190
L31635238 121491428
L31730476 121586666
L31778095 121681904
" />
</g><text x="144790000.000000" y="75430000.000000"
textLength="3147381.000000" font-size="1333333.000000" lengthAdjust="spacingAndGlyphs"
text-anchor="middle" opacity="0">U15</text>
<g class="stroked-text"><desc>U15</desc>
<path d="M143551904 74382380
L143551904 75191904
L143599523 75287142
L143647142 75334761
L143742380 75382380
L143932857 75382380
L144028095 75334761
L144075714 75287142
L144123333 75191904
L144123333 74382380
" />
<path d="M145123333 75382380
L144551904 75382380
" />
<path d="M144837619 75382380
L144837619 74382380
L144742380 74525238
L144647142 74620476
L144551904 74668095
" />
<path d="M146028095 74382380
L145551904 74382380
L145504285 74858571
L145551904 74810952
L145647142 74763333
L145885238 74763333
L145980476 74810952
L146028095 74858571
L146075714 74953809
L146075714 75191904
L146028095 75287142
L145980476 75334761
L145885238 75382380
L145647142 75382380
L145551904 75334761
L145504285 75287142
" />
</g><text x="140970000.000000" y="81780000.000000"
textLength="1433095.000000" font-size="1333333.000000" lengthAdjust="spacingAndGlyphs"
text-anchor="middle" opacity="0">+</text>
<g class="stroked-text"><desc>+</desc>
<path d="M140589047 81351428
L141350952 81351428
" />
<path d="M140970000 81732380
L140970000 80970476
" />
</g><text x="28610000.000000" y="26405000.000000"
textLength="3147381.000000" font-size="1333333.000000" lengthAdjust="spacingAndGlyphs"
text-anchor="middle" opacity="0">U18</text>
<g class="stroked-text"><desc>U18</desc>
<path d="M27371904 25357380
L27371904 26166904
L27419523 26262142
L27467142 26309761
L27562380 26357380
L27752857 26357380
L27848095 26309761
L27895714 26262142
L27943333 26166904
L27943333 25357380
" />
<path d="M28943333 26357380
L28371904 26357380
" />
<path d="M28657619 26357380
L28657619 25357380
L28562380 25500238
L28467142 25595476
L28371904 25643095
" />
<path d="M29514761 25785952
L29419523 25738333
L29371904 25690714
L29324285 25595476
L29324285 25547857
L29371904 25452619
L29419523 25405000
L29514761 25357380
L29705238 25357380
L29800476 25405000
L29848095 25452619
L29895714 25547857
L29895714 25595476
L29848095 25690714
L29800476 25738333
L29705238 25785952
L29514761 25785952
L29419523 25833571
L29371904 25881190
L29324285 25976428
L29324285 26166904
L29371904 26262142
L29419523 26309761
L29514761 26357380
L29705238 26357380
L29800476 26309761
L29848095 26262142
L29895714 26166904
L29895714 25976428
L29848095 25881190
L29800476 25833571
L29705238 25785952
" />
</g><text x="29000000.000000" y="71835000.000000"
textLength="3147381.000000" font-size="1333333.000000" lengthAdjust="spacingAndGlyphs"
text-anchor="middle" opacity="0">U16</text>
<g class="stroked-text"><desc>U16</desc>
<path d="M27761904 70787380
L27761904 71596904
L27809523 71692142
L27857142 71739761
L27952380 71787380
L28142857 71787380
L28238095 71739761
L28285714 71692142
L28333333 71596904
L28333333 70787380
" />
<path d="M29333333 71787380
L28761904 71787380
" />
<path d="M29047619 71787380
L29047619 70787380
L28952380 70930238
L28857142 71025476
L28761904 71073095
" />
<path d="M30190476 70787380
L30000000 70787380
L29904761 70835000
L29857142 70882619
L29761904 71025476
L29714285 71215952
L29714285 71596904
L29761904 71692142
L29809523 71739761
L29904761 71787380
L30095238 71787380
L30190476 71739761
L30238095 71692142
L30285714 71596904
L30285714 71358809
L30238095 71263571
L30190476 71215952
L30095238 71168333
L29904761 71168333
L29809523 71215952
L29761904 71263571
L29714285 71358809
" />
</g><text x="113030000.000000" y="71830000.000000"
textLength="3147381.000000" font-size="1333333.000000" lengthAdjust="spacingAndGlyphs"
text-anchor="middle" opacity="0">U19</text>
<g class="stroked-text"><desc>U19</desc>
<path d="M111791904 70782380
L111791904 71591904
L111839523 71687142
L111887142 71734761
L111982380 71782380
L112172857 71782380
L112268095 71734761
L112315714 71687142
L112363333 71591904
L112363333 70782380
" />
<path d="M113363333 71782380
L112791904 71782380
" />
<path d="M113077619 71782380
L113077619 70782380
L112982380 70925238
L112887142 71020476
L112791904 71068095
" />
<path d="M113839523 71782380
L114030000 71782380
L114125238 71734761
L114172857 71687142
L114268095 71544285
L114315714 71353809
L114315714 70972857
L114268095 70877619
L114220476 70830000
L114125238 70782380
L113934761 70782380
L113839523 70830000
L113791904 70877619
L113744285 70972857
L113744285 71210952
L113791904 71306190
L113839523 71353809
L113934761 71401428
L114125238 71401428
L114220476 71353809
L114268095 71306190
L114315714 71210952
" />
</g><text x="127000000.000000" y="96850000.000000"
textLength="6718810.000000" font-size="1333333.000000" lengthAdjust="spacingAndGlyphs"
text-anchor="middle" opacity="0">Mux16x4</text>
<g class="stroked-text"><desc>Mux16x4</desc>
<path d="M123976190 96802380
L123976190 95802380
L124309523 96516666
L124642857 95802380
L124642857 96802380
" />
<path d="M125547619 96135714
L125547619 96802380
" />
<path d="M125119047 96135714
L125119047 96659523
L125166666 96754761
L125261904 96802380
L125404761 96802380
L125500000 96754761
L125547619 96707142
" />
<path d="M125928571 96802380
L126452380 96135714
" />
<path d="M125928571 96135714
L126452380 96802380
" />
<path d="M127357142 96802380
L126785714 96802380
" />
<path d="M127071428 96802380
L127071428 95802380
L126976190 95945238
L126880952 96040476
L126785714 96088095
" />
<path d="M128214285 95802380
L128023809 95802380
L127928571 95850000
L127880952 95897619
L127785714 96040476
L127738095 96230952
L127738095 96611904
L127785714 96707142
L127833333 96754761
L127928571 96802380
L128119047 96802380
L128214285 96754761
L128261904 96707142
L128309523 96611904
L128309523 96373809
L128261904 96278571
L128214285 96230952
L128119047 96183333
L127928571 96183333
L127833333 96230952
L127785714 96278571
L127738095 96373809
" />
<path d="M128642857 96802380
L129166666 96135714
" />
<path d="M128642857 96135714
L129166666 96802380
" />
<path d="M129976190 96135714
L129976190 96802380
" />
<path d="M129738095 95754761
L129500000 96469047
L130119047 96469047
" />
</g><g transform="rotate(-90.000000 150280000.000000 66040000.000000)">
<text x="150280000.000000" y="66540000.000000"
textLength="3147381.000000" font-size="1333333.000000" lengthAdjust="spacingAndGlyphs"
text-anchor="middle" opacity="0">U17</text>
</g>
<g class="stroked-text"><desc>U17</desc>
<path d="M149732380 67278095
L150541904 67278095
L150637142 67230476
L150684761 67182857
L150732380 67087619
L150732380 66897142
L150684761 66801904
L150637142 66754285
L150541904 66706666
L149732380 66706666
" />
<path d="M150732380 65706666
L150732380 66278095
" />
<path d="M150732380 65992380
L149732380 65992380
L149875238 66087619
L149970476 66182857
L150018095 66278095
" />
<path d="M149732380 65373333
L149732380 64706666
L150732380 65135238
" />
</g></g>
<g style="fill:#000000; fill-opacity:0.0; 
stroke:#000000; stroke-width:120000.000000; stroke-opacity:1; 
stroke-linecap:round; stroke-linejoin:round;">
<path d="M151715000 114885000
L151715000 114971724
" />
<path d="M153085000 114885000
L153085000 115580000
" />
<path d="M151715000 114885000
L150840000 114885000
" />
<path d="M150840000 114885000
L150840000 115185507
" />
<path d="M151715000 116188276
L151715000 116275000
" />
<path d="M150840000 115974493
L150840000 116275000
" />
<path d="M152400000 114885000
L153085000 114885000
" />
<path d="M151715000 116275000
L150840000 116275000
" />
<path d="M131395000 114885000
L131395000 114971724
" />
<path d="M132765000 114885000
L132765000 115580000
" />
<path d="M131395000 114885000
L130520000 114885000
" />
<path d="M130520000 114885000
L130520000 115185507
" />
<path d="M131395000 116188276
L131395000 116275000
" />
<path d="M130520000 115974493
L130520000 116275000
" />
<path d="M132080000 114885000
L132765000 114885000
" />
<path d="M131395000 116275000
L130520000 116275000
" />
<path d="M111075000 114885000
L111075000 114971724
" />
<path d="M112445000 114885000
L112445000 115580000
" />
<path d="M111075000 114885000
L110200000 114885000
" />
<path d="M110200000 114885000
L110200000 115185507
" />
<path d="M111075000 116188276
L111075000 116275000
" />
<path d="M110200000 115974493
L110200000 116275000
" />
<path d="M111760000 114885000
L112445000 114885000
" />
<path d="M111075000 116275000
L110200000 116275000
" />
<path d="M90755000 114885000
L90755000 114971724
" />
<path d="M92125000 114885000
L92125000 115580000
" />
<path d="M90755000 114885000
L89880000 114885000
" />
<path d="M89880000 114885000
L89880000 115185507
" />
<path d="M90755000 116188276
L90755000 116275000
" />
<path d="M89880000 115974493
L89880000 116275000
" />
<path d="M91440000 114885000
L92125000 114885000
" />
<path d="M90755000 116275000
L89880000 116275000
" />
<path d="M70435000 114885000
L70435000 114971724
" />
<path d="M71805000 114885000
L71805000 115580000
" />
<path d="M70435000 114885000
L69560000 114885000
" />
<path d="M69560000 114885000
L69560000 115185507
" />
<path d="M70435000 116188276
L70435000 116275000
" />
<path d="M69560000 115974493
L69560000 116275000
" />
<path d="M71120000 114885000
L71805000 114885000
" />
<path d="M70435000 116275000
L69560000 116275000
" />
<path d="M50115000 114885000
L50115000 114971724
" />
<path d="M51485000 114885000
L51485000 115580000
" />
<path d="M50115000 114885000
L49240000 114885000
" />
<path d="M49240000 114885000
L49240000 115185507
" />
<path d="M50115000 116188276
L50115000 116275000
" />
<path d="M49240000 115974493
L49240000 116275000
" />
<path d="M50800000 114885000
L51485000 114885000
" />
<path d="M50115000 116275000
L49240000 116275000
" />
<path d="M29795000 114885000
L29795000 114971724
" />
<path d="M31165000 114885000
L31165000 115580000
" />
<path d="M29795000 114885000
L28920000 114885000
" />
<path d="M28920000 114885000
L28920000 115185507
" />
<path d="M29795000 116188276
L29795000 116275000
" />
<path d="M28920000 115974493
L28920000 116275000
" />
<path d="M30480000 114885000
L31165000 114885000
" />
<path d="M29795000 116275000
L28920000 116275000
" />
<path d="M151715000 121225000
L151715000 121311724
" />
<path d="M153085000 121225000
L153085000 121920000
" />
<path d="M151715000 121225000
L150840000 121225000
" />
<path d="M150840000 121225000
L150840000 121525507
" />
<path d="M151715000 122528276
L151715000 122615000
" />
<path d="M150840000 122314493
L150840000 122615000
" />
<path d="M152400000 121225000
L153085000 121225000
" />
<path d="M151715000 122615000
L150840000 122615000
" />
<path d="M131395000 121225000
L131395000 121311724
" />
<path d="M132765000 121225000
L132765000 121920000
" />
<path d="M131395000 121225000
L130520000 121225000
" />
<path d="M130520000 121225000
L130520000 121525507
" />
<path d="M131395000 122528276
L131395000 122615000
" />
<path d="M130520000 122314493
L130520000 122615000
" />
<path d="M132080000 121225000
L132765000 121225000
" />
<path d="M131395000 122615000
L130520000 122615000
" />
<path d="M111075000 121225000
L111075000 121311724
" />
<path d="M112445000 121225000
L112445000 121920000
" />
<path d="M111075000 121225000
L110200000 121225000
" />
<path d="M110200000 121225000
L110200000 121525507
" />
<path d="M111075000 122528276
L111075000 122615000
" />
<path d="M110200000 122314493
L110200000 122615000
" />
<path d="M111760000 121225000
L112445000 121225000
" />
<path d="M111075000 122615000
L110200000 122615000
" />
<path d="M90755000 121225000
L90755000 121311724
" />
<path d="M92125000 121225000
L92125000 121920000
" />
<path d="M90755000 121225000
L89880000 121225000
" />
<path d="M89880000 121225000
L89880000 121525507
" />
<path d="M90755000 122528276
L90755000 122615000
" />
<path d="M89880000 122314493
L89880000 122615000
" />
<path d="M91440000 121225000
L92125000 121225000
" />
<path d="M90755000 122615000
L89880000 122615000
" />
<path d="M70435000 121225000
L70435000 121311724
" />
<path d="M71805000 121225000
L71805000 121920000
" />
<path d="M70435000 121225000
L69560000 121225000
" />
<path d="M69560000 121225000
L69560000 121525507
" />
<path d="M70435000 122528276
L70435000 122615000
" />
<path d="M69560000 122314493
L69560000 122615000
" />
<path d="M71120000 121225000
L71805000 121225000
" />
<path d="M70435000 122615000
L69560000 122615000
" />
<path d="M50115000 121225000
L50115000 121311724
" />
<path d="M51485000 121225000
L51485000 121920000
" />
<path d="M50115000 121225000
L49240000 121225000
" />
<path d="M49240000 121225000
L49240000 121525507
" />
<path d="M50115000 122528276
L50115000 122615000
" />
<path d="M49240000 122314493
L49240000 122615000
" />
<path d="M50800000 121225000
L51485000 121225000
" />
<path d="M50115000 122615000
L49240000 122615000
" />
<path d="M29795000 121225000
L29795000 121311724
" />
<path d="M31165000 121225000
L31165000 121920000
" />
<path d="M29795000 121225000
L28920000 121225000
" />
<path d="M28920000 121225000
L28920000 121525507
" />
<path d="M29795000 122528276
L29795000 122615000
" />
<path d="M28920000 122314493
L28920000 122615000
" />
<path d="M30480000 121225000
L31165000 121225000
" />
<path d="M29795000 122615000
L28920000 122615000
" />
<circle cx="144780000.000000" cy="83820000.000000" r="7600000.000000" /> 
<path d="M103820000 26315000
L105820000 26315000
" />
</g>
<g style="fill:#000000; fill-opacity:0.0; 
stroke:#000000; stroke-width:150000.000000; stroke-opacity:1; 
stroke-linecap:round; stroke-linejoin:round;">
<path d="M35605000 34268000
L34843000 34268000
" />
<path d="M36875000 34522000
L36621000 34776000
" />
<path d="M38145000 62208000
L38145000 39856000
" />
<path d="M137205000 39856000
L137205000 62208000
" />
<path d="M35605000 68558000
L35605000 67796000
" />
<path d="M136443000 62970000
L38907000 62970000
" />
<path d="M36875000 67542000
L138475000 67542000
" />
<path d="M38907000 62970000
L38145000 62208000
" />
<path d="M139745000 33506000
L139745000 34268000
" />
<path d="M138475000 34522000
L36875000 34522000
" />
<path d="M139745000 34268000
L140507000 34268000
" />
<path d="M36621000 67288000
L36875000 67542000
" />
<path d="M138729000 67288000
L138475000 67034000
" />
<path d="M36875000 67034000
L36621000 67288000
" />
<path d="M34843000 34268000
L34843000 67796000
" />
<path d="M139745000 33506000
L35605000 33506000
" />
</g>
<g style="fill:#000000; fill-opacity:0.0; 
stroke:#000000; stroke-width:120000.000000; stroke-opacity:1; 
stroke-linecap:round; stroke-linejoin:round;">
<path d="M148960000 26675000
L26680000 26675000
" />
</g>
<g style="fill:#000000; fill-opacity:0.0; 
stroke:#000000; stroke-width:150000.000000; stroke-opacity:1; 
stroke-linecap:round; stroke-linejoin:round;">
<path d="M38145000 39856000
L38907000 39094000
" />
<path d="M140507000 67796000
L139745000 67796000
" />
<path d="M137205000 62208000
L136443000 62970000
" />
<path d="M140507000 67796000
L140507000 34268000
" />
<path d="M138475000 67034000
L36875000 67034000
" />
<path d="M36875000 35030000
L138475000 35030000
" />
<path d="M35605000 68558000
L139745000 68558000
" />
<path d="M136443000 39094000
L137205000 39856000
" />
<path d="M35605000 33506000
L35605000 34268000
" />
</g>
<g style="fill:#000000; fill-opacity:0.0; 
stroke:#000000; stroke-width:120000.000000; stroke-opacity:1; 
stroke-linecap:round; stroke-linejoin:round;">
<path d="M26680000 26675000
L26680000 70955000
" />
<path d="M148960000 26675000
L148960000 70955000
" />
</g>
<g style="fill:#000000; fill-opacity:0.0; 
stroke:#000000; stroke-width:150000.000000; stroke-opacity:1; 
stroke-linecap:round; stroke-linejoin:round;">
<path d="M138475000 34522000
L138729000 34776000
" />
<path d="M138729000 34776000
L138475000 35030000
" />
</g>
<g style="fill:#000000; fill-opacity:0.0; 
stroke:#000000; stroke-width:120000.000000; stroke-opacity:1; 
stroke-linecap:round; stroke-linejoin:round;">
<path d="M26680000 70955000
L148960000 70955000
" />
</g>
<g style="fill:#000000; fill-opacity:0.0; 
stroke:#000000; stroke-width:150000.000000; stroke-opacity:1; 
stroke-linecap:round; stroke-linejoin:round;">
<path d="M35605000 67796000
L34843000 67796000
" />
<path d="M36621000 34776000
L36875000 35030000
" />
<path d="M138475000 67542000
L138729000 67288000
" />
<path d="M139745000 67796000
L139745000 68558000
" />
<path d="M38907000 39094000
L136443000 39094000
" />
</g>
<g style="fill:#000000; fill-opacity:0.0; 
stroke:#000000; stroke-width:120000.000000; stroke-opacity:1; 
stroke-linecap:round; stroke-linejoin:round;">
<path d="M29820000 78145000
L102820000 78145000
" />
<path d="M106960000 108785000
L106960000 72505000
" />
<path d="M26680000 108785000
L106960000 108785000
" />
<path d="M26680000 72505000
L26680000 108785000
" />
<path d="M98520660 98145000
L35020000 98145000
" />
<path d="M26690000 72505000
L27480000 72505000
" />
<path d="M34520280 97644320
L34520280 83645000
" />
<path d="M106960000 72505000
L27480000 72505000
" />
<path d="M102820000 78145000
L102820000 103145000
" />
<path d="M102820000 103145000
L29820000 103145000
" />
<path d="M99020000 83645000
L99020000 97645000
" />
<path d="M35020000 83145000
L98520000 83145000
" />
<path d="M33320000 72145000
L36320000 72145000
" />
<path d="M29820000 103145000
L29820000 78145000
" />
<path d="M35020660.000000 83143460.000000 A500380.000000 500380.000000 0.0 0 0 34520280.000000 83643840.000000" />
<path d="M34520280.000000 97644320.000000 A500380.000000 500380.000000 0.0 0 0 35020660.000000 98144700.000000" />
<path d="M98520660.004796 98144639.998401 A500340.000000 500340.000000 0.0 0 0 99021039.999600 97644320.000000" />
<path d="M99020000.000000 83645000.000000 A500000.000000 500000.000000 0.0 0 0 98520000.000000 83145000.000000" />
<path d="M115680000 72330000
L114030000 72330000
" />
<path d="M115680000 108010000
L115680000 72330000
" />
<path d="M112030000 72330000
L110380000 72330000
" />
<path d="M110380000 72330000
L110380000 108010000
" />
<path d="M110380000 108010000
L115680000 108010000
" />
<path d="M112030000.000000 72330000.000000 A1000000.000000 1000000.000000 0.0 0 0 114030000.000000 72330000.000000" />
</g>
<g style="fill:#000000; fill-opacity:0.0; 
stroke:#000000; stroke-width:150000.000000; stroke-opacity:1; 
stroke-linecap:round; stroke-linejoin:round;">
<path d="M129875000 105925000
L129875000 105625000
" />
<path d="M124125000 105925000
L129875000 105925000
" />
<path d="M124125000 97500000
L122525000 97500000
" />
<path d="M124125000 97275000
L129875000 97275000
" />
<path d="M129875000 97275000
L129875000 97575000
" />
<path d="M124125000 105925000
L124125000 105625000
" />
<path d="M124125000 97275000
L124125000 97500000
" />
</g>
<g style="fill:#000000; fill-opacity:0.0; 
stroke:#000000; stroke-width:120000.000000; stroke-opacity:1; 
stroke-linecap:round; stroke-linejoin:round;">
<path d="M151360000 28420000
L164100000 28420000
" />
<path d="M164100000 68660000
L164100000 28420000
" />
<path d="M153980000 69040000
L150980000 69040000
" />
<path d="M151360000 68660000
L151360000 28420000
" />
<path d="M151360000 68660000
L151360000 28420000
" />
<path d="M151360000 28420000
L164100000 28420000
" />
<path d="M164100000 68660000
L164100000 28420000
" />
<path d="M151360000 68660000
L164100000 68660000
" />
<path d="M150980000 69040000
L150980000 66040000
" />
<path d="M151360000 68660000
L164100000 68660000
" />
<g >
</g>
<g >
</g>
<g >
</g>
<g >
</g>
<g >
</g>
<g >
</g>
<g >
</g>
<g >
</g>
<g >
</g>
<g >
</g>
<g >
</g>
<g >
</g>
<g >
</g>
<g >
</g>
<g >
</g>
<g >
</g>
<g >
</g>
<g >
</g>
<g >
</g>
<g >
</g>
<g >
</g>
<g >
</g>
<g >
</g>
</g> 
</svg>
