%TF.GenerationSoftware,KiCad,Pcbnew,(6.0.7)*%
%TF.CreationDate,2022-11-30T09:47:03-03:00*%
%TF.ProjectId,E3_Gas_Leak_Safety_System,45335f47-6173-45f4-9c65-616b5f536166,rev?*%
%TF.SameCoordinates,Original*%
%TF.FileFunction,Soldermask,Bot*%
%TF.FilePolarity,Negative*%
%FSLAX46Y46*%
G04 Gerber Fmt 4.6, Leading zero omitted, Abs format (unit mm)*
G04 Created by KiCad (PCBNEW (6.0.7)) date 2022-11-30 09:47:03*
%MOMM*%
%LPD*%
G01*
G04 APERTURE LIST*
G04 Aperture macros list*
%AMRoundRect*
0 Rectangle with rounded corners*
0 $1 Rounding radius*
0 $2 $3 $4 $5 $6 $7 $8 $9 X,Y pos of 4 corners*
0 Add a 4 corners polygon primitive as box body*
4,1,4,$2,$3,$4,$5,$6,$7,$8,$9,$2,$3,0*
0 Add four circle primitives for the rounded corners*
1,1,$1+$1,$2,$3*
1,1,$1+$1,$4,$5*
1,1,$1+$1,$6,$7*
1,1,$1+$1,$8,$9*
0 Add four rect primitives between the rounded corners*
20,1,$1+$1,$2,$3,$4,$5,0*
20,1,$1+$1,$4,$5,$6,$7,0*
20,1,$1+$1,$6,$7,$8,$9,0*
20,1,$1+$1,$8,$9,$2,$3,0*%
G04 Aperture macros list end*
%ADD10R,2.000000X2.000000*%
%ADD11C,2.000000*%
%ADD12C,1.600000*%
%ADD13O,1.600000X1.600000*%
%ADD14R,3.500000X3.500000*%
%ADD15RoundRect,0.750000X-0.750000X-1.000000X0.750000X-1.000000X0.750000X1.000000X-0.750000X1.000000X0*%
%ADD16RoundRect,0.875000X-0.875000X-0.875000X0.875000X-0.875000X0.875000X0.875000X-0.875000X0.875000X0*%
%ADD17R,1.700000X1.700000*%
%ADD18O,1.700000X1.700000*%
%ADD19R,1.600000X1.600000*%
%ADD20R,2.000000X1.905000*%
%ADD21O,2.000000X1.905000*%
%ADD22R,1.500000X1.050000*%
%ADD23O,1.500000X1.050000*%
%ADD24C,1.500000*%
G04 APERTURE END LIST*
D10*
%TO.C,U3-MQ6*%
X136340000Y-34740000D03*
D11*
X134950000Y-38100000D03*
X136340000Y-41460000D03*
X143060000Y-41460000D03*
X144450000Y-38100000D03*
X143060000Y-34740000D03*
%TD*%
D12*
%TO.C,R1*%
X129540000Y-66040000D03*
D13*
X129540000Y-55880000D03*
%TD*%
D11*
%TO.C,C2*%
X77400000Y-46200000D03*
X77400000Y-51200000D03*
%TD*%
D14*
%TO.C,J1*%
X53500000Y-51942500D03*
D15*
X47500000Y-51942500D03*
D16*
X50500000Y-56642500D03*
%TD*%
D12*
%TO.C,R5*%
X158700000Y-98980000D03*
D13*
X158700000Y-88820000D03*
%TD*%
D12*
%TO.C,R4*%
X158400000Y-126580000D03*
D13*
X158400000Y-116420000D03*
%TD*%
D12*
%TO.C,R2*%
X63870000Y-30120000D03*
D13*
X63870000Y-40280000D03*
%TD*%
D17*
%TO.C,J2-IR1*%
X58790000Y-32675000D03*
D18*
X58790000Y-35215000D03*
X58790000Y-37755000D03*
%TD*%
D17*
%TO.C,J4-MQ7*%
X156210000Y-58420000D03*
D18*
X156210000Y-60960000D03*
X156210000Y-63500000D03*
X156210000Y-66040000D03*
%TD*%
D17*
%TO.C,J8-LCD_Source1*%
X97700000Y-151660000D03*
D18*
X95160000Y-151660000D03*
X92620000Y-151660000D03*
X90080000Y-151660000D03*
X87540000Y-151660000D03*
X85000000Y-151660000D03*
%TD*%
D19*
%TO.C,C3*%
X96700000Y-70100000D03*
D12*
X99200000Y-70100000D03*
%TD*%
D19*
%TO.C,C4*%
X96700000Y-62865000D03*
D12*
X99200000Y-62865000D03*
%TD*%
D13*
%TO.C,*%
X125730000Y-31750000D03*
%TD*%
D20*
%TO.C,U2*%
X104800000Y-52700000D03*
D21*
X104800000Y-55240000D03*
X104800000Y-57780000D03*
%TD*%
D11*
%TO.C,J11-Reset1*%
X174350000Y-112350000D03*
X167850000Y-112350000D03*
X167850000Y-116850000D03*
X174350000Y-116850000D03*
%TD*%
D17*
%TO.C,J7-LCD_Digital_Pins_1*%
X120500000Y-103400000D03*
D18*
X117960000Y-103400000D03*
X115420000Y-103400000D03*
X112880000Y-103400000D03*
X110340000Y-103400000D03*
X107800000Y-103400000D03*
X105260000Y-103400000D03*
X102720000Y-103400000D03*
%TD*%
D10*
%TO.C,BZ1*%
X167800000Y-73600000D03*
D11*
X167800000Y-83600000D03*
%TD*%
D22*
%TO.C,Q1*%
X130810000Y-85090000D03*
D23*
X130810000Y-83820000D03*
X130810000Y-82550000D03*
%TD*%
D24*
%TO.C,Y1*%
X109220000Y-71210000D03*
X109220000Y-76110000D03*
%TD*%
D17*
%TO.C,J5-MQ4*%
X168910000Y-38100000D03*
D18*
X168910000Y-40640000D03*
X168910000Y-43180000D03*
X168910000Y-45720000D03*
%TD*%
D11*
%TO.C,J10-Botton_On/Off1*%
X174250000Y-99550000D03*
X167750000Y-99550000D03*
X174250000Y-104050000D03*
X167750000Y-104050000D03*
%TD*%
D19*
%TO.C,U1*%
X71120000Y-59365000D03*
D13*
X71120000Y-61905000D03*
X71120000Y-64445000D03*
X71120000Y-66985000D03*
X71120000Y-69525000D03*
X71120000Y-72065000D03*
X71120000Y-74605000D03*
X71120000Y-77145000D03*
X71120000Y-79685000D03*
X71120000Y-82225000D03*
X71120000Y-84765000D03*
X71120000Y-87305000D03*
X71120000Y-89845000D03*
X71120000Y-92385000D03*
X78740000Y-92385000D03*
X78740000Y-89845000D03*
X78740000Y-87305000D03*
X78740000Y-84765000D03*
X78740000Y-82225000D03*
X78740000Y-79685000D03*
X78740000Y-77145000D03*
X78740000Y-74605000D03*
X78740000Y-72065000D03*
X78740000Y-69525000D03*
X78740000Y-66985000D03*
X78740000Y-64445000D03*
X78740000Y-61905000D03*
X78740000Y-59365000D03*
%TD*%
D17*
%TO.C,J3-IR2*%
X75100000Y-37740000D03*
D18*
X75100000Y-35200000D03*
X75100000Y-32660000D03*
%TD*%
D11*
%TO.C,C1*%
X68900000Y-46200000D03*
X68900000Y-51200000D03*
%TD*%
D17*
%TO.C,J6-LCD_Digital_Pins_1*%
X98590000Y-103400000D03*
D18*
X96050000Y-103400000D03*
X93510000Y-103400000D03*
X90970000Y-103400000D03*
X88430000Y-103400000D03*
X85890000Y-103400000D03*
X83350000Y-103400000D03*
X80810000Y-103400000D03*
%TD*%
D12*
%TO.C,R3*%
X80380000Y-30120000D03*
D13*
X80380000Y-40280000D03*
%TD*%
D17*
%TO.C,J9-LCD_Analog_Pins1*%
X120500000Y-151660000D03*
D18*
X117960000Y-151660000D03*
X115420000Y-151660000D03*
X112880000Y-151660000D03*
X110340000Y-151660000D03*
X107800000Y-151660000D03*
%TD*%
M02*
