%TF.GenerationSoftware,KiCad,Pcbnew,(6.0.7)*%
%TF.CreationDate,2022-11-30T14:42:28-03:00*%
%TF.ProjectId,E3_Gas_Leak_Safety_System,45335f47-6173-45f4-9c65-616b5f536166,rev?*%
%TF.SameCoordinates,Original*%
%TF.FileFunction,Copper,L2,Bot*%
%TF.FilePolarity,Positive*%
%FSLAX46Y46*%
G04 Gerber Fmt 4.6, Leading zero omitted, Abs format (unit mm)*
G04 Created by KiCad (PCBNEW (6.0.7)) date 2022-11-30 14:42:28*
%MOMM*%
%LPD*%
G01*
G04 APERTURE LIST*
G04 Aperture macros list*
%AMRoundRect*
0 Rectangle with rounded corners*
0 $1 Rounding radius*
0 $2 $3 $4 $5 $6 $7 $8 $9 X,Y pos of 4 corners*
0 Add a 4 corners polygon primitive as box body*
4,1,4,$2,$3,$4,$5,$6,$7,$8,$9,$2,$3,0*
0 Add four circle primitives for the rounded corners*
1,1,$1+$1,$2,$3*
1,1,$1+$1,$4,$5*
1,1,$1+$1,$6,$7*
1,1,$1+$1,$8,$9*
0 Add four rect primitives between the rounded corners*
20,1,$1+$1,$2,$3,$4,$5,0*
20,1,$1+$1,$4,$5,$6,$7,0*
20,1,$1+$1,$6,$7,$8,$9,0*
20,1,$1+$1,$8,$9,$2,$3,0*%
G04 Aperture macros list end*
%TA.AperFunction,ComponentPad*%
%ADD10R,2.000000X2.000000*%
%TD*%
%TA.AperFunction,ComponentPad*%
%ADD11C,2.000000*%
%TD*%
%TA.AperFunction,ComponentPad*%
%ADD12C,1.600000*%
%TD*%
%TA.AperFunction,ComponentPad*%
%ADD13O,1.600000X1.600000*%
%TD*%
%TA.AperFunction,ComponentPad*%
%ADD14R,3.500000X3.500000*%
%TD*%
%TA.AperFunction,ComponentPad*%
%ADD15RoundRect,0.750000X-0.750000X-1.000000X0.750000X-1.000000X0.750000X1.000000X-0.750000X1.000000X0*%
%TD*%
%TA.AperFunction,ComponentPad*%
%ADD16RoundRect,0.875000X-0.875000X-0.875000X0.875000X-0.875000X0.875000X0.875000X-0.875000X0.875000X0*%
%TD*%
%TA.AperFunction,ComponentPad*%
%ADD17R,1.700000X1.700000*%
%TD*%
%TA.AperFunction,ComponentPad*%
%ADD18O,1.700000X1.700000*%
%TD*%
%TA.AperFunction,ComponentPad*%
%ADD19R,1.600000X1.600000*%
%TD*%
%TA.AperFunction,ComponentPad*%
%ADD20R,2.000000X1.905000*%
%TD*%
%TA.AperFunction,ComponentPad*%
%ADD21O,2.000000X1.905000*%
%TD*%
%TA.AperFunction,ComponentPad*%
%ADD22R,1.500000X1.050000*%
%TD*%
%TA.AperFunction,ComponentPad*%
%ADD23O,1.500000X1.050000*%
%TD*%
%TA.AperFunction,ComponentPad*%
%ADD24C,1.500000*%
%TD*%
%TA.AperFunction,Conductor*%
%ADD25C,1.000000*%
%TD*%
%TA.AperFunction,Conductor*%
%ADD26C,1.500000*%
%TD*%
%TA.AperFunction,Conductor*%
%ADD27C,0.250000*%
%TD*%
G04 APERTURE END LIST*
D10*
%TO.P,BZ1,1,-*%
%TO.N,VCC*%
X200270000Y-78900000D03*
D11*
%TO.P,BZ1,2,+*%
%TO.N,Net-(BZ1-Pad2)*%
X200270000Y-86500000D03*
%TD*%
D10*
%TO.P,U3-MQ6,1,B1*%
%TO.N,MQ6_AI_In*%
X168810000Y-40040000D03*
D11*
%TO.P,U3-MQ6,2,VH+*%
%TO.N,VCC*%
X167420000Y-43400000D03*
%TO.P,U3-MQ6,3,B2*%
%TO.N,Net-(R3-Pad2)*%
X168810000Y-46760000D03*
%TO.P,U3-MQ6,4,A2*%
%TO.N,VCC*%
X175530000Y-46760000D03*
%TO.P,U3-MQ6,5,VH-*%
%TO.N,GND*%
X176920000Y-43400000D03*
%TO.P,U3-MQ6,6,A1*%
%TO.N,VCC*%
X175530000Y-40040000D03*
%TD*%
D12*
%TO.P,R1,1*%
%TO.N,Botao_ON{slash}OFF_DI_In*%
X162010000Y-71340000D03*
D13*
%TO.P,R1,2*%
%TO.N,GND*%
X162010000Y-61180000D03*
%TD*%
D11*
%TO.P,C2,1*%
%TO.N,GND*%
X109870000Y-51500000D03*
%TO.P,C2,2*%
%TO.N,XTAL1*%
X109870000Y-56500000D03*
%TD*%
D14*
%TO.P,J1,1*%
%TO.N,Net-(C3-Pad1)*%
X85970000Y-57242500D03*
D15*
%TO.P,J1,2*%
%TO.N,GND*%
X79970000Y-57242500D03*
D16*
%TO.P,J1,3*%
%TO.N,N/C*%
X82970000Y-61942500D03*
%TD*%
D12*
%TO.P,R5,1*%
%TO.N,VCC*%
X191170000Y-104280000D03*
D13*
%TO.P,R5,2*%
%TO.N,IR2_In*%
X191170000Y-94120000D03*
%TD*%
D12*
%TO.P,R4,1*%
%TO.N,VCC*%
X190870000Y-131880000D03*
D13*
%TO.P,R4,2*%
%TO.N,IR1_In*%
X190870000Y-121720000D03*
%TD*%
D12*
%TO.P,R2,1*%
%TO.N,unconnected-(R2-Pad1)*%
X96340000Y-35420000D03*
D13*
%TO.P,R2,2*%
%TO.N,VCC*%
X96340000Y-45580000D03*
%TD*%
D17*
%TO.P,J2-IR1,1,Pin_1*%
%TO.N,VCC*%
X91260000Y-37975000D03*
D18*
%TO.P,J2-IR1,2,Pin_2*%
%TO.N,GND*%
X91260000Y-40515000D03*
%TO.P,J2-IR1,3,Pin_3*%
%TO.N,IR1_In*%
X91260000Y-43055000D03*
%TD*%
D17*
%TO.P,J4-MQ7,1,Pin_1*%
%TO.N,unconnected-(J4-MQ7-Pad1)*%
X188680000Y-63720000D03*
D18*
%TO.P,J4-MQ7,2,Pin_2*%
%TO.N,MQ7_DI_In*%
X188680000Y-66260000D03*
%TO.P,J4-MQ7,3,Pin_3*%
%TO.N,GND*%
X188680000Y-68800000D03*
%TO.P,J4-MQ7,4,Pin_4*%
%TO.N,VCC*%
X188680000Y-71340000D03*
%TD*%
D17*
%TO.P,J8-LCD_Source1,1,Pin_1*%
%TO.N,unconnected-(J8-LCD_Source1-Pad1)*%
X130170000Y-156960000D03*
D18*
%TO.P,J8-LCD_Source1,2,Pin_2*%
%TO.N,unconnected-(J8-LCD_Source1-Pad2)*%
X127630000Y-156960000D03*
%TO.P,J8-LCD_Source1,3,Pin_3*%
%TO.N,VCC*%
X125090000Y-156960000D03*
%TO.P,J8-LCD_Source1,4,Pin_4*%
%TO.N,GND*%
X122550000Y-156960000D03*
%TO.P,J8-LCD_Source1,5,Pin_5*%
%TO.N,unconnected-(J8-LCD_Source1-Pad5)*%
X120010000Y-156960000D03*
%TO.P,J8-LCD_Source1,6,Pin_6*%
%TO.N,unconnected-(J8-LCD_Source1-Pad6)*%
X117470000Y-156960000D03*
%TD*%
D19*
%TO.P,C3,1*%
%TO.N,Net-(C3-Pad1)*%
X129170000Y-75400000D03*
D12*
%TO.P,C3,2*%
%TO.N,GND*%
X131670000Y-75400000D03*
%TD*%
D19*
%TO.P,C4,1*%
%TO.N,VCC*%
X129170000Y-68165000D03*
D12*
%TO.P,C4,2*%
%TO.N,GND*%
X131670000Y-68165000D03*
%TD*%
D13*
%TO.P,,80,PC4*%
%TO.N,MQ4_DI_In*%
X158200000Y-37050000D03*
%TD*%
D20*
%TO.P,U2,1,VI*%
%TO.N,Net-(C3-Pad1)*%
X137270000Y-58000000D03*
D21*
%TO.P,U2,2,GND*%
%TO.N,GND*%
X137270000Y-60540000D03*
%TO.P,U2,3,VO*%
%TO.N,VCC*%
X137270000Y-63080000D03*
%TD*%
D11*
%TO.P,J11-Reset1,1,Pin_1*%
%TO.N,GND*%
X206820000Y-117650000D03*
X200320000Y-117650000D03*
%TO.P,J11-Reset1,2,Pin_2*%
%TO.N,unconnected-(J11-Reset1-Pad2)*%
X200320000Y-122150000D03*
X206820000Y-122150000D03*
%TD*%
D17*
%TO.P,J7-LCD_Digital_Pins_1,1,Pin_1*%
%TO.N,BIT4_LCD_DI_Out*%
X152970000Y-108700000D03*
D18*
%TO.P,J7-LCD_Digital_Pins_1,2,Pin_2*%
%TO.N,BIT3_LCD_DI_Out*%
X150430000Y-108700000D03*
%TO.P,J7-LCD_Digital_Pins_1,3,Pin_3*%
%TO.N,BIT2_LCD_DI_Out*%
X147890000Y-108700000D03*
%TO.P,J7-LCD_Digital_Pins_1,4,Pin_4*%
%TO.N,BIT1_LCD_DI_Out*%
X145350000Y-108700000D03*
%TO.P,J7-LCD_Digital_Pins_1,5,Pin_5*%
%TO.N,unconnected-(J7-LCD_Digital_Pins_1-Pad5)*%
X142810000Y-108700000D03*
%TO.P,J7-LCD_Digital_Pins_1,6,Pin_6*%
%TO.N,unconnected-(J7-LCD_Digital_Pins_1-Pad6)*%
X140270000Y-108700000D03*
%TO.P,J7-LCD_Digital_Pins_1,7,Pin_7*%
%TO.N,unconnected-(J7-LCD_Digital_Pins_1-Pad7)*%
X137730000Y-108700000D03*
%TO.P,J7-LCD_Digital_Pins_1,8,Pin_8*%
%TO.N,unconnected-(J7-LCD_Digital_Pins_1-Pad8)*%
X135190000Y-108700000D03*
%TD*%
D22*
%TO.P,Q1,1,S*%
%TO.N,GND*%
X163280000Y-90390000D03*
D23*
%TO.P,Q1,2,G*%
%TO.N,Buzzer_DI_Out*%
X163280000Y-89120000D03*
%TO.P,Q1,3,D*%
%TO.N,Net-(BZ1-Pad2)*%
X163280000Y-87850000D03*
%TD*%
D24*
%TO.P,Y1,1,1*%
%TO.N,XTAL1*%
X141690000Y-76510000D03*
%TO.P,Y1,2,2*%
%TO.N,XTAL2*%
X141690000Y-81410000D03*
%TD*%
D17*
%TO.P,J5-MQ4,1,Pin_1*%
%TO.N,unconnected-(J5-MQ4-Pad1)*%
X201380000Y-43400000D03*
D18*
%TO.P,J5-MQ4,2,Pin_2*%
%TO.N,MQ4_DI_In*%
X201380000Y-45940000D03*
%TO.P,J5-MQ4,3,Pin_3*%
%TO.N,GND*%
X201380000Y-48480000D03*
%TO.P,J5-MQ4,4,Pin_4*%
%TO.N,VCC*%
X201380000Y-51020000D03*
%TD*%
D11*
%TO.P,J10-Botton_On/Off1,1,Pin_1*%
%TO.N,VCC*%
X206720000Y-104850000D03*
X200220000Y-104850000D03*
%TO.P,J10-Botton_On/Off1,2,Pin_2*%
%TO.N,unconnected-(J10-Botton_On/Off1-Pad2)*%
X206720000Y-109350000D03*
X200220000Y-109350000D03*
%TD*%
D19*
%TO.P,U1,1,~{RESET}/PC6*%
%TO.N,Reset_DI_In*%
X103590000Y-64665000D03*
D13*
%TO.P,U1,2,PD0*%
%TO.N,unconnected-(U1-Pad2)*%
X103590000Y-67205000D03*
%TO.P,U1,3,PD1*%
%TO.N,unconnected-(U1-Pad3)*%
X103590000Y-69745000D03*
%TO.P,U1,4,PD2*%
%TO.N,IR1_In*%
X103590000Y-72285000D03*
%TO.P,U1,5,PD3*%
%TO.N,IR2_In*%
X103590000Y-74825000D03*
%TO.P,U1,6,PD4*%
%TO.N,Botao_ON{slash}OFF_DI_In*%
X103590000Y-77365000D03*
%TO.P,U1,7,VCC*%
%TO.N,VCC*%
X103590000Y-79905000D03*
%TO.P,U1,8,GND*%
%TO.N,GND*%
X103590000Y-82445000D03*
%TO.P,U1,9,XTAL1/PB6*%
%TO.N,XTAL1*%
X103590000Y-84985000D03*
%TO.P,U1,10,XTAL2/PB7*%
%TO.N,XTAL2*%
X103590000Y-87525000D03*
%TO.P,U1,11,PD5*%
%TO.N,RS_LCD_Out*%
X103590000Y-90065000D03*
%TO.P,U1,12,PD6*%
%TO.N,Enable_LCD_Out*%
X103590000Y-92605000D03*
%TO.P,U1,13,PD7*%
%TO.N,Ctrl_BackLight_LDC_Out*%
X103590000Y-95145000D03*
%TO.P,U1,14,PB0*%
%TO.N,unconnected-(U1-Pad14)*%
X103590000Y-97685000D03*
%TO.P,U1,15,PB1*%
%TO.N,Buzzer_DI_Out*%
X111210000Y-97685000D03*
%TO.P,U1,16,PB2*%
%TO.N,BIT1_LCD_DI_Out*%
X111210000Y-95145000D03*
%TO.P,U1,17,PB3*%
%TO.N,BIT2_LCD_DI_Out*%
X111210000Y-92605000D03*
%TO.P,U1,18,PB4*%
%TO.N,BIT3_LCD_DI_Out*%
X111210000Y-90065000D03*
%TO.P,U1,19,PB5*%
%TO.N,BIT4_LCD_DI_Out*%
X111210000Y-87525000D03*
%TO.P,U1,20,AVCC*%
%TO.N,VCC*%
X111210000Y-84985000D03*
%TO.P,U1,21,AREF*%
%TO.N,GND*%
X111210000Y-82445000D03*
%TO.P,U1,22,GND*%
X111210000Y-79905000D03*
%TO.P,U1,23,PC0*%
%TO.N,MQ6_AI_In*%
X111210000Y-77365000D03*
%TO.P,U1,24,PC1*%
%TO.N,MQ7_DI_In*%
X111210000Y-74825000D03*
%TO.P,U1,25,PC2*%
%TO.N,MQ4_DI_In*%
X111210000Y-72285000D03*
%TO.P,U1,26,PC3*%
%TO.N,LCD_AI_In*%
X111210000Y-69745000D03*
%TO.P,U1,27,PC4*%
%TO.N,unconnected-(U1-Pad27)*%
X111210000Y-67205000D03*
%TO.P,U1,28,PC5*%
%TO.N,unconnected-(U1-Pad28)*%
X111210000Y-64665000D03*
%TD*%
D17*
%TO.P,J3-IR2,1,Pin_1*%
%TO.N,VCC*%
X107570000Y-43040000D03*
D18*
%TO.P,J3-IR2,2,Pin_2*%
%TO.N,GND*%
X107570000Y-40500000D03*
%TO.P,J3-IR2,3,Pin_3*%
%TO.N,IR2_In*%
X107570000Y-37960000D03*
%TD*%
D11*
%TO.P,C1,1*%
%TO.N,GND*%
X101370000Y-51500000D03*
%TO.P,C1,2*%
%TO.N,XTAL2*%
X101370000Y-56500000D03*
%TD*%
D17*
%TO.P,J6-LCD_Digital_Pins_1,1,Pin_1*%
%TO.N,unconnected-(J6-LCD_Digital_Pins_1-Pad1)*%
X131060000Y-108700000D03*
D18*
%TO.P,J6-LCD_Digital_Pins_1,2,Pin_2*%
%TO.N,GND*%
X128520000Y-108700000D03*
%TO.P,J6-LCD_Digital_Pins_1,3,Pin_3*%
%TO.N,unconnected-(J6-LCD_Digital_Pins_1-Pad3)*%
X125980000Y-108700000D03*
%TO.P,J6-LCD_Digital_Pins_1,4,Pin_4*%
%TO.N,unconnected-(J6-LCD_Digital_Pins_1-Pad4)*%
X123440000Y-108700000D03*
%TO.P,J6-LCD_Digital_Pins_1,5,Pin_5*%
%TO.N,unconnected-(J6-LCD_Digital_Pins_1-Pad5)*%
X120900000Y-108700000D03*
%TO.P,J6-LCD_Digital_Pins_1,6,Pin_6*%
%TO.N,Ctrl_BackLight_LDC_Out*%
X118360000Y-108700000D03*
%TO.P,J6-LCD_Digital_Pins_1,7,Pin_7*%
%TO.N,Enable_LCD_Out*%
X115820000Y-108700000D03*
%TO.P,J6-LCD_Digital_Pins_1,8,Pin_8*%
%TO.N,RS_LCD_Out*%
X113280000Y-108700000D03*
%TD*%
D12*
%TO.P,R3,1*%
%TO.N,GND*%
X112850000Y-35420000D03*
D13*
%TO.P,R3,2*%
%TO.N,Net-(R3-Pad2)*%
X112850000Y-45580000D03*
%TD*%
D17*
%TO.P,J9-LCD_Analog_Pins1,1,Pin_1*%
%TO.N,LCD_AI_In*%
X152970000Y-156960000D03*
D18*
%TO.P,J9-LCD_Analog_Pins1,2,Pin_2*%
%TO.N,unconnected-(J9-LCD_Analog_Pins1-Pad2)*%
X150430000Y-156960000D03*
%TO.P,J9-LCD_Analog_Pins1,3,Pin_3*%
%TO.N,unconnected-(J9-LCD_Analog_Pins1-Pad3)*%
X147890000Y-156960000D03*
%TO.P,J9-LCD_Analog_Pins1,4,Pin_4*%
%TO.N,unconnected-(J9-LCD_Analog_Pins1-Pad4)*%
X145350000Y-156960000D03*
%TO.P,J9-LCD_Analog_Pins1,5,Pin_5*%
%TO.N,unconnected-(J9-LCD_Analog_Pins1-Pad5)*%
X142810000Y-156960000D03*
%TO.P,J9-LCD_Analog_Pins1,6,Pin_6*%
%TO.N,unconnected-(J9-LCD_Analog_Pins1-Pad6)*%
X140270000Y-156960000D03*
%TD*%
D25*
%TO.N,Net-(BZ1-Pad2)*%
X188455000Y-86500000D02*
X200270000Y-86500000D01*
X163280000Y-87850000D02*
X187105000Y-87850000D01*
X187105000Y-87850000D02*
X188455000Y-86500000D01*
D26*
%TO.N,VCC*%
X124090000Y-73880000D02*
X126690000Y-73880000D01*
X126690000Y-73880000D02*
X129170000Y-71400000D01*
X105970000Y-103600000D02*
X99870000Y-103600000D01*
X99870000Y-83625000D02*
X103590000Y-79905000D01*
X112985000Y-84985000D02*
X124090000Y-73880000D01*
X107770000Y-86400000D02*
X107770000Y-101800000D01*
X107770000Y-101800000D02*
X105970000Y-103600000D01*
X99870000Y-103600000D02*
X99870000Y-83625000D01*
X111210000Y-84985000D02*
X112985000Y-84985000D01*
X109185000Y-84985000D02*
X107770000Y-86400000D01*
X129170000Y-71400000D02*
X129170000Y-68165000D01*
X111210000Y-84985000D02*
X109185000Y-84985000D01*
%TO.N,GND*%
X209070000Y-115400000D02*
X209070000Y-50700000D01*
X147470000Y-63380000D02*
X144630000Y-60540000D01*
X123910000Y-31970000D02*
X200110000Y-31970000D01*
X111210000Y-79905000D02*
X112765000Y-79905000D01*
X91275000Y-40500000D02*
X91260000Y-40515000D01*
X84470000Y-35100000D02*
X85900000Y-33670000D01*
X139910000Y-60540000D02*
X139910000Y-60460000D01*
X193760000Y-64922081D02*
X193760000Y-53560000D01*
X149300000Y-89110000D02*
X151850000Y-91660000D01*
X147340000Y-63250000D02*
X147340000Y-63230000D01*
X152570000Y-114700000D02*
X151570000Y-113700000D01*
X188680000Y-68800000D02*
X189882081Y-68800000D01*
X130870000Y-113700000D02*
X128520000Y-111350000D01*
X162010000Y-61180000D02*
X164550000Y-61180000D01*
X112850000Y-35420000D02*
X120460000Y-35420000D01*
X98440000Y-33670000D02*
X100190000Y-35420000D01*
X200110000Y-31970000D02*
X209070000Y-40930000D01*
X151850000Y-91660000D02*
X162010000Y-91660000D01*
X132540000Y-71930000D02*
X131670000Y-71060000D01*
X202650000Y-48480000D02*
X201380000Y-48480000D01*
X139910000Y-60540000D02*
X137270000Y-60540000D01*
X149410000Y-61180000D02*
X162010000Y-61180000D01*
X111210000Y-82445000D02*
X103590000Y-82445000D01*
X144630000Y-60540000D02*
X139910000Y-60540000D01*
X209070000Y-40930000D02*
X209070000Y-50700000D01*
X200320000Y-117650000D02*
X206820000Y-117650000D01*
X84470000Y-38400000D02*
X84470000Y-35100000D01*
X155520000Y-117650000D02*
X152570000Y-114700000D01*
X128520000Y-117950000D02*
X128520000Y-108700000D01*
D27*
X163505000Y-90390000D02*
X163280000Y-90390000D01*
D26*
X172170000Y-68800000D02*
X188680000Y-68800000D01*
X209070000Y-50700000D02*
X206850000Y-48480000D01*
X147340000Y-63250000D02*
X149410000Y-61180000D01*
X127230000Y-60540000D02*
X137270000Y-60540000D01*
X131670000Y-72800000D02*
X131670000Y-75400000D01*
X122550000Y-156960000D02*
X122550000Y-123920000D01*
X86585000Y-40515000D02*
X82370000Y-44730000D01*
X176920000Y-43400000D02*
X193760000Y-43400000D01*
X193760000Y-53560000D02*
X198840000Y-48480000D01*
X198840000Y-48480000D02*
X201380000Y-48480000D01*
X147470000Y-71700000D02*
X147470000Y-63380000D01*
X151570000Y-113700000D02*
X130870000Y-113700000D01*
X149300000Y-73890000D02*
X149300000Y-89110000D01*
X110470000Y-40500000D02*
X107570000Y-40500000D01*
X111210000Y-82445000D02*
X111210000Y-79905000D01*
X109870000Y-41100000D02*
X109870000Y-51500000D01*
X109870000Y-51500000D02*
X101370000Y-51500000D01*
X162010000Y-91660000D02*
X163280000Y-90390000D01*
X206850000Y-48480000D02*
X202650000Y-48480000D01*
X206820000Y-117650000D02*
X209070000Y-115400000D01*
X193760000Y-43400000D02*
X198840000Y-48480000D01*
X110470000Y-40500000D02*
X109870000Y-41100000D01*
X147340000Y-71930000D02*
X149300000Y-73890000D01*
X128520000Y-111350000D02*
X128520000Y-108700000D01*
X100190000Y-35420000D02*
X112850000Y-35420000D01*
X189882081Y-68800000D02*
X193760000Y-64922081D01*
X119770000Y-72900000D02*
X119770000Y-68000000D01*
X86585000Y-40515000D02*
X84470000Y-38400000D01*
X112850000Y-35420000D02*
X112850000Y-38120000D01*
X132540000Y-71930000D02*
X131670000Y-72800000D01*
X82370000Y-44730000D02*
X82370000Y-54842500D01*
X200320000Y-117650000D02*
X155520000Y-117650000D01*
X164550000Y-61180000D02*
X172170000Y-68800000D01*
X112765000Y-79905000D02*
X119770000Y-72900000D01*
X86585000Y-40515000D02*
X91260000Y-40515000D01*
X82370000Y-54842500D02*
X79970000Y-57242500D01*
X122550000Y-123920000D02*
X128520000Y-117950000D01*
X131670000Y-71060000D02*
X131670000Y-68165000D01*
X120460000Y-35420000D02*
X123910000Y-31970000D01*
X132540000Y-71930000D02*
X147340000Y-71930000D01*
X119770000Y-68000000D02*
X127230000Y-60540000D01*
X85900000Y-33670000D02*
X98440000Y-33670000D01*
X112850000Y-38120000D02*
X110470000Y-40500000D01*
D25*
%TO.N,IR1_In*%
X181470000Y-125600000D02*
X185350000Y-121720000D01*
X92955000Y-72285000D02*
X91260000Y-70590000D01*
X91370000Y-149500000D02*
X102870000Y-161000000D01*
X91370000Y-75500000D02*
X91370000Y-149500000D01*
X94585000Y-72285000D02*
X91370000Y-75500000D01*
X174870000Y-161000000D02*
X181470000Y-154400000D01*
X102870000Y-161000000D02*
X174870000Y-161000000D01*
X103590000Y-72285000D02*
X94585000Y-72285000D01*
X185350000Y-121720000D02*
X190870000Y-121720000D01*
X181470000Y-154400000D02*
X181470000Y-125600000D01*
X103590000Y-72285000D02*
X92955000Y-72285000D01*
X91260000Y-43055000D02*
X91260000Y-70590000D01*
%TO.N,IR2_In*%
X170970000Y-102000000D02*
X178850000Y-94120000D01*
X103590000Y-74825000D02*
X97445000Y-74825000D01*
X105770000Y-63304164D02*
X99670000Y-57204164D01*
X100045000Y-45485000D02*
X107570000Y-37960000D01*
X100045000Y-50420836D02*
X100045000Y-45485000D01*
X105770000Y-72645000D02*
X105770000Y-63304164D01*
X109370000Y-105900000D02*
X113270000Y-102000000D01*
X96770000Y-105900000D02*
X109370000Y-105900000D01*
X97445000Y-74825000D02*
X94170000Y-78100000D01*
X178850000Y-94120000D02*
X191170000Y-94120000D01*
X113270000Y-102000000D02*
X170970000Y-102000000D01*
X103590000Y-74825000D02*
X105770000Y-72645000D01*
X94170000Y-103300000D02*
X96770000Y-105900000D01*
X99670000Y-57204164D02*
X99670000Y-50795836D01*
X94170000Y-78100000D02*
X94170000Y-103300000D01*
X99670000Y-50795836D02*
X100045000Y-50420836D01*
%TO.N,MQ7_DI_In*%
X107270000Y-60100000D02*
X108770000Y-58600000D01*
X175980000Y-66260000D02*
X188680000Y-66260000D01*
X107270000Y-73000000D02*
X107270000Y-60100000D01*
X111210000Y-74825000D02*
X109095000Y-74825000D01*
X112370000Y-56700000D02*
X112370000Y-48300000D01*
X173440000Y-63720000D02*
X175980000Y-66260000D01*
X112370000Y-48300000D02*
X126160000Y-34510000D01*
X109095000Y-74825000D02*
X107270000Y-73000000D01*
X110470000Y-58600000D02*
X112370000Y-56700000D01*
X108770000Y-58600000D02*
X110470000Y-58600000D01*
X126160000Y-34510000D02*
X171535000Y-34510000D01*
X171535000Y-34510000D02*
X173440000Y-36415000D01*
X173440000Y-36415000D02*
X173440000Y-63720000D01*
%TO.N,MQ4_DI_In*%
X108870000Y-71900000D02*
X109255000Y-72285000D01*
X108870000Y-63600000D02*
X108870000Y-71900000D01*
X115470000Y-57000000D02*
X108870000Y-63600000D01*
X130260000Y-37050000D02*
X158200000Y-37050000D01*
X109255000Y-72285000D02*
X111210000Y-72285000D01*
X115470000Y-51840000D02*
X115470000Y-57000000D01*
X115470000Y-51840000D02*
X130260000Y-37050000D01*
D26*
%TO.N,Botao_ON{slash}OFF_DI_In*%
X162000000Y-71350000D02*
X162010000Y-71340000D01*
%TO.N,MQ6_AI_In*%
X137470000Y-53400000D02*
X124370000Y-53400000D01*
X139270000Y-42250000D02*
X141480000Y-40040000D01*
X139270000Y-51600000D02*
X137470000Y-53400000D01*
X115470000Y-62300000D02*
X115470000Y-73105000D01*
X141480000Y-40040000D02*
X168810000Y-40040000D01*
X139270000Y-42250000D02*
X139270000Y-51600000D01*
X115470000Y-73105000D02*
X111210000Y-77365000D01*
X124370000Y-53400000D02*
X115470000Y-62300000D01*
%TD*%
M02*
