%TF.GenerationSoftware,KiCad,Pcbnew,(6.0.7)*%
%TF.CreationDate,2022-11-30T09:47:03-03:00*%
%TF.ProjectId,E3_Gas_Leak_Safety_System,45335f47-6173-45f4-9c65-616b5f536166,rev?*%
%TF.SameCoordinates,Original*%
%TF.FileFunction,Copper,L2,Bot*%
%TF.FilePolarity,Positive*%
%FSLAX46Y46*%
G04 Gerber Fmt 4.6, Leading zero omitted, Abs format (unit mm)*
G04 Created by KiCad (PCBNEW (6.0.7)) date 2022-11-30 09:47:03*
%MOMM*%
%LPD*%
G01*
G04 APERTURE LIST*
G04 Aperture macros list*
%AMRoundRect*
0 Rectangle with rounded corners*
0 $1 Rounding radius*
0 $2 $3 $4 $5 $6 $7 $8 $9 X,Y pos of 4 corners*
0 Add a 4 corners polygon primitive as box body*
4,1,4,$2,$3,$4,$5,$6,$7,$8,$9,$2,$3,0*
0 Add four circle primitives for the rounded corners*
1,1,$1+$1,$2,$3*
1,1,$1+$1,$4,$5*
1,1,$1+$1,$6,$7*
1,1,$1+$1,$8,$9*
0 Add four rect primitives between the rounded corners*
20,1,$1+$1,$2,$3,$4,$5,0*
20,1,$1+$1,$4,$5,$6,$7,0*
20,1,$1+$1,$6,$7,$8,$9,0*
20,1,$1+$1,$8,$9,$2,$3,0*%
G04 Aperture macros list end*
%TA.AperFunction,ComponentPad*%
%ADD10R,2.000000X2.000000*%
%TD*%
%TA.AperFunction,ComponentPad*%
%ADD11C,2.000000*%
%TD*%
%TA.AperFunction,ComponentPad*%
%ADD12C,1.600000*%
%TD*%
%TA.AperFunction,ComponentPad*%
%ADD13O,1.600000X1.600000*%
%TD*%
%TA.AperFunction,ComponentPad*%
%ADD14R,3.500000X3.500000*%
%TD*%
%TA.AperFunction,ComponentPad*%
%ADD15RoundRect,0.750000X-0.750000X-1.000000X0.750000X-1.000000X0.750000X1.000000X-0.750000X1.000000X0*%
%TD*%
%TA.AperFunction,ComponentPad*%
%ADD16RoundRect,0.875000X-0.875000X-0.875000X0.875000X-0.875000X0.875000X0.875000X-0.875000X0.875000X0*%
%TD*%
%TA.AperFunction,ComponentPad*%
%ADD17R,1.700000X1.700000*%
%TD*%
%TA.AperFunction,ComponentPad*%
%ADD18O,1.700000X1.700000*%
%TD*%
%TA.AperFunction,ComponentPad*%
%ADD19R,1.600000X1.600000*%
%TD*%
%TA.AperFunction,ComponentPad*%
%ADD20R,2.000000X1.905000*%
%TD*%
%TA.AperFunction,ComponentPad*%
%ADD21O,2.000000X1.905000*%
%TD*%
%TA.AperFunction,ComponentPad*%
%ADD22R,1.500000X1.050000*%
%TD*%
%TA.AperFunction,ComponentPad*%
%ADD23O,1.500000X1.050000*%
%TD*%
%TA.AperFunction,ComponentPad*%
%ADD24C,1.500000*%
%TD*%
%TA.AperFunction,Conductor*%
%ADD25C,1.500000*%
%TD*%
%TA.AperFunction,Conductor*%
%ADD26C,1.000000*%
%TD*%
%TA.AperFunction,Conductor*%
%ADD27C,0.250000*%
%TD*%
G04 APERTURE END LIST*
D10*
%TO.P,U3-MQ6,1,B1*%
%TO.N,MQ6_AI_In*%
X136340000Y-34740000D03*
D11*
%TO.P,U3-MQ6,2,VH+*%
%TO.N,VCC*%
X134950000Y-38100000D03*
%TO.P,U3-MQ6,3,B2*%
%TO.N,Net-(R3-Pad2)*%
X136340000Y-41460000D03*
%TO.P,U3-MQ6,4,A2*%
%TO.N,VCC*%
X143060000Y-41460000D03*
%TO.P,U3-MQ6,5,VH-*%
%TO.N,GND*%
X144450000Y-38100000D03*
%TO.P,U3-MQ6,6,A1*%
%TO.N,VCC*%
X143060000Y-34740000D03*
%TD*%
D12*
%TO.P,R1,1*%
%TO.N,Botao_ON{slash}OFF_DI_In*%
X129540000Y-66040000D03*
D13*
%TO.P,R1,2*%
%TO.N,GND*%
X129540000Y-55880000D03*
%TD*%
D11*
%TO.P,C2,1*%
%TO.N,GND*%
X77400000Y-46200000D03*
%TO.P,C2,2*%
%TO.N,XTAL1*%
X77400000Y-51200000D03*
%TD*%
D14*
%TO.P,J1,1*%
%TO.N,Net-(C3-Pad1)*%
X53500000Y-51942500D03*
D15*
%TO.P,J1,2*%
%TO.N,GND*%
X47500000Y-51942500D03*
D16*
%TO.P,J1,3*%
%TO.N,N/C*%
X50500000Y-56642500D03*
%TD*%
D12*
%TO.P,R5,1*%
%TO.N,VCC*%
X158700000Y-98980000D03*
D13*
%TO.P,R5,2*%
%TO.N,IR2_In*%
X158700000Y-88820000D03*
%TD*%
D12*
%TO.P,R4,1*%
%TO.N,VCC*%
X158400000Y-126580000D03*
D13*
%TO.P,R4,2*%
%TO.N,IR1_In*%
X158400000Y-116420000D03*
%TD*%
D12*
%TO.P,R2,1*%
%TO.N,unconnected-(R2-Pad1)*%
X63870000Y-30120000D03*
D13*
%TO.P,R2,2*%
%TO.N,VCC*%
X63870000Y-40280000D03*
%TD*%
D17*
%TO.P,J2-IR1,1,Pin_1*%
%TO.N,VCC*%
X58790000Y-32675000D03*
D18*
%TO.P,J2-IR1,2,Pin_2*%
%TO.N,GND*%
X58790000Y-35215000D03*
%TO.P,J2-IR1,3,Pin_3*%
%TO.N,IR1_In*%
X58790000Y-37755000D03*
%TD*%
D17*
%TO.P,J4-MQ7,1,Pin_1*%
%TO.N,unconnected-(J4-MQ7-Pad1)*%
X156210000Y-58420000D03*
D18*
%TO.P,J4-MQ7,2,Pin_2*%
%TO.N,MQ7_DI_In*%
X156210000Y-60960000D03*
%TO.P,J4-MQ7,3,Pin_3*%
%TO.N,GND*%
X156210000Y-63500000D03*
%TO.P,J4-MQ7,4,Pin_4*%
%TO.N,VCC*%
X156210000Y-66040000D03*
%TD*%
D17*
%TO.P,J8-LCD_Source1,1,Pin_1*%
%TO.N,unconnected-(J8-LCD_Source1-Pad1)*%
X97700000Y-151660000D03*
D18*
%TO.P,J8-LCD_Source1,2,Pin_2*%
%TO.N,unconnected-(J8-LCD_Source1-Pad2)*%
X95160000Y-151660000D03*
%TO.P,J8-LCD_Source1,3,Pin_3*%
%TO.N,VCC*%
X92620000Y-151660000D03*
%TO.P,J8-LCD_Source1,4,Pin_4*%
%TO.N,GND*%
X90080000Y-151660000D03*
%TO.P,J8-LCD_Source1,5,Pin_5*%
%TO.N,unconnected-(J8-LCD_Source1-Pad5)*%
X87540000Y-151660000D03*
%TO.P,J8-LCD_Source1,6,Pin_6*%
%TO.N,unconnected-(J8-LCD_Source1-Pad6)*%
X85000000Y-151660000D03*
%TD*%
D19*
%TO.P,C3,1*%
%TO.N,Net-(C3-Pad1)*%
X96700000Y-70100000D03*
D12*
%TO.P,C3,2*%
%TO.N,GND*%
X99200000Y-70100000D03*
%TD*%
D19*
%TO.P,C4,1*%
%TO.N,VCC*%
X96700000Y-62865000D03*
D12*
%TO.P,C4,2*%
%TO.N,GND*%
X99200000Y-62865000D03*
%TD*%
D13*
%TO.P,,80,PC4*%
%TO.N,MQ4_DI_In*%
X125730000Y-31750000D03*
%TD*%
D20*
%TO.P,U2,1,VI*%
%TO.N,Net-(C3-Pad1)*%
X104800000Y-52700000D03*
D21*
%TO.P,U2,2,GND*%
%TO.N,GND*%
X104800000Y-55240000D03*
%TO.P,U2,3,VO*%
%TO.N,VCC*%
X104800000Y-57780000D03*
%TD*%
D11*
%TO.P,J11-Reset1,1,Pin_1*%
%TO.N,GND*%
X174350000Y-112350000D03*
X167850000Y-112350000D03*
%TO.P,J11-Reset1,2,Pin_2*%
%TO.N,unconnected-(J11-Reset1-Pad2)*%
X167850000Y-116850000D03*
X174350000Y-116850000D03*
%TD*%
D17*
%TO.P,J7-LCD_Digital_Pins_1,1,Pin_1*%
%TO.N,BIT4_LCD_DI_Out*%
X120500000Y-103400000D03*
D18*
%TO.P,J7-LCD_Digital_Pins_1,2,Pin_2*%
%TO.N,BIT3_LCD_DI_Out*%
X117960000Y-103400000D03*
%TO.P,J7-LCD_Digital_Pins_1,3,Pin_3*%
%TO.N,BIT2_LCD_DI_Out*%
X115420000Y-103400000D03*
%TO.P,J7-LCD_Digital_Pins_1,4,Pin_4*%
%TO.N,BIT1_LCD_DI_Out*%
X112880000Y-103400000D03*
%TO.P,J7-LCD_Digital_Pins_1,5,Pin_5*%
%TO.N,unconnected-(J7-LCD_Digital_Pins_1-Pad5)*%
X110340000Y-103400000D03*
%TO.P,J7-LCD_Digital_Pins_1,6,Pin_6*%
%TO.N,unconnected-(J7-LCD_Digital_Pins_1-Pad6)*%
X107800000Y-103400000D03*
%TO.P,J7-LCD_Digital_Pins_1,7,Pin_7*%
%TO.N,unconnected-(J7-LCD_Digital_Pins_1-Pad7)*%
X105260000Y-103400000D03*
%TO.P,J7-LCD_Digital_Pins_1,8,Pin_8*%
%TO.N,unconnected-(J7-LCD_Digital_Pins_1-Pad8)*%
X102720000Y-103400000D03*
%TD*%
D10*
%TO.P,BZ1,1,-*%
%TO.N,VCC*%
X167800000Y-73600000D03*
D11*
%TO.P,BZ1,2,+*%
%TO.N,Net-(BZ1-Pad2)*%
X167800000Y-83600000D03*
%TD*%
D22*
%TO.P,Q1,1,S*%
%TO.N,GND*%
X130810000Y-85090000D03*
D23*
%TO.P,Q1,2,G*%
%TO.N,Buzzer_DI_Out*%
X130810000Y-83820000D03*
%TO.P,Q1,3,D*%
%TO.N,Net-(BZ1-Pad2)*%
X130810000Y-82550000D03*
%TD*%
D24*
%TO.P,Y1,1,1*%
%TO.N,XTAL1*%
X109220000Y-71210000D03*
%TO.P,Y1,2,2*%
%TO.N,XTAL2*%
X109220000Y-76110000D03*
%TD*%
D17*
%TO.P,J5-MQ4,1,Pin_1*%
%TO.N,unconnected-(J5-MQ4-Pad1)*%
X168910000Y-38100000D03*
D18*
%TO.P,J5-MQ4,2,Pin_2*%
%TO.N,MQ4_DI_In*%
X168910000Y-40640000D03*
%TO.P,J5-MQ4,3,Pin_3*%
%TO.N,GND*%
X168910000Y-43180000D03*
%TO.P,J5-MQ4,4,Pin_4*%
%TO.N,VCC*%
X168910000Y-45720000D03*
%TD*%
D11*
%TO.P,J10-Botton_On/Off1,1,Pin_1*%
%TO.N,VCC*%
X174250000Y-99550000D03*
X167750000Y-99550000D03*
%TO.P,J10-Botton_On/Off1,2,Pin_2*%
%TO.N,unconnected-(J10-Botton_On/Off1-Pad2)*%
X174250000Y-104050000D03*
X167750000Y-104050000D03*
%TD*%
D19*
%TO.P,U1,1,~{RESET}/PC6*%
%TO.N,Reset_DI_In*%
X71120000Y-59365000D03*
D13*
%TO.P,U1,2,PD0*%
%TO.N,unconnected-(U1-Pad2)*%
X71120000Y-61905000D03*
%TO.P,U1,3,PD1*%
%TO.N,unconnected-(U1-Pad3)*%
X71120000Y-64445000D03*
%TO.P,U1,4,PD2*%
%TO.N,IR1_In*%
X71120000Y-66985000D03*
%TO.P,U1,5,PD3*%
%TO.N,IR2_In*%
X71120000Y-69525000D03*
%TO.P,U1,6,PD4*%
%TO.N,Botao_ON{slash}OFF_DI_In*%
X71120000Y-72065000D03*
%TO.P,U1,7,VCC*%
%TO.N,VCC*%
X71120000Y-74605000D03*
%TO.P,U1,8,GND*%
%TO.N,GND*%
X71120000Y-77145000D03*
%TO.P,U1,9,XTAL1/PB6*%
%TO.N,XTAL1*%
X71120000Y-79685000D03*
%TO.P,U1,10,XTAL2/PB7*%
%TO.N,XTAL2*%
X71120000Y-82225000D03*
%TO.P,U1,11,PD5*%
%TO.N,RS_LCD_Out*%
X71120000Y-84765000D03*
%TO.P,U1,12,PD6*%
%TO.N,Enable_LCD_Out*%
X71120000Y-87305000D03*
%TO.P,U1,13,PD7*%
%TO.N,Ctrl_BackLight_LDC_Out*%
X71120000Y-89845000D03*
%TO.P,U1,14,PB0*%
%TO.N,unconnected-(U1-Pad14)*%
X71120000Y-92385000D03*
%TO.P,U1,15,PB1*%
%TO.N,Buzzer_DI_Out*%
X78740000Y-92385000D03*
%TO.P,U1,16,PB2*%
%TO.N,BIT1_LCD_DI_Out*%
X78740000Y-89845000D03*
%TO.P,U1,17,PB3*%
%TO.N,BIT2_LCD_DI_Out*%
X78740000Y-87305000D03*
%TO.P,U1,18,PB4*%
%TO.N,BIT3_LCD_DI_Out*%
X78740000Y-84765000D03*
%TO.P,U1,19,PB5*%
%TO.N,BIT4_LCD_DI_Out*%
X78740000Y-82225000D03*
%TO.P,U1,20,AVCC*%
%TO.N,VCC*%
X78740000Y-79685000D03*
%TO.P,U1,21,AREF*%
%TO.N,GND*%
X78740000Y-77145000D03*
%TO.P,U1,22,GND*%
X78740000Y-74605000D03*
%TO.P,U1,23,PC0*%
%TO.N,MQ6_AI_In*%
X78740000Y-72065000D03*
%TO.P,U1,24,PC1*%
%TO.N,MQ7_DI_In*%
X78740000Y-69525000D03*
%TO.P,U1,25,PC2*%
%TO.N,MQ4_DI_In*%
X78740000Y-66985000D03*
%TO.P,U1,26,PC3*%
%TO.N,LCD_AI_In*%
X78740000Y-64445000D03*
%TO.P,U1,27,PC4*%
%TO.N,unconnected-(U1-Pad27)*%
X78740000Y-61905000D03*
%TO.P,U1,28,PC5*%
%TO.N,unconnected-(U1-Pad28)*%
X78740000Y-59365000D03*
%TD*%
D17*
%TO.P,J3-IR2,1,Pin_1*%
%TO.N,VCC*%
X75100000Y-37740000D03*
D18*
%TO.P,J3-IR2,2,Pin_2*%
%TO.N,GND*%
X75100000Y-35200000D03*
%TO.P,J3-IR2,3,Pin_3*%
%TO.N,IR2_In*%
X75100000Y-32660000D03*
%TD*%
D11*
%TO.P,C1,1*%
%TO.N,GND*%
X68900000Y-46200000D03*
%TO.P,C1,2*%
%TO.N,XTAL2*%
X68900000Y-51200000D03*
%TD*%
D17*
%TO.P,J6-LCD_Digital_Pins_1,1,Pin_1*%
%TO.N,unconnected-(J6-LCD_Digital_Pins_1-Pad1)*%
X98590000Y-103400000D03*
D18*
%TO.P,J6-LCD_Digital_Pins_1,2,Pin_2*%
%TO.N,GND*%
X96050000Y-103400000D03*
%TO.P,J6-LCD_Digital_Pins_1,3,Pin_3*%
%TO.N,unconnected-(J6-LCD_Digital_Pins_1-Pad3)*%
X93510000Y-103400000D03*
%TO.P,J6-LCD_Digital_Pins_1,4,Pin_4*%
%TO.N,unconnected-(J6-LCD_Digital_Pins_1-Pad4)*%
X90970000Y-103400000D03*
%TO.P,J6-LCD_Digital_Pins_1,5,Pin_5*%
%TO.N,unconnected-(J6-LCD_Digital_Pins_1-Pad5)*%
X88430000Y-103400000D03*
%TO.P,J6-LCD_Digital_Pins_1,6,Pin_6*%
%TO.N,Ctrl_BackLight_LDC_Out*%
X85890000Y-103400000D03*
%TO.P,J6-LCD_Digital_Pins_1,7,Pin_7*%
%TO.N,Enable_LCD_Out*%
X83350000Y-103400000D03*
%TO.P,J6-LCD_Digital_Pins_1,8,Pin_8*%
%TO.N,RS_LCD_Out*%
X80810000Y-103400000D03*
%TD*%
D12*
%TO.P,R3,1*%
%TO.N,GND*%
X80380000Y-30120000D03*
D13*
%TO.P,R3,2*%
%TO.N,Net-(R3-Pad2)*%
X80380000Y-40280000D03*
%TD*%
D17*
%TO.P,J9-LCD_Analog_Pins1,1,Pin_1*%
%TO.N,LCD_AI_In*%
X120500000Y-151660000D03*
D18*
%TO.P,J9-LCD_Analog_Pins1,2,Pin_2*%
%TO.N,unconnected-(J9-LCD_Analog_Pins1-Pad2)*%
X117960000Y-151660000D03*
%TO.P,J9-LCD_Analog_Pins1,3,Pin_3*%
%TO.N,unconnected-(J9-LCD_Analog_Pins1-Pad3)*%
X115420000Y-151660000D03*
%TO.P,J9-LCD_Analog_Pins1,4,Pin_4*%
%TO.N,unconnected-(J9-LCD_Analog_Pins1-Pad4)*%
X112880000Y-151660000D03*
%TO.P,J9-LCD_Analog_Pins1,5,Pin_5*%
%TO.N,unconnected-(J9-LCD_Analog_Pins1-Pad5)*%
X110340000Y-151660000D03*
%TO.P,J9-LCD_Analog_Pins1,6,Pin_6*%
%TO.N,unconnected-(J9-LCD_Analog_Pins1-Pad6)*%
X107800000Y-151660000D03*
%TD*%
D25*
%TO.N,VCC*%
X91620000Y-68580000D02*
X94220000Y-68580000D01*
X94220000Y-68580000D02*
X96700000Y-66100000D01*
X73500000Y-98300000D02*
X67400000Y-98300000D01*
X67400000Y-78325000D02*
X71120000Y-74605000D01*
X80515000Y-79685000D02*
X91620000Y-68580000D01*
X75300000Y-81100000D02*
X75300000Y-96500000D01*
X75300000Y-96500000D02*
X73500000Y-98300000D01*
X67400000Y-98300000D02*
X67400000Y-78325000D01*
X78740000Y-79685000D02*
X80515000Y-79685000D01*
X76715000Y-79685000D02*
X75300000Y-81100000D01*
X96700000Y-66100000D02*
X96700000Y-62865000D01*
X78740000Y-79685000D02*
X76715000Y-79685000D01*
D26*
%TO.N,Net-(BZ1-Pad2)*%
X130810000Y-82550000D02*
X166750000Y-82550000D01*
X166750000Y-82550000D02*
X167800000Y-83600000D01*
D25*
%TO.N,GND*%
X176600000Y-110100000D02*
X176600000Y-45400000D01*
X115000000Y-58080000D02*
X112160000Y-55240000D01*
X91440000Y-26670000D02*
X167640000Y-26670000D01*
X78740000Y-74605000D02*
X80295000Y-74605000D01*
X58805000Y-35200000D02*
X58790000Y-35215000D01*
X52000000Y-29800000D02*
X53430000Y-28370000D01*
X107440000Y-55240000D02*
X107440000Y-55160000D01*
X161290000Y-59622081D02*
X161290000Y-48260000D01*
X116830000Y-83810000D02*
X119380000Y-86360000D01*
X114870000Y-57950000D02*
X114870000Y-57930000D01*
X120100000Y-109400000D02*
X119100000Y-108400000D01*
X156210000Y-63500000D02*
X157412081Y-63500000D01*
X98400000Y-108400000D02*
X96050000Y-106050000D01*
X129540000Y-55880000D02*
X132080000Y-55880000D01*
X80380000Y-30120000D02*
X87990000Y-30120000D01*
X65970000Y-28370000D02*
X67720000Y-30120000D01*
X167640000Y-26670000D02*
X176600000Y-35630000D01*
X119380000Y-86360000D02*
X129540000Y-86360000D01*
X100070000Y-66630000D02*
X99200000Y-65760000D01*
X170180000Y-43180000D02*
X168910000Y-43180000D01*
X107440000Y-55240000D02*
X104800000Y-55240000D01*
X116940000Y-55880000D02*
X129540000Y-55880000D01*
X78740000Y-77145000D02*
X71120000Y-77145000D01*
X112160000Y-55240000D02*
X107440000Y-55240000D01*
X176600000Y-35630000D02*
X176600000Y-45400000D01*
X167850000Y-112350000D02*
X174350000Y-112350000D01*
X52000000Y-33100000D02*
X52000000Y-29800000D01*
X123050000Y-112350000D02*
X120100000Y-109400000D01*
X96050000Y-112650000D02*
X96050000Y-103400000D01*
D27*
X131035000Y-85090000D02*
X130810000Y-85090000D01*
D25*
X139700000Y-63500000D02*
X156210000Y-63500000D01*
X176600000Y-45400000D02*
X174380000Y-43180000D01*
X114870000Y-57950000D02*
X116940000Y-55880000D01*
X94760000Y-55240000D02*
X104800000Y-55240000D01*
X99200000Y-67500000D02*
X99200000Y-70100000D01*
X90080000Y-151660000D02*
X90080000Y-118620000D01*
X54115000Y-35215000D02*
X49900000Y-39430000D01*
X144450000Y-38100000D02*
X161290000Y-38100000D01*
X161290000Y-48260000D02*
X166370000Y-43180000D01*
X166370000Y-43180000D02*
X168910000Y-43180000D01*
X115000000Y-66400000D02*
X115000000Y-58080000D01*
X119100000Y-108400000D02*
X98400000Y-108400000D01*
X116830000Y-68590000D02*
X116830000Y-83810000D01*
X78000000Y-35200000D02*
X75100000Y-35200000D01*
X78740000Y-77145000D02*
X78740000Y-74605000D01*
X77400000Y-35800000D02*
X77400000Y-46200000D01*
X77400000Y-46200000D02*
X68900000Y-46200000D01*
X129540000Y-86360000D02*
X130810000Y-85090000D01*
X174380000Y-43180000D02*
X170180000Y-43180000D01*
X174350000Y-112350000D02*
X176600000Y-110100000D01*
X161290000Y-38100000D02*
X166370000Y-43180000D01*
X78000000Y-35200000D02*
X77400000Y-35800000D01*
X114870000Y-66630000D02*
X116830000Y-68590000D01*
X96050000Y-106050000D02*
X96050000Y-103400000D01*
X67720000Y-30120000D02*
X80380000Y-30120000D01*
X157412081Y-63500000D02*
X161290000Y-59622081D01*
X87300000Y-67600000D02*
X87300000Y-62700000D01*
X54115000Y-35215000D02*
X52000000Y-33100000D01*
X80380000Y-30120000D02*
X80380000Y-32820000D01*
X100070000Y-66630000D02*
X99200000Y-67500000D01*
X49900000Y-39430000D02*
X49900000Y-49542500D01*
X167850000Y-112350000D02*
X123050000Y-112350000D01*
X132080000Y-55880000D02*
X139700000Y-63500000D01*
X80295000Y-74605000D02*
X87300000Y-67600000D01*
X54115000Y-35215000D02*
X58790000Y-35215000D01*
X49900000Y-49542500D02*
X47500000Y-51942500D01*
X90080000Y-118620000D02*
X96050000Y-112650000D01*
X99200000Y-65760000D02*
X99200000Y-62865000D01*
X87990000Y-30120000D02*
X91440000Y-26670000D01*
X100070000Y-66630000D02*
X114870000Y-66630000D01*
X87300000Y-62700000D02*
X94760000Y-55240000D01*
X53430000Y-28370000D02*
X65970000Y-28370000D01*
X80380000Y-32820000D02*
X78000000Y-35200000D01*
D26*
%TO.N,IR1_In*%
X149000000Y-120300000D02*
X152880000Y-116420000D01*
X60485000Y-66985000D02*
X58790000Y-65290000D01*
X58900000Y-144200000D02*
X70400000Y-155700000D01*
X58900000Y-70200000D02*
X58900000Y-144200000D01*
X62115000Y-66985000D02*
X58900000Y-70200000D01*
X142400000Y-155700000D02*
X149000000Y-149100000D01*
X70400000Y-155700000D02*
X142400000Y-155700000D01*
X71120000Y-66985000D02*
X62115000Y-66985000D01*
X152880000Y-116420000D02*
X158400000Y-116420000D01*
X149000000Y-149100000D02*
X149000000Y-120300000D01*
X71120000Y-66985000D02*
X60485000Y-66985000D01*
X58790000Y-37755000D02*
X58790000Y-65290000D01*
%TO.N,IR2_In*%
X138500000Y-96700000D02*
X146380000Y-88820000D01*
X71120000Y-69525000D02*
X64975000Y-69525000D01*
X73300000Y-58004164D02*
X67200000Y-51904164D01*
X67575000Y-40185000D02*
X75100000Y-32660000D01*
X67575000Y-45120836D02*
X67575000Y-40185000D01*
X73300000Y-67345000D02*
X73300000Y-58004164D01*
X76900000Y-100600000D02*
X80800000Y-96700000D01*
X64300000Y-100600000D02*
X76900000Y-100600000D01*
X64975000Y-69525000D02*
X61700000Y-72800000D01*
X146380000Y-88820000D02*
X158700000Y-88820000D01*
X80800000Y-96700000D02*
X138500000Y-96700000D01*
X71120000Y-69525000D02*
X73300000Y-67345000D01*
X61700000Y-98000000D02*
X64300000Y-100600000D01*
X67200000Y-51904164D02*
X67200000Y-45495836D01*
X61700000Y-72800000D02*
X61700000Y-98000000D01*
X67200000Y-45495836D02*
X67575000Y-45120836D01*
%TO.N,MQ7_DI_In*%
X74800000Y-54800000D02*
X76300000Y-53300000D01*
X143510000Y-60960000D02*
X156210000Y-60960000D01*
X74800000Y-67700000D02*
X74800000Y-54800000D01*
X78740000Y-69525000D02*
X76625000Y-69525000D01*
X79900000Y-51400000D02*
X79900000Y-43000000D01*
X140970000Y-58420000D02*
X143510000Y-60960000D01*
X79900000Y-43000000D02*
X93690000Y-29210000D01*
X76625000Y-69525000D02*
X74800000Y-67700000D01*
X78000000Y-53300000D02*
X79900000Y-51400000D01*
X76300000Y-53300000D02*
X78000000Y-53300000D01*
X93690000Y-29210000D02*
X139065000Y-29210000D01*
X139065000Y-29210000D02*
X140970000Y-31115000D01*
X140970000Y-31115000D02*
X140970000Y-58420000D01*
%TO.N,MQ4_DI_In*%
X76400000Y-66600000D02*
X76785000Y-66985000D01*
X76400000Y-58300000D02*
X76400000Y-66600000D01*
X83000000Y-51700000D02*
X76400000Y-58300000D01*
X97790000Y-31750000D02*
X125730000Y-31750000D01*
X76785000Y-66985000D02*
X78740000Y-66985000D01*
X83000000Y-46540000D02*
X83000000Y-51700000D01*
X83000000Y-46540000D02*
X97790000Y-31750000D01*
D25*
%TO.N,Botao_ON{slash}OFF_DI_In*%
X129530000Y-66050000D02*
X129540000Y-66040000D01*
%TO.N,MQ6_AI_In*%
X105000000Y-48100000D02*
X91900000Y-48100000D01*
X106800000Y-36950000D02*
X109010000Y-34740000D01*
X106800000Y-46300000D02*
X105000000Y-48100000D01*
X83000000Y-57000000D02*
X83000000Y-67805000D01*
X109010000Y-34740000D02*
X136340000Y-34740000D01*
X106800000Y-36950000D02*
X106800000Y-46300000D01*
X83000000Y-67805000D02*
X78740000Y-72065000D01*
X91900000Y-48100000D02*
X83000000Y-57000000D01*
%TD*%
M02*
