M48
; DRILL file {KiCad (6.0.7)} date Wed Nov 30 09:46:45 2022
; FORMAT={-:-/ absolute / inch / decimal}
; #@! TF.CreationDate,2022-11-30T09:46:45-03:00
; #@! TF.GenerationSoftware,Kicad,Pcbnew,(6.0.7)
; #@! TF.FileFunction,Plated,1,2,PTH
FMAT,2
INCH
; #@! TA.AperFunction,Plated,PTH,ComponentDrill
T1C0.0295
; #@! TA.AperFunction,Plated,PTH,ComponentDrill
T2C0.0315
; #@! TA.AperFunction,Plated,PTH,ComponentDrill
T3C0.0394
; #@! TA.AperFunction,Plated,PTH,ComponentDrill
T4C0.0433
%
G90
G05
T1
X5.15Y-3.25
X5.15Y-3.3
X5.15Y-3.35
T2
X2.5146Y-1.1858
X2.5146Y-1.5858
X2.8Y-2.3372
X2.8Y-2.4372
X2.8Y-2.5372
X2.8Y-2.6372
X2.8Y-2.7372
X2.8Y-2.8372
X2.8Y-2.9372
X2.8Y-3.0372
X2.8Y-3.1372
X2.8Y-3.2372
X2.8Y-3.3372
X2.8Y-3.4372
X2.8Y-3.5372
X2.8Y-3.6372
X3.1Y-2.3372
X3.1Y-2.4372
X3.1Y-2.5372
X3.1Y-2.6372
X3.1Y-2.7372
X3.1Y-2.8372
X3.1Y-2.9372
X3.1Y-3.0372
X3.1Y-3.1372
X3.1Y-3.2372
X3.1Y-3.3372
X3.1Y-3.4372
X3.1Y-3.5372
X3.1Y-3.6372
X3.1646Y-1.1858
X3.1646Y-1.5858
X3.8071Y-2.475
X3.8071Y-2.7598
X3.9055Y-2.475
X3.9055Y-2.7598
X4.3Y-2.8035
X4.3Y-2.9965
X4.95Y-1.25
X5.1Y-2.2
X5.1Y-2.6
X6.2362Y-4.5835
X6.2362Y-4.9835
X6.248Y-3.4969
X6.248Y-3.8969
T3
X2.3146Y-1.2864
X2.3146Y-1.3864
X2.3146Y-1.4864
X2.7126Y-1.8189
X2.7126Y-2.0157
X2.9567Y-1.2858
X2.9567Y-1.3858
X2.9567Y-1.4858
X3.0472Y-1.8189
X3.0472Y-2.0157
X3.1815Y-4.0709
X3.2815Y-4.0709
X3.3465Y-5.9709
X3.3815Y-4.0709
X3.4465Y-5.9709
X3.4815Y-4.0709
X3.5465Y-5.9709
X3.5815Y-4.0709
X3.6465Y-5.9709
X3.6815Y-4.0709
X3.7465Y-5.9709
X3.7815Y-4.0709
X3.8465Y-5.9709
X3.8815Y-4.0709
X4.0441Y-4.0709
X4.1441Y-4.0709
X4.2441Y-4.0709
X4.2441Y-5.9709
X4.3441Y-4.0709
X4.3441Y-5.9709
X4.4441Y-4.0709
X4.4441Y-5.9709
X4.5441Y-4.0709
X4.5441Y-5.9709
X4.6441Y-4.0709
X4.6441Y-5.9709
X4.7441Y-4.0709
X4.7441Y-5.9709
X5.313Y-1.5
X5.3677Y-1.3677
X5.3677Y-1.6323
X5.6323Y-1.3677
X5.6323Y-1.6323
X5.687Y-1.5
X6.15Y-2.3
X6.15Y-2.4
X6.15Y-2.5
X6.15Y-2.6
X6.6063Y-2.8976
X6.6063Y-3.2913
X6.65Y-1.5
X6.65Y-1.6
X6.65Y-1.7
X6.65Y-1.8
T4
X4.126Y-2.0748
X4.126Y-2.1748
X4.126Y-2.2748
X6.6043Y-3.9193
X6.6043Y-4.0965
X6.6083Y-4.4232
X6.6083Y-4.6004
X6.8602Y-3.9193
X6.8602Y-4.0965
X6.8642Y-4.4232
X6.8642Y-4.6004
T3
G00X1.8701Y-2.0056
M15
G01X1.8701Y-2.0844
M16
G05
G00X1.9488Y-2.23
M15
G01X2.0276Y-2.23
M16
G05
G00X2.1063Y-2.0056
M15
G01X2.1063Y-2.0844
M16
G05
T0
M30
