M48
; DRILL file {KiCad (6.0.7)} date Wed Nov 30 14:42:25 2022
; FORMAT={-:-/ absolute / inch / decimal}
; #@! TF.CreationDate,2022-11-30T14:42:25-03:00
; #@! TF.GenerationSoftware,Kicad,Pcbnew,(6.0.7)
; #@! TF.FileFunction,Plated,1,2,PTH
FMAT,2
INCH
; #@! TA.AperFunction,Plated,PTH,ComponentDrill
T1C0.0295
; #@! TA.AperFunction,Plated,PTH,ComponentDrill
T2C0.0315
; #@! TA.AperFunction,Plated,PTH,ComponentDrill
T3C0.0394
; #@! TA.AperFunction,Plated,PTH,ComponentDrill
T4C0.0433
%
G90
G05
T1
X6.4283Y-3.4587
X6.4283Y-3.5087
X6.4283Y-3.5587
T2
X3.7929Y-1.3945
X3.7929Y-1.7945
X4.0783Y-2.5459
X4.0783Y-2.6459
X4.0783Y-2.7459
X4.0783Y-2.8459
X4.0783Y-2.9459
X4.0783Y-3.0459
X4.0783Y-3.1459
X4.0783Y-3.2459
X4.0783Y-3.3459
X4.0783Y-3.4459
X4.0783Y-3.5459
X4.0783Y-3.6459
X4.0783Y-3.7459
X4.0783Y-3.8459
X4.3783Y-2.5459
X4.3783Y-2.6459
X4.3783Y-2.7459
X4.3783Y-2.8459
X4.3783Y-2.9459
X4.3783Y-3.0459
X4.3783Y-3.1459
X4.3783Y-3.2459
X4.3783Y-3.3459
X4.3783Y-3.4459
X4.3783Y-3.5459
X4.3783Y-3.6459
X4.3783Y-3.7459
X4.3783Y-3.8459
X4.4429Y-1.3945
X4.4429Y-1.7945
X5.0854Y-2.6837
X5.0854Y-2.9685
X5.1839Y-2.6837
X5.1839Y-2.9685
X5.5783Y-3.0122
X5.5783Y-3.2051
X6.2283Y-1.4587
X6.3783Y-2.4087
X6.3783Y-2.8087
X7.5146Y-4.7921
X7.5146Y-5.1921
X7.5264Y-3.7055
X7.5264Y-4.1055
T3
X3.5929Y-1.4951
X3.5929Y-1.5951
X3.5929Y-1.6951
X3.9909Y-2.0276
X3.9909Y-2.2244
X4.235Y-1.4945
X4.235Y-1.5945
X4.235Y-1.6945
X4.3256Y-2.0276
X4.3256Y-2.2244
X4.4598Y-4.2795
X4.5598Y-4.2795
X4.6248Y-6.1795
X4.6598Y-4.2795
X4.7248Y-6.1795
X4.7598Y-4.2795
X4.8248Y-6.1795
X4.8598Y-4.2795
X4.9248Y-6.1795
X4.9598Y-4.2795
X5.0248Y-6.1795
X5.0598Y-4.2795
X5.1248Y-6.1795
X5.1598Y-4.2795
X5.3224Y-4.2795
X5.4224Y-4.2795
X5.5224Y-4.2795
X5.5224Y-6.1795
X5.6224Y-4.2795
X5.6224Y-6.1795
X5.7224Y-4.2795
X5.7224Y-6.1795
X5.8224Y-4.2795
X5.8224Y-6.1795
X5.9224Y-4.2795
X5.9224Y-6.1795
X6.0224Y-4.2795
X6.0224Y-6.1795
X6.5913Y-1.7087
X6.6461Y-1.5764
X6.6461Y-1.8409
X6.9106Y-1.5764
X6.9106Y-1.8409
X6.9654Y-1.7087
X7.4283Y-2.5087
X7.4283Y-2.6087
X7.4283Y-2.7087
X7.4283Y-2.8087
X7.8846Y-3.1063
X7.8846Y-3.4055
X7.9283Y-1.7087
X7.9283Y-1.8087
X7.9283Y-1.9087
X7.9283Y-2.0087
T4
X5.4043Y-2.2835
X5.4043Y-2.3835
X5.4043Y-2.4835
X7.8827Y-4.128
X7.8827Y-4.3051
X7.8866Y-4.6319
X7.8866Y-4.8091
X8.1386Y-4.128
X8.1386Y-4.3051
X8.1425Y-4.6319
X8.1425Y-4.8091
T3
G00X3.1484Y-2.2143
M15
G01X3.1484Y-2.293
M16
G05
G00X3.2272Y-2.4387
M15
G01X3.3059Y-2.4387
M16
G05
G00X3.3846Y-2.2143
M15
G01X3.3846Y-2.293
M16
G05
T0
M30
