%TF.GenerationSoftware,KiCad,Pcbnew,(6.0.7)*%
%TF.CreationDate,2022-11-30T09:47:03-03:00*%
%TF.ProjectId,E3_Gas_Leak_Safety_System,45335f47-6173-45f4-9c65-616b5f536166,rev?*%
%TF.SameCoordinates,Original*%
%TF.FileFunction,Copper,L1,Top*%
%TF.FilePolarity,Positive*%
%FSLAX46Y46*%
G04 Gerber Fmt 4.6, Leading zero omitted, Abs format (unit mm)*
G04 Created by KiCad (PCBNEW (6.0.7)) date 2022-11-30 09:47:03*
%MOMM*%
%LPD*%
G01*
G04 APERTURE LIST*
G04 Aperture macros list*
%AMRoundRect*
0 Rectangle with rounded corners*
0 $1 Rounding radius*
0 $2 $3 $4 $5 $6 $7 $8 $9 X,Y pos of 4 corners*
0 Add a 4 corners polygon primitive as box body*
4,1,4,$2,$3,$4,$5,$6,$7,$8,$9,$2,$3,0*
0 Add four circle primitives for the rounded corners*
1,1,$1+$1,$2,$3*
1,1,$1+$1,$4,$5*
1,1,$1+$1,$6,$7*
1,1,$1+$1,$8,$9*
0 Add four rect primitives between the rounded corners*
20,1,$1+$1,$2,$3,$4,$5,0*
20,1,$1+$1,$4,$5,$6,$7,0*
20,1,$1+$1,$6,$7,$8,$9,0*
20,1,$1+$1,$8,$9,$2,$3,0*%
G04 Aperture macros list end*
%TA.AperFunction,ComponentPad*%
%ADD10R,2.000000X2.000000*%
%TD*%
%TA.AperFunction,ComponentPad*%
%ADD11C,2.000000*%
%TD*%
%TA.AperFunction,ComponentPad*%
%ADD12C,1.600000*%
%TD*%
%TA.AperFunction,ComponentPad*%
%ADD13O,1.600000X1.600000*%
%TD*%
%TA.AperFunction,ComponentPad*%
%ADD14R,3.500000X3.500000*%
%TD*%
%TA.AperFunction,ComponentPad*%
%ADD15RoundRect,0.750000X-0.750000X-1.000000X0.750000X-1.000000X0.750000X1.000000X-0.750000X1.000000X0*%
%TD*%
%TA.AperFunction,ComponentPad*%
%ADD16RoundRect,0.875000X-0.875000X-0.875000X0.875000X-0.875000X0.875000X0.875000X-0.875000X0.875000X0*%
%TD*%
%TA.AperFunction,ComponentPad*%
%ADD17R,1.700000X1.700000*%
%TD*%
%TA.AperFunction,ComponentPad*%
%ADD18O,1.700000X1.700000*%
%TD*%
%TA.AperFunction,ComponentPad*%
%ADD19R,1.600000X1.600000*%
%TD*%
%TA.AperFunction,ComponentPad*%
%ADD20R,2.000000X1.905000*%
%TD*%
%TA.AperFunction,ComponentPad*%
%ADD21O,2.000000X1.905000*%
%TD*%
%TA.AperFunction,ComponentPad*%
%ADD22R,1.500000X1.050000*%
%TD*%
%TA.AperFunction,ComponentPad*%
%ADD23O,1.500000X1.050000*%
%TD*%
%TA.AperFunction,ComponentPad*%
%ADD24C,1.500000*%
%TD*%
%TA.AperFunction,Conductor*%
%ADD25C,1.500000*%
%TD*%
%TA.AperFunction,Conductor*%
%ADD26C,1.000000*%
%TD*%
%TA.AperFunction,Conductor*%
%ADD27C,0.500000*%
%TD*%
%TA.AperFunction,Conductor*%
%ADD28C,0.250000*%
%TD*%
G04 APERTURE END LIST*
D10*
%TO.P,U3-MQ6,1,B1*%
%TO.N,MQ6_AI_In*%
X136340000Y-34740000D03*
D11*
%TO.P,U3-MQ6,2,VH+*%
%TO.N,VCC*%
X134950000Y-38100000D03*
%TO.P,U3-MQ6,3,B2*%
%TO.N,Net-(R3-Pad2)*%
X136340000Y-41460000D03*
%TO.P,U3-MQ6,4,A2*%
%TO.N,VCC*%
X143060000Y-41460000D03*
%TO.P,U3-MQ6,5,VH-*%
%TO.N,GND*%
X144450000Y-38100000D03*
%TO.P,U3-MQ6,6,A1*%
%TO.N,VCC*%
X143060000Y-34740000D03*
%TD*%
D12*
%TO.P,R1,1*%
%TO.N,Botao_ON{slash}OFF_DI_In*%
X129540000Y-66040000D03*
D13*
%TO.P,R1,2*%
%TO.N,GND*%
X129540000Y-55880000D03*
%TD*%
D11*
%TO.P,C2,1*%
%TO.N,GND*%
X77400000Y-46200000D03*
%TO.P,C2,2*%
%TO.N,XTAL1*%
X77400000Y-51200000D03*
%TD*%
D14*
%TO.P,J1,1*%
%TO.N,Net-(C3-Pad1)*%
X53500000Y-51942500D03*
D15*
%TO.P,J1,2*%
%TO.N,GND*%
X47500000Y-51942500D03*
D16*
%TO.P,J1,3*%
%TO.N,N/C*%
X50500000Y-56642500D03*
%TD*%
D12*
%TO.P,R5,1*%
%TO.N,VCC*%
X158700000Y-98980000D03*
D13*
%TO.P,R5,2*%
%TO.N,IR2_In*%
X158700000Y-88820000D03*
%TD*%
D12*
%TO.P,R4,1*%
%TO.N,VCC*%
X158400000Y-126580000D03*
D13*
%TO.P,R4,2*%
%TO.N,IR1_In*%
X158400000Y-116420000D03*
%TD*%
D12*
%TO.P,R2,1*%
%TO.N,unconnected-(R2-Pad1)*%
X63870000Y-30120000D03*
D13*
%TO.P,R2,2*%
%TO.N,VCC*%
X63870000Y-40280000D03*
%TD*%
D17*
%TO.P,J2-IR1,1,Pin_1*%
%TO.N,VCC*%
X58790000Y-32675000D03*
D18*
%TO.P,J2-IR1,2,Pin_2*%
%TO.N,GND*%
X58790000Y-35215000D03*
%TO.P,J2-IR1,3,Pin_3*%
%TO.N,IR1_In*%
X58790000Y-37755000D03*
%TD*%
D17*
%TO.P,J4-MQ7,1,Pin_1*%
%TO.N,unconnected-(J4-MQ7-Pad1)*%
X156210000Y-58420000D03*
D18*
%TO.P,J4-MQ7,2,Pin_2*%
%TO.N,MQ7_DI_In*%
X156210000Y-60960000D03*
%TO.P,J4-MQ7,3,Pin_3*%
%TO.N,GND*%
X156210000Y-63500000D03*
%TO.P,J4-MQ7,4,Pin_4*%
%TO.N,VCC*%
X156210000Y-66040000D03*
%TD*%
D17*
%TO.P,J8-LCD_Source1,1,Pin_1*%
%TO.N,unconnected-(J8-LCD_Source1-Pad1)*%
X97700000Y-151660000D03*
D18*
%TO.P,J8-LCD_Source1,2,Pin_2*%
%TO.N,unconnected-(J8-LCD_Source1-Pad2)*%
X95160000Y-151660000D03*
%TO.P,J8-LCD_Source1,3,Pin_3*%
%TO.N,VCC*%
X92620000Y-151660000D03*
%TO.P,J8-LCD_Source1,4,Pin_4*%
%TO.N,GND*%
X90080000Y-151660000D03*
%TO.P,J8-LCD_Source1,5,Pin_5*%
%TO.N,unconnected-(J8-LCD_Source1-Pad5)*%
X87540000Y-151660000D03*
%TO.P,J8-LCD_Source1,6,Pin_6*%
%TO.N,unconnected-(J8-LCD_Source1-Pad6)*%
X85000000Y-151660000D03*
%TD*%
D19*
%TO.P,C3,1*%
%TO.N,Net-(C3-Pad1)*%
X96700000Y-70100000D03*
D12*
%TO.P,C3,2*%
%TO.N,GND*%
X99200000Y-70100000D03*
%TD*%
D19*
%TO.P,C4,1*%
%TO.N,VCC*%
X96700000Y-62865000D03*
D12*
%TO.P,C4,2*%
%TO.N,GND*%
X99200000Y-62865000D03*
%TD*%
D13*
%TO.P,,80,PC4*%
%TO.N,MQ4_DI_In*%
X125730000Y-31750000D03*
%TD*%
D20*
%TO.P,U2,1,VI*%
%TO.N,Net-(C3-Pad1)*%
X104800000Y-52700000D03*
D21*
%TO.P,U2,2,GND*%
%TO.N,GND*%
X104800000Y-55240000D03*
%TO.P,U2,3,VO*%
%TO.N,VCC*%
X104800000Y-57780000D03*
%TD*%
D11*
%TO.P,J11-Reset1,1,Pin_1*%
%TO.N,GND*%
X174350000Y-112350000D03*
X167850000Y-112350000D03*
%TO.P,J11-Reset1,2,Pin_2*%
%TO.N,unconnected-(J11-Reset1-Pad2)*%
X167850000Y-116850000D03*
X174350000Y-116850000D03*
%TD*%
D17*
%TO.P,J7-LCD_Digital_Pins_1,1,Pin_1*%
%TO.N,BIT4_LCD_DI_Out*%
X120500000Y-103400000D03*
D18*
%TO.P,J7-LCD_Digital_Pins_1,2,Pin_2*%
%TO.N,BIT3_LCD_DI_Out*%
X117960000Y-103400000D03*
%TO.P,J7-LCD_Digital_Pins_1,3,Pin_3*%
%TO.N,BIT2_LCD_DI_Out*%
X115420000Y-103400000D03*
%TO.P,J7-LCD_Digital_Pins_1,4,Pin_4*%
%TO.N,BIT1_LCD_DI_Out*%
X112880000Y-103400000D03*
%TO.P,J7-LCD_Digital_Pins_1,5,Pin_5*%
%TO.N,unconnected-(J7-LCD_Digital_Pins_1-Pad5)*%
X110340000Y-103400000D03*
%TO.P,J7-LCD_Digital_Pins_1,6,Pin_6*%
%TO.N,unconnected-(J7-LCD_Digital_Pins_1-Pad6)*%
X107800000Y-103400000D03*
%TO.P,J7-LCD_Digital_Pins_1,7,Pin_7*%
%TO.N,unconnected-(J7-LCD_Digital_Pins_1-Pad7)*%
X105260000Y-103400000D03*
%TO.P,J7-LCD_Digital_Pins_1,8,Pin_8*%
%TO.N,unconnected-(J7-LCD_Digital_Pins_1-Pad8)*%
X102720000Y-103400000D03*
%TD*%
D10*
%TO.P,BZ1,1,-*%
%TO.N,VCC*%
X167800000Y-73600000D03*
D11*
%TO.P,BZ1,2,+*%
%TO.N,Net-(BZ1-Pad2)*%
X167800000Y-83600000D03*
%TD*%
D22*
%TO.P,Q1,1,S*%
%TO.N,GND*%
X130810000Y-85090000D03*
D23*
%TO.P,Q1,2,G*%
%TO.N,Buzzer_DI_Out*%
X130810000Y-83820000D03*
%TO.P,Q1,3,D*%
%TO.N,Net-(BZ1-Pad2)*%
X130810000Y-82550000D03*
%TD*%
D24*
%TO.P,Y1,1,1*%
%TO.N,XTAL1*%
X109220000Y-71210000D03*
%TO.P,Y1,2,2*%
%TO.N,XTAL2*%
X109220000Y-76110000D03*
%TD*%
D17*
%TO.P,J5-MQ4,1,Pin_1*%
%TO.N,unconnected-(J5-MQ4-Pad1)*%
X168910000Y-38100000D03*
D18*
%TO.P,J5-MQ4,2,Pin_2*%
%TO.N,MQ4_DI_In*%
X168910000Y-40640000D03*
%TO.P,J5-MQ4,3,Pin_3*%
%TO.N,GND*%
X168910000Y-43180000D03*
%TO.P,J5-MQ4,4,Pin_4*%
%TO.N,VCC*%
X168910000Y-45720000D03*
%TD*%
D11*
%TO.P,J10-Botton_On/Off1,1,Pin_1*%
%TO.N,VCC*%
X174250000Y-99550000D03*
X167750000Y-99550000D03*
%TO.P,J10-Botton_On/Off1,2,Pin_2*%
%TO.N,unconnected-(J10-Botton_On/Off1-Pad2)*%
X174250000Y-104050000D03*
X167750000Y-104050000D03*
%TD*%
D19*
%TO.P,U1,1,~{RESET}/PC6*%
%TO.N,Reset_DI_In*%
X71120000Y-59365000D03*
D13*
%TO.P,U1,2,PD0*%
%TO.N,unconnected-(U1-Pad2)*%
X71120000Y-61905000D03*
%TO.P,U1,3,PD1*%
%TO.N,unconnected-(U1-Pad3)*%
X71120000Y-64445000D03*
%TO.P,U1,4,PD2*%
%TO.N,IR1_In*%
X71120000Y-66985000D03*
%TO.P,U1,5,PD3*%
%TO.N,IR2_In*%
X71120000Y-69525000D03*
%TO.P,U1,6,PD4*%
%TO.N,Botao_ON{slash}OFF_DI_In*%
X71120000Y-72065000D03*
%TO.P,U1,7,VCC*%
%TO.N,VCC*%
X71120000Y-74605000D03*
%TO.P,U1,8,GND*%
%TO.N,GND*%
X71120000Y-77145000D03*
%TO.P,U1,9,XTAL1/PB6*%
%TO.N,XTAL1*%
X71120000Y-79685000D03*
%TO.P,U1,10,XTAL2/PB7*%
%TO.N,XTAL2*%
X71120000Y-82225000D03*
%TO.P,U1,11,PD5*%
%TO.N,RS_LCD_Out*%
X71120000Y-84765000D03*
%TO.P,U1,12,PD6*%
%TO.N,Enable_LCD_Out*%
X71120000Y-87305000D03*
%TO.P,U1,13,PD7*%
%TO.N,Ctrl_BackLight_LDC_Out*%
X71120000Y-89845000D03*
%TO.P,U1,14,PB0*%
%TO.N,unconnected-(U1-Pad14)*%
X71120000Y-92385000D03*
%TO.P,U1,15,PB1*%
%TO.N,Buzzer_DI_Out*%
X78740000Y-92385000D03*
%TO.P,U1,16,PB2*%
%TO.N,BIT1_LCD_DI_Out*%
X78740000Y-89845000D03*
%TO.P,U1,17,PB3*%
%TO.N,BIT2_LCD_DI_Out*%
X78740000Y-87305000D03*
%TO.P,U1,18,PB4*%
%TO.N,BIT3_LCD_DI_Out*%
X78740000Y-84765000D03*
%TO.P,U1,19,PB5*%
%TO.N,BIT4_LCD_DI_Out*%
X78740000Y-82225000D03*
%TO.P,U1,20,AVCC*%
%TO.N,VCC*%
X78740000Y-79685000D03*
%TO.P,U1,21,AREF*%
%TO.N,GND*%
X78740000Y-77145000D03*
%TO.P,U1,22,GND*%
X78740000Y-74605000D03*
%TO.P,U1,23,PC0*%
%TO.N,MQ6_AI_In*%
X78740000Y-72065000D03*
%TO.P,U1,24,PC1*%
%TO.N,MQ7_DI_In*%
X78740000Y-69525000D03*
%TO.P,U1,25,PC2*%
%TO.N,MQ4_DI_In*%
X78740000Y-66985000D03*
%TO.P,U1,26,PC3*%
%TO.N,LCD_AI_In*%
X78740000Y-64445000D03*
%TO.P,U1,27,PC4*%
%TO.N,unconnected-(U1-Pad27)*%
X78740000Y-61905000D03*
%TO.P,U1,28,PC5*%
%TO.N,unconnected-(U1-Pad28)*%
X78740000Y-59365000D03*
%TD*%
D17*
%TO.P,J3-IR2,1,Pin_1*%
%TO.N,VCC*%
X75100000Y-37740000D03*
D18*
%TO.P,J3-IR2,2,Pin_2*%
%TO.N,GND*%
X75100000Y-35200000D03*
%TO.P,J3-IR2,3,Pin_3*%
%TO.N,IR2_In*%
X75100000Y-32660000D03*
%TD*%
D11*
%TO.P,C1,1*%
%TO.N,GND*%
X68900000Y-46200000D03*
%TO.P,C1,2*%
%TO.N,XTAL2*%
X68900000Y-51200000D03*
%TD*%
D17*
%TO.P,J6-LCD_Digital_Pins_1,1,Pin_1*%
%TO.N,unconnected-(J6-LCD_Digital_Pins_1-Pad1)*%
X98590000Y-103400000D03*
D18*
%TO.P,J6-LCD_Digital_Pins_1,2,Pin_2*%
%TO.N,GND*%
X96050000Y-103400000D03*
%TO.P,J6-LCD_Digital_Pins_1,3,Pin_3*%
%TO.N,unconnected-(J6-LCD_Digital_Pins_1-Pad3)*%
X93510000Y-103400000D03*
%TO.P,J6-LCD_Digital_Pins_1,4,Pin_4*%
%TO.N,unconnected-(J6-LCD_Digital_Pins_1-Pad4)*%
X90970000Y-103400000D03*
%TO.P,J6-LCD_Digital_Pins_1,5,Pin_5*%
%TO.N,unconnected-(J6-LCD_Digital_Pins_1-Pad5)*%
X88430000Y-103400000D03*
%TO.P,J6-LCD_Digital_Pins_1,6,Pin_6*%
%TO.N,Ctrl_BackLight_LDC_Out*%
X85890000Y-103400000D03*
%TO.P,J6-LCD_Digital_Pins_1,7,Pin_7*%
%TO.N,Enable_LCD_Out*%
X83350000Y-103400000D03*
%TO.P,J6-LCD_Digital_Pins_1,8,Pin_8*%
%TO.N,RS_LCD_Out*%
X80810000Y-103400000D03*
%TD*%
D12*
%TO.P,R3,1*%
%TO.N,GND*%
X80380000Y-30120000D03*
D13*
%TO.P,R3,2*%
%TO.N,Net-(R3-Pad2)*%
X80380000Y-40280000D03*
%TD*%
D17*
%TO.P,J9-LCD_Analog_Pins1,1,Pin_1*%
%TO.N,LCD_AI_In*%
X120500000Y-151660000D03*
D18*
%TO.P,J9-LCD_Analog_Pins1,2,Pin_2*%
%TO.N,unconnected-(J9-LCD_Analog_Pins1-Pad2)*%
X117960000Y-151660000D03*
%TO.P,J9-LCD_Analog_Pins1,3,Pin_3*%
%TO.N,unconnected-(J9-LCD_Analog_Pins1-Pad3)*%
X115420000Y-151660000D03*
%TO.P,J9-LCD_Analog_Pins1,4,Pin_4*%
%TO.N,unconnected-(J9-LCD_Analog_Pins1-Pad4)*%
X112880000Y-151660000D03*
%TO.P,J9-LCD_Analog_Pins1,5,Pin_5*%
%TO.N,unconnected-(J9-LCD_Analog_Pins1-Pad5)*%
X110340000Y-151660000D03*
%TO.P,J9-LCD_Analog_Pins1,6,Pin_6*%
%TO.N,unconnected-(J9-LCD_Analog_Pins1-Pad6)*%
X107800000Y-151660000D03*
%TD*%
D25*
%TO.N,VCC*%
X172400000Y-73600000D02*
X174250000Y-75450000D01*
X154700000Y-154900000D02*
X94657919Y-154900000D01*
X102720000Y-43720000D02*
X109100000Y-50100000D01*
X109100000Y-50100000D02*
X144080000Y-50100000D01*
X158400000Y-126580000D02*
X158400000Y-151200000D01*
X72560000Y-40280000D02*
X75100000Y-37740000D01*
X63870000Y-34070000D02*
X62475000Y-32675000D01*
X174250000Y-75450000D02*
X174250000Y-99550000D01*
X63870000Y-40280000D02*
X63870000Y-34070000D01*
X158400000Y-151200000D02*
X154700000Y-154900000D01*
X167750000Y-99550000D02*
X159270000Y-99550000D01*
X102720000Y-43720000D02*
X76000000Y-43720000D01*
X152400000Y-66040000D02*
X147320000Y-60960000D01*
X144080000Y-50100000D02*
X147320000Y-53340000D01*
X63880000Y-40290000D02*
X63870000Y-40280000D01*
X147320000Y-45720000D02*
X143060000Y-41460000D01*
X165340000Y-66040000D02*
X168910000Y-62470000D01*
X109100000Y-50100000D02*
X109100000Y-56500000D01*
X139700000Y-38100000D02*
X143060000Y-41460000D01*
X94657919Y-154900000D02*
X92620000Y-152862081D01*
X107820000Y-57780000D02*
X104800000Y-57780000D01*
X163900000Y-124700000D02*
X162020000Y-126580000D01*
X142060000Y-35740000D02*
X143060000Y-34740000D01*
X96700000Y-62865000D02*
X96700000Y-62300000D01*
X142060000Y-40460000D02*
X142060000Y-35740000D01*
X163900000Y-109700000D02*
X163900000Y-124700000D01*
X62475000Y-32675000D02*
X58790000Y-32675000D01*
X101220000Y-57780000D02*
X96700000Y-62300000D01*
X168910000Y-62470000D02*
X168910000Y-45720000D01*
X134950000Y-38100000D02*
X139700000Y-38100000D01*
X147320000Y-53340000D02*
X147320000Y-45720000D01*
X92620000Y-151660000D02*
X92620000Y-152862081D01*
X158700000Y-98980000D02*
X158700000Y-104500000D01*
X162020000Y-126580000D02*
X158400000Y-126580000D01*
X104800000Y-57780000D02*
X101220000Y-57780000D01*
X75100000Y-37740000D02*
X75105585Y-37740000D01*
X156210000Y-66040000D02*
X152400000Y-66040000D01*
X159270000Y-99550000D02*
X158700000Y-98980000D01*
X76000000Y-43720000D02*
X72560000Y-40280000D01*
X167800000Y-73600000D02*
X172400000Y-73600000D01*
X147320000Y-60960000D02*
X147320000Y-53340000D01*
X165340000Y-66040000D02*
X167800000Y-68500000D01*
X109100000Y-56500000D02*
X107820000Y-57780000D01*
X156210000Y-66040000D02*
X165340000Y-66040000D01*
X174250000Y-99550000D02*
X167750000Y-99550000D01*
X63870000Y-40280000D02*
X72560000Y-40280000D01*
X167800000Y-68500000D02*
X167800000Y-73600000D01*
X143060000Y-41460000D02*
X142060000Y-40460000D01*
X158700000Y-104500000D02*
X163900000Y-109700000D01*
D26*
%TO.N,Net-(BZ1-Pad2)*%
X130890000Y-82470000D02*
X130810000Y-82550000D01*
D27*
%TO.N,XTAL2*%
X74825000Y-80975000D02*
X73575000Y-82225000D01*
D26*
X64600000Y-55500000D02*
X64600000Y-80200000D01*
D27*
X73575000Y-82225000D02*
X71120000Y-82225000D01*
X103725000Y-80975000D02*
X74825000Y-80975000D01*
D26*
X68900000Y-51200000D02*
X64600000Y-55500000D01*
X64600000Y-80200000D02*
X66625000Y-82225000D01*
X66625000Y-82225000D02*
X71120000Y-82225000D01*
D27*
X109220000Y-76110000D02*
X108590000Y-76110000D01*
X108590000Y-76110000D02*
X103725000Y-80975000D01*
D26*
%TO.N,XTAL1*%
X67685000Y-79685000D02*
X71120000Y-79685000D01*
X66500000Y-57900000D02*
X66500000Y-78500000D01*
D27*
X109220000Y-71210000D02*
X102030000Y-78400000D01*
D26*
X77400000Y-51200000D02*
X75500000Y-53100000D01*
X75500000Y-53100000D02*
X71300000Y-53100000D01*
D27*
X72405000Y-78400000D02*
X102030000Y-78400000D01*
D26*
X66500000Y-78500000D02*
X67685000Y-79685000D01*
X71300000Y-53100000D02*
X66500000Y-57900000D01*
D27*
X72405000Y-78400000D02*
X71120000Y-79685000D01*
D26*
%TO.N,Net-(C3-Pad1)*%
X94000000Y-67400000D02*
X96700000Y-70100000D01*
X94000000Y-54900000D02*
X96200000Y-52700000D01*
X64957500Y-51942500D02*
X68000000Y-48900000D01*
X96200000Y-52700000D02*
X104800000Y-52700000D01*
X68000000Y-48900000D02*
X88000000Y-48900000D01*
X53500000Y-51942500D02*
X64957500Y-51942500D01*
X88000000Y-48900000D02*
X94000000Y-54900000D01*
X94000000Y-54900000D02*
X94000000Y-67400000D01*
%TO.N,MQ4_DI_In*%
X125730000Y-31750000D02*
X157480000Y-31750000D01*
X166370000Y-40640000D02*
X168910000Y-40640000D01*
X157480000Y-31750000D02*
X166370000Y-40640000D01*
%TO.N,Ctrl_BackLight_LDC_Out*%
X75100000Y-98400000D02*
X74000000Y-97300000D01*
X85890000Y-103400000D02*
X85890000Y-100890000D01*
X74000000Y-91510000D02*
X72335000Y-89845000D01*
X74000000Y-97300000D02*
X74000000Y-91510000D01*
X71120000Y-89845000D02*
X72335000Y-89845000D01*
X85890000Y-100890000D02*
X83400000Y-98400000D01*
X83400000Y-98400000D02*
X75100000Y-98400000D01*
%TO.N,Enable_LCD_Out*%
X72500000Y-100600000D02*
X81800000Y-100600000D01*
X69200000Y-97300000D02*
X72500000Y-100600000D01*
X81800000Y-100600000D02*
X83350000Y-102150000D01*
X71120000Y-87305000D02*
X69200000Y-89225000D01*
X69200000Y-89225000D02*
X69200000Y-97300000D01*
X83350000Y-102150000D02*
X83350000Y-103400000D01*
%TO.N,RS_LCD_Out*%
X68735000Y-84765000D02*
X67300000Y-86200000D01*
X71120000Y-84765000D02*
X68735000Y-84765000D01*
X71900000Y-106400000D02*
X79100000Y-106400000D01*
X79100000Y-106400000D02*
X80810000Y-104690000D01*
X67300000Y-101800000D02*
X71900000Y-106400000D01*
X80810000Y-104690000D02*
X80810000Y-103400000D01*
X67300000Y-86200000D02*
X67300000Y-101800000D01*
%TO.N,BIT4_LCD_DI_Out*%
X78740000Y-82225000D02*
X79215000Y-82700000D01*
X111300000Y-82700000D02*
X120500000Y-91900000D01*
X120500000Y-91900000D02*
X120500000Y-103400000D01*
X79215000Y-82700000D02*
X111300000Y-82700000D01*
%TO.N,BIT3_LCD_DI_Out*%
X117960000Y-93260000D02*
X117960000Y-103400000D01*
X109465000Y-84765000D02*
X117960000Y-93260000D01*
X78740000Y-84765000D02*
X109465000Y-84765000D01*
%TO.N,BIT2_LCD_DI_Out*%
X78740000Y-87305000D02*
X109205000Y-87305000D01*
X109205000Y-87305000D02*
X115420000Y-93520000D01*
X115420000Y-93520000D02*
X115420000Y-103400000D01*
%TO.N,BIT1_LCD_DI_Out*%
X107645000Y-89845000D02*
X112900000Y-95100000D01*
D28*
X112900000Y-95100000D02*
X112880000Y-95120000D01*
D26*
X112880000Y-95120000D02*
X112880000Y-103400000D01*
X78740000Y-89845000D02*
X107645000Y-89845000D01*
%TO.N,LCD_AI_In*%
X81300000Y-67005000D02*
X81300000Y-72700000D01*
D28*
X138800000Y-76300000D02*
X138800000Y-76200000D01*
D26*
X120500000Y-121600000D02*
X120500000Y-151660000D01*
X85000000Y-76400000D02*
X99700000Y-76400000D01*
X138800000Y-113500000D02*
X134500000Y-117800000D01*
X81300000Y-72700000D02*
X85000000Y-76400000D01*
X78740000Y-64445000D02*
X81300000Y-67005000D01*
X124300000Y-117800000D02*
X120500000Y-121600000D01*
X131900000Y-69100000D02*
X138800000Y-76000000D01*
X134500000Y-117800000D02*
X124300000Y-117800000D01*
X138800000Y-76000000D02*
X138800000Y-113500000D01*
X99700000Y-76400000D02*
X107000000Y-69100000D01*
X107000000Y-69100000D02*
X131900000Y-69100000D01*
%TO.N,Buzzer_DI_Out*%
X132215000Y-83820000D02*
X130810000Y-83820000D01*
X78740000Y-92385000D02*
X97385000Y-92385000D01*
X100300000Y-107900000D02*
X103200000Y-110800000D01*
X131270000Y-90430000D02*
X133900000Y-87800000D01*
X133900000Y-87800000D02*
X133900000Y-85505000D01*
X97385000Y-92385000D02*
X100300000Y-95300000D01*
X133900000Y-85505000D02*
X132215000Y-83820000D01*
X100300000Y-95300000D02*
X100300000Y-107900000D01*
X123200000Y-110800000D02*
X123200000Y-92700000D01*
X125470000Y-90430000D02*
X131270000Y-90430000D01*
X123200000Y-92700000D02*
X125470000Y-90430000D01*
X103200000Y-110800000D02*
X123200000Y-110800000D01*
%TO.N,Botao_ON{slash}OFF_DI_In*%
X118440000Y-66040000D02*
X129540000Y-66040000D01*
X107000000Y-66000000D02*
X118400000Y-66000000D01*
X71120000Y-72065000D02*
X72335000Y-72065000D01*
X89200000Y-57300000D02*
X92000000Y-60100000D01*
X92000000Y-60100000D02*
X92000000Y-72900000D01*
X73900000Y-59700000D02*
X76300000Y-57300000D01*
X93500000Y-74400000D02*
X98600000Y-74400000D01*
X92000000Y-72900000D02*
X93500000Y-74400000D01*
X72335000Y-72065000D02*
X73900000Y-70500000D01*
X98600000Y-74400000D02*
X107000000Y-66000000D01*
X73900000Y-70500000D02*
X73900000Y-59700000D01*
X76300000Y-57300000D02*
X89200000Y-57300000D01*
X118400000Y-66000000D02*
X118440000Y-66040000D01*
%TO.N,Net-(R3-Pad2)*%
X133350000Y-44450000D02*
X136340000Y-41460000D01*
X88520000Y-32140000D02*
X80380000Y-40280000D01*
X115640000Y-32140000D02*
X88520000Y-32140000D01*
X115640000Y-32140000D02*
X127950000Y-44450000D01*
X127950000Y-44450000D02*
X133350000Y-44450000D01*
%TD*%
M02*
