%TF.GenerationSoftware,KiCad,Pcbnew,(6.0.7)*%
%TF.CreationDate,2022-11-30T14:42:28-03:00*%
%TF.ProjectId,E3_Gas_Leak_Safety_System,45335f47-6173-45f4-9c65-616b5f536166,rev?*%
%TF.SameCoordinates,Original*%
%TF.FileFunction,Legend,Top*%
%TF.FilePolarity,Positive*%
%FSLAX46Y46*%
G04 Gerber Fmt 4.6, Leading zero omitted, Abs format (unit mm)*
G04 Created by KiCad (PCBNEW (6.0.7)) date 2022-11-30 14:42:28*
%MOMM*%
%LPD*%
G01*
G04 APERTURE LIST*
%ADD10C,0.100000*%
%ADD11C,0.150000*%
%ADD12C,0.120000*%
G04 APERTURE END LIST*
D10*
X89410000Y-106100000D02*
X168310000Y-106100000D01*
X168310000Y-106100000D02*
X168310000Y-159600000D01*
X168310000Y-159600000D02*
X89410000Y-159600000D01*
X89410000Y-159600000D02*
X89410000Y-106100000D01*
D11*
X191728095Y-68300000D02*
X191632857Y-68252380D01*
X191490000Y-68252380D01*
X191347142Y-68300000D01*
X191251904Y-68395238D01*
X191204285Y-68490476D01*
X191156666Y-68680952D01*
X191156666Y-68823809D01*
X191204285Y-69014285D01*
X191251904Y-69109523D01*
X191347142Y-69204761D01*
X191490000Y-69252380D01*
X191585238Y-69252380D01*
X191728095Y-69204761D01*
X191775714Y-69157142D01*
X191775714Y-68823809D01*
X191585238Y-68823809D01*
X192204285Y-69252380D02*
X192204285Y-68252380D01*
X192775714Y-69252380D01*
X192775714Y-68252380D01*
X193251904Y-69252380D02*
X193251904Y-68252380D01*
X193490000Y-68252380D01*
X193632857Y-68300000D01*
X193728095Y-68395238D01*
X193775714Y-68490476D01*
X193823333Y-68680952D01*
X193823333Y-68823809D01*
X193775714Y-69014285D01*
X193728095Y-69109523D01*
X193632857Y-69204761D01*
X193490000Y-69252380D01*
X193251904Y-69252380D01*
X203856666Y-50472380D02*
X204190000Y-51472380D01*
X204523333Y-50472380D01*
X205428095Y-51377142D02*
X205380476Y-51424761D01*
X205237619Y-51472380D01*
X205142380Y-51472380D01*
X204999523Y-51424761D01*
X204904285Y-51329523D01*
X204856666Y-51234285D01*
X204809047Y-51043809D01*
X204809047Y-50900952D01*
X204856666Y-50710476D01*
X204904285Y-50615238D01*
X204999523Y-50520000D01*
X205142380Y-50472380D01*
X205237619Y-50472380D01*
X205380476Y-50520000D01*
X205428095Y-50567619D01*
X206428095Y-51377142D02*
X206380476Y-51424761D01*
X206237619Y-51472380D01*
X206142380Y-51472380D01*
X205999523Y-51424761D01*
X205904285Y-51329523D01*
X205856666Y-51234285D01*
X205809047Y-51043809D01*
X205809047Y-50900952D01*
X205856666Y-50710476D01*
X205904285Y-50615238D01*
X205999523Y-50520000D01*
X206142380Y-50472380D01*
X206237619Y-50472380D01*
X206380476Y-50520000D01*
X206428095Y-50567619D01*
X191109528Y-66659944D02*
X191109528Y-65659944D01*
X191347623Y-65659944D01*
X191490481Y-65707564D01*
X191585719Y-65802802D01*
X191633338Y-65898040D01*
X191680957Y-66088516D01*
X191680957Y-66231373D01*
X191633338Y-66421849D01*
X191585719Y-66517087D01*
X191490481Y-66612325D01*
X191347623Y-66659944D01*
X191109528Y-66659944D01*
X192871433Y-66659944D02*
X192871433Y-65659944D01*
X193347623Y-65993278D02*
X193347623Y-66659944D01*
X193347623Y-66088516D02*
X193395242Y-66040897D01*
X193490481Y-65993278D01*
X193633338Y-65993278D01*
X193728576Y-66040897D01*
X193776195Y-66136135D01*
X193776195Y-66659944D01*
X87016666Y-37772380D02*
X87350000Y-38772380D01*
X87683333Y-37772380D01*
X88588095Y-38677142D02*
X88540476Y-38724761D01*
X88397619Y-38772380D01*
X88302380Y-38772380D01*
X88159523Y-38724761D01*
X88064285Y-38629523D01*
X88016666Y-38534285D01*
X87969047Y-38343809D01*
X87969047Y-38200952D01*
X88016666Y-38010476D01*
X88064285Y-37915238D01*
X88159523Y-37820000D01*
X88302380Y-37772380D01*
X88397619Y-37772380D01*
X88540476Y-37820000D01*
X88588095Y-37867619D01*
X89588095Y-38677142D02*
X89540476Y-38724761D01*
X89397619Y-38772380D01*
X89302380Y-38772380D01*
X89159523Y-38724761D01*
X89064285Y-38629523D01*
X89016666Y-38534285D01*
X88969047Y-38343809D01*
X88969047Y-38200952D01*
X89016666Y-38010476D01*
X89064285Y-37915238D01*
X89159523Y-37820000D01*
X89302380Y-37772380D01*
X89397619Y-37772380D01*
X89540476Y-37820000D01*
X89588095Y-37867619D01*
X84960952Y-43217380D02*
X84960952Y-42217380D01*
X86008571Y-43217380D02*
X85675238Y-42741190D01*
X85437142Y-43217380D02*
X85437142Y-42217380D01*
X85818095Y-42217380D01*
X85913333Y-42265000D01*
X85960952Y-42312619D01*
X86008571Y-42407857D01*
X86008571Y-42550714D01*
X85960952Y-42645952D01*
X85913333Y-42693571D01*
X85818095Y-42741190D01*
X85437142Y-42741190D01*
X86960952Y-43217380D02*
X86389523Y-43217380D01*
X86675238Y-43217380D02*
X86675238Y-42217380D01*
X86580000Y-42360238D01*
X86484761Y-42455476D01*
X86389523Y-42503095D01*
X88151428Y-43217380D02*
X88151428Y-42217380D01*
X88627619Y-43217380D02*
X88627619Y-42217380D01*
X89199047Y-43217380D01*
X89199047Y-42217380D01*
X100835952Y-38772380D02*
X100835952Y-37772380D01*
X101883571Y-38772380D02*
X101550238Y-38296190D01*
X101312142Y-38772380D02*
X101312142Y-37772380D01*
X101693095Y-37772380D01*
X101788333Y-37820000D01*
X101835952Y-37867619D01*
X101883571Y-37962857D01*
X101883571Y-38105714D01*
X101835952Y-38200952D01*
X101788333Y-38248571D01*
X101693095Y-38296190D01*
X101312142Y-38296190D01*
X102264523Y-37867619D02*
X102312142Y-37820000D01*
X102407380Y-37772380D01*
X102645476Y-37772380D01*
X102740714Y-37820000D01*
X102788333Y-37867619D01*
X102835952Y-37962857D01*
X102835952Y-38058095D01*
X102788333Y-38200952D01*
X102216904Y-38772380D01*
X102835952Y-38772380D01*
X104026428Y-38772380D02*
X104026428Y-37772380D01*
X104502619Y-38772380D02*
X104502619Y-37772380D01*
X105074047Y-38772380D01*
X105074047Y-37772380D01*
X87588095Y-39725000D02*
X87492857Y-39677380D01*
X87350000Y-39677380D01*
X87207142Y-39725000D01*
X87111904Y-39820238D01*
X87064285Y-39915476D01*
X87016666Y-40105952D01*
X87016666Y-40248809D01*
X87064285Y-40439285D01*
X87111904Y-40534523D01*
X87207142Y-40629761D01*
X87350000Y-40677380D01*
X87445238Y-40677380D01*
X87588095Y-40629761D01*
X87635714Y-40582142D01*
X87635714Y-40248809D01*
X87445238Y-40248809D01*
X88064285Y-40677380D02*
X88064285Y-39677380D01*
X88635714Y-40677380D01*
X88635714Y-39677380D01*
X89111904Y-40677380D02*
X89111904Y-39677380D01*
X89350000Y-39677380D01*
X89492857Y-39725000D01*
X89588095Y-39820238D01*
X89635714Y-39915476D01*
X89683333Y-40105952D01*
X89683333Y-40248809D01*
X89635714Y-40439285D01*
X89588095Y-40534523D01*
X89492857Y-40629761D01*
X89350000Y-40677380D01*
X89111904Y-40677380D01*
X102891666Y-42852380D02*
X103225000Y-43852380D01*
X103558333Y-42852380D01*
X104463095Y-43757142D02*
X104415476Y-43804761D01*
X104272619Y-43852380D01*
X104177380Y-43852380D01*
X104034523Y-43804761D01*
X103939285Y-43709523D01*
X103891666Y-43614285D01*
X103844047Y-43423809D01*
X103844047Y-43280952D01*
X103891666Y-43090476D01*
X103939285Y-42995238D01*
X104034523Y-42900000D01*
X104177380Y-42852380D01*
X104272619Y-42852380D01*
X104415476Y-42900000D01*
X104463095Y-42947619D01*
X105463095Y-43757142D02*
X105415476Y-43804761D01*
X105272619Y-43852380D01*
X105177380Y-43852380D01*
X105034523Y-43804761D01*
X104939285Y-43709523D01*
X104891666Y-43614285D01*
X104844047Y-43423809D01*
X104844047Y-43280952D01*
X104891666Y-43090476D01*
X104939285Y-42995238D01*
X105034523Y-42900000D01*
X105177380Y-42852380D01*
X105272619Y-42852380D01*
X105415476Y-42900000D01*
X105463095Y-42947619D01*
X204428095Y-47980000D02*
X204332857Y-47932380D01*
X204190000Y-47932380D01*
X204047142Y-47980000D01*
X203951904Y-48075238D01*
X203904285Y-48170476D01*
X203856666Y-48360952D01*
X203856666Y-48503809D01*
X203904285Y-48694285D01*
X203951904Y-48789523D01*
X204047142Y-48884761D01*
X204190000Y-48932380D01*
X204285238Y-48932380D01*
X204428095Y-48884761D01*
X204475714Y-48837142D01*
X204475714Y-48503809D01*
X204285238Y-48503809D01*
X204904285Y-48932380D02*
X204904285Y-47932380D01*
X205475714Y-48932380D01*
X205475714Y-47932380D01*
X205951904Y-48932380D02*
X205951904Y-47932380D01*
X206190000Y-47932380D01*
X206332857Y-47980000D01*
X206428095Y-48075238D01*
X206475714Y-48170476D01*
X206523333Y-48360952D01*
X206523333Y-48503809D01*
X206475714Y-48694285D01*
X206428095Y-48789523D01*
X206332857Y-48884761D01*
X206190000Y-48932380D01*
X205951904Y-48932380D01*
X103463095Y-40360000D02*
X103367857Y-40312380D01*
X103225000Y-40312380D01*
X103082142Y-40360000D01*
X102986904Y-40455238D01*
X102939285Y-40550476D01*
X102891666Y-40740952D01*
X102891666Y-40883809D01*
X102939285Y-41074285D01*
X102986904Y-41169523D01*
X103082142Y-41264761D01*
X103225000Y-41312380D01*
X103320238Y-41312380D01*
X103463095Y-41264761D01*
X103510714Y-41217142D01*
X103510714Y-40883809D01*
X103320238Y-40883809D01*
X103939285Y-41312380D02*
X103939285Y-40312380D01*
X104510714Y-41312380D01*
X104510714Y-40312380D01*
X104986904Y-41312380D02*
X104986904Y-40312380D01*
X105225000Y-40312380D01*
X105367857Y-40360000D01*
X105463095Y-40455238D01*
X105510714Y-40550476D01*
X105558333Y-40740952D01*
X105558333Y-40883809D01*
X105510714Y-41074285D01*
X105463095Y-41169523D01*
X105367857Y-41264761D01*
X105225000Y-41312380D01*
X104986904Y-41312380D01*
X76952380Y-158152380D02*
X76476190Y-158152380D01*
X76476190Y-157152380D01*
X77857142Y-158057142D02*
X77809523Y-158104761D01*
X77666666Y-158152380D01*
X77571428Y-158152380D01*
X77428571Y-158104761D01*
X77333333Y-158009523D01*
X77285714Y-157914285D01*
X77238095Y-157723809D01*
X77238095Y-157580952D01*
X77285714Y-157390476D01*
X77333333Y-157295238D01*
X77428571Y-157200000D01*
X77571428Y-157152380D01*
X77666666Y-157152380D01*
X77809523Y-157200000D01*
X77857142Y-157247619D01*
X78285714Y-158152380D02*
X78285714Y-157152380D01*
X78523809Y-157152380D01*
X78666666Y-157200000D01*
X78761904Y-157295238D01*
X78809523Y-157390476D01*
X78857142Y-157580952D01*
X78857142Y-157723809D01*
X78809523Y-157914285D01*
X78761904Y-158009523D01*
X78666666Y-158104761D01*
X78523809Y-158152380D01*
X78285714Y-158152380D01*
X80047619Y-157771428D02*
X80809523Y-157771428D01*
X82047619Y-158152380D02*
X82047619Y-157152380D01*
X82285714Y-157152380D01*
X82428571Y-157200000D01*
X82523809Y-157295238D01*
X82571428Y-157390476D01*
X82619047Y-157580952D01*
X82619047Y-157723809D01*
X82571428Y-157914285D01*
X82523809Y-158009523D01*
X82428571Y-158104761D01*
X82285714Y-158152380D01*
X82047619Y-158152380D01*
X83047619Y-158152380D02*
X83047619Y-157152380D01*
X83476190Y-158104761D02*
X83619047Y-158152380D01*
X83857142Y-158152380D01*
X83952380Y-158104761D01*
X84000000Y-158057142D01*
X84047619Y-157961904D01*
X84047619Y-157866666D01*
X84000000Y-157771428D01*
X83952380Y-157723809D01*
X83857142Y-157676190D01*
X83666666Y-157628571D01*
X83571428Y-157580952D01*
X83523809Y-157533333D01*
X83476190Y-157438095D01*
X83476190Y-157342857D01*
X83523809Y-157247619D01*
X83571428Y-157200000D01*
X83666666Y-157152380D01*
X83904761Y-157152380D01*
X84047619Y-157200000D01*
X84476190Y-158152380D02*
X84476190Y-157152380D01*
X84857142Y-157152380D01*
X84952380Y-157200000D01*
X85000000Y-157247619D01*
X85047619Y-157342857D01*
X85047619Y-157485714D01*
X85000000Y-157580952D01*
X84952380Y-157628571D01*
X84857142Y-157676190D01*
X84476190Y-157676190D01*
X85952380Y-158152380D02*
X85476190Y-158152380D01*
X85476190Y-157152380D01*
X86238095Y-157866666D02*
X86714285Y-157866666D01*
X86142857Y-158152380D02*
X86476190Y-157152380D01*
X86809523Y-158152380D01*
X87333333Y-157676190D02*
X87333333Y-158152380D01*
X87000000Y-157152380D02*
X87333333Y-157676190D01*
X87666666Y-157152380D01*
X191156666Y-71427380D02*
X191490000Y-72427380D01*
X191823333Y-71427380D01*
X192728095Y-72332142D02*
X192680476Y-72379761D01*
X192537619Y-72427380D01*
X192442380Y-72427380D01*
X192299523Y-72379761D01*
X192204285Y-72284523D01*
X192156666Y-72189285D01*
X192109047Y-71998809D01*
X192109047Y-71855952D01*
X192156666Y-71665476D01*
X192204285Y-71570238D01*
X192299523Y-71475000D01*
X192442380Y-71427380D01*
X192537619Y-71427380D01*
X192680476Y-71475000D01*
X192728095Y-71522619D01*
X193728095Y-72332142D02*
X193680476Y-72379761D01*
X193537619Y-72427380D01*
X193442380Y-72427380D01*
X193299523Y-72379761D01*
X193204285Y-72284523D01*
X193156666Y-72189285D01*
X193109047Y-71998809D01*
X193109047Y-71855952D01*
X193156666Y-71665476D01*
X193204285Y-71570238D01*
X193299523Y-71475000D01*
X193442380Y-71427380D01*
X193537619Y-71427380D01*
X193680476Y-71475000D01*
X193728095Y-71522619D01*
X203856666Y-46392380D02*
X203856666Y-45392380D01*
X204094761Y-45392380D01*
X204237619Y-45440000D01*
X204332857Y-45535238D01*
X204380476Y-45630476D01*
X204428095Y-45820952D01*
X204428095Y-45963809D01*
X204380476Y-46154285D01*
X204332857Y-46249523D01*
X204237619Y-46344761D01*
X204094761Y-46392380D01*
X203856666Y-46392380D01*
X205618571Y-46392380D02*
X205618571Y-45392380D01*
X206094761Y-45725714D02*
X206094761Y-46392380D01*
X206094761Y-45820952D02*
X206142380Y-45773333D01*
X206237619Y-45725714D01*
X206380476Y-45725714D01*
X206475714Y-45773333D01*
X206523333Y-45868571D01*
X206523333Y-46392380D01*
%TO.C,BZ1*%
X207398571Y-83580952D02*
X207446190Y-83438095D01*
X207493809Y-83390476D01*
X207589047Y-83342857D01*
X207731904Y-83342857D01*
X207827142Y-83390476D01*
X207874761Y-83438095D01*
X207922380Y-83533333D01*
X207922380Y-83914285D01*
X206922380Y-83914285D01*
X206922380Y-83580952D01*
X206970000Y-83485714D01*
X207017619Y-83438095D01*
X207112857Y-83390476D01*
X207208095Y-83390476D01*
X207303333Y-83438095D01*
X207350952Y-83485714D01*
X207398571Y-83580952D01*
X207398571Y-83914285D01*
X206922380Y-83009523D02*
X206922380Y-82342857D01*
X207922380Y-83009523D01*
X207922380Y-82342857D01*
X207922380Y-81438095D02*
X207922380Y-82009523D01*
X207922380Y-81723809D02*
X206922380Y-81723809D01*
X207065238Y-81819047D01*
X207160476Y-81914285D01*
X207208095Y-82009523D01*
X202881428Y-79270952D02*
X202881428Y-78509047D01*
X203262380Y-78890000D02*
X202500476Y-78890000D01*
%TO.C,U3-MQ6*%
X169217619Y-31852380D02*
X169217619Y-32661904D01*
X169265238Y-32757142D01*
X169312857Y-32804761D01*
X169408095Y-32852380D01*
X169598571Y-32852380D01*
X169693809Y-32804761D01*
X169741428Y-32757142D01*
X169789047Y-32661904D01*
X169789047Y-31852380D01*
X170170000Y-31852380D02*
X170789047Y-31852380D01*
X170455714Y-32233333D01*
X170598571Y-32233333D01*
X170693809Y-32280952D01*
X170741428Y-32328571D01*
X170789047Y-32423809D01*
X170789047Y-32661904D01*
X170741428Y-32757142D01*
X170693809Y-32804761D01*
X170598571Y-32852380D01*
X170312857Y-32852380D01*
X170217619Y-32804761D01*
X170170000Y-32757142D01*
X171217619Y-32471428D02*
X171979523Y-32471428D01*
X172455714Y-32852380D02*
X172455714Y-31852380D01*
X172789047Y-32566666D01*
X173122380Y-31852380D01*
X173122380Y-32852380D01*
X174265238Y-32947619D02*
X174170000Y-32900000D01*
X174074761Y-32804761D01*
X173931904Y-32661904D01*
X173836666Y-32614285D01*
X173741428Y-32614285D01*
X173789047Y-32852380D02*
X173693809Y-32804761D01*
X173598571Y-32709523D01*
X173550952Y-32519047D01*
X173550952Y-32185714D01*
X173598571Y-31995238D01*
X173693809Y-31900000D01*
X173789047Y-31852380D01*
X173979523Y-31852380D01*
X174074761Y-31900000D01*
X174170000Y-31995238D01*
X174217619Y-32185714D01*
X174217619Y-32519047D01*
X174170000Y-32709523D01*
X174074761Y-32804761D01*
X173979523Y-32852380D01*
X173789047Y-32852380D01*
X175074761Y-31852380D02*
X174884285Y-31852380D01*
X174789047Y-31900000D01*
X174741428Y-31947619D01*
X174646190Y-32090476D01*
X174598571Y-32280952D01*
X174598571Y-32661904D01*
X174646190Y-32757142D01*
X174693809Y-32804761D01*
X174789047Y-32852380D01*
X174979523Y-32852380D01*
X175074761Y-32804761D01*
X175122380Y-32757142D01*
X175170000Y-32661904D01*
X175170000Y-32423809D01*
X175122380Y-32328571D01*
X175074761Y-32280952D01*
X174979523Y-32233333D01*
X174789047Y-32233333D01*
X174693809Y-32280952D01*
X174646190Y-32328571D01*
X174598571Y-32423809D01*
%TO.C,R1*%
X158392380Y-72261907D02*
X157916190Y-72595241D01*
X158392380Y-72833336D02*
X157392380Y-72833336D01*
X157392380Y-72452383D01*
X157440000Y-72357145D01*
X157487619Y-72309526D01*
X157582857Y-72261907D01*
X157725714Y-72261907D01*
X157820952Y-72309526D01*
X157868571Y-72357145D01*
X157916190Y-72452383D01*
X157916190Y-72833336D01*
X158392380Y-71309526D02*
X158392380Y-71880955D01*
X158392380Y-71595241D02*
X157392380Y-71595241D01*
X157535238Y-71690479D01*
X157630476Y-71785717D01*
X157678095Y-71880955D01*
%TO.C,C2*%
X113977142Y-54166666D02*
X114024761Y-54214285D01*
X114072380Y-54357142D01*
X114072380Y-54452380D01*
X114024761Y-54595238D01*
X113929523Y-54690476D01*
X113834285Y-54738095D01*
X113643809Y-54785714D01*
X113500952Y-54785714D01*
X113310476Y-54738095D01*
X113215238Y-54690476D01*
X113120000Y-54595238D01*
X113072380Y-54452380D01*
X113072380Y-54357142D01*
X113120000Y-54214285D01*
X113167619Y-54166666D01*
X113167619Y-53785714D02*
X113120000Y-53738095D01*
X113072380Y-53642857D01*
X113072380Y-53404761D01*
X113120000Y-53309523D01*
X113167619Y-53261904D01*
X113262857Y-53214285D01*
X113358095Y-53214285D01*
X113500952Y-53261904D01*
X114072380Y-53833333D01*
X114072380Y-53214285D01*
%TO.C,J1*%
X77186666Y-62444880D02*
X77186666Y-63159166D01*
X77139047Y-63302023D01*
X77043809Y-63397261D01*
X76900952Y-63444880D01*
X76805714Y-63444880D01*
X78186666Y-63444880D02*
X77615238Y-63444880D01*
X77900952Y-63444880D02*
X77900952Y-62444880D01*
X77805714Y-62587738D01*
X77710476Y-62682976D01*
X77615238Y-62730595D01*
%TO.C,R5*%
X189252380Y-99366666D02*
X188776190Y-99700000D01*
X189252380Y-99938095D02*
X188252380Y-99938095D01*
X188252380Y-99557142D01*
X188300000Y-99461904D01*
X188347619Y-99414285D01*
X188442857Y-99366666D01*
X188585714Y-99366666D01*
X188680952Y-99414285D01*
X188728571Y-99461904D01*
X188776190Y-99557142D01*
X188776190Y-99938095D01*
X188252380Y-98461904D02*
X188252380Y-98938095D01*
X188728571Y-98985714D01*
X188680952Y-98938095D01*
X188633333Y-98842857D01*
X188633333Y-98604761D01*
X188680952Y-98509523D01*
X188728571Y-98461904D01*
X188823809Y-98414285D01*
X189061904Y-98414285D01*
X189157142Y-98461904D01*
X189204761Y-98509523D01*
X189252380Y-98604761D01*
X189252380Y-98842857D01*
X189204761Y-98938095D01*
X189157142Y-98985714D01*
%TO.C,R4*%
X188952380Y-126966666D02*
X188476190Y-127300000D01*
X188952380Y-127538095D02*
X187952380Y-127538095D01*
X187952380Y-127157142D01*
X188000000Y-127061904D01*
X188047619Y-127014285D01*
X188142857Y-126966666D01*
X188285714Y-126966666D01*
X188380952Y-127014285D01*
X188428571Y-127061904D01*
X188476190Y-127157142D01*
X188476190Y-127538095D01*
X188285714Y-126109523D02*
X188952380Y-126109523D01*
X187904761Y-126347619D02*
X188619047Y-126585714D01*
X188619047Y-125966666D01*
%TO.C,R2*%
X99162380Y-40666666D02*
X98686190Y-41000000D01*
X99162380Y-41238095D02*
X98162380Y-41238095D01*
X98162380Y-40857142D01*
X98210000Y-40761904D01*
X98257619Y-40714285D01*
X98352857Y-40666666D01*
X98495714Y-40666666D01*
X98590952Y-40714285D01*
X98638571Y-40761904D01*
X98686190Y-40857142D01*
X98686190Y-41238095D01*
X98257619Y-40285714D02*
X98210000Y-40238095D01*
X98162380Y-40142857D01*
X98162380Y-39904761D01*
X98210000Y-39809523D01*
X98257619Y-39761904D01*
X98352857Y-39714285D01*
X98448095Y-39714285D01*
X98590952Y-39761904D01*
X99162380Y-40333333D01*
X99162380Y-39714285D01*
%TO.C,J2-IR1*%
X89093333Y-35097380D02*
X89093333Y-35811666D01*
X89045714Y-35954523D01*
X88950476Y-36049761D01*
X88807619Y-36097380D01*
X88712380Y-36097380D01*
X89521904Y-35192619D02*
X89569523Y-35145000D01*
X89664761Y-35097380D01*
X89902857Y-35097380D01*
X89998095Y-35145000D01*
X90045714Y-35192619D01*
X90093333Y-35287857D01*
X90093333Y-35383095D01*
X90045714Y-35525952D01*
X89474285Y-36097380D01*
X90093333Y-36097380D01*
X90521904Y-35716428D02*
X91283809Y-35716428D01*
X91760000Y-36097380D02*
X91760000Y-35097380D01*
X92807619Y-36097380D02*
X92474285Y-35621190D01*
X92236190Y-36097380D02*
X92236190Y-35097380D01*
X92617142Y-35097380D01*
X92712380Y-35145000D01*
X92760000Y-35192619D01*
X92807619Y-35287857D01*
X92807619Y-35430714D01*
X92760000Y-35525952D01*
X92712380Y-35573571D01*
X92617142Y-35621190D01*
X92236190Y-35621190D01*
X93760000Y-36097380D02*
X93188571Y-36097380D01*
X93474285Y-36097380D02*
X93474285Y-35097380D01*
X93379047Y-35240238D01*
X93283809Y-35335476D01*
X93188571Y-35383095D01*
%TO.C,J4-MQ7*%
X186156190Y-60842380D02*
X186156190Y-61556666D01*
X186108571Y-61699523D01*
X186013333Y-61794761D01*
X185870476Y-61842380D01*
X185775238Y-61842380D01*
X187060952Y-61175714D02*
X187060952Y-61842380D01*
X186822857Y-60794761D02*
X186584761Y-61509047D01*
X187203809Y-61509047D01*
X187584761Y-61461428D02*
X188346666Y-61461428D01*
X188822857Y-61842380D02*
X188822857Y-60842380D01*
X189156190Y-61556666D01*
X189489523Y-60842380D01*
X189489523Y-61842380D01*
X190632380Y-61937619D02*
X190537142Y-61890000D01*
X190441904Y-61794761D01*
X190299047Y-61651904D01*
X190203809Y-61604285D01*
X190108571Y-61604285D01*
X190156190Y-61842380D02*
X190060952Y-61794761D01*
X189965714Y-61699523D01*
X189918095Y-61509047D01*
X189918095Y-61175714D01*
X189965714Y-60985238D01*
X190060952Y-60890000D01*
X190156190Y-60842380D01*
X190346666Y-60842380D01*
X190441904Y-60890000D01*
X190537142Y-60985238D01*
X190584761Y-61175714D01*
X190584761Y-61509047D01*
X190537142Y-61699523D01*
X190441904Y-61794761D01*
X190346666Y-61842380D01*
X190156190Y-61842380D01*
X190918095Y-60842380D02*
X191584761Y-60842380D01*
X191156190Y-61842380D01*
%TO.C,J8-LCD_Source1*%
X118148095Y-153342380D02*
X118148095Y-154056666D01*
X118100476Y-154199523D01*
X118005238Y-154294761D01*
X117862380Y-154342380D01*
X117767142Y-154342380D01*
X118767142Y-153770952D02*
X118671904Y-153723333D01*
X118624285Y-153675714D01*
X118576666Y-153580476D01*
X118576666Y-153532857D01*
X118624285Y-153437619D01*
X118671904Y-153390000D01*
X118767142Y-153342380D01*
X118957619Y-153342380D01*
X119052857Y-153390000D01*
X119100476Y-153437619D01*
X119148095Y-153532857D01*
X119148095Y-153580476D01*
X119100476Y-153675714D01*
X119052857Y-153723333D01*
X118957619Y-153770952D01*
X118767142Y-153770952D01*
X118671904Y-153818571D01*
X118624285Y-153866190D01*
X118576666Y-153961428D01*
X118576666Y-154151904D01*
X118624285Y-154247142D01*
X118671904Y-154294761D01*
X118767142Y-154342380D01*
X118957619Y-154342380D01*
X119052857Y-154294761D01*
X119100476Y-154247142D01*
X119148095Y-154151904D01*
X119148095Y-153961428D01*
X119100476Y-153866190D01*
X119052857Y-153818571D01*
X118957619Y-153770952D01*
X119576666Y-153961428D02*
X120338571Y-153961428D01*
X121290952Y-154342380D02*
X120814761Y-154342380D01*
X120814761Y-153342380D01*
X122195714Y-154247142D02*
X122148095Y-154294761D01*
X122005238Y-154342380D01*
X121910000Y-154342380D01*
X121767142Y-154294761D01*
X121671904Y-154199523D01*
X121624285Y-154104285D01*
X121576666Y-153913809D01*
X121576666Y-153770952D01*
X121624285Y-153580476D01*
X121671904Y-153485238D01*
X121767142Y-153390000D01*
X121910000Y-153342380D01*
X122005238Y-153342380D01*
X122148095Y-153390000D01*
X122195714Y-153437619D01*
X122624285Y-154342380D02*
X122624285Y-153342380D01*
X122862380Y-153342380D01*
X123005238Y-153390000D01*
X123100476Y-153485238D01*
X123148095Y-153580476D01*
X123195714Y-153770952D01*
X123195714Y-153913809D01*
X123148095Y-154104285D01*
X123100476Y-154199523D01*
X123005238Y-154294761D01*
X122862380Y-154342380D01*
X122624285Y-154342380D01*
X123386190Y-154437619D02*
X124148095Y-154437619D01*
X124338571Y-154294761D02*
X124481428Y-154342380D01*
X124719523Y-154342380D01*
X124814761Y-154294761D01*
X124862380Y-154247142D01*
X124910000Y-154151904D01*
X124910000Y-154056666D01*
X124862380Y-153961428D01*
X124814761Y-153913809D01*
X124719523Y-153866190D01*
X124529047Y-153818571D01*
X124433809Y-153770952D01*
X124386190Y-153723333D01*
X124338571Y-153628095D01*
X124338571Y-153532857D01*
X124386190Y-153437619D01*
X124433809Y-153390000D01*
X124529047Y-153342380D01*
X124767142Y-153342380D01*
X124910000Y-153390000D01*
X125481428Y-154342380D02*
X125386190Y-154294761D01*
X125338571Y-154247142D01*
X125290952Y-154151904D01*
X125290952Y-153866190D01*
X125338571Y-153770952D01*
X125386190Y-153723333D01*
X125481428Y-153675714D01*
X125624285Y-153675714D01*
X125719523Y-153723333D01*
X125767142Y-153770952D01*
X125814761Y-153866190D01*
X125814761Y-154151904D01*
X125767142Y-154247142D01*
X125719523Y-154294761D01*
X125624285Y-154342380D01*
X125481428Y-154342380D01*
X126671904Y-153675714D02*
X126671904Y-154342380D01*
X126243333Y-153675714D02*
X126243333Y-154199523D01*
X126290952Y-154294761D01*
X126386190Y-154342380D01*
X126529047Y-154342380D01*
X126624285Y-154294761D01*
X126671904Y-154247142D01*
X127148095Y-154342380D02*
X127148095Y-153675714D01*
X127148095Y-153866190D02*
X127195714Y-153770952D01*
X127243333Y-153723333D01*
X127338571Y-153675714D01*
X127433809Y-153675714D01*
X128195714Y-154294761D02*
X128100476Y-154342380D01*
X127910000Y-154342380D01*
X127814761Y-154294761D01*
X127767142Y-154247142D01*
X127719523Y-154151904D01*
X127719523Y-153866190D01*
X127767142Y-153770952D01*
X127814761Y-153723333D01*
X127910000Y-153675714D01*
X128100476Y-153675714D01*
X128195714Y-153723333D01*
X129005238Y-154294761D02*
X128910000Y-154342380D01*
X128719523Y-154342380D01*
X128624285Y-154294761D01*
X128576666Y-154199523D01*
X128576666Y-153818571D01*
X128624285Y-153723333D01*
X128719523Y-153675714D01*
X128910000Y-153675714D01*
X129005238Y-153723333D01*
X129052857Y-153818571D01*
X129052857Y-153913809D01*
X128576666Y-154009047D01*
X130005238Y-154342380D02*
X129433809Y-154342380D01*
X129719523Y-154342380D02*
X129719523Y-153342380D01*
X129624285Y-153485238D01*
X129529047Y-153580476D01*
X129433809Y-153628095D01*
%TO.C,C3*%
X130253333Y-71357142D02*
X130205714Y-71404761D01*
X130062857Y-71452380D01*
X129967619Y-71452380D01*
X129824761Y-71404761D01*
X129729523Y-71309523D01*
X129681904Y-71214285D01*
X129634285Y-71023809D01*
X129634285Y-70880952D01*
X129681904Y-70690476D01*
X129729523Y-70595238D01*
X129824761Y-70500000D01*
X129967619Y-70452380D01*
X130062857Y-70452380D01*
X130205714Y-70500000D01*
X130253333Y-70547619D01*
X130586666Y-70452380D02*
X131205714Y-70452380D01*
X130872380Y-70833333D01*
X131015238Y-70833333D01*
X131110476Y-70880952D01*
X131158095Y-70928571D01*
X131205714Y-71023809D01*
X131205714Y-71261904D01*
X131158095Y-71357142D01*
X131110476Y-71404761D01*
X131015238Y-71452380D01*
X130729523Y-71452380D01*
X130634285Y-71404761D01*
X130586666Y-71357142D01*
%TO.C,C4*%
X130253333Y-64122142D02*
X130205714Y-64169761D01*
X130062857Y-64217380D01*
X129967619Y-64217380D01*
X129824761Y-64169761D01*
X129729523Y-64074523D01*
X129681904Y-63979285D01*
X129634285Y-63788809D01*
X129634285Y-63645952D01*
X129681904Y-63455476D01*
X129729523Y-63360238D01*
X129824761Y-63265000D01*
X129967619Y-63217380D01*
X130062857Y-63217380D01*
X130205714Y-63265000D01*
X130253333Y-63312619D01*
X131110476Y-63550714D02*
X131110476Y-64217380D01*
X130872380Y-63169761D02*
X130634285Y-63884047D01*
X131253333Y-63884047D01*
%TO.C,*%
%TO.C,U2*%
X140992380Y-61301904D02*
X141801904Y-61301904D01*
X141897142Y-61254285D01*
X141944761Y-61206666D01*
X141992380Y-61111428D01*
X141992380Y-60920952D01*
X141944761Y-60825714D01*
X141897142Y-60778095D01*
X141801904Y-60730476D01*
X140992380Y-60730476D01*
X141087619Y-60301904D02*
X141040000Y-60254285D01*
X140992380Y-60159047D01*
X140992380Y-59920952D01*
X141040000Y-59825714D01*
X141087619Y-59778095D01*
X141182857Y-59730476D01*
X141278095Y-59730476D01*
X141420952Y-59778095D01*
X141992380Y-60349523D01*
X141992380Y-59730476D01*
%TO.C,J11-Reset1*%
X199617619Y-115102380D02*
X199617619Y-115816666D01*
X199570000Y-115959523D01*
X199474761Y-116054761D01*
X199331904Y-116102380D01*
X199236666Y-116102380D01*
X200617619Y-116102380D02*
X200046190Y-116102380D01*
X200331904Y-116102380D02*
X200331904Y-115102380D01*
X200236666Y-115245238D01*
X200141428Y-115340476D01*
X200046190Y-115388095D01*
X201570000Y-116102380D02*
X200998571Y-116102380D01*
X201284285Y-116102380D02*
X201284285Y-115102380D01*
X201189047Y-115245238D01*
X201093809Y-115340476D01*
X200998571Y-115388095D01*
X201998571Y-115721428D02*
X202760476Y-115721428D01*
X203808095Y-116102380D02*
X203474761Y-115626190D01*
X203236666Y-116102380D02*
X203236666Y-115102380D01*
X203617619Y-115102380D01*
X203712857Y-115150000D01*
X203760476Y-115197619D01*
X203808095Y-115292857D01*
X203808095Y-115435714D01*
X203760476Y-115530952D01*
X203712857Y-115578571D01*
X203617619Y-115626190D01*
X203236666Y-115626190D01*
X204617619Y-116054761D02*
X204522380Y-116102380D01*
X204331904Y-116102380D01*
X204236666Y-116054761D01*
X204189047Y-115959523D01*
X204189047Y-115578571D01*
X204236666Y-115483333D01*
X204331904Y-115435714D01*
X204522380Y-115435714D01*
X204617619Y-115483333D01*
X204665238Y-115578571D01*
X204665238Y-115673809D01*
X204189047Y-115769047D01*
X205046190Y-116054761D02*
X205141428Y-116102380D01*
X205331904Y-116102380D01*
X205427142Y-116054761D01*
X205474761Y-115959523D01*
X205474761Y-115911904D01*
X205427142Y-115816666D01*
X205331904Y-115769047D01*
X205189047Y-115769047D01*
X205093809Y-115721428D01*
X205046190Y-115626190D01*
X205046190Y-115578571D01*
X205093809Y-115483333D01*
X205189047Y-115435714D01*
X205331904Y-115435714D01*
X205427142Y-115483333D01*
X206284285Y-116054761D02*
X206189047Y-116102380D01*
X205998571Y-116102380D01*
X205903333Y-116054761D01*
X205855714Y-115959523D01*
X205855714Y-115578571D01*
X205903333Y-115483333D01*
X205998571Y-115435714D01*
X206189047Y-115435714D01*
X206284285Y-115483333D01*
X206331904Y-115578571D01*
X206331904Y-115673809D01*
X205855714Y-115769047D01*
X206617619Y-115435714D02*
X206998571Y-115435714D01*
X206760476Y-115102380D02*
X206760476Y-115959523D01*
X206808095Y-116054761D01*
X206903333Y-116102380D01*
X206998571Y-116102380D01*
X207855714Y-116102380D02*
X207284285Y-116102380D01*
X207570000Y-116102380D02*
X207570000Y-115102380D01*
X207474761Y-115245238D01*
X207379523Y-115340476D01*
X207284285Y-115388095D01*
%TO.C,J7-LCD_Digital_Pins_1*%
X136230000Y-111432380D02*
X136230000Y-112146666D01*
X136182380Y-112289523D01*
X136087142Y-112384761D01*
X135944285Y-112432380D01*
X135849047Y-112432380D01*
X136610952Y-111432380D02*
X137277619Y-111432380D01*
X136849047Y-112432380D01*
X137658571Y-112051428D02*
X138420476Y-112051428D01*
X139372857Y-112432380D02*
X138896666Y-112432380D01*
X138896666Y-111432380D01*
X140277619Y-112337142D02*
X140230000Y-112384761D01*
X140087142Y-112432380D01*
X139991904Y-112432380D01*
X139849047Y-112384761D01*
X139753809Y-112289523D01*
X139706190Y-112194285D01*
X139658571Y-112003809D01*
X139658571Y-111860952D01*
X139706190Y-111670476D01*
X139753809Y-111575238D01*
X139849047Y-111480000D01*
X139991904Y-111432380D01*
X140087142Y-111432380D01*
X140230000Y-111480000D01*
X140277619Y-111527619D01*
X140706190Y-112432380D02*
X140706190Y-111432380D01*
X140944285Y-111432380D01*
X141087142Y-111480000D01*
X141182380Y-111575238D01*
X141230000Y-111670476D01*
X141277619Y-111860952D01*
X141277619Y-112003809D01*
X141230000Y-112194285D01*
X141182380Y-112289523D01*
X141087142Y-112384761D01*
X140944285Y-112432380D01*
X140706190Y-112432380D01*
X141468095Y-112527619D02*
X142230000Y-112527619D01*
X142468095Y-112432380D02*
X142468095Y-111432380D01*
X142706190Y-111432380D01*
X142849047Y-111480000D01*
X142944285Y-111575238D01*
X142991904Y-111670476D01*
X143039523Y-111860952D01*
X143039523Y-112003809D01*
X142991904Y-112194285D01*
X142944285Y-112289523D01*
X142849047Y-112384761D01*
X142706190Y-112432380D01*
X142468095Y-112432380D01*
X143468095Y-112432380D02*
X143468095Y-111765714D01*
X143468095Y-111432380D02*
X143420476Y-111480000D01*
X143468095Y-111527619D01*
X143515714Y-111480000D01*
X143468095Y-111432380D01*
X143468095Y-111527619D01*
X144372857Y-111765714D02*
X144372857Y-112575238D01*
X144325238Y-112670476D01*
X144277619Y-112718095D01*
X144182380Y-112765714D01*
X144039523Y-112765714D01*
X143944285Y-112718095D01*
X144372857Y-112384761D02*
X144277619Y-112432380D01*
X144087142Y-112432380D01*
X143991904Y-112384761D01*
X143944285Y-112337142D01*
X143896666Y-112241904D01*
X143896666Y-111956190D01*
X143944285Y-111860952D01*
X143991904Y-111813333D01*
X144087142Y-111765714D01*
X144277619Y-111765714D01*
X144372857Y-111813333D01*
X144849047Y-112432380D02*
X144849047Y-111765714D01*
X144849047Y-111432380D02*
X144801428Y-111480000D01*
X144849047Y-111527619D01*
X144896666Y-111480000D01*
X144849047Y-111432380D01*
X144849047Y-111527619D01*
X145182380Y-111765714D02*
X145563333Y-111765714D01*
X145325238Y-111432380D02*
X145325238Y-112289523D01*
X145372857Y-112384761D01*
X145468095Y-112432380D01*
X145563333Y-112432380D01*
X146325238Y-112432380D02*
X146325238Y-111908571D01*
X146277619Y-111813333D01*
X146182380Y-111765714D01*
X145991904Y-111765714D01*
X145896666Y-111813333D01*
X146325238Y-112384761D02*
X146230000Y-112432380D01*
X145991904Y-112432380D01*
X145896666Y-112384761D01*
X145849047Y-112289523D01*
X145849047Y-112194285D01*
X145896666Y-112099047D01*
X145991904Y-112051428D01*
X146230000Y-112051428D01*
X146325238Y-112003809D01*
X146944285Y-112432380D02*
X146849047Y-112384761D01*
X146801428Y-112289523D01*
X146801428Y-111432380D01*
X147087142Y-112527619D02*
X147849047Y-112527619D01*
X148087142Y-112432380D02*
X148087142Y-111432380D01*
X148468095Y-111432380D01*
X148563333Y-111480000D01*
X148610952Y-111527619D01*
X148658571Y-111622857D01*
X148658571Y-111765714D01*
X148610952Y-111860952D01*
X148563333Y-111908571D01*
X148468095Y-111956190D01*
X148087142Y-111956190D01*
X149087142Y-112432380D02*
X149087142Y-111765714D01*
X149087142Y-111432380D02*
X149039523Y-111480000D01*
X149087142Y-111527619D01*
X149134761Y-111480000D01*
X149087142Y-111432380D01*
X149087142Y-111527619D01*
X149563333Y-111765714D02*
X149563333Y-112432380D01*
X149563333Y-111860952D02*
X149610952Y-111813333D01*
X149706190Y-111765714D01*
X149849047Y-111765714D01*
X149944285Y-111813333D01*
X149991904Y-111908571D01*
X149991904Y-112432380D01*
X150420476Y-112384761D02*
X150515714Y-112432380D01*
X150706190Y-112432380D01*
X150801428Y-112384761D01*
X150849047Y-112289523D01*
X150849047Y-112241904D01*
X150801428Y-112146666D01*
X150706190Y-112099047D01*
X150563333Y-112099047D01*
X150468095Y-112051428D01*
X150420476Y-111956190D01*
X150420476Y-111908571D01*
X150468095Y-111813333D01*
X150563333Y-111765714D01*
X150706190Y-111765714D01*
X150801428Y-111813333D01*
X151039523Y-112527619D02*
X151801428Y-112527619D01*
X152563333Y-112432380D02*
X151991904Y-112432380D01*
X152277619Y-112432380D02*
X152277619Y-111432380D01*
X152182380Y-111575238D01*
X152087142Y-111670476D01*
X151991904Y-111718095D01*
%TO.C,Q1*%
X158567619Y-95050479D02*
X158520000Y-95145717D01*
X158424761Y-95240955D01*
X158281904Y-95383812D01*
X158234285Y-95479050D01*
X158234285Y-95574288D01*
X158472380Y-95526669D02*
X158424761Y-95621907D01*
X158329523Y-95717145D01*
X158139047Y-95764764D01*
X157805714Y-95764764D01*
X157615238Y-95717145D01*
X157520000Y-95621907D01*
X157472380Y-95526669D01*
X157472380Y-95336193D01*
X157520000Y-95240955D01*
X157615238Y-95145717D01*
X157805714Y-95098098D01*
X158139047Y-95098098D01*
X158329523Y-95145717D01*
X158424761Y-95240955D01*
X158472380Y-95336193D01*
X158472380Y-95526669D01*
X158472380Y-94145717D02*
X158472380Y-94717145D01*
X158472380Y-94431431D02*
X157472380Y-94431431D01*
X157615238Y-94526669D01*
X157710476Y-94621907D01*
X157758095Y-94717145D01*
%TO.C,Y1*%
X145191190Y-79436190D02*
X145667380Y-79436190D01*
X144667380Y-79769523D02*
X145191190Y-79436190D01*
X144667380Y-79102857D01*
X145667380Y-78245714D02*
X145667380Y-78817142D01*
X145667380Y-78531428D02*
X144667380Y-78531428D01*
X144810238Y-78626666D01*
X144905476Y-78721904D01*
X144953095Y-78817142D01*
%TO.C,J5-MQ4*%
X198856190Y-40522380D02*
X198856190Y-41236666D01*
X198808571Y-41379523D01*
X198713333Y-41474761D01*
X198570476Y-41522380D01*
X198475238Y-41522380D01*
X199808571Y-40522380D02*
X199332380Y-40522380D01*
X199284761Y-40998571D01*
X199332380Y-40950952D01*
X199427619Y-40903333D01*
X199665714Y-40903333D01*
X199760952Y-40950952D01*
X199808571Y-40998571D01*
X199856190Y-41093809D01*
X199856190Y-41331904D01*
X199808571Y-41427142D01*
X199760952Y-41474761D01*
X199665714Y-41522380D01*
X199427619Y-41522380D01*
X199332380Y-41474761D01*
X199284761Y-41427142D01*
X200284761Y-41141428D02*
X201046666Y-41141428D01*
X201522857Y-41522380D02*
X201522857Y-40522380D01*
X201856190Y-41236666D01*
X202189523Y-40522380D01*
X202189523Y-41522380D01*
X203332380Y-41617619D02*
X203237142Y-41570000D01*
X203141904Y-41474761D01*
X202999047Y-41331904D01*
X202903809Y-41284285D01*
X202808571Y-41284285D01*
X202856190Y-41522380D02*
X202760952Y-41474761D01*
X202665714Y-41379523D01*
X202618095Y-41189047D01*
X202618095Y-40855714D01*
X202665714Y-40665238D01*
X202760952Y-40570000D01*
X202856190Y-40522380D01*
X203046666Y-40522380D01*
X203141904Y-40570000D01*
X203237142Y-40665238D01*
X203284761Y-40855714D01*
X203284761Y-41189047D01*
X203237142Y-41379523D01*
X203141904Y-41474761D01*
X203046666Y-41522380D01*
X202856190Y-41522380D01*
X204141904Y-40855714D02*
X204141904Y-41522380D01*
X203903809Y-40474761D02*
X203665714Y-41189047D01*
X204284761Y-41189047D01*
%TO.C,J10-Botton_On/Off1*%
X196160476Y-102302380D02*
X196160476Y-103016666D01*
X196112857Y-103159523D01*
X196017619Y-103254761D01*
X195874761Y-103302380D01*
X195779523Y-103302380D01*
X197160476Y-103302380D02*
X196589047Y-103302380D01*
X196874761Y-103302380D02*
X196874761Y-102302380D01*
X196779523Y-102445238D01*
X196684285Y-102540476D01*
X196589047Y-102588095D01*
X197779523Y-102302380D02*
X197874761Y-102302380D01*
X197970000Y-102350000D01*
X198017619Y-102397619D01*
X198065238Y-102492857D01*
X198112857Y-102683333D01*
X198112857Y-102921428D01*
X198065238Y-103111904D01*
X198017619Y-103207142D01*
X197970000Y-103254761D01*
X197874761Y-103302380D01*
X197779523Y-103302380D01*
X197684285Y-103254761D01*
X197636666Y-103207142D01*
X197589047Y-103111904D01*
X197541428Y-102921428D01*
X197541428Y-102683333D01*
X197589047Y-102492857D01*
X197636666Y-102397619D01*
X197684285Y-102350000D01*
X197779523Y-102302380D01*
X198541428Y-102921428D02*
X199303333Y-102921428D01*
X200112857Y-102778571D02*
X200255714Y-102826190D01*
X200303333Y-102873809D01*
X200350952Y-102969047D01*
X200350952Y-103111904D01*
X200303333Y-103207142D01*
X200255714Y-103254761D01*
X200160476Y-103302380D01*
X199779523Y-103302380D01*
X199779523Y-102302380D01*
X200112857Y-102302380D01*
X200208095Y-102350000D01*
X200255714Y-102397619D01*
X200303333Y-102492857D01*
X200303333Y-102588095D01*
X200255714Y-102683333D01*
X200208095Y-102730952D01*
X200112857Y-102778571D01*
X199779523Y-102778571D01*
X200922380Y-103302380D02*
X200827142Y-103254761D01*
X200779523Y-103207142D01*
X200731904Y-103111904D01*
X200731904Y-102826190D01*
X200779523Y-102730952D01*
X200827142Y-102683333D01*
X200922380Y-102635714D01*
X201065238Y-102635714D01*
X201160476Y-102683333D01*
X201208095Y-102730952D01*
X201255714Y-102826190D01*
X201255714Y-103111904D01*
X201208095Y-103207142D01*
X201160476Y-103254761D01*
X201065238Y-103302380D01*
X200922380Y-103302380D01*
X201541428Y-102635714D02*
X201922380Y-102635714D01*
X201684285Y-102302380D02*
X201684285Y-103159523D01*
X201731904Y-103254761D01*
X201827142Y-103302380D01*
X201922380Y-103302380D01*
X202112857Y-102635714D02*
X202493809Y-102635714D01*
X202255714Y-102302380D02*
X202255714Y-103159523D01*
X202303333Y-103254761D01*
X202398571Y-103302380D01*
X202493809Y-103302380D01*
X202970000Y-103302380D02*
X202874761Y-103254761D01*
X202827142Y-103207142D01*
X202779523Y-103111904D01*
X202779523Y-102826190D01*
X202827142Y-102730952D01*
X202874761Y-102683333D01*
X202970000Y-102635714D01*
X203112857Y-102635714D01*
X203208095Y-102683333D01*
X203255714Y-102730952D01*
X203303333Y-102826190D01*
X203303333Y-103111904D01*
X203255714Y-103207142D01*
X203208095Y-103254761D01*
X203112857Y-103302380D01*
X202970000Y-103302380D01*
X203731904Y-102635714D02*
X203731904Y-103302380D01*
X203731904Y-102730952D02*
X203779523Y-102683333D01*
X203874761Y-102635714D01*
X204017619Y-102635714D01*
X204112857Y-102683333D01*
X204160476Y-102778571D01*
X204160476Y-103302380D01*
X204398571Y-103397619D02*
X205160476Y-103397619D01*
X205589047Y-102302380D02*
X205779523Y-102302380D01*
X205874761Y-102350000D01*
X205970000Y-102445238D01*
X206017619Y-102635714D01*
X206017619Y-102969047D01*
X205970000Y-103159523D01*
X205874761Y-103254761D01*
X205779523Y-103302380D01*
X205589047Y-103302380D01*
X205493809Y-103254761D01*
X205398571Y-103159523D01*
X205350952Y-102969047D01*
X205350952Y-102635714D01*
X205398571Y-102445238D01*
X205493809Y-102350000D01*
X205589047Y-102302380D01*
X206446190Y-102635714D02*
X206446190Y-103302380D01*
X206446190Y-102730952D02*
X206493809Y-102683333D01*
X206589047Y-102635714D01*
X206731904Y-102635714D01*
X206827142Y-102683333D01*
X206874761Y-102778571D01*
X206874761Y-103302380D01*
X208065238Y-102254761D02*
X207208095Y-103540476D01*
X208589047Y-102302380D02*
X208779523Y-102302380D01*
X208874761Y-102350000D01*
X208970000Y-102445238D01*
X209017619Y-102635714D01*
X209017619Y-102969047D01*
X208970000Y-103159523D01*
X208874761Y-103254761D01*
X208779523Y-103302380D01*
X208589047Y-103302380D01*
X208493809Y-103254761D01*
X208398571Y-103159523D01*
X208350952Y-102969047D01*
X208350952Y-102635714D01*
X208398571Y-102445238D01*
X208493809Y-102350000D01*
X208589047Y-102302380D01*
X209303333Y-102635714D02*
X209684285Y-102635714D01*
X209446190Y-103302380D02*
X209446190Y-102445238D01*
X209493809Y-102350000D01*
X209589047Y-102302380D01*
X209684285Y-102302380D01*
X209874761Y-102635714D02*
X210255714Y-102635714D01*
X210017619Y-103302380D02*
X210017619Y-102445238D01*
X210065238Y-102350000D01*
X210160476Y-102302380D01*
X210255714Y-102302380D01*
X211112857Y-103302380D02*
X210541428Y-103302380D01*
X210827142Y-103302380D02*
X210827142Y-102302380D01*
X210731904Y-102445238D01*
X210636666Y-102540476D01*
X210541428Y-102588095D01*
%TO.C,U1*%
X106638095Y-61787380D02*
X106638095Y-62596904D01*
X106685714Y-62692142D01*
X106733333Y-62739761D01*
X106828571Y-62787380D01*
X107019047Y-62787380D01*
X107114285Y-62739761D01*
X107161904Y-62692142D01*
X107209523Y-62596904D01*
X107209523Y-61787380D01*
X108209523Y-62787380D02*
X107638095Y-62787380D01*
X107923809Y-62787380D02*
X107923809Y-61787380D01*
X107828571Y-61930238D01*
X107733333Y-62025476D01*
X107638095Y-62073095D01*
%TO.C,J3-IR2*%
X105403333Y-44822380D02*
X105403333Y-45536666D01*
X105355714Y-45679523D01*
X105260476Y-45774761D01*
X105117619Y-45822380D01*
X105022380Y-45822380D01*
X105784285Y-44822380D02*
X106403333Y-44822380D01*
X106070000Y-45203333D01*
X106212857Y-45203333D01*
X106308095Y-45250952D01*
X106355714Y-45298571D01*
X106403333Y-45393809D01*
X106403333Y-45631904D01*
X106355714Y-45727142D01*
X106308095Y-45774761D01*
X106212857Y-45822380D01*
X105927142Y-45822380D01*
X105831904Y-45774761D01*
X105784285Y-45727142D01*
X106831904Y-45441428D02*
X107593809Y-45441428D01*
X108070000Y-45822380D02*
X108070000Y-44822380D01*
X109117619Y-45822380D02*
X108784285Y-45346190D01*
X108546190Y-45822380D02*
X108546190Y-44822380D01*
X108927142Y-44822380D01*
X109022380Y-44870000D01*
X109070000Y-44917619D01*
X109117619Y-45012857D01*
X109117619Y-45155714D01*
X109070000Y-45250952D01*
X109022380Y-45298571D01*
X108927142Y-45346190D01*
X108546190Y-45346190D01*
X109498571Y-44917619D02*
X109546190Y-44870000D01*
X109641428Y-44822380D01*
X109879523Y-44822380D01*
X109974761Y-44870000D01*
X110022380Y-44917619D01*
X110070000Y-45012857D01*
X110070000Y-45108095D01*
X110022380Y-45250952D01*
X109450952Y-45822380D01*
X110070000Y-45822380D01*
%TO.C,C1*%
X105477142Y-54166666D02*
X105524761Y-54214285D01*
X105572380Y-54357142D01*
X105572380Y-54452380D01*
X105524761Y-54595238D01*
X105429523Y-54690476D01*
X105334285Y-54738095D01*
X105143809Y-54785714D01*
X105000952Y-54785714D01*
X104810476Y-54738095D01*
X104715238Y-54690476D01*
X104620000Y-54595238D01*
X104572380Y-54452380D01*
X104572380Y-54357142D01*
X104620000Y-54214285D01*
X104667619Y-54166666D01*
X105572380Y-53214285D02*
X105572380Y-53785714D01*
X105572380Y-53500000D02*
X104572380Y-53500000D01*
X104715238Y-53595238D01*
X104810476Y-53690476D01*
X104858095Y-53785714D01*
%TO.C,J6-LCD_Digital_Pins_1*%
X112100000Y-111432380D02*
X112100000Y-112146666D01*
X112052380Y-112289523D01*
X111957142Y-112384761D01*
X111814285Y-112432380D01*
X111719047Y-112432380D01*
X113004761Y-111432380D02*
X112814285Y-111432380D01*
X112719047Y-111480000D01*
X112671428Y-111527619D01*
X112576190Y-111670476D01*
X112528571Y-111860952D01*
X112528571Y-112241904D01*
X112576190Y-112337142D01*
X112623809Y-112384761D01*
X112719047Y-112432380D01*
X112909523Y-112432380D01*
X113004761Y-112384761D01*
X113052380Y-112337142D01*
X113100000Y-112241904D01*
X113100000Y-112003809D01*
X113052380Y-111908571D01*
X113004761Y-111860952D01*
X112909523Y-111813333D01*
X112719047Y-111813333D01*
X112623809Y-111860952D01*
X112576190Y-111908571D01*
X112528571Y-112003809D01*
X113528571Y-112051428D02*
X114290476Y-112051428D01*
X115242857Y-112432380D02*
X114766666Y-112432380D01*
X114766666Y-111432380D01*
X116147619Y-112337142D02*
X116100000Y-112384761D01*
X115957142Y-112432380D01*
X115861904Y-112432380D01*
X115719047Y-112384761D01*
X115623809Y-112289523D01*
X115576190Y-112194285D01*
X115528571Y-112003809D01*
X115528571Y-111860952D01*
X115576190Y-111670476D01*
X115623809Y-111575238D01*
X115719047Y-111480000D01*
X115861904Y-111432380D01*
X115957142Y-111432380D01*
X116100000Y-111480000D01*
X116147619Y-111527619D01*
X116576190Y-112432380D02*
X116576190Y-111432380D01*
X116814285Y-111432380D01*
X116957142Y-111480000D01*
X117052380Y-111575238D01*
X117100000Y-111670476D01*
X117147619Y-111860952D01*
X117147619Y-112003809D01*
X117100000Y-112194285D01*
X117052380Y-112289523D01*
X116957142Y-112384761D01*
X116814285Y-112432380D01*
X116576190Y-112432380D01*
X117338095Y-112527619D02*
X118100000Y-112527619D01*
X118338095Y-112432380D02*
X118338095Y-111432380D01*
X118576190Y-111432380D01*
X118719047Y-111480000D01*
X118814285Y-111575238D01*
X118861904Y-111670476D01*
X118909523Y-111860952D01*
X118909523Y-112003809D01*
X118861904Y-112194285D01*
X118814285Y-112289523D01*
X118719047Y-112384761D01*
X118576190Y-112432380D01*
X118338095Y-112432380D01*
X119338095Y-112432380D02*
X119338095Y-111765714D01*
X119338095Y-111432380D02*
X119290476Y-111480000D01*
X119338095Y-111527619D01*
X119385714Y-111480000D01*
X119338095Y-111432380D01*
X119338095Y-111527619D01*
X120242857Y-111765714D02*
X120242857Y-112575238D01*
X120195238Y-112670476D01*
X120147619Y-112718095D01*
X120052380Y-112765714D01*
X119909523Y-112765714D01*
X119814285Y-112718095D01*
X120242857Y-112384761D02*
X120147619Y-112432380D01*
X119957142Y-112432380D01*
X119861904Y-112384761D01*
X119814285Y-112337142D01*
X119766666Y-112241904D01*
X119766666Y-111956190D01*
X119814285Y-111860952D01*
X119861904Y-111813333D01*
X119957142Y-111765714D01*
X120147619Y-111765714D01*
X120242857Y-111813333D01*
X120719047Y-112432380D02*
X120719047Y-111765714D01*
X120719047Y-111432380D02*
X120671428Y-111480000D01*
X120719047Y-111527619D01*
X120766666Y-111480000D01*
X120719047Y-111432380D01*
X120719047Y-111527619D01*
X121052380Y-111765714D02*
X121433333Y-111765714D01*
X121195238Y-111432380D02*
X121195238Y-112289523D01*
X121242857Y-112384761D01*
X121338095Y-112432380D01*
X121433333Y-112432380D01*
X122195238Y-112432380D02*
X122195238Y-111908571D01*
X122147619Y-111813333D01*
X122052380Y-111765714D01*
X121861904Y-111765714D01*
X121766666Y-111813333D01*
X122195238Y-112384761D02*
X122100000Y-112432380D01*
X121861904Y-112432380D01*
X121766666Y-112384761D01*
X121719047Y-112289523D01*
X121719047Y-112194285D01*
X121766666Y-112099047D01*
X121861904Y-112051428D01*
X122100000Y-112051428D01*
X122195238Y-112003809D01*
X122814285Y-112432380D02*
X122719047Y-112384761D01*
X122671428Y-112289523D01*
X122671428Y-111432380D01*
X122957142Y-112527619D02*
X123719047Y-112527619D01*
X123957142Y-112432380D02*
X123957142Y-111432380D01*
X124338095Y-111432380D01*
X124433333Y-111480000D01*
X124480952Y-111527619D01*
X124528571Y-111622857D01*
X124528571Y-111765714D01*
X124480952Y-111860952D01*
X124433333Y-111908571D01*
X124338095Y-111956190D01*
X123957142Y-111956190D01*
X124957142Y-112432380D02*
X124957142Y-111765714D01*
X124957142Y-111432380D02*
X124909523Y-111480000D01*
X124957142Y-111527619D01*
X125004761Y-111480000D01*
X124957142Y-111432380D01*
X124957142Y-111527619D01*
X125433333Y-111765714D02*
X125433333Y-112432380D01*
X125433333Y-111860952D02*
X125480952Y-111813333D01*
X125576190Y-111765714D01*
X125719047Y-111765714D01*
X125814285Y-111813333D01*
X125861904Y-111908571D01*
X125861904Y-112432380D01*
X126290476Y-112384761D02*
X126385714Y-112432380D01*
X126576190Y-112432380D01*
X126671428Y-112384761D01*
X126719047Y-112289523D01*
X126719047Y-112241904D01*
X126671428Y-112146666D01*
X126576190Y-112099047D01*
X126433333Y-112099047D01*
X126338095Y-112051428D01*
X126290476Y-111956190D01*
X126290476Y-111908571D01*
X126338095Y-111813333D01*
X126433333Y-111765714D01*
X126576190Y-111765714D01*
X126671428Y-111813333D01*
X126909523Y-112527619D02*
X127671428Y-112527619D01*
X128433333Y-112432380D02*
X127861904Y-112432380D01*
X128147619Y-112432380D02*
X128147619Y-111432380D01*
X128052380Y-111575238D01*
X127957142Y-111670476D01*
X127861904Y-111718095D01*
%TO.C,R3*%
X115672380Y-40666666D02*
X115196190Y-41000000D01*
X115672380Y-41238095D02*
X114672380Y-41238095D01*
X114672380Y-40857142D01*
X114720000Y-40761904D01*
X114767619Y-40714285D01*
X114862857Y-40666666D01*
X115005714Y-40666666D01*
X115100952Y-40714285D01*
X115148571Y-40761904D01*
X115196190Y-40857142D01*
X115196190Y-41238095D01*
X114672380Y-40333333D02*
X114672380Y-39714285D01*
X115053333Y-40047619D01*
X115053333Y-39904761D01*
X115100952Y-39809523D01*
X115148571Y-39761904D01*
X115243809Y-39714285D01*
X115481904Y-39714285D01*
X115577142Y-39761904D01*
X115624761Y-39809523D01*
X115672380Y-39904761D01*
X115672380Y-40190476D01*
X115624761Y-40285714D01*
X115577142Y-40333333D01*
%TO.C,J9-LCD_Analog_Pins1*%
X139079523Y-153342380D02*
X139079523Y-154056666D01*
X139031904Y-154199523D01*
X138936666Y-154294761D01*
X138793809Y-154342380D01*
X138698571Y-154342380D01*
X139603333Y-154342380D02*
X139793809Y-154342380D01*
X139889047Y-154294761D01*
X139936666Y-154247142D01*
X140031904Y-154104285D01*
X140079523Y-153913809D01*
X140079523Y-153532857D01*
X140031904Y-153437619D01*
X139984285Y-153390000D01*
X139889047Y-153342380D01*
X139698571Y-153342380D01*
X139603333Y-153390000D01*
X139555714Y-153437619D01*
X139508095Y-153532857D01*
X139508095Y-153770952D01*
X139555714Y-153866190D01*
X139603333Y-153913809D01*
X139698571Y-153961428D01*
X139889047Y-153961428D01*
X139984285Y-153913809D01*
X140031904Y-153866190D01*
X140079523Y-153770952D01*
X140508095Y-153961428D02*
X141270000Y-153961428D01*
X142222380Y-154342380D02*
X141746190Y-154342380D01*
X141746190Y-153342380D01*
X143127142Y-154247142D02*
X143079523Y-154294761D01*
X142936666Y-154342380D01*
X142841428Y-154342380D01*
X142698571Y-154294761D01*
X142603333Y-154199523D01*
X142555714Y-154104285D01*
X142508095Y-153913809D01*
X142508095Y-153770952D01*
X142555714Y-153580476D01*
X142603333Y-153485238D01*
X142698571Y-153390000D01*
X142841428Y-153342380D01*
X142936666Y-153342380D01*
X143079523Y-153390000D01*
X143127142Y-153437619D01*
X143555714Y-154342380D02*
X143555714Y-153342380D01*
X143793809Y-153342380D01*
X143936666Y-153390000D01*
X144031904Y-153485238D01*
X144079523Y-153580476D01*
X144127142Y-153770952D01*
X144127142Y-153913809D01*
X144079523Y-154104285D01*
X144031904Y-154199523D01*
X143936666Y-154294761D01*
X143793809Y-154342380D01*
X143555714Y-154342380D01*
X144317619Y-154437619D02*
X145079523Y-154437619D01*
X145270000Y-154056666D02*
X145746190Y-154056666D01*
X145174761Y-154342380D02*
X145508095Y-153342380D01*
X145841428Y-154342380D01*
X146174761Y-153675714D02*
X146174761Y-154342380D01*
X146174761Y-153770952D02*
X146222380Y-153723333D01*
X146317619Y-153675714D01*
X146460476Y-153675714D01*
X146555714Y-153723333D01*
X146603333Y-153818571D01*
X146603333Y-154342380D01*
X147508095Y-154342380D02*
X147508095Y-153818571D01*
X147460476Y-153723333D01*
X147365238Y-153675714D01*
X147174761Y-153675714D01*
X147079523Y-153723333D01*
X147508095Y-154294761D02*
X147412857Y-154342380D01*
X147174761Y-154342380D01*
X147079523Y-154294761D01*
X147031904Y-154199523D01*
X147031904Y-154104285D01*
X147079523Y-154009047D01*
X147174761Y-153961428D01*
X147412857Y-153961428D01*
X147508095Y-153913809D01*
X148127142Y-154342380D02*
X148031904Y-154294761D01*
X147984285Y-154199523D01*
X147984285Y-153342380D01*
X148650952Y-154342380D02*
X148555714Y-154294761D01*
X148508095Y-154247142D01*
X148460476Y-154151904D01*
X148460476Y-153866190D01*
X148508095Y-153770952D01*
X148555714Y-153723333D01*
X148650952Y-153675714D01*
X148793809Y-153675714D01*
X148889047Y-153723333D01*
X148936666Y-153770952D01*
X148984285Y-153866190D01*
X148984285Y-154151904D01*
X148936666Y-154247142D01*
X148889047Y-154294761D01*
X148793809Y-154342380D01*
X148650952Y-154342380D01*
X149841428Y-153675714D02*
X149841428Y-154485238D01*
X149793809Y-154580476D01*
X149746190Y-154628095D01*
X149650952Y-154675714D01*
X149508095Y-154675714D01*
X149412857Y-154628095D01*
X149841428Y-154294761D02*
X149746190Y-154342380D01*
X149555714Y-154342380D01*
X149460476Y-154294761D01*
X149412857Y-154247142D01*
X149365238Y-154151904D01*
X149365238Y-153866190D01*
X149412857Y-153770952D01*
X149460476Y-153723333D01*
X149555714Y-153675714D01*
X149746190Y-153675714D01*
X149841428Y-153723333D01*
X150079523Y-154437619D02*
X150841428Y-154437619D01*
X151079523Y-154342380D02*
X151079523Y-153342380D01*
X151460476Y-153342380D01*
X151555714Y-153390000D01*
X151603333Y-153437619D01*
X151650952Y-153532857D01*
X151650952Y-153675714D01*
X151603333Y-153770952D01*
X151555714Y-153818571D01*
X151460476Y-153866190D01*
X151079523Y-153866190D01*
X152079523Y-154342380D02*
X152079523Y-153675714D01*
X152079523Y-153342380D02*
X152031904Y-153390000D01*
X152079523Y-153437619D01*
X152127142Y-153390000D01*
X152079523Y-153342380D01*
X152079523Y-153437619D01*
X152555714Y-153675714D02*
X152555714Y-154342380D01*
X152555714Y-153770952D02*
X152603333Y-153723333D01*
X152698571Y-153675714D01*
X152841428Y-153675714D01*
X152936666Y-153723333D01*
X152984285Y-153818571D01*
X152984285Y-154342380D01*
X153412857Y-154294761D02*
X153508095Y-154342380D01*
X153698571Y-154342380D01*
X153793809Y-154294761D01*
X153841428Y-154199523D01*
X153841428Y-154151904D01*
X153793809Y-154056666D01*
X153698571Y-154009047D01*
X153555714Y-154009047D01*
X153460476Y-153961428D01*
X153412857Y-153866190D01*
X153412857Y-153818571D01*
X153460476Y-153723333D01*
X153555714Y-153675714D01*
X153698571Y-153675714D01*
X153793809Y-153723333D01*
X154793809Y-154342380D02*
X154222380Y-154342380D01*
X154508095Y-154342380D02*
X154508095Y-153342380D01*
X154412857Y-153485238D01*
X154317619Y-153580476D01*
X154222380Y-153628095D01*
D12*
%TO.C,BZ1*%
X206370000Y-82700000D02*
G75*
G03*
X206370000Y-82700000I-6100000J0D01*
G01*
%TO.C,U3-MQ6*%
X181795000Y-43400000D02*
G75*
G03*
X181795000Y-43400000I-9625000J0D01*
G01*
%TO.C,R1*%
X160640000Y-69530000D02*
X163380000Y-69530000D01*
X163380000Y-62990000D02*
X160640000Y-62990000D01*
X160640000Y-62990000D02*
X160640000Y-69530000D01*
X162010000Y-70300000D02*
X162010000Y-69530000D01*
X162010000Y-62220000D02*
X162010000Y-62990000D01*
X163380000Y-69530000D02*
X163380000Y-62990000D01*
%TO.C,C2*%
X112490000Y-50130000D02*
X107250000Y-50130000D01*
X112490000Y-57870000D02*
X107250000Y-57870000D01*
X112490000Y-50130000D02*
X112490000Y-57870000D01*
X107250000Y-50130000D02*
X107250000Y-57870000D01*
%TO.C,J1*%
X86020000Y-52442500D02*
X87070000Y-52442500D01*
X80970000Y-61842500D02*
X72170000Y-61842500D01*
X86870000Y-61842500D02*
X84970000Y-61842500D01*
X72170000Y-61842500D02*
X72170000Y-52642500D01*
X86870000Y-59142500D02*
X86870000Y-61842500D01*
X87070000Y-53492500D02*
X87070000Y-52442500D01*
X86870000Y-52642500D02*
X86870000Y-55242500D01*
X72170000Y-52642500D02*
X86870000Y-52642500D01*
%TO.C,R5*%
X192540000Y-102470000D02*
X192540000Y-95930000D01*
X191170000Y-95160000D02*
X191170000Y-95930000D01*
X189800000Y-95930000D02*
X189800000Y-102470000D01*
X192540000Y-95930000D02*
X189800000Y-95930000D01*
X189800000Y-102470000D02*
X192540000Y-102470000D01*
X191170000Y-103240000D02*
X191170000Y-102470000D01*
%TO.C,R4*%
X189500000Y-123530000D02*
X189500000Y-130070000D01*
X190870000Y-130840000D02*
X190870000Y-130070000D01*
X190870000Y-122760000D02*
X190870000Y-123530000D01*
X192240000Y-123530000D02*
X189500000Y-123530000D01*
X189500000Y-130070000D02*
X192240000Y-130070000D01*
X192240000Y-130070000D02*
X192240000Y-123530000D01*
%TO.C,R2*%
X94970000Y-37230000D02*
X94970000Y-43770000D01*
X97710000Y-43770000D02*
X97710000Y-37230000D01*
X96340000Y-36460000D02*
X96340000Y-37230000D01*
X97710000Y-37230000D02*
X94970000Y-37230000D01*
X96340000Y-44540000D02*
X96340000Y-43770000D01*
X94970000Y-43770000D02*
X97710000Y-43770000D01*
%TO.C,J2-IR1*%
X89930000Y-39245000D02*
X92590000Y-39245000D01*
X89930000Y-44385000D02*
X92590000Y-44385000D01*
X92590000Y-36645000D02*
X92590000Y-37975000D01*
X92590000Y-39245000D02*
X92590000Y-44385000D01*
X91260000Y-36645000D02*
X92590000Y-36645000D01*
X89930000Y-39245000D02*
X89930000Y-44385000D01*
%TO.C,J4-MQ7*%
X190010000Y-64990000D02*
X190010000Y-72670000D01*
X187350000Y-64990000D02*
X187350000Y-72670000D01*
X190010000Y-62390000D02*
X190010000Y-63720000D01*
X187350000Y-64990000D02*
X190010000Y-64990000D01*
X187350000Y-72670000D02*
X190010000Y-72670000D01*
X188680000Y-62390000D02*
X190010000Y-62390000D01*
%TO.C,J8-LCD_Source1*%
X128900000Y-155630000D02*
X116140000Y-155630000D01*
X128900000Y-155630000D02*
X128900000Y-158290000D01*
X116140000Y-155630000D02*
X116140000Y-158290000D01*
X131500000Y-158290000D02*
X130170000Y-158290000D01*
X131500000Y-156960000D02*
X131500000Y-158290000D01*
X128900000Y-158290000D02*
X116140000Y-158290000D01*
%TO.C,C3*%
X131100000Y-72241000D02*
X131100000Y-74360000D01*
X131741000Y-72448000D02*
X131741000Y-74360000D01*
X133461000Y-74235000D02*
X133461000Y-76565000D01*
X133421000Y-74138000D02*
X133421000Y-76662000D01*
X133621000Y-74767000D02*
X133621000Y-76033000D01*
X131821000Y-76440000D02*
X131821000Y-78316000D01*
X131541000Y-76440000D02*
X131541000Y-78433000D01*
X130620000Y-72176000D02*
X130620000Y-78624000D01*
X132701000Y-76440000D02*
X132701000Y-77705000D01*
X132381000Y-76440000D02*
X132381000Y-77978000D01*
X133141000Y-73624000D02*
X133141000Y-77176000D01*
X131341000Y-72302000D02*
X131341000Y-74360000D01*
X132461000Y-76440000D02*
X132461000Y-77916000D01*
X132941000Y-73356000D02*
X132941000Y-77444000D01*
X131381000Y-72314000D02*
X131381000Y-74360000D01*
X131221000Y-72269000D02*
X131221000Y-74360000D01*
X131181000Y-76440000D02*
X131181000Y-78541000D01*
X131661000Y-76440000D02*
X131661000Y-78386000D01*
X131861000Y-76440000D02*
X131861000Y-78296000D01*
X132741000Y-73135000D02*
X132741000Y-77665000D01*
X132301000Y-76440000D02*
X132301000Y-78036000D01*
X131661000Y-72414000D02*
X131661000Y-74360000D01*
X132461000Y-72884000D02*
X132461000Y-74360000D01*
X132301000Y-72764000D02*
X132301000Y-74360000D01*
X132221000Y-76440000D02*
X132221000Y-78090000D01*
X131141000Y-72250000D02*
X131141000Y-74360000D01*
X133661000Y-74998000D02*
X133661000Y-75802000D01*
X131461000Y-72339000D02*
X131461000Y-74360000D01*
X133261000Y-73819000D02*
X133261000Y-76981000D01*
X133501000Y-74341000D02*
X133501000Y-76459000D01*
X132501000Y-72916000D02*
X132501000Y-74360000D01*
X131461000Y-76440000D02*
X131461000Y-78461000D01*
X132181000Y-76440000D02*
X132181000Y-78116000D01*
X131100000Y-76440000D02*
X131100000Y-78559000D01*
X132421000Y-76440000D02*
X132421000Y-77948000D01*
X130780000Y-72189000D02*
X130780000Y-74360000D01*
X130500000Y-72170000D02*
X130500000Y-78630000D01*
X131501000Y-76440000D02*
X131501000Y-78447000D01*
X132581000Y-76440000D02*
X132581000Y-77816000D01*
X132261000Y-72736000D02*
X132261000Y-74360000D01*
X132341000Y-72793000D02*
X132341000Y-74360000D01*
X131581000Y-76440000D02*
X131581000Y-78418000D01*
X132661000Y-76440000D02*
X132661000Y-77743000D01*
X131981000Y-76440000D02*
X131981000Y-78234000D01*
X132261000Y-76440000D02*
X132261000Y-78064000D01*
X132221000Y-72710000D02*
X132221000Y-74360000D01*
X131861000Y-72504000D02*
X131861000Y-74360000D01*
X132141000Y-76440000D02*
X132141000Y-78142000D01*
X131421000Y-76440000D02*
X131421000Y-78474000D01*
X130660000Y-72178000D02*
X130660000Y-74360000D01*
X130980000Y-72218000D02*
X130980000Y-74360000D01*
X133061000Y-73510000D02*
X133061000Y-77290000D01*
X131901000Y-76440000D02*
X131901000Y-78276000D01*
X131981000Y-72566000D02*
X131981000Y-74360000D01*
X130420000Y-72170000D02*
X130420000Y-78630000D01*
X131221000Y-76440000D02*
X131221000Y-78531000D01*
X132021000Y-76440000D02*
X132021000Y-78212000D01*
X132661000Y-73057000D02*
X132661000Y-74360000D01*
X131701000Y-76440000D02*
X131701000Y-78370000D01*
X130900000Y-72205000D02*
X130900000Y-74360000D01*
X132901000Y-73308000D02*
X132901000Y-77492000D01*
X132141000Y-72658000D02*
X132141000Y-74360000D01*
X131781000Y-76440000D02*
X131781000Y-78334000D01*
X132061000Y-76440000D02*
X132061000Y-78190000D01*
X131261000Y-72279000D02*
X131261000Y-74360000D01*
X131541000Y-72367000D02*
X131541000Y-74360000D01*
X131701000Y-72430000D02*
X131701000Y-74360000D01*
X132541000Y-72950000D02*
X132541000Y-74360000D01*
X133101000Y-73566000D02*
X133101000Y-77234000D01*
X130740000Y-76440000D02*
X130740000Y-78615000D01*
X132021000Y-72588000D02*
X132021000Y-74360000D01*
X132181000Y-72684000D02*
X132181000Y-74360000D01*
X130660000Y-76440000D02*
X130660000Y-78622000D01*
X130940000Y-72211000D02*
X130940000Y-74360000D01*
X131060000Y-76440000D02*
X131060000Y-78567000D01*
X133301000Y-73891000D02*
X133301000Y-76909000D01*
X132781000Y-73176000D02*
X132781000Y-77624000D01*
X131020000Y-76440000D02*
X131020000Y-78575000D01*
X131301000Y-76440000D02*
X131301000Y-78510000D01*
X132061000Y-72610000D02*
X132061000Y-74360000D01*
X132981000Y-73405000D02*
X132981000Y-77395000D01*
X130580000Y-72173000D02*
X130580000Y-78627000D01*
X132501000Y-76440000D02*
X132501000Y-77884000D01*
X132621000Y-76440000D02*
X132621000Y-77780000D01*
X131381000Y-76440000D02*
X131381000Y-78486000D01*
X131821000Y-72484000D02*
X131821000Y-74360000D01*
X131781000Y-72466000D02*
X131781000Y-74360000D01*
X132341000Y-76440000D02*
X132341000Y-78007000D01*
X130740000Y-72185000D02*
X130740000Y-74360000D01*
X131060000Y-72233000D02*
X131060000Y-74360000D01*
X131501000Y-72353000D02*
X131501000Y-74360000D01*
X130980000Y-76440000D02*
X130980000Y-78582000D01*
X130460000Y-72170000D02*
X130460000Y-78630000D01*
X131741000Y-76440000D02*
X131741000Y-78352000D01*
X132861000Y-73263000D02*
X132861000Y-77537000D01*
X132101000Y-72634000D02*
X132101000Y-74360000D01*
X133381000Y-74050000D02*
X133381000Y-76750000D01*
X131621000Y-76440000D02*
X131621000Y-78402000D01*
X130820000Y-72194000D02*
X130820000Y-74360000D01*
X130940000Y-76440000D02*
X130940000Y-78589000D01*
X130700000Y-76440000D02*
X130700000Y-78618000D01*
X130540000Y-72172000D02*
X130540000Y-78628000D01*
X131341000Y-76440000D02*
X131341000Y-78498000D01*
X132381000Y-72822000D02*
X132381000Y-74360000D01*
X131421000Y-72326000D02*
X131421000Y-74360000D01*
X131181000Y-72259000D02*
X131181000Y-74360000D01*
X133021000Y-73456000D02*
X133021000Y-77344000D01*
X131141000Y-76440000D02*
X131141000Y-78550000D01*
X130700000Y-72182000D02*
X130700000Y-74360000D01*
X130900000Y-76440000D02*
X130900000Y-78595000D01*
X132581000Y-72984000D02*
X132581000Y-74360000D01*
X130820000Y-76440000D02*
X130820000Y-78606000D01*
X131581000Y-72382000D02*
X131581000Y-74360000D01*
X130860000Y-72199000D02*
X130860000Y-74360000D01*
X131621000Y-72398000D02*
X131621000Y-74360000D01*
X131941000Y-76440000D02*
X131941000Y-78256000D01*
X130780000Y-76440000D02*
X130780000Y-78611000D01*
X127234759Y-73246000D02*
X127234759Y-73876000D01*
X130860000Y-76440000D02*
X130860000Y-78601000D01*
X132621000Y-73020000D02*
X132621000Y-74360000D01*
X132701000Y-73095000D02*
X132701000Y-74360000D01*
X131261000Y-76440000D02*
X131261000Y-78521000D01*
X133181000Y-73686000D02*
X133181000Y-77114000D01*
X133541000Y-74460000D02*
X133541000Y-76340000D01*
X131020000Y-72225000D02*
X131020000Y-74360000D01*
X133341000Y-73968000D02*
X133341000Y-76832000D01*
X131901000Y-72524000D02*
X131901000Y-74360000D01*
X132421000Y-72852000D02*
X132421000Y-74360000D01*
X131941000Y-72544000D02*
X131941000Y-74360000D01*
X132821000Y-73218000D02*
X132821000Y-77582000D01*
X131301000Y-72290000D02*
X131301000Y-74360000D01*
X132101000Y-76440000D02*
X132101000Y-78166000D01*
X132541000Y-76440000D02*
X132541000Y-77850000D01*
X133581000Y-74598000D02*
X133581000Y-76202000D01*
X133221000Y-73750000D02*
X133221000Y-77050000D01*
X126919759Y-73561000D02*
X127549759Y-73561000D01*
X133690000Y-75400000D02*
G75*
G03*
X133690000Y-75400000I-3270000J0D01*
G01*
%TO.C,C4*%
X131581000Y-69205000D02*
X131581000Y-71183000D01*
X131341000Y-65067000D02*
X131341000Y-67125000D01*
X131741000Y-65213000D02*
X131741000Y-67125000D01*
X127234759Y-66011000D02*
X127234759Y-66641000D01*
X132901000Y-66073000D02*
X132901000Y-70257000D01*
X131741000Y-69205000D02*
X131741000Y-71117000D01*
X131821000Y-65249000D02*
X131821000Y-67125000D01*
X131541000Y-69205000D02*
X131541000Y-71198000D01*
X131301000Y-65055000D02*
X131301000Y-67125000D01*
X131221000Y-69205000D02*
X131221000Y-71296000D01*
X130580000Y-64938000D02*
X130580000Y-71392000D01*
X132261000Y-69205000D02*
X132261000Y-70829000D01*
X133341000Y-66733000D02*
X133341000Y-69597000D01*
X132541000Y-69205000D02*
X132541000Y-70615000D01*
X132301000Y-69205000D02*
X132301000Y-70801000D01*
X130980000Y-64983000D02*
X130980000Y-67125000D01*
X131661000Y-69205000D02*
X131661000Y-71151000D01*
X131461000Y-65104000D02*
X131461000Y-67125000D01*
X132141000Y-65423000D02*
X132141000Y-67125000D01*
X131381000Y-65079000D02*
X131381000Y-67125000D01*
X132421000Y-69205000D02*
X132421000Y-70713000D01*
X130740000Y-69205000D02*
X130740000Y-71380000D01*
X132981000Y-66170000D02*
X132981000Y-70160000D01*
X130460000Y-64935000D02*
X130460000Y-71395000D01*
X130740000Y-64950000D02*
X130740000Y-67125000D01*
X133581000Y-67363000D02*
X133581000Y-68967000D01*
X132581000Y-65749000D02*
X132581000Y-67125000D01*
X132341000Y-65558000D02*
X132341000Y-67125000D01*
X130860000Y-64964000D02*
X130860000Y-67125000D01*
X131821000Y-69205000D02*
X131821000Y-71081000D01*
X133501000Y-67106000D02*
X133501000Y-69224000D01*
X131981000Y-65331000D02*
X131981000Y-67125000D01*
X132501000Y-69205000D02*
X132501000Y-70649000D01*
X131541000Y-65132000D02*
X131541000Y-67125000D01*
X131181000Y-69205000D02*
X131181000Y-71306000D01*
X131501000Y-69205000D02*
X131501000Y-71212000D01*
X131581000Y-65147000D02*
X131581000Y-67125000D01*
X132101000Y-65399000D02*
X132101000Y-67125000D01*
X133381000Y-66815000D02*
X133381000Y-69515000D01*
X131781000Y-69205000D02*
X131781000Y-71099000D01*
X132181000Y-69205000D02*
X132181000Y-70881000D01*
X131901000Y-65289000D02*
X131901000Y-67125000D01*
X131621000Y-69205000D02*
X131621000Y-71167000D01*
X132541000Y-65715000D02*
X132541000Y-67125000D01*
X131020000Y-69205000D02*
X131020000Y-71340000D01*
X131060000Y-69205000D02*
X131060000Y-71332000D01*
X132061000Y-65375000D02*
X132061000Y-67125000D01*
X133221000Y-66515000D02*
X133221000Y-69815000D01*
X131781000Y-65231000D02*
X131781000Y-67125000D01*
X132381000Y-65587000D02*
X132381000Y-67125000D01*
X130620000Y-64941000D02*
X130620000Y-71389000D01*
X130700000Y-69205000D02*
X130700000Y-71383000D01*
X132301000Y-65529000D02*
X132301000Y-67125000D01*
X131301000Y-69205000D02*
X131301000Y-71275000D01*
X130420000Y-64935000D02*
X130420000Y-71395000D01*
X132021000Y-65353000D02*
X132021000Y-67125000D01*
X130700000Y-64947000D02*
X130700000Y-67125000D01*
X130820000Y-69205000D02*
X130820000Y-71371000D01*
X131621000Y-65163000D02*
X131621000Y-67125000D01*
X131221000Y-65034000D02*
X131221000Y-67125000D01*
X130660000Y-69205000D02*
X130660000Y-71387000D01*
X133621000Y-67532000D02*
X133621000Y-68798000D01*
X132701000Y-69205000D02*
X132701000Y-70470000D01*
X133021000Y-66221000D02*
X133021000Y-70109000D01*
X130780000Y-69205000D02*
X130780000Y-71376000D01*
X132021000Y-69205000D02*
X132021000Y-70977000D01*
X132421000Y-65617000D02*
X132421000Y-67125000D01*
X131501000Y-65118000D02*
X131501000Y-67125000D01*
X126919759Y-66326000D02*
X127549759Y-66326000D01*
X131421000Y-69205000D02*
X131421000Y-71239000D01*
X133261000Y-66584000D02*
X133261000Y-69746000D01*
X130860000Y-69205000D02*
X130860000Y-71366000D01*
X130540000Y-64937000D02*
X130540000Y-71393000D01*
X131020000Y-64990000D02*
X131020000Y-67125000D01*
X132101000Y-69205000D02*
X132101000Y-70931000D01*
X131701000Y-65195000D02*
X131701000Y-67125000D01*
X131941000Y-69205000D02*
X131941000Y-71021000D01*
X132701000Y-65860000D02*
X132701000Y-67125000D01*
X131100000Y-65006000D02*
X131100000Y-67125000D01*
X133661000Y-67763000D02*
X133661000Y-68567000D01*
X132821000Y-65983000D02*
X132821000Y-70347000D01*
X132661000Y-65822000D02*
X132661000Y-67125000D01*
X132581000Y-69205000D02*
X132581000Y-70581000D01*
X133101000Y-66331000D02*
X133101000Y-69999000D01*
X132941000Y-66121000D02*
X132941000Y-70209000D01*
X131981000Y-69205000D02*
X131981000Y-70999000D01*
X132741000Y-65900000D02*
X132741000Y-70430000D01*
X131060000Y-64998000D02*
X131060000Y-67125000D01*
X133541000Y-67225000D02*
X133541000Y-69105000D01*
X132261000Y-65501000D02*
X132261000Y-67125000D01*
X131381000Y-69205000D02*
X131381000Y-71251000D01*
X132861000Y-66028000D02*
X132861000Y-70302000D01*
X132621000Y-65785000D02*
X132621000Y-67125000D01*
X130820000Y-64959000D02*
X130820000Y-67125000D01*
X132461000Y-69205000D02*
X132461000Y-70681000D01*
X131341000Y-69205000D02*
X131341000Y-71263000D01*
X130940000Y-64976000D02*
X130940000Y-67125000D01*
X130500000Y-64935000D02*
X130500000Y-71395000D01*
X130980000Y-69205000D02*
X130980000Y-71347000D01*
X131421000Y-65091000D02*
X131421000Y-67125000D01*
X133061000Y-66275000D02*
X133061000Y-70055000D01*
X132381000Y-69205000D02*
X132381000Y-70743000D01*
X131461000Y-69205000D02*
X131461000Y-71226000D01*
X131661000Y-65179000D02*
X131661000Y-67125000D01*
X132461000Y-65649000D02*
X132461000Y-67125000D01*
X130900000Y-64970000D02*
X130900000Y-67125000D01*
X132621000Y-69205000D02*
X132621000Y-70545000D01*
X133141000Y-66389000D02*
X133141000Y-69941000D01*
X130900000Y-69205000D02*
X130900000Y-71360000D01*
X133181000Y-66451000D02*
X133181000Y-69879000D01*
X132221000Y-69205000D02*
X132221000Y-70855000D01*
X132341000Y-69205000D02*
X132341000Y-70772000D01*
X131701000Y-69205000D02*
X131701000Y-71135000D01*
X131941000Y-65309000D02*
X131941000Y-67125000D01*
X130940000Y-69205000D02*
X130940000Y-71354000D01*
X132661000Y-69205000D02*
X132661000Y-70508000D01*
X131141000Y-65015000D02*
X131141000Y-67125000D01*
X131901000Y-69205000D02*
X131901000Y-71041000D01*
X131861000Y-65269000D02*
X131861000Y-67125000D01*
X132181000Y-65449000D02*
X132181000Y-67125000D01*
X133421000Y-66903000D02*
X133421000Y-69427000D01*
X131861000Y-69205000D02*
X131861000Y-71061000D01*
X132061000Y-69205000D02*
X132061000Y-70955000D01*
X131261000Y-69205000D02*
X131261000Y-71286000D01*
X132501000Y-65681000D02*
X132501000Y-67125000D01*
X132141000Y-69205000D02*
X132141000Y-70907000D01*
X132781000Y-65941000D02*
X132781000Y-70389000D01*
X133301000Y-66656000D02*
X133301000Y-69674000D01*
X133461000Y-67000000D02*
X133461000Y-69330000D01*
X131141000Y-69205000D02*
X131141000Y-71315000D01*
X130780000Y-64954000D02*
X130780000Y-67125000D01*
X131100000Y-69205000D02*
X131100000Y-71324000D01*
X130660000Y-64943000D02*
X130660000Y-67125000D01*
X131181000Y-65024000D02*
X131181000Y-67125000D01*
X131261000Y-65044000D02*
X131261000Y-67125000D01*
X132221000Y-65475000D02*
X132221000Y-67125000D01*
X133690000Y-68165000D02*
G75*
G03*
X133690000Y-68165000I-3270000J0D01*
G01*
%TO.C,U2*%
X140540000Y-55420000D02*
X135899000Y-55420000D01*
X140540000Y-62391000D02*
X139030000Y-62391000D01*
X140540000Y-65660000D02*
X135899000Y-65660000D01*
X140540000Y-55420000D02*
X140540000Y-65660000D01*
X139030000Y-55420000D02*
X139030000Y-65660000D01*
X140540000Y-58690000D02*
X139030000Y-58690000D01*
X135899000Y-55420000D02*
X135899000Y-65660000D01*
%TO.C,J11-Reset1*%
X207070000Y-120650000D02*
X207070000Y-119150000D01*
X205820000Y-116650000D02*
X201320000Y-116650000D01*
X200070000Y-119150000D02*
X200070000Y-120650000D01*
X201320000Y-123150000D02*
X205820000Y-123150000D01*
%TO.C,J7-LCD_Digital_Pins_1*%
X151700000Y-107370000D02*
X151700000Y-110030000D01*
X154300000Y-108700000D02*
X154300000Y-110030000D01*
X154300000Y-110030000D02*
X152970000Y-110030000D01*
X133860000Y-107370000D02*
X133860000Y-110030000D01*
X151700000Y-110030000D02*
X133860000Y-110030000D01*
X151700000Y-107370000D02*
X133860000Y-107370000D01*
%TO.C,Q1*%
X165130000Y-90920000D02*
X165130000Y-87320000D01*
X160679999Y-89120000D02*
G75*
G03*
X165118478Y-90958478I2600001J0D01*
G01*
X165118478Y-87281522D02*
G75*
G03*
X160680000Y-89120000I-1838478J-1838478D01*
G01*
%TO.C,Y1*%
X139165000Y-75835000D02*
X139165000Y-82085000D01*
X144215000Y-75835000D02*
X144215000Y-82085000D01*
X139165000Y-82085000D02*
G75*
G03*
X144215000Y-82085000I2525000J0D01*
G01*
X144215000Y-75835000D02*
G75*
G03*
X139165000Y-75835000I-2525000J0D01*
G01*
%TO.C,J5-MQ4*%
X200050000Y-52350000D02*
X202710000Y-52350000D01*
X201380000Y-42070000D02*
X202710000Y-42070000D01*
X202710000Y-42070000D02*
X202710000Y-43400000D01*
X200050000Y-44670000D02*
X202710000Y-44670000D01*
X200050000Y-44670000D02*
X200050000Y-52350000D01*
X202710000Y-44670000D02*
X202710000Y-52350000D01*
%TO.C,J10-Botton_On/Off1*%
X205720000Y-103850000D02*
X201220000Y-103850000D01*
X206970000Y-107850000D02*
X206970000Y-106350000D01*
X199970000Y-106350000D02*
X199970000Y-107850000D01*
X201220000Y-110350000D02*
X205720000Y-110350000D01*
%TO.C,U1*%
X110050000Y-99015000D02*
X110050000Y-63335000D01*
X106400000Y-63335000D02*
X104750000Y-63335000D01*
X110050000Y-63335000D02*
X108400000Y-63335000D01*
X104750000Y-63335000D02*
X104750000Y-99015000D01*
X104750000Y-99015000D02*
X110050000Y-99015000D01*
X106400000Y-63335000D02*
G75*
G03*
X108400000Y-63335000I1000000J0D01*
G01*
%TO.C,J3-IR2*%
X106240000Y-44370000D02*
X106240000Y-43040000D01*
X107570000Y-44370000D02*
X106240000Y-44370000D01*
X106240000Y-41770000D02*
X106240000Y-36630000D01*
X108900000Y-36630000D02*
X106240000Y-36630000D01*
X108900000Y-41770000D02*
X106240000Y-41770000D01*
X108900000Y-41770000D02*
X108900000Y-36630000D01*
%TO.C,C1*%
X98750000Y-50130000D02*
X98750000Y-57870000D01*
X103990000Y-50130000D02*
X103990000Y-57870000D01*
X103990000Y-57870000D02*
X98750000Y-57870000D01*
X103990000Y-50130000D02*
X98750000Y-50130000D01*
%TO.C,J6-LCD_Digital_Pins_1*%
X129790000Y-110030000D02*
X111950000Y-110030000D01*
X132390000Y-110030000D02*
X131060000Y-110030000D01*
X129790000Y-107370000D02*
X129790000Y-110030000D01*
X111950000Y-107370000D02*
X111950000Y-110030000D01*
X129790000Y-107370000D02*
X111950000Y-107370000D01*
X132390000Y-108700000D02*
X132390000Y-110030000D01*
%TO.C,R3*%
X114220000Y-43770000D02*
X114220000Y-37230000D01*
X114220000Y-37230000D02*
X111480000Y-37230000D01*
X111480000Y-37230000D02*
X111480000Y-43770000D01*
X112850000Y-44540000D02*
X112850000Y-43770000D01*
X111480000Y-43770000D02*
X114220000Y-43770000D01*
X112850000Y-36460000D02*
X112850000Y-37230000D01*
%TO.C,J9-LCD_Analog_Pins1*%
X151700000Y-155630000D02*
X138940000Y-155630000D01*
X138940000Y-155630000D02*
X138940000Y-158290000D01*
X154300000Y-156960000D02*
X154300000Y-158290000D01*
X154300000Y-158290000D02*
X152970000Y-158290000D01*
X151700000Y-158290000D02*
X138940000Y-158290000D01*
X151700000Y-155630000D02*
X151700000Y-158290000D01*
%TD*%
M02*
