%TF.GenerationSoftware,KiCad,Pcbnew,(6.0.7)*%
%TF.CreationDate,2022-11-30T14:42:28-03:00*%
%TF.ProjectId,E3_Gas_Leak_Safety_System,45335f47-6173-45f4-9c65-616b5f536166,rev?*%
%TF.SameCoordinates,Original*%
%TF.FileFunction,Copper,L1,Top*%
%TF.FilePolarity,Positive*%
%FSLAX46Y46*%
G04 Gerber Fmt 4.6, Leading zero omitted, Abs format (unit mm)*
G04 Created by KiCad (PCBNEW (6.0.7)) date 2022-11-30 14:42:28*
%MOMM*%
%LPD*%
G01*
G04 APERTURE LIST*
G04 Aperture macros list*
%AMRoundRect*
0 Rectangle with rounded corners*
0 $1 Rounding radius*
0 $2 $3 $4 $5 $6 $7 $8 $9 X,Y pos of 4 corners*
0 Add a 4 corners polygon primitive as box body*
4,1,4,$2,$3,$4,$5,$6,$7,$8,$9,$2,$3,0*
0 Add four circle primitives for the rounded corners*
1,1,$1+$1,$2,$3*
1,1,$1+$1,$4,$5*
1,1,$1+$1,$6,$7*
1,1,$1+$1,$8,$9*
0 Add four rect primitives between the rounded corners*
20,1,$1+$1,$2,$3,$4,$5,0*
20,1,$1+$1,$4,$5,$6,$7,0*
20,1,$1+$1,$6,$7,$8,$9,0*
20,1,$1+$1,$8,$9,$2,$3,0*%
G04 Aperture macros list end*
%TA.AperFunction,ComponentPad*%
%ADD10R,2.000000X2.000000*%
%TD*%
%TA.AperFunction,ComponentPad*%
%ADD11C,2.000000*%
%TD*%
%TA.AperFunction,ComponentPad*%
%ADD12C,1.600000*%
%TD*%
%TA.AperFunction,ComponentPad*%
%ADD13O,1.600000X1.600000*%
%TD*%
%TA.AperFunction,ComponentPad*%
%ADD14R,3.500000X3.500000*%
%TD*%
%TA.AperFunction,ComponentPad*%
%ADD15RoundRect,0.750000X-0.750000X-1.000000X0.750000X-1.000000X0.750000X1.000000X-0.750000X1.000000X0*%
%TD*%
%TA.AperFunction,ComponentPad*%
%ADD16RoundRect,0.875000X-0.875000X-0.875000X0.875000X-0.875000X0.875000X0.875000X-0.875000X0.875000X0*%
%TD*%
%TA.AperFunction,ComponentPad*%
%ADD17R,1.700000X1.700000*%
%TD*%
%TA.AperFunction,ComponentPad*%
%ADD18O,1.700000X1.700000*%
%TD*%
%TA.AperFunction,ComponentPad*%
%ADD19R,1.600000X1.600000*%
%TD*%
%TA.AperFunction,ComponentPad*%
%ADD20R,2.000000X1.905000*%
%TD*%
%TA.AperFunction,ComponentPad*%
%ADD21O,2.000000X1.905000*%
%TD*%
%TA.AperFunction,ComponentPad*%
%ADD22R,1.500000X1.050000*%
%TD*%
%TA.AperFunction,ComponentPad*%
%ADD23O,1.500000X1.050000*%
%TD*%
%TA.AperFunction,ComponentPad*%
%ADD24C,1.500000*%
%TD*%
%TA.AperFunction,Conductor*%
%ADD25C,1.500000*%
%TD*%
%TA.AperFunction,Conductor*%
%ADD26C,1.000000*%
%TD*%
%TA.AperFunction,Conductor*%
%ADD27C,0.500000*%
%TD*%
%TA.AperFunction,Conductor*%
%ADD28C,0.250000*%
%TD*%
G04 APERTURE END LIST*
D10*
%TO.P,BZ1,1,-*%
%TO.N,VCC*%
X200270000Y-78900000D03*
D11*
%TO.P,BZ1,2,+*%
%TO.N,Net-(BZ1-Pad2)*%
X200270000Y-86500000D03*
%TD*%
D10*
%TO.P,U3-MQ6,1,B1*%
%TO.N,MQ6_AI_In*%
X168810000Y-40040000D03*
D11*
%TO.P,U3-MQ6,2,VH+*%
%TO.N,VCC*%
X167420000Y-43400000D03*
%TO.P,U3-MQ6,3,B2*%
%TO.N,Net-(R3-Pad2)*%
X168810000Y-46760000D03*
%TO.P,U3-MQ6,4,A2*%
%TO.N,VCC*%
X175530000Y-46760000D03*
%TO.P,U3-MQ6,5,VH-*%
%TO.N,GND*%
X176920000Y-43400000D03*
%TO.P,U3-MQ6,6,A1*%
%TO.N,VCC*%
X175530000Y-40040000D03*
%TD*%
D12*
%TO.P,R1,1*%
%TO.N,Botao_ON{slash}OFF_DI_In*%
X162010000Y-71340000D03*
D13*
%TO.P,R1,2*%
%TO.N,GND*%
X162010000Y-61180000D03*
%TD*%
D11*
%TO.P,C2,1*%
%TO.N,GND*%
X109870000Y-51500000D03*
%TO.P,C2,2*%
%TO.N,XTAL1*%
X109870000Y-56500000D03*
%TD*%
D14*
%TO.P,J1,1*%
%TO.N,Net-(C3-Pad1)*%
X85970000Y-57242500D03*
D15*
%TO.P,J1,2*%
%TO.N,GND*%
X79970000Y-57242500D03*
D16*
%TO.P,J1,3*%
%TO.N,N/C*%
X82970000Y-61942500D03*
%TD*%
D12*
%TO.P,R5,1*%
%TO.N,VCC*%
X191170000Y-104280000D03*
D13*
%TO.P,R5,2*%
%TO.N,IR2_In*%
X191170000Y-94120000D03*
%TD*%
D12*
%TO.P,R4,1*%
%TO.N,VCC*%
X190870000Y-131880000D03*
D13*
%TO.P,R4,2*%
%TO.N,IR1_In*%
X190870000Y-121720000D03*
%TD*%
D12*
%TO.P,R2,1*%
%TO.N,unconnected-(R2-Pad1)*%
X96340000Y-35420000D03*
D13*
%TO.P,R2,2*%
%TO.N,VCC*%
X96340000Y-45580000D03*
%TD*%
D17*
%TO.P,J2-IR1,1,Pin_1*%
%TO.N,VCC*%
X91260000Y-37975000D03*
D18*
%TO.P,J2-IR1,2,Pin_2*%
%TO.N,GND*%
X91260000Y-40515000D03*
%TO.P,J2-IR1,3,Pin_3*%
%TO.N,IR1_In*%
X91260000Y-43055000D03*
%TD*%
D17*
%TO.P,J4-MQ7,1,Pin_1*%
%TO.N,unconnected-(J4-MQ7-Pad1)*%
X188680000Y-63720000D03*
D18*
%TO.P,J4-MQ7,2,Pin_2*%
%TO.N,MQ7_DI_In*%
X188680000Y-66260000D03*
%TO.P,J4-MQ7,3,Pin_3*%
%TO.N,GND*%
X188680000Y-68800000D03*
%TO.P,J4-MQ7,4,Pin_4*%
%TO.N,VCC*%
X188680000Y-71340000D03*
%TD*%
D17*
%TO.P,J8-LCD_Source1,1,Pin_1*%
%TO.N,unconnected-(J8-LCD_Source1-Pad1)*%
X130170000Y-156960000D03*
D18*
%TO.P,J8-LCD_Source1,2,Pin_2*%
%TO.N,unconnected-(J8-LCD_Source1-Pad2)*%
X127630000Y-156960000D03*
%TO.P,J8-LCD_Source1,3,Pin_3*%
%TO.N,VCC*%
X125090000Y-156960000D03*
%TO.P,J8-LCD_Source1,4,Pin_4*%
%TO.N,GND*%
X122550000Y-156960000D03*
%TO.P,J8-LCD_Source1,5,Pin_5*%
%TO.N,unconnected-(J8-LCD_Source1-Pad5)*%
X120010000Y-156960000D03*
%TO.P,J8-LCD_Source1,6,Pin_6*%
%TO.N,unconnected-(J8-LCD_Source1-Pad6)*%
X117470000Y-156960000D03*
%TD*%
D19*
%TO.P,C3,1*%
%TO.N,Net-(C3-Pad1)*%
X129170000Y-75400000D03*
D12*
%TO.P,C3,2*%
%TO.N,GND*%
X131670000Y-75400000D03*
%TD*%
D19*
%TO.P,C4,1*%
%TO.N,VCC*%
X129170000Y-68165000D03*
D12*
%TO.P,C4,2*%
%TO.N,GND*%
X131670000Y-68165000D03*
%TD*%
D13*
%TO.P,,80,PC4*%
%TO.N,MQ4_DI_In*%
X158200000Y-37050000D03*
%TD*%
D20*
%TO.P,U2,1,VI*%
%TO.N,Net-(C3-Pad1)*%
X137270000Y-58000000D03*
D21*
%TO.P,U2,2,GND*%
%TO.N,GND*%
X137270000Y-60540000D03*
%TO.P,U2,3,VO*%
%TO.N,VCC*%
X137270000Y-63080000D03*
%TD*%
D11*
%TO.P,J11-Reset1,1,Pin_1*%
%TO.N,GND*%
X206820000Y-117650000D03*
X200320000Y-117650000D03*
%TO.P,J11-Reset1,2,Pin_2*%
%TO.N,unconnected-(J11-Reset1-Pad2)*%
X200320000Y-122150000D03*
X206820000Y-122150000D03*
%TD*%
D17*
%TO.P,J7-LCD_Digital_Pins_1,1,Pin_1*%
%TO.N,BIT4_LCD_DI_Out*%
X152970000Y-108700000D03*
D18*
%TO.P,J7-LCD_Digital_Pins_1,2,Pin_2*%
%TO.N,BIT3_LCD_DI_Out*%
X150430000Y-108700000D03*
%TO.P,J7-LCD_Digital_Pins_1,3,Pin_3*%
%TO.N,BIT2_LCD_DI_Out*%
X147890000Y-108700000D03*
%TO.P,J7-LCD_Digital_Pins_1,4,Pin_4*%
%TO.N,BIT1_LCD_DI_Out*%
X145350000Y-108700000D03*
%TO.P,J7-LCD_Digital_Pins_1,5,Pin_5*%
%TO.N,unconnected-(J7-LCD_Digital_Pins_1-Pad5)*%
X142810000Y-108700000D03*
%TO.P,J7-LCD_Digital_Pins_1,6,Pin_6*%
%TO.N,unconnected-(J7-LCD_Digital_Pins_1-Pad6)*%
X140270000Y-108700000D03*
%TO.P,J7-LCD_Digital_Pins_1,7,Pin_7*%
%TO.N,unconnected-(J7-LCD_Digital_Pins_1-Pad7)*%
X137730000Y-108700000D03*
%TO.P,J7-LCD_Digital_Pins_1,8,Pin_8*%
%TO.N,unconnected-(J7-LCD_Digital_Pins_1-Pad8)*%
X135190000Y-108700000D03*
%TD*%
D22*
%TO.P,Q1,1,S*%
%TO.N,GND*%
X163280000Y-90390000D03*
D23*
%TO.P,Q1,2,G*%
%TO.N,Buzzer_DI_Out*%
X163280000Y-89120000D03*
%TO.P,Q1,3,D*%
%TO.N,Net-(BZ1-Pad2)*%
X163280000Y-87850000D03*
%TD*%
D24*
%TO.P,Y1,1,1*%
%TO.N,XTAL1*%
X141690000Y-76510000D03*
%TO.P,Y1,2,2*%
%TO.N,XTAL2*%
X141690000Y-81410000D03*
%TD*%
D17*
%TO.P,J5-MQ4,1,Pin_1*%
%TO.N,unconnected-(J5-MQ4-Pad1)*%
X201380000Y-43400000D03*
D18*
%TO.P,J5-MQ4,2,Pin_2*%
%TO.N,MQ4_DI_In*%
X201380000Y-45940000D03*
%TO.P,J5-MQ4,3,Pin_3*%
%TO.N,GND*%
X201380000Y-48480000D03*
%TO.P,J5-MQ4,4,Pin_4*%
%TO.N,VCC*%
X201380000Y-51020000D03*
%TD*%
D11*
%TO.P,J10-Botton_On/Off1,1,Pin_1*%
%TO.N,VCC*%
X206720000Y-104850000D03*
X200220000Y-104850000D03*
%TO.P,J10-Botton_On/Off1,2,Pin_2*%
%TO.N,unconnected-(J10-Botton_On/Off1-Pad2)*%
X206720000Y-109350000D03*
X200220000Y-109350000D03*
%TD*%
D19*
%TO.P,U1,1,~{RESET}/PC6*%
%TO.N,Reset_DI_In*%
X103590000Y-64665000D03*
D13*
%TO.P,U1,2,PD0*%
%TO.N,unconnected-(U1-Pad2)*%
X103590000Y-67205000D03*
%TO.P,U1,3,PD1*%
%TO.N,unconnected-(U1-Pad3)*%
X103590000Y-69745000D03*
%TO.P,U1,4,PD2*%
%TO.N,IR1_In*%
X103590000Y-72285000D03*
%TO.P,U1,5,PD3*%
%TO.N,IR2_In*%
X103590000Y-74825000D03*
%TO.P,U1,6,PD4*%
%TO.N,Botao_ON{slash}OFF_DI_In*%
X103590000Y-77365000D03*
%TO.P,U1,7,VCC*%
%TO.N,VCC*%
X103590000Y-79905000D03*
%TO.P,U1,8,GND*%
%TO.N,GND*%
X103590000Y-82445000D03*
%TO.P,U1,9,XTAL1/PB6*%
%TO.N,XTAL1*%
X103590000Y-84985000D03*
%TO.P,U1,10,XTAL2/PB7*%
%TO.N,XTAL2*%
X103590000Y-87525000D03*
%TO.P,U1,11,PD5*%
%TO.N,RS_LCD_Out*%
X103590000Y-90065000D03*
%TO.P,U1,12,PD6*%
%TO.N,Enable_LCD_Out*%
X103590000Y-92605000D03*
%TO.P,U1,13,PD7*%
%TO.N,Ctrl_BackLight_LDC_Out*%
X103590000Y-95145000D03*
%TO.P,U1,14,PB0*%
%TO.N,unconnected-(U1-Pad14)*%
X103590000Y-97685000D03*
%TO.P,U1,15,PB1*%
%TO.N,Buzzer_DI_Out*%
X111210000Y-97685000D03*
%TO.P,U1,16,PB2*%
%TO.N,BIT1_LCD_DI_Out*%
X111210000Y-95145000D03*
%TO.P,U1,17,PB3*%
%TO.N,BIT2_LCD_DI_Out*%
X111210000Y-92605000D03*
%TO.P,U1,18,PB4*%
%TO.N,BIT3_LCD_DI_Out*%
X111210000Y-90065000D03*
%TO.P,U1,19,PB5*%
%TO.N,BIT4_LCD_DI_Out*%
X111210000Y-87525000D03*
%TO.P,U1,20,AVCC*%
%TO.N,VCC*%
X111210000Y-84985000D03*
%TO.P,U1,21,AREF*%
%TO.N,GND*%
X111210000Y-82445000D03*
%TO.P,U1,22,GND*%
X111210000Y-79905000D03*
%TO.P,U1,23,PC0*%
%TO.N,MQ6_AI_In*%
X111210000Y-77365000D03*
%TO.P,U1,24,PC1*%
%TO.N,MQ7_DI_In*%
X111210000Y-74825000D03*
%TO.P,U1,25,PC2*%
%TO.N,MQ4_DI_In*%
X111210000Y-72285000D03*
%TO.P,U1,26,PC3*%
%TO.N,LCD_AI_In*%
X111210000Y-69745000D03*
%TO.P,U1,27,PC4*%
%TO.N,unconnected-(U1-Pad27)*%
X111210000Y-67205000D03*
%TO.P,U1,28,PC5*%
%TO.N,unconnected-(U1-Pad28)*%
X111210000Y-64665000D03*
%TD*%
D17*
%TO.P,J3-IR2,1,Pin_1*%
%TO.N,VCC*%
X107570000Y-43040000D03*
D18*
%TO.P,J3-IR2,2,Pin_2*%
%TO.N,GND*%
X107570000Y-40500000D03*
%TO.P,J3-IR2,3,Pin_3*%
%TO.N,IR2_In*%
X107570000Y-37960000D03*
%TD*%
D11*
%TO.P,C1,1*%
%TO.N,GND*%
X101370000Y-51500000D03*
%TO.P,C1,2*%
%TO.N,XTAL2*%
X101370000Y-56500000D03*
%TD*%
D17*
%TO.P,J6-LCD_Digital_Pins_1,1,Pin_1*%
%TO.N,unconnected-(J6-LCD_Digital_Pins_1-Pad1)*%
X131060000Y-108700000D03*
D18*
%TO.P,J6-LCD_Digital_Pins_1,2,Pin_2*%
%TO.N,GND*%
X128520000Y-108700000D03*
%TO.P,J6-LCD_Digital_Pins_1,3,Pin_3*%
%TO.N,unconnected-(J6-LCD_Digital_Pins_1-Pad3)*%
X125980000Y-108700000D03*
%TO.P,J6-LCD_Digital_Pins_1,4,Pin_4*%
%TO.N,unconnected-(J6-LCD_Digital_Pins_1-Pad4)*%
X123440000Y-108700000D03*
%TO.P,J6-LCD_Digital_Pins_1,5,Pin_5*%
%TO.N,unconnected-(J6-LCD_Digital_Pins_1-Pad5)*%
X120900000Y-108700000D03*
%TO.P,J6-LCD_Digital_Pins_1,6,Pin_6*%
%TO.N,Ctrl_BackLight_LDC_Out*%
X118360000Y-108700000D03*
%TO.P,J6-LCD_Digital_Pins_1,7,Pin_7*%
%TO.N,Enable_LCD_Out*%
X115820000Y-108700000D03*
%TO.P,J6-LCD_Digital_Pins_1,8,Pin_8*%
%TO.N,RS_LCD_Out*%
X113280000Y-108700000D03*
%TD*%
D12*
%TO.P,R3,1*%
%TO.N,GND*%
X112850000Y-35420000D03*
D13*
%TO.P,R3,2*%
%TO.N,Net-(R3-Pad2)*%
X112850000Y-45580000D03*
%TD*%
D17*
%TO.P,J9-LCD_Analog_Pins1,1,Pin_1*%
%TO.N,LCD_AI_In*%
X152970000Y-156960000D03*
D18*
%TO.P,J9-LCD_Analog_Pins1,2,Pin_2*%
%TO.N,unconnected-(J9-LCD_Analog_Pins1-Pad2)*%
X150430000Y-156960000D03*
%TO.P,J9-LCD_Analog_Pins1,3,Pin_3*%
%TO.N,unconnected-(J9-LCD_Analog_Pins1-Pad3)*%
X147890000Y-156960000D03*
%TO.P,J9-LCD_Analog_Pins1,4,Pin_4*%
%TO.N,unconnected-(J9-LCD_Analog_Pins1-Pad4)*%
X145350000Y-156960000D03*
%TO.P,J9-LCD_Analog_Pins1,5,Pin_5*%
%TO.N,unconnected-(J9-LCD_Analog_Pins1-Pad5)*%
X142810000Y-156960000D03*
%TO.P,J9-LCD_Analog_Pins1,6,Pin_6*%
%TO.N,unconnected-(J9-LCD_Analog_Pins1-Pad6)*%
X140270000Y-156960000D03*
%TD*%
D25*
%TO.N,VCC*%
X204870000Y-78900000D02*
X206720000Y-80750000D01*
X187170000Y-160200000D02*
X127127919Y-160200000D01*
X135190000Y-49020000D02*
X141570000Y-55400000D01*
X141570000Y-55400000D02*
X176550000Y-55400000D01*
X190870000Y-131880000D02*
X190870000Y-156500000D01*
X105030000Y-45580000D02*
X107570000Y-43040000D01*
X96340000Y-39370000D02*
X94945000Y-37975000D01*
X206720000Y-80750000D02*
X206720000Y-104850000D01*
X96340000Y-45580000D02*
X96340000Y-39370000D01*
X190870000Y-156500000D02*
X187170000Y-160200000D01*
X200220000Y-104850000D02*
X191740000Y-104850000D01*
X135190000Y-49020000D02*
X108470000Y-49020000D01*
X184870000Y-71340000D02*
X179790000Y-66260000D01*
X176550000Y-55400000D02*
X179790000Y-58640000D01*
X96350000Y-45590000D02*
X96340000Y-45580000D01*
X179790000Y-51020000D02*
X175530000Y-46760000D01*
X197810000Y-71340000D02*
X201380000Y-67770000D01*
X141570000Y-55400000D02*
X141570000Y-61800000D01*
X172170000Y-43400000D02*
X175530000Y-46760000D01*
X127127919Y-160200000D02*
X125090000Y-158162081D01*
X140290000Y-63080000D02*
X137270000Y-63080000D01*
X196370000Y-130000000D02*
X194490000Y-131880000D01*
X174530000Y-41040000D02*
X175530000Y-40040000D01*
X129170000Y-68165000D02*
X129170000Y-67600000D01*
X174530000Y-45760000D02*
X174530000Y-41040000D01*
X196370000Y-115000000D02*
X196370000Y-130000000D01*
X94945000Y-37975000D02*
X91260000Y-37975000D01*
X133690000Y-63080000D02*
X129170000Y-67600000D01*
X201380000Y-67770000D02*
X201380000Y-51020000D01*
X167420000Y-43400000D02*
X172170000Y-43400000D01*
X179790000Y-58640000D02*
X179790000Y-51020000D01*
X125090000Y-156960000D02*
X125090000Y-158162081D01*
X191170000Y-104280000D02*
X191170000Y-109800000D01*
X194490000Y-131880000D02*
X190870000Y-131880000D01*
X137270000Y-63080000D02*
X133690000Y-63080000D01*
X107570000Y-43040000D02*
X107575585Y-43040000D01*
X188680000Y-71340000D02*
X184870000Y-71340000D01*
X191740000Y-104850000D02*
X191170000Y-104280000D01*
X108470000Y-49020000D02*
X105030000Y-45580000D01*
X200270000Y-78900000D02*
X204870000Y-78900000D01*
X179790000Y-66260000D02*
X179790000Y-58640000D01*
X197810000Y-71340000D02*
X200270000Y-73800000D01*
X141570000Y-61800000D02*
X140290000Y-63080000D01*
X188680000Y-71340000D02*
X197810000Y-71340000D01*
X206720000Y-104850000D02*
X200220000Y-104850000D01*
X96340000Y-45580000D02*
X105030000Y-45580000D01*
X200270000Y-73800000D02*
X200270000Y-78900000D01*
X175530000Y-46760000D02*
X174530000Y-45760000D01*
X191170000Y-109800000D02*
X196370000Y-115000000D01*
D26*
%TO.N,Net-(BZ1-Pad2)*%
X163360000Y-87770000D02*
X163280000Y-87850000D01*
D27*
%TO.N,XTAL2*%
X107295000Y-86275000D02*
X106045000Y-87525000D01*
D26*
X97070000Y-60800000D02*
X97070000Y-85500000D01*
D27*
X106045000Y-87525000D02*
X103590000Y-87525000D01*
X136195000Y-86275000D02*
X107295000Y-86275000D01*
D26*
X101370000Y-56500000D02*
X97070000Y-60800000D01*
X97070000Y-85500000D02*
X99095000Y-87525000D01*
X99095000Y-87525000D02*
X103590000Y-87525000D01*
D27*
X141690000Y-81410000D02*
X141060000Y-81410000D01*
X141060000Y-81410000D02*
X136195000Y-86275000D01*
D26*
%TO.N,XTAL1*%
X100155000Y-84985000D02*
X103590000Y-84985000D01*
X98970000Y-63200000D02*
X98970000Y-83800000D01*
D27*
X141690000Y-76510000D02*
X134500000Y-83700000D01*
D26*
X109870000Y-56500000D02*
X107970000Y-58400000D01*
X107970000Y-58400000D02*
X103770000Y-58400000D01*
D27*
X104875000Y-83700000D02*
X134500000Y-83700000D01*
D26*
X98970000Y-83800000D02*
X100155000Y-84985000D01*
X103770000Y-58400000D02*
X98970000Y-63200000D01*
D27*
X104875000Y-83700000D02*
X103590000Y-84985000D01*
D26*
%TO.N,Net-(C3-Pad1)*%
X126470000Y-72700000D02*
X129170000Y-75400000D01*
X126470000Y-60200000D02*
X128670000Y-58000000D01*
X97427500Y-57242500D02*
X100470000Y-54200000D01*
X128670000Y-58000000D02*
X137270000Y-58000000D01*
X100470000Y-54200000D02*
X120470000Y-54200000D01*
X85970000Y-57242500D02*
X97427500Y-57242500D01*
X120470000Y-54200000D02*
X126470000Y-60200000D01*
X126470000Y-60200000D02*
X126470000Y-72700000D01*
%TO.N,MQ4_DI_In*%
X158200000Y-37050000D02*
X189950000Y-37050000D01*
X198840000Y-45940000D02*
X201380000Y-45940000D01*
X189950000Y-37050000D02*
X198840000Y-45940000D01*
%TO.N,Ctrl_BackLight_LDC_Out*%
X107570000Y-103700000D02*
X106470000Y-102600000D01*
X118360000Y-108700000D02*
X118360000Y-106190000D01*
X106470000Y-96810000D02*
X104805000Y-95145000D01*
X106470000Y-102600000D02*
X106470000Y-96810000D01*
X103590000Y-95145000D02*
X104805000Y-95145000D01*
X118360000Y-106190000D02*
X115870000Y-103700000D01*
X115870000Y-103700000D02*
X107570000Y-103700000D01*
%TO.N,Enable_LCD_Out*%
X104970000Y-105900000D02*
X114270000Y-105900000D01*
X101670000Y-102600000D02*
X104970000Y-105900000D01*
X114270000Y-105900000D02*
X115820000Y-107450000D01*
X103590000Y-92605000D02*
X101670000Y-94525000D01*
X101670000Y-94525000D02*
X101670000Y-102600000D01*
X115820000Y-107450000D02*
X115820000Y-108700000D01*
%TO.N,RS_LCD_Out*%
X101205000Y-90065000D02*
X99770000Y-91500000D01*
X103590000Y-90065000D02*
X101205000Y-90065000D01*
X104370000Y-111700000D02*
X111570000Y-111700000D01*
X111570000Y-111700000D02*
X113280000Y-109990000D01*
X99770000Y-107100000D02*
X104370000Y-111700000D01*
X113280000Y-109990000D02*
X113280000Y-108700000D01*
X99770000Y-91500000D02*
X99770000Y-107100000D01*
%TO.N,BIT4_LCD_DI_Out*%
X111210000Y-87525000D02*
X111685000Y-88000000D01*
X143770000Y-88000000D02*
X152970000Y-97200000D01*
X152970000Y-97200000D02*
X152970000Y-108700000D01*
X111685000Y-88000000D02*
X143770000Y-88000000D01*
%TO.N,BIT3_LCD_DI_Out*%
X150430000Y-98560000D02*
X150430000Y-108700000D01*
X141935000Y-90065000D02*
X150430000Y-98560000D01*
X111210000Y-90065000D02*
X141935000Y-90065000D01*
%TO.N,BIT2_LCD_DI_Out*%
X111210000Y-92605000D02*
X141675000Y-92605000D01*
X141675000Y-92605000D02*
X147890000Y-98820000D01*
X147890000Y-98820000D02*
X147890000Y-108700000D01*
%TO.N,BIT1_LCD_DI_Out*%
X140115000Y-95145000D02*
X145370000Y-100400000D01*
D28*
X145370000Y-100400000D02*
X145350000Y-100420000D01*
D26*
X145350000Y-100420000D02*
X145350000Y-108700000D01*
X111210000Y-95145000D02*
X140115000Y-95145000D01*
%TO.N,LCD_AI_In*%
X113770000Y-72305000D02*
X113770000Y-78000000D01*
D28*
X171270000Y-81600000D02*
X171270000Y-81500000D01*
D26*
X152970000Y-126900000D02*
X152970000Y-156960000D01*
X117470000Y-81700000D02*
X132170000Y-81700000D01*
X171270000Y-118800000D02*
X166970000Y-123100000D01*
X113770000Y-78000000D02*
X117470000Y-81700000D01*
X111210000Y-69745000D02*
X113770000Y-72305000D01*
X156770000Y-123100000D02*
X152970000Y-126900000D01*
X164370000Y-74400000D02*
X171270000Y-81300000D01*
X166970000Y-123100000D02*
X156770000Y-123100000D01*
X171270000Y-81300000D02*
X171270000Y-118800000D01*
X132170000Y-81700000D02*
X139470000Y-74400000D01*
X139470000Y-74400000D02*
X164370000Y-74400000D01*
%TO.N,Buzzer_DI_Out*%
X164685000Y-89120000D02*
X163280000Y-89120000D01*
X111210000Y-97685000D02*
X129855000Y-97685000D01*
X132770000Y-113200000D02*
X135670000Y-116100000D01*
X163740000Y-95730000D02*
X166370000Y-93100000D01*
X166370000Y-93100000D02*
X166370000Y-90805000D01*
X129855000Y-97685000D02*
X132770000Y-100600000D01*
X166370000Y-90805000D02*
X164685000Y-89120000D01*
X132770000Y-100600000D02*
X132770000Y-113200000D01*
X155670000Y-116100000D02*
X155670000Y-98000000D01*
X157940000Y-95730000D02*
X163740000Y-95730000D01*
X155670000Y-98000000D02*
X157940000Y-95730000D01*
X135670000Y-116100000D02*
X155670000Y-116100000D01*
%TO.N,Botao_ON{slash}OFF_DI_In*%
X150910000Y-71340000D02*
X162010000Y-71340000D01*
X139470000Y-71300000D02*
X150870000Y-71300000D01*
X103590000Y-77365000D02*
X104805000Y-77365000D01*
X121670000Y-62600000D02*
X124470000Y-65400000D01*
X124470000Y-65400000D02*
X124470000Y-78200000D01*
X106370000Y-65000000D02*
X108770000Y-62600000D01*
X125970000Y-79700000D02*
X131070000Y-79700000D01*
X124470000Y-78200000D02*
X125970000Y-79700000D01*
X104805000Y-77365000D02*
X106370000Y-75800000D01*
X131070000Y-79700000D02*
X139470000Y-71300000D01*
X106370000Y-75800000D02*
X106370000Y-65000000D01*
X108770000Y-62600000D02*
X121670000Y-62600000D01*
X150870000Y-71300000D02*
X150910000Y-71340000D01*
%TO.N,Net-(R3-Pad2)*%
X165820000Y-49750000D02*
X168810000Y-46760000D01*
X120990000Y-37440000D02*
X112850000Y-45580000D01*
X148110000Y-37440000D02*
X120990000Y-37440000D01*
X148110000Y-37440000D02*
X160420000Y-49750000D01*
X160420000Y-49750000D02*
X165820000Y-49750000D01*
%TD*%
M02*
