%TF.GenerationSoftware,KiCad,Pcbnew,(6.0.7)*%
%TF.CreationDate,2022-11-30T14:42:28-03:00*%
%TF.ProjectId,E3_Gas_Leak_Safety_System,45335f47-6173-45f4-9c65-616b5f536166,rev?*%
%TF.SameCoordinates,Original*%
%TF.FileFunction,Soldermask,Bot*%
%TF.FilePolarity,Negative*%
%FSLAX46Y46*%
G04 Gerber Fmt 4.6, Leading zero omitted, Abs format (unit mm)*
G04 Created by KiCad (PCBNEW (6.0.7)) date 2022-11-30 14:42:28*
%MOMM*%
%LPD*%
G01*
G04 APERTURE LIST*
G04 Aperture macros list*
%AMRoundRect*
0 Rectangle with rounded corners*
0 $1 Rounding radius*
0 $2 $3 $4 $5 $6 $7 $8 $9 X,Y pos of 4 corners*
0 Add a 4 corners polygon primitive as box body*
4,1,4,$2,$3,$4,$5,$6,$7,$8,$9,$2,$3,0*
0 Add four circle primitives for the rounded corners*
1,1,$1+$1,$2,$3*
1,1,$1+$1,$4,$5*
1,1,$1+$1,$6,$7*
1,1,$1+$1,$8,$9*
0 Add four rect primitives between the rounded corners*
20,1,$1+$1,$2,$3,$4,$5,0*
20,1,$1+$1,$4,$5,$6,$7,0*
20,1,$1+$1,$6,$7,$8,$9,0*
20,1,$1+$1,$8,$9,$2,$3,0*%
G04 Aperture macros list end*
%ADD10R,2.000000X2.000000*%
%ADD11C,2.000000*%
%ADD12C,1.600000*%
%ADD13O,1.600000X1.600000*%
%ADD14R,3.500000X3.500000*%
%ADD15RoundRect,0.750000X-0.750000X-1.000000X0.750000X-1.000000X0.750000X1.000000X-0.750000X1.000000X0*%
%ADD16RoundRect,0.875000X-0.875000X-0.875000X0.875000X-0.875000X0.875000X0.875000X-0.875000X0.875000X0*%
%ADD17R,1.700000X1.700000*%
%ADD18O,1.700000X1.700000*%
%ADD19R,1.600000X1.600000*%
%ADD20R,2.000000X1.905000*%
%ADD21O,2.000000X1.905000*%
%ADD22R,1.500000X1.050000*%
%ADD23O,1.500000X1.050000*%
%ADD24C,1.500000*%
G04 APERTURE END LIST*
D10*
%TO.C,BZ1*%
X200270000Y-78900000D03*
D11*
X200270000Y-86500000D03*
%TD*%
D10*
%TO.C,U3-MQ6*%
X168810000Y-40040000D03*
D11*
X167420000Y-43400000D03*
X168810000Y-46760000D03*
X175530000Y-46760000D03*
X176920000Y-43400000D03*
X175530000Y-40040000D03*
%TD*%
D12*
%TO.C,R1*%
X162010000Y-71340000D03*
D13*
X162010000Y-61180000D03*
%TD*%
D11*
%TO.C,C2*%
X109870000Y-51500000D03*
X109870000Y-56500000D03*
%TD*%
D14*
%TO.C,J1*%
X85970000Y-57242500D03*
D15*
X79970000Y-57242500D03*
D16*
X82970000Y-61942500D03*
%TD*%
D12*
%TO.C,R5*%
X191170000Y-104280000D03*
D13*
X191170000Y-94120000D03*
%TD*%
D12*
%TO.C,R4*%
X190870000Y-131880000D03*
D13*
X190870000Y-121720000D03*
%TD*%
D12*
%TO.C,R2*%
X96340000Y-35420000D03*
D13*
X96340000Y-45580000D03*
%TD*%
D17*
%TO.C,J2-IR1*%
X91260000Y-37975000D03*
D18*
X91260000Y-40515000D03*
X91260000Y-43055000D03*
%TD*%
D17*
%TO.C,J4-MQ7*%
X188680000Y-63720000D03*
D18*
X188680000Y-66260000D03*
X188680000Y-68800000D03*
X188680000Y-71340000D03*
%TD*%
D17*
%TO.C,J8-LCD_Source1*%
X130170000Y-156960000D03*
D18*
X127630000Y-156960000D03*
X125090000Y-156960000D03*
X122550000Y-156960000D03*
X120010000Y-156960000D03*
X117470000Y-156960000D03*
%TD*%
D19*
%TO.C,C3*%
X129170000Y-75400000D03*
D12*
X131670000Y-75400000D03*
%TD*%
D19*
%TO.C,C4*%
X129170000Y-68165000D03*
D12*
X131670000Y-68165000D03*
%TD*%
D13*
%TO.C,*%
X158200000Y-37050000D03*
%TD*%
D20*
%TO.C,U2*%
X137270000Y-58000000D03*
D21*
X137270000Y-60540000D03*
X137270000Y-63080000D03*
%TD*%
D11*
%TO.C,J11-Reset1*%
X206820000Y-117650000D03*
X200320000Y-117650000D03*
X200320000Y-122150000D03*
X206820000Y-122150000D03*
%TD*%
D17*
%TO.C,J7-LCD_Digital_Pins_1*%
X152970000Y-108700000D03*
D18*
X150430000Y-108700000D03*
X147890000Y-108700000D03*
X145350000Y-108700000D03*
X142810000Y-108700000D03*
X140270000Y-108700000D03*
X137730000Y-108700000D03*
X135190000Y-108700000D03*
%TD*%
D22*
%TO.C,Q1*%
X163280000Y-90390000D03*
D23*
X163280000Y-89120000D03*
X163280000Y-87850000D03*
%TD*%
D24*
%TO.C,Y1*%
X141690000Y-76510000D03*
X141690000Y-81410000D03*
%TD*%
D17*
%TO.C,J5-MQ4*%
X201380000Y-43400000D03*
D18*
X201380000Y-45940000D03*
X201380000Y-48480000D03*
X201380000Y-51020000D03*
%TD*%
D11*
%TO.C,J10-Botton_On/Off1*%
X206720000Y-104850000D03*
X200220000Y-104850000D03*
X206720000Y-109350000D03*
X200220000Y-109350000D03*
%TD*%
D19*
%TO.C,U1*%
X103590000Y-64665000D03*
D13*
X103590000Y-67205000D03*
X103590000Y-69745000D03*
X103590000Y-72285000D03*
X103590000Y-74825000D03*
X103590000Y-77365000D03*
X103590000Y-79905000D03*
X103590000Y-82445000D03*
X103590000Y-84985000D03*
X103590000Y-87525000D03*
X103590000Y-90065000D03*
X103590000Y-92605000D03*
X103590000Y-95145000D03*
X103590000Y-97685000D03*
X111210000Y-97685000D03*
X111210000Y-95145000D03*
X111210000Y-92605000D03*
X111210000Y-90065000D03*
X111210000Y-87525000D03*
X111210000Y-84985000D03*
X111210000Y-82445000D03*
X111210000Y-79905000D03*
X111210000Y-77365000D03*
X111210000Y-74825000D03*
X111210000Y-72285000D03*
X111210000Y-69745000D03*
X111210000Y-67205000D03*
X111210000Y-64665000D03*
%TD*%
D17*
%TO.C,J3-IR2*%
X107570000Y-43040000D03*
D18*
X107570000Y-40500000D03*
X107570000Y-37960000D03*
%TD*%
D11*
%TO.C,C1*%
X101370000Y-51500000D03*
X101370000Y-56500000D03*
%TD*%
D17*
%TO.C,J6-LCD_Digital_Pins_1*%
X131060000Y-108700000D03*
D18*
X128520000Y-108700000D03*
X125980000Y-108700000D03*
X123440000Y-108700000D03*
X120900000Y-108700000D03*
X118360000Y-108700000D03*
X115820000Y-108700000D03*
X113280000Y-108700000D03*
%TD*%
D12*
%TO.C,R3*%
X112850000Y-35420000D03*
D13*
X112850000Y-45580000D03*
%TD*%
D17*
%TO.C,J9-LCD_Analog_Pins1*%
X152970000Y-156960000D03*
D18*
X150430000Y-156960000D03*
X147890000Y-156960000D03*
X145350000Y-156960000D03*
X142810000Y-156960000D03*
X140270000Y-156960000D03*
%TD*%
M02*
