%TF.GenerationSoftware,KiCad,Pcbnew,6.0.9-8da3e8f707~117~ubuntu20.04.1*%
%TF.CreationDate,2022-11-28T20:35:45-03:00*%
%TF.ProjectId,E3,45332e6b-6963-4616-945f-706362585858,rev?*%
%TF.SameCoordinates,Original*%
%TF.FileFunction,Paste,Top*%
%TF.FilePolarity,Positive*%
%FSLAX46Y46*%
G04 Gerber Fmt 4.6, Leading zero omitted, Abs format (unit mm)*
G04 Created by KiCad (PCBNEW 6.0.9-8da3e8f707~117~ubuntu20.04.1) date 2022-11-28 20:35:45*
%MOMM*%
%LPD*%
G01*
G04 APERTURE LIST*
G04 Aperture macros list*
%AMRoundRect*
0 Rectangle with rounded corners*
0 $1 Rounding radius*
0 $2 $3 $4 $5 $6 $7 $8 $9 X,Y pos of 4 corners*
0 Add a 4 corners polygon primitive as box body*
4,1,4,$2,$3,$4,$5,$6,$7,$8,$9,$2,$3,0*
0 Add four circle primitives for the rounded corners*
1,1,$1+$1,$2,$3*
1,1,$1+$1,$4,$5*
1,1,$1+$1,$6,$7*
1,1,$1+$1,$8,$9*
0 Add four rect primitives between the rounded corners*
20,1,$1+$1,$2,$3,$4,$5,0*
20,1,$1+$1,$4,$5,$6,$7,0*
20,1,$1+$1,$6,$7,$8,$9,0*
20,1,$1+$1,$8,$9,$2,$3,0*%
G04 Aperture macros list end*
%ADD10R,1.050000X2.200000*%
%ADD11R,2.200000X0.600000*%
%ADD12RoundRect,0.250000X0.262500X0.450000X-0.262500X0.450000X-0.262500X-0.450000X0.262500X-0.450000X0*%
%ADD13RoundRect,0.250000X-0.475000X0.250000X-0.475000X-0.250000X0.475000X-0.250000X0.475000X0.250000X0*%
%ADD14RoundRect,0.232500X-0.232500X0.232500X-0.232500X-0.232500X0.232500X-0.232500X0.232500X0.232500X0*%
%ADD15RoundRect,0.062500X-0.062500X0.375000X-0.062500X-0.375000X0.062500X-0.375000X0.062500X0.375000X0*%
%ADD16RoundRect,0.062500X-0.375000X0.062500X-0.375000X-0.062500X0.375000X-0.062500X0.375000X0.062500X0*%
G04 APERTURE END LIST*
D10*
%TO.C,ANT1*%
X182880000Y-99060000D03*
X188080000Y-99060000D03*
%TD*%
D11*
%TO.C,RTC1*%
X188440000Y-112395000D03*
X188440000Y-113665000D03*
X188440000Y-114935000D03*
X188440000Y-116205000D03*
X188440000Y-117475000D03*
X188440000Y-118745000D03*
X188440000Y-120015000D03*
X188440000Y-121285000D03*
X197640000Y-121285000D03*
X197640000Y-120015000D03*
X197640000Y-118745000D03*
X197640000Y-117475000D03*
X197640000Y-116205000D03*
X197640000Y-114935000D03*
X197640000Y-113665000D03*
X197640000Y-112395000D03*
%TD*%
D12*
%TO.C,R1*%
X176172500Y-111760000D03*
X174347500Y-111760000D03*
%TD*%
D13*
%TO.C,C1*%
X182880000Y-110810000D03*
X182880000Y-112710000D03*
%TD*%
D14*
%TO.C,ESP1*%
X182880000Y-123070000D03*
X182880000Y-120770000D03*
X182880000Y-121920000D03*
X184030000Y-120770000D03*
X181730000Y-120770000D03*
X184030000Y-123070000D03*
X181730000Y-123070000D03*
X181730000Y-121920000D03*
X184030000Y-121920000D03*
D15*
X184630000Y-119482500D03*
X184130000Y-119482500D03*
X183630000Y-119482500D03*
X183130000Y-119482500D03*
X182630000Y-119482500D03*
X182130000Y-119482500D03*
X181630000Y-119482500D03*
X181130000Y-119482500D03*
D16*
X180442500Y-120170000D03*
X180442500Y-120670000D03*
X180442500Y-121170000D03*
X180442500Y-121670000D03*
X180442500Y-122170000D03*
X180442500Y-122670000D03*
X180442500Y-123170000D03*
X180442500Y-123670000D03*
D15*
X181130000Y-124357500D03*
X181630000Y-124357500D03*
X182130000Y-124357500D03*
X182630000Y-124357500D03*
X183130000Y-124357500D03*
X183630000Y-124357500D03*
X184130000Y-124357500D03*
X184630000Y-124357500D03*
D16*
X185317500Y-123670000D03*
X185317500Y-123170000D03*
X185317500Y-122670000D03*
X185317500Y-122170000D03*
X185317500Y-121670000D03*
X185317500Y-121170000D03*
X185317500Y-120670000D03*
X185317500Y-120170000D03*
%TD*%
M02*
