%TF.GenerationSoftware,KiCad,Pcbnew,6.0.9-8da3e8f707~117~ubuntu20.04.1*%
%TF.CreationDate,2022-11-28T20:35:45-03:00*%
%TF.ProjectId,E3,45332e6b-6963-4616-945f-706362585858,rev?*%
%TF.SameCoordinates,Original*%
%TF.FileFunction,Copper,L1,Top*%
%TF.FilePolarity,Positive*%
%FSLAX46Y46*%
G04 Gerber Fmt 4.6, Leading zero omitted, Abs format (unit mm)*
G04 Created by KiCad (PCBNEW 6.0.9-8da3e8f707~117~ubuntu20.04.1) date 2022-11-28 20:35:45*
%MOMM*%
%LPD*%
G01*
G04 APERTURE LIST*
G04 Aperture macros list*
%AMRoundRect*
0 Rectangle with rounded corners*
0 $1 Rounding radius*
0 $2 $3 $4 $5 $6 $7 $8 $9 X,Y pos of 4 corners*
0 Add a 4 corners polygon primitive as box body*
4,1,4,$2,$3,$4,$5,$6,$7,$8,$9,$2,$3,0*
0 Add four circle primitives for the rounded corners*
1,1,$1+$1,$2,$3*
1,1,$1+$1,$4,$5*
1,1,$1+$1,$6,$7*
1,1,$1+$1,$8,$9*
0 Add four rect primitives between the rounded corners*
20,1,$1+$1,$2,$3,$4,$5,0*
20,1,$1+$1,$4,$5,$6,$7,0*
20,1,$1+$1,$6,$7,$8,$9,0*
20,1,$1+$1,$8,$9,$2,$3,0*%
G04 Aperture macros list end*
%TA.AperFunction,SMDPad,CuDef*%
%ADD10R,1.050000X2.200000*%
%TD*%
%TA.AperFunction,ComponentPad*%
%ADD11R,1.700000X1.700000*%
%TD*%
%TA.AperFunction,ComponentPad*%
%ADD12O,1.700000X1.700000*%
%TD*%
%TA.AperFunction,SMDPad,CuDef*%
%ADD13R,2.200000X0.600000*%
%TD*%
%TA.AperFunction,ComponentPad*%
%ADD14O,2.220000X1.110000*%
%TD*%
%TA.AperFunction,SMDPad,CuDef*%
%ADD15RoundRect,0.250000X0.262500X0.450000X-0.262500X0.450000X-0.262500X-0.450000X0.262500X-0.450000X0*%
%TD*%
%TA.AperFunction,SMDPad,CuDef*%
%ADD16RoundRect,0.250000X-0.475000X0.250000X-0.475000X-0.250000X0.475000X-0.250000X0.475000X0.250000X0*%
%TD*%
%TA.AperFunction,SMDPad,CuDef*%
%ADD17RoundRect,0.062500X-0.062500X0.375000X-0.062500X-0.375000X0.062500X-0.375000X0.062500X0.375000X0*%
%TD*%
%TA.AperFunction,SMDPad,CuDef*%
%ADD18RoundRect,0.062500X-0.375000X0.062500X-0.375000X-0.062500X0.375000X-0.062500X0.375000X0.062500X0*%
%TD*%
%TA.AperFunction,SMDPad,CuDef*%
%ADD19R,3.450000X3.450000*%
%TD*%
%TA.AperFunction,ViaPad*%
%ADD20C,0.800000*%
%TD*%
%TA.AperFunction,Conductor*%
%ADD21C,0.350000*%
%TD*%
G04 APERTURE END LIST*
D10*
%TO.P,ANT1,1,FEED*%
%TO.N,Net-(C1-Pad1)*%
X182880000Y-99060000D03*
%TO.P,ANT1,2,NC*%
%TO.N,unconnected-(ANT1-Pad2)*%
X188080000Y-99060000D03*
%TD*%
D11*
%TO.P,J1,1,Pin_1*%
%TO.N,+3\u002C3V*%
X170180000Y-109220000D03*
D12*
%TO.P,J1,2,Pin_2*%
%TO.N,GND*%
X170180000Y-111760000D03*
%TD*%
D13*
%TO.P,RTC1,1,32KHZ*%
%TO.N,unconnected-(RTC1-Pad1)*%
X188440000Y-112395000D03*
%TO.P,RTC1,2,VCC*%
%TO.N,+3\u002C3V*%
X188440000Y-113665000D03*
%TO.P,RTC1,3,SQW/INT*%
%TO.N,unconnected-(RTC1-Pad3)*%
X188440000Y-114935000D03*
%TO.P,RTC1,4,/RST*%
%TO.N,unconnected-(RTC1-Pad4)*%
X188440000Y-116205000D03*
%TO.P,RTC1,5,NC*%
%TO.N,unconnected-(RTC1-Pad5)*%
X188440000Y-117475000D03*
%TO.P,RTC1,6,NC1*%
%TO.N,unconnected-(RTC1-Pad6)*%
X188440000Y-118745000D03*
%TO.P,RTC1,7,NC2*%
%TO.N,unconnected-(RTC1-Pad7)*%
X188440000Y-120015000D03*
%TO.P,RTC1,8,NC3*%
%TO.N,unconnected-(RTC1-Pad8)*%
X188440000Y-121285000D03*
%TO.P,RTC1,9,NC4*%
%TO.N,unconnected-(RTC1-Pad9)*%
X197640000Y-121285000D03*
%TO.P,RTC1,10,NC5*%
%TO.N,unconnected-(RTC1-Pad10)*%
X197640000Y-120015000D03*
%TO.P,RTC1,11,NC6*%
%TO.N,unconnected-(RTC1-Pad11)*%
X197640000Y-118745000D03*
%TO.P,RTC1,12,NC7*%
%TO.N,unconnected-(RTC1-Pad12)*%
X197640000Y-117475000D03*
%TO.P,RTC1,13,GND*%
%TO.N,GND*%
X197640000Y-116205000D03*
%TO.P,RTC1,14,VBAT*%
%TO.N,unconnected-(RTC1-Pad14)*%
X197640000Y-114935000D03*
%TO.P,RTC1,15,SDA*%
%TO.N,SDA*%
X197640000Y-113665000D03*
%TO.P,RTC1,16,SCL*%
%TO.N,SCL*%
X197640000Y-112395000D03*
%TD*%
D14*
%TO.P,TEMP1,1,GND*%
%TO.N,GND*%
X170940250Y-120650000D03*
%TO.P,TEMP1,2,DQ*%
%TO.N,Net-(ESP1-Pad16)*%
X170940250Y-119380000D03*
%TO.P,TEMP1,3,VDD*%
%TO.N,+3\u002C3V*%
X170940250Y-118110000D03*
%TD*%
D15*
%TO.P,R1,1*%
%TO.N,Net-(ESP1-Pad16)*%
X176172500Y-111760000D03*
%TO.P,R1,2*%
%TO.N,+3\u002C3V*%
X174347500Y-111760000D03*
%TD*%
D16*
%TO.P,C1,1*%
%TO.N,Net-(C1-Pad1)*%
X182880000Y-110810000D03*
%TO.P,C1,2*%
%TO.N,Net-(ESP1-Pad2)*%
X182880000Y-112710000D03*
%TD*%
D17*
%TO.P,ESP1,1,VDDA*%
%TO.N,+3\u002C3V*%
X184630000Y-119482500D03*
%TO.P,ESP1,2,LNA*%
%TO.N,Net-(ESP1-Pad2)*%
X184130000Y-119482500D03*
%TO.P,ESP1,3,VDD3P3*%
%TO.N,unconnected-(ESP1-Pad3)*%
X183630000Y-119482500D03*
%TO.P,ESP1,4,VDD3P3*%
%TO.N,unconnected-(ESP1-Pad4)*%
X183130000Y-119482500D03*
%TO.P,ESP1,5,VDD_RTC*%
%TO.N,unconnected-(ESP1-Pad5)*%
X182630000Y-119482500D03*
%TO.P,ESP1,6,TOUT*%
%TO.N,unconnected-(ESP1-Pad6)*%
X182130000Y-119482500D03*
%TO.P,ESP1,7,CHIP_PU*%
%TO.N,+3\u002C3V*%
X181630000Y-119482500D03*
%TO.P,ESP1,8,XPD_DCDC*%
%TO.N,unconnected-(ESP1-Pad8)*%
X181130000Y-119482500D03*
D18*
%TO.P,ESP1,9,MTMS*%
%TO.N,SDA*%
X180442500Y-120170000D03*
%TO.P,ESP1,10,MTDI*%
%TO.N,unconnected-(ESP1-Pad10)*%
X180442500Y-120670000D03*
%TO.P,ESP1,11,VDDPST*%
%TO.N,unconnected-(ESP1-Pad11)*%
X180442500Y-121170000D03*
%TO.P,ESP1,12,MTCK*%
%TO.N,unconnected-(ESP1-Pad12)*%
X180442500Y-121670000D03*
%TO.P,ESP1,13,MTDO*%
%TO.N,unconnected-(ESP1-Pad13)*%
X180442500Y-122170000D03*
%TO.P,ESP1,14,GPIO2*%
%TO.N,SCL*%
X180442500Y-122670000D03*
%TO.P,ESP1,15,GPIO0*%
%TO.N,unconnected-(ESP1-Pad15)*%
X180442500Y-123170000D03*
%TO.P,ESP1,16,GPIO4*%
%TO.N,Net-(ESP1-Pad16)*%
X180442500Y-123670000D03*
D17*
%TO.P,ESP1,17,VDDPST*%
%TO.N,unconnected-(ESP1-Pad17)*%
X181130000Y-124357500D03*
%TO.P,ESP1,18,SDIO_DATA_2*%
%TO.N,unconnected-(ESP1-Pad18)*%
X181630000Y-124357500D03*
%TO.P,ESP1,19,SDIO_DATA_3*%
%TO.N,unconnected-(ESP1-Pad19)*%
X182130000Y-124357500D03*
%TO.P,ESP1,20,SDIO_CMD*%
%TO.N,unconnected-(ESP1-Pad20)*%
X182630000Y-124357500D03*
%TO.P,ESP1,21,SDIO_CLK*%
%TO.N,unconnected-(ESP1-Pad21)*%
X183130000Y-124357500D03*
%TO.P,ESP1,22,SDIO_DATA_0*%
%TO.N,unconnected-(ESP1-Pad22)*%
X183630000Y-124357500D03*
%TO.P,ESP1,23,SDIO_DATA_1*%
%TO.N,unconnected-(ESP1-Pad23)*%
X184130000Y-124357500D03*
%TO.P,ESP1,24,GPIO5*%
%TO.N,unconnected-(ESP1-Pad24)*%
X184630000Y-124357500D03*
D18*
%TO.P,ESP1,25,U0RXD*%
%TO.N,unconnected-(ESP1-Pad25)*%
X185317500Y-123670000D03*
%TO.P,ESP1,26,U0TXD*%
%TO.N,unconnected-(ESP1-Pad26)*%
X185317500Y-123170000D03*
%TO.P,ESP1,27,XTAL_OUT*%
%TO.N,unconnected-(ESP1-Pad27)*%
X185317500Y-122670000D03*
%TO.P,ESP1,28,XTAL_IN*%
%TO.N,unconnected-(ESP1-Pad28)*%
X185317500Y-122170000D03*
%TO.P,ESP1,29,VDDD*%
%TO.N,unconnected-(ESP1-Pad29)*%
X185317500Y-121670000D03*
%TO.P,ESP1,30,VDDA*%
%TO.N,unconnected-(ESP1-Pad30)*%
X185317500Y-121170000D03*
%TO.P,ESP1,31,RES12K*%
%TO.N,unconnected-(ESP1-Pad31)*%
X185317500Y-120670000D03*
%TO.P,ESP1,32,~{EXT_RSTB}*%
%TO.N,unconnected-(ESP1-Pad32)*%
X185317500Y-120170000D03*
D19*
%TO.P,ESP1,33,GND*%
%TO.N,GND*%
X182880000Y-121920000D03*
%TD*%
D20*
%TO.N,SDA*%
X177800000Y-116840000D03*
X193040000Y-109220000D03*
%TO.N,SCL*%
X198120000Y-109220000D03*
X175260000Y-119380000D03*
%TO.N,GND*%
X182880000Y-121920000D03*
%TD*%
D21*
%TO.N,Net-(ESP1-Pad2)*%
X182880000Y-117790000D02*
X182880000Y-112710000D01*
%TO.N,Net-(C1-Pad1)*%
X182880000Y-99060000D02*
X182880000Y-110810000D01*
%TO.N,+3\u002C3V*%
X184680000Y-119482500D02*
X184680000Y-116545000D01*
X170940250Y-115167250D02*
X174347500Y-111760000D01*
X187560000Y-113665000D02*
X188440000Y-113665000D01*
X171807500Y-109220000D02*
X170180000Y-109220000D01*
X179070000Y-109220000D02*
X174347500Y-109220000D01*
X174347500Y-111760000D02*
X171807500Y-109220000D01*
X184680000Y-116545000D02*
X187560000Y-113665000D01*
X181630000Y-111780000D02*
X179070000Y-109220000D01*
X181630000Y-119482500D02*
X181630000Y-111780000D01*
X170180000Y-109220000D02*
X174347500Y-109220000D01*
X170940250Y-118110000D02*
X170940250Y-115167250D01*
%TO.N,SDA*%
X177800000Y-119380000D02*
X178590000Y-120170000D01*
X178590000Y-120170000D02*
X180442500Y-120170000D01*
X196840000Y-113665000D02*
X197640000Y-113665000D01*
X193040000Y-109865000D02*
X196840000Y-113665000D01*
X177800000Y-116840000D02*
X177800000Y-119380000D01*
X193040000Y-109220000D02*
X193040000Y-109865000D01*
%TO.N,SCL*%
X198120000Y-111915000D02*
X197640000Y-112395000D01*
X178550000Y-122670000D02*
X180442500Y-122670000D01*
X175260000Y-119380000D02*
X178550000Y-122670000D01*
X198120000Y-109220000D02*
X198120000Y-111915000D01*
%TO.N,Net-(ESP1-Pad16)*%
X172720000Y-117752500D02*
X176172500Y-114300000D01*
X176172500Y-114300000D02*
X176172500Y-111760000D01*
X177010000Y-123670000D02*
X180442500Y-123670000D01*
X172720000Y-119380000D02*
X177010000Y-123670000D01*
X172720000Y-119380000D02*
X172720000Y-117752500D01*
X170940250Y-119380000D02*
X172720000Y-119380000D01*
%TO.N,Net-(ESP1-Pad2)*%
X184130000Y-119482500D02*
X184130000Y-118926282D01*
X182993718Y-117790000D02*
X182880000Y-117790000D01*
X184130000Y-118926282D02*
X182993718Y-117790000D01*
%TD*%
%TA.AperFunction,Conductor*%
%TO.N,GND*%
G36*
X182138621Y-106700002D02*
G01*
X182185114Y-106753658D01*
X182196500Y-106806000D01*
X182196500Y-109739143D01*
X182176498Y-109807264D01*
X182122842Y-109853757D01*
X182110378Y-109858666D01*
X182088005Y-109866130D01*
X182087998Y-109866133D01*
X182081054Y-109868450D01*
X181930652Y-109961522D01*
X181805695Y-110086697D01*
X181801855Y-110092927D01*
X181801854Y-110092928D01*
X181726309Y-110215485D01*
X181712885Y-110237262D01*
X181657203Y-110405139D01*
X181656503Y-110411975D01*
X181656502Y-110411978D01*
X181653770Y-110438642D01*
X181646500Y-110509600D01*
X181646500Y-110525695D01*
X181626498Y-110593816D01*
X181572842Y-110640309D01*
X181502568Y-110650413D01*
X181437988Y-110620919D01*
X181431405Y-110614790D01*
X179573156Y-108756541D01*
X179567302Y-108750276D01*
X179535704Y-108714055D01*
X179530710Y-108708330D01*
X179480345Y-108672934D01*
X179475077Y-108669020D01*
X179432649Y-108635752D01*
X179426672Y-108631065D01*
X179419748Y-108627939D01*
X179415439Y-108625329D01*
X179406024Y-108619958D01*
X179401576Y-108617573D01*
X179395361Y-108613205D01*
X179338039Y-108590856D01*
X179331971Y-108588306D01*
X179275895Y-108562986D01*
X179268418Y-108561600D01*
X179263598Y-108560090D01*
X179253165Y-108557118D01*
X179248304Y-108555870D01*
X179241228Y-108553111D01*
X179180238Y-108545082D01*
X179173722Y-108544050D01*
X179120700Y-108534223D01*
X179113233Y-108532839D01*
X179105653Y-108533276D01*
X179105652Y-108533276D01*
X179053358Y-108536291D01*
X179046106Y-108536500D01*
X171882063Y-108536500D01*
X171859103Y-108534390D01*
X171850733Y-108532839D01*
X171843153Y-108533276D01*
X171843152Y-108533276D01*
X171790858Y-108536291D01*
X171783606Y-108536500D01*
X171664500Y-108536500D01*
X171596379Y-108516498D01*
X171549886Y-108462842D01*
X171538500Y-108410500D01*
X171538500Y-108321866D01*
X171531745Y-108259684D01*
X171480615Y-108123295D01*
X171393261Y-108006739D01*
X171276705Y-107919385D01*
X171140316Y-107868255D01*
X171078134Y-107861500D01*
X169281866Y-107861500D01*
X169219684Y-107868255D01*
X169083295Y-107919385D01*
X168966739Y-108006739D01*
X168879385Y-108123295D01*
X168828255Y-108259684D01*
X168821500Y-108321866D01*
X168821500Y-110118134D01*
X168828255Y-110180316D01*
X168879385Y-110316705D01*
X168966739Y-110433261D01*
X169083295Y-110520615D01*
X169091704Y-110523767D01*
X169091705Y-110523768D01*
X169200960Y-110564726D01*
X169257725Y-110607367D01*
X169282425Y-110673929D01*
X169267218Y-110743278D01*
X169247825Y-110769759D01*
X169124590Y-110898717D01*
X169118104Y-110906727D01*
X168998098Y-111082649D01*
X168993000Y-111091623D01*
X168903338Y-111284783D01*
X168899775Y-111294470D01*
X168844389Y-111494183D01*
X168845912Y-111502607D01*
X168858292Y-111506000D01*
X171498344Y-111506000D01*
X171511875Y-111502027D01*
X171513180Y-111492947D01*
X171471214Y-111325875D01*
X171467894Y-111316124D01*
X171382972Y-111120814D01*
X171378105Y-111111739D01*
X171262426Y-110932926D01*
X171256136Y-110924757D01*
X171112293Y-110766677D01*
X171081241Y-110702831D01*
X171089635Y-110632333D01*
X171134812Y-110577564D01*
X171161256Y-110563895D01*
X171268297Y-110523767D01*
X171276705Y-110520615D01*
X171393261Y-110433261D01*
X171480615Y-110316705D01*
X171510850Y-110236054D01*
X171528973Y-110187711D01*
X171528973Y-110187709D01*
X171531745Y-110180316D01*
X171531910Y-110178799D01*
X171565723Y-110119606D01*
X171628677Y-110086784D01*
X171699383Y-110093208D01*
X171742186Y-110121301D01*
X173289595Y-111668710D01*
X173323621Y-111731022D01*
X173326500Y-111757805D01*
X173326500Y-111762195D01*
X173306498Y-111830316D01*
X173289595Y-111851290D01*
X170476791Y-114664094D01*
X170470526Y-114669948D01*
X170428580Y-114706540D01*
X170393184Y-114756905D01*
X170389272Y-114762170D01*
X170351315Y-114810578D01*
X170348189Y-114817502D01*
X170345579Y-114821811D01*
X170340208Y-114831226D01*
X170337823Y-114835674D01*
X170333455Y-114841889D01*
X170330696Y-114848966D01*
X170311108Y-114899207D01*
X170308556Y-114905279D01*
X170283236Y-114961355D01*
X170281850Y-114968832D01*
X170280340Y-114973652D01*
X170277368Y-114984085D01*
X170276120Y-114988946D01*
X170273361Y-114996022D01*
X170272370Y-115003552D01*
X170265332Y-115057012D01*
X170264300Y-115063528D01*
X170253089Y-115124017D01*
X170253526Y-115131597D01*
X170253526Y-115131598D01*
X170256541Y-115183892D01*
X170256750Y-115191144D01*
X170256750Y-116944258D01*
X170236748Y-117012379D01*
X170183092Y-117058872D01*
X170167169Y-117064880D01*
X169978021Y-117121988D01*
X169793870Y-117219902D01*
X169742086Y-117262136D01*
X169637020Y-117347825D01*
X169637017Y-117347828D01*
X169632245Y-117351720D01*
X169628318Y-117356467D01*
X169628316Y-117356469D01*
X169503230Y-117507672D01*
X169503227Y-117507677D01*
X169499302Y-117512421D01*
X169496372Y-117517840D01*
X169496370Y-117517843D01*
X169403035Y-117690463D01*
X169403033Y-117690468D01*
X169400105Y-117695883D01*
X169398283Y-117701770D01*
X169341466Y-117885316D01*
X169338431Y-117895119D01*
X169337787Y-117901244D01*
X169337787Y-117901245D01*
X169325126Y-118021705D01*
X169316630Y-118102540D01*
X169317189Y-118108680D01*
X169334753Y-118301670D01*
X169335533Y-118310244D01*
X169337271Y-118316150D01*
X169337272Y-118316154D01*
X169371600Y-118432789D01*
X169394419Y-118510322D01*
X169444216Y-118605574D01*
X169487262Y-118687914D01*
X169501096Y-118757549D01*
X169486437Y-118806214D01*
X169400105Y-118965883D01*
X169398283Y-118971770D01*
X169341466Y-119155316D01*
X169338431Y-119165119D01*
X169337787Y-119171244D01*
X169337787Y-119171245D01*
X169326748Y-119276277D01*
X169316630Y-119372540D01*
X169318134Y-119389061D01*
X169330738Y-119527553D01*
X169335533Y-119580244D01*
X169337271Y-119586150D01*
X169337272Y-119586154D01*
X169360027Y-119663469D01*
X169394419Y-119780322D01*
X169418909Y-119827166D01*
X169487541Y-119958448D01*
X169501375Y-120028083D01*
X169486715Y-120076752D01*
X169403498Y-120230659D01*
X169398746Y-120241965D01*
X169356422Y-120378692D01*
X169356216Y-120392795D01*
X169362971Y-120396000D01*
X170051215Y-120396000D01*
X170089313Y-120401898D01*
X170163066Y-120425294D01*
X170325378Y-120443500D01*
X171547734Y-120443500D01*
X171702818Y-120428294D01*
X171708713Y-120426514D01*
X171708719Y-120426513D01*
X171791968Y-120401378D01*
X171828386Y-120396000D01*
X172510509Y-120396000D01*
X172525748Y-120391525D01*
X172547986Y-120365861D01*
X172548198Y-120365399D01*
X172607993Y-120327122D01*
X172678989Y-120327248D01*
X172732371Y-120358986D01*
X176506844Y-124133459D01*
X176512698Y-124139724D01*
X176549290Y-124181670D01*
X176599655Y-124217066D01*
X176604920Y-124220978D01*
X176653328Y-124258935D01*
X176660252Y-124262061D01*
X176664561Y-124264671D01*
X176673976Y-124270042D01*
X176678424Y-124272427D01*
X176684639Y-124276795D01*
X176741957Y-124299142D01*
X176748029Y-124301694D01*
X176804105Y-124327014D01*
X176811582Y-124328400D01*
X176816402Y-124329910D01*
X176826835Y-124332882D01*
X176831696Y-124334130D01*
X176838772Y-124336889D01*
X176899020Y-124344820D01*
X176899762Y-124344918D01*
X176906278Y-124345950D01*
X176938840Y-124351985D01*
X176966767Y-124357161D01*
X176974347Y-124356724D01*
X176974348Y-124356724D01*
X177026642Y-124353709D01*
X177033894Y-124353500D01*
X180370500Y-124353500D01*
X180438621Y-124373502D01*
X180485114Y-124427158D01*
X180496500Y-124479500D01*
X180496501Y-124769924D01*
X180511197Y-124881561D01*
X180568733Y-125020464D01*
X180573759Y-125027014D01*
X180573760Y-125027015D01*
X180655230Y-125133189D01*
X180660258Y-125139742D01*
X180779537Y-125231267D01*
X180918439Y-125288803D01*
X180926623Y-125289880D01*
X180926625Y-125289881D01*
X181025988Y-125302962D01*
X181030075Y-125303500D01*
X181129987Y-125303500D01*
X181229924Y-125303499D01*
X181234009Y-125302961D01*
X181234013Y-125302961D01*
X181300344Y-125294229D01*
X181341561Y-125288803D01*
X181348026Y-125286125D01*
X181411974Y-125286125D01*
X181418439Y-125288803D01*
X181512008Y-125301121D01*
X181525981Y-125302961D01*
X181530075Y-125303500D01*
X181629987Y-125303500D01*
X181729924Y-125303499D01*
X181734009Y-125302961D01*
X181734013Y-125302961D01*
X181800344Y-125294229D01*
X181841561Y-125288803D01*
X181848026Y-125286125D01*
X181911974Y-125286125D01*
X181918439Y-125288803D01*
X182012008Y-125301121D01*
X182025981Y-125302961D01*
X182030075Y-125303500D01*
X182129987Y-125303500D01*
X182229924Y-125303499D01*
X182234009Y-125302961D01*
X182234013Y-125302961D01*
X182300344Y-125294229D01*
X182341561Y-125288803D01*
X182348026Y-125286125D01*
X182411974Y-125286125D01*
X182418439Y-125288803D01*
X182512008Y-125301121D01*
X182525981Y-125302961D01*
X182530075Y-125303500D01*
X182629987Y-125303500D01*
X182729924Y-125303499D01*
X182734009Y-125302961D01*
X182734013Y-125302961D01*
X182800344Y-125294229D01*
X182841561Y-125288803D01*
X182848026Y-125286125D01*
X182911974Y-125286125D01*
X182918439Y-125288803D01*
X183012008Y-125301121D01*
X183025981Y-125302961D01*
X183030075Y-125303500D01*
X183129987Y-125303500D01*
X183229924Y-125303499D01*
X183234009Y-125302961D01*
X183234013Y-125302961D01*
X183300344Y-125294229D01*
X183341561Y-125288803D01*
X183348026Y-125286125D01*
X183411974Y-125286125D01*
X183418439Y-125288803D01*
X183512008Y-125301121D01*
X183525981Y-125302961D01*
X183530075Y-125303500D01*
X183629987Y-125303500D01*
X183729924Y-125303499D01*
X183734009Y-125302961D01*
X183734013Y-125302961D01*
X183800344Y-125294229D01*
X183841561Y-125288803D01*
X183848026Y-125286125D01*
X183911974Y-125286125D01*
X183918439Y-125288803D01*
X184012008Y-125301121D01*
X184025981Y-125302961D01*
X184030075Y-125303500D01*
X184129987Y-125303500D01*
X184229924Y-125303499D01*
X184234009Y-125302961D01*
X184234013Y-125302961D01*
X184300344Y-125294229D01*
X184341561Y-125288803D01*
X184348026Y-125286125D01*
X184411974Y-125286125D01*
X184418439Y-125288803D01*
X184512008Y-125301121D01*
X184525981Y-125302961D01*
X184530075Y-125303500D01*
X184629987Y-125303500D01*
X184729924Y-125303499D01*
X184734009Y-125302961D01*
X184734013Y-125302961D01*
X184833374Y-125289881D01*
X184833376Y-125289880D01*
X184841561Y-125288803D01*
X184980464Y-125231267D01*
X185040103Y-125185504D01*
X185093191Y-125144769D01*
X185093192Y-125144768D01*
X185099742Y-125139742D01*
X185191267Y-125020463D01*
X185248803Y-124881561D01*
X185263500Y-124769925D01*
X185263499Y-124429499D01*
X185283501Y-124361380D01*
X185337156Y-124314887D01*
X185389499Y-124303500D01*
X185715145Y-124303499D01*
X185729924Y-124303499D01*
X185734008Y-124302961D01*
X185734014Y-124302961D01*
X185833374Y-124289881D01*
X185833376Y-124289880D01*
X185841561Y-124288803D01*
X185980464Y-124231267D01*
X186099742Y-124139742D01*
X186191267Y-124020463D01*
X186248803Y-123881561D01*
X186263500Y-123769925D01*
X186263499Y-123570076D01*
X186248803Y-123458439D01*
X186246125Y-123451974D01*
X186246125Y-123388026D01*
X186248803Y-123381561D01*
X186263500Y-123269925D01*
X186263499Y-123070076D01*
X186248803Y-122958439D01*
X186246125Y-122951974D01*
X186246125Y-122888026D01*
X186248803Y-122881561D01*
X186263500Y-122769925D01*
X186263499Y-122570076D01*
X186248803Y-122458439D01*
X186246125Y-122451974D01*
X186246125Y-122388026D01*
X186248803Y-122381561D01*
X186263500Y-122269925D01*
X186263499Y-122070076D01*
X186259378Y-122038767D01*
X186249881Y-121966629D01*
X186248803Y-121958439D01*
X186246125Y-121951974D01*
X186246125Y-121888026D01*
X186248803Y-121881561D01*
X186263500Y-121769925D01*
X186263499Y-121570076D01*
X186259879Y-121542573D01*
X186249881Y-121466629D01*
X186248803Y-121458439D01*
X186246125Y-121451974D01*
X186246125Y-121388026D01*
X186248803Y-121381561D01*
X186263500Y-121269925D01*
X186263499Y-121070076D01*
X186261593Y-121055592D01*
X186249881Y-120966629D01*
X186248803Y-120958439D01*
X186246125Y-120951974D01*
X186246125Y-120888026D01*
X186248803Y-120881561D01*
X186263500Y-120769925D01*
X186263499Y-120570076D01*
X186248803Y-120458439D01*
X186246125Y-120451974D01*
X186246125Y-120388026D01*
X186248803Y-120381561D01*
X186263500Y-120269925D01*
X186263499Y-120070076D01*
X186262634Y-120063500D01*
X186249881Y-119966626D01*
X186249880Y-119966624D01*
X186248803Y-119958439D01*
X186191267Y-119819536D01*
X186099742Y-119700258D01*
X185980463Y-119608733D01*
X185841561Y-119551197D01*
X185833377Y-119550120D01*
X185833375Y-119550119D01*
X185734012Y-119537038D01*
X185734011Y-119537038D01*
X185729925Y-119536500D01*
X185489500Y-119536500D01*
X185421379Y-119516498D01*
X185374886Y-119462842D01*
X185363500Y-119410500D01*
X185363500Y-116880305D01*
X185383502Y-116812184D01*
X185400405Y-116791210D01*
X186703903Y-115487712D01*
X186766215Y-115453686D01*
X186837030Y-115458751D01*
X186893866Y-115501298D01*
X186918677Y-115567818D01*
X186903586Y-115637192D01*
X186895536Y-115649711D01*
X186894770Y-115651109D01*
X186889385Y-115658295D01*
X186838255Y-115794684D01*
X186831500Y-115856866D01*
X186831500Y-116553134D01*
X186838255Y-116615316D01*
X186889385Y-116751705D01*
X186898926Y-116764435D01*
X186923774Y-116830939D01*
X186908722Y-116900322D01*
X186898930Y-116915559D01*
X186889385Y-116928295D01*
X186838255Y-117064684D01*
X186831500Y-117126866D01*
X186831500Y-117823134D01*
X186838255Y-117885316D01*
X186889385Y-118021705D01*
X186898926Y-118034435D01*
X186923774Y-118100939D01*
X186908722Y-118170322D01*
X186898930Y-118185559D01*
X186889385Y-118198295D01*
X186838255Y-118334684D01*
X186831500Y-118396866D01*
X186831500Y-119093134D01*
X186838255Y-119155316D01*
X186889385Y-119291705D01*
X186898926Y-119304435D01*
X186923774Y-119370939D01*
X186908722Y-119440322D01*
X186898930Y-119455559D01*
X186889385Y-119468295D01*
X186838255Y-119604684D01*
X186831500Y-119666866D01*
X186831500Y-120363134D01*
X186838255Y-120425316D01*
X186889385Y-120561705D01*
X186898926Y-120574435D01*
X186923774Y-120640939D01*
X186908722Y-120710322D01*
X186898930Y-120725559D01*
X186889385Y-120738295D01*
X186838255Y-120874684D01*
X186831500Y-120936866D01*
X186831500Y-121633134D01*
X186838255Y-121695316D01*
X186889385Y-121831705D01*
X186976739Y-121948261D01*
X187093295Y-122035615D01*
X187229684Y-122086745D01*
X187291866Y-122093500D01*
X189588134Y-122093500D01*
X189650316Y-122086745D01*
X189786705Y-122035615D01*
X189903261Y-121948261D01*
X189990615Y-121831705D01*
X190041745Y-121695316D01*
X190048500Y-121633134D01*
X196031500Y-121633134D01*
X196038255Y-121695316D01*
X196089385Y-121831705D01*
X196176739Y-121948261D01*
X196293295Y-122035615D01*
X196429684Y-122086745D01*
X196491866Y-122093500D01*
X198788134Y-122093500D01*
X198850316Y-122086745D01*
X198986705Y-122035615D01*
X199103261Y-121948261D01*
X199190615Y-121831705D01*
X199241745Y-121695316D01*
X199248500Y-121633134D01*
X199248500Y-120936866D01*
X199241745Y-120874684D01*
X199190615Y-120738295D01*
X199181074Y-120725565D01*
X199156226Y-120659061D01*
X199171278Y-120589678D01*
X199181070Y-120574441D01*
X199190615Y-120561705D01*
X199241745Y-120425316D01*
X199248500Y-120363134D01*
X199248500Y-119666866D01*
X199241745Y-119604684D01*
X199190615Y-119468295D01*
X199181074Y-119455565D01*
X199156226Y-119389061D01*
X199171278Y-119319678D01*
X199181070Y-119304441D01*
X199190615Y-119291705D01*
X199241745Y-119155316D01*
X199248500Y-119093134D01*
X199248500Y-118396866D01*
X199241745Y-118334684D01*
X199190615Y-118198295D01*
X199181074Y-118185565D01*
X199156226Y-118119061D01*
X199171278Y-118049678D01*
X199181070Y-118034441D01*
X199190615Y-118021705D01*
X199241745Y-117885316D01*
X199248500Y-117823134D01*
X199248500Y-117126866D01*
X199241745Y-117064684D01*
X199190615Y-116928295D01*
X199185232Y-116921112D01*
X199185230Y-116921109D01*
X199180761Y-116915147D01*
X199155914Y-116848641D01*
X199170967Y-116779258D01*
X199180761Y-116764019D01*
X199184786Y-116758648D01*
X199193324Y-116743054D01*
X199238478Y-116622606D01*
X199242105Y-116607351D01*
X199247631Y-116556486D01*
X199248000Y-116549672D01*
X199248000Y-116477115D01*
X199243525Y-116461876D01*
X199242135Y-116460671D01*
X199234452Y-116459000D01*
X196050116Y-116459000D01*
X196034877Y-116463475D01*
X196033672Y-116464865D01*
X196032001Y-116472548D01*
X196032001Y-116549669D01*
X196032371Y-116556490D01*
X196037895Y-116607352D01*
X196041521Y-116622604D01*
X196086676Y-116743054D01*
X196095214Y-116758648D01*
X196099239Y-116764019D01*
X196124086Y-116830526D01*
X196109032Y-116899908D01*
X196099239Y-116915147D01*
X196094770Y-116921109D01*
X196094768Y-116921112D01*
X196089385Y-116928295D01*
X196038255Y-117064684D01*
X196031500Y-117126866D01*
X196031500Y-117823134D01*
X196038255Y-117885316D01*
X196089385Y-118021705D01*
X196098926Y-118034435D01*
X196123774Y-118100939D01*
X196108722Y-118170322D01*
X196098930Y-118185559D01*
X196089385Y-118198295D01*
X196038255Y-118334684D01*
X196031500Y-118396866D01*
X196031500Y-119093134D01*
X196038255Y-119155316D01*
X196089385Y-119291705D01*
X196098926Y-119304435D01*
X196123774Y-119370939D01*
X196108722Y-119440322D01*
X196098930Y-119455559D01*
X196089385Y-119468295D01*
X196038255Y-119604684D01*
X196031500Y-119666866D01*
X196031500Y-120363134D01*
X196038255Y-120425316D01*
X196089385Y-120561705D01*
X196098926Y-120574435D01*
X196123774Y-120640939D01*
X196108722Y-120710322D01*
X196098930Y-120725559D01*
X196089385Y-120738295D01*
X196038255Y-120874684D01*
X196031500Y-120936866D01*
X196031500Y-121633134D01*
X190048500Y-121633134D01*
X190048500Y-120936866D01*
X190041745Y-120874684D01*
X189990615Y-120738295D01*
X189981074Y-120725565D01*
X189956226Y-120659061D01*
X189971278Y-120589678D01*
X189981070Y-120574441D01*
X189990615Y-120561705D01*
X190041745Y-120425316D01*
X190048500Y-120363134D01*
X190048500Y-119666866D01*
X190041745Y-119604684D01*
X189990615Y-119468295D01*
X189981074Y-119455565D01*
X189956226Y-119389061D01*
X189971278Y-119319678D01*
X189981070Y-119304441D01*
X189990615Y-119291705D01*
X190041745Y-119155316D01*
X190048500Y-119093134D01*
X190048500Y-118396866D01*
X190041745Y-118334684D01*
X189990615Y-118198295D01*
X189981074Y-118185565D01*
X189956226Y-118119061D01*
X189971278Y-118049678D01*
X189981070Y-118034441D01*
X189990615Y-118021705D01*
X190041745Y-117885316D01*
X190048500Y-117823134D01*
X190048500Y-117126866D01*
X190041745Y-117064684D01*
X189990615Y-116928295D01*
X189981074Y-116915565D01*
X189956226Y-116849061D01*
X189971278Y-116779678D01*
X189981070Y-116764441D01*
X189990615Y-116751705D01*
X190041745Y-116615316D01*
X190048500Y-116553134D01*
X190048500Y-115856866D01*
X190041745Y-115794684D01*
X189990615Y-115658295D01*
X189981074Y-115645565D01*
X189956226Y-115579061D01*
X189971278Y-115509678D01*
X189981070Y-115494441D01*
X189990615Y-115481705D01*
X190041745Y-115345316D01*
X190048500Y-115283134D01*
X190048500Y-114586866D01*
X190041745Y-114524684D01*
X189990615Y-114388295D01*
X189981074Y-114375565D01*
X189956226Y-114309061D01*
X189971278Y-114239678D01*
X189981070Y-114224441D01*
X189990615Y-114211705D01*
X190041745Y-114075316D01*
X190048500Y-114013134D01*
X190048500Y-113316866D01*
X190041745Y-113254684D01*
X189990615Y-113118295D01*
X189981074Y-113105565D01*
X189956226Y-113039061D01*
X189971278Y-112969678D01*
X189981070Y-112954441D01*
X189990615Y-112941705D01*
X190041745Y-112805316D01*
X190048500Y-112743134D01*
X190048500Y-112046866D01*
X190041745Y-111984684D01*
X189990615Y-111848295D01*
X189903261Y-111731739D01*
X189786705Y-111644385D01*
X189650316Y-111593255D01*
X189588134Y-111586500D01*
X187291866Y-111586500D01*
X187229684Y-111593255D01*
X187093295Y-111644385D01*
X186976739Y-111731739D01*
X186889385Y-111848295D01*
X186838255Y-111984684D01*
X186831500Y-112046866D01*
X186831500Y-112743134D01*
X186838255Y-112805316D01*
X186889385Y-112941705D01*
X186898926Y-112954435D01*
X186923774Y-113020939D01*
X186908722Y-113090322D01*
X186898930Y-113105559D01*
X186889385Y-113118295D01*
X186838255Y-113254684D01*
X186831500Y-113316866D01*
X186831500Y-113374695D01*
X186811498Y-113442816D01*
X186794595Y-113463790D01*
X184216541Y-116041844D01*
X184210276Y-116047698D01*
X184168330Y-116084290D01*
X184132934Y-116134655D01*
X184129022Y-116139920D01*
X184091065Y-116188328D01*
X184087939Y-116195252D01*
X184085329Y-116199561D01*
X184079958Y-116208976D01*
X184077573Y-116213424D01*
X184073205Y-116219639D01*
X184070446Y-116226716D01*
X184050858Y-116276957D01*
X184048306Y-116283029D01*
X184022986Y-116339105D01*
X184021600Y-116346582D01*
X184020090Y-116351402D01*
X184017118Y-116361835D01*
X184015870Y-116366696D01*
X184013111Y-116373772D01*
X184012120Y-116381302D01*
X184005082Y-116434762D01*
X184004050Y-116441278D01*
X184000456Y-116460671D01*
X183992839Y-116501767D01*
X183993276Y-116509347D01*
X183993276Y-116509348D01*
X183996291Y-116561642D01*
X183996500Y-116568894D01*
X183996500Y-117521977D01*
X183976498Y-117590098D01*
X183922842Y-117636591D01*
X183852568Y-117646695D01*
X183787988Y-117617201D01*
X183781405Y-117611072D01*
X183600405Y-117430072D01*
X183566379Y-117367760D01*
X183563500Y-117340977D01*
X183563500Y-113780857D01*
X183583502Y-113712736D01*
X183637158Y-113666243D01*
X183649622Y-113661334D01*
X183671995Y-113653870D01*
X183672002Y-113653867D01*
X183678946Y-113651550D01*
X183829348Y-113558478D01*
X183954305Y-113433303D01*
X184047115Y-113282738D01*
X184102797Y-113114861D01*
X184103750Y-113105567D01*
X184113172Y-113013598D01*
X184113500Y-113010400D01*
X184113500Y-112409600D01*
X184110304Y-112378794D01*
X184103238Y-112310692D01*
X184103237Y-112310688D01*
X184102526Y-112303834D01*
X184086792Y-112256672D01*
X184048868Y-112143002D01*
X184046550Y-112136054D01*
X183953478Y-111985652D01*
X183828303Y-111860695D01*
X183824084Y-111858094D01*
X183783583Y-111800970D01*
X183780351Y-111730047D01*
X183815976Y-111668635D01*
X183823530Y-111662078D01*
X183829348Y-111658478D01*
X183954305Y-111533303D01*
X183971135Y-111506000D01*
X184043275Y-111388968D01*
X184043276Y-111388966D01*
X184047115Y-111382738D01*
X184102797Y-111214861D01*
X184113500Y-111110400D01*
X184113500Y-110509600D01*
X184106138Y-110438642D01*
X184103238Y-110410692D01*
X184103237Y-110410688D01*
X184102526Y-110403834D01*
X184074666Y-110320326D01*
X184048868Y-110243002D01*
X184046550Y-110236054D01*
X183953478Y-110085652D01*
X183828303Y-109960695D01*
X183795387Y-109940405D01*
X183683968Y-109871725D01*
X183683966Y-109871724D01*
X183677738Y-109867885D01*
X183649830Y-109858628D01*
X183591472Y-109818197D01*
X183564236Y-109752633D01*
X183563500Y-109739036D01*
X183563500Y-109220000D01*
X192126496Y-109220000D01*
X192146458Y-109409928D01*
X192205473Y-109591556D01*
X192208775Y-109597275D01*
X192208777Y-109597279D01*
X192219822Y-109616410D01*
X192300960Y-109756944D01*
X192305380Y-109761853D01*
X192305383Y-109761857D01*
X192322232Y-109780570D01*
X192352950Y-109844577D01*
X192354304Y-109873447D01*
X192352940Y-109893456D01*
X192352940Y-109893461D01*
X192352424Y-109901034D01*
X192353729Y-109908511D01*
X192353729Y-109908514D01*
X192363002Y-109961647D01*
X192363965Y-109968171D01*
X192371355Y-110029235D01*
X192374042Y-110036345D01*
X192375246Y-110041248D01*
X192378114Y-110051734D01*
X192379561Y-110056526D01*
X192380866Y-110064004D01*
X192383918Y-110070956D01*
X192383918Y-110070957D01*
X192405595Y-110120341D01*
X192408086Y-110126446D01*
X192427145Y-110176882D01*
X192429831Y-110183989D01*
X192434131Y-110190246D01*
X192436467Y-110194714D01*
X192441725Y-110204160D01*
X192444307Y-110208526D01*
X192447362Y-110215485D01*
X192484823Y-110264304D01*
X192488686Y-110269623D01*
X192515267Y-110308297D01*
X192523534Y-110320326D01*
X192529203Y-110325377D01*
X192568323Y-110360232D01*
X192573598Y-110365213D01*
X195994595Y-113786210D01*
X196028621Y-113848522D01*
X196031500Y-113875305D01*
X196031500Y-114013134D01*
X196038255Y-114075316D01*
X196089385Y-114211705D01*
X196098926Y-114224435D01*
X196123774Y-114290939D01*
X196108722Y-114360322D01*
X196098930Y-114375559D01*
X196089385Y-114388295D01*
X196038255Y-114524684D01*
X196031500Y-114586866D01*
X196031500Y-115283134D01*
X196038255Y-115345316D01*
X196089385Y-115481705D01*
X196094768Y-115488888D01*
X196094770Y-115488891D01*
X196099239Y-115494853D01*
X196124086Y-115561359D01*
X196109033Y-115630742D01*
X196099239Y-115645981D01*
X196095214Y-115651352D01*
X196086676Y-115666946D01*
X196041522Y-115787394D01*
X196037895Y-115802649D01*
X196032369Y-115853514D01*
X196032000Y-115860328D01*
X196032000Y-115932885D01*
X196036475Y-115948124D01*
X196037865Y-115949329D01*
X196045548Y-115951000D01*
X199229884Y-115951000D01*
X199245123Y-115946525D01*
X199246328Y-115945135D01*
X199247999Y-115937452D01*
X199247999Y-115860331D01*
X199247629Y-115853510D01*
X199242105Y-115802648D01*
X199238479Y-115787396D01*
X199193324Y-115666946D01*
X199184786Y-115651352D01*
X199180761Y-115645981D01*
X199155914Y-115579474D01*
X199170968Y-115510092D01*
X199180761Y-115494853D01*
X199185230Y-115488891D01*
X199185232Y-115488888D01*
X199190615Y-115481705D01*
X199241745Y-115345316D01*
X199248500Y-115283134D01*
X199248500Y-114586866D01*
X199241745Y-114524684D01*
X199190615Y-114388295D01*
X199181074Y-114375565D01*
X199156226Y-114309061D01*
X199171278Y-114239678D01*
X199181070Y-114224441D01*
X199190615Y-114211705D01*
X199241745Y-114075316D01*
X199248500Y-114013134D01*
X199248500Y-113316866D01*
X199241745Y-113254684D01*
X199190615Y-113118295D01*
X199181074Y-113105565D01*
X199156226Y-113039061D01*
X199171278Y-112969678D01*
X199181070Y-112954441D01*
X199190615Y-112941705D01*
X199241745Y-112805316D01*
X199248500Y-112743134D01*
X199248500Y-112046866D01*
X199241745Y-111984684D01*
X199190615Y-111848295D01*
X199103261Y-111731739D01*
X198986705Y-111644385D01*
X198978296Y-111641233D01*
X198978295Y-111641232D01*
X198885271Y-111606359D01*
X198828506Y-111563718D01*
X198803806Y-111497156D01*
X198803500Y-111488377D01*
X198803500Y-109866994D01*
X198823502Y-109798873D01*
X198835865Y-109782683D01*
X198854617Y-109761857D01*
X198854620Y-109761853D01*
X198859040Y-109756944D01*
X198940178Y-109616410D01*
X198951223Y-109597279D01*
X198951225Y-109597275D01*
X198954527Y-109591556D01*
X199013542Y-109409928D01*
X199033504Y-109220000D01*
X199013542Y-109030072D01*
X198954527Y-108848444D01*
X198859040Y-108683056D01*
X198807063Y-108625329D01*
X198735675Y-108546045D01*
X198735674Y-108546044D01*
X198731253Y-108541134D01*
X198576752Y-108428882D01*
X198570724Y-108426198D01*
X198570722Y-108426197D01*
X198408319Y-108353891D01*
X198408318Y-108353891D01*
X198402288Y-108351206D01*
X198280331Y-108325283D01*
X198221944Y-108312872D01*
X198221939Y-108312872D01*
X198215487Y-108311500D01*
X198024513Y-108311500D01*
X198018061Y-108312872D01*
X198018056Y-108312872D01*
X197959669Y-108325283D01*
X197837712Y-108351206D01*
X197831682Y-108353891D01*
X197831681Y-108353891D01*
X197669278Y-108426197D01*
X197669276Y-108426198D01*
X197663248Y-108428882D01*
X197508747Y-108541134D01*
X197504326Y-108546044D01*
X197504325Y-108546045D01*
X197432938Y-108625329D01*
X197380960Y-108683056D01*
X197285473Y-108848444D01*
X197226458Y-109030072D01*
X197206496Y-109220000D01*
X197226458Y-109409928D01*
X197285473Y-109591556D01*
X197288775Y-109597275D01*
X197288777Y-109597279D01*
X197299822Y-109616410D01*
X197380960Y-109756944D01*
X197385380Y-109761853D01*
X197385383Y-109761857D01*
X197404135Y-109782683D01*
X197434853Y-109846690D01*
X197436500Y-109866994D01*
X197436500Y-111460500D01*
X197416498Y-111528621D01*
X197362842Y-111575114D01*
X197310500Y-111586500D01*
X196491866Y-111586500D01*
X196429684Y-111593255D01*
X196293295Y-111644385D01*
X196176739Y-111731739D01*
X196153914Y-111762195D01*
X196133928Y-111788862D01*
X196077069Y-111831377D01*
X196006251Y-111836403D01*
X195944007Y-111802392D01*
X193891152Y-109749537D01*
X193857126Y-109687225D01*
X193862191Y-109616410D01*
X193871134Y-109597432D01*
X193874527Y-109591556D01*
X193933542Y-109409928D01*
X193953504Y-109220000D01*
X193933542Y-109030072D01*
X193874527Y-108848444D01*
X193779040Y-108683056D01*
X193727063Y-108625329D01*
X193655675Y-108546045D01*
X193655674Y-108546044D01*
X193651253Y-108541134D01*
X193496752Y-108428882D01*
X193490724Y-108426198D01*
X193490722Y-108426197D01*
X193328319Y-108353891D01*
X193328318Y-108353891D01*
X193322288Y-108351206D01*
X193200331Y-108325283D01*
X193141944Y-108312872D01*
X193141939Y-108312872D01*
X193135487Y-108311500D01*
X192944513Y-108311500D01*
X192938061Y-108312872D01*
X192938056Y-108312872D01*
X192879669Y-108325283D01*
X192757712Y-108351206D01*
X192751682Y-108353891D01*
X192751681Y-108353891D01*
X192589278Y-108426197D01*
X192589276Y-108426198D01*
X192583248Y-108428882D01*
X192428747Y-108541134D01*
X192424326Y-108546044D01*
X192424325Y-108546045D01*
X192352938Y-108625329D01*
X192300960Y-108683056D01*
X192205473Y-108848444D01*
X192146458Y-109030072D01*
X192126496Y-109220000D01*
X183563500Y-109220000D01*
X183563500Y-106806000D01*
X183583502Y-106737879D01*
X183637158Y-106691386D01*
X183689500Y-106680000D01*
X200025500Y-106680000D01*
X200093621Y-106700002D01*
X200140114Y-106753658D01*
X200151500Y-106806000D01*
X200151500Y-126365500D01*
X200131498Y-126433621D01*
X200077842Y-126480114D01*
X200025500Y-126491500D01*
X165734500Y-126491500D01*
X165666379Y-126471498D01*
X165619886Y-126417842D01*
X165608500Y-126365500D01*
X165608500Y-120915768D01*
X169355340Y-120915768D01*
X169393146Y-121044224D01*
X169397739Y-121055592D01*
X169488612Y-121229417D01*
X169495328Y-121239679D01*
X169618227Y-121392534D01*
X169626815Y-121401304D01*
X169777057Y-121527372D01*
X169787187Y-121534310D01*
X169959069Y-121628802D01*
X169970333Y-121633630D01*
X170157302Y-121692940D01*
X170169290Y-121695488D01*
X170321912Y-121712607D01*
X170328936Y-121713000D01*
X170668135Y-121713000D01*
X170683374Y-121708525D01*
X170684579Y-121707135D01*
X170686250Y-121699452D01*
X170686250Y-121694885D01*
X171194250Y-121694885D01*
X171198725Y-121710124D01*
X171200115Y-121711329D01*
X171207798Y-121713000D01*
X171544619Y-121713000D01*
X171550764Y-121712700D01*
X171696586Y-121698401D01*
X171708623Y-121696018D01*
X171896389Y-121639328D01*
X171907730Y-121634653D01*
X172080909Y-121542573D01*
X172091125Y-121535786D01*
X172243132Y-121411812D01*
X172251821Y-121403183D01*
X172376856Y-121252042D01*
X172383710Y-121241881D01*
X172477002Y-121069340D01*
X172481754Y-121058035D01*
X172524078Y-120921308D01*
X172524284Y-120907205D01*
X172517529Y-120904000D01*
X171212365Y-120904000D01*
X171197126Y-120908475D01*
X171195921Y-120909865D01*
X171194250Y-120917548D01*
X171194250Y-121694885D01*
X170686250Y-121694885D01*
X170686250Y-120922115D01*
X170681775Y-120906876D01*
X170680385Y-120905671D01*
X170672702Y-120904000D01*
X169369991Y-120904000D01*
X169356460Y-120907973D01*
X169355340Y-120915768D01*
X165608500Y-120915768D01*
X165608500Y-112027966D01*
X168848257Y-112027966D01*
X168878565Y-112162446D01*
X168881645Y-112172275D01*
X168961770Y-112369603D01*
X168966413Y-112378794D01*
X169077694Y-112560388D01*
X169083777Y-112568699D01*
X169223213Y-112729667D01*
X169230580Y-112736883D01*
X169394434Y-112872916D01*
X169402881Y-112878831D01*
X169586756Y-112986279D01*
X169596042Y-112990729D01*
X169795001Y-113066703D01*
X169804899Y-113069579D01*
X169908250Y-113090606D01*
X169922299Y-113089410D01*
X169926000Y-113079065D01*
X169926000Y-113078517D01*
X170434000Y-113078517D01*
X170438064Y-113092359D01*
X170451478Y-113094393D01*
X170458184Y-113093534D01*
X170468262Y-113091392D01*
X170672255Y-113030191D01*
X170681842Y-113026433D01*
X170873095Y-112932739D01*
X170881945Y-112927464D01*
X171055328Y-112803792D01*
X171063200Y-112797139D01*
X171214052Y-112646812D01*
X171220730Y-112638965D01*
X171345003Y-112466020D01*
X171350313Y-112457183D01*
X171444670Y-112266267D01*
X171448469Y-112256672D01*
X171510377Y-112052910D01*
X171512555Y-112042837D01*
X171513986Y-112031962D01*
X171511775Y-112017778D01*
X171498617Y-112014000D01*
X170452115Y-112014000D01*
X170436876Y-112018475D01*
X170435671Y-112019865D01*
X170434000Y-112027548D01*
X170434000Y-113078517D01*
X169926000Y-113078517D01*
X169926000Y-112032115D01*
X169921525Y-112016876D01*
X169920135Y-112015671D01*
X169912452Y-112014000D01*
X168863225Y-112014000D01*
X168849694Y-112017973D01*
X168848257Y-112027966D01*
X165608500Y-112027966D01*
X165608500Y-106806000D01*
X165628502Y-106737879D01*
X165682158Y-106691386D01*
X165734500Y-106680000D01*
X182070500Y-106680000D01*
X182138621Y-106700002D01*
G37*
%TD.AperFunction*%
%TD*%
M02*
