%TF.GenerationSoftware,KiCad,Pcbnew,(6.0.7)*%
%TF.CreationDate,2022-11-27T20:24:26-03:00*%
%TF.ProjectId,E3,45332e6b-6963-4616-945f-706362585858,rev?*%
%TF.SameCoordinates,Original*%
%TF.FileFunction,Drillmap*%
%TF.FilePolarity,Positive*%
%FSLAX45Y45*%
G04 Gerber Fmt 4.5, Leading zero omitted, Abs format (unit mm)*
G04 Created by KiCad (PCBNEW (6.0.7)) date 2022-11-27 20:24:26*
%MOMM*%
%LPD*%
G01*
G04 APERTURE LIST*
%ADD10C,0.100000*%
%ADD11C,0.200000*%
G04 APERTURE END LIST*
D10*
X16510000Y-9652000D02*
X20066000Y-9652000D01*
X20066000Y-9652000D02*
X20066000Y-12700000D01*
X20066000Y-12700000D02*
X16510000Y-12700000D01*
X16510000Y-12700000D02*
X16510000Y-9652000D01*
D11*
X16762619Y-13015476D02*
X16762619Y-12815476D01*
X16810238Y-12815476D01*
X16838810Y-12825000D01*
X16857857Y-12844048D01*
X16867381Y-12863095D01*
X16876905Y-12901190D01*
X16876905Y-12929762D01*
X16867381Y-12967857D01*
X16857857Y-12986905D01*
X16838810Y-13005952D01*
X16810238Y-13015476D01*
X16762619Y-13015476D01*
X16962619Y-13015476D02*
X16962619Y-12882143D01*
X16962619Y-12920238D02*
X16972143Y-12901190D01*
X16981667Y-12891667D01*
X17000714Y-12882143D01*
X17019762Y-12882143D01*
X17086429Y-13015476D02*
X17086429Y-12882143D01*
X17086429Y-12815476D02*
X17076905Y-12825000D01*
X17086429Y-12834524D01*
X17095952Y-12825000D01*
X17086429Y-12815476D01*
X17086429Y-12834524D01*
X17210238Y-13015476D02*
X17191190Y-13005952D01*
X17181667Y-12986905D01*
X17181667Y-12815476D01*
X17315000Y-13015476D02*
X17295952Y-13005952D01*
X17286429Y-12986905D01*
X17286429Y-12815476D01*
X17543571Y-13015476D02*
X17543571Y-12815476D01*
X17610238Y-12958333D01*
X17676905Y-12815476D01*
X17676905Y-13015476D01*
X17857857Y-13015476D02*
X17857857Y-12910714D01*
X17848333Y-12891667D01*
X17829286Y-12882143D01*
X17791190Y-12882143D01*
X17772143Y-12891667D01*
X17857857Y-13005952D02*
X17838810Y-13015476D01*
X17791190Y-13015476D01*
X17772143Y-13005952D01*
X17762619Y-12986905D01*
X17762619Y-12967857D01*
X17772143Y-12948809D01*
X17791190Y-12939286D01*
X17838810Y-12939286D01*
X17857857Y-12929762D01*
X17953095Y-12882143D02*
X17953095Y-13082143D01*
X17953095Y-12891667D02*
X17972143Y-12882143D01*
X18010238Y-12882143D01*
X18029286Y-12891667D01*
X18038810Y-12901190D01*
X18048333Y-12920238D01*
X18048333Y-12977381D01*
X18038810Y-12996428D01*
X18029286Y-13005952D01*
X18010238Y-13015476D01*
X17972143Y-13015476D01*
X17953095Y-13005952D01*
X18134048Y-12996428D02*
X18143571Y-13005952D01*
X18134048Y-13015476D01*
X18124524Y-13005952D01*
X18134048Y-12996428D01*
X18134048Y-13015476D01*
X18134048Y-12891667D02*
X18143571Y-12901190D01*
X18134048Y-12910714D01*
X18124524Y-12901190D01*
X18134048Y-12891667D01*
X18134048Y-12910714D01*
M02*
