M48
; DRILL file {KiCad 7.0.2} date Sun Jun 25 23:39:40 2023
; FORMAT={-:-/ absolute / inch / decimal}
; #@! TF.CreationDate,2023-06-25T23:39:40-03:00
; #@! TF.GenerationSoftware,Kicad,Pcbnew,7.0.2
; #@! TF.FileFunction,Plated,1,2,PTH
FMAT,2
INCH
; #@! TA.AperFunction,Plated,PTH,ComponentDrill
T1C0.0315
; #@! TA.AperFunction,Plated,PTH,ComponentDrill
T2C0.0354
; #@! TA.AperFunction,Plated,PTH,ComponentDrill
T3C0.0394
; #@! TA.AperFunction,Plated,PTH,ComponentDrill
T4C0.0433
%
G90
G05
T1
X3.04Y-2.3106
X3.04Y-2.47
X3.04Y-2.6294
X3.04Y-2.7889
X3.52Y-1.5
X3.57Y-1.8
X3.57Y-2.1
X3.64Y-1.5
X3.67Y-1.8
X3.67Y-2.1
X3.76Y-1.5
X3.77Y-1.8
X3.77Y-2.1
X3.87Y-1.8
X3.87Y-2.1
X3.88Y-1.5
X3.97Y-1.8
X3.97Y-2.1
X4.0Y-1.5
X4.07Y-1.8
X4.07Y-2.1
X4.12Y-1.5
X4.17Y-1.8
X4.17Y-2.1
X4.27Y-1.8
X4.27Y-2.1
X4.37Y-1.8
X4.37Y-2.1
X4.38Y-1.5
X4.47Y-1.8
X4.47Y-2.1
X4.57Y-1.8
X4.57Y-2.1
X4.67Y-1.8
X4.67Y-2.1
X4.77Y-1.8
X4.77Y-2.1
X4.87Y-1.8
X4.87Y-2.1
X5.08Y-1.1411
X5.08Y-1.3006
X5.08Y-1.46
X5.08Y-1.6194
X5.18Y-2.52
X5.18Y-2.82
X5.23Y-1.82
X5.28Y-2.52
X5.28Y-2.82
X5.38Y-2.52
X5.38Y-2.82
X5.3806Y-2.3196
X5.3806Y-3.0396
X5.48Y-2.52
X5.48Y-2.82
X5.58Y-2.52
X5.58Y-2.82
X5.68Y-2.52
X5.68Y-2.82
X5.6806Y-2.3196
X5.6806Y-3.0296
X5.78Y-2.52
X5.78Y-2.82
X5.88Y-2.52
X5.88Y-2.82
T2
X3.6931Y-2.4701
X3.6931Y-2.6
X3.7916Y-2.4701
X3.7916Y-2.6
X3.89Y-2.4701
X3.89Y-2.6
X4.1431Y-2.4601
X4.1431Y-2.59
X4.2416Y-2.4601
X4.2416Y-2.59
X4.34Y-2.4601
X4.34Y-2.59
T3
X5.89Y-1.81
X5.89Y-1.91
X5.89Y-2.01
T4
X4.5341Y-2.49
X4.5341Y-2.6672
X4.79Y-2.49
X4.79Y-2.6672
T0
M30
