%TF.GenerationSoftware,KiCad,Pcbnew,7.0.2*%
%TF.CreationDate,2023-06-25T23:38:38-03:00*%
%TF.ProjectId,Maze_Mapper,4d617a65-5f4d-4617-9070-65722e6b6963,rev?*%
%TF.SameCoordinates,Original*%
%TF.FileFunction,Soldermask,Bot*%
%TF.FilePolarity,Negative*%
%FSLAX46Y46*%
G04 Gerber Fmt 4.6, Leading zero omitted, Abs format (unit mm)*
G04 Created by KiCad (PCBNEW 7.0.2) date 2023-06-25 23:38:38*
%MOMM*%
%LPD*%
G01*
G04 APERTURE LIST*
G04 Aperture macros list*
%AMRoundRect*
0 Rectangle with rounded corners*
0 $1 Rounding radius*
0 $2 $3 $4 $5 $6 $7 $8 $9 X,Y pos of 4 corners*
0 Add a 4 corners polygon primitive as box body*
4,1,4,$2,$3,$4,$5,$6,$7,$8,$9,$2,$3,0*
0 Add four circle primitives for the rounded corners*
1,1,$1+$1,$2,$3*
1,1,$1+$1,$4,$5*
1,1,$1+$1,$6,$7*
1,1,$1+$1,$8,$9*
0 Add four rect primitives between the rounded corners*
20,1,$1+$1,$2,$3,$4,$5,0*
20,1,$1+$1,$4,$5,$6,$7,0*
20,1,$1+$1,$6,$7,$8,$9,0*
20,1,$1+$1,$8,$9,$2,$3,0*%
G04 Aperture macros list end*
%ADD10R,1.350000X1.350000*%
%ADD11C,2.000000*%
%ADD12R,1.600000X1.600000*%
%ADD13O,1.600000X1.600000*%
%ADD14R,1.400000X1.400000*%
%ADD15C,1.400000*%
%ADD16RoundRect,0.323750X-1.721250X-0.323750X1.721250X-0.323750X1.721250X0.323750X-1.721250X0.323750X0*%
%ADD17RoundRect,0.323750X-1.263750X-0.323750X1.263750X-0.323750X1.263750X0.323750X-1.263750X0.323750X0*%
G04 APERTURE END LIST*
D10*
%TO.C,J4*%
X144287000Y-76952000D03*
%TD*%
%TO.C,J2*%
X136667000Y-58918000D03*
%TD*%
%TO.C,J6*%
X111252000Y-38100000D03*
%TD*%
D11*
%TO.C,SW3*%
X115166000Y-63246000D03*
X121666000Y-63246000D03*
X115166000Y-67746000D03*
X121666000Y-67746000D03*
%TD*%
D10*
%TO.C,J14*%
X129032000Y-33034000D03*
%TD*%
%TO.C,J5*%
X132842000Y-46228000D03*
%TD*%
%TO.C,J3*%
X136667000Y-77206000D03*
%TD*%
D12*
%TO.C,U6*%
X149352000Y-64008000D03*
D13*
X146812000Y-64008000D03*
X144272000Y-64008000D03*
X141732000Y-64008000D03*
X139192000Y-64008000D03*
X136652000Y-64008000D03*
X134112000Y-64008000D03*
X131572000Y-64008000D03*
X131572000Y-71628000D03*
X134112000Y-71628000D03*
X136652000Y-71628000D03*
X139192000Y-71628000D03*
X141732000Y-71628000D03*
X144272000Y-71628000D03*
X146812000Y-71628000D03*
X149352000Y-71628000D03*
%TD*%
D10*
%TO.C,J17*%
X77216000Y-58688000D03*
%TD*%
%TO.C,J7*%
X89408000Y-38100000D03*
%TD*%
D12*
%TO.C,U1*%
X90678000Y-53340000D03*
D13*
X93218000Y-53340000D03*
X95758000Y-53340000D03*
X98298000Y-53340000D03*
X100838000Y-53340000D03*
X103378000Y-53340000D03*
X105918000Y-53340000D03*
X108458000Y-53340000D03*
X110998000Y-53340000D03*
X113538000Y-53340000D03*
X116078000Y-53340000D03*
X118618000Y-53340000D03*
X121158000Y-53340000D03*
X123698000Y-53340000D03*
X123698000Y-45720000D03*
X121158000Y-45720000D03*
X118618000Y-45720000D03*
X116078000Y-45720000D03*
X113538000Y-45720000D03*
X110998000Y-45720000D03*
X108458000Y-45720000D03*
X105918000Y-45720000D03*
X103378000Y-45720000D03*
X100838000Y-45720000D03*
X98298000Y-45720000D03*
X95758000Y-45720000D03*
X93218000Y-45720000D03*
X90678000Y-45720000D03*
%TD*%
D14*
%TO.C,SW2*%
X110236000Y-65786000D03*
D15*
X107736000Y-65786000D03*
X105236000Y-65786000D03*
X110236000Y-62486000D03*
X107736000Y-62486000D03*
X105236000Y-62486000D03*
%TD*%
D10*
%TO.C,J16*%
X129032000Y-41134000D03*
%TD*%
%TO.C,J20*%
X77216000Y-70838000D03*
%TD*%
%TO.C,J12*%
X104648000Y-38100000D03*
%TD*%
%TO.C,J18*%
X77216000Y-62738000D03*
%TD*%
%TO.C,J8*%
X98552000Y-38100000D03*
%TD*%
D14*
%TO.C,SW1*%
X98806000Y-66040000D03*
D15*
X96306000Y-66040000D03*
X93806000Y-66040000D03*
X98806000Y-62740000D03*
X96306000Y-62740000D03*
X93806000Y-62740000D03*
%TD*%
D10*
%TO.C,J1*%
X144287000Y-58918000D03*
%TD*%
%TO.C,J13*%
X129032000Y-28984000D03*
%TD*%
D16*
%TO.C,U4*%
X149606000Y-45974000D03*
D17*
X149606000Y-48514000D03*
D16*
X149606000Y-51054000D03*
%TD*%
D10*
%TO.C,J11*%
X95504000Y-38100000D03*
%TD*%
%TO.C,J10*%
X101600000Y-38100000D03*
%TD*%
%TO.C,J15*%
X129032000Y-37084000D03*
%TD*%
%TO.C,J9*%
X92456000Y-38100000D03*
%TD*%
%TO.C,J19*%
X77216000Y-66788000D03*
%TD*%
M02*
