<?xml version="1.0" standalone="no"?>
 <!DOCTYPE svg PUBLIC "-//W3C//DTD SVG 1.1//EN" 
 "http://www.w3.org/Graphics/SVG/1.1/DTD/svg11.dtd"> 
<svg
  xmlns:svg="http://www.w3.org/2000/svg"
  xmlns="http://www.w3.org/2000/svg"
  xmlns:xlink="http://www.w3.org/1999/xlink"
  version="1.1"
  width="29.700220cm" height="21.000720cm" viewBox="0 0 297002200 210007200">
<title>SVG Picture created as E3-B_Cu.svg date 2022/11/28 20:38:20 </title>
  <desc>Picture generated by PCBNEW </desc>
<g style="fill:#000000; fill-opacity:1.000000;stroke:#000000; stroke-opacity:1.000000;
stroke-linecap:round; stroke-linejoin:round;"
 transform="translate(0 0) scale(1 1)">
</g>
<g style="fill:#000000; fill-opacity:0.0; 
stroke:#000000; stroke-width:0.000000; stroke-opacity:1; 
stroke-linecap:round; stroke-linejoin:round;">
</g>
<g style="fill:#000000; fill-opacity:0.0; 
stroke:#000000; stroke-width:21200.000000; stroke-opacity:1; 
stroke-linecap:round; stroke-linejoin:round;">
</g>
<g style="fill:#000000; fill-opacity:0.0; 
stroke:#000000; stroke-width:150000.000000; stroke-opacity:1; 
stroke-linecap:round; stroke-linejoin:round;">
<rect x="177002200.000000" y="166007200.000000" width="108000000.000000" height="32000000.000000" rx="0.000000" />
</g>
<g style="fill:#000000; fill-opacity:0.0; 
stroke:#000000; stroke-width:21200.000000; stroke-opacity:1; 
stroke-linecap:round; stroke-linejoin:round;">
</g>
<g style="fill:#000000; fill-opacity:0.0; 
stroke:#000000; stroke-width:150000.000000; stroke-opacity:1; 
stroke-linecap:round; stroke-linejoin:round;">
<rect x="10000000.000000" y="10000000.000000" width="277002200.000000" height="190007200.000000" rx="0.000000" />
</g>
<g style="fill:#000000; fill-opacity:0.0; 
stroke:#000000; stroke-width:21200.000000; stroke-opacity:1; 
stroke-linecap:round; stroke-linejoin:round;">
</g>
<g style="fill:#000000; fill-opacity:0.0; 
stroke:#000000; stroke-width:150000.000000; stroke-opacity:1; 
stroke-linecap:round; stroke-linejoin:round;">
<rect x="12000000.000000" y="12000000.000000" width="273002200.000000" height="186007200.000000" rx="0.000000" />
</g>
<g style="fill:#000000; fill-opacity:0.0; 
stroke:#000000; stroke-width:21200.000000; stroke-opacity:1; 
stroke-linecap:round; stroke-linejoin:round;">
</g>
<g style="fill:#000000; fill-opacity:0.0; 
stroke:#000000; stroke-width:150000.000000; stroke-opacity:1; 
stroke-linecap:round; stroke-linejoin:round;">
<path d="M60000000 12000000
L60000000 10000000
" />
</g>
<g style="fill:#000000; fill-opacity:0.0; 
stroke:#000000; stroke-width:21200.000000; stroke-opacity:1; 
stroke-linecap:round; stroke-linejoin:round;">
</g>
<g style="fill:#000000; fill-opacity:0.0; 
stroke:#000000; stroke-width:150000.000000; stroke-opacity:1; 
stroke-linecap:round; stroke-linejoin:round;">
<path d="M110000000 12000000
L110000000 10000000
" />
</g>
<g style="fill:#000000; fill-opacity:0.0; 
stroke:#000000; stroke-width:21200.000000; stroke-opacity:1; 
stroke-linecap:round; stroke-linejoin:round;">
</g>
<g style="fill:#000000; fill-opacity:0.0; 
stroke:#000000; stroke-width:150000.000000; stroke-opacity:1; 
stroke-linecap:round; stroke-linejoin:round;">
<path d="M160000000 12000000
L160000000 10000000
" />
</g>
<g style="fill:#000000; fill-opacity:0.0; 
stroke:#000000; stroke-width:21200.000000; stroke-opacity:1; 
stroke-linecap:round; stroke-linejoin:round;">
</g>
<g style="fill:#000000; fill-opacity:0.0; 
stroke:#000000; stroke-width:150000.000000; stroke-opacity:1; 
stroke-linecap:round; stroke-linejoin:round;">
<path d="M210000000 12000000
L210000000 10000000
" />
</g>
<g style="fill:#000000; fill-opacity:0.0; 
stroke:#000000; stroke-width:21200.000000; stroke-opacity:1; 
stroke-linecap:round; stroke-linejoin:round;">
</g>
<g style="fill:#000000; fill-opacity:0.0; 
stroke:#000000; stroke-width:150000.000000; stroke-opacity:1; 
stroke-linecap:round; stroke-linejoin:round;">
<path d="M260000000 12000000
L260000000 10000000
" />
</g>
<g style="fill:#000000; fill-opacity:0.0; 
stroke:#000000; stroke-width:21200.000000; stroke-opacity:1; 
stroke-linecap:round; stroke-linejoin:round;">
</g>
<g style="fill:#000000; fill-opacity:0.0; 
stroke:#000000; stroke-width:150000.000000; stroke-opacity:1; 
stroke-linecap:round; stroke-linejoin:round;">
<text x="35000000.000000" y="11650000.000000"
textLength="1388095.000000" font-size="1733333.000000" lengthAdjust="spacingAndGlyphs"
text-anchor="start" opacity="0">1</text>
<g class="stroked-text"><desc>1</desc>
<path d="M36065476 11588095
L35322619 11588095
" />
<path d="M35694047 11588095
L35694047 10288095
L35570238 10473809
L35446428 10597619
L35322619 10659523
" />
</g></g>
<g style="fill:#000000; fill-opacity:0.0; 
stroke:#000000; stroke-width:21200.000000; stroke-opacity:1; 
stroke-linecap:round; stroke-linejoin:round;">
</g>
<g style="fill:#000000; fill-opacity:0.0; 
stroke:#000000; stroke-width:150000.000000; stroke-opacity:1; 
stroke-linecap:round; stroke-linejoin:round;">
<text x="85000000.000000" y="11650000.000000"
textLength="1388095.000000" font-size="1733333.000000" lengthAdjust="spacingAndGlyphs"
text-anchor="start" opacity="0">2</text>
<g class="stroked-text"><desc>2</desc>
<path d="M85322619 10411904
L85384523 10350000
L85508333 10288095
L85817857 10288095
L85941666 10350000
L86003571 10411904
L86065476 10535714
L86065476 10659523
L86003571 10845238
L85260714 11588095
L86065476 11588095
" />
</g></g>
<g style="fill:#000000; fill-opacity:0.0; 
stroke:#000000; stroke-width:21200.000000; stroke-opacity:1; 
stroke-linecap:round; stroke-linejoin:round;">
</g>
<g style="fill:#000000; fill-opacity:0.0; 
stroke:#000000; stroke-width:150000.000000; stroke-opacity:1; 
stroke-linecap:round; stroke-linejoin:round;">
<text x="135000000.000000" y="11650000.000000"
textLength="1388095.000000" font-size="1733333.000000" lengthAdjust="spacingAndGlyphs"
text-anchor="start" opacity="0">3</text>
<g class="stroked-text"><desc>3</desc>
<path d="M135260714 10288095
L136065476 10288095
L135632142 10783333
L135817857 10783333
L135941666 10845238
L136003571 10907142
L136065476 11030952
L136065476 11340476
L136003571 11464285
L135941666 11526190
L135817857 11588095
L135446428 11588095
L135322619 11526190
L135260714 11464285
" />
</g></g>
<g style="fill:#000000; fill-opacity:0.0; 
stroke:#000000; stroke-width:21200.000000; stroke-opacity:1; 
stroke-linecap:round; stroke-linejoin:round;">
</g>
<g style="fill:#000000; fill-opacity:0.0; 
stroke:#000000; stroke-width:150000.000000; stroke-opacity:1; 
stroke-linecap:round; stroke-linejoin:round;">
<text x="185000000.000000" y="11650000.000000"
textLength="1388095.000000" font-size="1733333.000000" lengthAdjust="spacingAndGlyphs"
text-anchor="start" opacity="0">4</text>
<g class="stroked-text"><desc>4</desc>
<path d="M185941666 10721428
L185941666 11588095
" />
<path d="M185632142 10226190
L185322619 11154761
L186127380 11154761
" />
</g></g>
<g style="fill:#000000; fill-opacity:0.0; 
stroke:#000000; stroke-width:21200.000000; stroke-opacity:1; 
stroke-linecap:round; stroke-linejoin:round;">
</g>
<g style="fill:#000000; fill-opacity:0.0; 
stroke:#000000; stroke-width:150000.000000; stroke-opacity:1; 
stroke-linecap:round; stroke-linejoin:round;">
<text x="235000000.000000" y="11650000.000000"
textLength="1388095.000000" font-size="1733333.000000" lengthAdjust="spacingAndGlyphs"
text-anchor="start" opacity="0">5</text>
<g class="stroked-text"><desc>5</desc>
<path d="M236003571 10288095
L235384523 10288095
L235322619 10907142
L235384523 10845238
L235508333 10783333
L235817857 10783333
L235941666 10845238
L236003571 10907142
L236065476 11030952
L236065476 11340476
L236003571 11464285
L235941666 11526190
L235817857 11588095
L235508333 11588095
L235384523 11526190
L235322619 11464285
" />
</g></g>
<g style="fill:#000000; fill-opacity:0.0; 
stroke:#000000; stroke-width:21200.000000; stroke-opacity:1; 
stroke-linecap:round; stroke-linejoin:round;">
</g>
<g style="fill:#000000; fill-opacity:0.0; 
stroke:#000000; stroke-width:150000.000000; stroke-opacity:1; 
stroke-linecap:round; stroke-linejoin:round;">
<text x="285000000.000000" y="11650000.000000"
textLength="1388095.000000" font-size="1733333.000000" lengthAdjust="spacingAndGlyphs"
text-anchor="start" opacity="0">6</text>
<g class="stroked-text"><desc>6</desc>
<path d="M285941666 10288095
L285694047 10288095
L285570238 10350000
L285508333 10411904
L285384523 10597619
L285322619 10845238
L285322619 11340476
L285384523 11464285
L285446428 11526190
L285570238 11588095
L285817857 11588095
L285941666 11526190
L286003571 11464285
L286065476 11340476
L286065476 11030952
L286003571 10907142
L285941666 10845238
L285817857 10783333
L285570238 10783333
L285446428 10845238
L285384523 10907142
L285322619 11030952
" />
</g></g>
<g style="fill:#000000; fill-opacity:0.0; 
stroke:#000000; stroke-width:21200.000000; stroke-opacity:1; 
stroke-linecap:round; stroke-linejoin:round;">
</g>
<g style="fill:#000000; fill-opacity:0.0; 
stroke:#000000; stroke-width:150000.000000; stroke-opacity:1; 
stroke-linecap:round; stroke-linejoin:round;">
<path d="M60000000 198007200
L60000000 200007200
" />
</g>
<g style="fill:#000000; fill-opacity:0.0; 
stroke:#000000; stroke-width:21200.000000; stroke-opacity:1; 
stroke-linecap:round; stroke-linejoin:round;">
</g>
<g style="fill:#000000; fill-opacity:0.0; 
stroke:#000000; stroke-width:150000.000000; stroke-opacity:1; 
stroke-linecap:round; stroke-linejoin:round;">
<path d="M110000000 198007200
L110000000 200007200
" />
</g>
<g style="fill:#000000; fill-opacity:0.0; 
stroke:#000000; stroke-width:21200.000000; stroke-opacity:1; 
stroke-linecap:round; stroke-linejoin:round;">
</g>
<g style="fill:#000000; fill-opacity:0.0; 
stroke:#000000; stroke-width:150000.000000; stroke-opacity:1; 
stroke-linecap:round; stroke-linejoin:round;">
<path d="M160000000 198007200
L160000000 200007200
" />
</g>
<g style="fill:#000000; fill-opacity:0.0; 
stroke:#000000; stroke-width:21200.000000; stroke-opacity:1; 
stroke-linecap:round; stroke-linejoin:round;">
</g>
<g style="fill:#000000; fill-opacity:0.0; 
stroke:#000000; stroke-width:150000.000000; stroke-opacity:1; 
stroke-linecap:round; stroke-linejoin:round;">
<path d="M210000000 198007200
L210000000 200007200
" />
</g>
<g style="fill:#000000; fill-opacity:0.0; 
stroke:#000000; stroke-width:21200.000000; stroke-opacity:1; 
stroke-linecap:round; stroke-linejoin:round;">
</g>
<g style="fill:#000000; fill-opacity:0.0; 
stroke:#000000; stroke-width:150000.000000; stroke-opacity:1; 
stroke-linecap:round; stroke-linejoin:round;">
<path d="M260000000 198007200
L260000000 200007200
" />
</g>
<g style="fill:#000000; fill-opacity:0.0; 
stroke:#000000; stroke-width:21200.000000; stroke-opacity:1; 
stroke-linecap:round; stroke-linejoin:round;">
</g>
<g style="fill:#000000; fill-opacity:0.0; 
stroke:#000000; stroke-width:150000.000000; stroke-opacity:1; 
stroke-linecap:round; stroke-linejoin:round;">
<text x="35000000.000000" y="199657200.000000"
textLength="1388095.000000" font-size="1733333.000000" lengthAdjust="spacingAndGlyphs"
text-anchor="start" opacity="0">1</text>
<g class="stroked-text"><desc>1</desc>
<path d="M36065476 199595295
L35322619 199595295
" />
<path d="M35694047 199595295
L35694047 198295295
L35570238 198481009
L35446428 198604819
L35322619 198666723
" />
</g></g>
<g style="fill:#000000; fill-opacity:0.0; 
stroke:#000000; stroke-width:21200.000000; stroke-opacity:1; 
stroke-linecap:round; stroke-linejoin:round;">
</g>
<g style="fill:#000000; fill-opacity:0.0; 
stroke:#000000; stroke-width:150000.000000; stroke-opacity:1; 
stroke-linecap:round; stroke-linejoin:round;">
<text x="85000000.000000" y="199657200.000000"
textLength="1388095.000000" font-size="1733333.000000" lengthAdjust="spacingAndGlyphs"
text-anchor="start" opacity="0">2</text>
<g class="stroked-text"><desc>2</desc>
<path d="M85322619 198419104
L85384523 198357200
L85508333 198295295
L85817857 198295295
L85941666 198357200
L86003571 198419104
L86065476 198542914
L86065476 198666723
L86003571 198852438
L85260714 199595295
L86065476 199595295
" />
</g></g>
<g style="fill:#000000; fill-opacity:0.0; 
stroke:#000000; stroke-width:21200.000000; stroke-opacity:1; 
stroke-linecap:round; stroke-linejoin:round;">
</g>
<g style="fill:#000000; fill-opacity:0.0; 
stroke:#000000; stroke-width:150000.000000; stroke-opacity:1; 
stroke-linecap:round; stroke-linejoin:round;">
<text x="135000000.000000" y="199657200.000000"
textLength="1388095.000000" font-size="1733333.000000" lengthAdjust="spacingAndGlyphs"
text-anchor="start" opacity="0">3</text>
<g class="stroked-text"><desc>3</desc>
<path d="M135260714 198295295
L136065476 198295295
L135632142 198790533
L135817857 198790533
L135941666 198852438
L136003571 198914342
L136065476 199038152
L136065476 199347676
L136003571 199471485
L135941666 199533390
L135817857 199595295
L135446428 199595295
L135322619 199533390
L135260714 199471485
" />
</g></g>
<g style="fill:#000000; fill-opacity:0.0; 
stroke:#000000; stroke-width:21200.000000; stroke-opacity:1; 
stroke-linecap:round; stroke-linejoin:round;">
</g>
<g style="fill:#000000; fill-opacity:0.0; 
stroke:#000000; stroke-width:150000.000000; stroke-opacity:1; 
stroke-linecap:round; stroke-linejoin:round;">
<text x="185000000.000000" y="199657200.000000"
textLength="1388095.000000" font-size="1733333.000000" lengthAdjust="spacingAndGlyphs"
text-anchor="start" opacity="0">4</text>
<g class="stroked-text"><desc>4</desc>
<path d="M185941666 198728628
L185941666 199595295
" />
<path d="M185632142 198233390
L185322619 199161961
L186127380 199161961
" />
</g></g>
<g style="fill:#000000; fill-opacity:0.0; 
stroke:#000000; stroke-width:21200.000000; stroke-opacity:1; 
stroke-linecap:round; stroke-linejoin:round;">
</g>
<g style="fill:#000000; fill-opacity:0.0; 
stroke:#000000; stroke-width:150000.000000; stroke-opacity:1; 
stroke-linecap:round; stroke-linejoin:round;">
<text x="235000000.000000" y="199657200.000000"
textLength="1388095.000000" font-size="1733333.000000" lengthAdjust="spacingAndGlyphs"
text-anchor="start" opacity="0">5</text>
<g class="stroked-text"><desc>5</desc>
<path d="M236003571 198295295
L235384523 198295295
L235322619 198914342
L235384523 198852438
L235508333 198790533
L235817857 198790533
L235941666 198852438
L236003571 198914342
L236065476 199038152
L236065476 199347676
L236003571 199471485
L235941666 199533390
L235817857 199595295
L235508333 199595295
L235384523 199533390
L235322619 199471485
" />
</g></g>
<g style="fill:#000000; fill-opacity:0.0; 
stroke:#000000; stroke-width:21200.000000; stroke-opacity:1; 
stroke-linecap:round; stroke-linejoin:round;">
</g>
<g style="fill:#000000; fill-opacity:0.0; 
stroke:#000000; stroke-width:150000.000000; stroke-opacity:1; 
stroke-linecap:round; stroke-linejoin:round;">
<text x="285000000.000000" y="199657200.000000"
textLength="1388095.000000" font-size="1733333.000000" lengthAdjust="spacingAndGlyphs"
text-anchor="start" opacity="0">6</text>
<g class="stroked-text"><desc>6</desc>
<path d="M285941666 198295295
L285694047 198295295
L285570238 198357200
L285508333 198419104
L285384523 198604819
L285322619 198852438
L285322619 199347676
L285384523 199471485
L285446428 199533390
L285570238 199595295
L285817857 199595295
L285941666 199533390
L286003571 199471485
L286065476 199347676
L286065476 199038152
L286003571 198914342
L285941666 198852438
L285817857 198790533
L285570238 198790533
L285446428 198852438
L285384523 198914342
L285322619 199038152
" />
</g></g>
<g style="fill:#000000; fill-opacity:0.0; 
stroke:#000000; stroke-width:21200.000000; stroke-opacity:1; 
stroke-linecap:round; stroke-linejoin:round;">
</g>
<g style="fill:#000000; fill-opacity:0.0; 
stroke:#000000; stroke-width:150000.000000; stroke-opacity:1; 
stroke-linecap:round; stroke-linejoin:round;">
<path d="M10000000 60000000
L12000000 60000000
" />
</g>
<g style="fill:#000000; fill-opacity:0.0; 
stroke:#000000; stroke-width:21200.000000; stroke-opacity:1; 
stroke-linecap:round; stroke-linejoin:round;">
</g>
<g style="fill:#000000; fill-opacity:0.0; 
stroke:#000000; stroke-width:150000.000000; stroke-opacity:1; 
stroke-linecap:round; stroke-linejoin:round;">
<path d="M10000000 110000000
L12000000 110000000
" />
</g>
<g style="fill:#000000; fill-opacity:0.0; 
stroke:#000000; stroke-width:21200.000000; stroke-opacity:1; 
stroke-linecap:round; stroke-linejoin:round;">
</g>
<g style="fill:#000000; fill-opacity:0.0; 
stroke:#000000; stroke-width:150000.000000; stroke-opacity:1; 
stroke-linecap:round; stroke-linejoin:round;">
<path d="M10000000 160000000
L12000000 160000000
" />
</g>
<g style="fill:#000000; fill-opacity:0.0; 
stroke:#000000; stroke-width:21200.000000; stroke-opacity:1; 
stroke-linecap:round; stroke-linejoin:round;">
</g>
<g style="fill:#000000; fill-opacity:0.0; 
stroke:#000000; stroke-width:150000.000000; stroke-opacity:1; 
stroke-linecap:round; stroke-linejoin:round;">
<text x="11000000.000000" y="35650000.000000"
textLength="1264286.000000" font-size="1733333.000000" lengthAdjust="spacingAndGlyphs"
text-anchor="middle" opacity="0">A</text>
<g class="stroked-text"><desc>A</desc>
<path d="M10690476 35216666
L11309523 35216666
" />
<path d="M10566666 35588095
L11000000 34288095
L11433333 35588095
" />
</g></g>
<g style="fill:#000000; fill-opacity:0.0; 
stroke:#000000; stroke-width:21200.000000; stroke-opacity:1; 
stroke-linecap:round; stroke-linejoin:round;">
</g>
<g style="fill:#000000; fill-opacity:0.0; 
stroke:#000000; stroke-width:150000.000000; stroke-opacity:1; 
stroke-linecap:round; stroke-linejoin:round;">
<text x="11000000.000000" y="85650000.000000"
textLength="1450000.000000" font-size="1733333.000000" lengthAdjust="spacingAndGlyphs"
text-anchor="middle" opacity="0">B</text>
<g class="stroked-text"><desc>B</desc>
<path d="M11092857 84907142
L11278571 84969047
L11340476 85030952
L11402380 85154761
L11402380 85340476
L11340476 85464285
L11278571 85526190
L11154761 85588095
L10659523 85588095
L10659523 84288095
L11092857 84288095
L11216666 84350000
L11278571 84411904
L11340476 84535714
L11340476 84659523
L11278571 84783333
L11216666 84845238
L11092857 84907142
L10659523 84907142
" />
</g></g>
<g style="fill:#000000; fill-opacity:0.0; 
stroke:#000000; stroke-width:21200.000000; stroke-opacity:1; 
stroke-linecap:round; stroke-linejoin:round;">
</g>
<g style="fill:#000000; fill-opacity:0.0; 
stroke:#000000; stroke-width:150000.000000; stroke-opacity:1; 
stroke-linecap:round; stroke-linejoin:round;">
<text x="11000000.000000" y="135650000.000000"
textLength="1450000.000000" font-size="1733333.000000" lengthAdjust="spacingAndGlyphs"
text-anchor="middle" opacity="0">C</text>
<g class="stroked-text"><desc>C</desc>
<path d="M11402380 135464285
L11340476 135526190
L11154761 135588095
L11030952 135588095
L10845238 135526190
L10721428 135402380
L10659523 135278571
L10597619 135030952
L10597619 134845238
L10659523 134597619
L10721428 134473809
L10845238 134350000
L11030952 134288095
L11154761 134288095
L11340476 134350000
L11402380 134411904
" />
</g></g>
<g style="fill:#000000; fill-opacity:0.0; 
stroke:#000000; stroke-width:21200.000000; stroke-opacity:1; 
stroke-linecap:round; stroke-linejoin:round;">
</g>
<g style="fill:#000000; fill-opacity:0.0; 
stroke:#000000; stroke-width:150000.000000; stroke-opacity:1; 
stroke-linecap:round; stroke-linejoin:round;">
<text x="11000000.000000" y="185650000.000000"
textLength="1450000.000000" font-size="1733333.000000" lengthAdjust="spacingAndGlyphs"
text-anchor="middle" opacity="0">D</text>
<g class="stroked-text"><desc>D</desc>
<path d="M10659523 185588095
L10659523 184288095
L10969047 184288095
L11154761 184350000
L11278571 184473809
L11340476 184597619
L11402380 184845238
L11402380 185030952
L11340476 185278571
L11278571 185402380
L11154761 185526190
L10969047 185588095
L10659523 185588095
" />
</g></g>
<g style="fill:#000000; fill-opacity:0.0; 
stroke:#000000; stroke-width:21200.000000; stroke-opacity:1; 
stroke-linecap:round; stroke-linejoin:round;">
</g>
<g style="fill:#000000; fill-opacity:0.0; 
stroke:#000000; stroke-width:150000.000000; stroke-opacity:1; 
stroke-linecap:round; stroke-linejoin:round;">
<path d="M287002200 60000000
L285002200 60000000
" />
</g>
<g style="fill:#000000; fill-opacity:0.0; 
stroke:#000000; stroke-width:21200.000000; stroke-opacity:1; 
stroke-linecap:round; stroke-linejoin:round;">
</g>
<g style="fill:#000000; fill-opacity:0.0; 
stroke:#000000; stroke-width:150000.000000; stroke-opacity:1; 
stroke-linecap:round; stroke-linejoin:round;">
<path d="M287002200 110000000
L285002200 110000000
" />
</g>
<g style="fill:#000000; fill-opacity:0.0; 
stroke:#000000; stroke-width:21200.000000; stroke-opacity:1; 
stroke-linecap:round; stroke-linejoin:round;">
</g>
<g style="fill:#000000; fill-opacity:0.0; 
stroke:#000000; stroke-width:150000.000000; stroke-opacity:1; 
stroke-linecap:round; stroke-linejoin:round;">
<path d="M287002200 160000000
L285002200 160000000
" />
</g>
<g style="fill:#000000; fill-opacity:0.0; 
stroke:#000000; stroke-width:21200.000000; stroke-opacity:1; 
stroke-linecap:round; stroke-linejoin:round;">
</g>
<g style="fill:#000000; fill-opacity:0.0; 
stroke:#000000; stroke-width:150000.000000; stroke-opacity:1; 
stroke-linecap:round; stroke-linejoin:round;">
<text x="286002200.000000" y="35650000.000000"
textLength="1264286.000000" font-size="1733333.000000" lengthAdjust="spacingAndGlyphs"
text-anchor="middle" opacity="0">A</text>
<g class="stroked-text"><desc>A</desc>
<path d="M285692676 35216666
L286311723 35216666
" />
<path d="M285568866 35588095
L286002200 34288095
L286435533 35588095
" />
</g></g>
<g style="fill:#000000; fill-opacity:0.0; 
stroke:#000000; stroke-width:21200.000000; stroke-opacity:1; 
stroke-linecap:round; stroke-linejoin:round;">
</g>
<g style="fill:#000000; fill-opacity:0.0; 
stroke:#000000; stroke-width:150000.000000; stroke-opacity:1; 
stroke-linecap:round; stroke-linejoin:round;">
<text x="286002200.000000" y="85650000.000000"
textLength="1450000.000000" font-size="1733333.000000" lengthAdjust="spacingAndGlyphs"
text-anchor="middle" opacity="0">B</text>
<g class="stroked-text"><desc>B</desc>
<path d="M286095057 84907142
L286280771 84969047
L286342676 85030952
L286404580 85154761
L286404580 85340476
L286342676 85464285
L286280771 85526190
L286156961 85588095
L285661723 85588095
L285661723 84288095
L286095057 84288095
L286218866 84350000
L286280771 84411904
L286342676 84535714
L286342676 84659523
L286280771 84783333
L286218866 84845238
L286095057 84907142
L285661723 84907142
" />
</g></g>
<g style="fill:#000000; fill-opacity:0.0; 
stroke:#000000; stroke-width:21200.000000; stroke-opacity:1; 
stroke-linecap:round; stroke-linejoin:round;">
</g>
<g style="fill:#000000; fill-opacity:0.0; 
stroke:#000000; stroke-width:150000.000000; stroke-opacity:1; 
stroke-linecap:round; stroke-linejoin:round;">
<text x="286002200.000000" y="135650000.000000"
textLength="1450000.000000" font-size="1733333.000000" lengthAdjust="spacingAndGlyphs"
text-anchor="middle" opacity="0">C</text>
<g class="stroked-text"><desc>C</desc>
<path d="M286404580 135464285
L286342676 135526190
L286156961 135588095
L286033152 135588095
L285847438 135526190
L285723628 135402380
L285661723 135278571
L285599819 135030952
L285599819 134845238
L285661723 134597619
L285723628 134473809
L285847438 134350000
L286033152 134288095
L286156961 134288095
L286342676 134350000
L286404580 134411904
" />
</g></g>
<g style="fill:#000000; fill-opacity:0.0; 
stroke:#000000; stroke-width:21200.000000; stroke-opacity:1; 
stroke-linecap:round; stroke-linejoin:round;">
</g>
<g style="fill:#000000; fill-opacity:0.0; 
stroke:#000000; stroke-width:150000.000000; stroke-opacity:1; 
stroke-linecap:round; stroke-linejoin:round;">
<text x="286002200.000000" y="185650000.000000"
textLength="1450000.000000" font-size="1733333.000000" lengthAdjust="spacingAndGlyphs"
text-anchor="middle" opacity="0">D</text>
<g class="stroked-text"><desc>D</desc>
<path d="M285661723 185588095
L285661723 184288095
L285971247 184288095
L286156961 184350000
L286280771 184473809
L286342676 184597619
L286404580 184845238
L286404580 185030952
L286342676 185278571
L286280771 185402380
L286156961 185526190
L285971247 185588095
L285661723 185588095
" />
</g></g>
<g style="fill:#000000; fill-opacity:0.0; 
stroke:#000000; stroke-width:21200.000000; stroke-opacity:1; 
stroke-linecap:round; stroke-linejoin:round;">
</g>
<g style="fill:#000000; fill-opacity:0.0; 
stroke:#000000; stroke-width:150000.000000; stroke-opacity:1; 
stroke-linecap:round; stroke-linejoin:round;">
<text x="200002200.000000" y="193857200.000000"
textLength="7007143.000000" font-size="2000000.000000" lengthAdjust="spacingAndGlyphs"
text-anchor="start" opacity="0">Date: </text>
<g class="stroked-text"><desc>Date: </desc>
<path d="M200434342 193785771
L200434342 192285771
L200791485 192285771
L201005771 192357200
L201148628 192500057
L201220057 192642914
L201291485 192928628
L201291485 193142914
L201220057 193428628
L201148628 193571485
L201005771 193714342
L200791485 193785771
L200434342 193785771
" />
<path d="M202577200 193785771
L202577200 193000057
L202505771 192857200
L202362914 192785771
L202077200 192785771
L201934342 192857200
" />
<path d="M202577200 193714342
L202434342 193785771
L202077200 193785771
L201934342 193714342
L201862914 193571485
L201862914 193428628
L201934342 193285771
L202077200 193214342
L202434342 193214342
L202577200 193142914
" />
<path d="M203077200 192785771
L203648628 192785771
" />
<path d="M203291485 192285771
L203291485 193571485
L203362914 193714342
L203505771 193785771
L203648628 193785771
" />
<path d="M204720057 193714342
L204577200 193785771
L204291485 193785771
L204148628 193714342
L204077200 193571485
L204077200 193000057
L204148628 192857200
L204291485 192785771
L204577200 192785771
L204720057 192857200
L204791485 193000057
L204791485 193142914
L204077200 193285771
" />
<path d="M205434342 193642914
L205505771 193714342
L205434342 193785771
L205362914 193714342
L205434342 193642914
L205434342 193785771
" />
<path d="M205434342 192857200
L205505771 192928628
L205434342 193000057
L205362914 192928628
L205434342 192857200
L205434342 193000057
" />
</g></g>
<g style="fill:#000000; fill-opacity:0.0; 
stroke:#000000; stroke-width:21200.000000; stroke-opacity:1; 
stroke-linecap:round; stroke-linejoin:round;">
</g>
<g style="fill:#000000; fill-opacity:0.0; 
stroke:#000000; stroke-width:150000.000000; stroke-opacity:1; 
stroke-linecap:round; stroke-linejoin:round;">
<path d="M177002200 194507200
L285002200 194507200
" />
</g>
<g style="fill:#000000; fill-opacity:0.0; 
stroke:#000000; stroke-width:21200.000000; stroke-opacity:1; 
stroke-linecap:round; stroke-linejoin:round;">
</g>
<g style="fill:#000000; fill-opacity:0.0; 
stroke:#000000; stroke-width:150000.000000; stroke-opacity:1; 
stroke-linecap:round; stroke-linejoin:round;">
<text x="178002200.000000" y="196657200.000000"
textLength="67007143.000000" font-size="2000000.000000" lengthAdjust="spacingAndGlyphs"
text-anchor="start" opacity="0">KiCad E.D.A.  kicad 6.0.9-8da3e8f707~117~ubuntu20.04.1</text>
<g class="stroked-text"><desc>KiCad E.D.A.  kicad 6.0.9-8da3e8f707~117~ubuntu20.04.1</desc>
<path d="M178434342 196585771
L178434342 195085771
" />
<path d="M179291485 196585771
L178648628 195728628
" />
<path d="M179291485 195085771
L178434342 195942914
" />
<path d="M179934342 196585771
L179934342 195585771
" />
<path d="M179934342 195085771
L179862914 195157200
L179934342 195228628
L180005771 195157200
L179934342 195085771
L179934342 195228628
" />
<path d="M181505771 196442914
L181434342 196514342
L181220057 196585771
L181077200 196585771
L180862914 196514342
L180720057 196371485
L180648628 196228628
L180577200 195942914
L180577200 195728628
L180648628 195442914
L180720057 195300057
L180862914 195157200
L181077200 195085771
L181220057 195085771
L181434342 195157200
L181505771 195228628
" />
<path d="M182791485 196585771
L182791485 195800057
L182720057 195657200
L182577200 195585771
L182291485 195585771
L182148628 195657200
" />
<path d="M182791485 196514342
L182648628 196585771
L182291485 196585771
L182148628 196514342
L182077200 196371485
L182077200 196228628
L182148628 196085771
L182291485 196014342
L182648628 196014342
L182791485 195942914
" />
<path d="M184148628 196585771
L184148628 195085771
" />
<path d="M184148628 196514342
L184005771 196585771
L183720057 196585771
L183577200 196514342
L183505771 196442914
L183434342 196300057
L183434342 195871485
L183505771 195728628
L183577200 195657200
L183720057 195585771
L184005771 195585771
L184148628 195657200
" />
<path d="M186005771 195800057
L186505771 195800057
" />
<path d="M186720057 196585771
L186005771 196585771
L186005771 195085771
L186720057 195085771
" />
<path d="M187362914 196442914
L187434342 196514342
L187362914 196585771
L187291485 196514342
L187362914 196442914
L187362914 196585771
" />
<path d="M188077200 196585771
L188077200 195085771
L188434342 195085771
L188648628 195157200
L188791485 195300057
L188862914 195442914
L188934342 195728628
L188934342 195942914
L188862914 196228628
L188791485 196371485
L188648628 196514342
L188434342 196585771
L188077200 196585771
" />
<path d="M189577200 196442914
L189648628 196514342
L189577200 196585771
L189505771 196514342
L189577200 196442914
L189577200 196585771
" />
<path d="M190220057 196157200
L190934342 196157200
" />
<path d="M190077200 196585771
L190577200 195085771
L191077200 196585771
" />
<path d="M191577200 196442914
L191648628 196514342
L191577200 196585771
L191505771 196514342
L191577200 196442914
L191577200 196585771
" />
<path d="M194577200 196585771
L194577200 195085771
" />
<path d="M194720057 196014342
L195148628 196585771
" />
<path d="M195148628 195585771
L194577200 196157200
" />
<path d="M195791485 196585771
L195791485 195585771
" />
<path d="M195791485 195085771
L195720057 195157200
L195791485 195228628
L195862914 195157200
L195791485 195085771
L195791485 195228628
" />
<path d="M197148628 196514342
L197005771 196585771
L196720057 196585771
L196577200 196514342
L196505771 196442914
L196434342 196300057
L196434342 195871485
L196505771 195728628
L196577200 195657200
L196720057 195585771
L197005771 195585771
L197148628 195657200
" />
<path d="M198434342 196585771
L198434342 195800057
L198362914 195657200
L198220057 195585771
L197934342 195585771
L197791485 195657200
" />
<path d="M198434342 196514342
L198291485 196585771
L197934342 196585771
L197791485 196514342
L197720057 196371485
L197720057 196228628
L197791485 196085771
L197934342 196014342
L198291485 196014342
L198434342 195942914
" />
<path d="M199791485 196585771
L199791485 195085771
" />
<path d="M199791485 196514342
L199648628 196585771
L199362914 196585771
L199220057 196514342
L199148628 196442914
L199077200 196300057
L199077200 195871485
L199148628 195728628
L199220057 195657200
L199362914 195585771
L199648628 195585771
L199791485 195657200
" />
<path d="M202291485 195085771
L202005771 195085771
L201862914 195157200
L201791485 195228628
L201648628 195442914
L201577200 195728628
L201577200 196300057
L201648628 196442914
L201720057 196514342
L201862914 196585771
L202148628 196585771
L202291485 196514342
L202362914 196442914
L202434342 196300057
L202434342 195942914
L202362914 195800057
L202291485 195728628
L202148628 195657200
L201862914 195657200
L201720057 195728628
L201648628 195800057
L201577200 195942914
" />
<path d="M203077200 196442914
L203148628 196514342
L203077200 196585771
L203005771 196514342
L203077200 196442914
L203077200 196585771
" />
<path d="M204077200 195085771
L204220057 195085771
L204362914 195157200
L204434342 195228628
L204505771 195371485
L204577200 195657200
L204577200 196014342
L204505771 196300057
L204434342 196442914
L204362914 196514342
L204220057 196585771
L204077200 196585771
L203934342 196514342
L203862914 196442914
L203791485 196300057
L203720057 196014342
L203720057 195657200
L203791485 195371485
L203862914 195228628
L203934342 195157200
L204077200 195085771
" />
<path d="M205220057 196442914
L205291485 196514342
L205220057 196585771
L205148628 196514342
L205220057 196442914
L205220057 196585771
" />
<path d="M206005771 196585771
L206291485 196585771
L206434342 196514342
L206505771 196442914
L206648628 196228628
L206720057 195942914
L206720057 195371485
L206648628 195228628
L206577200 195157200
L206434342 195085771
L206148628 195085771
L206005771 195157200
L205934342 195228628
L205862914 195371485
L205862914 195728628
L205934342 195871485
L206005771 195942914
L206148628 196014342
L206434342 196014342
L206577200 195942914
L206648628 195871485
L206720057 195728628
" />
<path d="M207362914 196014342
L208505771 196014342
" />
<path d="M209434342 195728628
L209291485 195657200
L209220057 195585771
L209148628 195442914
L209148628 195371485
L209220057 195228628
L209291485 195157200
L209434342 195085771
L209720057 195085771
L209862914 195157200
L209934342 195228628
L210005771 195371485
L210005771 195442914
L209934342 195585771
L209862914 195657200
L209720057 195728628
L209434342 195728628
L209291485 195800057
L209220057 195871485
L209148628 196014342
L209148628 196300057
L209220057 196442914
L209291485 196514342
L209434342 196585771
L209720057 196585771
L209862914 196514342
L209934342 196442914
L210005771 196300057
L210005771 196014342
L209934342 195871485
L209862914 195800057
L209720057 195728628
" />
<path d="M211291485 196585771
L211291485 195085771
" />
<path d="M211291485 196514342
L211148628 196585771
L210862914 196585771
L210720057 196514342
L210648628 196442914
L210577200 196300057
L210577200 195871485
L210648628 195728628
L210720057 195657200
L210862914 195585771
L211148628 195585771
L211291485 195657200
" />
<path d="M212648628 196585771
L212648628 195800057
L212577200 195657200
L212434342 195585771
L212148628 195585771
L212005771 195657200
" />
<path d="M212648628 196514342
L212505771 196585771
L212148628 196585771
L212005771 196514342
L211934342 196371485
L211934342 196228628
L212005771 196085771
L212148628 196014342
L212505771 196014342
L212648628 195942914
" />
<path d="M213220057 195085771
L214148628 195085771
L213648628 195657200
L213862914 195657200
L214005771 195728628
L214077200 195800057
L214148628 195942914
L214148628 196300057
L214077200 196442914
L214005771 196514342
L213862914 196585771
L213434342 196585771
L213291485 196514342
L213220057 196442914
" />
<path d="M215362914 196514342
L215220057 196585771
L214934342 196585771
L214791485 196514342
L214720057 196371485
L214720057 195800057
L214791485 195657200
L214934342 195585771
L215220057 195585771
L215362914 195657200
L215434342 195800057
L215434342 195942914
L214720057 196085771
" />
<path d="M216291485 195728628
L216148628 195657200
L216077200 195585771
L216005771 195442914
L216005771 195371485
L216077200 195228628
L216148628 195157200
L216291485 195085771
L216577200 195085771
L216720057 195157200
L216791485 195228628
L216862914 195371485
L216862914 195442914
L216791485 195585771
L216720057 195657200
L216577200 195728628
L216291485 195728628
L216148628 195800057
L216077200 195871485
L216005771 196014342
L216005771 196300057
L216077200 196442914
L216148628 196514342
L216291485 196585771
L216577200 196585771
L216720057 196514342
L216791485 196442914
L216862914 196300057
L216862914 196014342
L216791485 195871485
L216720057 195800057
L216577200 195728628
" />
<path d="M217291485 195585771
L217862914 195585771
" />
<path d="M217505771 196585771
L217505771 195300057
L217577200 195157200
L217720057 195085771
L217862914 195085771
" />
<path d="M218220057 195085771
L219220057 195085771
L218577200 196585771
" />
<path d="M220077200 195085771
L220220057 195085771
L220362914 195157200
L220434342 195228628
L220505771 195371485
L220577200 195657200
L220577200 196014342
L220505771 196300057
L220434342 196442914
L220362914 196514342
L220220057 196585771
L220077200 196585771
L219934342 196514342
L219862914 196442914
L219791485 196300057
L219720057 196014342
L219720057 195657200
L219791485 195371485
L219862914 195228628
L219934342 195157200
L220077200 195085771
" />
<path d="M221077200 195085771
L222077200 195085771
L221434342 196585771
" />
<path d="M222434342 196014342
L222505771 195942914
L222648628 195871485
L222934342 196014342
L223077199 195942914
L223148628 195871485
" />
<path d="M224505771 196585771
L223648628 196585771
" />
<path d="M224077200 196585771
L224077200 195085771
L223934342 195300057
L223791485 195442914
L223648628 195514342
" />
<path d="M225934342 196585771
L225077199 196585771
" />
<path d="M225505771 196585771
L225505771 195085771
L225362914 195300057
L225220057 195442914
L225077199 195514342
" />
<path d="M226434342 195085771
L227434342 195085771
L226791485 196585771
" />
<path d="M227791485 196014342
L227862914 195942914
L228005771 195871485
L228291485 196014342
L228434342 195942914
L228505771 195871485
" />
<path d="M229720057 195585771
L229720057 196585771
" />
<path d="M229077199 195585771
L229077199 196371485
L229148628 196514342
L229291485 196585771
L229505771 196585771
L229648628 196514342
L229720057 196442914
" />
<path d="M230434342 196585771
L230434342 195085771
" />
<path d="M230434342 195657200
L230577199 195585771
L230862914 195585771
L231005771 195657200
L231077199 195728628
L231148628 195871485
L231148628 196300057
L231077199 196442914
L231005771 196514342
L230862914 196585771
L230577199 196585771
L230434342 196514342
" />
<path d="M232434342 195585771
L232434342 196585771
" />
<path d="M231791485 195585771
L231791485 196371485
L231862914 196514342
L232005771 196585771
L232220057 196585771
L232362914 196514342
L232434342 196442914
" />
<path d="M233148628 195585771
L233148628 196585771
" />
<path d="M233148628 195728628
L233220057 195657200
L233362914 195585771
L233577199 195585771
L233720057 195657200
L233791485 195800057
L233791485 196585771
" />
<path d="M234291485 195585771
L234862914 195585771
" />
<path d="M234505771 195085771
L234505771 196371485
L234577199 196514342
L234720057 196585771
L234862914 196585771
" />
<path d="M236005771 195585771
L236005771 196585771
" />
<path d="M235362914 195585771
L235362914 196371485
L235434342 196514342
L235577200 196585771
L235791485 196585771
L235934342 196514342
L236005771 196442914
" />
<path d="M236648628 195228628
L236720057 195157200
L236862914 195085771
L237220057 195085771
L237362914 195157200
L237434342 195228628
L237505771 195371485
L237505771 195514342
L237434342 195728628
L236577200 196585771
L237505771 196585771
" />
<path d="M238434342 195085771
L238577199 195085771
L238720057 195157200
L238791485 195228628
L238862914 195371485
L238934342 195657200
L238934342 196014342
L238862914 196300057
L238791485 196442914
L238720057 196514342
L238577199 196585771
L238434342 196585771
L238291485 196514342
L238220057 196442914
L238148628 196300057
L238077199 196014342
L238077199 195657200
L238148628 195371485
L238220057 195228628
L238291485 195157200
L238434342 195085771
" />
<path d="M239577199 196442914
L239648628 196514342
L239577199 196585771
L239505771 196514342
L239577199 196442914
L239577199 196585771
" />
<path d="M240577199 195085771
L240720057 195085771
L240862914 195157200
L240934342 195228628
L241005771 195371485
L241077199 195657200
L241077199 196014342
L241005771 196300057
L240934342 196442914
L240862914 196514342
L240720057 196585771
L240577199 196585771
L240434342 196514342
L240362914 196442914
L240291485 196300057
L240220057 196014342
L240220057 195657200
L240291485 195371485
L240362914 195228628
L240434342 195157200
L240577199 195085771
" />
<path d="M242362914 195585771
L242362914 196585771
" />
<path d="M242005771 195014342
L241648628 196085771
L242577199 196085771
" />
<path d="M243148628 196442914
L243220057 196514342
L243148628 196585771
L243077199 196514342
L243148628 196442914
L243148628 196585771
" />
<path d="M244648628 196585771
L243791485 196585771
" />
<path d="M244220057 196585771
L244220057 195085771
L244077199 195300057
L243934342 195442914
L243791485 195514342
" />
</g></g>
<g style="fill:#000000; fill-opacity:0.0; 
stroke:#000000; stroke-width:21200.000000; stroke-opacity:1; 
stroke-linecap:round; stroke-linejoin:round;">
</g>
<g style="fill:#000000; fill-opacity:0.0; 
stroke:#000000; stroke-width:150000.000000; stroke-opacity:1; 
stroke-linecap:round; stroke-linejoin:round;">
<path d="M177002200 191507200
L285002200 191507200
" />
</g>
<g style="fill:#000000; fill-opacity:0.0; 
stroke:#000000; stroke-width:21200.000000; stroke-opacity:1; 
stroke-linecap:round; stroke-linejoin:round;">
</g>
<g style="fill:#000000; fill-opacity:0.0; 
stroke:#000000; stroke-width:300000.000000; stroke-opacity:1; 
stroke-linecap:round; stroke-linejoin:round;">
<text x="263002200.000000" y="193857200.000000"
textLength="5935714.000000" font-size="2000000.000000" lengthAdjust="spacingAndGlyphs"
text-anchor="start" opacity="0">Rev: </text>
<g class="stroked-text"><desc>Rev: </desc>
<path d="M264411485 193785771
L263911485 193071485
" />
<path d="M263554342 193785771
L263554342 192285771
L264125771 192285771
L264268628 192357200
L264340057 192428628
L264411485 192571485
L264411485 192785771
L264340057 192928628
L264268628 193000057
L264125771 193071485
L263554342 193071485
" />
<path d="M265625771 193714342
L265482914 193785771
L265197200 193785771
L265054342 193714342
L264982914 193571485
L264982914 193000057
L265054342 192857200
L265197200 192785771
L265482914 192785771
L265625771 192857200
L265697200 193000057
L265697200 193142914
L264982914 193285771
" />
<path d="M266197200 192785771
L266554342 193785771
L266911485 192785771
" />
<path d="M267482914 193642914
L267554342 193714342
L267482914 193785771
L267411485 193714342
L267482914 193642914
L267482914 193785771
" />
<path d="M267482914 192857200
L267554342 192928628
L267482914 193000057
L267411485 192928628
L267482914 192857200
L267482914 193000057
" />
</g></g>
<g style="fill:#000000; fill-opacity:0.0; 
stroke:#000000; stroke-width:21200.000000; stroke-opacity:1; 
stroke-linecap:round; stroke-linejoin:round;">
</g>
<g style="fill:#000000; fill-opacity:0.0; 
stroke:#000000; stroke-width:150000.000000; stroke-opacity:1; 
stroke-linecap:round; stroke-linejoin:round;">
<text x="178002200.000000" y="193857200.000000"
textLength="9604286.000000" font-size="2000000.000000" lengthAdjust="spacingAndGlyphs"
text-anchor="start" opacity="0">Size: A4</text>
<g class="stroked-text"><desc>Size: A4</desc>
<path d="M178362914 193714342
L178577200 193785771
L178934342 193785771
L179077200 193714342
L179148628 193642914
L179220057 193500057
L179220057 193357200
L179148628 193214342
L179077200 193142914
L178934342 193071485
L178648628 193000057
L178505771 192928628
L178434342 192857200
L178362914 192714342
L178362914 192571485
L178434342 192428628
L178505771 192357200
L178648628 192285771
L179005771 192285771
L179220057 192357200
" />
<path d="M179862914 193785771
L179862914 192785771
" />
<path d="M179862914 192285771
L179791485 192357200
L179862914 192428628
L179934342 192357200
L179862914 192285771
L179862914 192428628
" />
<path d="M180434342 192785771
L181220057 192785771
L180434342 193785771
L181220057 193785771
" />
<path d="M182362914 193714342
L182220057 193785771
L181934342 193785771
L181791485 193714342
L181720057 193571485
L181720057 193000057
L181791485 192857200
L181934342 192785771
L182220057 192785771
L182362914 192857200
L182434342 193000057
L182434342 193142914
L181720057 193285771
" />
<path d="M183077200 193642914
L183148628 193714342
L183077200 193785771
L183005771 193714342
L183077200 193642914
L183077200 193785771
" />
<path d="M183077200 192857200
L183148628 192928628
L183077200 193000057
L183005771 192928628
L183077200 192857200
L183077200 193000057
" />
<path d="M184862914 193357200
L185577200 193357200
" />
<path d="M184720057 193785771
L185220057 192285771
L185720057 193785771
" />
<path d="M186862914 192785771
L186862914 193785771
" />
<path d="M186505771 192214342
L186148628 193285771
L187077200 193285771
" />
</g></g>
<g style="fill:#000000; fill-opacity:0.0; 
stroke:#000000; stroke-width:21200.000000; stroke-opacity:1; 
stroke-linecap:round; stroke-linejoin:round;">
</g>
<g style="fill:#000000; fill-opacity:0.0; 
stroke:#000000; stroke-width:150000.000000; stroke-opacity:1; 
stroke-linecap:round; stroke-linejoin:round;">
<text x="263002200.000000" y="196657200.000000"
textLength="8507143.000000" font-size="2000000.000000" lengthAdjust="spacingAndGlyphs"
text-anchor="start" opacity="0">Id: 1/1</text>
<g class="stroked-text"><desc>Id: 1/1</desc>
<path d="M263434342 196585771
L263434342 195085771
" />
<path d="M264791485 196585771
L264791485 195085771
" />
<path d="M264791485 196514342
L264648628 196585771
L264362914 196585771
L264220057 196514342
L264148628 196442914
L264077200 196300057
L264077200 195871485
L264148628 195728628
L264220057 195657200
L264362914 195585771
L264648628 195585771
L264791485 195657200
" />
<path d="M265505771 196442914
L265577200 196514342
L265505771 196585771
L265434342 196514342
L265505771 196442914
L265505771 196585771
" />
<path d="M265505771 195657200
L265577200 195728628
L265505771 195800057
L265434342 195728628
L265505771 195657200
L265505771 195800057
" />
<path d="M268148628 196585771
L267291485 196585771
" />
<path d="M267720057 196585771
L267720057 195085771
L267577200 195300057
L267434342 195442914
L267291485 195514342
" />
<path d="M269862914 195014342
L268577200 196942914
" />
<path d="M271148628 196585771
L270291485 196585771
" />
<path d="M270720057 196585771
L270720057 195085771
L270577200 195300057
L270434342 195442914
L270291485 195514342
" />
</g></g>
<g style="fill:#000000; fill-opacity:0.0; 
stroke:#000000; stroke-width:21200.000000; stroke-opacity:1; 
stroke-linecap:round; stroke-linejoin:round;">
</g>
<g style="fill:#000000; fill-opacity:0.0; 
stroke:#000000; stroke-width:150000.000000; stroke-opacity:1; 
stroke-linecap:round; stroke-linejoin:round;">
<path d="M177002200 187507200
L285002200 187507200
" />
</g>
<g style="fill:#000000; fill-opacity:0.0; 
stroke:#000000; stroke-width:21200.000000; stroke-opacity:1; 
stroke-linecap:round; stroke-linejoin:round;">
</g>
<g style="fill:#000000; fill-opacity:0.0; 
stroke:#000000; stroke-width:400000.000000; stroke-opacity:1; 
stroke-linecap:round; stroke-linejoin:round;">
<text x="178002200.000000" y="190307200.000000"
textLength="9409643.000000" font-size="2666666.000000" lengthAdjust="spacingAndGlyphs"
text-anchor="start" opacity="0">Title: </text>
<g class="stroked-text"><desc>Title: </desc>
<path d="M178714580 188211961
L179857438 188211961
" />
<path d="M179036009 190211961
L179286009 188211961
" />
<path d="M180274104 190211961
L180440771 188878628
" />
<path d="M180524104 188211961
L180416961 188307200
L180500295 188402438
L180607438 188307200
L180524104 188211961
L180500295 188402438
" />
<path d="M181107438 188878628
L181869342 188878628
" />
<path d="M181476485 188211961
L181262200 189926247
L181333628 190116723
L181512200 190211961
L181702676 190211961
" />
<path d="M182655057 190211961
L182476485 190116723
L182405057 189926247
L182619342 188211961
" />
<path d="M184190771 190116723
L183988390 190211961
L183607438 190211961
L183428866 190116723
L183357438 189926247
L183452676 189164342
L183571723 188973866
L183774104 188878628
L184155057 188878628
L184333628 188973866
L184405057 189164342
L184381247 189354819
L183405057 189545295
" />
<path d="M185155057 190021485
L185238390 190116723
L185131247 190211961
L185047914 190116723
L185155057 190021485
L185131247 190211961
" />
<path d="M185286009 188973866
L185369342 189069104
L185262200 189164342
L185178866 189069104
L185286009 188973866
L185262200 189164342
" />
</g></g>
<g style="fill:#000000; fill-opacity:0.0; 
stroke:#000000; stroke-width:21200.000000; stroke-opacity:1; 
stroke-linecap:round; stroke-linejoin:round;">
</g>
<g style="fill:#000000; fill-opacity:0.0; 
stroke:#000000; stroke-width:150000.000000; stroke-opacity:1; 
stroke-linecap:round; stroke-linejoin:round;">
<text x="178002200.000000" y="186457200.000000"
textLength="21020000.000000" font-size="2000000.000000" lengthAdjust="spacingAndGlyphs"
text-anchor="start" opacity="0">File: E3.kicad_pcb</text>
<g class="stroked-text"><desc>File: E3.kicad_pcb</desc>
<path d="M178934342 185600057
L178434342 185600057
" />
<path d="M178434342 186385771
L178434342 184885771
L179148628 184885771
" />
<path d="M179720057 186385771
L179720057 185385771
" />
<path d="M179720057 184885771
L179648628 184957200
L179720057 185028628
L179791485 184957200
L179720057 184885771
L179720057 185028628
" />
<path d="M180648628 186385771
L180505771 186314342
L180434342 186171485
L180434342 184885771
" />
<path d="M181791485 186314342
L181648628 186385771
L181362914 186385771
L181220057 186314342
L181148628 186171485
L181148628 185600057
L181220057 185457200
L181362914 185385771
L181648628 185385771
L181791485 185457200
L181862914 185600057
L181862914 185742914
L181148628 185885771
" />
<path d="M182505771 186242914
L182577200 186314342
L182505771 186385771
L182434342 186314342
L182505771 186242914
L182505771 186385771
" />
<path d="M182505771 185457200
L182577200 185528628
L182505771 185600057
L182434342 185528628
L182505771 185457200
L182505771 185600057
" />
<path d="M184362914 185600057
L184862914 185600057
" />
<path d="M185077200 186385771
L184362914 186385771
L184362914 184885771
L185077200 184885771
" />
<path d="M185577200 184885771
L186505771 184885771
L186005771 185457200
L186220057 185457200
L186362914 185528628
L186434342 185600057
L186505771 185742914
L186505771 186100057
L186434342 186242914
L186362914 186314342
L186220057 186385771
L185791485 186385771
L185648628 186314342
L185577200 186242914
" />
<path d="M187148628 186242914
L187220057 186314342
L187148628 186385771
L187077200 186314342
L187148628 186242914
L187148628 186385771
" />
<path d="M187862914 186385771
L187862914 184885771
" />
<path d="M188005771 185814342
L188434342 186385771
" />
<path d="M188434342 185385771
L187862914 185957200
" />
<path d="M189077200 186385771
L189077200 185385771
" />
<path d="M189077200 184885771
L189005771 184957200
L189077200 185028628
L189148628 184957200
L189077200 184885771
L189077200 185028628
" />
<path d="M190434342 186314342
L190291485 186385771
L190005771 186385771
L189862914 186314342
L189791485 186242914
L189720057 186100057
L189720057 185671485
L189791485 185528628
L189862914 185457200
L190005771 185385771
L190291485 185385771
L190434342 185457200
" />
<path d="M191720057 186385771
L191720057 185600057
L191648628 185457200
L191505771 185385771
L191220057 185385771
L191077200 185457200
" />
<path d="M191720057 186314342
L191577200 186385771
L191220057 186385771
L191077200 186314342
L191005771 186171485
L191005771 186028628
L191077200 185885771
L191220057 185814342
L191577200 185814342
L191720057 185742914
" />
<path d="M193077200 186385771
L193077200 184885771
" />
<path d="M193077200 186314342
L192934342 186385771
L192648628 186385771
L192505771 186314342
L192434342 186242914
L192362914 186100057
L192362914 185671485
L192434342 185528628
L192505771 185457200
L192648628 185385771
L192934342 185385771
L193077200 185457200
" />
<path d="M193434342 186528628
L194577200 186528628
" />
<path d="M194934342 185385771
L194934342 186885771
" />
<path d="M194934342 185457200
L195077200 185385771
L195362914 185385771
L195505771 185457200
L195577200 185528628
L195648628 185671485
L195648628 186100057
L195577200 186242914
L195505771 186314342
L195362914 186385771
L195077200 186385771
L194934342 186314342
" />
<path d="M196934342 186314342
L196791485 186385771
L196505771 186385771
L196362914 186314342
L196291485 186242914
L196220057 186100057
L196220057 185671485
L196291485 185528628
L196362914 185457200
L196505771 185385771
L196791485 185385771
L196934342 185457200
" />
<path d="M197577200 186385771
L197577200 184885771
" />
<path d="M197577200 185457200
L197720057 185385771
L198005771 185385771
L198148628 185457200
L198220057 185528628
L198291485 185671485
L198291485 186100057
L198220057 186242914
L198148628 186314342
L198005771 186385771
L197720057 186385771
L197577200 186314342
" />
</g></g>
<g style="fill:#000000; fill-opacity:0.0; 
stroke:#000000; stroke-width:21200.000000; stroke-opacity:1; 
stroke-linecap:round; stroke-linejoin:round;">
</g>
<g style="fill:#000000; fill-opacity:0.0; 
stroke:#000000; stroke-width:150000.000000; stroke-opacity:1; 
stroke-linecap:round; stroke-linejoin:round;">
<path d="M177002200 181507200
L285002200 181507200
" />
</g>
<g style="fill:#000000; fill-opacity:0.0; 
stroke:#000000; stroke-width:21200.000000; stroke-opacity:1; 
stroke-linecap:round; stroke-linejoin:round;">
</g>
<g style="fill:#000000; fill-opacity:0.0; 
stroke:#000000; stroke-width:150000.000000; stroke-opacity:1; 
stroke-linecap:round; stroke-linejoin:round;">
<text x="178002200.000000" y="183757200.000000"
textLength="8221429.000000" font-size="2000000.000000" lengthAdjust="spacingAndGlyphs"
text-anchor="start" opacity="0">Sheet: </text>
<g class="stroked-text"><desc>Sheet: </desc>
<path d="M178362914 183614342
L178577200 183685771
L178934342 183685771
L179077200 183614342
L179148628 183542914
L179220057 183400057
L179220057 183257200
L179148628 183114342
L179077200 183042914
L178934342 182971485
L178648628 182900057
L178505771 182828628
L178434342 182757200
L178362914 182614342
L178362914 182471485
L178434342 182328628
L178505771 182257200
L178648628 182185771
L179005771 182185771
L179220057 182257200
" />
<path d="M179862914 183685771
L179862914 182185771
" />
<path d="M180505771 183685771
L180505771 182900057
L180434342 182757200
L180291485 182685771
L180077200 182685771
L179934342 182757200
L179862914 182828628
" />
<path d="M181791485 183614342
L181648628 183685771
L181362914 183685771
L181220057 183614342
L181148628 183471485
L181148628 182900057
L181220057 182757200
L181362914 182685771
L181648628 182685771
L181791485 182757200
L181862914 182900057
L181862914 183042914
L181148628 183185771
" />
<path d="M183077200 183614342
L182934342 183685771
L182648628 183685771
L182505771 183614342
L182434342 183471485
L182434342 182900057
L182505771 182757200
L182648628 182685771
L182934342 182685771
L183077200 182757200
L183148628 182900057
L183148628 183042914
L182434342 183185771
" />
<path d="M183577200 182685771
L184148628 182685771
" />
<path d="M183791485 182185771
L183791485 183471485
L183862914 183614342
L184005771 183685771
L184148628 183685771
" />
<path d="M184648628 183542914
L184720057 183614342
L184648628 183685771
L184577200 183614342
L184648628 183542914
L184648628 183685771
" />
<path d="M184648628 182757200
L184720057 182828628
L184648628 182900057
L184577200 182828628
L184648628 182757200
L184648628 182900057
" />
</g></g>
<g style="fill:#000000; fill-opacity:0.0; 
stroke:#000000; stroke-width:21200.000000; stroke-opacity:1; 
stroke-linecap:round; stroke-linejoin:round;">
</g>
<g style="fill:#000000; fill-opacity:0.0; 
stroke:#000000; stroke-width:300000.000000; stroke-opacity:1; 
stroke-linecap:round; stroke-linejoin:round;">
<text x="178002200.000000" y="180757200.000000"
textLength="150000.000000" font-size="2000000.000000" lengthAdjust="spacingAndGlyphs"
text-anchor="start" opacity="0"></text>
<g class="stroked-text"><desc></desc>
</g></g>
<g style="fill:#000000; fill-opacity:0.0; 
stroke:#000000; stroke-width:21200.000000; stroke-opacity:1; 
stroke-linecap:round; stroke-linejoin:round;">
</g>
<g style="fill:#000000; fill-opacity:0.0; 
stroke:#000000; stroke-width:150000.000000; stroke-opacity:1; 
stroke-linecap:round; stroke-linejoin:round;">
<text x="178002200.000000" y="177757200.000000"
textLength="300000.000000" font-size="2000000.000000" lengthAdjust="spacingAndGlyphs"
text-anchor="start" opacity="0"></text>
<g class="stroked-text"><desc></desc>
</g></g>
<g style="fill:#000000; fill-opacity:0.0; 
stroke:#000000; stroke-width:21200.000000; stroke-opacity:1; 
stroke-linecap:round; stroke-linejoin:round;">
</g>
<g style="fill:#000000; fill-opacity:0.0; 
stroke:#000000; stroke-width:150000.000000; stroke-opacity:1; 
stroke-linecap:round; stroke-linejoin:round;">
<text x="178002200.000000" y="174757200.000000"
textLength="150000.000000" font-size="2000000.000000" lengthAdjust="spacingAndGlyphs"
text-anchor="start" opacity="0"></text>
<g class="stroked-text"><desc></desc>
</g></g>
<g style="fill:#000000; fill-opacity:0.0; 
stroke:#000000; stroke-width:21200.000000; stroke-opacity:1; 
stroke-linecap:round; stroke-linejoin:round;">
</g>
<g style="fill:#000000; fill-opacity:0.0; 
stroke:#000000; stroke-width:150000.000000; stroke-opacity:1; 
stroke-linecap:round; stroke-linejoin:round;">
<text x="178002200.000000" y="171757200.000000"
textLength="150000.000000" font-size="2000000.000000" lengthAdjust="spacingAndGlyphs"
text-anchor="start" opacity="0"></text>
<g class="stroked-text"><desc></desc>
</g></g>
<g style="fill:#000000; fill-opacity:0.0; 
stroke:#000000; stroke-width:21200.000000; stroke-opacity:1; 
stroke-linecap:round; stroke-linejoin:round;">
</g>
<g style="fill:#000000; fill-opacity:0.0; 
stroke:#000000; stroke-width:150000.000000; stroke-opacity:1; 
stroke-linecap:round; stroke-linejoin:round;">
<text x="178002200.000000" y="168757200.000000"
textLength="150000.000000" font-size="2000000.000000" lengthAdjust="spacingAndGlyphs"
text-anchor="start" opacity="0"></text>
<g class="stroked-text"><desc></desc>
</g></g>
<g style="fill:#000000; fill-opacity:0.0; 
stroke:#000000; stroke-width:21200.000000; stroke-opacity:1; 
stroke-linecap:round; stroke-linejoin:round;">
</g>
<g style="fill:#000000; fill-opacity:0.0; 
stroke:#000000; stroke-width:150000.000000; stroke-opacity:1; 
stroke-linecap:round; stroke-linejoin:round;">
<path d="M197002200 191507200
L197002200 194507200
" />
</g>
<g style="fill:#000000; fill-opacity:0.0; 
stroke:#000000; stroke-width:21200.000000; stroke-opacity:1; 
stroke-linecap:round; stroke-linejoin:round;">
</g>
<g style="fill:#000000; fill-opacity:0.0; 
stroke:#000000; stroke-width:150000.000000; stroke-opacity:1; 
stroke-linecap:round; stroke-linejoin:round;">
<path d="M261002200 191507200
L261002200 198007200
" />
<g >
</g>
<g >
</g>
<g style="fill:#4D7FC4; fill-opacity:0.0; 
stroke:#4D7FC4; stroke-width:150000.000000; stroke-opacity:1; 
stroke-linecap:round; stroke-linejoin:round;">
</g>
<g style="fill:#4D7FC4; fill-opacity:0.0; 
stroke:#4D7FC4; stroke-width:1.000000; stroke-opacity:1; 
stroke-linecap:round; stroke-linejoin:round;">
</g>
<g style="fill:#4D7FC4; fill-opacity:1.0; 
stroke:#4D7FC4; stroke-width:1.000000; stroke-opacity:1; 
stroke-linecap:round; stroke-linejoin:round;">
<path style="fill:#4D7FC4; fill-opacity:1.0; 
stroke:#4D7FC4; stroke-width:1.000000; stroke-opacity:1; 
stroke-linecap:round; stroke-linejoin:round;fill-rule:evenodd;"
d="M 169330000.000000,110070000.000000
169330000.000000,108370000.000000
171030000.000000,108370000.000000
171030000.000000,110070000.000000
Z" /> 
<circle cx="170180000.000000" cy="111760000.000000" r="850000.000000" /> 
</g>
<g >
</g>
<g >
</g>
<g style="fill:#4D7FC4; fill-opacity:1.0; 
stroke:#4D7FC4; stroke-width:1.000000; stroke-opacity:1; 
stroke-linecap:round; stroke-linejoin:round;">
</g>
<g style="fill:#4D7FC4; fill-opacity:1.0; 
stroke:#4D7FC4; stroke-width:1110000.000000; stroke-opacity:1; 
stroke-linecap:round; stroke-linejoin:round;">
</g>
<g style="fill:#4D7FC4; fill-opacity:0.0; 
stroke:#4D7FC4; stroke-width:1110000.000000; stroke-opacity:1; 
stroke-linecap:round; stroke-linejoin:round;">
<path d="M170385250 120650000
L171495250 120650000
" />
<path d="M170385250 119380000
L171495250 119380000
" />
<path d="M170385250 118110000
L171495250 118110000
" />
</g>
<g >
</g>
<g >
</g>
<g >
</g>
<g >
</g>
<g style="fill:#ECECEC; fill-opacity:0.0; 
stroke:#ECECEC; stroke-width:1110000.000000; stroke-opacity:1; 
stroke-linecap:round; stroke-linejoin:round;">
</g>
<g style="fill:#ECECEC; fill-opacity:1.0; 
stroke:#ECECEC; stroke-width:1.000000; stroke-opacity:1; 
stroke-linecap:round; stroke-linejoin:round;">
<circle cx="177800000.000000" cy="116840000.000000" r="400000.000000" /> 
</g>
<g style="fill:#ECECEC; fill-opacity:1.0; 
stroke:#ECECEC; stroke-width:21200.000000; stroke-opacity:1; 
stroke-linecap:round; stroke-linejoin:round;">
</g>
<g style="fill:#ECECEC; fill-opacity:1.0; 
stroke:#ECECEC; stroke-width:1.000000; stroke-opacity:1; 
stroke-linecap:round; stroke-linejoin:round;">
<circle cx="193040000.000000" cy="109220000.000000" r="400000.000000" /> 
</g>
<g style="fill:#ECECEC; fill-opacity:1.0; 
stroke:#ECECEC; stroke-width:21200.000000; stroke-opacity:1; 
stroke-linecap:round; stroke-linejoin:round;">
</g>
<g style="fill:#ECECEC; fill-opacity:1.0; 
stroke:#ECECEC; stroke-width:1.000000; stroke-opacity:1; 
stroke-linecap:round; stroke-linejoin:round;">
<circle cx="198120000.000000" cy="109220000.000000" r="400000.000000" /> 
</g>
<g style="fill:#ECECEC; fill-opacity:1.0; 
stroke:#ECECEC; stroke-width:21200.000000; stroke-opacity:1; 
stroke-linecap:round; stroke-linejoin:round;">
</g>
<g style="fill:#ECECEC; fill-opacity:1.0; 
stroke:#ECECEC; stroke-width:1.000000; stroke-opacity:1; 
stroke-linecap:round; stroke-linejoin:round;">
<circle cx="175260000.000000" cy="119380000.000000" r="400000.000000" /> 
</g>
<g style="fill:#ECECEC; fill-opacity:1.0; 
stroke:#ECECEC; stroke-width:21200.000000; stroke-opacity:1; 
stroke-linecap:round; stroke-linejoin:round;">
</g>
<g style="fill:#ECECEC; fill-opacity:1.0; 
stroke:#ECECEC; stroke-width:1.000000; stroke-opacity:1; 
stroke-linecap:round; stroke-linejoin:round;">
<circle cx="182880000.000000" cy="121920000.000000" r="400000.000000" /> 
</g>
<g style="fill:#ECECEC; fill-opacity:1.0; 
stroke:#ECECEC; stroke-width:21200.000000; stroke-opacity:1; 
stroke-linecap:round; stroke-linejoin:round;">
</g>
<g >
</g>
<g style="fill:#4D7FC4; fill-opacity:1.0; 
stroke:#4D7FC4; stroke-width:21200.000000; stroke-opacity:1; 
stroke-linecap:round; stroke-linejoin:round;">
</g>
<g style="fill:#4D7FC4; fill-opacity:1.0; 
stroke:#4D7FC4; stroke-width:350000.000000; stroke-opacity:1; 
stroke-linecap:round; stroke-linejoin:round;">
</g>
<g style="fill:#4D7FC4; fill-opacity:0.0; 
stroke:#4D7FC4; stroke-width:350000.000000; stroke-opacity:1; 
stroke-linecap:round; stroke-linejoin:round;">
<path d="M185420000 116840000
L193040000 109220000
" />
<path d="M177800000 116840000
L185420000 116840000
" />
<path d="M175260000 119380000
L187960000 119380000
" />
<path d="M187960000 119380000
L198120000 109220000
" />
</g>
<g >
</g>
<g style="fill:#C83434; fill-opacity:0.0; 
stroke:#C83434; stroke-width:350000.000000; stroke-opacity:1; 
stroke-linecap:round; stroke-linejoin:round;">
<g >
</g>
<g style="fill:#C83434; fill-opacity:1.0; 
stroke:#C83434; stroke-width:1.000000; stroke-opacity:1; 
stroke-linecap:round; stroke-linejoin:round;">
<path style="fill:#C83434; fill-opacity:1.0; 
stroke:#C83434; stroke-width:1.000000; stroke-opacity:1; 
stroke-linecap:round; stroke-linejoin:round;fill-rule:evenodd;"
d="M 200093621.000000,106700002.000000
200140114.000000,106753658.000000
200151500.000000,106806000.000000
200151500.000000,126365500.000000
200131498.000000,126433621.000000
200077842.000000,126480114.000000
200025500.000000,126491500.000000
165734500.000000,126491500.000000
165666379.000000,126471498.000000
165619886.000000,126417842.000000
165608500.000000,126365500.000000
165608500.000000,120915768.000000
169355340.000000,120915768.000000
169393146.000000,121044224.000000
169397739.000000,121055592.000000
169488612.000000,121229417.000000
169495328.000000,121239679.000000
169618227.000000,121392534.000000
169626815.000000,121401304.000000
169777057.000000,121527372.000000
169787187.000000,121534310.000000
169959069.000000,121628802.000000
169970333.000000,121633630.000000
170157302.000000,121692940.000000
170169290.000000,121695488.000000
170321912.000000,121712607.000000
170328936.000000,121713000.000000
170668135.000000,121713000.000000
170683374.000000,121708525.000000
170684579.000000,121707135.000000
170686250.000000,121699452.000000
170686250.000000,121694885.000000
171194250.000000,121694885.000000
171198725.000000,121710124.000000
171200115.000000,121711329.000000
171207798.000000,121713000.000000
171544619.000000,121713000.000000
171550764.000000,121712700.000000
171696586.000000,121698401.000000
171708623.000000,121696018.000000
171896389.000000,121639328.000000
171907730.000000,121634653.000000
172080909.000000,121542573.000000
172091125.000000,121535786.000000
172243132.000000,121411812.000000
172251821.000000,121403183.000000
172376856.000000,121252042.000000
172383710.000000,121241881.000000
172477002.000000,121069340.000000
172481754.000000,121058035.000000
172524078.000000,120921308.000000
172524284.000000,120907205.000000
172517529.000000,120904000.000000
171212365.000000,120904000.000000
171197126.000000,120908475.000000
171195921.000000,120909865.000000
171194250.000000,120917548.000000
171194250.000000,121694885.000000
170686250.000000,121694885.000000
170686250.000000,120922115.000000
170681775.000000,120906876.000000
170680385.000000,120905671.000000
170672702.000000,120904000.000000
169369991.000000,120904000.000000
169356460.000000,120907973.000000
169355340.000000,120915768.000000
165608500.000000,120915768.000000
165608500.000000,119372540.000000
169316630.000000,119372540.000000
169335533.000000,119580244.000000
169337271.000000,119586150.000000
169337272.000000,119586154.000000
169380915.000000,119734440.000000
169394419.000000,119780322.000000
169473356.000000,119931314.000000
169487541.000000,119958448.000000
169501375.000000,120028083.000000
169486715.000000,120076752.000000
169403498.000000,120230659.000000
169398746.000000,120241965.000000
169356422.000000,120378692.000000
169356216.000000,120392795.000000
169362971.000000,120396000.000000
170051215.000000,120396000.000000
170089313.000000,120401898.000000
170163066.000000,120425294.000000
170325378.000000,120443500.000000
171547734.000000,120443500.000000
171702818.000000,120428294.000000
171708713.000000,120426514.000000
171708719.000000,120426513.000000
171791968.000000,120401378.000000
171828386.000000,120396000.000000
172510509.000000,120396000.000000
172524040.000000,120392027.000000
172525160.000000,120384232.000000
172487354.000000,120255776.000000
172482761.000000,120244408.000000
172392951.000000,120072617.000000
172379117.000000,120002982.000000
172393776.000000,119954316.000000
172480395.000000,119794117.000000
172542069.000000,119594881.000000
172543608.000000,119580244.000000
172563226.000000,119393588.000000
172563226.000000,119393587.000000
172563870.000000,119387460.000000
172563191.000000,119380000.000000
174346496.000000,119380000.000000
174366458.000000,119569928.000000
174425473.000000,119751556.000000
174428776.000000,119757278.000000
174428777.000000,119757279.000000
174442081.000000,119780322.000000
174520960.000000,119916944.000000
174525378.000000,119921851.000000
174525379.000000,119921852.000000
174639544.000000,120048645.000000
174648747.000000,120058866.000000
174747843.000000,120130864.000000
174758051.000000,120138280.000000
174803248.000000,120171118.000000
174809276.000000,120173802.000000
174809278.000000,120173803.000000
174971681.000000,120246109.000000
174977712.000000,120248794.000000
175071112.000000,120268647.000000
175158056.000000,120287128.000000
175158061.000000,120287128.000000
175164513.000000,120288500.000000
175355487.000000,120288500.000000
175361939.000000,120287128.000000
175361944.000000,120287128.000000
175448888.000000,120268647.000000
175542288.000000,120248794.000000
175548319.000000,120246109.000000
175710722.000000,120173803.000000
175710724.000000,120173802.000000
175716752.000000,120171118.000000
175761950.000000,120138280.000000
175831754.000000,120087564.000000
175898622.000000,120063705.000000
175905815.000000,120063500.000000
187931955.000000,120063500.000000
187940524.000000,120063792.000000
187988458.000000,120067060.000000
187988462.000000,120067060.000000
187996034.000000,120067576.000000
188003511.000000,120066271.000000
188003514.000000,120066271.000000
188056647.000000,120056998.000000
188063171.000000,120056035.000000
188116691.000000,120049558.000000
188124235.000000,120048645.000000
188131345.000000,120045958.000000
188136248.000000,120044754.000000
188146734.000000,120041886.000000
188151526.000000,120040439.000000
188159004.000000,120039134.000000
188165957.000000,120036082.000000
188215341.000000,120014405.000000
188221446.000000,120011914.000000
188271882.000000,119992855.000000
188271885.000000,119992853.000000
188278989.000000,119990169.000000
188285246.000000,119985869.000000
188289714.000000,119983533.000000
188299160.000000,119978275.000000
188303526.000000,119975693.000000
188310485.000000,119972638.000000
188359304.000000,119935177.000000
188364623.000000,119931314.000000
188409065.000000,119900769.000000
188415326.000000,119896466.000000
188455233.000000,119851676.000000
188460213.000000,119846402.000000
198142950.000000,110163665.000000
198205262.000000,110129639.000000
198212346.000000,110128500.000000
198215487.000000,110128500.000000
198221940.000000,110127128.000000
198221943.000000,110127128.000000
198284513.000000,110113828.000000
198402288.000000,110088794.000000
198408319.000000,110086109.000000
198570722.000000,110013803.000000
198570724.000000,110013802.000000
198576752.000000,110011118.000000
198731253.000000,109898866.000000
198859040.000000,109756944.000000
198954527.000000,109591556.000000
199013542.000000,109409928.000000
199033504.000000,109220000.000000
199027266.000000,109160651.000000
199014232.000000,109036635.000000
199014232.000000,109036633.000000
199013542.000000,109030072.000000
198954527.000000,108848444.000000
198859040.000000,108683056.000000
198731253.000000,108541134.000000
198576752.000000,108428882.000000
198570724.000000,108426198.000000
198570722.000000,108426197.000000
198408319.000000,108353891.000000
198408318.000000,108353891.000000
198402288.000000,108351206.000000
198280331.000000,108325283.000000
198221944.000000,108312872.000000
198221939.000000,108312872.000000
198215487.000000,108311500.000000
198024513.000000,108311500.000000
198018061.000000,108312872.000000
198018056.000000,108312872.000000
197959669.000000,108325283.000000
197837712.000000,108351206.000000
197831682.000000,108353891.000000
197831681.000000,108353891.000000
197669278.000000,108426197.000000
197669276.000000,108426198.000000
197663248.000000,108428882.000000
197508747.000000,108541134.000000
197380960.000000,108683056.000000
197285473.000000,108848444.000000
197226458.000000,109030072.000000
197225768.000000,109036633.000000
197225768.000000,109036635.000000
197217398.000000,109116277.000000
197190385.000000,109181934.000000
197181183.000000,109192202.000000
187713790.000000,118659595.000000
187651478.000000,118693621.000000
187624695.000000,118696500.000000
175905815.000000,118696500.000000
175837694.000000,118676498.000000
175831754.000000,118672436.000000
175722094.000000,118592763.000000
175722093.000000,118592762.000000
175716752.000000,118588882.000000
175710724.000000,118586198.000000
175710722.000000,118586197.000000
175548319.000000,118513891.000000
175548318.000000,118513891.000000
175542288.000000,118511206.000000
175448887.000000,118491353.000000
175361944.000000,118472872.000000
175361939.000000,118472872.000000
175355487.000000,118471500.000000
175164513.000000,118471500.000000
175158061.000000,118472872.000000
175158056.000000,118472872.000000
175071113.000000,118491353.000000
174977712.000000,118511206.000000
174971682.000000,118513891.000000
174971681.000000,118513891.000000
174809278.000000,118586197.000000
174809276.000000,118586198.000000
174803248.000000,118588882.000000
174648747.000000,118701134.000000
174644326.000000,118706044.000000
174644325.000000,118706045.000000
174557850.000000,118802086.000000
174520960.000000,118843056.000000
174517659.000000,118848774.000000
174438670.000000,118985587.000000
174425473.000000,119008444.000000
174366458.000000,119190072.000000
174346496.000000,119380000.000000
172563191.000000,119380000.000000
172544967.000000,119179756.000000
172538927.000000,119159232.000000
172487820.000000,118985587.000000
172486081.000000,118979678.000000
172393238.000000,118802085.000000
172379404.000000,118732451.000000
172394063.000000,118683786.000000
172480395.000000,118524117.000000
172542069.000000,118324881.000000
172543608.000000,118310244.000000
172563226.000000,118123588.000000
172563226.000000,118123587.000000
172563870.000000,118117460.000000
172544967.000000,117909756.000000
172538927.000000,117889232.000000
172487820.000000,117715587.000000
172486081.000000,117709678.000000
172389455.000000,117524849.000000
172258768.000000,117362308.000000
172099000.000000,117228246.000000
172093602.000000,117225278.000000
172093597.000000,117225275.000000
171921629.000000,117130736.000000
171921630.000000,117130736.000000
171916234.000000,117127770.000000
171910367.000000,117125909.000000
171910365.000000,117125908.000000
171816834.000000,117096238.000000
171717434.000000,117064706.000000
171555122.000000,117046500.000000
170332766.000000,117046500.000000
170177682.000000,117061706.000000
170145778.000000,117071339.000000
169983922.000000,117120206.000000
169983919.000000,117120207.000000
169978021.000000,117121988.000000
169793870.000000,117219902.000000
169703058.000000,117293967.000000
169637020.000000,117347825.000000
169637017.000000,117347828.000000
169632245.000000,117351720.000000
169628319.000000,117356466.000000
169503230.000000,117507672.000000
169503227.000000,117507677.000000
169499302.000000,117512421.000000
169496372.000000,117517840.000000
169496370.000000,117517843.000000
169403035.000000,117690463.000000
169403033.000000,117690468.000000
169400105.000000,117695883.000000
169338431.000000,117895119.000000
169337787.000000,117901244.000000
169337787.000000,117901245.000000
169336247.000000,117915895.000000
169316630.000000,118102540.000000
169335533.000000,118310244.000000
169337271.000000,118316150.000000
169337272.000000,118316154.000000
169380915.000000,118464440.000000
169394419.000000,118510322.000000
169485102.000000,118683782.000000
169487262.000000,118687914.000000
169501096.000000,118757549.000000
169486437.000000,118806214.000000
169400105.000000,118965883.000000
169338431.000000,119165119.000000
169337787.000000,119171244.000000
169337787.000000,119171245.000000
169317274.000000,119366412.000000
169316630.000000,119372540.000000
165608500.000000,119372540.000000
165608500.000000,116840000.000000
176886496.000000,116840000.000000
176906458.000000,117029928.000000
176965473.000000,117211556.000000
176968776.000000,117217278.000000
176968777.000000,117217279.000000
176972541.000000,117223798.000000
177060960.000000,117376944.000000
177065378.000000,117381851.000000
177065379.000000,117381852.000000
177178668.000000,117507672.000000
177188747.000000,117518866.000000
177343248.000000,117631118.000000
177349276.000000,117633802.000000
177349278.000000,117633803.000000
177507436.000000,117704219.000000
177517712.000000,117708794.000000
177611113.000000,117728647.000000
177698056.000000,117747128.000000
177698061.000000,117747128.000000
177704513.000000,117748500.000000
177895487.000000,117748500.000000
177901939.000000,117747128.000000
177901944.000000,117747128.000000
177988887.000000,117728647.000000
178082288.000000,117708794.000000
178092564.000000,117704219.000000
178250722.000000,117633803.000000
178250724.000000,117633802.000000
178256752.000000,117631118.000000
178371754.000000,117547564.000000
178438622.000000,117523705.000000
178445815.000000,117523500.000000
185391955.000000,117523500.000000
185400524.000000,117523792.000000
185448458.000000,117527060.000000
185448462.000000,117527060.000000
185456034.000000,117527576.000000
185463511.000000,117526271.000000
185463514.000000,117526271.000000
185516647.000000,117516998.000000
185523171.000000,117516035.000000
185576691.000000,117509558.000000
185584235.000000,117508645.000000
185591345.000000,117505958.000000
185596248.000000,117504754.000000
185606734.000000,117501886.000000
185611526.000000,117500439.000000
185619004.000000,117499134.000000
185625957.000000,117496082.000000
185675341.000000,117474405.000000
185681446.000000,117471914.000000
185731882.000000,117452855.000000
185731885.000000,117452853.000000
185738989.000000,117450169.000000
185745246.000000,117445869.000000
185749714.000000,117443533.000000
185759160.000000,117438275.000000
185763526.000000,117435693.000000
185770485.000000,117432638.000000
185819304.000000,117395177.000000
185824623.000000,117391314.000000
185869065.000000,117360769.000000
185875326.000000,117356466.000000
185915233.000000,117311676.000000
185920213.000000,117306402.000000
193062950.000000,110163665.000000
193125262.000000,110129639.000000
193132346.000000,110128500.000000
193135487.000000,110128500.000000
193141940.000000,110127128.000000
193141943.000000,110127128.000000
193204513.000000,110113828.000000
193322288.000000,110088794.000000
193328319.000000,110086109.000000
193490722.000000,110013803.000000
193490724.000000,110013802.000000
193496752.000000,110011118.000000
193651253.000000,109898866.000000
193779040.000000,109756944.000000
193874527.000000,109591556.000000
193933542.000000,109409928.000000
193953504.000000,109220000.000000
193947266.000000,109160651.000000
193934232.000000,109036635.000000
193934232.000000,109036633.000000
193933542.000000,109030072.000000
193874527.000000,108848444.000000
193779040.000000,108683056.000000
193651253.000000,108541134.000000
193496752.000000,108428882.000000
193490724.000000,108426198.000000
193490722.000000,108426197.000000
193328319.000000,108353891.000000
193328318.000000,108353891.000000
193322288.000000,108351206.000000
193200331.000000,108325283.000000
193141944.000000,108312872.000000
193141939.000000,108312872.000000
193135487.000000,108311500.000000
192944513.000000,108311500.000000
192938061.000000,108312872.000000
192938056.000000,108312872.000000
192879669.000000,108325283.000000
192757712.000000,108351206.000000
192751682.000000,108353891.000000
192751681.000000,108353891.000000
192589278.000000,108426197.000000
192589276.000000,108426198.000000
192583248.000000,108428882.000000
192428747.000000,108541134.000000
192300960.000000,108683056.000000
192205473.000000,108848444.000000
192146458.000000,109030072.000000
192145768.000000,109036633.000000
192145768.000000,109036635.000000
192137398.000000,109116277.000000
192110385.000000,109181934.000000
192101183.000000,109192202.000000
185173790.000000,116119595.000000
185111478.000000,116153621.000000
185084695.000000,116156500.000000
178445815.000000,116156500.000000
178377694.000000,116136498.000000
178371754.000000,116132436.000000
178262094.000000,116052763.000000
178262093.000000,116052762.000000
178256752.000000,116048882.000000
178250724.000000,116046198.000000
178250722.000000,116046197.000000
178088319.000000,115973891.000000
178088318.000000,115973891.000000
178082288.000000,115971206.000000
177988888.000000,115951353.000000
177901944.000000,115932872.000000
177901939.000000,115932872.000000
177895487.000000,115931500.000000
177704513.000000,115931500.000000
177698061.000000,115932872.000000
177698056.000000,115932872.000000
177611112.000000,115951353.000000
177517712.000000,115971206.000000
177511682.000000,115973891.000000
177511681.000000,115973891.000000
177349278.000000,116046197.000000
177349276.000000,116046198.000000
177343248.000000,116048882.000000
177188747.000000,116161134.000000
177060960.000000,116303056.000000
176965473.000000,116468444.000000
176906458.000000,116650072.000000
176886496.000000,116840000.000000
165608500.000000,116840000.000000
165608500.000000,112027966.000000
168848257.000000,112027966.000000
168878565.000000,112162446.000000
168881645.000000,112172275.000000
168961770.000000,112369603.000000
168966413.000000,112378794.000000
169077694.000000,112560388.000000
169083777.000000,112568699.000000
169223213.000000,112729667.000000
169230580.000000,112736883.000000
169394434.000000,112872916.000000
169402881.000000,112878831.000000
169586756.000000,112986279.000000
169596042.000000,112990729.000000
169795001.000000,113066703.000000
169804899.000000,113069579.000000
169908250.000000,113090606.000000
169922299.000000,113089410.000000
169926000.000000,113079065.000000
169926000.000000,113078517.000000
170434000.000000,113078517.000000
170438064.000000,113092359.000000
170451478.000000,113094393.000000
170458184.000000,113093534.000000
170468262.000000,113091392.000000
170672255.000000,113030191.000000
170681842.000000,113026433.000000
170873095.000000,112932739.000000
170881945.000000,112927464.000000
171055328.000000,112803792.000000
171063200.000000,112797139.000000
171214052.000000,112646812.000000
171220730.000000,112638965.000000
171345003.000000,112466020.000000
171350313.000000,112457183.000000
171444670.000000,112266267.000000
171448469.000000,112256672.000000
171510377.000000,112052910.000000
171512555.000000,112042837.000000
171513986.000000,112031962.000000
171511775.000000,112017778.000000
171498617.000000,112014000.000000
170452115.000000,112014000.000000
170436876.000000,112018475.000000
170435671.000000,112019865.000000
170434000.000000,112027548.000000
170434000.000000,113078517.000000
169926000.000000,113078517.000000
169926000.000000,112032115.000000
169921525.000000,112016876.000000
169920135.000000,112015671.000000
169912452.000000,112014000.000000
168863225.000000,112014000.000000
168849694.000000,112017973.000000
168848257.000000,112027966.000000
165608500.000000,112027966.000000
165608500.000000,110118134.000000
168821500.000000,110118134.000000
168828255.000000,110180316.000000
168879385.000000,110316705.000000
168966739.000000,110433261.000000
169083295.000000,110520615.000000
169091704.000000,110523767.000000
169091705.000000,110523768.000000
169200960.000000,110564726.000000
169257725.000000,110607367.000000
169282425.000000,110673929.000000
169267218.000000,110743278.000000
169247825.000000,110769759.000000
169124590.000000,110898717.000000
169118104.000000,110906727.000000
168998098.000000,111082649.000000
168993000.000000,111091623.000000
168903338.000000,111284783.000000
168899775.000000,111294470.000000
168844389.000000,111494183.000000
168845912.000000,111502607.000000
168858292.000000,111506000.000000
171498344.000000,111506000.000000
171511875.000000,111502027.000000
171513180.000000,111492947.000000
171471214.000000,111325875.000000
171467894.000000,111316124.000000
171382972.000000,111120814.000000
171378105.000000,111111739.000000
171262426.000000,110932926.000000
171256136.000000,110924757.000000
171112293.000000,110766677.000000
171081241.000000,110702831.000000
171089635.000000,110632333.000000
171134812.000000,110577564.000000
171161256.000000,110563895.000000
171268297.000000,110523767.000000
171276705.000000,110520615.000000
171393261.000000,110433261.000000
171480615.000000,110316705.000000
171531745.000000,110180316.000000
171538500.000000,110118134.000000
171538500.000000,108321866.000000
171531745.000000,108259684.000000
171480615.000000,108123295.000000
171393261.000000,108006739.000000
171276705.000000,107919385.000000
171140316.000000,107868255.000000
171078134.000000,107861500.000000
169281866.000000,107861500.000000
169219684.000000,107868255.000000
169083295.000000,107919385.000000
168966739.000000,108006739.000000
168879385.000000,108123295.000000
168828255.000000,108259684.000000
168821500.000000,108321866.000000
168821500.000000,110118134.000000
165608500.000000,110118134.000000
165608500.000000,106806000.000000
165628502.000000,106737879.000000
165682158.000000,106691386.000000
165734500.000000,106680000.000000
200025500.000000,106680000.000000
Z" /> 
</g>
</g>
</g>
<g style="fill:#FFFFFF; fill-opacity:1.0; 
stroke:#FFFFFF; stroke-width:1.000000; stroke-opacity:1; 
stroke-linecap:round; stroke-linejoin:round;">
<circle cx="177800000.000000" cy="116840000.000000" r="200000.000000" /> 
</g>
<g style="fill:#FFFFFF; fill-opacity:1.0; 
stroke:#FFFFFF; stroke-width:21200.000000; stroke-opacity:1; 
stroke-linecap:round; stroke-linejoin:round;">
</g>
<g style="fill:#FFFFFF; fill-opacity:1.0; 
stroke:#FFFFFF; stroke-width:1.000000; stroke-opacity:1; 
stroke-linecap:round; stroke-linejoin:round;">
<circle cx="193040000.000000" cy="109220000.000000" r="200000.000000" /> 
</g>
<g style="fill:#FFFFFF; fill-opacity:1.0; 
stroke:#FFFFFF; stroke-width:21200.000000; stroke-opacity:1; 
stroke-linecap:round; stroke-linejoin:round;">
</g>
<g style="fill:#FFFFFF; fill-opacity:1.0; 
stroke:#FFFFFF; stroke-width:1.000000; stroke-opacity:1; 
stroke-linecap:round; stroke-linejoin:round;">
<circle cx="198120000.000000" cy="109220000.000000" r="200000.000000" /> 
</g>
<g style="fill:#FFFFFF; fill-opacity:1.0; 
stroke:#FFFFFF; stroke-width:21200.000000; stroke-opacity:1; 
stroke-linecap:round; stroke-linejoin:round;">
</g>
<g style="fill:#FFFFFF; fill-opacity:1.0; 
stroke:#FFFFFF; stroke-width:1.000000; stroke-opacity:1; 
stroke-linecap:round; stroke-linejoin:round;">
<circle cx="175260000.000000" cy="119380000.000000" r="200000.000000" /> 
</g>
<g style="fill:#FFFFFF; fill-opacity:1.0; 
stroke:#FFFFFF; stroke-width:21200.000000; stroke-opacity:1; 
stroke-linecap:round; stroke-linejoin:round;">
</g>
<g style="fill:#FFFFFF; fill-opacity:1.0; 
stroke:#FFFFFF; stroke-width:1.000000; stroke-opacity:1; 
stroke-linecap:round; stroke-linejoin:round;">
<circle cx="182880000.000000" cy="121920000.000000" r="200000.000000" /> 
</g>
<g style="fill:#FFFFFF; fill-opacity:1.0; 
stroke:#FFFFFF; stroke-width:21200.000000; stroke-opacity:1; 
stroke-linecap:round; stroke-linejoin:round;">
</g>
<g style="fill:#FFFFFF; fill-opacity:1.0; 
stroke:#FFFFFF; stroke-width:1.000000; stroke-opacity:1; 
stroke-linecap:round; stroke-linejoin:round;">
<circle cx="170180000.000000" cy="109220000.000000" r="500000.000000" /> 
</g>
<g style="fill:#FFFFFF; fill-opacity:1.0; 
stroke:#FFFFFF; stroke-width:21200.000000; stroke-opacity:1; 
stroke-linecap:round; stroke-linejoin:round;">
</g>
<g style="fill:#FFFFFF; fill-opacity:1.0; 
stroke:#FFFFFF; stroke-width:1.000000; stroke-opacity:1; 
stroke-linecap:round; stroke-linejoin:round;">
<circle cx="170180000.000000" cy="111760000.000000" r="500000.000000" /> 
</g>
<g style="fill:#FFFFFF; fill-opacity:1.0; 
stroke:#FFFFFF; stroke-width:21200.000000; stroke-opacity:1; 
stroke-linecap:round; stroke-linejoin:round;">
</g>
<g style="fill:#FFFFFF; fill-opacity:1.0; 
stroke:#FFFFFF; stroke-width:1.000000; stroke-opacity:1; 
stroke-linecap:round; stroke-linejoin:round;">
<circle cx="170940250.000000" cy="120650000.000000" r="465000.000000" /> 
</g>
<g style="fill:#FFFFFF; fill-opacity:1.0; 
stroke:#FFFFFF; stroke-width:21200.000000; stroke-opacity:1; 
stroke-linecap:round; stroke-linejoin:round;">
</g>
<g style="fill:#FFFFFF; fill-opacity:1.0; 
stroke:#FFFFFF; stroke-width:1.000000; stroke-opacity:1; 
stroke-linecap:round; stroke-linejoin:round;">
<circle cx="170940250.000000" cy="119380000.000000" r="465000.000000" /> 
</g>
<g style="fill:#FFFFFF; fill-opacity:1.0; 
stroke:#FFFFFF; stroke-width:21200.000000; stroke-opacity:1; 
stroke-linecap:round; stroke-linejoin:round;">
</g>
<g style="fill:#FFFFFF; fill-opacity:1.0; 
stroke:#FFFFFF; stroke-width:1.000000; stroke-opacity:1; 
stroke-linecap:round; stroke-linejoin:round;">
<circle cx="170940250.000000" cy="118110000.000000" r="465000.000000" /> 
</g>
<g style="fill:#FFFFFF; fill-opacity:1.0; 
stroke:#FFFFFF; stroke-width:21200.000000; stroke-opacity:1; 
stroke-linecap:round; stroke-linejoin:round;">
</g>
<g style="fill:#000000; fill-opacity:1.0; 
stroke:#000000; stroke-width:21200.000000; stroke-opacity:1; 
stroke-linecap:round; stroke-linejoin:round;">
</g>
<g style="fill:#D0D2CD; fill-opacity:1.0; 
stroke:#D0D2CD; stroke-width:21200.000000; stroke-opacity:1; 
stroke-linecap:round; stroke-linejoin:round;">
</g>
<g style="fill:#D0D2CD; fill-opacity:1.0; 
stroke:#D0D2CD; stroke-width:100000.000000; stroke-opacity:1; 
stroke-linecap:round; stroke-linejoin:round;">
</g>
<g style="fill:#D0D2CD; fill-opacity:0.0; 
stroke:#D0D2CD; stroke-width:100000.000000; stroke-opacity:1; 
stroke-linecap:round; stroke-linejoin:round;">
<path d="M165100000 96520000
L200660000 96520000
" />
<path d="M200660000 96520000
L200660000 127000000
" />
<path d="M200660000 127000000
L165100000 127000000
" />
<path d="M165100000 127000000
L165100000 96520000
" />
<g >
</g>
<g >
</g>
<g >
</g>
<g >
</g>
<g >
</g>
<g >
</g>
<g >
</g>
<g >
</g>
<g >
</g>
<g >
</g>
</g> 
</svg>
