M48
; DRILL file {KiCad 7.0.2-0} date 2023 June 25, Sunday 20:51:04
; FORMAT={-:-/ absolute / inch / decimal}
; #@! TF.CreationDate,2023-06-25T20:51:04-03:00
; #@! TF.GenerationSoftware,Kicad,Pcbnew,7.0.2-0
; #@! TF.FileFunction,Plated,1,2,PTH
FMAT,2
INCH
; #@! TA.AperFunction,Plated,PTH,ComponentDrill
T1C0.0236
; #@! TA.AperFunction,Plated,PTH,ComponentDrill
T2C0.0276
; #@! TA.AperFunction,Plated,PTH,ComponentDrill
T3C0.0295
; #@! TA.AperFunction,Plated,PTH,ComponentDrill
T4C0.0315
; #@! TA.AperFunction,Plated,PTH,ComponentDrill
T5C0.0394
; #@! TA.AperFunction,Plated,PTH,ComponentDrill
T6C0.0433
%
G90
G05
T1
X6.3531Y-4.05
X6.4319Y-4.05
T2
X4.3533Y-4.6394
X4.3533Y-4.9394
X4.85Y-5.45
X5.15Y-5.45
X6.15Y-4.85
X6.15Y-4.9
X6.15Y-4.95
X6.2Y-4.85
X6.2Y-4.9
X6.2Y-4.95
X6.55Y-5.25
X6.55Y-5.45
X7.45Y-3.75
X7.65Y-3.75
X7.95Y-3.75
X8.15Y-3.75
T3
X7.55Y-3.25
X7.6Y-3.25
X7.65Y-3.25
X8.05Y-3.25
X8.1Y-3.25
X8.15Y-3.25
T4
X4.35Y-5.1516
X4.35Y-5.4469
X5.25Y-4.65
X5.65Y-4.65
X7.05Y-4.0542
X7.05Y-4.8542
X7.15Y-4.0542
X7.15Y-4.8542
X7.25Y-4.0542
X7.25Y-4.8542
X7.35Y-4.0542
X7.35Y-4.8542
X7.45Y-4.0542
X7.45Y-4.8542
X7.55Y-4.0542
X7.55Y-4.8542
X7.65Y-4.0542
X7.65Y-4.8542
X7.75Y-4.0542
X7.75Y-4.8542
X7.85Y-4.0542
X7.85Y-4.8542
X7.95Y-4.0542
X7.95Y-4.8542
X8.05Y-4.0542
X8.05Y-4.8542
X8.15Y-4.0542
X8.15Y-4.8542
X8.25Y-4.0542
X8.35Y-4.0542
X8.45Y-4.0542
X8.55Y-4.0542
T5
X3.5Y-3.6
X3.5Y-3.7
X3.5Y-5.3406
X3.5Y-5.4406
X3.95Y-3.05
X4.05Y-3.05
X4.15Y-3.05
X4.25Y-3.05
X6.15Y-3.75
X6.3469Y-3.75
X6.3531Y-3.45
X6.55Y-3.45
X6.95Y-5.5
X7.15Y-5.5
T6
X4.65Y-3.65
X4.65Y-4.25
X4.85Y-3.15
X4.85Y-5.05
X4.95Y-5.05
X5.05Y-3.65
X5.05Y-3.95
X5.05Y-4.25
X5.05Y-5.05
X5.25Y-3.15
X5.45Y-3.95
X5.75Y-3.2
X5.85Y-3.2
X5.95Y-3.2
X6.55Y-4.65
X6.55Y-5.05
T0
M30
