%TF.GenerationSoftware,KiCad,Pcbnew,7.0.1*%
%TF.CreationDate,2023-06-24T23:24:17-03:00*%
%TF.ProjectId,Aquario_inteligente,41717561-7269-46f5-9f69-6e74656c6967,rev?*%
%TF.SameCoordinates,Original*%
%TF.FileFunction,Copper,L2,Bot*%
%TF.FilePolarity,Positive*%
%FSLAX46Y46*%
G04 Gerber Fmt 4.6, Leading zero omitted, Abs format (unit mm)*
G04 Created by KiCad (PCBNEW 7.0.1) date 2023-06-24 23:24:17*
%MOMM*%
%LPD*%
G01*
G04 APERTURE LIST*
%ADD10C,0.300000*%
%TA.AperFunction,NonConductor*%
%ADD11C,0.300000*%
%TD*%
%TA.AperFunction,ComponentPad*%
%ADD12C,1.600000*%
%TD*%
%TA.AperFunction,ComponentPad*%
%ADD13C,1.400000*%
%TD*%
%TA.AperFunction,ComponentPad*%
%ADD14R,2.200000X2.200000*%
%TD*%
%TA.AperFunction,ComponentPad*%
%ADD15O,2.200000X2.200000*%
%TD*%
%TA.AperFunction,ComponentPad*%
%ADD16O,1.000000X1.000000*%
%TD*%
%TA.AperFunction,ComponentPad*%
%ADD17R,1.000000X1.000000*%
%TD*%
%TA.AperFunction,ComponentPad*%
%ADD18R,1.905000X2.000000*%
%TD*%
%TA.AperFunction,ComponentPad*%
%ADD19O,1.905000X2.000000*%
%TD*%
%TA.AperFunction,ComponentPad*%
%ADD20C,10.160000*%
%TD*%
%TA.AperFunction,ComponentPad*%
%ADD21O,1.600000X1.600000*%
%TD*%
%TA.AperFunction,ComponentPad*%
%ADD22R,1.050000X1.500000*%
%TD*%
%TA.AperFunction,ComponentPad*%
%ADD23O,1.050000X1.500000*%
%TD*%
%TA.AperFunction,ComponentPad*%
%ADD24R,1.700000X1.700000*%
%TD*%
%TA.AperFunction,ComponentPad*%
%ADD25O,1.700000X1.700000*%
%TD*%
%TA.AperFunction,ComponentPad*%
%ADD26R,1.600000X1.600000*%
%TD*%
%TA.AperFunction,Conductor*%
%ADD27C,0.800000*%
%TD*%
%TA.AperFunction,Conductor*%
%ADD28C,2.000000*%
%TD*%
G04 APERTURE END LIST*
D10*
D11*
X225702857Y-60320714D02*
X225202857Y-60320714D01*
X224988571Y-61106428D02*
X225702857Y-61106428D01*
X225702857Y-61106428D02*
X225702857Y-59606428D01*
X225702857Y-59606428D02*
X224988571Y-59606428D01*
X224417142Y-60677857D02*
X223702857Y-60677857D01*
X224559999Y-61106428D02*
X224059999Y-59606428D01*
X224059999Y-59606428D02*
X223559999Y-61106428D01*
X222774285Y-59606428D02*
X222631428Y-59606428D01*
X222631428Y-59606428D02*
X222488571Y-59677857D01*
X222488571Y-59677857D02*
X222417143Y-59749285D01*
X222417143Y-59749285D02*
X222345714Y-59892142D01*
X222345714Y-59892142D02*
X222274285Y-60177857D01*
X222274285Y-60177857D02*
X222274285Y-60535000D01*
X222274285Y-60535000D02*
X222345714Y-60820714D01*
X222345714Y-60820714D02*
X222417143Y-60963571D01*
X222417143Y-60963571D02*
X222488571Y-61035000D01*
X222488571Y-61035000D02*
X222631428Y-61106428D01*
X222631428Y-61106428D02*
X222774285Y-61106428D01*
X222774285Y-61106428D02*
X222917143Y-61035000D01*
X222917143Y-61035000D02*
X222988571Y-60963571D01*
X222988571Y-60963571D02*
X223060000Y-60820714D01*
X223060000Y-60820714D02*
X223131428Y-60535000D01*
X223131428Y-60535000D02*
X223131428Y-60177857D01*
X223131428Y-60177857D02*
X223060000Y-59892142D01*
X223060000Y-59892142D02*
X222988571Y-59749285D01*
X222988571Y-59749285D02*
X222917143Y-59677857D01*
X222917143Y-59677857D02*
X222774285Y-59606428D01*
X221774286Y-59606428D02*
X220774286Y-59606428D01*
X220774286Y-59606428D02*
X221417143Y-61106428D01*
X219488572Y-59606428D02*
X220202858Y-59606428D01*
X220202858Y-59606428D02*
X220274286Y-60320714D01*
X220274286Y-60320714D02*
X220202858Y-60249285D01*
X220202858Y-60249285D02*
X220060001Y-60177857D01*
X220060001Y-60177857D02*
X219702858Y-60177857D01*
X219702858Y-60177857D02*
X219560001Y-60249285D01*
X219560001Y-60249285D02*
X219488572Y-60320714D01*
X219488572Y-60320714D02*
X219417143Y-60463571D01*
X219417143Y-60463571D02*
X219417143Y-60820714D01*
X219417143Y-60820714D02*
X219488572Y-60963571D01*
X219488572Y-60963571D02*
X219560001Y-61035000D01*
X219560001Y-61035000D02*
X219702858Y-61106428D01*
X219702858Y-61106428D02*
X220060001Y-61106428D01*
X220060001Y-61106428D02*
X220202858Y-61035000D01*
X220202858Y-61035000D02*
X220274286Y-60963571D01*
X218845715Y-60677857D02*
X218131430Y-60677857D01*
X218988572Y-61106428D02*
X218488572Y-59606428D01*
X218488572Y-59606428D02*
X217988572Y-61106428D01*
X217488573Y-60963571D02*
X217417144Y-61035000D01*
X217417144Y-61035000D02*
X217488573Y-61106428D01*
X217488573Y-61106428D02*
X217560001Y-61035000D01*
X217560001Y-61035000D02*
X217488573Y-60963571D01*
X217488573Y-60963571D02*
X217488573Y-61106428D01*
X225774285Y-63107857D02*
X225060000Y-63107857D01*
X225917142Y-63536428D02*
X225417142Y-62036428D01*
X225417142Y-62036428D02*
X224917142Y-63536428D01*
X223774286Y-62536428D02*
X223774286Y-64036428D01*
X223774286Y-63465000D02*
X223917143Y-63536428D01*
X223917143Y-63536428D02*
X224202857Y-63536428D01*
X224202857Y-63536428D02*
X224345714Y-63465000D01*
X224345714Y-63465000D02*
X224417143Y-63393571D01*
X224417143Y-63393571D02*
X224488571Y-63250714D01*
X224488571Y-63250714D02*
X224488571Y-62822142D01*
X224488571Y-62822142D02*
X224417143Y-62679285D01*
X224417143Y-62679285D02*
X224345714Y-62607857D01*
X224345714Y-62607857D02*
X224202857Y-62536428D01*
X224202857Y-62536428D02*
X223917143Y-62536428D01*
X223917143Y-62536428D02*
X223774286Y-62607857D01*
X222417143Y-62536428D02*
X222417143Y-63536428D01*
X223060000Y-62536428D02*
X223060000Y-63322142D01*
X223060000Y-63322142D02*
X222988571Y-63465000D01*
X222988571Y-63465000D02*
X222845714Y-63536428D01*
X222845714Y-63536428D02*
X222631428Y-63536428D01*
X222631428Y-63536428D02*
X222488571Y-63465000D01*
X222488571Y-63465000D02*
X222417143Y-63393571D01*
X221060000Y-63536428D02*
X221060000Y-62750714D01*
X221060000Y-62750714D02*
X221131428Y-62607857D01*
X221131428Y-62607857D02*
X221274285Y-62536428D01*
X221274285Y-62536428D02*
X221560000Y-62536428D01*
X221560000Y-62536428D02*
X221702857Y-62607857D01*
X221060000Y-63465000D02*
X221202857Y-63536428D01*
X221202857Y-63536428D02*
X221560000Y-63536428D01*
X221560000Y-63536428D02*
X221702857Y-63465000D01*
X221702857Y-63465000D02*
X221774285Y-63322142D01*
X221774285Y-63322142D02*
X221774285Y-63179285D01*
X221774285Y-63179285D02*
X221702857Y-63036428D01*
X221702857Y-63036428D02*
X221560000Y-62965000D01*
X221560000Y-62965000D02*
X221202857Y-62965000D01*
X221202857Y-62965000D02*
X221060000Y-62893571D01*
X221274285Y-61965000D02*
X221488571Y-62179285D01*
X220345714Y-63536428D02*
X220345714Y-62536428D01*
X220345714Y-62822142D02*
X220274285Y-62679285D01*
X220274285Y-62679285D02*
X220202857Y-62607857D01*
X220202857Y-62607857D02*
X220059999Y-62536428D01*
X220059999Y-62536428D02*
X219917142Y-62536428D01*
X219417143Y-63536428D02*
X219417143Y-62536428D01*
X219417143Y-62036428D02*
X219488571Y-62107857D01*
X219488571Y-62107857D02*
X219417143Y-62179285D01*
X219417143Y-62179285D02*
X219345714Y-62107857D01*
X219345714Y-62107857D02*
X219417143Y-62036428D01*
X219417143Y-62036428D02*
X219417143Y-62179285D01*
X218488571Y-63536428D02*
X218631428Y-63465000D01*
X218631428Y-63465000D02*
X218702857Y-63393571D01*
X218702857Y-63393571D02*
X218774285Y-63250714D01*
X218774285Y-63250714D02*
X218774285Y-62822142D01*
X218774285Y-62822142D02*
X218702857Y-62679285D01*
X218702857Y-62679285D02*
X218631428Y-62607857D01*
X218631428Y-62607857D02*
X218488571Y-62536428D01*
X218488571Y-62536428D02*
X218274285Y-62536428D01*
X218274285Y-62536428D02*
X218131428Y-62607857D01*
X218131428Y-62607857D02*
X218060000Y-62679285D01*
X218060000Y-62679285D02*
X217988571Y-62822142D01*
X217988571Y-62822142D02*
X217988571Y-63250714D01*
X217988571Y-63250714D02*
X218060000Y-63393571D01*
X218060000Y-63393571D02*
X218131428Y-63465000D01*
X218131428Y-63465000D02*
X218274285Y-63536428D01*
X218274285Y-63536428D02*
X218488571Y-63536428D01*
X216202857Y-63536428D02*
X216202857Y-62036428D01*
X215488571Y-62536428D02*
X215488571Y-63536428D01*
X215488571Y-62679285D02*
X215417142Y-62607857D01*
X215417142Y-62607857D02*
X215274285Y-62536428D01*
X215274285Y-62536428D02*
X215059999Y-62536428D01*
X215059999Y-62536428D02*
X214917142Y-62607857D01*
X214917142Y-62607857D02*
X214845714Y-62750714D01*
X214845714Y-62750714D02*
X214845714Y-63536428D01*
X214345713Y-62536428D02*
X213774285Y-62536428D01*
X214131428Y-62036428D02*
X214131428Y-63322142D01*
X214131428Y-63322142D02*
X214059999Y-63465000D01*
X214059999Y-63465000D02*
X213917142Y-63536428D01*
X213917142Y-63536428D02*
X213774285Y-63536428D01*
X212702856Y-63465000D02*
X212845713Y-63536428D01*
X212845713Y-63536428D02*
X213131428Y-63536428D01*
X213131428Y-63536428D02*
X213274285Y-63465000D01*
X213274285Y-63465000D02*
X213345713Y-63322142D01*
X213345713Y-63322142D02*
X213345713Y-62750714D01*
X213345713Y-62750714D02*
X213274285Y-62607857D01*
X213274285Y-62607857D02*
X213131428Y-62536428D01*
X213131428Y-62536428D02*
X212845713Y-62536428D01*
X212845713Y-62536428D02*
X212702856Y-62607857D01*
X212702856Y-62607857D02*
X212631428Y-62750714D01*
X212631428Y-62750714D02*
X212631428Y-62893571D01*
X212631428Y-62893571D02*
X213345713Y-63036428D01*
X211774285Y-63536428D02*
X211917142Y-63465000D01*
X211917142Y-63465000D02*
X211988571Y-63322142D01*
X211988571Y-63322142D02*
X211988571Y-62036428D01*
X211202857Y-63536428D02*
X211202857Y-62536428D01*
X211202857Y-62036428D02*
X211274285Y-62107857D01*
X211274285Y-62107857D02*
X211202857Y-62179285D01*
X211202857Y-62179285D02*
X211131428Y-62107857D01*
X211131428Y-62107857D02*
X211202857Y-62036428D01*
X211202857Y-62036428D02*
X211202857Y-62179285D01*
X209845714Y-62536428D02*
X209845714Y-63750714D01*
X209845714Y-63750714D02*
X209917142Y-63893571D01*
X209917142Y-63893571D02*
X209988571Y-63965000D01*
X209988571Y-63965000D02*
X210131428Y-64036428D01*
X210131428Y-64036428D02*
X210345714Y-64036428D01*
X210345714Y-64036428D02*
X210488571Y-63965000D01*
X209845714Y-63465000D02*
X209988571Y-63536428D01*
X209988571Y-63536428D02*
X210274285Y-63536428D01*
X210274285Y-63536428D02*
X210417142Y-63465000D01*
X210417142Y-63465000D02*
X210488571Y-63393571D01*
X210488571Y-63393571D02*
X210559999Y-63250714D01*
X210559999Y-63250714D02*
X210559999Y-62822142D01*
X210559999Y-62822142D02*
X210488571Y-62679285D01*
X210488571Y-62679285D02*
X210417142Y-62607857D01*
X210417142Y-62607857D02*
X210274285Y-62536428D01*
X210274285Y-62536428D02*
X209988571Y-62536428D01*
X209988571Y-62536428D02*
X209845714Y-62607857D01*
X208559999Y-63465000D02*
X208702856Y-63536428D01*
X208702856Y-63536428D02*
X208988571Y-63536428D01*
X208988571Y-63536428D02*
X209131428Y-63465000D01*
X209131428Y-63465000D02*
X209202856Y-63322142D01*
X209202856Y-63322142D02*
X209202856Y-62750714D01*
X209202856Y-62750714D02*
X209131428Y-62607857D01*
X209131428Y-62607857D02*
X208988571Y-62536428D01*
X208988571Y-62536428D02*
X208702856Y-62536428D01*
X208702856Y-62536428D02*
X208559999Y-62607857D01*
X208559999Y-62607857D02*
X208488571Y-62750714D01*
X208488571Y-62750714D02*
X208488571Y-62893571D01*
X208488571Y-62893571D02*
X209202856Y-63036428D01*
X207845714Y-62536428D02*
X207845714Y-63536428D01*
X207845714Y-62679285D02*
X207774285Y-62607857D01*
X207774285Y-62607857D02*
X207631428Y-62536428D01*
X207631428Y-62536428D02*
X207417142Y-62536428D01*
X207417142Y-62536428D02*
X207274285Y-62607857D01*
X207274285Y-62607857D02*
X207202857Y-62750714D01*
X207202857Y-62750714D02*
X207202857Y-63536428D01*
X206702856Y-62536428D02*
X206131428Y-62536428D01*
X206488571Y-62036428D02*
X206488571Y-63322142D01*
X206488571Y-63322142D02*
X206417142Y-63465000D01*
X206417142Y-63465000D02*
X206274285Y-63536428D01*
X206274285Y-63536428D02*
X206131428Y-63536428D01*
X205059999Y-63465000D02*
X205202856Y-63536428D01*
X205202856Y-63536428D02*
X205488571Y-63536428D01*
X205488571Y-63536428D02*
X205631428Y-63465000D01*
X205631428Y-63465000D02*
X205702856Y-63322142D01*
X205702856Y-63322142D02*
X205702856Y-62750714D01*
X205702856Y-62750714D02*
X205631428Y-62607857D01*
X205631428Y-62607857D02*
X205488571Y-62536428D01*
X205488571Y-62536428D02*
X205202856Y-62536428D01*
X205202856Y-62536428D02*
X205059999Y-62607857D01*
X205059999Y-62607857D02*
X204988571Y-62750714D01*
X204988571Y-62750714D02*
X204988571Y-62893571D01*
X204988571Y-62893571D02*
X205702856Y-63036428D01*
X204345714Y-63393571D02*
X204274285Y-63465000D01*
X204274285Y-63465000D02*
X204345714Y-63536428D01*
X204345714Y-63536428D02*
X204417142Y-63465000D01*
X204417142Y-63465000D02*
X204345714Y-63393571D01*
X204345714Y-63393571D02*
X204345714Y-63536428D01*
X204345714Y-62607857D02*
X204274285Y-62679285D01*
X204274285Y-62679285D02*
X204345714Y-62750714D01*
X204345714Y-62750714D02*
X204417142Y-62679285D01*
X204417142Y-62679285D02*
X204345714Y-62607857D01*
X204345714Y-62607857D02*
X204345714Y-62750714D01*
X225702857Y-65966428D02*
X225702857Y-64466428D01*
X225702857Y-64466428D02*
X225202857Y-65537857D01*
X225202857Y-65537857D02*
X224702857Y-64466428D01*
X224702857Y-64466428D02*
X224702857Y-65966428D01*
X223345714Y-65966428D02*
X223345714Y-65180714D01*
X223345714Y-65180714D02*
X223417142Y-65037857D01*
X223417142Y-65037857D02*
X223559999Y-64966428D01*
X223559999Y-64966428D02*
X223845714Y-64966428D01*
X223845714Y-64966428D02*
X223988571Y-65037857D01*
X223345714Y-65895000D02*
X223488571Y-65966428D01*
X223488571Y-65966428D02*
X223845714Y-65966428D01*
X223845714Y-65966428D02*
X223988571Y-65895000D01*
X223988571Y-65895000D02*
X224059999Y-65752142D01*
X224059999Y-65752142D02*
X224059999Y-65609285D01*
X224059999Y-65609285D02*
X223988571Y-65466428D01*
X223988571Y-65466428D02*
X223845714Y-65395000D01*
X223845714Y-65395000D02*
X223488571Y-65395000D01*
X223488571Y-65395000D02*
X223345714Y-65323571D01*
X222845713Y-64966428D02*
X222274285Y-64966428D01*
X222631428Y-64466428D02*
X222631428Y-65752142D01*
X222631428Y-65752142D02*
X222559999Y-65895000D01*
X222559999Y-65895000D02*
X222417142Y-65966428D01*
X222417142Y-65966428D02*
X222274285Y-65966428D01*
X221202856Y-65895000D02*
X221345713Y-65966428D01*
X221345713Y-65966428D02*
X221631428Y-65966428D01*
X221631428Y-65966428D02*
X221774285Y-65895000D01*
X221774285Y-65895000D02*
X221845713Y-65752142D01*
X221845713Y-65752142D02*
X221845713Y-65180714D01*
X221845713Y-65180714D02*
X221774285Y-65037857D01*
X221774285Y-65037857D02*
X221631428Y-64966428D01*
X221631428Y-64966428D02*
X221345713Y-64966428D01*
X221345713Y-64966428D02*
X221202856Y-65037857D01*
X221202856Y-65037857D02*
X221131428Y-65180714D01*
X221131428Y-65180714D02*
X221131428Y-65323571D01*
X221131428Y-65323571D02*
X221845713Y-65466428D01*
X219845714Y-64966428D02*
X219845714Y-65966428D01*
X220488571Y-64966428D02*
X220488571Y-65752142D01*
X220488571Y-65752142D02*
X220417142Y-65895000D01*
X220417142Y-65895000D02*
X220274285Y-65966428D01*
X220274285Y-65966428D02*
X220059999Y-65966428D01*
X220059999Y-65966428D02*
X219917142Y-65895000D01*
X219917142Y-65895000D02*
X219845714Y-65823571D01*
X219202856Y-65895000D02*
X219059999Y-65966428D01*
X219059999Y-65966428D02*
X218774285Y-65966428D01*
X218774285Y-65966428D02*
X218631428Y-65895000D01*
X218631428Y-65895000D02*
X218559999Y-65752142D01*
X218559999Y-65752142D02*
X218559999Y-65680714D01*
X218559999Y-65680714D02*
X218631428Y-65537857D01*
X218631428Y-65537857D02*
X218774285Y-65466428D01*
X218774285Y-65466428D02*
X218988571Y-65466428D01*
X218988571Y-65466428D02*
X219131428Y-65395000D01*
X219131428Y-65395000D02*
X219202856Y-65252142D01*
X219202856Y-65252142D02*
X219202856Y-65180714D01*
X219202856Y-65180714D02*
X219131428Y-65037857D01*
X219131428Y-65037857D02*
X218988571Y-64966428D01*
X218988571Y-64966428D02*
X218774285Y-64966428D01*
X218774285Y-64966428D02*
X218631428Y-65037857D01*
X216845713Y-65537857D02*
X216131428Y-65537857D01*
X216988570Y-65966428D02*
X216488570Y-64466428D01*
X216488570Y-64466428D02*
X215988570Y-65966428D01*
X215274285Y-65966428D02*
X215417142Y-65895000D01*
X215417142Y-65895000D02*
X215488571Y-65752142D01*
X215488571Y-65752142D02*
X215488571Y-64466428D01*
X214702857Y-65966428D02*
X214702857Y-64966428D01*
X214702857Y-65109285D02*
X214631428Y-65037857D01*
X214631428Y-65037857D02*
X214488571Y-64966428D01*
X214488571Y-64966428D02*
X214274285Y-64966428D01*
X214274285Y-64966428D02*
X214131428Y-65037857D01*
X214131428Y-65037857D02*
X214060000Y-65180714D01*
X214060000Y-65180714D02*
X214060000Y-65966428D01*
X214060000Y-65180714D02*
X213988571Y-65037857D01*
X213988571Y-65037857D02*
X213845714Y-64966428D01*
X213845714Y-64966428D02*
X213631428Y-64966428D01*
X213631428Y-64966428D02*
X213488571Y-65037857D01*
X213488571Y-65037857D02*
X213417142Y-65180714D01*
X213417142Y-65180714D02*
X213417142Y-65966428D01*
X212131428Y-65895000D02*
X212274285Y-65966428D01*
X212274285Y-65966428D02*
X212560000Y-65966428D01*
X212560000Y-65966428D02*
X212702857Y-65895000D01*
X212702857Y-65895000D02*
X212774285Y-65752142D01*
X212774285Y-65752142D02*
X212774285Y-65180714D01*
X212774285Y-65180714D02*
X212702857Y-65037857D01*
X212702857Y-65037857D02*
X212560000Y-64966428D01*
X212560000Y-64966428D02*
X212274285Y-64966428D01*
X212274285Y-64966428D02*
X212131428Y-65037857D01*
X212131428Y-65037857D02*
X212060000Y-65180714D01*
X212060000Y-65180714D02*
X212060000Y-65323571D01*
X212060000Y-65323571D02*
X212774285Y-65466428D01*
X211417143Y-65966428D02*
X211417143Y-64966428D01*
X211417143Y-64466428D02*
X211488571Y-64537857D01*
X211488571Y-64537857D02*
X211417143Y-64609285D01*
X211417143Y-64609285D02*
X211345714Y-64537857D01*
X211345714Y-64537857D02*
X211417143Y-64466428D01*
X211417143Y-64466428D02*
X211417143Y-64609285D01*
X210060000Y-65966428D02*
X210060000Y-64466428D01*
X210060000Y-65895000D02*
X210202857Y-65966428D01*
X210202857Y-65966428D02*
X210488571Y-65966428D01*
X210488571Y-65966428D02*
X210631428Y-65895000D01*
X210631428Y-65895000D02*
X210702857Y-65823571D01*
X210702857Y-65823571D02*
X210774285Y-65680714D01*
X210774285Y-65680714D02*
X210774285Y-65252142D01*
X210774285Y-65252142D02*
X210702857Y-65109285D01*
X210702857Y-65109285D02*
X210631428Y-65037857D01*
X210631428Y-65037857D02*
X210488571Y-64966428D01*
X210488571Y-64966428D02*
X210202857Y-64966428D01*
X210202857Y-64966428D02*
X210060000Y-65037857D01*
X208702857Y-65966428D02*
X208702857Y-65180714D01*
X208702857Y-65180714D02*
X208774285Y-65037857D01*
X208774285Y-65037857D02*
X208917142Y-64966428D01*
X208917142Y-64966428D02*
X209202857Y-64966428D01*
X209202857Y-64966428D02*
X209345714Y-65037857D01*
X208702857Y-65895000D02*
X208845714Y-65966428D01*
X208845714Y-65966428D02*
X209202857Y-65966428D01*
X209202857Y-65966428D02*
X209345714Y-65895000D01*
X209345714Y-65895000D02*
X209417142Y-65752142D01*
X209417142Y-65752142D02*
X209417142Y-65609285D01*
X209417142Y-65609285D02*
X209345714Y-65466428D01*
X209345714Y-65466428D02*
X209202857Y-65395000D01*
X209202857Y-65395000D02*
X208845714Y-65395000D01*
X208845714Y-65395000D02*
X208702857Y-65323571D01*
X205988571Y-65966428D02*
X206488571Y-65252142D01*
X206845714Y-65966428D02*
X206845714Y-64466428D01*
X206845714Y-64466428D02*
X206274285Y-64466428D01*
X206274285Y-64466428D02*
X206131428Y-64537857D01*
X206131428Y-64537857D02*
X206059999Y-64609285D01*
X206059999Y-64609285D02*
X205988571Y-64752142D01*
X205988571Y-64752142D02*
X205988571Y-64966428D01*
X205988571Y-64966428D02*
X206059999Y-65109285D01*
X206059999Y-65109285D02*
X206131428Y-65180714D01*
X206131428Y-65180714D02*
X206274285Y-65252142D01*
X206274285Y-65252142D02*
X206845714Y-65252142D01*
X204774285Y-65895000D02*
X204917142Y-65966428D01*
X204917142Y-65966428D02*
X205202857Y-65966428D01*
X205202857Y-65966428D02*
X205345714Y-65895000D01*
X205345714Y-65895000D02*
X205417142Y-65752142D01*
X205417142Y-65752142D02*
X205417142Y-65180714D01*
X205417142Y-65180714D02*
X205345714Y-65037857D01*
X205345714Y-65037857D02*
X205202857Y-64966428D01*
X205202857Y-64966428D02*
X204917142Y-64966428D01*
X204917142Y-64966428D02*
X204774285Y-65037857D01*
X204774285Y-65037857D02*
X204702857Y-65180714D01*
X204702857Y-65180714D02*
X204702857Y-65323571D01*
X204702857Y-65323571D02*
X205417142Y-65466428D01*
X204131428Y-65895000D02*
X203988571Y-65966428D01*
X203988571Y-65966428D02*
X203702857Y-65966428D01*
X203702857Y-65966428D02*
X203560000Y-65895000D01*
X203560000Y-65895000D02*
X203488571Y-65752142D01*
X203488571Y-65752142D02*
X203488571Y-65680714D01*
X203488571Y-65680714D02*
X203560000Y-65537857D01*
X203560000Y-65537857D02*
X203702857Y-65466428D01*
X203702857Y-65466428D02*
X203917143Y-65466428D01*
X203917143Y-65466428D02*
X204060000Y-65395000D01*
X204060000Y-65395000D02*
X204131428Y-65252142D01*
X204131428Y-65252142D02*
X204131428Y-65180714D01*
X204131428Y-65180714D02*
X204060000Y-65037857D01*
X204060000Y-65037857D02*
X203917143Y-64966428D01*
X203917143Y-64966428D02*
X203702857Y-64966428D01*
X203702857Y-64966428D02*
X203560000Y-65037857D01*
X202274285Y-65895000D02*
X202417142Y-65966428D01*
X202417142Y-65966428D02*
X202702857Y-65966428D01*
X202702857Y-65966428D02*
X202845714Y-65895000D01*
X202845714Y-65895000D02*
X202917142Y-65752142D01*
X202917142Y-65752142D02*
X202917142Y-65180714D01*
X202917142Y-65180714D02*
X202845714Y-65037857D01*
X202845714Y-65037857D02*
X202702857Y-64966428D01*
X202702857Y-64966428D02*
X202417142Y-64966428D01*
X202417142Y-64966428D02*
X202274285Y-65037857D01*
X202274285Y-65037857D02*
X202202857Y-65180714D01*
X202202857Y-65180714D02*
X202202857Y-65323571D01*
X202202857Y-65323571D02*
X202917142Y-65466428D01*
X201560000Y-64966428D02*
X201560000Y-65966428D01*
X201560000Y-65109285D02*
X201488571Y-65037857D01*
X201488571Y-65037857D02*
X201345714Y-64966428D01*
X201345714Y-64966428D02*
X201131428Y-64966428D01*
X201131428Y-64966428D02*
X200988571Y-65037857D01*
X200988571Y-65037857D02*
X200917143Y-65180714D01*
X200917143Y-65180714D02*
X200917143Y-65966428D01*
X199560000Y-65966428D02*
X199560000Y-64466428D01*
X199560000Y-65895000D02*
X199702857Y-65966428D01*
X199702857Y-65966428D02*
X199988571Y-65966428D01*
X199988571Y-65966428D02*
X200131428Y-65895000D01*
X200131428Y-65895000D02*
X200202857Y-65823571D01*
X200202857Y-65823571D02*
X200274285Y-65680714D01*
X200274285Y-65680714D02*
X200274285Y-65252142D01*
X200274285Y-65252142D02*
X200202857Y-65109285D01*
X200202857Y-65109285D02*
X200131428Y-65037857D01*
X200131428Y-65037857D02*
X199988571Y-64966428D01*
X199988571Y-64966428D02*
X199702857Y-64966428D01*
X199702857Y-64966428D02*
X199560000Y-65037857D01*
X198274285Y-65895000D02*
X198417142Y-65966428D01*
X198417142Y-65966428D02*
X198702857Y-65966428D01*
X198702857Y-65966428D02*
X198845714Y-65895000D01*
X198845714Y-65895000D02*
X198917142Y-65752142D01*
X198917142Y-65752142D02*
X198917142Y-65180714D01*
X198917142Y-65180714D02*
X198845714Y-65037857D01*
X198845714Y-65037857D02*
X198702857Y-64966428D01*
X198702857Y-64966428D02*
X198417142Y-64966428D01*
X198417142Y-64966428D02*
X198274285Y-65037857D01*
X198274285Y-65037857D02*
X198202857Y-65180714D01*
X198202857Y-65180714D02*
X198202857Y-65323571D01*
X198202857Y-65323571D02*
X198917142Y-65466428D01*
X195774286Y-65966428D02*
X195774286Y-64466428D01*
X195774286Y-65895000D02*
X195917143Y-65966428D01*
X195917143Y-65966428D02*
X196202857Y-65966428D01*
X196202857Y-65966428D02*
X196345714Y-65895000D01*
X196345714Y-65895000D02*
X196417143Y-65823571D01*
X196417143Y-65823571D02*
X196488571Y-65680714D01*
X196488571Y-65680714D02*
X196488571Y-65252142D01*
X196488571Y-65252142D02*
X196417143Y-65109285D01*
X196417143Y-65109285D02*
X196345714Y-65037857D01*
X196345714Y-65037857D02*
X196202857Y-64966428D01*
X196202857Y-64966428D02*
X195917143Y-64966428D01*
X195917143Y-64966428D02*
X195774286Y-65037857D01*
X194488571Y-65895000D02*
X194631428Y-65966428D01*
X194631428Y-65966428D02*
X194917143Y-65966428D01*
X194917143Y-65966428D02*
X195060000Y-65895000D01*
X195060000Y-65895000D02*
X195131428Y-65752142D01*
X195131428Y-65752142D02*
X195131428Y-65180714D01*
X195131428Y-65180714D02*
X195060000Y-65037857D01*
X195060000Y-65037857D02*
X194917143Y-64966428D01*
X194917143Y-64966428D02*
X194631428Y-64966428D01*
X194631428Y-64966428D02*
X194488571Y-65037857D01*
X194488571Y-65037857D02*
X194417143Y-65180714D01*
X194417143Y-65180714D02*
X194417143Y-65323571D01*
X194417143Y-65323571D02*
X195131428Y-65466428D01*
X192631429Y-65966428D02*
X192631429Y-64466428D01*
X192631429Y-64466428D02*
X192131429Y-65537857D01*
X192131429Y-65537857D02*
X191631429Y-64466428D01*
X191631429Y-64466428D02*
X191631429Y-65966428D01*
X190917143Y-65966428D02*
X190917143Y-64966428D01*
X190917143Y-64466428D02*
X190988571Y-64537857D01*
X190988571Y-64537857D02*
X190917143Y-64609285D01*
X190917143Y-64609285D02*
X190845714Y-64537857D01*
X190845714Y-64537857D02*
X190917143Y-64466428D01*
X190917143Y-64466428D02*
X190917143Y-64609285D01*
X190202857Y-65966428D02*
X190202857Y-64966428D01*
X190202857Y-65252142D02*
X190131428Y-65109285D01*
X190131428Y-65109285D02*
X190060000Y-65037857D01*
X190060000Y-65037857D02*
X189917142Y-64966428D01*
X189917142Y-64966428D02*
X189774285Y-64966428D01*
X188631429Y-65966428D02*
X188631429Y-65180714D01*
X188631429Y-65180714D02*
X188702857Y-65037857D01*
X188702857Y-65037857D02*
X188845714Y-64966428D01*
X188845714Y-64966428D02*
X189131429Y-64966428D01*
X189131429Y-64966428D02*
X189274286Y-65037857D01*
X188631429Y-65895000D02*
X188774286Y-65966428D01*
X188774286Y-65966428D02*
X189131429Y-65966428D01*
X189131429Y-65966428D02*
X189274286Y-65895000D01*
X189274286Y-65895000D02*
X189345714Y-65752142D01*
X189345714Y-65752142D02*
X189345714Y-65609285D01*
X189345714Y-65609285D02*
X189274286Y-65466428D01*
X189274286Y-65466428D02*
X189131429Y-65395000D01*
X189131429Y-65395000D02*
X188774286Y-65395000D01*
X188774286Y-65395000D02*
X188631429Y-65323571D01*
X187917143Y-64966428D02*
X187917143Y-65966428D01*
X187917143Y-65109285D02*
X187845714Y-65037857D01*
X187845714Y-65037857D02*
X187702857Y-64966428D01*
X187702857Y-64966428D02*
X187488571Y-64966428D01*
X187488571Y-64966428D02*
X187345714Y-65037857D01*
X187345714Y-65037857D02*
X187274286Y-65180714D01*
X187274286Y-65180714D02*
X187274286Y-65966428D01*
X185917143Y-65966428D02*
X185917143Y-64466428D01*
X185917143Y-65895000D02*
X186060000Y-65966428D01*
X186060000Y-65966428D02*
X186345714Y-65966428D01*
X186345714Y-65966428D02*
X186488571Y-65895000D01*
X186488571Y-65895000D02*
X186560000Y-65823571D01*
X186560000Y-65823571D02*
X186631428Y-65680714D01*
X186631428Y-65680714D02*
X186631428Y-65252142D01*
X186631428Y-65252142D02*
X186560000Y-65109285D01*
X186560000Y-65109285D02*
X186488571Y-65037857D01*
X186488571Y-65037857D02*
X186345714Y-64966428D01*
X186345714Y-64966428D02*
X186060000Y-64966428D01*
X186060000Y-64966428D02*
X185917143Y-65037857D01*
X184560000Y-65966428D02*
X184560000Y-65180714D01*
X184560000Y-65180714D02*
X184631428Y-65037857D01*
X184631428Y-65037857D02*
X184774285Y-64966428D01*
X184774285Y-64966428D02*
X185060000Y-64966428D01*
X185060000Y-64966428D02*
X185202857Y-65037857D01*
X184560000Y-65895000D02*
X184702857Y-65966428D01*
X184702857Y-65966428D02*
X185060000Y-65966428D01*
X185060000Y-65966428D02*
X185202857Y-65895000D01*
X185202857Y-65895000D02*
X185274285Y-65752142D01*
X185274285Y-65752142D02*
X185274285Y-65609285D01*
X185274285Y-65609285D02*
X185202857Y-65466428D01*
X185202857Y-65466428D02*
X185060000Y-65395000D01*
X185060000Y-65395000D02*
X184702857Y-65395000D01*
X184702857Y-65395000D02*
X184560000Y-65323571D01*
X183774285Y-65895000D02*
X183774285Y-65966428D01*
X183774285Y-65966428D02*
X183845714Y-66109285D01*
X183845714Y-66109285D02*
X183917142Y-66180714D01*
X183845714Y-65037857D02*
X183774285Y-65109285D01*
X183774285Y-65109285D02*
X183845714Y-65180714D01*
X183845714Y-65180714D02*
X183917142Y-65109285D01*
X183917142Y-65109285D02*
X183845714Y-65037857D01*
X183845714Y-65037857D02*
X183845714Y-65180714D01*
X225417142Y-66896428D02*
X225131428Y-66896428D01*
X225131428Y-66896428D02*
X224988571Y-66967857D01*
X224988571Y-66967857D02*
X224845714Y-67110714D01*
X224845714Y-67110714D02*
X224774285Y-67396428D01*
X224774285Y-67396428D02*
X224774285Y-67896428D01*
X224774285Y-67896428D02*
X224845714Y-68182142D01*
X224845714Y-68182142D02*
X224988571Y-68325000D01*
X224988571Y-68325000D02*
X225131428Y-68396428D01*
X225131428Y-68396428D02*
X225417142Y-68396428D01*
X225417142Y-68396428D02*
X225560000Y-68325000D01*
X225560000Y-68325000D02*
X225702857Y-68182142D01*
X225702857Y-68182142D02*
X225774285Y-67896428D01*
X225774285Y-67896428D02*
X225774285Y-67396428D01*
X225774285Y-67396428D02*
X225702857Y-67110714D01*
X225702857Y-67110714D02*
X225560000Y-66967857D01*
X225560000Y-66967857D02*
X225417142Y-66896428D01*
X224345713Y-67396428D02*
X223774285Y-67396428D01*
X224131428Y-66896428D02*
X224131428Y-68182142D01*
X224131428Y-68182142D02*
X224059999Y-68325000D01*
X224059999Y-68325000D02*
X223917142Y-68396428D01*
X223917142Y-68396428D02*
X223774285Y-68396428D01*
X222631428Y-68396428D02*
X222631428Y-67610714D01*
X222631428Y-67610714D02*
X222702856Y-67467857D01*
X222702856Y-67467857D02*
X222845713Y-67396428D01*
X222845713Y-67396428D02*
X223131428Y-67396428D01*
X223131428Y-67396428D02*
X223274285Y-67467857D01*
X222631428Y-68325000D02*
X222774285Y-68396428D01*
X222774285Y-68396428D02*
X223131428Y-68396428D01*
X223131428Y-68396428D02*
X223274285Y-68325000D01*
X223274285Y-68325000D02*
X223345713Y-68182142D01*
X223345713Y-68182142D02*
X223345713Y-68039285D01*
X223345713Y-68039285D02*
X223274285Y-67896428D01*
X223274285Y-67896428D02*
X223131428Y-67825000D01*
X223131428Y-67825000D02*
X222774285Y-67825000D01*
X222774285Y-67825000D02*
X222631428Y-67753571D01*
X222845713Y-66825000D02*
X223059999Y-67039285D01*
X222059999Y-67396428D02*
X221702856Y-68396428D01*
X221702856Y-68396428D02*
X221345713Y-67396428D01*
X220774285Y-68396428D02*
X220774285Y-67396428D01*
X220774285Y-66896428D02*
X220845713Y-66967857D01*
X220845713Y-66967857D02*
X220774285Y-67039285D01*
X220774285Y-67039285D02*
X220702856Y-66967857D01*
X220702856Y-66967857D02*
X220774285Y-66896428D01*
X220774285Y-66896428D02*
X220774285Y-67039285D01*
X219845713Y-68396428D02*
X219988570Y-68325000D01*
X219988570Y-68325000D02*
X220059999Y-68253571D01*
X220059999Y-68253571D02*
X220131427Y-68110714D01*
X220131427Y-68110714D02*
X220131427Y-67682142D01*
X220131427Y-67682142D02*
X220059999Y-67539285D01*
X220059999Y-67539285D02*
X219988570Y-67467857D01*
X219988570Y-67467857D02*
X219845713Y-67396428D01*
X219845713Y-67396428D02*
X219631427Y-67396428D01*
X219631427Y-67396428D02*
X219488570Y-67467857D01*
X219488570Y-67467857D02*
X219417142Y-67539285D01*
X219417142Y-67539285D02*
X219345713Y-67682142D01*
X219345713Y-67682142D02*
X219345713Y-68110714D01*
X219345713Y-68110714D02*
X219417142Y-68253571D01*
X219417142Y-68253571D02*
X219488570Y-68325000D01*
X219488570Y-68325000D02*
X219631427Y-68396428D01*
X219631427Y-68396428D02*
X219845713Y-68396428D01*
X217059999Y-67610714D02*
X216845713Y-67682142D01*
X216845713Y-67682142D02*
X216774284Y-67753571D01*
X216774284Y-67753571D02*
X216702856Y-67896428D01*
X216702856Y-67896428D02*
X216702856Y-68110714D01*
X216702856Y-68110714D02*
X216774284Y-68253571D01*
X216774284Y-68253571D02*
X216845713Y-68325000D01*
X216845713Y-68325000D02*
X216988570Y-68396428D01*
X216988570Y-68396428D02*
X217559999Y-68396428D01*
X217559999Y-68396428D02*
X217559999Y-66896428D01*
X217559999Y-66896428D02*
X217059999Y-66896428D01*
X217059999Y-66896428D02*
X216917142Y-66967857D01*
X216917142Y-66967857D02*
X216845713Y-67039285D01*
X216845713Y-67039285D02*
X216774284Y-67182142D01*
X216774284Y-67182142D02*
X216774284Y-67325000D01*
X216774284Y-67325000D02*
X216845713Y-67467857D01*
X216845713Y-67467857D02*
X216917142Y-67539285D01*
X216917142Y-67539285D02*
X217059999Y-67610714D01*
X217059999Y-67610714D02*
X217559999Y-67610714D01*
X216059999Y-68396428D02*
X216059999Y-67396428D01*
X216059999Y-67682142D02*
X215988570Y-67539285D01*
X215988570Y-67539285D02*
X215917142Y-67467857D01*
X215917142Y-67467857D02*
X215774284Y-67396428D01*
X215774284Y-67396428D02*
X215631427Y-67396428D01*
X215131428Y-68396428D02*
X215131428Y-67396428D01*
X215131428Y-66896428D02*
X215202856Y-66967857D01*
X215202856Y-66967857D02*
X215131428Y-67039285D01*
X215131428Y-67039285D02*
X215059999Y-66967857D01*
X215059999Y-66967857D02*
X215131428Y-66896428D01*
X215131428Y-66896428D02*
X215131428Y-67039285D01*
X214488570Y-68325000D02*
X214345713Y-68396428D01*
X214345713Y-68396428D02*
X214059999Y-68396428D01*
X214059999Y-68396428D02*
X213917142Y-68325000D01*
X213917142Y-68325000D02*
X213845713Y-68182142D01*
X213845713Y-68182142D02*
X213845713Y-68110714D01*
X213845713Y-68110714D02*
X213917142Y-67967857D01*
X213917142Y-67967857D02*
X214059999Y-67896428D01*
X214059999Y-67896428D02*
X214274285Y-67896428D01*
X214274285Y-67896428D02*
X214417142Y-67825000D01*
X214417142Y-67825000D02*
X214488570Y-67682142D01*
X214488570Y-67682142D02*
X214488570Y-67610714D01*
X214488570Y-67610714D02*
X214417142Y-67467857D01*
X214417142Y-67467857D02*
X214274285Y-67396428D01*
X214274285Y-67396428D02*
X214059999Y-67396428D01*
X214059999Y-67396428D02*
X213917142Y-67467857D01*
X213202856Y-68396428D02*
X213202856Y-66896428D01*
X213059999Y-67825000D02*
X212631427Y-68396428D01*
X212631427Y-67396428D02*
X213202856Y-67967857D01*
X211417141Y-68325000D02*
X211559998Y-68396428D01*
X211559998Y-68396428D02*
X211845713Y-68396428D01*
X211845713Y-68396428D02*
X211988570Y-68325000D01*
X211988570Y-68325000D02*
X212059998Y-68182142D01*
X212059998Y-68182142D02*
X212059998Y-67610714D01*
X212059998Y-67610714D02*
X211988570Y-67467857D01*
X211988570Y-67467857D02*
X211845713Y-67396428D01*
X211845713Y-67396428D02*
X211559998Y-67396428D01*
X211559998Y-67396428D02*
X211417141Y-67467857D01*
X211417141Y-67467857D02*
X211345713Y-67610714D01*
X211345713Y-67610714D02*
X211345713Y-67753571D01*
X211345713Y-67753571D02*
X212059998Y-67896428D01*
X208845713Y-68396428D02*
X209559999Y-68396428D01*
X209559999Y-68396428D02*
X209559999Y-66896428D01*
X208345713Y-68396428D02*
X208345713Y-67396428D01*
X208345713Y-66896428D02*
X208417141Y-66967857D01*
X208417141Y-66967857D02*
X208345713Y-67039285D01*
X208345713Y-67039285D02*
X208274284Y-66967857D01*
X208274284Y-66967857D02*
X208345713Y-66896428D01*
X208345713Y-66896428D02*
X208345713Y-67039285D01*
X207631427Y-68396428D02*
X207631427Y-67396428D01*
X207631427Y-67539285D02*
X207559998Y-67467857D01*
X207559998Y-67467857D02*
X207417141Y-67396428D01*
X207417141Y-67396428D02*
X207202855Y-67396428D01*
X207202855Y-67396428D02*
X207059998Y-67467857D01*
X207059998Y-67467857D02*
X206988570Y-67610714D01*
X206988570Y-67610714D02*
X206988570Y-68396428D01*
X206988570Y-67610714D02*
X206917141Y-67467857D01*
X206917141Y-67467857D02*
X206774284Y-67396428D01*
X206774284Y-67396428D02*
X206559998Y-67396428D01*
X206559998Y-67396428D02*
X206417141Y-67467857D01*
X206417141Y-67467857D02*
X206345712Y-67610714D01*
X206345712Y-67610714D02*
X206345712Y-68396428D01*
X204988570Y-68396428D02*
X204988570Y-67610714D01*
X204988570Y-67610714D02*
X205059998Y-67467857D01*
X205059998Y-67467857D02*
X205202855Y-67396428D01*
X205202855Y-67396428D02*
X205488570Y-67396428D01*
X205488570Y-67396428D02*
X205631427Y-67467857D01*
X204988570Y-68325000D02*
X205131427Y-68396428D01*
X205131427Y-68396428D02*
X205488570Y-68396428D01*
X205488570Y-68396428D02*
X205631427Y-68325000D01*
X205631427Y-68325000D02*
X205702855Y-68182142D01*
X205702855Y-68182142D02*
X205702855Y-68039285D01*
X205702855Y-68039285D02*
X205631427Y-67896428D01*
X205631427Y-67896428D02*
X205488570Y-67825000D01*
X205488570Y-67825000D02*
X205131427Y-67825000D01*
X205131427Y-67825000D02*
X204988570Y-67753571D01*
X204274284Y-68253571D02*
X204202855Y-68325000D01*
X204202855Y-68325000D02*
X204274284Y-68396428D01*
X204274284Y-68396428D02*
X204345712Y-68325000D01*
X204345712Y-68325000D02*
X204274284Y-68253571D01*
X204274284Y-68253571D02*
X204274284Y-68396428D01*
D12*
%TO.P,C2,1*%
%TO.N,Net-(D3-K)*%
X156210000Y-95250000D03*
%TO.P,C2,2*%
%TO.N,Net-(A1-GND)*%
X161210000Y-95250000D03*
%TD*%
D13*
%TO.P,J2,1,Pin_1*%
%TO.N,Net-(A1-SDA{slash}IO4)*%
X176530000Y-140970000D03*
%TD*%
D14*
%TO.P,D3,1,K*%
%TO.N,Net-(D3-K)*%
X128270000Y-107950000D03*
D15*
%TO.P,D3,2,A*%
%TO.N,Net-(D2-K)*%
X118110000Y-107950000D03*
%TD*%
D16*
%TO.P,U2,1*%
%TO.N,Net-(D5-K)*%
X157480000Y-125730000D03*
%TO.P,U2,2*%
%TO.N,Net-(A1-GND)*%
X157480000Y-124460000D03*
%TO.P,U2,3,NC*%
%TO.N,unconnected-(U2-NC-Pad3)*%
X157480000Y-123190000D03*
%TO.P,U2,4*%
%TO.N,Net-(Q1-G)*%
X156210000Y-123190000D03*
%TO.P,U2,5,NC*%
%TO.N,unconnected-(U2-NC-Pad5)*%
X156210000Y-124460000D03*
D17*
%TO.P,U2,6*%
%TO.N,Net-(R2-Pad2)*%
X156210000Y-125730000D03*
%TD*%
D18*
%TO.P,U1,1,VI*%
%TO.N,Net-(D3-K)*%
X146050000Y-80010000D03*
D19*
%TO.P,U1,2,GND*%
%TO.N,Net-(A1-GND)*%
X148590000Y-80010000D03*
%TO.P,U1,3,VO*%
%TO.N,Net-(A1-USB)*%
X151130000Y-80010000D03*
%TD*%
D12*
%TO.P,C4,1*%
%TO.N,Net-(J1-AC_P)*%
X110490000Y-138350000D03*
%TO.P,C4,2*%
%TO.N,Net-(C4-Pad2)*%
X110490000Y-133350000D03*
%TD*%
D20*
%TO.P,J1,1,AC_P*%
%TO.N,Net-(J1-AC_P)*%
X82550000Y-138190000D03*
%TO.P,J1,2,AC_N*%
%TO.N,Net-(J1-AC_N)*%
X82550000Y-108220000D03*
%TD*%
D12*
%TO.P,R1,1*%
%TO.N,Net-(D5-K)*%
X166370000Y-133350000D03*
D21*
%TO.P,R1,2*%
%TO.N,Net-(A1-IO2)*%
X166370000Y-143510000D03*
%TD*%
D12*
%TO.P,C1,1*%
%TO.N,Net-(A1-GND)*%
X161370000Y-87630000D03*
%TO.P,C1,2*%
%TO.N,Net-(A1-USB)*%
X166370000Y-87630000D03*
%TD*%
D20*
%TO.P,P1,1,AC_P*%
%TO.N,Net-(P1-AC_P)*%
X82550000Y-65010000D03*
%TO.P,P1,2,AC_N*%
%TO.N,Net-(J1-AC_N)*%
X82550000Y-94980000D03*
%TD*%
D22*
%TO.P,U3,1,GND*%
%TO.N,Net-(A1-GND)*%
X204470000Y-82550000D03*
D23*
%TO.P,U3,2,DQ*%
%TO.N,Net-(A1-IO16)*%
X205740000Y-82550000D03*
%TO.P,U3,3,V_{DD}*%
%TO.N,Net-(A1-3V3)*%
X207010000Y-82550000D03*
%TD*%
D12*
%TO.P,R4,1*%
%TO.N,Net-(P1-AC_P)*%
X110575000Y-117840000D03*
D21*
%TO.P,R4,2*%
%TO.N,Net-(C4-Pad2)*%
X110575000Y-128000000D03*
%TD*%
D13*
%TO.P,J3,1,Pin_1*%
%TO.N,Net-(A1-SCL{slash}IO5)*%
X181610000Y-140970000D03*
%TD*%
D12*
%TO.P,C3,1*%
%TO.N,Net-(D3-K)*%
X161370000Y-102870000D03*
%TO.P,C3,2*%
%TO.N,Net-(A1-GND)*%
X166370000Y-102870000D03*
%TD*%
D14*
%TO.P,D5,1,K*%
%TO.N,Net-(D5-K)*%
X166370000Y-128270000D03*
D15*
%TO.P,D5,2,A*%
%TO.N,Net-(A1-GND)*%
X166370000Y-118110000D03*
%TD*%
D12*
%TO.P,R6,1*%
%TO.N,Net-(A1-3V3)*%
X194310000Y-95250000D03*
D21*
%TO.P,R6,2*%
%TO.N,Net-(A1-IO0)*%
X184150000Y-95250000D03*
%TD*%
D22*
%TO.P,U4,1,GND*%
%TO.N,Net-(A1-GND)*%
X191770000Y-82550000D03*
D23*
%TO.P,U4,2,DQ*%
%TO.N,Net-(A1-IO0)*%
X193040000Y-82550000D03*
%TO.P,U4,3,V_{DD}*%
%TO.N,Net-(A1-3V3)*%
X194310000Y-82550000D03*
%TD*%
D12*
%TO.P,R3,1*%
%TO.N,Net-(Q1-G)*%
X130810000Y-138430000D03*
D21*
%TO.P,R3,2*%
%TO.N,Net-(J1-AC_P)*%
X120650000Y-138430000D03*
%TD*%
D12*
%TO.P,R5,1*%
%TO.N,Net-(A1-3V3)*%
X201930000Y-95250000D03*
D21*
%TO.P,R5,2*%
%TO.N,Net-(A1-IO16)*%
X212090000Y-95250000D03*
%TD*%
D24*
%TO.P,T1,1,AA*%
%TO.N,Net-(P1-AC_P)*%
X100330000Y-77470000D03*
D25*
%TO.P,T1,2,AB*%
%TO.N,Net-(J1-AC_N)*%
X102870000Y-77470000D03*
%TO.P,T1,3,SA*%
%TO.N,Net-(D2-K)*%
X105410000Y-77470000D03*
%TO.P,T1,4,SB*%
%TO.N,Net-(D1-K)*%
X107950000Y-77470000D03*
%TD*%
D14*
%TO.P,D2,1,K*%
%TO.N,Net-(D2-K)*%
X128270000Y-100330000D03*
D15*
%TO.P,D2,2,A*%
%TO.N,Net-(A1-GND)*%
X138430000Y-100330000D03*
%TD*%
D26*
%TO.P,A1,1,~{RESET}*%
%TO.N,unconnected-(A1-~{RESET}-Pad1)*%
X217170000Y-102977500D03*
D12*
%TO.P,A1,2,3V3*%
%TO.N,Net-(A1-3V3)*%
X214630000Y-102977500D03*
%TO.P,A1,3,NC*%
%TO.N,unconnected-(A1-NC-Pad3)*%
X212090000Y-102977500D03*
%TO.P,A1,4,GND*%
%TO.N,Net-(A1-GND)*%
X209550000Y-102977500D03*
%TO.P,A1,5,ADC*%
%TO.N,unconnected-(A1-ADC-Pad5)*%
X207010000Y-102977500D03*
%TO.P,A1,6,NC*%
%TO.N,unconnected-(A1-NC-Pad6)*%
X204470000Y-102977500D03*
%TO.P,A1,7,NC*%
%TO.N,unconnected-(A1-NC-Pad7)*%
X201930000Y-102977500D03*
%TO.P,A1,8,NC*%
%TO.N,unconnected-(A1-NC-Pad8)*%
X199390000Y-102977500D03*
%TO.P,A1,9,NC*%
%TO.N,unconnected-(A1-NC-Pad9)*%
X196850000Y-102977500D03*
%TO.P,A1,10,NC*%
%TO.N,unconnected-(A1-NC-Pad10)*%
X194310000Y-102977500D03*
%TO.P,A1,11,SCK/IO14*%
%TO.N,unconnected-(A1-SCK{slash}IO14-Pad11)*%
X191770000Y-102977500D03*
%TO.P,A1,12,MOSI/IO13*%
%TO.N,unconnected-(A1-MOSI{slash}IO13-Pad12)*%
X189230000Y-102977500D03*
%TO.P,A1,13,MISO/IO12*%
%TO.N,unconnected-(A1-MISO{slash}IO12-Pad13)*%
X186690000Y-102977500D03*
%TO.P,A1,14,RX/IO3*%
%TO.N,unconnected-(A1-RX{slash}IO3-Pad14)*%
X184150000Y-102977500D03*
%TO.P,A1,15,TX/IO1*%
%TO.N,unconnected-(A1-TX{slash}IO1-Pad15)*%
X181610000Y-102977500D03*
%TO.P,A1,16,CH_PD*%
%TO.N,unconnected-(A1-CH_PD-Pad16)*%
X179070000Y-102977500D03*
%TO.P,A1,17,SDA/IO4*%
%TO.N,Net-(A1-SDA{slash}IO4)*%
X179070000Y-123297500D03*
%TO.P,A1,18,SCL/IO5*%
%TO.N,Net-(A1-SCL{slash}IO5)*%
X181610000Y-123297500D03*
%TO.P,A1,19,IO2*%
%TO.N,Net-(A1-IO2)*%
X184150000Y-123297500D03*
%TO.P,A1,20,IO16*%
%TO.N,Net-(A1-IO16)*%
X186690000Y-123297500D03*
%TO.P,A1,21,IO0*%
%TO.N,Net-(A1-IO0)*%
X189230000Y-123297500D03*
%TO.P,A1,22,IO15*%
%TO.N,unconnected-(A1-IO15-Pad22)*%
X191770000Y-123297500D03*
%TO.P,A1,23,IO13/MOSI*%
%TO.N,unconnected-(A1-IO13{slash}MOSI-Pad23)*%
X194310000Y-123297500D03*
%TO.P,A1,24,IO12/MISO*%
%TO.N,unconnected-(A1-IO12{slash}MISO-Pad24)*%
X196850000Y-123297500D03*
%TO.P,A1,25,IO14/SCK*%
%TO.N,unconnected-(A1-IO14{slash}SCK-Pad25)*%
X199390000Y-123297500D03*
%TO.P,A1,26,USB*%
%TO.N,Net-(A1-USB)*%
X201930000Y-123297500D03*
%TO.P,A1,27,EN*%
%TO.N,unconnected-(A1-EN-Pad27)*%
X204470000Y-123297500D03*
%TO.P,A1,28,VBAT*%
%TO.N,unconnected-(A1-VBAT-Pad28)*%
X207010000Y-123297500D03*
%TD*%
D14*
%TO.P,D4,1,K*%
%TO.N,Net-(D3-K)*%
X133350000Y-80010000D03*
D15*
%TO.P,D4,2,A*%
%TO.N,Net-(D1-K)*%
X123190000Y-80010000D03*
%TD*%
D18*
%TO.P,Q1,1,A1*%
%TO.N,Net-(J1-AC_P)*%
X123190000Y-128270000D03*
D19*
%TO.P,Q1,2,A2*%
%TO.N,Net-(P1-AC_P)*%
X125730000Y-128270000D03*
%TO.P,Q1,3,G*%
%TO.N,Net-(Q1-G)*%
X128270000Y-128270000D03*
%TD*%
D12*
%TO.P,R2,1*%
%TO.N,Net-(P1-AC_P)*%
X133350000Y-118110000D03*
D21*
%TO.P,R2,2*%
%TO.N,Net-(R2-Pad2)*%
X143510000Y-118110000D03*
%TD*%
D14*
%TO.P,D1,1,K*%
%TO.N,Net-(D1-K)*%
X118110000Y-92710000D03*
D15*
%TO.P,D1,2,A*%
%TO.N,Net-(A1-GND)*%
X128270000Y-92710000D03*
%TD*%
D27*
%TO.N,Net-(A1-3V3)*%
X191770000Y-95250000D02*
X189230000Y-97790000D01*
X194310000Y-82550000D02*
X196850000Y-82550000D01*
X171450000Y-115570000D02*
X173990000Y-118110000D01*
X214630000Y-113030000D02*
X214630000Y-102977500D01*
X173990000Y-118110000D02*
X209550000Y-118110000D01*
X173990000Y-97790000D02*
X171450000Y-100330000D01*
X204470000Y-87630000D02*
X207010000Y-85090000D01*
X201930000Y-95250000D02*
X201930000Y-87630000D01*
X207010000Y-85090000D02*
X207010000Y-82550000D01*
X201930000Y-95250000D02*
X194310000Y-95250000D01*
X194310000Y-95250000D02*
X191770000Y-95250000D01*
X209550000Y-118110000D02*
X214630000Y-113030000D01*
X171450000Y-100330000D02*
X171450000Y-115570000D01*
X196850000Y-82550000D02*
X201930000Y-87630000D01*
X201930000Y-87630000D02*
X204470000Y-87630000D01*
X189230000Y-97790000D02*
X173990000Y-97790000D01*
%TO.N,Net-(A1-GND)*%
X160020000Y-124460000D02*
X166370000Y-118110000D01*
X181610000Y-82550000D02*
X191770000Y-82550000D01*
X151130000Y-74930000D02*
X173990000Y-74930000D01*
X173990000Y-74930000D02*
X181610000Y-82550000D01*
X138430000Y-100330000D02*
X148590000Y-90170000D01*
X166370000Y-97790000D02*
X168910000Y-95250000D01*
X148590000Y-90170000D02*
X148590000Y-80010000D01*
X161370000Y-87630000D02*
X151130000Y-87630000D01*
X168910000Y-95250000D02*
X161210000Y-95250000D01*
X181610000Y-82550000D02*
X168910000Y-95250000D01*
X128270000Y-92710000D02*
X130810000Y-92710000D01*
X166370000Y-102870000D02*
X166370000Y-97790000D01*
X157480000Y-124460000D02*
X160020000Y-124460000D01*
X151130000Y-87630000D02*
X148590000Y-90170000D01*
X130810000Y-92710000D02*
X138430000Y-100330000D01*
X148590000Y-80010000D02*
X148590000Y-77470000D01*
X204470000Y-80010000D02*
X204470000Y-82550000D01*
X191770000Y-80010000D02*
X194310000Y-77470000D01*
X166370000Y-118110000D02*
X166370000Y-102870000D01*
X194310000Y-77470000D02*
X201930000Y-77470000D01*
X148590000Y-77470000D02*
X151130000Y-74930000D01*
X191770000Y-82550000D02*
X191770000Y-80010000D01*
X148670000Y-80090000D02*
X148590000Y-80010000D01*
X201930000Y-77470000D02*
X204470000Y-80010000D01*
%TO.N,Net-(A1-SDA{slash}IO4)*%
X176530000Y-140970000D02*
X176530000Y-125837500D01*
X176530000Y-125837500D02*
X179070000Y-123297500D01*
%TO.N,Net-(A1-SCL{slash}IO5)*%
X181610000Y-140970000D02*
X181610000Y-123297500D01*
%TO.N,Net-(A1-IO2)*%
X189230000Y-140970000D02*
X184150000Y-135890000D01*
X184150000Y-135890000D02*
X184150000Y-123297500D01*
X186690000Y-143510000D02*
X189230000Y-140970000D01*
X166370000Y-143510000D02*
X186690000Y-143510000D01*
%TO.N,Net-(A1-IO16)*%
X222250000Y-128270000D02*
X227330000Y-123190000D01*
X212090000Y-82550000D02*
X212090000Y-95250000D01*
X227330000Y-102870000D02*
X219710000Y-95250000D01*
X205740000Y-81280000D02*
X207010000Y-80010000D01*
X186690000Y-125730000D02*
X189230000Y-128270000D01*
X219710000Y-95250000D02*
X212090000Y-95250000D01*
X186690000Y-123297500D02*
X186690000Y-125730000D01*
X189230000Y-128270000D02*
X222250000Y-128270000D01*
X207010000Y-80010000D02*
X209550000Y-80010000D01*
X227330000Y-123190000D02*
X227330000Y-102870000D01*
X205740000Y-82550000D02*
X205740000Y-81280000D01*
X209550000Y-80010000D02*
X212090000Y-82550000D01*
%TO.N,Net-(A1-IO0)*%
X171450000Y-120650000D02*
X186690000Y-120650000D01*
X186690000Y-90170000D02*
X189230000Y-90170000D01*
X168910000Y-118110000D02*
X171450000Y-120650000D01*
X171450000Y-95250000D02*
X168910000Y-97790000D01*
X168910000Y-97790000D02*
X168910000Y-118110000D01*
X184150000Y-92710000D02*
X186690000Y-90170000D01*
X186690000Y-120650000D02*
X186690000Y-120757500D01*
X186690000Y-120757500D02*
X189230000Y-123297500D01*
X184150000Y-95250000D02*
X184150000Y-92710000D01*
X189230000Y-90170000D02*
X193040000Y-86360000D01*
X184150000Y-95250000D02*
X171450000Y-95250000D01*
X193040000Y-86360000D02*
X193040000Y-82550000D01*
%TO.N,Net-(A1-USB)*%
X158750000Y-80010000D02*
X166370000Y-87630000D01*
X151130000Y-80010000D02*
X158750000Y-80010000D01*
%TO.N,Net-(D3-K)*%
X133350000Y-102870000D02*
X133350000Y-100330000D01*
X128270000Y-95250000D02*
X125730000Y-95250000D01*
X123190000Y-90170000D02*
X133350000Y-80010000D01*
X123190000Y-92710000D02*
X123190000Y-90170000D01*
X125730000Y-95250000D02*
X123190000Y-92710000D01*
X140970000Y-107950000D02*
X128270000Y-107950000D01*
X133350000Y-80010000D02*
X146050000Y-80010000D01*
X156210000Y-95250000D02*
X153670000Y-95250000D01*
X161370000Y-100410000D02*
X156210000Y-95250000D01*
X153670000Y-95250000D02*
X140970000Y-107950000D01*
X133350000Y-100330000D02*
X128270000Y-95250000D01*
X128270000Y-107950000D02*
X133350000Y-102870000D01*
X161370000Y-102870000D02*
X161370000Y-100410000D01*
D28*
%TO.N,Net-(J1-AC_P)*%
X110490000Y-138350000D02*
X120570000Y-138350000D01*
X120650000Y-130810000D02*
X123190000Y-128270000D01*
X120650000Y-138430000D02*
X120650000Y-130810000D01*
D27*
X120570000Y-138350000D02*
X120650000Y-138430000D01*
D28*
X82550000Y-138190000D02*
X110330000Y-138190000D01*
D27*
X110330000Y-138190000D02*
X110490000Y-138350000D01*
D28*
%TO.N,Net-(C4-Pad2)*%
X110490000Y-133350000D02*
X110490000Y-128085000D01*
D27*
X110490000Y-128085000D02*
X110575000Y-128000000D01*
%TO.N,Net-(D1-K)*%
X118110000Y-85090000D02*
X123190000Y-80010000D01*
X123190000Y-80010000D02*
X110490000Y-80010000D01*
X118110000Y-92710000D02*
X118110000Y-85090000D01*
X110490000Y-80010000D02*
X107950000Y-77470000D01*
%TO.N,Net-(D2-K)*%
X105410000Y-100330000D02*
X113030000Y-107950000D01*
X105410000Y-77470000D02*
X105410000Y-100330000D01*
X118110000Y-107950000D02*
X120650000Y-107950000D01*
X120650000Y-107950000D02*
X128270000Y-100330000D01*
X113030000Y-107950000D02*
X118110000Y-107950000D01*
%TO.N,Net-(D5-K)*%
X166370000Y-128270000D02*
X166370000Y-133350000D01*
X160020000Y-128270000D02*
X157480000Y-125730000D01*
X166370000Y-128270000D02*
X160020000Y-128270000D01*
%TO.N,Net-(Q1-G)*%
X138430000Y-115570000D02*
X140970000Y-113030000D01*
X153670000Y-113030000D02*
X156210000Y-115570000D01*
D28*
X128270000Y-128270000D02*
X128270000Y-135890000D01*
X128270000Y-135890000D02*
X130810000Y-138430000D01*
D27*
X156210000Y-115570000D02*
X156210000Y-123190000D01*
X128270000Y-128270000D02*
X133350000Y-128270000D01*
X138430000Y-123190000D02*
X138430000Y-115570000D01*
X133350000Y-128270000D02*
X138430000Y-123190000D01*
X140970000Y-113030000D02*
X153670000Y-113030000D01*
%TO.N,Net-(R2-Pad2)*%
X146050000Y-118110000D02*
X153670000Y-125730000D01*
X143510000Y-118110000D02*
X146050000Y-118110000D01*
X153670000Y-125730000D02*
X156210000Y-125730000D01*
D28*
%TO.N,Net-(J1-AC_N)*%
X100330000Y-57150000D02*
X102870000Y-59690000D01*
D27*
X70120000Y-82550000D02*
X69850000Y-82550000D01*
D28*
X69850000Y-62230000D02*
X74930000Y-57150000D01*
X102870000Y-59690000D02*
X102870000Y-77470000D01*
X74930000Y-57150000D02*
X100330000Y-57150000D01*
X82550000Y-94980000D02*
X70120000Y-82550000D01*
X69850000Y-82550000D02*
X69850000Y-62230000D01*
X82550000Y-108220000D02*
X82550000Y-94980000D01*
%TO.N,Net-(P1-AC_P)*%
X122920000Y-117840000D02*
X125730000Y-120650000D01*
X95010000Y-77470000D02*
X100330000Y-77470000D01*
X110575000Y-117840000D02*
X122920000Y-117840000D01*
X82550000Y-65010000D02*
X95010000Y-77470000D01*
D27*
X110490000Y-118110000D02*
X110490000Y-117925000D01*
D28*
X128270000Y-118110000D02*
X125730000Y-120650000D01*
X100330000Y-107950000D02*
X110490000Y-118110000D01*
X133350000Y-118110000D02*
X128270000Y-118110000D01*
X125730000Y-120650000D02*
X125730000Y-128270000D01*
D27*
X110490000Y-117925000D02*
X110575000Y-117840000D01*
D28*
X100330000Y-77470000D02*
X100330000Y-107950000D01*
%TD*%
M02*
