%TF.GenerationSoftware,KiCad,Pcbnew,7.0.1*%
%TF.CreationDate,2023-06-24T23:24:17-03:00*%
%TF.ProjectId,Aquario_inteligente,41717561-7269-46f5-9f69-6e74656c6967,rev?*%
%TF.SameCoordinates,Original*%
%TF.FileFunction,Legend,Top*%
%TF.FilePolarity,Positive*%
%FSLAX46Y46*%
G04 Gerber Fmt 4.6, Leading zero omitted, Abs format (unit mm)*
G04 Created by KiCad (PCBNEW 7.0.1) date 2023-06-24 23:24:17*
%MOMM*%
%LPD*%
G01*
G04 APERTURE LIST*
%ADD10C,0.150000*%
%ADD11C,0.120000*%
G04 APERTURE END LIST*
D10*
%TO.C,C2*%
X158543333Y-93117380D02*
X158495714Y-93165000D01*
X158495714Y-93165000D02*
X158352857Y-93212619D01*
X158352857Y-93212619D02*
X158257619Y-93212619D01*
X158257619Y-93212619D02*
X158114762Y-93165000D01*
X158114762Y-93165000D02*
X158019524Y-93069761D01*
X158019524Y-93069761D02*
X157971905Y-92974523D01*
X157971905Y-92974523D02*
X157924286Y-92784047D01*
X157924286Y-92784047D02*
X157924286Y-92641190D01*
X157924286Y-92641190D02*
X157971905Y-92450714D01*
X157971905Y-92450714D02*
X158019524Y-92355476D01*
X158019524Y-92355476D02*
X158114762Y-92260238D01*
X158114762Y-92260238D02*
X158257619Y-92212619D01*
X158257619Y-92212619D02*
X158352857Y-92212619D01*
X158352857Y-92212619D02*
X158495714Y-92260238D01*
X158495714Y-92260238D02*
X158543333Y-92307857D01*
X158924286Y-92307857D02*
X158971905Y-92260238D01*
X158971905Y-92260238D02*
X159067143Y-92212619D01*
X159067143Y-92212619D02*
X159305238Y-92212619D01*
X159305238Y-92212619D02*
X159400476Y-92260238D01*
X159400476Y-92260238D02*
X159448095Y-92307857D01*
X159448095Y-92307857D02*
X159495714Y-92403095D01*
X159495714Y-92403095D02*
X159495714Y-92498333D01*
X159495714Y-92498333D02*
X159448095Y-92641190D01*
X159448095Y-92641190D02*
X158876667Y-93212619D01*
X158876667Y-93212619D02*
X159495714Y-93212619D01*
%TO.C,J2*%
X176196666Y-142232619D02*
X176196666Y-142946904D01*
X176196666Y-142946904D02*
X176149047Y-143089761D01*
X176149047Y-143089761D02*
X176053809Y-143185000D01*
X176053809Y-143185000D02*
X175910952Y-143232619D01*
X175910952Y-143232619D02*
X175815714Y-143232619D01*
X176625238Y-142327857D02*
X176672857Y-142280238D01*
X176672857Y-142280238D02*
X176768095Y-142232619D01*
X176768095Y-142232619D02*
X177006190Y-142232619D01*
X177006190Y-142232619D02*
X177101428Y-142280238D01*
X177101428Y-142280238D02*
X177149047Y-142327857D01*
X177149047Y-142327857D02*
X177196666Y-142423095D01*
X177196666Y-142423095D02*
X177196666Y-142518333D01*
X177196666Y-142518333D02*
X177149047Y-142661190D01*
X177149047Y-142661190D02*
X176577619Y-143232619D01*
X176577619Y-143232619D02*
X177196666Y-143232619D01*
%TO.C,D3*%
X122451905Y-110882619D02*
X122451905Y-109882619D01*
X122451905Y-109882619D02*
X122690000Y-109882619D01*
X122690000Y-109882619D02*
X122832857Y-109930238D01*
X122832857Y-109930238D02*
X122928095Y-110025476D01*
X122928095Y-110025476D02*
X122975714Y-110120714D01*
X122975714Y-110120714D02*
X123023333Y-110311190D01*
X123023333Y-110311190D02*
X123023333Y-110454047D01*
X123023333Y-110454047D02*
X122975714Y-110644523D01*
X122975714Y-110644523D02*
X122928095Y-110739761D01*
X122928095Y-110739761D02*
X122832857Y-110835000D01*
X122832857Y-110835000D02*
X122690000Y-110882619D01*
X122690000Y-110882619D02*
X122451905Y-110882619D01*
X123356667Y-109882619D02*
X123975714Y-109882619D01*
X123975714Y-109882619D02*
X123642381Y-110263571D01*
X123642381Y-110263571D02*
X123785238Y-110263571D01*
X123785238Y-110263571D02*
X123880476Y-110311190D01*
X123880476Y-110311190D02*
X123928095Y-110358809D01*
X123928095Y-110358809D02*
X123975714Y-110454047D01*
X123975714Y-110454047D02*
X123975714Y-110692142D01*
X123975714Y-110692142D02*
X123928095Y-110787380D01*
X123928095Y-110787380D02*
X123880476Y-110835000D01*
X123880476Y-110835000D02*
X123785238Y-110882619D01*
X123785238Y-110882619D02*
X123499524Y-110882619D01*
X123499524Y-110882619D02*
X123404286Y-110835000D01*
X123404286Y-110835000D02*
X123356667Y-110787380D01*
X128008095Y-110512619D02*
X128008095Y-109512619D01*
X128579523Y-110512619D02*
X128150952Y-109941190D01*
X128579523Y-109512619D02*
X128008095Y-110084047D01*
%TO.C,U1*%
X147828095Y-75202619D02*
X147828095Y-76012142D01*
X147828095Y-76012142D02*
X147875714Y-76107380D01*
X147875714Y-76107380D02*
X147923333Y-76155000D01*
X147923333Y-76155000D02*
X148018571Y-76202619D01*
X148018571Y-76202619D02*
X148209047Y-76202619D01*
X148209047Y-76202619D02*
X148304285Y-76155000D01*
X148304285Y-76155000D02*
X148351904Y-76107380D01*
X148351904Y-76107380D02*
X148399523Y-76012142D01*
X148399523Y-76012142D02*
X148399523Y-75202619D01*
X149399523Y-76202619D02*
X148828095Y-76202619D01*
X149113809Y-76202619D02*
X149113809Y-75202619D01*
X149113809Y-75202619D02*
X149018571Y-75345476D01*
X149018571Y-75345476D02*
X148923333Y-75440714D01*
X148923333Y-75440714D02*
X148828095Y-75488333D01*
%TO.C,C4*%
X108357380Y-136016666D02*
X108405000Y-136064285D01*
X108405000Y-136064285D02*
X108452619Y-136207142D01*
X108452619Y-136207142D02*
X108452619Y-136302380D01*
X108452619Y-136302380D02*
X108405000Y-136445237D01*
X108405000Y-136445237D02*
X108309761Y-136540475D01*
X108309761Y-136540475D02*
X108214523Y-136588094D01*
X108214523Y-136588094D02*
X108024047Y-136635713D01*
X108024047Y-136635713D02*
X107881190Y-136635713D01*
X107881190Y-136635713D02*
X107690714Y-136588094D01*
X107690714Y-136588094D02*
X107595476Y-136540475D01*
X107595476Y-136540475D02*
X107500238Y-136445237D01*
X107500238Y-136445237D02*
X107452619Y-136302380D01*
X107452619Y-136302380D02*
X107452619Y-136207142D01*
X107452619Y-136207142D02*
X107500238Y-136064285D01*
X107500238Y-136064285D02*
X107547857Y-136016666D01*
X107785952Y-135159523D02*
X108452619Y-135159523D01*
X107405000Y-135397618D02*
X108119285Y-135635713D01*
X108119285Y-135635713D02*
X108119285Y-135016666D01*
%TO.C,J1*%
X75772619Y-123538333D02*
X76486904Y-123538333D01*
X76486904Y-123538333D02*
X76629761Y-123585952D01*
X76629761Y-123585952D02*
X76725000Y-123681190D01*
X76725000Y-123681190D02*
X76772619Y-123824047D01*
X76772619Y-123824047D02*
X76772619Y-123919285D01*
X76772619Y-122538333D02*
X76772619Y-123109761D01*
X76772619Y-122824047D02*
X75772619Y-122824047D01*
X75772619Y-122824047D02*
X75915476Y-122919285D01*
X75915476Y-122919285D02*
X76010714Y-123014523D01*
X76010714Y-123014523D02*
X76058333Y-123109761D01*
%TO.C,R1*%
X169202619Y-138596666D02*
X168726428Y-138929999D01*
X169202619Y-139168094D02*
X168202619Y-139168094D01*
X168202619Y-139168094D02*
X168202619Y-138787142D01*
X168202619Y-138787142D02*
X168250238Y-138691904D01*
X168250238Y-138691904D02*
X168297857Y-138644285D01*
X168297857Y-138644285D02*
X168393095Y-138596666D01*
X168393095Y-138596666D02*
X168535952Y-138596666D01*
X168535952Y-138596666D02*
X168631190Y-138644285D01*
X168631190Y-138644285D02*
X168678809Y-138691904D01*
X168678809Y-138691904D02*
X168726428Y-138787142D01*
X168726428Y-138787142D02*
X168726428Y-139168094D01*
X169202619Y-137644285D02*
X169202619Y-138215713D01*
X169202619Y-137929999D02*
X168202619Y-137929999D01*
X168202619Y-137929999D02*
X168345476Y-138025237D01*
X168345476Y-138025237D02*
X168440714Y-138120475D01*
X168440714Y-138120475D02*
X168488333Y-138215713D01*
%TO.C,C1*%
X163703333Y-85497380D02*
X163655714Y-85545000D01*
X163655714Y-85545000D02*
X163512857Y-85592619D01*
X163512857Y-85592619D02*
X163417619Y-85592619D01*
X163417619Y-85592619D02*
X163274762Y-85545000D01*
X163274762Y-85545000D02*
X163179524Y-85449761D01*
X163179524Y-85449761D02*
X163131905Y-85354523D01*
X163131905Y-85354523D02*
X163084286Y-85164047D01*
X163084286Y-85164047D02*
X163084286Y-85021190D01*
X163084286Y-85021190D02*
X163131905Y-84830714D01*
X163131905Y-84830714D02*
X163179524Y-84735476D01*
X163179524Y-84735476D02*
X163274762Y-84640238D01*
X163274762Y-84640238D02*
X163417619Y-84592619D01*
X163417619Y-84592619D02*
X163512857Y-84592619D01*
X163512857Y-84592619D02*
X163655714Y-84640238D01*
X163655714Y-84640238D02*
X163703333Y-84687857D01*
X164655714Y-85592619D02*
X164084286Y-85592619D01*
X164370000Y-85592619D02*
X164370000Y-84592619D01*
X164370000Y-84592619D02*
X164274762Y-84735476D01*
X164274762Y-84735476D02*
X164179524Y-84830714D01*
X164179524Y-84830714D02*
X164084286Y-84878333D01*
%TO.C,P1*%
X89252619Y-80733094D02*
X88252619Y-80733094D01*
X88252619Y-80733094D02*
X88252619Y-80352142D01*
X88252619Y-80352142D02*
X88300238Y-80256904D01*
X88300238Y-80256904D02*
X88347857Y-80209285D01*
X88347857Y-80209285D02*
X88443095Y-80161666D01*
X88443095Y-80161666D02*
X88585952Y-80161666D01*
X88585952Y-80161666D02*
X88681190Y-80209285D01*
X88681190Y-80209285D02*
X88728809Y-80256904D01*
X88728809Y-80256904D02*
X88776428Y-80352142D01*
X88776428Y-80352142D02*
X88776428Y-80733094D01*
X89252619Y-79209285D02*
X89252619Y-79780713D01*
X89252619Y-79494999D02*
X88252619Y-79494999D01*
X88252619Y-79494999D02*
X88395476Y-79590237D01*
X88395476Y-79590237D02*
X88490714Y-79685475D01*
X88490714Y-79685475D02*
X88538333Y-79780713D01*
%TO.C,U3*%
X204978095Y-78452619D02*
X204978095Y-79262142D01*
X204978095Y-79262142D02*
X205025714Y-79357380D01*
X205025714Y-79357380D02*
X205073333Y-79405000D01*
X205073333Y-79405000D02*
X205168571Y-79452619D01*
X205168571Y-79452619D02*
X205359047Y-79452619D01*
X205359047Y-79452619D02*
X205454285Y-79405000D01*
X205454285Y-79405000D02*
X205501904Y-79357380D01*
X205501904Y-79357380D02*
X205549523Y-79262142D01*
X205549523Y-79262142D02*
X205549523Y-78452619D01*
X205930476Y-78452619D02*
X206549523Y-78452619D01*
X206549523Y-78452619D02*
X206216190Y-78833571D01*
X206216190Y-78833571D02*
X206359047Y-78833571D01*
X206359047Y-78833571D02*
X206454285Y-78881190D01*
X206454285Y-78881190D02*
X206501904Y-78928809D01*
X206501904Y-78928809D02*
X206549523Y-79024047D01*
X206549523Y-79024047D02*
X206549523Y-79262142D01*
X206549523Y-79262142D02*
X206501904Y-79357380D01*
X206501904Y-79357380D02*
X206454285Y-79405000D01*
X206454285Y-79405000D02*
X206359047Y-79452619D01*
X206359047Y-79452619D02*
X206073333Y-79452619D01*
X206073333Y-79452619D02*
X205978095Y-79405000D01*
X205978095Y-79405000D02*
X205930476Y-79357380D01*
%TO.C,R4*%
X113407619Y-123086666D02*
X112931428Y-123419999D01*
X113407619Y-123658094D02*
X112407619Y-123658094D01*
X112407619Y-123658094D02*
X112407619Y-123277142D01*
X112407619Y-123277142D02*
X112455238Y-123181904D01*
X112455238Y-123181904D02*
X112502857Y-123134285D01*
X112502857Y-123134285D02*
X112598095Y-123086666D01*
X112598095Y-123086666D02*
X112740952Y-123086666D01*
X112740952Y-123086666D02*
X112836190Y-123134285D01*
X112836190Y-123134285D02*
X112883809Y-123181904D01*
X112883809Y-123181904D02*
X112931428Y-123277142D01*
X112931428Y-123277142D02*
X112931428Y-123658094D01*
X112740952Y-122229523D02*
X113407619Y-122229523D01*
X112360000Y-122467618D02*
X113074285Y-122705713D01*
X113074285Y-122705713D02*
X113074285Y-122086666D01*
%TO.C,J3*%
X181276666Y-142232619D02*
X181276666Y-142946904D01*
X181276666Y-142946904D02*
X181229047Y-143089761D01*
X181229047Y-143089761D02*
X181133809Y-143185000D01*
X181133809Y-143185000D02*
X180990952Y-143232619D01*
X180990952Y-143232619D02*
X180895714Y-143232619D01*
X181657619Y-142232619D02*
X182276666Y-142232619D01*
X182276666Y-142232619D02*
X181943333Y-142613571D01*
X181943333Y-142613571D02*
X182086190Y-142613571D01*
X182086190Y-142613571D02*
X182181428Y-142661190D01*
X182181428Y-142661190D02*
X182229047Y-142708809D01*
X182229047Y-142708809D02*
X182276666Y-142804047D01*
X182276666Y-142804047D02*
X182276666Y-143042142D01*
X182276666Y-143042142D02*
X182229047Y-143137380D01*
X182229047Y-143137380D02*
X182181428Y-143185000D01*
X182181428Y-143185000D02*
X182086190Y-143232619D01*
X182086190Y-143232619D02*
X181800476Y-143232619D01*
X181800476Y-143232619D02*
X181705238Y-143185000D01*
X181705238Y-143185000D02*
X181657619Y-143137380D01*
%TO.C,C3*%
X163703333Y-100737380D02*
X163655714Y-100785000D01*
X163655714Y-100785000D02*
X163512857Y-100832619D01*
X163512857Y-100832619D02*
X163417619Y-100832619D01*
X163417619Y-100832619D02*
X163274762Y-100785000D01*
X163274762Y-100785000D02*
X163179524Y-100689761D01*
X163179524Y-100689761D02*
X163131905Y-100594523D01*
X163131905Y-100594523D02*
X163084286Y-100404047D01*
X163084286Y-100404047D02*
X163084286Y-100261190D01*
X163084286Y-100261190D02*
X163131905Y-100070714D01*
X163131905Y-100070714D02*
X163179524Y-99975476D01*
X163179524Y-99975476D02*
X163274762Y-99880238D01*
X163274762Y-99880238D02*
X163417619Y-99832619D01*
X163417619Y-99832619D02*
X163512857Y-99832619D01*
X163512857Y-99832619D02*
X163655714Y-99880238D01*
X163655714Y-99880238D02*
X163703333Y-99927857D01*
X164036667Y-99832619D02*
X164655714Y-99832619D01*
X164655714Y-99832619D02*
X164322381Y-100213571D01*
X164322381Y-100213571D02*
X164465238Y-100213571D01*
X164465238Y-100213571D02*
X164560476Y-100261190D01*
X164560476Y-100261190D02*
X164608095Y-100308809D01*
X164608095Y-100308809D02*
X164655714Y-100404047D01*
X164655714Y-100404047D02*
X164655714Y-100642142D01*
X164655714Y-100642142D02*
X164608095Y-100737380D01*
X164608095Y-100737380D02*
X164560476Y-100785000D01*
X164560476Y-100785000D02*
X164465238Y-100832619D01*
X164465238Y-100832619D02*
X164179524Y-100832619D01*
X164179524Y-100832619D02*
X164084286Y-100785000D01*
X164084286Y-100785000D02*
X164036667Y-100737380D01*
%TO.C,D5*%
X164362619Y-123928094D02*
X163362619Y-123928094D01*
X163362619Y-123928094D02*
X163362619Y-123689999D01*
X163362619Y-123689999D02*
X163410238Y-123547142D01*
X163410238Y-123547142D02*
X163505476Y-123451904D01*
X163505476Y-123451904D02*
X163600714Y-123404285D01*
X163600714Y-123404285D02*
X163791190Y-123356666D01*
X163791190Y-123356666D02*
X163934047Y-123356666D01*
X163934047Y-123356666D02*
X164124523Y-123404285D01*
X164124523Y-123404285D02*
X164219761Y-123451904D01*
X164219761Y-123451904D02*
X164315000Y-123547142D01*
X164315000Y-123547142D02*
X164362619Y-123689999D01*
X164362619Y-123689999D02*
X164362619Y-123928094D01*
X163362619Y-122451904D02*
X163362619Y-122928094D01*
X163362619Y-122928094D02*
X163838809Y-122975713D01*
X163838809Y-122975713D02*
X163791190Y-122928094D01*
X163791190Y-122928094D02*
X163743571Y-122832856D01*
X163743571Y-122832856D02*
X163743571Y-122594761D01*
X163743571Y-122594761D02*
X163791190Y-122499523D01*
X163791190Y-122499523D02*
X163838809Y-122451904D01*
X163838809Y-122451904D02*
X163934047Y-122404285D01*
X163934047Y-122404285D02*
X164172142Y-122404285D01*
X164172142Y-122404285D02*
X164267380Y-122451904D01*
X164267380Y-122451904D02*
X164315000Y-122499523D01*
X164315000Y-122499523D02*
X164362619Y-122594761D01*
X164362619Y-122594761D02*
X164362619Y-122832856D01*
X164362619Y-122832856D02*
X164315000Y-122928094D01*
X164315000Y-122928094D02*
X164267380Y-122975713D01*
X164732619Y-128531904D02*
X163732619Y-128531904D01*
X164732619Y-127960476D02*
X164161190Y-128389047D01*
X163732619Y-127960476D02*
X164304047Y-128531904D01*
%TO.C,R6*%
X189063333Y-98082619D02*
X188730000Y-97606428D01*
X188491905Y-98082619D02*
X188491905Y-97082619D01*
X188491905Y-97082619D02*
X188872857Y-97082619D01*
X188872857Y-97082619D02*
X188968095Y-97130238D01*
X188968095Y-97130238D02*
X189015714Y-97177857D01*
X189015714Y-97177857D02*
X189063333Y-97273095D01*
X189063333Y-97273095D02*
X189063333Y-97415952D01*
X189063333Y-97415952D02*
X189015714Y-97511190D01*
X189015714Y-97511190D02*
X188968095Y-97558809D01*
X188968095Y-97558809D02*
X188872857Y-97606428D01*
X188872857Y-97606428D02*
X188491905Y-97606428D01*
X189920476Y-97082619D02*
X189730000Y-97082619D01*
X189730000Y-97082619D02*
X189634762Y-97130238D01*
X189634762Y-97130238D02*
X189587143Y-97177857D01*
X189587143Y-97177857D02*
X189491905Y-97320714D01*
X189491905Y-97320714D02*
X189444286Y-97511190D01*
X189444286Y-97511190D02*
X189444286Y-97892142D01*
X189444286Y-97892142D02*
X189491905Y-97987380D01*
X189491905Y-97987380D02*
X189539524Y-98035000D01*
X189539524Y-98035000D02*
X189634762Y-98082619D01*
X189634762Y-98082619D02*
X189825238Y-98082619D01*
X189825238Y-98082619D02*
X189920476Y-98035000D01*
X189920476Y-98035000D02*
X189968095Y-97987380D01*
X189968095Y-97987380D02*
X190015714Y-97892142D01*
X190015714Y-97892142D02*
X190015714Y-97654047D01*
X190015714Y-97654047D02*
X189968095Y-97558809D01*
X189968095Y-97558809D02*
X189920476Y-97511190D01*
X189920476Y-97511190D02*
X189825238Y-97463571D01*
X189825238Y-97463571D02*
X189634762Y-97463571D01*
X189634762Y-97463571D02*
X189539524Y-97511190D01*
X189539524Y-97511190D02*
X189491905Y-97558809D01*
X189491905Y-97558809D02*
X189444286Y-97654047D01*
%TO.C,U4*%
X192278095Y-78452619D02*
X192278095Y-79262142D01*
X192278095Y-79262142D02*
X192325714Y-79357380D01*
X192325714Y-79357380D02*
X192373333Y-79405000D01*
X192373333Y-79405000D02*
X192468571Y-79452619D01*
X192468571Y-79452619D02*
X192659047Y-79452619D01*
X192659047Y-79452619D02*
X192754285Y-79405000D01*
X192754285Y-79405000D02*
X192801904Y-79357380D01*
X192801904Y-79357380D02*
X192849523Y-79262142D01*
X192849523Y-79262142D02*
X192849523Y-78452619D01*
X193754285Y-78785952D02*
X193754285Y-79452619D01*
X193516190Y-78405000D02*
X193278095Y-79119285D01*
X193278095Y-79119285D02*
X193897142Y-79119285D01*
%TO.C,R3*%
X125563333Y-141262619D02*
X125230000Y-140786428D01*
X124991905Y-141262619D02*
X124991905Y-140262619D01*
X124991905Y-140262619D02*
X125372857Y-140262619D01*
X125372857Y-140262619D02*
X125468095Y-140310238D01*
X125468095Y-140310238D02*
X125515714Y-140357857D01*
X125515714Y-140357857D02*
X125563333Y-140453095D01*
X125563333Y-140453095D02*
X125563333Y-140595952D01*
X125563333Y-140595952D02*
X125515714Y-140691190D01*
X125515714Y-140691190D02*
X125468095Y-140738809D01*
X125468095Y-140738809D02*
X125372857Y-140786428D01*
X125372857Y-140786428D02*
X124991905Y-140786428D01*
X125896667Y-140262619D02*
X126515714Y-140262619D01*
X126515714Y-140262619D02*
X126182381Y-140643571D01*
X126182381Y-140643571D02*
X126325238Y-140643571D01*
X126325238Y-140643571D02*
X126420476Y-140691190D01*
X126420476Y-140691190D02*
X126468095Y-140738809D01*
X126468095Y-140738809D02*
X126515714Y-140834047D01*
X126515714Y-140834047D02*
X126515714Y-141072142D01*
X126515714Y-141072142D02*
X126468095Y-141167380D01*
X126468095Y-141167380D02*
X126420476Y-141215000D01*
X126420476Y-141215000D02*
X126325238Y-141262619D01*
X126325238Y-141262619D02*
X126039524Y-141262619D01*
X126039524Y-141262619D02*
X125944286Y-141215000D01*
X125944286Y-141215000D02*
X125896667Y-141167380D01*
%TO.C,R5*%
X206843333Y-93342619D02*
X206510000Y-92866428D01*
X206271905Y-93342619D02*
X206271905Y-92342619D01*
X206271905Y-92342619D02*
X206652857Y-92342619D01*
X206652857Y-92342619D02*
X206748095Y-92390238D01*
X206748095Y-92390238D02*
X206795714Y-92437857D01*
X206795714Y-92437857D02*
X206843333Y-92533095D01*
X206843333Y-92533095D02*
X206843333Y-92675952D01*
X206843333Y-92675952D02*
X206795714Y-92771190D01*
X206795714Y-92771190D02*
X206748095Y-92818809D01*
X206748095Y-92818809D02*
X206652857Y-92866428D01*
X206652857Y-92866428D02*
X206271905Y-92866428D01*
X207748095Y-92342619D02*
X207271905Y-92342619D01*
X207271905Y-92342619D02*
X207224286Y-92818809D01*
X207224286Y-92818809D02*
X207271905Y-92771190D01*
X207271905Y-92771190D02*
X207367143Y-92723571D01*
X207367143Y-92723571D02*
X207605238Y-92723571D01*
X207605238Y-92723571D02*
X207700476Y-92771190D01*
X207700476Y-92771190D02*
X207748095Y-92818809D01*
X207748095Y-92818809D02*
X207795714Y-92914047D01*
X207795714Y-92914047D02*
X207795714Y-93152142D01*
X207795714Y-93152142D02*
X207748095Y-93247380D01*
X207748095Y-93247380D02*
X207700476Y-93295000D01*
X207700476Y-93295000D02*
X207605238Y-93342619D01*
X207605238Y-93342619D02*
X207367143Y-93342619D01*
X207367143Y-93342619D02*
X207271905Y-93295000D01*
X207271905Y-93295000D02*
X207224286Y-93247380D01*
%TO.C,T1*%
X97022619Y-78231904D02*
X97022619Y-77660476D01*
X98022619Y-77946190D02*
X97022619Y-77946190D01*
X98022619Y-76803333D02*
X98022619Y-77374761D01*
X98022619Y-77089047D02*
X97022619Y-77089047D01*
X97022619Y-77089047D02*
X97165476Y-77184285D01*
X97165476Y-77184285D02*
X97260714Y-77279523D01*
X97260714Y-77279523D02*
X97308333Y-77374761D01*
%TO.C,D2*%
X132611905Y-98322619D02*
X132611905Y-97322619D01*
X132611905Y-97322619D02*
X132850000Y-97322619D01*
X132850000Y-97322619D02*
X132992857Y-97370238D01*
X132992857Y-97370238D02*
X133088095Y-97465476D01*
X133088095Y-97465476D02*
X133135714Y-97560714D01*
X133135714Y-97560714D02*
X133183333Y-97751190D01*
X133183333Y-97751190D02*
X133183333Y-97894047D01*
X133183333Y-97894047D02*
X133135714Y-98084523D01*
X133135714Y-98084523D02*
X133088095Y-98179761D01*
X133088095Y-98179761D02*
X132992857Y-98275000D01*
X132992857Y-98275000D02*
X132850000Y-98322619D01*
X132850000Y-98322619D02*
X132611905Y-98322619D01*
X133564286Y-97417857D02*
X133611905Y-97370238D01*
X133611905Y-97370238D02*
X133707143Y-97322619D01*
X133707143Y-97322619D02*
X133945238Y-97322619D01*
X133945238Y-97322619D02*
X134040476Y-97370238D01*
X134040476Y-97370238D02*
X134088095Y-97417857D01*
X134088095Y-97417857D02*
X134135714Y-97513095D01*
X134135714Y-97513095D02*
X134135714Y-97608333D01*
X134135714Y-97608333D02*
X134088095Y-97751190D01*
X134088095Y-97751190D02*
X133516667Y-98322619D01*
X133516667Y-98322619D02*
X134135714Y-98322619D01*
X128008095Y-98692619D02*
X128008095Y-97692619D01*
X128579523Y-98692619D02*
X128150952Y-98121190D01*
X128579523Y-97692619D02*
X128008095Y-98264047D01*
%TO.C,A1*%
X224966904Y-113851785D02*
X224966904Y-113375595D01*
X225252619Y-113947023D02*
X224252619Y-113613690D01*
X224252619Y-113613690D02*
X225252619Y-113280357D01*
X225252619Y-112423214D02*
X225252619Y-112994642D01*
X225252619Y-112708928D02*
X224252619Y-112708928D01*
X224252619Y-112708928D02*
X224395476Y-112804166D01*
X224395476Y-112804166D02*
X224490714Y-112899404D01*
X224490714Y-112899404D02*
X224538333Y-112994642D01*
%TO.C,D4*%
X127531905Y-82942619D02*
X127531905Y-81942619D01*
X127531905Y-81942619D02*
X127770000Y-81942619D01*
X127770000Y-81942619D02*
X127912857Y-81990238D01*
X127912857Y-81990238D02*
X128008095Y-82085476D01*
X128008095Y-82085476D02*
X128055714Y-82180714D01*
X128055714Y-82180714D02*
X128103333Y-82371190D01*
X128103333Y-82371190D02*
X128103333Y-82514047D01*
X128103333Y-82514047D02*
X128055714Y-82704523D01*
X128055714Y-82704523D02*
X128008095Y-82799761D01*
X128008095Y-82799761D02*
X127912857Y-82895000D01*
X127912857Y-82895000D02*
X127770000Y-82942619D01*
X127770000Y-82942619D02*
X127531905Y-82942619D01*
X128960476Y-82275952D02*
X128960476Y-82942619D01*
X128722381Y-81895000D02*
X128484286Y-82609285D01*
X128484286Y-82609285D02*
X129103333Y-82609285D01*
X133088095Y-82572619D02*
X133088095Y-81572619D01*
X133659523Y-82572619D02*
X133230952Y-82001190D01*
X133659523Y-81572619D02*
X133088095Y-82144047D01*
%TO.C,Q1*%
X118667857Y-128365238D02*
X118620238Y-128460476D01*
X118620238Y-128460476D02*
X118525000Y-128555714D01*
X118525000Y-128555714D02*
X118382142Y-128698571D01*
X118382142Y-128698571D02*
X118334523Y-128793809D01*
X118334523Y-128793809D02*
X118334523Y-128889047D01*
X118572619Y-128841428D02*
X118525000Y-128936666D01*
X118525000Y-128936666D02*
X118429761Y-129031904D01*
X118429761Y-129031904D02*
X118239285Y-129079523D01*
X118239285Y-129079523D02*
X117905952Y-129079523D01*
X117905952Y-129079523D02*
X117715476Y-129031904D01*
X117715476Y-129031904D02*
X117620238Y-128936666D01*
X117620238Y-128936666D02*
X117572619Y-128841428D01*
X117572619Y-128841428D02*
X117572619Y-128650952D01*
X117572619Y-128650952D02*
X117620238Y-128555714D01*
X117620238Y-128555714D02*
X117715476Y-128460476D01*
X117715476Y-128460476D02*
X117905952Y-128412857D01*
X117905952Y-128412857D02*
X118239285Y-128412857D01*
X118239285Y-128412857D02*
X118429761Y-128460476D01*
X118429761Y-128460476D02*
X118525000Y-128555714D01*
X118525000Y-128555714D02*
X118572619Y-128650952D01*
X118572619Y-128650952D02*
X118572619Y-128841428D01*
X118572619Y-127460476D02*
X118572619Y-128031904D01*
X118572619Y-127746190D02*
X117572619Y-127746190D01*
X117572619Y-127746190D02*
X117715476Y-127841428D01*
X117715476Y-127841428D02*
X117810714Y-127936666D01*
X117810714Y-127936666D02*
X117858333Y-128031904D01*
%TO.C,R2*%
X138263333Y-116202619D02*
X137930000Y-115726428D01*
X137691905Y-116202619D02*
X137691905Y-115202619D01*
X137691905Y-115202619D02*
X138072857Y-115202619D01*
X138072857Y-115202619D02*
X138168095Y-115250238D01*
X138168095Y-115250238D02*
X138215714Y-115297857D01*
X138215714Y-115297857D02*
X138263333Y-115393095D01*
X138263333Y-115393095D02*
X138263333Y-115535952D01*
X138263333Y-115535952D02*
X138215714Y-115631190D01*
X138215714Y-115631190D02*
X138168095Y-115678809D01*
X138168095Y-115678809D02*
X138072857Y-115726428D01*
X138072857Y-115726428D02*
X137691905Y-115726428D01*
X138644286Y-115297857D02*
X138691905Y-115250238D01*
X138691905Y-115250238D02*
X138787143Y-115202619D01*
X138787143Y-115202619D02*
X139025238Y-115202619D01*
X139025238Y-115202619D02*
X139120476Y-115250238D01*
X139120476Y-115250238D02*
X139168095Y-115297857D01*
X139168095Y-115297857D02*
X139215714Y-115393095D01*
X139215714Y-115393095D02*
X139215714Y-115488333D01*
X139215714Y-115488333D02*
X139168095Y-115631190D01*
X139168095Y-115631190D02*
X138596667Y-116202619D01*
X138596667Y-116202619D02*
X139215714Y-116202619D01*
%TO.C,D1*%
X122451905Y-90702619D02*
X122451905Y-89702619D01*
X122451905Y-89702619D02*
X122690000Y-89702619D01*
X122690000Y-89702619D02*
X122832857Y-89750238D01*
X122832857Y-89750238D02*
X122928095Y-89845476D01*
X122928095Y-89845476D02*
X122975714Y-89940714D01*
X122975714Y-89940714D02*
X123023333Y-90131190D01*
X123023333Y-90131190D02*
X123023333Y-90274047D01*
X123023333Y-90274047D02*
X122975714Y-90464523D01*
X122975714Y-90464523D02*
X122928095Y-90559761D01*
X122928095Y-90559761D02*
X122832857Y-90655000D01*
X122832857Y-90655000D02*
X122690000Y-90702619D01*
X122690000Y-90702619D02*
X122451905Y-90702619D01*
X123975714Y-90702619D02*
X123404286Y-90702619D01*
X123690000Y-90702619D02*
X123690000Y-89702619D01*
X123690000Y-89702619D02*
X123594762Y-89845476D01*
X123594762Y-89845476D02*
X123499524Y-89940714D01*
X123499524Y-89940714D02*
X123404286Y-89988333D01*
X117848095Y-91072619D02*
X117848095Y-90072619D01*
X118419523Y-91072619D02*
X117990952Y-90501190D01*
X118419523Y-90072619D02*
X117848095Y-90644047D01*
D11*
%TO.C,C2*%
X155590000Y-93880000D02*
X155590000Y-94325000D01*
X155590000Y-93880000D02*
X161830000Y-93880000D01*
X155590000Y-96175000D02*
X155590000Y-96620000D01*
X155590000Y-96620000D02*
X161830000Y-96620000D01*
X161830000Y-93880000D02*
X161830000Y-94325000D01*
X161830000Y-96175000D02*
X161830000Y-96620000D01*
%TO.C,J2*%
X175580000Y-140020000D02*
X175580000Y-141920000D01*
X175580000Y-141920000D02*
X177430000Y-141920000D01*
X177430000Y-140020000D02*
X175580000Y-140020000D01*
X177430000Y-140070000D02*
X177430000Y-140020000D01*
X177430000Y-141920000D02*
X177430000Y-140070000D01*
%TO.C,D3*%
X126930000Y-107950000D02*
X125910000Y-107950000D01*
X125910000Y-109420000D02*
X125910000Y-106480000D01*
X125910000Y-106480000D02*
X120470000Y-106480000D01*
X125130000Y-109420000D02*
X125130000Y-106480000D01*
X125010000Y-109420000D02*
X125010000Y-106480000D01*
X124890000Y-109420000D02*
X124890000Y-106480000D01*
X120470000Y-109420000D02*
X125910000Y-109420000D01*
X120470000Y-106480000D02*
X120470000Y-109420000D01*
X119450000Y-107950000D02*
X120470000Y-107950000D01*
%TO.C,U2*%
X158430000Y-126425000D02*
X158430000Y-122495000D01*
X158430000Y-126425000D02*
X157787530Y-126425000D01*
X158430000Y-122495000D02*
X157787530Y-122495000D01*
X157172470Y-126425000D02*
X156970000Y-126425000D01*
X157172470Y-122495000D02*
X156517530Y-122495000D01*
X156210000Y-126490000D02*
X155260000Y-126490000D01*
X155902470Y-122495000D02*
X155260000Y-122495000D01*
X155450000Y-125095000D02*
X155260000Y-125095000D01*
X155260000Y-126490000D02*
X155260000Y-125730000D01*
X155260000Y-125095000D02*
X155260000Y-122495000D01*
%TO.C,U1*%
X143470000Y-76740000D02*
X143470000Y-81381000D01*
X143470000Y-76740000D02*
X153710000Y-76740000D01*
X143470000Y-78250000D02*
X153710000Y-78250000D01*
X143470000Y-81381000D02*
X153710000Y-81381000D01*
X146740000Y-76740000D02*
X146740000Y-78250000D01*
X150441000Y-76740000D02*
X150441000Y-78250000D01*
X153710000Y-76740000D02*
X153710000Y-81381000D01*
%TO.C,C4*%
X109120000Y-138970000D02*
X109565000Y-138970000D01*
X109120000Y-138970000D02*
X109120000Y-132730000D01*
X111415000Y-138970000D02*
X111860000Y-138970000D01*
X111860000Y-138970000D02*
X111860000Y-132730000D01*
X109120000Y-132730000D02*
X109565000Y-132730000D01*
X111415000Y-132730000D02*
X111860000Y-132730000D01*
%TO.C,J1*%
X87800000Y-138190000D02*
X87800000Y-108190000D01*
X77300000Y-108190000D02*
X77300000Y-138190000D01*
X77300000Y-138190000D02*
G75*
G03*
X87800000Y-138190000I5250000J0D01*
G01*
X87800000Y-108190000D02*
G75*
G03*
X77300000Y-108190000I-5250000J0D01*
G01*
%TO.C,R1*%
X166370000Y-134390000D02*
X166370000Y-135160000D01*
X167740000Y-135160000D02*
X165000000Y-135160000D01*
X165000000Y-135160000D02*
X165000000Y-141700000D01*
X167740000Y-141700000D02*
X167740000Y-135160000D01*
X165000000Y-141700000D02*
X167740000Y-141700000D01*
X166370000Y-142470000D02*
X166370000Y-141700000D01*
%TO.C,C1*%
X160750000Y-86260000D02*
X160750000Y-86705000D01*
X160750000Y-86260000D02*
X166990000Y-86260000D01*
X160750000Y-88555000D02*
X160750000Y-89000000D01*
X160750000Y-89000000D02*
X166990000Y-89000000D01*
X166990000Y-86260000D02*
X166990000Y-86705000D01*
X166990000Y-88555000D02*
X166990000Y-89000000D01*
%TO.C,P1*%
X77300000Y-65010000D02*
X77300000Y-95010000D01*
X87800000Y-95010000D02*
X87800000Y-65010000D01*
X87800000Y-65010000D02*
G75*
G03*
X77300000Y-65010000I-5250000J0D01*
G01*
X77300000Y-95010000D02*
G75*
G03*
X87800000Y-95010000I5250000J0D01*
G01*
%TO.C,U3*%
X203940000Y-84400000D02*
X207540000Y-84400000D01*
X205740000Y-79950000D02*
G75*
G03*
X203901522Y-84388478I0J-2600000D01*
G01*
X207578478Y-84388478D02*
G75*
G03*
X205740000Y-79950000I-1838478J1838478D01*
G01*
%TO.C,R4*%
X110575000Y-118880000D02*
X110575000Y-119650000D01*
X111945000Y-119650000D02*
X109205000Y-119650000D01*
X109205000Y-119650000D02*
X109205000Y-126190000D01*
X111945000Y-126190000D02*
X111945000Y-119650000D01*
X109205000Y-126190000D02*
X111945000Y-126190000D01*
X110575000Y-126960000D02*
X110575000Y-126190000D01*
%TO.C,J3*%
X180660000Y-140020000D02*
X180660000Y-141920000D01*
X180660000Y-141920000D02*
X182510000Y-141920000D01*
X182510000Y-140020000D02*
X180660000Y-140020000D01*
X182510000Y-140070000D02*
X182510000Y-140020000D01*
X182510000Y-141920000D02*
X182510000Y-140070000D01*
%TO.C,C3*%
X160750000Y-101500000D02*
X160750000Y-101945000D01*
X160750000Y-101500000D02*
X166990000Y-101500000D01*
X160750000Y-103795000D02*
X160750000Y-104240000D01*
X160750000Y-104240000D02*
X166990000Y-104240000D01*
X166990000Y-101500000D02*
X166990000Y-101945000D01*
X166990000Y-103795000D02*
X166990000Y-104240000D01*
%TO.C,D5*%
X166370000Y-126930000D02*
X166370000Y-125910000D01*
X164900000Y-125910000D02*
X167840000Y-125910000D01*
X167840000Y-125910000D02*
X167840000Y-120470000D01*
X164900000Y-125130000D02*
X167840000Y-125130000D01*
X164900000Y-125010000D02*
X167840000Y-125010000D01*
X164900000Y-124890000D02*
X167840000Y-124890000D01*
X164900000Y-120470000D02*
X164900000Y-125910000D01*
X167840000Y-120470000D02*
X164900000Y-120470000D01*
X166370000Y-119450000D02*
X166370000Y-120470000D01*
%TO.C,R6*%
X193270000Y-95250000D02*
X192500000Y-95250000D01*
X192500000Y-96620000D02*
X192500000Y-93880000D01*
X192500000Y-93880000D02*
X185960000Y-93880000D01*
X185960000Y-96620000D02*
X192500000Y-96620000D01*
X185960000Y-93880000D02*
X185960000Y-96620000D01*
X185190000Y-95250000D02*
X185960000Y-95250000D01*
%TO.C,U4*%
X191240000Y-84400000D02*
X194840000Y-84400000D01*
X193040000Y-79950000D02*
G75*
G03*
X191201522Y-84388478I0J-2600000D01*
G01*
X194878478Y-84388478D02*
G75*
G03*
X193040000Y-79950000I-1838478J1838478D01*
G01*
%TO.C,R3*%
X129770000Y-138430000D02*
X129000000Y-138430000D01*
X129000000Y-139800000D02*
X129000000Y-137060000D01*
X129000000Y-137060000D02*
X122460000Y-137060000D01*
X122460000Y-139800000D02*
X129000000Y-139800000D01*
X122460000Y-137060000D02*
X122460000Y-139800000D01*
X121690000Y-138430000D02*
X122460000Y-138430000D01*
%TO.C,R5*%
X202970000Y-95250000D02*
X203740000Y-95250000D01*
X203740000Y-93880000D02*
X203740000Y-96620000D01*
X203740000Y-96620000D02*
X210280000Y-96620000D01*
X210280000Y-93880000D02*
X203740000Y-93880000D01*
X210280000Y-96620000D02*
X210280000Y-93880000D01*
X211050000Y-95250000D02*
X210280000Y-95250000D01*
%TO.C,T1*%
X101600000Y-78800000D02*
X109280000Y-78800000D01*
X101600000Y-78800000D02*
X101600000Y-76140000D01*
X109280000Y-78800000D02*
X109280000Y-76140000D01*
X99000000Y-77470000D02*
X99000000Y-76140000D01*
X99000000Y-76140000D02*
X100330000Y-76140000D01*
X101600000Y-76140000D02*
X109280000Y-76140000D01*
%TO.C,D2*%
X129610000Y-100330000D02*
X130630000Y-100330000D01*
X130630000Y-98860000D02*
X130630000Y-101800000D01*
X130630000Y-101800000D02*
X136070000Y-101800000D01*
X131410000Y-98860000D02*
X131410000Y-101800000D01*
X131530000Y-98860000D02*
X131530000Y-101800000D01*
X131650000Y-98860000D02*
X131650000Y-101800000D01*
X136070000Y-98860000D02*
X130630000Y-98860000D01*
X136070000Y-101800000D02*
X136070000Y-98860000D01*
X137090000Y-100330000D02*
X136070000Y-100330000D01*
%TO.C,A1*%
X216170000Y-101277500D02*
X218170000Y-101277500D01*
X220980000Y-101597500D02*
X175260000Y-101597500D01*
X223630000Y-122027500D02*
X223630000Y-104247500D01*
X172610000Y-122027500D02*
X172610000Y-104247500D01*
X220980000Y-124677500D02*
X175260000Y-124677500D01*
X223630000Y-104247500D02*
G75*
G03*
X220980000Y-101597500I-2650000J0D01*
G01*
X175260000Y-101597500D02*
G75*
G03*
X172610000Y-104247500I0J-2650000D01*
G01*
X220980000Y-124677500D02*
G75*
G03*
X223630000Y-122027500I0J2650000D01*
G01*
X172610000Y-122027500D02*
G75*
G03*
X175260000Y-124677500I2650000J0D01*
G01*
%TO.C,D4*%
X132010000Y-80010000D02*
X130990000Y-80010000D01*
X130990000Y-81480000D02*
X130990000Y-78540000D01*
X130990000Y-78540000D02*
X125550000Y-78540000D01*
X130210000Y-81480000D02*
X130210000Y-78540000D01*
X130090000Y-81480000D02*
X130090000Y-78540000D01*
X129970000Y-81480000D02*
X129970000Y-78540000D01*
X125550000Y-81480000D02*
X130990000Y-81480000D01*
X125550000Y-78540000D02*
X125550000Y-81480000D01*
X124530000Y-80010000D02*
X125550000Y-80010000D01*
%TO.C,Q1*%
X120610000Y-125000000D02*
X120610000Y-129641000D01*
X120610000Y-125000000D02*
X130850000Y-125000000D01*
X120610000Y-126510000D02*
X130850000Y-126510000D01*
X120610000Y-129641000D02*
X130850000Y-129641000D01*
X123880000Y-125000000D02*
X123880000Y-126510000D01*
X127581000Y-125000000D02*
X127581000Y-126510000D01*
X130850000Y-125000000D02*
X130850000Y-129641000D01*
%TO.C,R2*%
X134390000Y-118110000D02*
X135160000Y-118110000D01*
X135160000Y-116740000D02*
X135160000Y-119480000D01*
X135160000Y-119480000D02*
X141700000Y-119480000D01*
X141700000Y-116740000D02*
X135160000Y-116740000D01*
X141700000Y-119480000D02*
X141700000Y-116740000D01*
X142470000Y-118110000D02*
X141700000Y-118110000D01*
%TO.C,D1*%
X119450000Y-92710000D02*
X120470000Y-92710000D01*
X120470000Y-91240000D02*
X120470000Y-94180000D01*
X120470000Y-94180000D02*
X125910000Y-94180000D01*
X121250000Y-91240000D02*
X121250000Y-94180000D01*
X121370000Y-91240000D02*
X121370000Y-94180000D01*
X121490000Y-91240000D02*
X121490000Y-94180000D01*
X125910000Y-91240000D02*
X120470000Y-91240000D01*
X125910000Y-94180000D02*
X125910000Y-91240000D01*
X126930000Y-92710000D02*
X125910000Y-92710000D01*
%TD*%
M02*
