%TF.GenerationSoftware,KiCad,Pcbnew,7.0.2-0*%
%TF.CreationDate,2023-06-25T20:51:01-03:00*%
%TF.ProjectId,Aquario_inteligente,41717561-7269-46f5-9f69-6e74656c6967,rev?*%
%TF.SameCoordinates,Original*%
%TF.FileFunction,Soldermask,Top*%
%TF.FilePolarity,Negative*%
%FSLAX46Y46*%
G04 Gerber Fmt 4.6, Leading zero omitted, Abs format (unit mm)*
G04 Created by KiCad (PCBNEW 7.0.2-0) date 2023-06-25 20:51:01*
%MOMM*%
%LPD*%
G01*
G04 APERTURE LIST*
%ADD10R,1.700000X1.700000*%
%ADD11C,2.000000*%
%ADD12R,2.200000X2.200000*%
%ADD13O,2.200000X2.200000*%
%ADD14O,1.000000X1.000000*%
%ADD15R,1.000000X1.000000*%
%ADD16R,1.905000X2.000000*%
%ADD17O,1.905000X2.000000*%
%ADD18C,1.600000*%
%ADD19O,1.700000X1.700000*%
%ADD20C,1.400000*%
%ADD21O,1.400000X1.400000*%
%ADD22R,1.050000X1.500000*%
%ADD23O,1.050000X1.500000*%
%ADD24C,1.200000*%
%ADD25R,1.600000X1.600000*%
%ADD26O,1.600000X1.600000*%
G04 APERTURE END LIST*
D10*
%TO.C,J3*%
X181610000Y-139700000D03*
%TD*%
%TO.C,J2*%
X176530000Y-139700000D03*
%TD*%
D11*
%TO.C,C2*%
X156210000Y-95250000D03*
X161210000Y-95250000D03*
%TD*%
D12*
%TO.C,D3*%
X128270000Y-107950000D03*
D13*
X118110000Y-107950000D03*
%TD*%
D14*
%TO.C,U2*%
X157480000Y-125730000D03*
X157480000Y-124460000D03*
X157480000Y-123190000D03*
X156210000Y-123190000D03*
X156210000Y-124460000D03*
D15*
X156210000Y-125730000D03*
%TD*%
D16*
%TO.C,U1*%
X146050000Y-81280000D03*
D17*
X148590000Y-81280000D03*
X151130000Y-81280000D03*
%TD*%
D18*
%TO.C,C4*%
X110490000Y-138350000D03*
X110490000Y-130850000D03*
%TD*%
D10*
%TO.C,J1*%
X88900000Y-138190000D03*
D19*
X88900000Y-135650000D03*
%TD*%
D20*
%TO.C,R1*%
X166370000Y-133350000D03*
D21*
X166370000Y-138430000D03*
%TD*%
D11*
%TO.C,C1*%
X161370000Y-87630000D03*
X166370000Y-87630000D03*
%TD*%
D10*
%TO.C,P1*%
X88900000Y-91440000D03*
D19*
X88900000Y-93980000D03*
%TD*%
D22*
%TO.C,U3*%
X204470000Y-82550000D03*
D23*
X205740000Y-82550000D03*
X207010000Y-82550000D03*
%TD*%
D20*
%TO.C,R4*%
X110575000Y-117840000D03*
D21*
X110575000Y-125460000D03*
%TD*%
D24*
%TO.C,C3*%
X161370000Y-102870000D03*
X163370000Y-102870000D03*
%TD*%
D12*
%TO.C,D5*%
X166370000Y-128270000D03*
D13*
X166370000Y-118110000D03*
%TD*%
D20*
%TO.C,R6*%
X194310000Y-95250000D03*
D21*
X189230000Y-95250000D03*
%TD*%
D22*
%TO.C,U4*%
X191770000Y-82550000D03*
D23*
X193040000Y-82550000D03*
X194310000Y-82550000D03*
%TD*%
D20*
%TO.C,R3*%
X130810000Y-138430000D03*
D21*
X123190000Y-138430000D03*
%TD*%
D20*
%TO.C,R5*%
X201930000Y-95250000D03*
D21*
X207010000Y-95250000D03*
%TD*%
D10*
%TO.C,T1*%
X100330000Y-77470000D03*
D19*
X102870000Y-77470000D03*
X105410000Y-77470000D03*
X107950000Y-77470000D03*
%TD*%
D12*
%TO.C,D2*%
X128270000Y-100330000D03*
D13*
X138430000Y-100330000D03*
%TD*%
D25*
%TO.C,A1*%
X217170000Y-102977500D03*
D18*
X214630000Y-102977500D03*
X212090000Y-102977500D03*
X209550000Y-102977500D03*
X207010000Y-102977500D03*
X204470000Y-102977500D03*
X201930000Y-102977500D03*
X199390000Y-102977500D03*
X196850000Y-102977500D03*
X194310000Y-102977500D03*
X191770000Y-102977500D03*
X189230000Y-102977500D03*
X186690000Y-102977500D03*
X184150000Y-102977500D03*
X181610000Y-102977500D03*
X179070000Y-102977500D03*
X179070000Y-123297500D03*
X181610000Y-123297500D03*
X184150000Y-123297500D03*
X186690000Y-123297500D03*
X189230000Y-123297500D03*
X191770000Y-123297500D03*
X194310000Y-123297500D03*
X196850000Y-123297500D03*
X199390000Y-123297500D03*
X201930000Y-123297500D03*
X204470000Y-123297500D03*
X207010000Y-123297500D03*
%TD*%
D12*
%TO.C,D4*%
X133350000Y-80010000D03*
D13*
X123190000Y-80010000D03*
%TD*%
D16*
%TO.C,Q1*%
X123190000Y-128270000D03*
D17*
X125730000Y-128270000D03*
X128270000Y-128270000D03*
%TD*%
D18*
%TO.C,R2*%
X133350000Y-118110000D03*
D26*
X143510000Y-118110000D03*
%TD*%
D12*
%TO.C,D1*%
X118110000Y-92710000D03*
D13*
X128270000Y-92710000D03*
%TD*%
M02*
