%TF.GenerationSoftware,KiCad,Pcbnew,7.0.2-0*%
%TF.CreationDate,2023-06-25T20:51:01-03:00*%
%TF.ProjectId,Aquario_inteligente,41717561-7269-46f5-9f69-6e74656c6967,rev?*%
%TF.SameCoordinates,Original*%
%TF.FileFunction,Legend,Top*%
%TF.FilePolarity,Positive*%
%FSLAX46Y46*%
G04 Gerber Fmt 4.6, Leading zero omitted, Abs format (unit mm)*
G04 Created by KiCad (PCBNEW 7.0.2-0) date 2023-06-25 20:51:01*
%MOMM*%
%LPD*%
G01*
G04 APERTURE LIST*
%ADD10C,0.150000*%
%ADD11C,0.120000*%
G04 APERTURE END LIST*
D10*
%TO.C,J3*%
X181276666Y-136392619D02*
X181276666Y-137106904D01*
X181276666Y-137106904D02*
X181229047Y-137249761D01*
X181229047Y-137249761D02*
X181133809Y-137345000D01*
X181133809Y-137345000D02*
X180990952Y-137392619D01*
X180990952Y-137392619D02*
X180895714Y-137392619D01*
X181657619Y-136392619D02*
X182276666Y-136392619D01*
X182276666Y-136392619D02*
X181943333Y-136773571D01*
X181943333Y-136773571D02*
X182086190Y-136773571D01*
X182086190Y-136773571D02*
X182181428Y-136821190D01*
X182181428Y-136821190D02*
X182229047Y-136868809D01*
X182229047Y-136868809D02*
X182276666Y-136964047D01*
X182276666Y-136964047D02*
X182276666Y-137202142D01*
X182276666Y-137202142D02*
X182229047Y-137297380D01*
X182229047Y-137297380D02*
X182181428Y-137345000D01*
X182181428Y-137345000D02*
X182086190Y-137392619D01*
X182086190Y-137392619D02*
X181800476Y-137392619D01*
X181800476Y-137392619D02*
X181705238Y-137345000D01*
X181705238Y-137345000D02*
X181657619Y-137297380D01*
%TO.C,J2*%
X176196666Y-136392619D02*
X176196666Y-137106904D01*
X176196666Y-137106904D02*
X176149047Y-137249761D01*
X176149047Y-137249761D02*
X176053809Y-137345000D01*
X176053809Y-137345000D02*
X175910952Y-137392619D01*
X175910952Y-137392619D02*
X175815714Y-137392619D01*
X176625238Y-136487857D02*
X176672857Y-136440238D01*
X176672857Y-136440238D02*
X176768095Y-136392619D01*
X176768095Y-136392619D02*
X177006190Y-136392619D01*
X177006190Y-136392619D02*
X177101428Y-136440238D01*
X177101428Y-136440238D02*
X177149047Y-136487857D01*
X177149047Y-136487857D02*
X177196666Y-136583095D01*
X177196666Y-136583095D02*
X177196666Y-136678333D01*
X177196666Y-136678333D02*
X177149047Y-136821190D01*
X177149047Y-136821190D02*
X176577619Y-137392619D01*
X176577619Y-137392619D02*
X177196666Y-137392619D01*
%TO.C,C2*%
X158543333Y-91867380D02*
X158495714Y-91915000D01*
X158495714Y-91915000D02*
X158352857Y-91962619D01*
X158352857Y-91962619D02*
X158257619Y-91962619D01*
X158257619Y-91962619D02*
X158114762Y-91915000D01*
X158114762Y-91915000D02*
X158019524Y-91819761D01*
X158019524Y-91819761D02*
X157971905Y-91724523D01*
X157971905Y-91724523D02*
X157924286Y-91534047D01*
X157924286Y-91534047D02*
X157924286Y-91391190D01*
X157924286Y-91391190D02*
X157971905Y-91200714D01*
X157971905Y-91200714D02*
X158019524Y-91105476D01*
X158019524Y-91105476D02*
X158114762Y-91010238D01*
X158114762Y-91010238D02*
X158257619Y-90962619D01*
X158257619Y-90962619D02*
X158352857Y-90962619D01*
X158352857Y-90962619D02*
X158495714Y-91010238D01*
X158495714Y-91010238D02*
X158543333Y-91057857D01*
X158924286Y-91057857D02*
X158971905Y-91010238D01*
X158971905Y-91010238D02*
X159067143Y-90962619D01*
X159067143Y-90962619D02*
X159305238Y-90962619D01*
X159305238Y-90962619D02*
X159400476Y-91010238D01*
X159400476Y-91010238D02*
X159448095Y-91057857D01*
X159448095Y-91057857D02*
X159495714Y-91153095D01*
X159495714Y-91153095D02*
X159495714Y-91248333D01*
X159495714Y-91248333D02*
X159448095Y-91391190D01*
X159448095Y-91391190D02*
X158876667Y-91962619D01*
X158876667Y-91962619D02*
X159495714Y-91962619D01*
%TO.C,D3*%
X122451905Y-110882619D02*
X122451905Y-109882619D01*
X122451905Y-109882619D02*
X122690000Y-109882619D01*
X122690000Y-109882619D02*
X122832857Y-109930238D01*
X122832857Y-109930238D02*
X122928095Y-110025476D01*
X122928095Y-110025476D02*
X122975714Y-110120714D01*
X122975714Y-110120714D02*
X123023333Y-110311190D01*
X123023333Y-110311190D02*
X123023333Y-110454047D01*
X123023333Y-110454047D02*
X122975714Y-110644523D01*
X122975714Y-110644523D02*
X122928095Y-110739761D01*
X122928095Y-110739761D02*
X122832857Y-110835000D01*
X122832857Y-110835000D02*
X122690000Y-110882619D01*
X122690000Y-110882619D02*
X122451905Y-110882619D01*
X123356667Y-109882619D02*
X123975714Y-109882619D01*
X123975714Y-109882619D02*
X123642381Y-110263571D01*
X123642381Y-110263571D02*
X123785238Y-110263571D01*
X123785238Y-110263571D02*
X123880476Y-110311190D01*
X123880476Y-110311190D02*
X123928095Y-110358809D01*
X123928095Y-110358809D02*
X123975714Y-110454047D01*
X123975714Y-110454047D02*
X123975714Y-110692142D01*
X123975714Y-110692142D02*
X123928095Y-110787380D01*
X123928095Y-110787380D02*
X123880476Y-110835000D01*
X123880476Y-110835000D02*
X123785238Y-110882619D01*
X123785238Y-110882619D02*
X123499524Y-110882619D01*
X123499524Y-110882619D02*
X123404286Y-110835000D01*
X123404286Y-110835000D02*
X123356667Y-110787380D01*
X128008095Y-110512619D02*
X128008095Y-109512619D01*
X128579523Y-110512619D02*
X128150952Y-109941190D01*
X128579523Y-109512619D02*
X128008095Y-110084047D01*
%TO.C,U1*%
X147828095Y-76472619D02*
X147828095Y-77282142D01*
X147828095Y-77282142D02*
X147875714Y-77377380D01*
X147875714Y-77377380D02*
X147923333Y-77425000D01*
X147923333Y-77425000D02*
X148018571Y-77472619D01*
X148018571Y-77472619D02*
X148209047Y-77472619D01*
X148209047Y-77472619D02*
X148304285Y-77425000D01*
X148304285Y-77425000D02*
X148351904Y-77377380D01*
X148351904Y-77377380D02*
X148399523Y-77282142D01*
X148399523Y-77282142D02*
X148399523Y-76472619D01*
X149399523Y-77472619D02*
X148828095Y-77472619D01*
X149113809Y-77472619D02*
X149113809Y-76472619D01*
X149113809Y-76472619D02*
X149018571Y-76615476D01*
X149018571Y-76615476D02*
X148923333Y-76710714D01*
X148923333Y-76710714D02*
X148828095Y-76758333D01*
%TO.C,C4*%
X107607380Y-134766666D02*
X107655000Y-134814285D01*
X107655000Y-134814285D02*
X107702619Y-134957142D01*
X107702619Y-134957142D02*
X107702619Y-135052380D01*
X107702619Y-135052380D02*
X107655000Y-135195237D01*
X107655000Y-135195237D02*
X107559761Y-135290475D01*
X107559761Y-135290475D02*
X107464523Y-135338094D01*
X107464523Y-135338094D02*
X107274047Y-135385713D01*
X107274047Y-135385713D02*
X107131190Y-135385713D01*
X107131190Y-135385713D02*
X106940714Y-135338094D01*
X106940714Y-135338094D02*
X106845476Y-135290475D01*
X106845476Y-135290475D02*
X106750238Y-135195237D01*
X106750238Y-135195237D02*
X106702619Y-135052380D01*
X106702619Y-135052380D02*
X106702619Y-134957142D01*
X106702619Y-134957142D02*
X106750238Y-134814285D01*
X106750238Y-134814285D02*
X106797857Y-134766666D01*
X107035952Y-133909523D02*
X107702619Y-133909523D01*
X106655000Y-134147618D02*
X107369285Y-134385713D01*
X107369285Y-134385713D02*
X107369285Y-133766666D01*
%TO.C,J1*%
X88566666Y-140422619D02*
X88566666Y-141136904D01*
X88566666Y-141136904D02*
X88519047Y-141279761D01*
X88519047Y-141279761D02*
X88423809Y-141375000D01*
X88423809Y-141375000D02*
X88280952Y-141422619D01*
X88280952Y-141422619D02*
X88185714Y-141422619D01*
X89566666Y-141422619D02*
X88995238Y-141422619D01*
X89280952Y-141422619D02*
X89280952Y-140422619D01*
X89280952Y-140422619D02*
X89185714Y-140565476D01*
X89185714Y-140565476D02*
X89090476Y-140660714D01*
X89090476Y-140660714D02*
X88995238Y-140708333D01*
%TO.C,R1*%
X168752619Y-136056666D02*
X168276428Y-136389999D01*
X168752619Y-136628094D02*
X167752619Y-136628094D01*
X167752619Y-136628094D02*
X167752619Y-136247142D01*
X167752619Y-136247142D02*
X167800238Y-136151904D01*
X167800238Y-136151904D02*
X167847857Y-136104285D01*
X167847857Y-136104285D02*
X167943095Y-136056666D01*
X167943095Y-136056666D02*
X168085952Y-136056666D01*
X168085952Y-136056666D02*
X168181190Y-136104285D01*
X168181190Y-136104285D02*
X168228809Y-136151904D01*
X168228809Y-136151904D02*
X168276428Y-136247142D01*
X168276428Y-136247142D02*
X168276428Y-136628094D01*
X168752619Y-135104285D02*
X168752619Y-135675713D01*
X168752619Y-135389999D02*
X167752619Y-135389999D01*
X167752619Y-135389999D02*
X167895476Y-135485237D01*
X167895476Y-135485237D02*
X167990714Y-135580475D01*
X167990714Y-135580475D02*
X168038333Y-135675713D01*
%TO.C,C1*%
X163703333Y-84247380D02*
X163655714Y-84295000D01*
X163655714Y-84295000D02*
X163512857Y-84342619D01*
X163512857Y-84342619D02*
X163417619Y-84342619D01*
X163417619Y-84342619D02*
X163274762Y-84295000D01*
X163274762Y-84295000D02*
X163179524Y-84199761D01*
X163179524Y-84199761D02*
X163131905Y-84104523D01*
X163131905Y-84104523D02*
X163084286Y-83914047D01*
X163084286Y-83914047D02*
X163084286Y-83771190D01*
X163084286Y-83771190D02*
X163131905Y-83580714D01*
X163131905Y-83580714D02*
X163179524Y-83485476D01*
X163179524Y-83485476D02*
X163274762Y-83390238D01*
X163274762Y-83390238D02*
X163417619Y-83342619D01*
X163417619Y-83342619D02*
X163512857Y-83342619D01*
X163512857Y-83342619D02*
X163655714Y-83390238D01*
X163655714Y-83390238D02*
X163703333Y-83437857D01*
X164655714Y-84342619D02*
X164084286Y-84342619D01*
X164370000Y-84342619D02*
X164370000Y-83342619D01*
X164370000Y-83342619D02*
X164274762Y-83485476D01*
X164274762Y-83485476D02*
X164179524Y-83580714D01*
X164179524Y-83580714D02*
X164084286Y-83628333D01*
%TO.C,P1*%
X88161905Y-89132619D02*
X88161905Y-88132619D01*
X88161905Y-88132619D02*
X88542857Y-88132619D01*
X88542857Y-88132619D02*
X88638095Y-88180238D01*
X88638095Y-88180238D02*
X88685714Y-88227857D01*
X88685714Y-88227857D02*
X88733333Y-88323095D01*
X88733333Y-88323095D02*
X88733333Y-88465952D01*
X88733333Y-88465952D02*
X88685714Y-88561190D01*
X88685714Y-88561190D02*
X88638095Y-88608809D01*
X88638095Y-88608809D02*
X88542857Y-88656428D01*
X88542857Y-88656428D02*
X88161905Y-88656428D01*
X89685714Y-89132619D02*
X89114286Y-89132619D01*
X89400000Y-89132619D02*
X89400000Y-88132619D01*
X89400000Y-88132619D02*
X89304762Y-88275476D01*
X89304762Y-88275476D02*
X89209524Y-88370714D01*
X89209524Y-88370714D02*
X89114286Y-88418333D01*
%TO.C,U3*%
X204978095Y-78452619D02*
X204978095Y-79262142D01*
X204978095Y-79262142D02*
X205025714Y-79357380D01*
X205025714Y-79357380D02*
X205073333Y-79405000D01*
X205073333Y-79405000D02*
X205168571Y-79452619D01*
X205168571Y-79452619D02*
X205359047Y-79452619D01*
X205359047Y-79452619D02*
X205454285Y-79405000D01*
X205454285Y-79405000D02*
X205501904Y-79357380D01*
X205501904Y-79357380D02*
X205549523Y-79262142D01*
X205549523Y-79262142D02*
X205549523Y-78452619D01*
X205930476Y-78452619D02*
X206549523Y-78452619D01*
X206549523Y-78452619D02*
X206216190Y-78833571D01*
X206216190Y-78833571D02*
X206359047Y-78833571D01*
X206359047Y-78833571D02*
X206454285Y-78881190D01*
X206454285Y-78881190D02*
X206501904Y-78928809D01*
X206501904Y-78928809D02*
X206549523Y-79024047D01*
X206549523Y-79024047D02*
X206549523Y-79262142D01*
X206549523Y-79262142D02*
X206501904Y-79357380D01*
X206501904Y-79357380D02*
X206454285Y-79405000D01*
X206454285Y-79405000D02*
X206359047Y-79452619D01*
X206359047Y-79452619D02*
X206073333Y-79452619D01*
X206073333Y-79452619D02*
X205978095Y-79405000D01*
X205978095Y-79405000D02*
X205930476Y-79357380D01*
%TO.C,R4*%
X112957619Y-121816666D02*
X112481428Y-122149999D01*
X112957619Y-122388094D02*
X111957619Y-122388094D01*
X111957619Y-122388094D02*
X111957619Y-122007142D01*
X111957619Y-122007142D02*
X112005238Y-121911904D01*
X112005238Y-121911904D02*
X112052857Y-121864285D01*
X112052857Y-121864285D02*
X112148095Y-121816666D01*
X112148095Y-121816666D02*
X112290952Y-121816666D01*
X112290952Y-121816666D02*
X112386190Y-121864285D01*
X112386190Y-121864285D02*
X112433809Y-121911904D01*
X112433809Y-121911904D02*
X112481428Y-122007142D01*
X112481428Y-122007142D02*
X112481428Y-122388094D01*
X112290952Y-120959523D02*
X112957619Y-120959523D01*
X111910000Y-121197618D02*
X112624285Y-121435713D01*
X112624285Y-121435713D02*
X112624285Y-120816666D01*
%TO.C,C3*%
X162203333Y-99487380D02*
X162155714Y-99535000D01*
X162155714Y-99535000D02*
X162012857Y-99582619D01*
X162012857Y-99582619D02*
X161917619Y-99582619D01*
X161917619Y-99582619D02*
X161774762Y-99535000D01*
X161774762Y-99535000D02*
X161679524Y-99439761D01*
X161679524Y-99439761D02*
X161631905Y-99344523D01*
X161631905Y-99344523D02*
X161584286Y-99154047D01*
X161584286Y-99154047D02*
X161584286Y-99011190D01*
X161584286Y-99011190D02*
X161631905Y-98820714D01*
X161631905Y-98820714D02*
X161679524Y-98725476D01*
X161679524Y-98725476D02*
X161774762Y-98630238D01*
X161774762Y-98630238D02*
X161917619Y-98582619D01*
X161917619Y-98582619D02*
X162012857Y-98582619D01*
X162012857Y-98582619D02*
X162155714Y-98630238D01*
X162155714Y-98630238D02*
X162203333Y-98677857D01*
X162536667Y-98582619D02*
X163155714Y-98582619D01*
X163155714Y-98582619D02*
X162822381Y-98963571D01*
X162822381Y-98963571D02*
X162965238Y-98963571D01*
X162965238Y-98963571D02*
X163060476Y-99011190D01*
X163060476Y-99011190D02*
X163108095Y-99058809D01*
X163108095Y-99058809D02*
X163155714Y-99154047D01*
X163155714Y-99154047D02*
X163155714Y-99392142D01*
X163155714Y-99392142D02*
X163108095Y-99487380D01*
X163108095Y-99487380D02*
X163060476Y-99535000D01*
X163060476Y-99535000D02*
X162965238Y-99582619D01*
X162965238Y-99582619D02*
X162679524Y-99582619D01*
X162679524Y-99582619D02*
X162584286Y-99535000D01*
X162584286Y-99535000D02*
X162536667Y-99487380D01*
%TO.C,D5*%
X164362619Y-123928094D02*
X163362619Y-123928094D01*
X163362619Y-123928094D02*
X163362619Y-123689999D01*
X163362619Y-123689999D02*
X163410238Y-123547142D01*
X163410238Y-123547142D02*
X163505476Y-123451904D01*
X163505476Y-123451904D02*
X163600714Y-123404285D01*
X163600714Y-123404285D02*
X163791190Y-123356666D01*
X163791190Y-123356666D02*
X163934047Y-123356666D01*
X163934047Y-123356666D02*
X164124523Y-123404285D01*
X164124523Y-123404285D02*
X164219761Y-123451904D01*
X164219761Y-123451904D02*
X164315000Y-123547142D01*
X164315000Y-123547142D02*
X164362619Y-123689999D01*
X164362619Y-123689999D02*
X164362619Y-123928094D01*
X163362619Y-122451904D02*
X163362619Y-122928094D01*
X163362619Y-122928094D02*
X163838809Y-122975713D01*
X163838809Y-122975713D02*
X163791190Y-122928094D01*
X163791190Y-122928094D02*
X163743571Y-122832856D01*
X163743571Y-122832856D02*
X163743571Y-122594761D01*
X163743571Y-122594761D02*
X163791190Y-122499523D01*
X163791190Y-122499523D02*
X163838809Y-122451904D01*
X163838809Y-122451904D02*
X163934047Y-122404285D01*
X163934047Y-122404285D02*
X164172142Y-122404285D01*
X164172142Y-122404285D02*
X164267380Y-122451904D01*
X164267380Y-122451904D02*
X164315000Y-122499523D01*
X164315000Y-122499523D02*
X164362619Y-122594761D01*
X164362619Y-122594761D02*
X164362619Y-122832856D01*
X164362619Y-122832856D02*
X164315000Y-122928094D01*
X164315000Y-122928094D02*
X164267380Y-122975713D01*
X164732619Y-128531904D02*
X163732619Y-128531904D01*
X164732619Y-127960476D02*
X164161190Y-128389047D01*
X163732619Y-127960476D02*
X164304047Y-128531904D01*
%TO.C,R6*%
X191603333Y-97632619D02*
X191270000Y-97156428D01*
X191031905Y-97632619D02*
X191031905Y-96632619D01*
X191031905Y-96632619D02*
X191412857Y-96632619D01*
X191412857Y-96632619D02*
X191508095Y-96680238D01*
X191508095Y-96680238D02*
X191555714Y-96727857D01*
X191555714Y-96727857D02*
X191603333Y-96823095D01*
X191603333Y-96823095D02*
X191603333Y-96965952D01*
X191603333Y-96965952D02*
X191555714Y-97061190D01*
X191555714Y-97061190D02*
X191508095Y-97108809D01*
X191508095Y-97108809D02*
X191412857Y-97156428D01*
X191412857Y-97156428D02*
X191031905Y-97156428D01*
X192460476Y-96632619D02*
X192270000Y-96632619D01*
X192270000Y-96632619D02*
X192174762Y-96680238D01*
X192174762Y-96680238D02*
X192127143Y-96727857D01*
X192127143Y-96727857D02*
X192031905Y-96870714D01*
X192031905Y-96870714D02*
X191984286Y-97061190D01*
X191984286Y-97061190D02*
X191984286Y-97442142D01*
X191984286Y-97442142D02*
X192031905Y-97537380D01*
X192031905Y-97537380D02*
X192079524Y-97585000D01*
X192079524Y-97585000D02*
X192174762Y-97632619D01*
X192174762Y-97632619D02*
X192365238Y-97632619D01*
X192365238Y-97632619D02*
X192460476Y-97585000D01*
X192460476Y-97585000D02*
X192508095Y-97537380D01*
X192508095Y-97537380D02*
X192555714Y-97442142D01*
X192555714Y-97442142D02*
X192555714Y-97204047D01*
X192555714Y-97204047D02*
X192508095Y-97108809D01*
X192508095Y-97108809D02*
X192460476Y-97061190D01*
X192460476Y-97061190D02*
X192365238Y-97013571D01*
X192365238Y-97013571D02*
X192174762Y-97013571D01*
X192174762Y-97013571D02*
X192079524Y-97061190D01*
X192079524Y-97061190D02*
X192031905Y-97108809D01*
X192031905Y-97108809D02*
X191984286Y-97204047D01*
%TO.C,U4*%
X192278095Y-78452619D02*
X192278095Y-79262142D01*
X192278095Y-79262142D02*
X192325714Y-79357380D01*
X192325714Y-79357380D02*
X192373333Y-79405000D01*
X192373333Y-79405000D02*
X192468571Y-79452619D01*
X192468571Y-79452619D02*
X192659047Y-79452619D01*
X192659047Y-79452619D02*
X192754285Y-79405000D01*
X192754285Y-79405000D02*
X192801904Y-79357380D01*
X192801904Y-79357380D02*
X192849523Y-79262142D01*
X192849523Y-79262142D02*
X192849523Y-78452619D01*
X193754285Y-78785952D02*
X193754285Y-79452619D01*
X193516190Y-78405000D02*
X193278095Y-79119285D01*
X193278095Y-79119285D02*
X193897142Y-79119285D01*
%TO.C,R3*%
X126833333Y-140812619D02*
X126500000Y-140336428D01*
X126261905Y-140812619D02*
X126261905Y-139812619D01*
X126261905Y-139812619D02*
X126642857Y-139812619D01*
X126642857Y-139812619D02*
X126738095Y-139860238D01*
X126738095Y-139860238D02*
X126785714Y-139907857D01*
X126785714Y-139907857D02*
X126833333Y-140003095D01*
X126833333Y-140003095D02*
X126833333Y-140145952D01*
X126833333Y-140145952D02*
X126785714Y-140241190D01*
X126785714Y-140241190D02*
X126738095Y-140288809D01*
X126738095Y-140288809D02*
X126642857Y-140336428D01*
X126642857Y-140336428D02*
X126261905Y-140336428D01*
X127166667Y-139812619D02*
X127785714Y-139812619D01*
X127785714Y-139812619D02*
X127452381Y-140193571D01*
X127452381Y-140193571D02*
X127595238Y-140193571D01*
X127595238Y-140193571D02*
X127690476Y-140241190D01*
X127690476Y-140241190D02*
X127738095Y-140288809D01*
X127738095Y-140288809D02*
X127785714Y-140384047D01*
X127785714Y-140384047D02*
X127785714Y-140622142D01*
X127785714Y-140622142D02*
X127738095Y-140717380D01*
X127738095Y-140717380D02*
X127690476Y-140765000D01*
X127690476Y-140765000D02*
X127595238Y-140812619D01*
X127595238Y-140812619D02*
X127309524Y-140812619D01*
X127309524Y-140812619D02*
X127214286Y-140765000D01*
X127214286Y-140765000D02*
X127166667Y-140717380D01*
%TO.C,R5*%
X204303333Y-93792619D02*
X203970000Y-93316428D01*
X203731905Y-93792619D02*
X203731905Y-92792619D01*
X203731905Y-92792619D02*
X204112857Y-92792619D01*
X204112857Y-92792619D02*
X204208095Y-92840238D01*
X204208095Y-92840238D02*
X204255714Y-92887857D01*
X204255714Y-92887857D02*
X204303333Y-92983095D01*
X204303333Y-92983095D02*
X204303333Y-93125952D01*
X204303333Y-93125952D02*
X204255714Y-93221190D01*
X204255714Y-93221190D02*
X204208095Y-93268809D01*
X204208095Y-93268809D02*
X204112857Y-93316428D01*
X204112857Y-93316428D02*
X203731905Y-93316428D01*
X205208095Y-92792619D02*
X204731905Y-92792619D01*
X204731905Y-92792619D02*
X204684286Y-93268809D01*
X204684286Y-93268809D02*
X204731905Y-93221190D01*
X204731905Y-93221190D02*
X204827143Y-93173571D01*
X204827143Y-93173571D02*
X205065238Y-93173571D01*
X205065238Y-93173571D02*
X205160476Y-93221190D01*
X205160476Y-93221190D02*
X205208095Y-93268809D01*
X205208095Y-93268809D02*
X205255714Y-93364047D01*
X205255714Y-93364047D02*
X205255714Y-93602142D01*
X205255714Y-93602142D02*
X205208095Y-93697380D01*
X205208095Y-93697380D02*
X205160476Y-93745000D01*
X205160476Y-93745000D02*
X205065238Y-93792619D01*
X205065238Y-93792619D02*
X204827143Y-93792619D01*
X204827143Y-93792619D02*
X204731905Y-93745000D01*
X204731905Y-93745000D02*
X204684286Y-93697380D01*
%TO.C,T1*%
X97022619Y-78231904D02*
X97022619Y-77660476D01*
X98022619Y-77946190D02*
X97022619Y-77946190D01*
X98022619Y-76803333D02*
X98022619Y-77374761D01*
X98022619Y-77089047D02*
X97022619Y-77089047D01*
X97022619Y-77089047D02*
X97165476Y-77184285D01*
X97165476Y-77184285D02*
X97260714Y-77279523D01*
X97260714Y-77279523D02*
X97308333Y-77374761D01*
%TO.C,D2*%
X132611905Y-98322619D02*
X132611905Y-97322619D01*
X132611905Y-97322619D02*
X132850000Y-97322619D01*
X132850000Y-97322619D02*
X132992857Y-97370238D01*
X132992857Y-97370238D02*
X133088095Y-97465476D01*
X133088095Y-97465476D02*
X133135714Y-97560714D01*
X133135714Y-97560714D02*
X133183333Y-97751190D01*
X133183333Y-97751190D02*
X133183333Y-97894047D01*
X133183333Y-97894047D02*
X133135714Y-98084523D01*
X133135714Y-98084523D02*
X133088095Y-98179761D01*
X133088095Y-98179761D02*
X132992857Y-98275000D01*
X132992857Y-98275000D02*
X132850000Y-98322619D01*
X132850000Y-98322619D02*
X132611905Y-98322619D01*
X133564286Y-97417857D02*
X133611905Y-97370238D01*
X133611905Y-97370238D02*
X133707143Y-97322619D01*
X133707143Y-97322619D02*
X133945238Y-97322619D01*
X133945238Y-97322619D02*
X134040476Y-97370238D01*
X134040476Y-97370238D02*
X134088095Y-97417857D01*
X134088095Y-97417857D02*
X134135714Y-97513095D01*
X134135714Y-97513095D02*
X134135714Y-97608333D01*
X134135714Y-97608333D02*
X134088095Y-97751190D01*
X134088095Y-97751190D02*
X133516667Y-98322619D01*
X133516667Y-98322619D02*
X134135714Y-98322619D01*
X128008095Y-98692619D02*
X128008095Y-97692619D01*
X128579523Y-98692619D02*
X128150952Y-98121190D01*
X128579523Y-97692619D02*
X128008095Y-98264047D01*
%TO.C,A1*%
X224966904Y-113851785D02*
X224966904Y-113375595D01*
X225252619Y-113947023D02*
X224252619Y-113613690D01*
X224252619Y-113613690D02*
X225252619Y-113280357D01*
X225252619Y-112423214D02*
X225252619Y-112994642D01*
X225252619Y-112708928D02*
X224252619Y-112708928D01*
X224252619Y-112708928D02*
X224395476Y-112804166D01*
X224395476Y-112804166D02*
X224490714Y-112899404D01*
X224490714Y-112899404D02*
X224538333Y-112994642D01*
%TO.C,D4*%
X127531905Y-82942619D02*
X127531905Y-81942619D01*
X127531905Y-81942619D02*
X127770000Y-81942619D01*
X127770000Y-81942619D02*
X127912857Y-81990238D01*
X127912857Y-81990238D02*
X128008095Y-82085476D01*
X128008095Y-82085476D02*
X128055714Y-82180714D01*
X128055714Y-82180714D02*
X128103333Y-82371190D01*
X128103333Y-82371190D02*
X128103333Y-82514047D01*
X128103333Y-82514047D02*
X128055714Y-82704523D01*
X128055714Y-82704523D02*
X128008095Y-82799761D01*
X128008095Y-82799761D02*
X127912857Y-82895000D01*
X127912857Y-82895000D02*
X127770000Y-82942619D01*
X127770000Y-82942619D02*
X127531905Y-82942619D01*
X128960476Y-82275952D02*
X128960476Y-82942619D01*
X128722381Y-81895000D02*
X128484286Y-82609285D01*
X128484286Y-82609285D02*
X129103333Y-82609285D01*
X133088095Y-82572619D02*
X133088095Y-81572619D01*
X133659523Y-82572619D02*
X133230952Y-82001190D01*
X133659523Y-81572619D02*
X133088095Y-82144047D01*
%TO.C,Q1*%
X118667857Y-128365238D02*
X118620238Y-128460476D01*
X118620238Y-128460476D02*
X118525000Y-128555714D01*
X118525000Y-128555714D02*
X118382142Y-128698571D01*
X118382142Y-128698571D02*
X118334523Y-128793809D01*
X118334523Y-128793809D02*
X118334523Y-128889047D01*
X118572619Y-128841428D02*
X118525000Y-128936666D01*
X118525000Y-128936666D02*
X118429761Y-129031904D01*
X118429761Y-129031904D02*
X118239285Y-129079523D01*
X118239285Y-129079523D02*
X117905952Y-129079523D01*
X117905952Y-129079523D02*
X117715476Y-129031904D01*
X117715476Y-129031904D02*
X117620238Y-128936666D01*
X117620238Y-128936666D02*
X117572619Y-128841428D01*
X117572619Y-128841428D02*
X117572619Y-128650952D01*
X117572619Y-128650952D02*
X117620238Y-128555714D01*
X117620238Y-128555714D02*
X117715476Y-128460476D01*
X117715476Y-128460476D02*
X117905952Y-128412857D01*
X117905952Y-128412857D02*
X118239285Y-128412857D01*
X118239285Y-128412857D02*
X118429761Y-128460476D01*
X118429761Y-128460476D02*
X118525000Y-128555714D01*
X118525000Y-128555714D02*
X118572619Y-128650952D01*
X118572619Y-128650952D02*
X118572619Y-128841428D01*
X118572619Y-127460476D02*
X118572619Y-128031904D01*
X118572619Y-127746190D02*
X117572619Y-127746190D01*
X117572619Y-127746190D02*
X117715476Y-127841428D01*
X117715476Y-127841428D02*
X117810714Y-127936666D01*
X117810714Y-127936666D02*
X117858333Y-128031904D01*
%TO.C,R2*%
X138263333Y-116202619D02*
X137930000Y-115726428D01*
X137691905Y-116202619D02*
X137691905Y-115202619D01*
X137691905Y-115202619D02*
X138072857Y-115202619D01*
X138072857Y-115202619D02*
X138168095Y-115250238D01*
X138168095Y-115250238D02*
X138215714Y-115297857D01*
X138215714Y-115297857D02*
X138263333Y-115393095D01*
X138263333Y-115393095D02*
X138263333Y-115535952D01*
X138263333Y-115535952D02*
X138215714Y-115631190D01*
X138215714Y-115631190D02*
X138168095Y-115678809D01*
X138168095Y-115678809D02*
X138072857Y-115726428D01*
X138072857Y-115726428D02*
X137691905Y-115726428D01*
X138644286Y-115297857D02*
X138691905Y-115250238D01*
X138691905Y-115250238D02*
X138787143Y-115202619D01*
X138787143Y-115202619D02*
X139025238Y-115202619D01*
X139025238Y-115202619D02*
X139120476Y-115250238D01*
X139120476Y-115250238D02*
X139168095Y-115297857D01*
X139168095Y-115297857D02*
X139215714Y-115393095D01*
X139215714Y-115393095D02*
X139215714Y-115488333D01*
X139215714Y-115488333D02*
X139168095Y-115631190D01*
X139168095Y-115631190D02*
X138596667Y-116202619D01*
X138596667Y-116202619D02*
X139215714Y-116202619D01*
%TO.C,D1*%
X122451905Y-90702619D02*
X122451905Y-89702619D01*
X122451905Y-89702619D02*
X122690000Y-89702619D01*
X122690000Y-89702619D02*
X122832857Y-89750238D01*
X122832857Y-89750238D02*
X122928095Y-89845476D01*
X122928095Y-89845476D02*
X122975714Y-89940714D01*
X122975714Y-89940714D02*
X123023333Y-90131190D01*
X123023333Y-90131190D02*
X123023333Y-90274047D01*
X123023333Y-90274047D02*
X122975714Y-90464523D01*
X122975714Y-90464523D02*
X122928095Y-90559761D01*
X122928095Y-90559761D02*
X122832857Y-90655000D01*
X122832857Y-90655000D02*
X122690000Y-90702619D01*
X122690000Y-90702619D02*
X122451905Y-90702619D01*
X123975714Y-90702619D02*
X123404286Y-90702619D01*
X123690000Y-90702619D02*
X123690000Y-89702619D01*
X123690000Y-89702619D02*
X123594762Y-89845476D01*
X123594762Y-89845476D02*
X123499524Y-89940714D01*
X123499524Y-89940714D02*
X123404286Y-89988333D01*
X117848095Y-91072619D02*
X117848095Y-90072619D01*
X118419523Y-91072619D02*
X117990952Y-90501190D01*
X118419523Y-90072619D02*
X117848095Y-90644047D01*
D11*
%TO.C,J3*%
X180280000Y-140910000D02*
X180280000Y-141030000D01*
X180280000Y-141030000D02*
X182940000Y-141030000D01*
X182940000Y-140910000D02*
X182940000Y-141030000D01*
X182940000Y-138370000D02*
X182940000Y-139700000D01*
X181610000Y-138370000D02*
X182940000Y-138370000D01*
%TO.C,J2*%
X175200000Y-140910000D02*
X175200000Y-141030000D01*
X175200000Y-141030000D02*
X177860000Y-141030000D01*
X177860000Y-140910000D02*
X177860000Y-141030000D01*
X177860000Y-138370000D02*
X177860000Y-139700000D01*
X176530000Y-138370000D02*
X177860000Y-138370000D01*
%TO.C,C2*%
X153090000Y-92630000D02*
X153090000Y-97870000D01*
X153090000Y-92630000D02*
X164330000Y-92630000D01*
X153090000Y-97870000D02*
X164330000Y-97870000D01*
X164330000Y-92630000D02*
X164330000Y-97870000D01*
%TO.C,D3*%
X126930000Y-107950000D02*
X125910000Y-107950000D01*
X125910000Y-109420000D02*
X125910000Y-106480000D01*
X125910000Y-106480000D02*
X120470000Y-106480000D01*
X125130000Y-109420000D02*
X125130000Y-106480000D01*
X125010000Y-109420000D02*
X125010000Y-106480000D01*
X124890000Y-109420000D02*
X124890000Y-106480000D01*
X120470000Y-109420000D02*
X125910000Y-109420000D01*
X120470000Y-106480000D02*
X120470000Y-109420000D01*
X119450000Y-107950000D02*
X120470000Y-107950000D01*
%TO.C,U2*%
X158430000Y-126425000D02*
X158430000Y-122495000D01*
X158430000Y-126425000D02*
X157787530Y-126425000D01*
X158430000Y-122495000D02*
X157787530Y-122495000D01*
X157172470Y-126425000D02*
X156970000Y-126425000D01*
X157172470Y-122495000D02*
X156517530Y-122495000D01*
X156210000Y-126490000D02*
X155260000Y-126490000D01*
X155902470Y-122495000D02*
X155260000Y-122495000D01*
X155450000Y-125095000D02*
X155260000Y-125095000D01*
X155260000Y-126490000D02*
X155260000Y-125730000D01*
X155260000Y-125095000D02*
X155260000Y-122495000D01*
%TO.C,U1*%
X143470000Y-78010000D02*
X143470000Y-82651000D01*
X143470000Y-78010000D02*
X153710000Y-78010000D01*
X143470000Y-79520000D02*
X153710000Y-79520000D01*
X143470000Y-82651000D02*
X153710000Y-82651000D01*
X146740000Y-78010000D02*
X146740000Y-79520000D01*
X150441000Y-78010000D02*
X150441000Y-79520000D01*
X153710000Y-78010000D02*
X153710000Y-82651000D01*
%TO.C,C4*%
X108370000Y-139220000D02*
X109825000Y-139220000D01*
X108370000Y-139220000D02*
X108370000Y-129980000D01*
X111155000Y-139220000D02*
X112610000Y-139220000D01*
X112610000Y-139220000D02*
X112610000Y-129980000D01*
X108370000Y-129980000D02*
X109825000Y-129980000D01*
X111155000Y-129980000D02*
X112610000Y-129980000D01*
%TO.C,J1*%
X90230000Y-136920000D02*
X90230000Y-134320000D01*
X90230000Y-136920000D02*
X87570000Y-136920000D01*
X90230000Y-134320000D02*
X87570000Y-134320000D01*
X88900000Y-139520000D02*
X87570000Y-139520000D01*
X87570000Y-139520000D02*
X87570000Y-138190000D01*
X87570000Y-136920000D02*
X87570000Y-134320000D01*
%TO.C,R1*%
X167290000Y-133970000D02*
X167290000Y-137810000D01*
X165450000Y-133970000D02*
X165450000Y-137810000D01*
%TO.C,C1*%
X158250000Y-85010000D02*
X158250000Y-90250000D01*
X158250000Y-85010000D02*
X169490000Y-85010000D01*
X158250000Y-90250000D02*
X169490000Y-90250000D01*
X169490000Y-85010000D02*
X169490000Y-90250000D01*
%TO.C,P1*%
X87570000Y-92710000D02*
X87570000Y-95310000D01*
X87570000Y-92710000D02*
X90230000Y-92710000D01*
X87570000Y-95310000D02*
X90230000Y-95310000D01*
X88900000Y-90110000D02*
X90230000Y-90110000D01*
X90230000Y-90110000D02*
X90230000Y-91440000D01*
X90230000Y-92710000D02*
X90230000Y-95310000D01*
%TO.C,U3*%
X203940000Y-84400000D02*
X207540000Y-84400000D01*
X205740000Y-79950000D02*
G75*
G03*
X203901522Y-84388478I0J-2600000D01*
G01*
X207578478Y-84388478D02*
G75*
G03*
X205740000Y-79950000I-1838478J1838478D01*
G01*
%TO.C,R4*%
X110575000Y-118780000D02*
X110575000Y-119730000D01*
X111495000Y-119730000D02*
X109655000Y-119730000D01*
X109655000Y-119730000D02*
X109655000Y-123570000D01*
X111495000Y-123570000D02*
X111495000Y-119730000D01*
X109655000Y-123570000D02*
X111495000Y-123570000D01*
X110575000Y-124520000D02*
X110575000Y-123570000D01*
%TO.C,C3*%
X164990000Y-102870000D02*
G75*
G03*
X164990000Y-102870000I-2620000J0D01*
G01*
%TO.C,D5*%
X166370000Y-126930000D02*
X166370000Y-125910000D01*
X164900000Y-125910000D02*
X167840000Y-125910000D01*
X167840000Y-125910000D02*
X167840000Y-120470000D01*
X164900000Y-125130000D02*
X167840000Y-125130000D01*
X164900000Y-125010000D02*
X167840000Y-125010000D01*
X164900000Y-124890000D02*
X167840000Y-124890000D01*
X164900000Y-120470000D02*
X164900000Y-125910000D01*
X167840000Y-120470000D02*
X164900000Y-120470000D01*
X166370000Y-119450000D02*
X166370000Y-120470000D01*
%TO.C,R6*%
X193690000Y-96170000D02*
X189850000Y-96170000D01*
X193690000Y-94330000D02*
X189850000Y-94330000D01*
%TO.C,U4*%
X191240000Y-84400000D02*
X194840000Y-84400000D01*
X193040000Y-79950000D02*
G75*
G03*
X191201522Y-84388478I0J-2600000D01*
G01*
X194878478Y-84388478D02*
G75*
G03*
X193040000Y-79950000I-1838478J1838478D01*
G01*
%TO.C,R3*%
X129870000Y-138430000D02*
X128920000Y-138430000D01*
X128920000Y-139350000D02*
X128920000Y-137510000D01*
X128920000Y-137510000D02*
X125080000Y-137510000D01*
X125080000Y-139350000D02*
X128920000Y-139350000D01*
X125080000Y-137510000D02*
X125080000Y-139350000D01*
X124130000Y-138430000D02*
X125080000Y-138430000D01*
%TO.C,R5*%
X202550000Y-94330000D02*
X206390000Y-94330000D01*
X202550000Y-96170000D02*
X206390000Y-96170000D01*
%TO.C,T1*%
X101600000Y-78800000D02*
X109280000Y-78800000D01*
X101600000Y-78800000D02*
X101600000Y-76140000D01*
X109280000Y-78800000D02*
X109280000Y-76140000D01*
X99000000Y-77470000D02*
X99000000Y-76140000D01*
X99000000Y-76140000D02*
X100330000Y-76140000D01*
X101600000Y-76140000D02*
X109280000Y-76140000D01*
%TO.C,D2*%
X129610000Y-100330000D02*
X130630000Y-100330000D01*
X130630000Y-98860000D02*
X130630000Y-101800000D01*
X130630000Y-101800000D02*
X136070000Y-101800000D01*
X131410000Y-98860000D02*
X131410000Y-101800000D01*
X131530000Y-98860000D02*
X131530000Y-101800000D01*
X131650000Y-98860000D02*
X131650000Y-101800000D01*
X136070000Y-98860000D02*
X130630000Y-98860000D01*
X136070000Y-101800000D02*
X136070000Y-98860000D01*
X137090000Y-100330000D02*
X136070000Y-100330000D01*
%TO.C,A1*%
X216170000Y-101277500D02*
X218170000Y-101277500D01*
X220980000Y-101597500D02*
X175260000Y-101597500D01*
X223630000Y-122027500D02*
X223630000Y-104247500D01*
X172610000Y-122027500D02*
X172610000Y-104247500D01*
X220980000Y-124677500D02*
X175260000Y-124677500D01*
X223630000Y-104247500D02*
G75*
G03*
X220980000Y-101597500I-2650000J0D01*
G01*
X175260000Y-101597500D02*
G75*
G03*
X172610000Y-104247500I0J-2650000D01*
G01*
X220980000Y-124677500D02*
G75*
G03*
X223630000Y-122027500I0J2650000D01*
G01*
X172610000Y-122027500D02*
G75*
G03*
X175260000Y-124677500I2650000J0D01*
G01*
%TO.C,D4*%
X132010000Y-80010000D02*
X130990000Y-80010000D01*
X130990000Y-81480000D02*
X130990000Y-78540000D01*
X130990000Y-78540000D02*
X125550000Y-78540000D01*
X130210000Y-81480000D02*
X130210000Y-78540000D01*
X130090000Y-81480000D02*
X130090000Y-78540000D01*
X129970000Y-81480000D02*
X129970000Y-78540000D01*
X125550000Y-81480000D02*
X130990000Y-81480000D01*
X125550000Y-78540000D02*
X125550000Y-81480000D01*
X124530000Y-80010000D02*
X125550000Y-80010000D01*
%TO.C,Q1*%
X120610000Y-125000000D02*
X120610000Y-129641000D01*
X120610000Y-125000000D02*
X130850000Y-125000000D01*
X120610000Y-126510000D02*
X130850000Y-126510000D01*
X120610000Y-129641000D02*
X130850000Y-129641000D01*
X123880000Y-125000000D02*
X123880000Y-126510000D01*
X127581000Y-125000000D02*
X127581000Y-126510000D01*
X130850000Y-125000000D02*
X130850000Y-129641000D01*
%TO.C,R2*%
X134390000Y-118110000D02*
X135160000Y-118110000D01*
X135160000Y-116740000D02*
X135160000Y-119480000D01*
X135160000Y-119480000D02*
X141700000Y-119480000D01*
X141700000Y-116740000D02*
X135160000Y-116740000D01*
X141700000Y-119480000D02*
X141700000Y-116740000D01*
X142470000Y-118110000D02*
X141700000Y-118110000D01*
%TO.C,D1*%
X119450000Y-92710000D02*
X120470000Y-92710000D01*
X120470000Y-91240000D02*
X120470000Y-94180000D01*
X120470000Y-94180000D02*
X125910000Y-94180000D01*
X121250000Y-91240000D02*
X121250000Y-94180000D01*
X121370000Y-91240000D02*
X121370000Y-94180000D01*
X121490000Y-91240000D02*
X121490000Y-94180000D01*
X125910000Y-91240000D02*
X120470000Y-91240000D01*
X125910000Y-94180000D02*
X125910000Y-91240000D01*
X126930000Y-92710000D02*
X125910000Y-92710000D01*
%TD*%
M02*
