%TF.GenerationSoftware,KiCad,Pcbnew,7.0.2-0*%
%TF.CreationDate,2023-06-25T20:51:01-03:00*%
%TF.ProjectId,Aquario_inteligente,41717561-7269-46f5-9f69-6e74656c6967,rev?*%
%TF.SameCoordinates,Original*%
%TF.FileFunction,Copper,L1,Top*%
%TF.FilePolarity,Positive*%
%FSLAX46Y46*%
G04 Gerber Fmt 4.6, Leading zero omitted, Abs format (unit mm)*
G04 Created by KiCad (PCBNEW 7.0.2-0) date 2023-06-25 20:51:01*
%MOMM*%
%LPD*%
G01*
G04 APERTURE LIST*
%TA.AperFunction,ComponentPad*%
%ADD10R,1.700000X1.700000*%
%TD*%
%TA.AperFunction,ComponentPad*%
%ADD11C,2.000000*%
%TD*%
%TA.AperFunction,ComponentPad*%
%ADD12R,2.200000X2.200000*%
%TD*%
%TA.AperFunction,ComponentPad*%
%ADD13O,2.200000X2.200000*%
%TD*%
%TA.AperFunction,ComponentPad*%
%ADD14O,1.000000X1.000000*%
%TD*%
%TA.AperFunction,ComponentPad*%
%ADD15R,1.000000X1.000000*%
%TD*%
%TA.AperFunction,ComponentPad*%
%ADD16R,1.905000X2.000000*%
%TD*%
%TA.AperFunction,ComponentPad*%
%ADD17O,1.905000X2.000000*%
%TD*%
%TA.AperFunction,ComponentPad*%
%ADD18C,1.600000*%
%TD*%
%TA.AperFunction,ComponentPad*%
%ADD19O,1.700000X1.700000*%
%TD*%
%TA.AperFunction,ComponentPad*%
%ADD20C,1.400000*%
%TD*%
%TA.AperFunction,ComponentPad*%
%ADD21O,1.400000X1.400000*%
%TD*%
%TA.AperFunction,ComponentPad*%
%ADD22R,1.050000X1.500000*%
%TD*%
%TA.AperFunction,ComponentPad*%
%ADD23O,1.050000X1.500000*%
%TD*%
%TA.AperFunction,ComponentPad*%
%ADD24C,1.200000*%
%TD*%
%TA.AperFunction,ComponentPad*%
%ADD25R,1.600000X1.600000*%
%TD*%
%TA.AperFunction,ComponentPad*%
%ADD26O,1.600000X1.600000*%
%TD*%
%TA.AperFunction,Conductor*%
%ADD27C,0.800000*%
%TD*%
G04 APERTURE END LIST*
D10*
%TO.P,J3,1,Pin_1*%
%TO.N,Net-(A1-SCL{slash}IO5)*%
X181610000Y-139700000D03*
%TD*%
%TO.P,J2,1,Pin_1*%
%TO.N,Net-(A1-SDA{slash}IO4)*%
X176530000Y-139700000D03*
%TD*%
D11*
%TO.P,C2,1*%
%TO.N,Net-(D3-K)*%
X156210000Y-95250000D03*
%TO.P,C2,2*%
%TO.N,Net-(A1-GND)*%
X161210000Y-95250000D03*
%TD*%
D12*
%TO.P,D3,1,K*%
%TO.N,Net-(D3-K)*%
X128270000Y-107950000D03*
D13*
%TO.P,D3,2,A*%
%TO.N,Net-(D2-K)*%
X118110000Y-107950000D03*
%TD*%
D14*
%TO.P,U2,1*%
%TO.N,Net-(D5-K)*%
X157480000Y-125730000D03*
%TO.P,U2,2*%
%TO.N,Net-(A1-GND)*%
X157480000Y-124460000D03*
%TO.P,U2,3,NC*%
%TO.N,unconnected-(U2-NC-Pad3)*%
X157480000Y-123190000D03*
%TO.P,U2,4*%
%TO.N,Net-(Q1-G)*%
X156210000Y-123190000D03*
%TO.P,U2,5,NC*%
%TO.N,unconnected-(U2-NC-Pad5)*%
X156210000Y-124460000D03*
D15*
%TO.P,U2,6*%
%TO.N,Net-(R2-Pad2)*%
X156210000Y-125730000D03*
%TD*%
D16*
%TO.P,U1,1,VI*%
%TO.N,Net-(D3-K)*%
X146050000Y-81280000D03*
D17*
%TO.P,U1,2,GND*%
%TO.N,Net-(A1-GND)*%
X148590000Y-81280000D03*
%TO.P,U1,3,VO*%
%TO.N,Net-(A1-USB)*%
X151130000Y-81280000D03*
%TD*%
D18*
%TO.P,C4,1*%
%TO.N,Net-(J1-AC_P)*%
X110490000Y-138350000D03*
%TO.P,C4,2*%
%TO.N,Net-(C4-Pad2)*%
X110490000Y-130850000D03*
%TD*%
D10*
%TO.P,J1,1,AC_P*%
%TO.N,Net-(J1-AC_P)*%
X88900000Y-138190000D03*
D19*
%TO.P,J1,2,AC_N*%
%TO.N,Net-(J1-AC_N)*%
X88900000Y-135650000D03*
%TD*%
D20*
%TO.P,R1,1*%
%TO.N,Net-(D5-K)*%
X166370000Y-133350000D03*
D21*
%TO.P,R1,2*%
%TO.N,Net-(A1-IO2)*%
X166370000Y-138430000D03*
%TD*%
D11*
%TO.P,C1,1*%
%TO.N,Net-(A1-GND)*%
X161370000Y-87630000D03*
%TO.P,C1,2*%
%TO.N,Net-(A1-USB)*%
X166370000Y-87630000D03*
%TD*%
D10*
%TO.P,P1,1,AC_P*%
%TO.N,Net-(P1-AC_P)*%
X88900000Y-91440000D03*
D19*
%TO.P,P1,2,AC_N*%
%TO.N,Net-(J1-AC_N)*%
X88900000Y-93980000D03*
%TD*%
D22*
%TO.P,U3,1,GND*%
%TO.N,Net-(A1-GND)*%
X204470000Y-82550000D03*
D23*
%TO.P,U3,2,DQ*%
%TO.N,Net-(A1-IO16)*%
X205740000Y-82550000D03*
%TO.P,U3,3,V_{DD}*%
%TO.N,Net-(A1-3V3)*%
X207010000Y-82550000D03*
%TD*%
D20*
%TO.P,R4,1*%
%TO.N,Net-(P1-AC_P)*%
X110575000Y-117840000D03*
D21*
%TO.P,R4,2*%
%TO.N,Net-(C4-Pad2)*%
X110575000Y-125460000D03*
%TD*%
D24*
%TO.P,C3,1*%
%TO.N,Net-(D3-K)*%
X161370000Y-102870000D03*
%TO.P,C3,2*%
%TO.N,Net-(A1-GND)*%
X163370000Y-102870000D03*
%TD*%
D12*
%TO.P,D5,1,K*%
%TO.N,Net-(D5-K)*%
X166370000Y-128270000D03*
D13*
%TO.P,D5,2,A*%
%TO.N,Net-(A1-GND)*%
X166370000Y-118110000D03*
%TD*%
D20*
%TO.P,R6,1*%
%TO.N,Net-(A1-3V3)*%
X194310000Y-95250000D03*
D21*
%TO.P,R6,2*%
%TO.N,Net-(A1-IO0)*%
X189230000Y-95250000D03*
%TD*%
D22*
%TO.P,U4,1,GND*%
%TO.N,Net-(A1-GND)*%
X191770000Y-82550000D03*
D23*
%TO.P,U4,2,DQ*%
%TO.N,Net-(A1-IO0)*%
X193040000Y-82550000D03*
%TO.P,U4,3,V_{DD}*%
%TO.N,Net-(A1-3V3)*%
X194310000Y-82550000D03*
%TD*%
D20*
%TO.P,R3,1*%
%TO.N,Net-(Q1-G)*%
X130810000Y-138430000D03*
D21*
%TO.P,R3,2*%
%TO.N,Net-(J1-AC_P)*%
X123190000Y-138430000D03*
%TD*%
D20*
%TO.P,R5,1*%
%TO.N,Net-(A1-3V3)*%
X201930000Y-95250000D03*
D21*
%TO.P,R5,2*%
%TO.N,Net-(A1-IO16)*%
X207010000Y-95250000D03*
%TD*%
D10*
%TO.P,T1,1,AA*%
%TO.N,Net-(P1-AC_P)*%
X100330000Y-77470000D03*
D19*
%TO.P,T1,2,AB*%
%TO.N,Net-(J1-AC_N)*%
X102870000Y-77470000D03*
%TO.P,T1,3,SA*%
%TO.N,Net-(D2-K)*%
X105410000Y-77470000D03*
%TO.P,T1,4,SB*%
%TO.N,Net-(D1-K)*%
X107950000Y-77470000D03*
%TD*%
D12*
%TO.P,D2,1,K*%
%TO.N,Net-(D2-K)*%
X128270000Y-100330000D03*
D13*
%TO.P,D2,2,A*%
%TO.N,Net-(A1-GND)*%
X138430000Y-100330000D03*
%TD*%
D25*
%TO.P,A1,1,~{RESET}*%
%TO.N,unconnected-(A1-~{RESET}-Pad1)*%
X217170000Y-102977500D03*
D18*
%TO.P,A1,2,3V3*%
%TO.N,Net-(A1-3V3)*%
X214630000Y-102977500D03*
%TO.P,A1,3,NC*%
%TO.N,unconnected-(A1-NC-Pad3)*%
X212090000Y-102977500D03*
%TO.P,A1,4,GND*%
%TO.N,Net-(A1-GND)*%
X209550000Y-102977500D03*
%TO.P,A1,5,ADC*%
%TO.N,unconnected-(A1-ADC-Pad5)*%
X207010000Y-102977500D03*
%TO.P,A1,6,NC*%
%TO.N,unconnected-(A1-NC-Pad6)*%
X204470000Y-102977500D03*
%TO.P,A1,7,NC*%
%TO.N,unconnected-(A1-NC-Pad7)*%
X201930000Y-102977500D03*
%TO.P,A1,8,NC*%
%TO.N,unconnected-(A1-NC-Pad8)*%
X199390000Y-102977500D03*
%TO.P,A1,9,NC*%
%TO.N,unconnected-(A1-NC-Pad9)*%
X196850000Y-102977500D03*
%TO.P,A1,10,NC*%
%TO.N,unconnected-(A1-NC-Pad10)*%
X194310000Y-102977500D03*
%TO.P,A1,11,SCK/IO14*%
%TO.N,unconnected-(A1-SCK{slash}IO14-Pad11)*%
X191770000Y-102977500D03*
%TO.P,A1,12,MOSI/IO13*%
%TO.N,unconnected-(A1-MOSI{slash}IO13-Pad12)*%
X189230000Y-102977500D03*
%TO.P,A1,13,MISO/IO12*%
%TO.N,unconnected-(A1-MISO{slash}IO12-Pad13)*%
X186690000Y-102977500D03*
%TO.P,A1,14,RX/IO3*%
%TO.N,unconnected-(A1-RX{slash}IO3-Pad14)*%
X184150000Y-102977500D03*
%TO.P,A1,15,TX/IO1*%
%TO.N,unconnected-(A1-TX{slash}IO1-Pad15)*%
X181610000Y-102977500D03*
%TO.P,A1,16,CH_PD*%
%TO.N,unconnected-(A1-CH_PD-Pad16)*%
X179070000Y-102977500D03*
%TO.P,A1,17,SDA/IO4*%
%TO.N,Net-(A1-SDA{slash}IO4)*%
X179070000Y-123297500D03*
%TO.P,A1,18,SCL/IO5*%
%TO.N,Net-(A1-SCL{slash}IO5)*%
X181610000Y-123297500D03*
%TO.P,A1,19,IO2*%
%TO.N,Net-(A1-IO2)*%
X184150000Y-123297500D03*
%TO.P,A1,20,IO16*%
%TO.N,Net-(A1-IO16)*%
X186690000Y-123297500D03*
%TO.P,A1,21,IO0*%
%TO.N,Net-(A1-IO0)*%
X189230000Y-123297500D03*
%TO.P,A1,22,IO15*%
%TO.N,unconnected-(A1-IO15-Pad22)*%
X191770000Y-123297500D03*
%TO.P,A1,23,IO13/MOSI*%
%TO.N,unconnected-(A1-IO13{slash}MOSI-Pad23)*%
X194310000Y-123297500D03*
%TO.P,A1,24,IO12/MISO*%
%TO.N,unconnected-(A1-IO12{slash}MISO-Pad24)*%
X196850000Y-123297500D03*
%TO.P,A1,25,IO14/SCK*%
%TO.N,unconnected-(A1-IO14{slash}SCK-Pad25)*%
X199390000Y-123297500D03*
%TO.P,A1,26,USB*%
%TO.N,Net-(A1-USB)*%
X201930000Y-123297500D03*
%TO.P,A1,27,EN*%
%TO.N,unconnected-(A1-EN-Pad27)*%
X204470000Y-123297500D03*
%TO.P,A1,28,VBAT*%
%TO.N,unconnected-(A1-VBAT-Pad28)*%
X207010000Y-123297500D03*
%TD*%
D12*
%TO.P,D4,1,K*%
%TO.N,Net-(D3-K)*%
X133350000Y-80010000D03*
D13*
%TO.P,D4,2,A*%
%TO.N,Net-(D1-K)*%
X123190000Y-80010000D03*
%TD*%
D16*
%TO.P,Q1,1,A1*%
%TO.N,Net-(J1-AC_P)*%
X123190000Y-128270000D03*
D17*
%TO.P,Q1,2,A2*%
%TO.N,Net-(P1-AC_P)*%
X125730000Y-128270000D03*
%TO.P,Q1,3,G*%
%TO.N,Net-(Q1-G)*%
X128270000Y-128270000D03*
%TD*%
D18*
%TO.P,R2,1*%
%TO.N,Net-(P1-AC_P)*%
X133350000Y-118110000D03*
D26*
%TO.P,R2,2*%
%TO.N,Net-(R2-Pad2)*%
X143510000Y-118110000D03*
%TD*%
D12*
%TO.P,D1,1,K*%
%TO.N,Net-(D1-K)*%
X118110000Y-92710000D03*
D13*
%TO.P,D1,2,A*%
%TO.N,Net-(A1-GND)*%
X128270000Y-92710000D03*
%TD*%
D27*
%TO.N,Net-(A1-GND)*%
X204470000Y-82550000D02*
X201930000Y-82550000D01*
X207010000Y-100330000D02*
X207010000Y-100437500D01*
X201930000Y-82550000D02*
X199390000Y-85090000D01*
X201930000Y-100330000D02*
X207010000Y-100330000D01*
X199390000Y-85090000D02*
X199390000Y-97790000D01*
X199390000Y-97790000D02*
X201930000Y-100330000D01*
X207010000Y-100437500D02*
X209550000Y-102977500D01*
%TO.N,Net-(A1-USB)*%
X176530000Y-110490000D02*
X179070000Y-113030000D01*
X171450000Y-87630000D02*
X176530000Y-92710000D01*
X201930000Y-120650000D02*
X201930000Y-123297500D01*
X166370000Y-87630000D02*
X171450000Y-87630000D01*
X194310000Y-113030000D02*
X201930000Y-120650000D01*
X176530000Y-92710000D02*
X176530000Y-110490000D01*
X179070000Y-113030000D02*
X194310000Y-113030000D01*
%TD*%
M02*
