%TF.GenerationSoftware,KiCad,Pcbnew,7.0.2*%
%TF.CreationDate,2023-06-25T23:38:38-03:00*%
%TF.ProjectId,Maze_Mapper,4d617a65-5f4d-4617-9070-65722e6b6963,rev?*%
%TF.SameCoordinates,Original*%
%TF.FileFunction,Legend,Top*%
%TF.FilePolarity,Positive*%
%FSLAX46Y46*%
G04 Gerber Fmt 4.6, Leading zero omitted, Abs format (unit mm)*
G04 Created by KiCad (PCBNEW 7.0.2) date 2023-06-25 23:38:38*
%MOMM*%
%LPD*%
G01*
G04 APERTURE LIST*
%ADD10C,0.150000*%
%ADD11C,0.100000*%
%ADD12C,0.120000*%
G04 APERTURE END LIST*
D10*
%TO.C,J4*%
X143953666Y-74354619D02*
X143953666Y-75068904D01*
X143953666Y-75068904D02*
X143906047Y-75211761D01*
X143906047Y-75211761D02*
X143810809Y-75307000D01*
X143810809Y-75307000D02*
X143667952Y-75354619D01*
X143667952Y-75354619D02*
X143572714Y-75354619D01*
X144858428Y-74687952D02*
X144858428Y-75354619D01*
X144620333Y-74307000D02*
X144382238Y-75021285D01*
X144382238Y-75021285D02*
X145001285Y-75021285D01*
%TO.C,J2*%
X136333666Y-56320619D02*
X136333666Y-57034904D01*
X136333666Y-57034904D02*
X136286047Y-57177761D01*
X136286047Y-57177761D02*
X136190809Y-57273000D01*
X136190809Y-57273000D02*
X136047952Y-57320619D01*
X136047952Y-57320619D02*
X135952714Y-57320619D01*
X136762238Y-56415857D02*
X136809857Y-56368238D01*
X136809857Y-56368238D02*
X136905095Y-56320619D01*
X136905095Y-56320619D02*
X137143190Y-56320619D01*
X137143190Y-56320619D02*
X137238428Y-56368238D01*
X137238428Y-56368238D02*
X137286047Y-56415857D01*
X137286047Y-56415857D02*
X137333666Y-56511095D01*
X137333666Y-56511095D02*
X137333666Y-56606333D01*
X137333666Y-56606333D02*
X137286047Y-56749190D01*
X137286047Y-56749190D02*
X136714619Y-57320619D01*
X136714619Y-57320619D02*
X137333666Y-57320619D01*
%TO.C,J6*%
X110918666Y-35502619D02*
X110918666Y-36216904D01*
X110918666Y-36216904D02*
X110871047Y-36359761D01*
X110871047Y-36359761D02*
X110775809Y-36455000D01*
X110775809Y-36455000D02*
X110632952Y-36502619D01*
X110632952Y-36502619D02*
X110537714Y-36502619D01*
X111823428Y-35502619D02*
X111632952Y-35502619D01*
X111632952Y-35502619D02*
X111537714Y-35550238D01*
X111537714Y-35550238D02*
X111490095Y-35597857D01*
X111490095Y-35597857D02*
X111394857Y-35740714D01*
X111394857Y-35740714D02*
X111347238Y-35931190D01*
X111347238Y-35931190D02*
X111347238Y-36312142D01*
X111347238Y-36312142D02*
X111394857Y-36407380D01*
X111394857Y-36407380D02*
X111442476Y-36455000D01*
X111442476Y-36455000D02*
X111537714Y-36502619D01*
X111537714Y-36502619D02*
X111728190Y-36502619D01*
X111728190Y-36502619D02*
X111823428Y-36455000D01*
X111823428Y-36455000D02*
X111871047Y-36407380D01*
X111871047Y-36407380D02*
X111918666Y-36312142D01*
X111918666Y-36312142D02*
X111918666Y-36074047D01*
X111918666Y-36074047D02*
X111871047Y-35978809D01*
X111871047Y-35978809D02*
X111823428Y-35931190D01*
X111823428Y-35931190D02*
X111728190Y-35883571D01*
X111728190Y-35883571D02*
X111537714Y-35883571D01*
X111537714Y-35883571D02*
X111442476Y-35931190D01*
X111442476Y-35931190D02*
X111394857Y-35978809D01*
X111394857Y-35978809D02*
X111347238Y-36074047D01*
%TO.C,SW3*%
X117082667Y-61661000D02*
X117225524Y-61708619D01*
X117225524Y-61708619D02*
X117463619Y-61708619D01*
X117463619Y-61708619D02*
X117558857Y-61661000D01*
X117558857Y-61661000D02*
X117606476Y-61613380D01*
X117606476Y-61613380D02*
X117654095Y-61518142D01*
X117654095Y-61518142D02*
X117654095Y-61422904D01*
X117654095Y-61422904D02*
X117606476Y-61327666D01*
X117606476Y-61327666D02*
X117558857Y-61280047D01*
X117558857Y-61280047D02*
X117463619Y-61232428D01*
X117463619Y-61232428D02*
X117273143Y-61184809D01*
X117273143Y-61184809D02*
X117177905Y-61137190D01*
X117177905Y-61137190D02*
X117130286Y-61089571D01*
X117130286Y-61089571D02*
X117082667Y-60994333D01*
X117082667Y-60994333D02*
X117082667Y-60899095D01*
X117082667Y-60899095D02*
X117130286Y-60803857D01*
X117130286Y-60803857D02*
X117177905Y-60756238D01*
X117177905Y-60756238D02*
X117273143Y-60708619D01*
X117273143Y-60708619D02*
X117511238Y-60708619D01*
X117511238Y-60708619D02*
X117654095Y-60756238D01*
X117987429Y-60708619D02*
X118225524Y-61708619D01*
X118225524Y-61708619D02*
X118416000Y-60994333D01*
X118416000Y-60994333D02*
X118606476Y-61708619D01*
X118606476Y-61708619D02*
X118844572Y-60708619D01*
X119130286Y-60708619D02*
X119749333Y-60708619D01*
X119749333Y-60708619D02*
X119416000Y-61089571D01*
X119416000Y-61089571D02*
X119558857Y-61089571D01*
X119558857Y-61089571D02*
X119654095Y-61137190D01*
X119654095Y-61137190D02*
X119701714Y-61184809D01*
X119701714Y-61184809D02*
X119749333Y-61280047D01*
X119749333Y-61280047D02*
X119749333Y-61518142D01*
X119749333Y-61518142D02*
X119701714Y-61613380D01*
X119701714Y-61613380D02*
X119654095Y-61661000D01*
X119654095Y-61661000D02*
X119558857Y-61708619D01*
X119558857Y-61708619D02*
X119273143Y-61708619D01*
X119273143Y-61708619D02*
X119177905Y-61661000D01*
X119177905Y-61661000D02*
X119130286Y-61613380D01*
%TO.C,J14*%
X128222476Y-30436619D02*
X128222476Y-31150904D01*
X128222476Y-31150904D02*
X128174857Y-31293761D01*
X128174857Y-31293761D02*
X128079619Y-31389000D01*
X128079619Y-31389000D02*
X127936762Y-31436619D01*
X127936762Y-31436619D02*
X127841524Y-31436619D01*
X129222476Y-31436619D02*
X128651048Y-31436619D01*
X128936762Y-31436619D02*
X128936762Y-30436619D01*
X128936762Y-30436619D02*
X128841524Y-30579476D01*
X128841524Y-30579476D02*
X128746286Y-30674714D01*
X128746286Y-30674714D02*
X128651048Y-30722333D01*
X130079619Y-30769952D02*
X130079619Y-31436619D01*
X129841524Y-30389000D02*
X129603429Y-31103285D01*
X129603429Y-31103285D02*
X130222476Y-31103285D01*
%TO.C,J5*%
X132508666Y-43630619D02*
X132508666Y-44344904D01*
X132508666Y-44344904D02*
X132461047Y-44487761D01*
X132461047Y-44487761D02*
X132365809Y-44583000D01*
X132365809Y-44583000D02*
X132222952Y-44630619D01*
X132222952Y-44630619D02*
X132127714Y-44630619D01*
X133461047Y-43630619D02*
X132984857Y-43630619D01*
X132984857Y-43630619D02*
X132937238Y-44106809D01*
X132937238Y-44106809D02*
X132984857Y-44059190D01*
X132984857Y-44059190D02*
X133080095Y-44011571D01*
X133080095Y-44011571D02*
X133318190Y-44011571D01*
X133318190Y-44011571D02*
X133413428Y-44059190D01*
X133413428Y-44059190D02*
X133461047Y-44106809D01*
X133461047Y-44106809D02*
X133508666Y-44202047D01*
X133508666Y-44202047D02*
X133508666Y-44440142D01*
X133508666Y-44440142D02*
X133461047Y-44535380D01*
X133461047Y-44535380D02*
X133413428Y-44583000D01*
X133413428Y-44583000D02*
X133318190Y-44630619D01*
X133318190Y-44630619D02*
X133080095Y-44630619D01*
X133080095Y-44630619D02*
X132984857Y-44583000D01*
X132984857Y-44583000D02*
X132937238Y-44535380D01*
%TO.C,J3*%
X136333666Y-74608619D02*
X136333666Y-75322904D01*
X136333666Y-75322904D02*
X136286047Y-75465761D01*
X136286047Y-75465761D02*
X136190809Y-75561000D01*
X136190809Y-75561000D02*
X136047952Y-75608619D01*
X136047952Y-75608619D02*
X135952714Y-75608619D01*
X136714619Y-74608619D02*
X137333666Y-74608619D01*
X137333666Y-74608619D02*
X137000333Y-74989571D01*
X137000333Y-74989571D02*
X137143190Y-74989571D01*
X137143190Y-74989571D02*
X137238428Y-75037190D01*
X137238428Y-75037190D02*
X137286047Y-75084809D01*
X137286047Y-75084809D02*
X137333666Y-75180047D01*
X137333666Y-75180047D02*
X137333666Y-75418142D01*
X137333666Y-75418142D02*
X137286047Y-75513380D01*
X137286047Y-75513380D02*
X137238428Y-75561000D01*
X137238428Y-75561000D02*
X137143190Y-75608619D01*
X137143190Y-75608619D02*
X136857476Y-75608619D01*
X136857476Y-75608619D02*
X136762238Y-75561000D01*
X136762238Y-75561000D02*
X136714619Y-75513380D01*
%TO.C,U6*%
X151144619Y-68579904D02*
X151954142Y-68579904D01*
X151954142Y-68579904D02*
X152049380Y-68532285D01*
X152049380Y-68532285D02*
X152097000Y-68484666D01*
X152097000Y-68484666D02*
X152144619Y-68389428D01*
X152144619Y-68389428D02*
X152144619Y-68198952D01*
X152144619Y-68198952D02*
X152097000Y-68103714D01*
X152097000Y-68103714D02*
X152049380Y-68056095D01*
X152049380Y-68056095D02*
X151954142Y-68008476D01*
X151954142Y-68008476D02*
X151144619Y-68008476D01*
X151144619Y-67103714D02*
X151144619Y-67294190D01*
X151144619Y-67294190D02*
X151192238Y-67389428D01*
X151192238Y-67389428D02*
X151239857Y-67437047D01*
X151239857Y-67437047D02*
X151382714Y-67532285D01*
X151382714Y-67532285D02*
X151573190Y-67579904D01*
X151573190Y-67579904D02*
X151954142Y-67579904D01*
X151954142Y-67579904D02*
X152049380Y-67532285D01*
X152049380Y-67532285D02*
X152097000Y-67484666D01*
X152097000Y-67484666D02*
X152144619Y-67389428D01*
X152144619Y-67389428D02*
X152144619Y-67198952D01*
X152144619Y-67198952D02*
X152097000Y-67103714D01*
X152097000Y-67103714D02*
X152049380Y-67056095D01*
X152049380Y-67056095D02*
X151954142Y-67008476D01*
X151954142Y-67008476D02*
X151716047Y-67008476D01*
X151716047Y-67008476D02*
X151620809Y-67056095D01*
X151620809Y-67056095D02*
X151573190Y-67103714D01*
X151573190Y-67103714D02*
X151525571Y-67198952D01*
X151525571Y-67198952D02*
X151525571Y-67389428D01*
X151525571Y-67389428D02*
X151573190Y-67484666D01*
X151573190Y-67484666D02*
X151620809Y-67532285D01*
X151620809Y-67532285D02*
X151716047Y-67579904D01*
%TO.C,J17*%
X76406476Y-56090619D02*
X76406476Y-56804904D01*
X76406476Y-56804904D02*
X76358857Y-56947761D01*
X76358857Y-56947761D02*
X76263619Y-57043000D01*
X76263619Y-57043000D02*
X76120762Y-57090619D01*
X76120762Y-57090619D02*
X76025524Y-57090619D01*
X77406476Y-57090619D02*
X76835048Y-57090619D01*
X77120762Y-57090619D02*
X77120762Y-56090619D01*
X77120762Y-56090619D02*
X77025524Y-56233476D01*
X77025524Y-56233476D02*
X76930286Y-56328714D01*
X76930286Y-56328714D02*
X76835048Y-56376333D01*
X77739810Y-56090619D02*
X78406476Y-56090619D01*
X78406476Y-56090619D02*
X77977905Y-57090619D01*
%TO.C,R2*%
X109724333Y-73326619D02*
X109391000Y-72850428D01*
X109152905Y-73326619D02*
X109152905Y-72326619D01*
X109152905Y-72326619D02*
X109533857Y-72326619D01*
X109533857Y-72326619D02*
X109629095Y-72374238D01*
X109629095Y-72374238D02*
X109676714Y-72421857D01*
X109676714Y-72421857D02*
X109724333Y-72517095D01*
X109724333Y-72517095D02*
X109724333Y-72659952D01*
X109724333Y-72659952D02*
X109676714Y-72755190D01*
X109676714Y-72755190D02*
X109629095Y-72802809D01*
X109629095Y-72802809D02*
X109533857Y-72850428D01*
X109533857Y-72850428D02*
X109152905Y-72850428D01*
X110105286Y-72421857D02*
X110152905Y-72374238D01*
X110152905Y-72374238D02*
X110248143Y-72326619D01*
X110248143Y-72326619D02*
X110486238Y-72326619D01*
X110486238Y-72326619D02*
X110581476Y-72374238D01*
X110581476Y-72374238D02*
X110629095Y-72421857D01*
X110629095Y-72421857D02*
X110676714Y-72517095D01*
X110676714Y-72517095D02*
X110676714Y-72612333D01*
X110676714Y-72612333D02*
X110629095Y-72755190D01*
X110629095Y-72755190D02*
X110057667Y-73326619D01*
X110057667Y-73326619D02*
X110676714Y-73326619D01*
%TO.C,J7*%
X89074666Y-35502619D02*
X89074666Y-36216904D01*
X89074666Y-36216904D02*
X89027047Y-36359761D01*
X89027047Y-36359761D02*
X88931809Y-36455000D01*
X88931809Y-36455000D02*
X88788952Y-36502619D01*
X88788952Y-36502619D02*
X88693714Y-36502619D01*
X89455619Y-35502619D02*
X90122285Y-35502619D01*
X90122285Y-35502619D02*
X89693714Y-36502619D01*
%TO.C,U1*%
X87810619Y-50291904D02*
X88620142Y-50291904D01*
X88620142Y-50291904D02*
X88715380Y-50244285D01*
X88715380Y-50244285D02*
X88763000Y-50196666D01*
X88763000Y-50196666D02*
X88810619Y-50101428D01*
X88810619Y-50101428D02*
X88810619Y-49910952D01*
X88810619Y-49910952D02*
X88763000Y-49815714D01*
X88763000Y-49815714D02*
X88715380Y-49768095D01*
X88715380Y-49768095D02*
X88620142Y-49720476D01*
X88620142Y-49720476D02*
X87810619Y-49720476D01*
X88810619Y-48720476D02*
X88810619Y-49291904D01*
X88810619Y-49006190D02*
X87810619Y-49006190D01*
X87810619Y-49006190D02*
X87953476Y-49101428D01*
X87953476Y-49101428D02*
X88048714Y-49196666D01*
X88048714Y-49196666D02*
X88096333Y-49291904D01*
%TO.C,SW2*%
X106152667Y-67801000D02*
X106295524Y-67848619D01*
X106295524Y-67848619D02*
X106533619Y-67848619D01*
X106533619Y-67848619D02*
X106628857Y-67801000D01*
X106628857Y-67801000D02*
X106676476Y-67753380D01*
X106676476Y-67753380D02*
X106724095Y-67658142D01*
X106724095Y-67658142D02*
X106724095Y-67562904D01*
X106724095Y-67562904D02*
X106676476Y-67467666D01*
X106676476Y-67467666D02*
X106628857Y-67420047D01*
X106628857Y-67420047D02*
X106533619Y-67372428D01*
X106533619Y-67372428D02*
X106343143Y-67324809D01*
X106343143Y-67324809D02*
X106247905Y-67277190D01*
X106247905Y-67277190D02*
X106200286Y-67229571D01*
X106200286Y-67229571D02*
X106152667Y-67134333D01*
X106152667Y-67134333D02*
X106152667Y-67039095D01*
X106152667Y-67039095D02*
X106200286Y-66943857D01*
X106200286Y-66943857D02*
X106247905Y-66896238D01*
X106247905Y-66896238D02*
X106343143Y-66848619D01*
X106343143Y-66848619D02*
X106581238Y-66848619D01*
X106581238Y-66848619D02*
X106724095Y-66896238D01*
X107057429Y-66848619D02*
X107295524Y-67848619D01*
X107295524Y-67848619D02*
X107486000Y-67134333D01*
X107486000Y-67134333D02*
X107676476Y-67848619D01*
X107676476Y-67848619D02*
X107914572Y-66848619D01*
X108247905Y-66943857D02*
X108295524Y-66896238D01*
X108295524Y-66896238D02*
X108390762Y-66848619D01*
X108390762Y-66848619D02*
X108628857Y-66848619D01*
X108628857Y-66848619D02*
X108724095Y-66896238D01*
X108724095Y-66896238D02*
X108771714Y-66943857D01*
X108771714Y-66943857D02*
X108819333Y-67039095D01*
X108819333Y-67039095D02*
X108819333Y-67134333D01*
X108819333Y-67134333D02*
X108771714Y-67277190D01*
X108771714Y-67277190D02*
X108200286Y-67848619D01*
X108200286Y-67848619D02*
X108819333Y-67848619D01*
%TO.C,J16*%
X128222476Y-38536619D02*
X128222476Y-39250904D01*
X128222476Y-39250904D02*
X128174857Y-39393761D01*
X128174857Y-39393761D02*
X128079619Y-39489000D01*
X128079619Y-39489000D02*
X127936762Y-39536619D01*
X127936762Y-39536619D02*
X127841524Y-39536619D01*
X129222476Y-39536619D02*
X128651048Y-39536619D01*
X128936762Y-39536619D02*
X128936762Y-38536619D01*
X128936762Y-38536619D02*
X128841524Y-38679476D01*
X128841524Y-38679476D02*
X128746286Y-38774714D01*
X128746286Y-38774714D02*
X128651048Y-38822333D01*
X130079619Y-38536619D02*
X129889143Y-38536619D01*
X129889143Y-38536619D02*
X129793905Y-38584238D01*
X129793905Y-38584238D02*
X129746286Y-38631857D01*
X129746286Y-38631857D02*
X129651048Y-38774714D01*
X129651048Y-38774714D02*
X129603429Y-38965190D01*
X129603429Y-38965190D02*
X129603429Y-39346142D01*
X129603429Y-39346142D02*
X129651048Y-39441380D01*
X129651048Y-39441380D02*
X129698667Y-39489000D01*
X129698667Y-39489000D02*
X129793905Y-39536619D01*
X129793905Y-39536619D02*
X129984381Y-39536619D01*
X129984381Y-39536619D02*
X130079619Y-39489000D01*
X130079619Y-39489000D02*
X130127238Y-39441380D01*
X130127238Y-39441380D02*
X130174857Y-39346142D01*
X130174857Y-39346142D02*
X130174857Y-39108047D01*
X130174857Y-39108047D02*
X130127238Y-39012809D01*
X130127238Y-39012809D02*
X130079619Y-38965190D01*
X130079619Y-38965190D02*
X129984381Y-38917571D01*
X129984381Y-38917571D02*
X129793905Y-38917571D01*
X129793905Y-38917571D02*
X129698667Y-38965190D01*
X129698667Y-38965190D02*
X129651048Y-39012809D01*
X129651048Y-39012809D02*
X129603429Y-39108047D01*
%TO.C,R1*%
X98065333Y-73326619D02*
X97732000Y-72850428D01*
X97493905Y-73326619D02*
X97493905Y-72326619D01*
X97493905Y-72326619D02*
X97874857Y-72326619D01*
X97874857Y-72326619D02*
X97970095Y-72374238D01*
X97970095Y-72374238D02*
X98017714Y-72421857D01*
X98017714Y-72421857D02*
X98065333Y-72517095D01*
X98065333Y-72517095D02*
X98065333Y-72659952D01*
X98065333Y-72659952D02*
X98017714Y-72755190D01*
X98017714Y-72755190D02*
X97970095Y-72802809D01*
X97970095Y-72802809D02*
X97874857Y-72850428D01*
X97874857Y-72850428D02*
X97493905Y-72850428D01*
X99017714Y-73326619D02*
X98446286Y-73326619D01*
X98732000Y-73326619D02*
X98732000Y-72326619D01*
X98732000Y-72326619D02*
X98636762Y-72469476D01*
X98636762Y-72469476D02*
X98541524Y-72564714D01*
X98541524Y-72564714D02*
X98446286Y-72612333D01*
%TO.C,J20*%
X76406476Y-68240619D02*
X76406476Y-68954904D01*
X76406476Y-68954904D02*
X76358857Y-69097761D01*
X76358857Y-69097761D02*
X76263619Y-69193000D01*
X76263619Y-69193000D02*
X76120762Y-69240619D01*
X76120762Y-69240619D02*
X76025524Y-69240619D01*
X76835048Y-68335857D02*
X76882667Y-68288238D01*
X76882667Y-68288238D02*
X76977905Y-68240619D01*
X76977905Y-68240619D02*
X77216000Y-68240619D01*
X77216000Y-68240619D02*
X77311238Y-68288238D01*
X77311238Y-68288238D02*
X77358857Y-68335857D01*
X77358857Y-68335857D02*
X77406476Y-68431095D01*
X77406476Y-68431095D02*
X77406476Y-68526333D01*
X77406476Y-68526333D02*
X77358857Y-68669190D01*
X77358857Y-68669190D02*
X76787429Y-69240619D01*
X76787429Y-69240619D02*
X77406476Y-69240619D01*
X78025524Y-68240619D02*
X78120762Y-68240619D01*
X78120762Y-68240619D02*
X78216000Y-68288238D01*
X78216000Y-68288238D02*
X78263619Y-68335857D01*
X78263619Y-68335857D02*
X78311238Y-68431095D01*
X78311238Y-68431095D02*
X78358857Y-68621571D01*
X78358857Y-68621571D02*
X78358857Y-68859666D01*
X78358857Y-68859666D02*
X78311238Y-69050142D01*
X78311238Y-69050142D02*
X78263619Y-69145380D01*
X78263619Y-69145380D02*
X78216000Y-69193000D01*
X78216000Y-69193000D02*
X78120762Y-69240619D01*
X78120762Y-69240619D02*
X78025524Y-69240619D01*
X78025524Y-69240619D02*
X77930286Y-69193000D01*
X77930286Y-69193000D02*
X77882667Y-69145380D01*
X77882667Y-69145380D02*
X77835048Y-69050142D01*
X77835048Y-69050142D02*
X77787429Y-68859666D01*
X77787429Y-68859666D02*
X77787429Y-68621571D01*
X77787429Y-68621571D02*
X77835048Y-68431095D01*
X77835048Y-68431095D02*
X77882667Y-68335857D01*
X77882667Y-68335857D02*
X77930286Y-68288238D01*
X77930286Y-68288238D02*
X78025524Y-68240619D01*
%TO.C,J12*%
X103838476Y-35502619D02*
X103838476Y-36216904D01*
X103838476Y-36216904D02*
X103790857Y-36359761D01*
X103790857Y-36359761D02*
X103695619Y-36455000D01*
X103695619Y-36455000D02*
X103552762Y-36502619D01*
X103552762Y-36502619D02*
X103457524Y-36502619D01*
X104838476Y-36502619D02*
X104267048Y-36502619D01*
X104552762Y-36502619D02*
X104552762Y-35502619D01*
X104552762Y-35502619D02*
X104457524Y-35645476D01*
X104457524Y-35645476D02*
X104362286Y-35740714D01*
X104362286Y-35740714D02*
X104267048Y-35788333D01*
X105219429Y-35597857D02*
X105267048Y-35550238D01*
X105267048Y-35550238D02*
X105362286Y-35502619D01*
X105362286Y-35502619D02*
X105600381Y-35502619D01*
X105600381Y-35502619D02*
X105695619Y-35550238D01*
X105695619Y-35550238D02*
X105743238Y-35597857D01*
X105743238Y-35597857D02*
X105790857Y-35693095D01*
X105790857Y-35693095D02*
X105790857Y-35788333D01*
X105790857Y-35788333D02*
X105743238Y-35931190D01*
X105743238Y-35931190D02*
X105171810Y-36502619D01*
X105171810Y-36502619D02*
X105790857Y-36502619D01*
%TO.C,J18*%
X76406476Y-60140619D02*
X76406476Y-60854904D01*
X76406476Y-60854904D02*
X76358857Y-60997761D01*
X76358857Y-60997761D02*
X76263619Y-61093000D01*
X76263619Y-61093000D02*
X76120762Y-61140619D01*
X76120762Y-61140619D02*
X76025524Y-61140619D01*
X77406476Y-61140619D02*
X76835048Y-61140619D01*
X77120762Y-61140619D02*
X77120762Y-60140619D01*
X77120762Y-60140619D02*
X77025524Y-60283476D01*
X77025524Y-60283476D02*
X76930286Y-60378714D01*
X76930286Y-60378714D02*
X76835048Y-60426333D01*
X77977905Y-60569190D02*
X77882667Y-60521571D01*
X77882667Y-60521571D02*
X77835048Y-60473952D01*
X77835048Y-60473952D02*
X77787429Y-60378714D01*
X77787429Y-60378714D02*
X77787429Y-60331095D01*
X77787429Y-60331095D02*
X77835048Y-60235857D01*
X77835048Y-60235857D02*
X77882667Y-60188238D01*
X77882667Y-60188238D02*
X77977905Y-60140619D01*
X77977905Y-60140619D02*
X78168381Y-60140619D01*
X78168381Y-60140619D02*
X78263619Y-60188238D01*
X78263619Y-60188238D02*
X78311238Y-60235857D01*
X78311238Y-60235857D02*
X78358857Y-60331095D01*
X78358857Y-60331095D02*
X78358857Y-60378714D01*
X78358857Y-60378714D02*
X78311238Y-60473952D01*
X78311238Y-60473952D02*
X78263619Y-60521571D01*
X78263619Y-60521571D02*
X78168381Y-60569190D01*
X78168381Y-60569190D02*
X77977905Y-60569190D01*
X77977905Y-60569190D02*
X77882667Y-60616809D01*
X77882667Y-60616809D02*
X77835048Y-60664428D01*
X77835048Y-60664428D02*
X77787429Y-60759666D01*
X77787429Y-60759666D02*
X77787429Y-60950142D01*
X77787429Y-60950142D02*
X77835048Y-61045380D01*
X77835048Y-61045380D02*
X77882667Y-61093000D01*
X77882667Y-61093000D02*
X77977905Y-61140619D01*
X77977905Y-61140619D02*
X78168381Y-61140619D01*
X78168381Y-61140619D02*
X78263619Y-61093000D01*
X78263619Y-61093000D02*
X78311238Y-61045380D01*
X78311238Y-61045380D02*
X78358857Y-60950142D01*
X78358857Y-60950142D02*
X78358857Y-60759666D01*
X78358857Y-60759666D02*
X78311238Y-60664428D01*
X78311238Y-60664428D02*
X78263619Y-60616809D01*
X78263619Y-60616809D02*
X78168381Y-60569190D01*
%TO.C,J8*%
X98218666Y-35502619D02*
X98218666Y-36216904D01*
X98218666Y-36216904D02*
X98171047Y-36359761D01*
X98171047Y-36359761D02*
X98075809Y-36455000D01*
X98075809Y-36455000D02*
X97932952Y-36502619D01*
X97932952Y-36502619D02*
X97837714Y-36502619D01*
X98837714Y-35931190D02*
X98742476Y-35883571D01*
X98742476Y-35883571D02*
X98694857Y-35835952D01*
X98694857Y-35835952D02*
X98647238Y-35740714D01*
X98647238Y-35740714D02*
X98647238Y-35693095D01*
X98647238Y-35693095D02*
X98694857Y-35597857D01*
X98694857Y-35597857D02*
X98742476Y-35550238D01*
X98742476Y-35550238D02*
X98837714Y-35502619D01*
X98837714Y-35502619D02*
X99028190Y-35502619D01*
X99028190Y-35502619D02*
X99123428Y-35550238D01*
X99123428Y-35550238D02*
X99171047Y-35597857D01*
X99171047Y-35597857D02*
X99218666Y-35693095D01*
X99218666Y-35693095D02*
X99218666Y-35740714D01*
X99218666Y-35740714D02*
X99171047Y-35835952D01*
X99171047Y-35835952D02*
X99123428Y-35883571D01*
X99123428Y-35883571D02*
X99028190Y-35931190D01*
X99028190Y-35931190D02*
X98837714Y-35931190D01*
X98837714Y-35931190D02*
X98742476Y-35978809D01*
X98742476Y-35978809D02*
X98694857Y-36026428D01*
X98694857Y-36026428D02*
X98647238Y-36121666D01*
X98647238Y-36121666D02*
X98647238Y-36312142D01*
X98647238Y-36312142D02*
X98694857Y-36407380D01*
X98694857Y-36407380D02*
X98742476Y-36455000D01*
X98742476Y-36455000D02*
X98837714Y-36502619D01*
X98837714Y-36502619D02*
X99028190Y-36502619D01*
X99028190Y-36502619D02*
X99123428Y-36455000D01*
X99123428Y-36455000D02*
X99171047Y-36407380D01*
X99171047Y-36407380D02*
X99218666Y-36312142D01*
X99218666Y-36312142D02*
X99218666Y-36121666D01*
X99218666Y-36121666D02*
X99171047Y-36026428D01*
X99171047Y-36026428D02*
X99123428Y-35978809D01*
X99123428Y-35978809D02*
X99028190Y-35931190D01*
%TO.C,SW1*%
X94722667Y-68055000D02*
X94865524Y-68102619D01*
X94865524Y-68102619D02*
X95103619Y-68102619D01*
X95103619Y-68102619D02*
X95198857Y-68055000D01*
X95198857Y-68055000D02*
X95246476Y-68007380D01*
X95246476Y-68007380D02*
X95294095Y-67912142D01*
X95294095Y-67912142D02*
X95294095Y-67816904D01*
X95294095Y-67816904D02*
X95246476Y-67721666D01*
X95246476Y-67721666D02*
X95198857Y-67674047D01*
X95198857Y-67674047D02*
X95103619Y-67626428D01*
X95103619Y-67626428D02*
X94913143Y-67578809D01*
X94913143Y-67578809D02*
X94817905Y-67531190D01*
X94817905Y-67531190D02*
X94770286Y-67483571D01*
X94770286Y-67483571D02*
X94722667Y-67388333D01*
X94722667Y-67388333D02*
X94722667Y-67293095D01*
X94722667Y-67293095D02*
X94770286Y-67197857D01*
X94770286Y-67197857D02*
X94817905Y-67150238D01*
X94817905Y-67150238D02*
X94913143Y-67102619D01*
X94913143Y-67102619D02*
X95151238Y-67102619D01*
X95151238Y-67102619D02*
X95294095Y-67150238D01*
X95627429Y-67102619D02*
X95865524Y-68102619D01*
X95865524Y-68102619D02*
X96056000Y-67388333D01*
X96056000Y-67388333D02*
X96246476Y-68102619D01*
X96246476Y-68102619D02*
X96484572Y-67102619D01*
X97389333Y-68102619D02*
X96817905Y-68102619D01*
X97103619Y-68102619D02*
X97103619Y-67102619D01*
X97103619Y-67102619D02*
X97008381Y-67245476D01*
X97008381Y-67245476D02*
X96913143Y-67340714D01*
X96913143Y-67340714D02*
X96817905Y-67388333D01*
%TO.C,J1*%
X143953666Y-56320619D02*
X143953666Y-57034904D01*
X143953666Y-57034904D02*
X143906047Y-57177761D01*
X143906047Y-57177761D02*
X143810809Y-57273000D01*
X143810809Y-57273000D02*
X143667952Y-57320619D01*
X143667952Y-57320619D02*
X143572714Y-57320619D01*
X144953666Y-57320619D02*
X144382238Y-57320619D01*
X144667952Y-57320619D02*
X144667952Y-56320619D01*
X144667952Y-56320619D02*
X144572714Y-56463476D01*
X144572714Y-56463476D02*
X144477476Y-56558714D01*
X144477476Y-56558714D02*
X144382238Y-56606333D01*
%TO.C,J13*%
X128222476Y-26386619D02*
X128222476Y-27100904D01*
X128222476Y-27100904D02*
X128174857Y-27243761D01*
X128174857Y-27243761D02*
X128079619Y-27339000D01*
X128079619Y-27339000D02*
X127936762Y-27386619D01*
X127936762Y-27386619D02*
X127841524Y-27386619D01*
X129222476Y-27386619D02*
X128651048Y-27386619D01*
X128936762Y-27386619D02*
X128936762Y-26386619D01*
X128936762Y-26386619D02*
X128841524Y-26529476D01*
X128841524Y-26529476D02*
X128746286Y-26624714D01*
X128746286Y-26624714D02*
X128651048Y-26672333D01*
X129555810Y-26386619D02*
X130174857Y-26386619D01*
X130174857Y-26386619D02*
X129841524Y-26767571D01*
X129841524Y-26767571D02*
X129984381Y-26767571D01*
X129984381Y-26767571D02*
X130079619Y-26815190D01*
X130079619Y-26815190D02*
X130127238Y-26862809D01*
X130127238Y-26862809D02*
X130174857Y-26958047D01*
X130174857Y-26958047D02*
X130174857Y-27196142D01*
X130174857Y-27196142D02*
X130127238Y-27291380D01*
X130127238Y-27291380D02*
X130079619Y-27339000D01*
X130079619Y-27339000D02*
X129984381Y-27386619D01*
X129984381Y-27386619D02*
X129698667Y-27386619D01*
X129698667Y-27386619D02*
X129603429Y-27339000D01*
X129603429Y-27339000D02*
X129555810Y-27291380D01*
D11*
%TO.C,U4*%
X153924095Y-37356619D02*
X153924095Y-38166142D01*
X153924095Y-38166142D02*
X153971714Y-38261380D01*
X153971714Y-38261380D02*
X154019333Y-38309000D01*
X154019333Y-38309000D02*
X154114571Y-38356619D01*
X154114571Y-38356619D02*
X154305047Y-38356619D01*
X154305047Y-38356619D02*
X154400285Y-38309000D01*
X154400285Y-38309000D02*
X154447904Y-38261380D01*
X154447904Y-38261380D02*
X154495523Y-38166142D01*
X154495523Y-38166142D02*
X154495523Y-37356619D01*
X155400285Y-37689952D02*
X155400285Y-38356619D01*
X155162190Y-37309000D02*
X154924095Y-38023285D01*
X154924095Y-38023285D02*
X155543142Y-38023285D01*
D10*
%TO.C,J11*%
X94694476Y-35502619D02*
X94694476Y-36216904D01*
X94694476Y-36216904D02*
X94646857Y-36359761D01*
X94646857Y-36359761D02*
X94551619Y-36455000D01*
X94551619Y-36455000D02*
X94408762Y-36502619D01*
X94408762Y-36502619D02*
X94313524Y-36502619D01*
X95694476Y-36502619D02*
X95123048Y-36502619D01*
X95408762Y-36502619D02*
X95408762Y-35502619D01*
X95408762Y-35502619D02*
X95313524Y-35645476D01*
X95313524Y-35645476D02*
X95218286Y-35740714D01*
X95218286Y-35740714D02*
X95123048Y-35788333D01*
X96646857Y-36502619D02*
X96075429Y-36502619D01*
X96361143Y-36502619D02*
X96361143Y-35502619D01*
X96361143Y-35502619D02*
X96265905Y-35645476D01*
X96265905Y-35645476D02*
X96170667Y-35740714D01*
X96170667Y-35740714D02*
X96075429Y-35788333D01*
%TO.C,J10*%
X100790476Y-35502619D02*
X100790476Y-36216904D01*
X100790476Y-36216904D02*
X100742857Y-36359761D01*
X100742857Y-36359761D02*
X100647619Y-36455000D01*
X100647619Y-36455000D02*
X100504762Y-36502619D01*
X100504762Y-36502619D02*
X100409524Y-36502619D01*
X101790476Y-36502619D02*
X101219048Y-36502619D01*
X101504762Y-36502619D02*
X101504762Y-35502619D01*
X101504762Y-35502619D02*
X101409524Y-35645476D01*
X101409524Y-35645476D02*
X101314286Y-35740714D01*
X101314286Y-35740714D02*
X101219048Y-35788333D01*
X102409524Y-35502619D02*
X102504762Y-35502619D01*
X102504762Y-35502619D02*
X102600000Y-35550238D01*
X102600000Y-35550238D02*
X102647619Y-35597857D01*
X102647619Y-35597857D02*
X102695238Y-35693095D01*
X102695238Y-35693095D02*
X102742857Y-35883571D01*
X102742857Y-35883571D02*
X102742857Y-36121666D01*
X102742857Y-36121666D02*
X102695238Y-36312142D01*
X102695238Y-36312142D02*
X102647619Y-36407380D01*
X102647619Y-36407380D02*
X102600000Y-36455000D01*
X102600000Y-36455000D02*
X102504762Y-36502619D01*
X102504762Y-36502619D02*
X102409524Y-36502619D01*
X102409524Y-36502619D02*
X102314286Y-36455000D01*
X102314286Y-36455000D02*
X102266667Y-36407380D01*
X102266667Y-36407380D02*
X102219048Y-36312142D01*
X102219048Y-36312142D02*
X102171429Y-36121666D01*
X102171429Y-36121666D02*
X102171429Y-35883571D01*
X102171429Y-35883571D02*
X102219048Y-35693095D01*
X102219048Y-35693095D02*
X102266667Y-35597857D01*
X102266667Y-35597857D02*
X102314286Y-35550238D01*
X102314286Y-35550238D02*
X102409524Y-35502619D01*
%TO.C,J15*%
X128222476Y-34486619D02*
X128222476Y-35200904D01*
X128222476Y-35200904D02*
X128174857Y-35343761D01*
X128174857Y-35343761D02*
X128079619Y-35439000D01*
X128079619Y-35439000D02*
X127936762Y-35486619D01*
X127936762Y-35486619D02*
X127841524Y-35486619D01*
X129222476Y-35486619D02*
X128651048Y-35486619D01*
X128936762Y-35486619D02*
X128936762Y-34486619D01*
X128936762Y-34486619D02*
X128841524Y-34629476D01*
X128841524Y-34629476D02*
X128746286Y-34724714D01*
X128746286Y-34724714D02*
X128651048Y-34772333D01*
X130127238Y-34486619D02*
X129651048Y-34486619D01*
X129651048Y-34486619D02*
X129603429Y-34962809D01*
X129603429Y-34962809D02*
X129651048Y-34915190D01*
X129651048Y-34915190D02*
X129746286Y-34867571D01*
X129746286Y-34867571D02*
X129984381Y-34867571D01*
X129984381Y-34867571D02*
X130079619Y-34915190D01*
X130079619Y-34915190D02*
X130127238Y-34962809D01*
X130127238Y-34962809D02*
X130174857Y-35058047D01*
X130174857Y-35058047D02*
X130174857Y-35296142D01*
X130174857Y-35296142D02*
X130127238Y-35391380D01*
X130127238Y-35391380D02*
X130079619Y-35439000D01*
X130079619Y-35439000D02*
X129984381Y-35486619D01*
X129984381Y-35486619D02*
X129746286Y-35486619D01*
X129746286Y-35486619D02*
X129651048Y-35439000D01*
X129651048Y-35439000D02*
X129603429Y-35391380D01*
%TO.C,R3*%
X121408333Y-73580619D02*
X121075000Y-73104428D01*
X120836905Y-73580619D02*
X120836905Y-72580619D01*
X120836905Y-72580619D02*
X121217857Y-72580619D01*
X121217857Y-72580619D02*
X121313095Y-72628238D01*
X121313095Y-72628238D02*
X121360714Y-72675857D01*
X121360714Y-72675857D02*
X121408333Y-72771095D01*
X121408333Y-72771095D02*
X121408333Y-72913952D01*
X121408333Y-72913952D02*
X121360714Y-73009190D01*
X121360714Y-73009190D02*
X121313095Y-73056809D01*
X121313095Y-73056809D02*
X121217857Y-73104428D01*
X121217857Y-73104428D02*
X120836905Y-73104428D01*
X121741667Y-72580619D02*
X122360714Y-72580619D01*
X122360714Y-72580619D02*
X122027381Y-72961571D01*
X122027381Y-72961571D02*
X122170238Y-72961571D01*
X122170238Y-72961571D02*
X122265476Y-73009190D01*
X122265476Y-73009190D02*
X122313095Y-73056809D01*
X122313095Y-73056809D02*
X122360714Y-73152047D01*
X122360714Y-73152047D02*
X122360714Y-73390142D01*
X122360714Y-73390142D02*
X122313095Y-73485380D01*
X122313095Y-73485380D02*
X122265476Y-73533000D01*
X122265476Y-73533000D02*
X122170238Y-73580619D01*
X122170238Y-73580619D02*
X121884524Y-73580619D01*
X121884524Y-73580619D02*
X121789286Y-73533000D01*
X121789286Y-73533000D02*
X121741667Y-73485380D01*
%TO.C,J9*%
X92122666Y-35502619D02*
X92122666Y-36216904D01*
X92122666Y-36216904D02*
X92075047Y-36359761D01*
X92075047Y-36359761D02*
X91979809Y-36455000D01*
X91979809Y-36455000D02*
X91836952Y-36502619D01*
X91836952Y-36502619D02*
X91741714Y-36502619D01*
X92646476Y-36502619D02*
X92836952Y-36502619D01*
X92836952Y-36502619D02*
X92932190Y-36455000D01*
X92932190Y-36455000D02*
X92979809Y-36407380D01*
X92979809Y-36407380D02*
X93075047Y-36264523D01*
X93075047Y-36264523D02*
X93122666Y-36074047D01*
X93122666Y-36074047D02*
X93122666Y-35693095D01*
X93122666Y-35693095D02*
X93075047Y-35597857D01*
X93075047Y-35597857D02*
X93027428Y-35550238D01*
X93027428Y-35550238D02*
X92932190Y-35502619D01*
X92932190Y-35502619D02*
X92741714Y-35502619D01*
X92741714Y-35502619D02*
X92646476Y-35550238D01*
X92646476Y-35550238D02*
X92598857Y-35597857D01*
X92598857Y-35597857D02*
X92551238Y-35693095D01*
X92551238Y-35693095D02*
X92551238Y-35931190D01*
X92551238Y-35931190D02*
X92598857Y-36026428D01*
X92598857Y-36026428D02*
X92646476Y-36074047D01*
X92646476Y-36074047D02*
X92741714Y-36121666D01*
X92741714Y-36121666D02*
X92932190Y-36121666D01*
X92932190Y-36121666D02*
X93027428Y-36074047D01*
X93027428Y-36074047D02*
X93075047Y-36026428D01*
X93075047Y-36026428D02*
X93122666Y-35931190D01*
%TO.C,J19*%
X76406476Y-64190619D02*
X76406476Y-64904904D01*
X76406476Y-64904904D02*
X76358857Y-65047761D01*
X76358857Y-65047761D02*
X76263619Y-65143000D01*
X76263619Y-65143000D02*
X76120762Y-65190619D01*
X76120762Y-65190619D02*
X76025524Y-65190619D01*
X77406476Y-65190619D02*
X76835048Y-65190619D01*
X77120762Y-65190619D02*
X77120762Y-64190619D01*
X77120762Y-64190619D02*
X77025524Y-64333476D01*
X77025524Y-64333476D02*
X76930286Y-64428714D01*
X76930286Y-64428714D02*
X76835048Y-64476333D01*
X77882667Y-65190619D02*
X78073143Y-65190619D01*
X78073143Y-65190619D02*
X78168381Y-65143000D01*
X78168381Y-65143000D02*
X78216000Y-65095380D01*
X78216000Y-65095380D02*
X78311238Y-64952523D01*
X78311238Y-64952523D02*
X78358857Y-64762047D01*
X78358857Y-64762047D02*
X78358857Y-64381095D01*
X78358857Y-64381095D02*
X78311238Y-64285857D01*
X78311238Y-64285857D02*
X78263619Y-64238238D01*
X78263619Y-64238238D02*
X78168381Y-64190619D01*
X78168381Y-64190619D02*
X77977905Y-64190619D01*
X77977905Y-64190619D02*
X77882667Y-64238238D01*
X77882667Y-64238238D02*
X77835048Y-64285857D01*
X77835048Y-64285857D02*
X77787429Y-64381095D01*
X77787429Y-64381095D02*
X77787429Y-64619190D01*
X77787429Y-64619190D02*
X77835048Y-64714428D01*
X77835048Y-64714428D02*
X77882667Y-64762047D01*
X77882667Y-64762047D02*
X77977905Y-64809666D01*
X77977905Y-64809666D02*
X78168381Y-64809666D01*
X78168381Y-64809666D02*
X78263619Y-64762047D01*
X78263619Y-64762047D02*
X78311238Y-64714428D01*
X78311238Y-64714428D02*
X78358857Y-64619190D01*
D12*
%TO.C,J4*%
X143227000Y-75892000D02*
X144287000Y-75892000D01*
X143227000Y-76952000D02*
X143227000Y-75892000D01*
X143227000Y-77952000D02*
X143227000Y-78012000D01*
X143227000Y-77952000D02*
X145347000Y-77952000D01*
X143227000Y-78012000D02*
X145347000Y-78012000D01*
X145347000Y-77952000D02*
X145347000Y-78012000D01*
%TO.C,J2*%
X135607000Y-57858000D02*
X136667000Y-57858000D01*
X135607000Y-58918000D02*
X135607000Y-57858000D01*
X135607000Y-59918000D02*
X135607000Y-59978000D01*
X135607000Y-59918000D02*
X137727000Y-59918000D01*
X135607000Y-59978000D02*
X137727000Y-59978000D01*
X137727000Y-59918000D02*
X137727000Y-59978000D01*
%TO.C,J6*%
X110192000Y-37040000D02*
X111252000Y-37040000D01*
X110192000Y-38100000D02*
X110192000Y-37040000D01*
X110192000Y-39100000D02*
X110192000Y-39160000D01*
X110192000Y-39100000D02*
X112312000Y-39100000D01*
X110192000Y-39160000D02*
X112312000Y-39160000D01*
X112312000Y-39100000D02*
X112312000Y-39160000D01*
%TO.C,SW3*%
X114916000Y-64746000D02*
X114916000Y-66246000D01*
X116166000Y-68746000D02*
X120666000Y-68746000D01*
X120666000Y-62246000D02*
X116166000Y-62246000D01*
X121916000Y-66246000D02*
X121916000Y-64746000D01*
%TO.C,J14*%
X127972000Y-31974000D02*
X129032000Y-31974000D01*
X127972000Y-33034000D02*
X127972000Y-31974000D01*
X127972000Y-34034000D02*
X127972000Y-34094000D01*
X127972000Y-34034000D02*
X130092000Y-34034000D01*
X127972000Y-34094000D02*
X130092000Y-34094000D01*
X130092000Y-34034000D02*
X130092000Y-34094000D01*
%TO.C,J5*%
X131782000Y-45168000D02*
X132842000Y-45168000D01*
X131782000Y-46228000D02*
X131782000Y-45168000D01*
X131782000Y-47228000D02*
X131782000Y-47288000D01*
X131782000Y-47228000D02*
X133902000Y-47228000D01*
X131782000Y-47288000D02*
X133902000Y-47288000D01*
X133902000Y-47228000D02*
X133902000Y-47288000D01*
%TO.C,J3*%
X135607000Y-76146000D02*
X136667000Y-76146000D01*
X135607000Y-77206000D02*
X135607000Y-76146000D01*
X135607000Y-78206000D02*
X135607000Y-78266000D01*
X135607000Y-78206000D02*
X137727000Y-78206000D01*
X135607000Y-78266000D02*
X137727000Y-78266000D01*
X137727000Y-78206000D02*
X137727000Y-78266000D01*
%TO.C,U6*%
X150682000Y-65168000D02*
X130242000Y-65168000D01*
X130242000Y-65168000D02*
X130242000Y-70468000D01*
X150682000Y-66818000D02*
X150682000Y-65168000D01*
X150682000Y-70468000D02*
X150682000Y-68818000D01*
X130242000Y-70468000D02*
X150682000Y-70468000D01*
X150682000Y-66818000D02*
G75*
G03*
X150682000Y-68818000I0J-1000000D01*
G01*
%TO.C,J17*%
X76156000Y-57628000D02*
X77216000Y-57628000D01*
X76156000Y-58688000D02*
X76156000Y-57628000D01*
X76156000Y-59688000D02*
X76156000Y-59748000D01*
X76156000Y-59688000D02*
X78276000Y-59688000D01*
X76156000Y-59748000D02*
X78276000Y-59748000D01*
X78276000Y-59688000D02*
X78276000Y-59748000D01*
%TO.C,J7*%
X88348000Y-37040000D02*
X89408000Y-37040000D01*
X88348000Y-38100000D02*
X88348000Y-37040000D01*
X88348000Y-39100000D02*
X88348000Y-39160000D01*
X88348000Y-39100000D02*
X90468000Y-39100000D01*
X88348000Y-39160000D02*
X90468000Y-39160000D01*
X90468000Y-39100000D02*
X90468000Y-39160000D01*
%TO.C,U1*%
X89348000Y-52180000D02*
X125028000Y-52180000D01*
X125028000Y-52180000D02*
X125028000Y-46880000D01*
X89348000Y-50530000D02*
X89348000Y-52180000D01*
X89348000Y-46880000D02*
X89348000Y-48530000D01*
X125028000Y-46880000D02*
X89348000Y-46880000D01*
X89348000Y-50530000D02*
G75*
G03*
X89348000Y-48530000I0J1000000D01*
G01*
%TO.C,SW2*%
X112636000Y-66536000D02*
X112636000Y-65336000D01*
X112336000Y-66236000D02*
X112336000Y-62036000D01*
X112336000Y-62036000D02*
X111136000Y-62036000D01*
X111436000Y-66536000D02*
X112636000Y-66536000D01*
X111136000Y-66236000D02*
X112336000Y-66236000D01*
X104336000Y-66236000D02*
X103136000Y-66236000D01*
X103136000Y-66236000D02*
X103136000Y-62036000D01*
X103136000Y-62036000D02*
X104336000Y-62036000D01*
%TO.C,J16*%
X127972000Y-40074000D02*
X129032000Y-40074000D01*
X127972000Y-41134000D02*
X127972000Y-40074000D01*
X127972000Y-42134000D02*
X127972000Y-42194000D01*
X127972000Y-42134000D02*
X130092000Y-42134000D01*
X127972000Y-42194000D02*
X130092000Y-42194000D01*
X130092000Y-42134000D02*
X130092000Y-42194000D01*
%TO.C,J20*%
X76156000Y-69778000D02*
X77216000Y-69778000D01*
X76156000Y-70838000D02*
X76156000Y-69778000D01*
X76156000Y-71838000D02*
X76156000Y-71898000D01*
X76156000Y-71838000D02*
X78276000Y-71838000D01*
X76156000Y-71898000D02*
X78276000Y-71898000D01*
X78276000Y-71838000D02*
X78276000Y-71898000D01*
%TO.C,J12*%
X103588000Y-37040000D02*
X104648000Y-37040000D01*
X103588000Y-38100000D02*
X103588000Y-37040000D01*
X103588000Y-39100000D02*
X103588000Y-39160000D01*
X103588000Y-39100000D02*
X105708000Y-39100000D01*
X103588000Y-39160000D02*
X105708000Y-39160000D01*
X105708000Y-39100000D02*
X105708000Y-39160000D01*
%TO.C,J18*%
X76156000Y-61678000D02*
X77216000Y-61678000D01*
X76156000Y-62738000D02*
X76156000Y-61678000D01*
X76156000Y-63738000D02*
X76156000Y-63798000D01*
X76156000Y-63738000D02*
X78276000Y-63738000D01*
X76156000Y-63798000D02*
X78276000Y-63798000D01*
X78276000Y-63738000D02*
X78276000Y-63798000D01*
%TO.C,J8*%
X97492000Y-37040000D02*
X98552000Y-37040000D01*
X97492000Y-38100000D02*
X97492000Y-37040000D01*
X97492000Y-39100000D02*
X97492000Y-39160000D01*
X97492000Y-39100000D02*
X99612000Y-39100000D01*
X97492000Y-39160000D02*
X99612000Y-39160000D01*
X99612000Y-39100000D02*
X99612000Y-39160000D01*
%TO.C,SW1*%
X101206000Y-66790000D02*
X101206000Y-65590000D01*
X100906000Y-66490000D02*
X100906000Y-62290000D01*
X100906000Y-62290000D02*
X99706000Y-62290000D01*
X100006000Y-66790000D02*
X101206000Y-66790000D01*
X99706000Y-66490000D02*
X100906000Y-66490000D01*
X92906000Y-66490000D02*
X91706000Y-66490000D01*
X91706000Y-66490000D02*
X91706000Y-62290000D01*
X91706000Y-62290000D02*
X92906000Y-62290000D01*
%TO.C,J1*%
X143227000Y-57858000D02*
X144287000Y-57858000D01*
X143227000Y-58918000D02*
X143227000Y-57858000D01*
X143227000Y-59918000D02*
X143227000Y-59978000D01*
X143227000Y-59918000D02*
X145347000Y-59918000D01*
X143227000Y-59978000D02*
X145347000Y-59978000D01*
X145347000Y-59918000D02*
X145347000Y-59978000D01*
%TO.C,J13*%
X127972000Y-27924000D02*
X129032000Y-27924000D01*
X127972000Y-28984000D02*
X127972000Y-27924000D01*
X127972000Y-29984000D02*
X127972000Y-30044000D01*
X127972000Y-29984000D02*
X130092000Y-29984000D01*
X127972000Y-30044000D02*
X130092000Y-30044000D01*
X130092000Y-29984000D02*
X130092000Y-30044000D01*
D11*
%TO.C,U4*%
X149606000Y-43434000D02*
X159766000Y-43434000D01*
X159766000Y-43434000D02*
X159766000Y-53594000D01*
X159766000Y-53594000D02*
X149606000Y-53594000D01*
X149606000Y-53594000D02*
X149606000Y-43434000D01*
D12*
%TO.C,J11*%
X94444000Y-37040000D02*
X95504000Y-37040000D01*
X94444000Y-38100000D02*
X94444000Y-37040000D01*
X94444000Y-39100000D02*
X94444000Y-39160000D01*
X94444000Y-39100000D02*
X96564000Y-39100000D01*
X94444000Y-39160000D02*
X96564000Y-39160000D01*
X96564000Y-39100000D02*
X96564000Y-39160000D01*
%TO.C,J10*%
X100540000Y-37040000D02*
X101600000Y-37040000D01*
X100540000Y-38100000D02*
X100540000Y-37040000D01*
X100540000Y-39100000D02*
X100540000Y-39160000D01*
X100540000Y-39100000D02*
X102660000Y-39100000D01*
X100540000Y-39160000D02*
X102660000Y-39160000D01*
X102660000Y-39100000D02*
X102660000Y-39160000D01*
%TO.C,J15*%
X127972000Y-36024000D02*
X129032000Y-36024000D01*
X127972000Y-37084000D02*
X127972000Y-36024000D01*
X127972000Y-38084000D02*
X127972000Y-38144000D01*
X127972000Y-38084000D02*
X130092000Y-38084000D01*
X127972000Y-38144000D02*
X130092000Y-38144000D01*
X130092000Y-38084000D02*
X130092000Y-38144000D01*
%TO.C,J9*%
X91396000Y-37040000D02*
X92456000Y-37040000D01*
X91396000Y-38100000D02*
X91396000Y-37040000D01*
X91396000Y-39100000D02*
X91396000Y-39160000D01*
X91396000Y-39100000D02*
X93516000Y-39100000D01*
X91396000Y-39160000D02*
X93516000Y-39160000D01*
X93516000Y-39100000D02*
X93516000Y-39160000D01*
%TO.C,J19*%
X76156000Y-65728000D02*
X77216000Y-65728000D01*
X76156000Y-66788000D02*
X76156000Y-65728000D01*
X76156000Y-67788000D02*
X76156000Y-67848000D01*
X76156000Y-67788000D02*
X78276000Y-67788000D01*
X76156000Y-67848000D02*
X78276000Y-67848000D01*
X78276000Y-67788000D02*
X78276000Y-67848000D01*
%TD*%
M02*
