%TF.GenerationSoftware,KiCad,Pcbnew,(5.1.12)-1*%
%TF.CreationDate,2022-11-24T21:41:11-03:00*%
%TF.ProjectId,LED_tree,4c45445f-7472-4656-952e-6b696361645f,rev?*%
%TF.SameCoordinates,Original*%
%TF.FileFunction,Legend,Top*%
%TF.FilePolarity,Positive*%
%FSLAX46Y46*%
G04 Gerber Fmt 4.6, Leading zero omitted, Abs format (unit mm)*
G04 Created by KiCad (PCBNEW (5.1.12)-1) date 2022-11-24 21:41:11*
%MOMM*%
%LPD*%
G01*
G04 APERTURE LIST*
%ADD10C,0.120000*%
%ADD11C,0.150000*%
G04 APERTURE END LIST*
D10*
%TO.C,SW1*%
X146240000Y-48930000D02*
X148620000Y-48930000D01*
X153530000Y-48930000D02*
X151540000Y-48930000D01*
X153530000Y-36730000D02*
X153530000Y-48930000D01*
X141330000Y-36730000D02*
X153530000Y-36730000D01*
X141330000Y-48930000D02*
X141330000Y-36730000D01*
X143320000Y-48930000D02*
X141330000Y-48930000D01*
X150080000Y-42830000D02*
G75*
G03*
X150080000Y-42830000I-2650000J0D01*
G01*
%TO.C,J2*%
X99745000Y-81865000D02*
X99745000Y-82550000D01*
X99060000Y-81865000D02*
X99745000Y-81865000D01*
X95850000Y-85860000D02*
X95850000Y-83860000D01*
X96270000Y-85860000D02*
X95850000Y-85860000D01*
X96270000Y-83860000D02*
X96270000Y-85860000D01*
X96560000Y-83018215D02*
X96560000Y-83860000D01*
X96850000Y-85860000D02*
X96850000Y-83860000D01*
X97270000Y-85860000D02*
X96850000Y-85860000D01*
X97270000Y-83860000D02*
X97270000Y-85860000D01*
X97560000Y-83018215D02*
X97560000Y-83860000D01*
X97850000Y-85860000D02*
X97850000Y-83860000D01*
X98270000Y-85860000D02*
X97850000Y-85860000D01*
X98270000Y-83860000D02*
X98270000Y-85860000D01*
X98560000Y-83235000D02*
X98560000Y-83860000D01*
X98970000Y-83860000D02*
X98970000Y-85860000D01*
X99090000Y-83860000D02*
X99090000Y-85860000D01*
X99210000Y-83860000D02*
X99210000Y-85860000D01*
X98850000Y-85860000D02*
X98850000Y-83860000D01*
X99270000Y-85860000D02*
X98850000Y-85860000D01*
X99270000Y-83860000D02*
X99270000Y-85860000D01*
X95500000Y-83860000D02*
X95500000Y-82944493D01*
X99620000Y-83860000D02*
X95500000Y-83860000D01*
X99620000Y-83235000D02*
X99620000Y-83860000D01*
%TO.C,J1*%
X89585000Y-32435000D02*
X88900000Y-32435000D01*
X89585000Y-31750000D02*
X89585000Y-32435000D01*
X87590000Y-31660000D02*
X85590000Y-31660000D01*
X87590000Y-31780000D02*
X85590000Y-31780000D01*
X87590000Y-31900000D02*
X85590000Y-31900000D01*
X85590000Y-31540000D02*
X87590000Y-31540000D01*
X85590000Y-31960000D02*
X85590000Y-31540000D01*
X87590000Y-31960000D02*
X85590000Y-31960000D01*
X87590000Y-31190000D02*
X88215000Y-31190000D01*
X87590000Y-32310000D02*
X87590000Y-31190000D01*
X88215000Y-32310000D02*
X87590000Y-32310000D01*
%TO.C,U1*%
X127770000Y-63820000D02*
X126120000Y-63820000D01*
X126120000Y-63820000D02*
X126120000Y-89340000D01*
X126120000Y-89340000D02*
X131420000Y-89340000D01*
X131420000Y-89340000D02*
X131420000Y-63820000D01*
X131420000Y-63820000D02*
X129770000Y-63820000D01*
X129770000Y-63820000D02*
G75*
G02*
X127770000Y-63820000I-1000000J0D01*
G01*
%TO.C,R7*%
X169830000Y-68580000D02*
G75*
G03*
X169830000Y-68580000I-920000J0D01*
G01*
X168910000Y-69500000D02*
X168910000Y-70120000D01*
%TO.C,R6*%
X111410000Y-82550000D02*
G75*
G03*
X111410000Y-82550000I-920000J0D01*
G01*
X110490000Y-83470000D02*
X110490000Y-84090000D01*
%TO.C,R5*%
X107600000Y-77470000D02*
G75*
G03*
X107600000Y-77470000I-920000J0D01*
G01*
X106680000Y-78390000D02*
X106680000Y-79010000D01*
%TO.C,R4*%
X103790000Y-74930000D02*
G75*
G03*
X103790000Y-74930000I-920000J0D01*
G01*
X102870000Y-74010000D02*
X102870000Y-73390000D01*
%TO.C,R3*%
X99980000Y-69850000D02*
G75*
G03*
X99980000Y-69850000I-920000J0D01*
G01*
X99060000Y-68930000D02*
X99060000Y-68310000D01*
%TO.C,R2*%
X129190000Y-58420000D02*
G75*
G03*
X129190000Y-58420000I-920000J0D01*
G01*
X129190000Y-58420000D02*
X129810000Y-58420000D01*
%TO.C,R1*%
X93630000Y-101600000D02*
G75*
G03*
X93630000Y-101600000I-920000J0D01*
G01*
X92710000Y-100680000D02*
X92710000Y-100060000D01*
%TO.C,Q1*%
X73080000Y-64240000D02*
X73080000Y-67840000D01*
X73091522Y-67878478D02*
G75*
G03*
X77530000Y-66040000I1838478J1838478D01*
G01*
X73091522Y-64201522D02*
G75*
G02*
X77530000Y-66040000I1838478J-1838478D01*
G01*
%TO.C,C1*%
X149075000Y-56350000D02*
X149075000Y-58835000D01*
X149075000Y-58835000D02*
X150645000Y-58835000D01*
X150645000Y-58835000D02*
X150645000Y-56350000D01*
%TO.C,BZ1*%
X108970000Y-36820000D02*
G75*
G03*
X108970000Y-36820000I-6100000J0D01*
G01*
%TO.C,SW1*%
D11*
X140834761Y-44163333D02*
X140882380Y-44020476D01*
X140882380Y-43782380D01*
X140834761Y-43687142D01*
X140787142Y-43639523D01*
X140691904Y-43591904D01*
X140596666Y-43591904D01*
X140501428Y-43639523D01*
X140453809Y-43687142D01*
X140406190Y-43782380D01*
X140358571Y-43972857D01*
X140310952Y-44068095D01*
X140263333Y-44115714D01*
X140168095Y-44163333D01*
X140072857Y-44163333D01*
X139977619Y-44115714D01*
X139930000Y-44068095D01*
X139882380Y-43972857D01*
X139882380Y-43734761D01*
X139930000Y-43591904D01*
X139882380Y-43258571D02*
X140882380Y-43020476D01*
X140168095Y-42830000D01*
X140882380Y-42639523D01*
X139882380Y-42401428D01*
X140882380Y-41496666D02*
X140882380Y-42068095D01*
X140882380Y-41782380D02*
X139882380Y-41782380D01*
X140025238Y-41877619D01*
X140120476Y-41972857D01*
X140168095Y-42068095D01*
%TO.C,J2*%
X100012380Y-84258333D02*
X100726666Y-84258333D01*
X100869523Y-84305952D01*
X100964761Y-84401190D01*
X101012380Y-84544047D01*
X101012380Y-84639285D01*
X100107619Y-83829761D02*
X100060000Y-83782142D01*
X100012380Y-83686904D01*
X100012380Y-83448809D01*
X100060000Y-83353571D01*
X100107619Y-83305952D01*
X100202857Y-83258333D01*
X100298095Y-83258333D01*
X100440952Y-83305952D01*
X101012380Y-83877380D01*
X101012380Y-83258333D01*
%TO.C,J1*%
X87191666Y-32702380D02*
X87191666Y-33416666D01*
X87144047Y-33559523D01*
X87048809Y-33654761D01*
X86905952Y-33702380D01*
X86810714Y-33702380D01*
X88191666Y-33702380D02*
X87620238Y-33702380D01*
X87905952Y-33702380D02*
X87905952Y-32702380D01*
X87810714Y-32845238D01*
X87715476Y-32940476D01*
X87620238Y-32988095D01*
%TO.C,U1*%
X128008095Y-62272380D02*
X128008095Y-63081904D01*
X128055714Y-63177142D01*
X128103333Y-63224761D01*
X128198571Y-63272380D01*
X128389047Y-63272380D01*
X128484285Y-63224761D01*
X128531904Y-63177142D01*
X128579523Y-63081904D01*
X128579523Y-62272380D01*
X129579523Y-63272380D02*
X129008095Y-63272380D01*
X129293809Y-63272380D02*
X129293809Y-62272380D01*
X129198571Y-62415238D01*
X129103333Y-62510476D01*
X129008095Y-62558095D01*
%TO.C,R7*%
X171282380Y-70016666D02*
X170806190Y-70350000D01*
X171282380Y-70588095D02*
X170282380Y-70588095D01*
X170282380Y-70207142D01*
X170330000Y-70111904D01*
X170377619Y-70064285D01*
X170472857Y-70016666D01*
X170615714Y-70016666D01*
X170710952Y-70064285D01*
X170758571Y-70111904D01*
X170806190Y-70207142D01*
X170806190Y-70588095D01*
X170282380Y-69683333D02*
X170282380Y-69016666D01*
X171282380Y-69445238D01*
%TO.C,R6*%
X112862380Y-83986666D02*
X112386190Y-84320000D01*
X112862380Y-84558095D02*
X111862380Y-84558095D01*
X111862380Y-84177142D01*
X111910000Y-84081904D01*
X111957619Y-84034285D01*
X112052857Y-83986666D01*
X112195714Y-83986666D01*
X112290952Y-84034285D01*
X112338571Y-84081904D01*
X112386190Y-84177142D01*
X112386190Y-84558095D01*
X111862380Y-83129523D02*
X111862380Y-83320000D01*
X111910000Y-83415238D01*
X111957619Y-83462857D01*
X112100476Y-83558095D01*
X112290952Y-83605714D01*
X112671904Y-83605714D01*
X112767142Y-83558095D01*
X112814761Y-83510476D01*
X112862380Y-83415238D01*
X112862380Y-83224761D01*
X112814761Y-83129523D01*
X112767142Y-83081904D01*
X112671904Y-83034285D01*
X112433809Y-83034285D01*
X112338571Y-83081904D01*
X112290952Y-83129523D01*
X112243333Y-83224761D01*
X112243333Y-83415238D01*
X112290952Y-83510476D01*
X112338571Y-83558095D01*
X112433809Y-83605714D01*
%TO.C,R5*%
X109052380Y-78906666D02*
X108576190Y-79240000D01*
X109052380Y-79478095D02*
X108052380Y-79478095D01*
X108052380Y-79097142D01*
X108100000Y-79001904D01*
X108147619Y-78954285D01*
X108242857Y-78906666D01*
X108385714Y-78906666D01*
X108480952Y-78954285D01*
X108528571Y-79001904D01*
X108576190Y-79097142D01*
X108576190Y-79478095D01*
X108052380Y-78001904D02*
X108052380Y-78478095D01*
X108528571Y-78525714D01*
X108480952Y-78478095D01*
X108433333Y-78382857D01*
X108433333Y-78144761D01*
X108480952Y-78049523D01*
X108528571Y-78001904D01*
X108623809Y-77954285D01*
X108861904Y-77954285D01*
X108957142Y-78001904D01*
X109004761Y-78049523D01*
X109052380Y-78144761D01*
X109052380Y-78382857D01*
X109004761Y-78478095D01*
X108957142Y-78525714D01*
%TO.C,R4*%
X101402380Y-73826666D02*
X100926190Y-74160000D01*
X101402380Y-74398095D02*
X100402380Y-74398095D01*
X100402380Y-74017142D01*
X100450000Y-73921904D01*
X100497619Y-73874285D01*
X100592857Y-73826666D01*
X100735714Y-73826666D01*
X100830952Y-73874285D01*
X100878571Y-73921904D01*
X100926190Y-74017142D01*
X100926190Y-74398095D01*
X100735714Y-72969523D02*
X101402380Y-72969523D01*
X100354761Y-73207619D02*
X101069047Y-73445714D01*
X101069047Y-72826666D01*
%TO.C,R3*%
X97592380Y-68746666D02*
X97116190Y-69080000D01*
X97592380Y-69318095D02*
X96592380Y-69318095D01*
X96592380Y-68937142D01*
X96640000Y-68841904D01*
X96687619Y-68794285D01*
X96782857Y-68746666D01*
X96925714Y-68746666D01*
X97020952Y-68794285D01*
X97068571Y-68841904D01*
X97116190Y-68937142D01*
X97116190Y-69318095D01*
X96592380Y-68413333D02*
X96592380Y-67794285D01*
X96973333Y-68127619D01*
X96973333Y-67984761D01*
X97020952Y-67889523D01*
X97068571Y-67841904D01*
X97163809Y-67794285D01*
X97401904Y-67794285D01*
X97497142Y-67841904D01*
X97544761Y-67889523D01*
X97592380Y-67984761D01*
X97592380Y-68270476D01*
X97544761Y-68365714D01*
X97497142Y-68413333D01*
%TO.C,R2*%
X129373333Y-56952380D02*
X129040000Y-56476190D01*
X128801904Y-56952380D02*
X128801904Y-55952380D01*
X129182857Y-55952380D01*
X129278095Y-56000000D01*
X129325714Y-56047619D01*
X129373333Y-56142857D01*
X129373333Y-56285714D01*
X129325714Y-56380952D01*
X129278095Y-56428571D01*
X129182857Y-56476190D01*
X128801904Y-56476190D01*
X129754285Y-56047619D02*
X129801904Y-56000000D01*
X129897142Y-55952380D01*
X130135238Y-55952380D01*
X130230476Y-56000000D01*
X130278095Y-56047619D01*
X130325714Y-56142857D01*
X130325714Y-56238095D01*
X130278095Y-56380952D01*
X129706666Y-56952380D01*
X130325714Y-56952380D01*
%TO.C,R1*%
X91242380Y-100496666D02*
X90766190Y-100830000D01*
X91242380Y-101068095D02*
X90242380Y-101068095D01*
X90242380Y-100687142D01*
X90290000Y-100591904D01*
X90337619Y-100544285D01*
X90432857Y-100496666D01*
X90575714Y-100496666D01*
X90670952Y-100544285D01*
X90718571Y-100591904D01*
X90766190Y-100687142D01*
X90766190Y-101068095D01*
X91242380Y-99544285D02*
X91242380Y-100115714D01*
X91242380Y-99830000D02*
X90242380Y-99830000D01*
X90385238Y-99925238D01*
X90480476Y-100020476D01*
X90528095Y-100115714D01*
%TO.C,Q1*%
X79037619Y-66135238D02*
X78990000Y-66230476D01*
X78894761Y-66325714D01*
X78751904Y-66468571D01*
X78704285Y-66563809D01*
X78704285Y-66659047D01*
X78942380Y-66611428D02*
X78894761Y-66706666D01*
X78799523Y-66801904D01*
X78609047Y-66849523D01*
X78275714Y-66849523D01*
X78085238Y-66801904D01*
X77990000Y-66706666D01*
X77942380Y-66611428D01*
X77942380Y-66420952D01*
X77990000Y-66325714D01*
X78085238Y-66230476D01*
X78275714Y-66182857D01*
X78609047Y-66182857D01*
X78799523Y-66230476D01*
X78894761Y-66325714D01*
X78942380Y-66420952D01*
X78942380Y-66611428D01*
X78942380Y-65230476D02*
X78942380Y-65801904D01*
X78942380Y-65516190D02*
X77942380Y-65516190D01*
X78085238Y-65611428D01*
X78180476Y-65706666D01*
X78228095Y-65801904D01*
%TO.C,C1*%
X148737142Y-57316666D02*
X148784761Y-57364285D01*
X148832380Y-57507142D01*
X148832380Y-57602380D01*
X148784761Y-57745238D01*
X148689523Y-57840476D01*
X148594285Y-57888095D01*
X148403809Y-57935714D01*
X148260952Y-57935714D01*
X148070476Y-57888095D01*
X147975238Y-57840476D01*
X147880000Y-57745238D01*
X147832380Y-57602380D01*
X147832380Y-57507142D01*
X147880000Y-57364285D01*
X147927619Y-57316666D01*
X148832380Y-56364285D02*
X148832380Y-56935714D01*
X148832380Y-56650000D02*
X147832380Y-56650000D01*
X147975238Y-56745238D01*
X148070476Y-56840476D01*
X148118095Y-56935714D01*
%TO.C,BZ1*%
X109998571Y-37700952D02*
X110046190Y-37558095D01*
X110093809Y-37510476D01*
X110189047Y-37462857D01*
X110331904Y-37462857D01*
X110427142Y-37510476D01*
X110474761Y-37558095D01*
X110522380Y-37653333D01*
X110522380Y-38034285D01*
X109522380Y-38034285D01*
X109522380Y-37700952D01*
X109570000Y-37605714D01*
X109617619Y-37558095D01*
X109712857Y-37510476D01*
X109808095Y-37510476D01*
X109903333Y-37558095D01*
X109950952Y-37605714D01*
X109998571Y-37700952D01*
X109998571Y-38034285D01*
X109522380Y-37129523D02*
X109522380Y-36462857D01*
X110522380Y-37129523D01*
X110522380Y-36462857D01*
X110522380Y-35558095D02*
X110522380Y-36129523D01*
X110522380Y-35843809D02*
X109522380Y-35843809D01*
X109665238Y-35939047D01*
X109760476Y-36034285D01*
X109808095Y-36129523D01*
X105481428Y-33390952D02*
X105481428Y-32629047D01*
X105862380Y-33010000D02*
X105100476Y-33010000D01*
%TD*%
M02*
