%TF.GenerationSoftware,KiCad,Pcbnew,(5.1.12)-1*%
%TF.CreationDate,2022-11-24T21:41:11-03:00*%
%TF.ProjectId,LED_tree,4c45445f-7472-4656-952e-6b696361645f,rev?*%
%TF.SameCoordinates,Original*%
%TF.FileFunction,Copper,L1,Top*%
%TF.FilePolarity,Positive*%
%FSLAX46Y46*%
G04 Gerber Fmt 4.6, Leading zero omitted, Abs format (unit mm)*
G04 Created by KiCad (PCBNEW (5.1.12)-1) date 2022-11-24 21:41:11*
%MOMM*%
%LPD*%
G01*
G04 APERTURE LIST*
%TA.AperFunction,NonConductor*%
%ADD10C,0.150000*%
%TD*%
%TA.AperFunction,ComponentPad*%
%ADD11C,2.400000*%
%TD*%
%TA.AperFunction,ComponentPad*%
%ADD12O,0.850000X0.850000*%
%TD*%
%TA.AperFunction,ComponentPad*%
%ADD13R,0.850000X0.850000*%
%TD*%
%TA.AperFunction,ComponentPad*%
%ADD14O,1.600000X1.600000*%
%TD*%
%TA.AperFunction,ComponentPad*%
%ADD15R,1.600000X1.600000*%
%TD*%
%TA.AperFunction,ComponentPad*%
%ADD16O,1.400000X1.400000*%
%TD*%
%TA.AperFunction,ComponentPad*%
%ADD17C,1.400000*%
%TD*%
%TA.AperFunction,ComponentPad*%
%ADD18R,1.500000X1.050000*%
%TD*%
%TA.AperFunction,ComponentPad*%
%ADD19O,1.500000X1.050000*%
%TD*%
%TA.AperFunction,ComponentPad*%
%ADD20C,2.000000*%
%TD*%
%TA.AperFunction,ComponentPad*%
%ADD21R,2.000000X2.000000*%
%TD*%
%TA.AperFunction,Conductor*%
%ADD22C,0.500000*%
%TD*%
%TA.AperFunction,Conductor*%
%ADD23C,0.250000*%
%TD*%
G04 APERTURE END LIST*
D10*
X111101428Y-30408571D02*
X111244285Y-30456190D01*
X111291904Y-30503809D01*
X111339523Y-30599047D01*
X111339523Y-30741904D01*
X111291904Y-30837142D01*
X111244285Y-30884761D01*
X111149047Y-30932380D01*
X110768095Y-30932380D01*
X110768095Y-29932380D01*
X111101428Y-29932380D01*
X111196666Y-29980000D01*
X111244285Y-30027619D01*
X111291904Y-30122857D01*
X111291904Y-30218095D01*
X111244285Y-30313333D01*
X111196666Y-30360952D01*
X111101428Y-30408571D01*
X110768095Y-30408571D01*
X112196666Y-30265714D02*
X112196666Y-30932380D01*
X111768095Y-30265714D02*
X111768095Y-30789523D01*
X111815714Y-30884761D01*
X111910952Y-30932380D01*
X112053809Y-30932380D01*
X112149047Y-30884761D01*
X112196666Y-30837142D01*
X112577619Y-30265714D02*
X113101428Y-30265714D01*
X112577619Y-30932380D01*
X113101428Y-30932380D01*
X113387142Y-30265714D02*
X113910952Y-30265714D01*
X113387142Y-30932380D01*
X113910952Y-30932380D01*
X114672857Y-30884761D02*
X114577619Y-30932380D01*
X114387142Y-30932380D01*
X114291904Y-30884761D01*
X114244285Y-30789523D01*
X114244285Y-30408571D01*
X114291904Y-30313333D01*
X114387142Y-30265714D01*
X114577619Y-30265714D01*
X114672857Y-30313333D01*
X114720476Y-30408571D01*
X114720476Y-30503809D01*
X114244285Y-30599047D01*
X115149047Y-30932380D02*
X115149047Y-30265714D01*
X115149047Y-30456190D02*
X115196666Y-30360952D01*
X115244285Y-30313333D01*
X115339523Y-30265714D01*
X115434761Y-30265714D01*
X139709047Y-31678571D02*
X139851904Y-31726190D01*
X139899523Y-31773809D01*
X139947142Y-31869047D01*
X139947142Y-32011904D01*
X139899523Y-32107142D01*
X139851904Y-32154761D01*
X139756666Y-32202380D01*
X139375714Y-32202380D01*
X139375714Y-31202380D01*
X139709047Y-31202380D01*
X139804285Y-31250000D01*
X139851904Y-31297619D01*
X139899523Y-31392857D01*
X139899523Y-31488095D01*
X139851904Y-31583333D01*
X139804285Y-31630952D01*
X139709047Y-31678571D01*
X139375714Y-31678571D01*
X140804285Y-31535714D02*
X140804285Y-32202380D01*
X140375714Y-31535714D02*
X140375714Y-32059523D01*
X140423333Y-32154761D01*
X140518571Y-32202380D01*
X140661428Y-32202380D01*
X140756666Y-32154761D01*
X140804285Y-32107142D01*
X141137619Y-31535714D02*
X141518571Y-31535714D01*
X141280476Y-31202380D02*
X141280476Y-32059523D01*
X141328095Y-32154761D01*
X141423333Y-32202380D01*
X141518571Y-32202380D01*
X141709047Y-31535714D02*
X142090000Y-31535714D01*
X141851904Y-31202380D02*
X141851904Y-32059523D01*
X141899523Y-32154761D01*
X141994761Y-32202380D01*
X142090000Y-32202380D01*
X142566190Y-32202380D02*
X142470952Y-32154761D01*
X142423333Y-32107142D01*
X142375714Y-32011904D01*
X142375714Y-31726190D01*
X142423333Y-31630952D01*
X142470952Y-31583333D01*
X142566190Y-31535714D01*
X142709047Y-31535714D01*
X142804285Y-31583333D01*
X142851904Y-31630952D01*
X142899523Y-31726190D01*
X142899523Y-32011904D01*
X142851904Y-32107142D01*
X142804285Y-32154761D01*
X142709047Y-32202380D01*
X142566190Y-32202380D01*
X143328095Y-31535714D02*
X143328095Y-32202380D01*
X143328095Y-31630952D02*
X143375714Y-31583333D01*
X143470952Y-31535714D01*
X143613809Y-31535714D01*
X143709047Y-31583333D01*
X143756666Y-31678571D01*
X143756666Y-32202380D01*
X144851904Y-31535714D02*
X145232857Y-31535714D01*
X144994761Y-31202380D02*
X144994761Y-32059523D01*
X145042380Y-32154761D01*
X145137619Y-32202380D01*
X145232857Y-32202380D01*
X145709047Y-32202380D02*
X145613809Y-32154761D01*
X145566190Y-32107142D01*
X145518571Y-32011904D01*
X145518571Y-31726190D01*
X145566190Y-31630952D01*
X145613809Y-31583333D01*
X145709047Y-31535714D01*
X145851904Y-31535714D01*
X145947142Y-31583333D01*
X145994761Y-31630952D01*
X146042380Y-31726190D01*
X146042380Y-32011904D01*
X145994761Y-32107142D01*
X145947142Y-32154761D01*
X145851904Y-32202380D01*
X145709047Y-32202380D01*
X147661428Y-32202380D02*
X147661428Y-31678571D01*
X147613809Y-31583333D01*
X147518571Y-31535714D01*
X147328095Y-31535714D01*
X147232857Y-31583333D01*
X147661428Y-32154761D02*
X147566190Y-32202380D01*
X147328095Y-32202380D01*
X147232857Y-32154761D01*
X147185238Y-32059523D01*
X147185238Y-31964285D01*
X147232857Y-31869047D01*
X147328095Y-31821428D01*
X147566190Y-31821428D01*
X147661428Y-31773809D01*
X148566190Y-32154761D02*
X148470952Y-32202380D01*
X148280476Y-32202380D01*
X148185238Y-32154761D01*
X148137619Y-32107142D01*
X148090000Y-32011904D01*
X148090000Y-31726190D01*
X148137619Y-31630952D01*
X148185238Y-31583333D01*
X148280476Y-31535714D01*
X148470952Y-31535714D01*
X148566190Y-31583333D01*
X148851904Y-31535714D02*
X149232857Y-31535714D01*
X148994761Y-31202380D02*
X148994761Y-32059523D01*
X149042380Y-32154761D01*
X149137619Y-32202380D01*
X149232857Y-32202380D01*
X149566190Y-32202380D02*
X149566190Y-31535714D01*
X149566190Y-31202380D02*
X149518571Y-31250000D01*
X149566190Y-31297619D01*
X149613809Y-31250000D01*
X149566190Y-31202380D01*
X149566190Y-31297619D01*
X149947142Y-31535714D02*
X150185238Y-32202380D01*
X150423333Y-31535714D01*
X151232857Y-32202380D02*
X151232857Y-31678571D01*
X151185238Y-31583333D01*
X151090000Y-31535714D01*
X150899523Y-31535714D01*
X150804285Y-31583333D01*
X151232857Y-32154761D02*
X151137619Y-32202380D01*
X150899523Y-32202380D01*
X150804285Y-32154761D01*
X150756666Y-32059523D01*
X150756666Y-31964285D01*
X150804285Y-31869047D01*
X150899523Y-31821428D01*
X151137619Y-31821428D01*
X151232857Y-31773809D01*
X151566190Y-31535714D02*
X151947142Y-31535714D01*
X151709047Y-31202380D02*
X151709047Y-32059523D01*
X151756666Y-32154761D01*
X151851904Y-32202380D01*
X151947142Y-32202380D01*
X152661428Y-32154761D02*
X152566190Y-32202380D01*
X152375714Y-32202380D01*
X152280476Y-32154761D01*
X152232857Y-32059523D01*
X152232857Y-31678571D01*
X152280476Y-31583333D01*
X152375714Y-31535714D01*
X152566190Y-31535714D01*
X152661428Y-31583333D01*
X152709047Y-31678571D01*
X152709047Y-31773809D01*
X152232857Y-31869047D01*
X153899523Y-32202380D02*
X153899523Y-31535714D01*
X153899523Y-31630952D02*
X153947142Y-31583333D01*
X154042380Y-31535714D01*
X154185238Y-31535714D01*
X154280476Y-31583333D01*
X154328095Y-31678571D01*
X154328095Y-32202380D01*
X154328095Y-31678571D02*
X154375714Y-31583333D01*
X154470952Y-31535714D01*
X154613809Y-31535714D01*
X154709047Y-31583333D01*
X154756666Y-31678571D01*
X154756666Y-32202380D01*
X155661428Y-31535714D02*
X155661428Y-32202380D01*
X155232857Y-31535714D02*
X155232857Y-32059523D01*
X155280476Y-32154761D01*
X155375714Y-32202380D01*
X155518571Y-32202380D01*
X155613809Y-32154761D01*
X155661428Y-32107142D01*
X156090000Y-32154761D02*
X156185238Y-32202380D01*
X156375714Y-32202380D01*
X156470952Y-32154761D01*
X156518571Y-32059523D01*
X156518571Y-32011904D01*
X156470952Y-31916666D01*
X156375714Y-31869047D01*
X156232857Y-31869047D01*
X156137619Y-31821428D01*
X156090000Y-31726190D01*
X156090000Y-31678571D01*
X156137619Y-31583333D01*
X156232857Y-31535714D01*
X156375714Y-31535714D01*
X156470952Y-31583333D01*
X156947142Y-32202380D02*
X156947142Y-31535714D01*
X156947142Y-31202380D02*
X156899523Y-31250000D01*
X156947142Y-31297619D01*
X156994761Y-31250000D01*
X156947142Y-31202380D01*
X156947142Y-31297619D01*
X157851904Y-32154761D02*
X157756666Y-32202380D01*
X157566190Y-32202380D01*
X157470952Y-32154761D01*
X157423333Y-32107142D01*
X157375714Y-32011904D01*
X157375714Y-31726190D01*
X157423333Y-31630952D01*
X157470952Y-31583333D01*
X157566190Y-31535714D01*
X157756666Y-31535714D01*
X157851904Y-31583333D01*
X90249523Y-33742380D02*
X90582857Y-34742380D01*
X90916190Y-33742380D01*
X91678095Y-34694761D02*
X91582857Y-34742380D01*
X91392380Y-34742380D01*
X91297142Y-34694761D01*
X91249523Y-34647142D01*
X91201904Y-34551904D01*
X91201904Y-34266190D01*
X91249523Y-34170952D01*
X91297142Y-34123333D01*
X91392380Y-34075714D01*
X91582857Y-34075714D01*
X91678095Y-34123333D01*
X92535238Y-34694761D02*
X92440000Y-34742380D01*
X92249523Y-34742380D01*
X92154285Y-34694761D01*
X92106666Y-34647142D01*
X92059047Y-34551904D01*
X92059047Y-34266190D01*
X92106666Y-34170952D01*
X92154285Y-34123333D01*
X92249523Y-34075714D01*
X92440000Y-34075714D01*
X92535238Y-34123333D01*
X97076190Y-89257142D02*
X97028571Y-89304761D01*
X96885714Y-89352380D01*
X96790476Y-89352380D01*
X96647619Y-89304761D01*
X96552380Y-89209523D01*
X96504761Y-89114285D01*
X96457142Y-88923809D01*
X96457142Y-88780952D01*
X96504761Y-88590476D01*
X96552380Y-88495238D01*
X96647619Y-88400000D01*
X96790476Y-88352380D01*
X96885714Y-88352380D01*
X97028571Y-88400000D01*
X97076190Y-88447619D01*
X97504761Y-89352380D02*
X97504761Y-88352380D01*
X97933333Y-89352380D02*
X97933333Y-88828571D01*
X97885714Y-88733333D01*
X97790476Y-88685714D01*
X97647619Y-88685714D01*
X97552380Y-88733333D01*
X97504761Y-88780952D01*
X98838095Y-89352380D02*
X98838095Y-88828571D01*
X98790476Y-88733333D01*
X98695238Y-88685714D01*
X98504761Y-88685714D01*
X98409523Y-88733333D01*
X98838095Y-89304761D02*
X98742857Y-89352380D01*
X98504761Y-89352380D01*
X98409523Y-89304761D01*
X98361904Y-89209523D01*
X98361904Y-89114285D01*
X98409523Y-89019047D01*
X98504761Y-88971428D01*
X98742857Y-88971428D01*
X98838095Y-88923809D01*
X99314285Y-89352380D02*
X99314285Y-88685714D01*
X99314285Y-88876190D02*
X99361904Y-88780952D01*
X99409523Y-88733333D01*
X99504761Y-88685714D01*
X99600000Y-88685714D01*
X100076190Y-89352380D02*
X99980952Y-89304761D01*
X99933333Y-89209523D01*
X99933333Y-88352380D01*
X100457142Y-89352380D02*
X100457142Y-88685714D01*
X100457142Y-88352380D02*
X100409523Y-88400000D01*
X100457142Y-88447619D01*
X100504761Y-88400000D01*
X100457142Y-88352380D01*
X100457142Y-88447619D01*
X101314285Y-89304761D02*
X101219047Y-89352380D01*
X101028571Y-89352380D01*
X100933333Y-89304761D01*
X100885714Y-89209523D01*
X100885714Y-88828571D01*
X100933333Y-88733333D01*
X101028571Y-88685714D01*
X101219047Y-88685714D01*
X101314285Y-88733333D01*
X101361904Y-88828571D01*
X101361904Y-88923809D01*
X100885714Y-89019047D01*
X101790476Y-88685714D02*
X101790476Y-89685714D01*
X101790476Y-88733333D02*
X101885714Y-88685714D01*
X102076190Y-88685714D01*
X102171428Y-88733333D01*
X102219047Y-88780952D01*
X102266666Y-88876190D01*
X102266666Y-89161904D01*
X102219047Y-89257142D01*
X102171428Y-89304761D01*
X102076190Y-89352380D01*
X101885714Y-89352380D01*
X101790476Y-89304761D01*
X102838095Y-89352380D02*
X102742857Y-89304761D01*
X102695238Y-89209523D01*
X102695238Y-88352380D01*
X103600000Y-89304761D02*
X103504761Y-89352380D01*
X103314285Y-89352380D01*
X103219047Y-89304761D01*
X103171428Y-89209523D01*
X103171428Y-88828571D01*
X103219047Y-88733333D01*
X103314285Y-88685714D01*
X103504761Y-88685714D01*
X103600000Y-88733333D01*
X103647619Y-88828571D01*
X103647619Y-88923809D01*
X103171428Y-89019047D01*
X103980952Y-89352380D02*
X104504761Y-88685714D01*
X103980952Y-88685714D02*
X104504761Y-89352380D01*
X104885714Y-89352380D02*
X104885714Y-88685714D01*
X104885714Y-88352380D02*
X104838095Y-88400000D01*
X104885714Y-88447619D01*
X104933333Y-88400000D01*
X104885714Y-88352380D01*
X104885714Y-88447619D01*
X105361904Y-88685714D02*
X105361904Y-89352380D01*
X105361904Y-88780952D02*
X105409523Y-88733333D01*
X105504761Y-88685714D01*
X105647619Y-88685714D01*
X105742857Y-88733333D01*
X105790476Y-88828571D01*
X105790476Y-89352380D01*
X106695238Y-88685714D02*
X106695238Y-89495238D01*
X106647619Y-89590476D01*
X106600000Y-89638095D01*
X106504761Y-89685714D01*
X106361904Y-89685714D01*
X106266666Y-89638095D01*
X106695238Y-89304761D02*
X106600000Y-89352380D01*
X106409523Y-89352380D01*
X106314285Y-89304761D01*
X106266666Y-89257142D01*
X106219047Y-89161904D01*
X106219047Y-88876190D01*
X106266666Y-88780952D01*
X106314285Y-88733333D01*
X106409523Y-88685714D01*
X106600000Y-88685714D01*
X106695238Y-88733333D01*
D11*
%TO.P,SW1,2*%
%TO.N,GND*%
X150080000Y-49530000D03*
%TO.P,SW1,1*%
%TO.N,Net-(R2-Pad2)*%
X144780000Y-49530000D03*
%TD*%
D12*
%TO.P,J2,4*%
%TO.N,Net-(J2-Pad4)*%
X96060000Y-82550000D03*
%TO.P,J2,3*%
%TO.N,Net-(J2-Pad3)*%
X97060000Y-82550000D03*
%TO.P,J2,2*%
%TO.N,Net-(J2-Pad2)*%
X98060000Y-82550000D03*
D13*
%TO.P,J2,1*%
%TO.N,Net-(J2-Pad1)*%
X99060000Y-82550000D03*
%TD*%
%TO.P,J1,1*%
%TO.N,Net-(BZ1-Pad1)*%
X88900000Y-31750000D03*
%TD*%
D14*
%TO.P,U1,20*%
%TO.N,GND*%
X132580000Y-65150000D03*
%TO.P,U1,10*%
%TO.N,Net-(U1-Pad10)*%
X124960000Y-88010000D03*
%TO.P,U1,19*%
%TO.N,Net-(U1-Pad19)*%
X132580000Y-67690000D03*
%TO.P,U1,9*%
%TO.N,Net-(U1-Pad9)*%
X124960000Y-85470000D03*
%TO.P,U1,18*%
%TO.N,Net-(U1-Pad18)*%
X132580000Y-70230000D03*
%TO.P,U1,8*%
%TO.N,Net-(R6-Pad1)*%
X124960000Y-82930000D03*
%TO.P,U1,17*%
%TO.N,Net-(C1-Pad1)*%
X132580000Y-72770000D03*
%TO.P,U1,7*%
%TO.N,Net-(R5-Pad1)*%
X124960000Y-80390000D03*
%TO.P,U1,16*%
%TO.N,Net-(U1-Pad16)*%
X132580000Y-75310000D03*
%TO.P,U1,6*%
%TO.N,Net-(R4-Pad2)*%
X124960000Y-77850000D03*
%TO.P,U1,15*%
%TO.N,Net-(U1-Pad15)*%
X132580000Y-77850000D03*
%TO.P,U1,5*%
%TO.N,Net-(R3-Pad2)*%
X124960000Y-75310000D03*
%TO.P,U1,14*%
%TO.N,Net-(R1-Pad1)*%
X132580000Y-80390000D03*
%TO.P,U1,4*%
%TO.N,Net-(U1-Pad4)*%
X124960000Y-72770000D03*
%TO.P,U1,13*%
%TO.N,Net-(U1-Pad13)*%
X132580000Y-82930000D03*
%TO.P,U1,3*%
%TO.N,Net-(U1-Pad3)*%
X124960000Y-70230000D03*
%TO.P,U1,12*%
%TO.N,Net-(U1-Pad12)*%
X132580000Y-85470000D03*
%TO.P,U1,2*%
%TO.N,Net-(U1-Pad2)*%
X124960000Y-67690000D03*
%TO.P,U1,11*%
%TO.N,Net-(U1-Pad11)*%
X132580000Y-88010000D03*
D15*
%TO.P,U1,1*%
%TO.N,Net-(BZ1-Pad1)*%
X124960000Y-65150000D03*
%TD*%
D16*
%TO.P,R7,2*%
%TO.N,Net-(C1-Pad1)*%
X168910000Y-71120000D03*
D17*
%TO.P,R7,1*%
%TO.N,Net-(R2-Pad2)*%
X168910000Y-68580000D03*
%TD*%
D16*
%TO.P,R6,2*%
%TO.N,Net-(J2-Pad1)*%
X110490000Y-85090000D03*
D17*
%TO.P,R6,1*%
%TO.N,Net-(R6-Pad1)*%
X110490000Y-82550000D03*
%TD*%
D16*
%TO.P,R5,2*%
%TO.N,Net-(J2-Pad2)*%
X106680000Y-80010000D03*
D17*
%TO.P,R5,1*%
%TO.N,Net-(R5-Pad1)*%
X106680000Y-77470000D03*
%TD*%
D16*
%TO.P,R4,2*%
%TO.N,Net-(R4-Pad2)*%
X102870000Y-72390000D03*
D17*
%TO.P,R4,1*%
%TO.N,Net-(J2-Pad3)*%
X102870000Y-74930000D03*
%TD*%
D16*
%TO.P,R3,2*%
%TO.N,Net-(R3-Pad2)*%
X99060000Y-67310000D03*
D17*
%TO.P,R3,1*%
%TO.N,Net-(J2-Pad4)*%
X99060000Y-69850000D03*
%TD*%
D16*
%TO.P,R2,2*%
%TO.N,Net-(R2-Pad2)*%
X130810000Y-58420000D03*
D17*
%TO.P,R2,1*%
%TO.N,Net-(BZ1-Pad1)*%
X128270000Y-58420000D03*
%TD*%
D16*
%TO.P,R1,2*%
%TO.N,Net-(Q1-Pad3)*%
X92710000Y-99060000D03*
D17*
%TO.P,R1,1*%
%TO.N,Net-(R1-Pad1)*%
X92710000Y-101600000D03*
%TD*%
D18*
%TO.P,Q1,1*%
%TO.N,GND*%
X74930000Y-64770000D03*
D19*
%TO.P,Q1,3*%
%TO.N,Net-(Q1-Pad3)*%
X74930000Y-67310000D03*
%TO.P,Q1,2*%
%TO.N,Net-(BZ1-Pad2)*%
X74930000Y-66040000D03*
%TD*%
%TO.P,C1,2*%
%TO.N,GND*%
%TA.AperFunction,SMDPad,CuDef*%
G36*
G01*
X150135001Y-56975000D02*
X149584999Y-56975000D01*
G75*
G02*
X149335000Y-56725001I0J249999D01*
G01*
X149335000Y-55974999D01*
G75*
G02*
X149584999Y-55725000I249999J0D01*
G01*
X150135001Y-55725000D01*
G75*
G02*
X150385000Y-55974999I0J-249999D01*
G01*
X150385000Y-56725001D01*
G75*
G02*
X150135001Y-56975000I-249999J0D01*
G01*
G37*
%TD.AperFunction*%
%TO.P,C1,1*%
%TO.N,Net-(C1-Pad1)*%
%TA.AperFunction,SMDPad,CuDef*%
G36*
G01*
X150135001Y-58575000D02*
X149584999Y-58575000D01*
G75*
G02*
X149335000Y-58325001I0J249999D01*
G01*
X149335000Y-57574999D01*
G75*
G02*
X149584999Y-57325000I249999J0D01*
G01*
X150135001Y-57325000D01*
G75*
G02*
X150385000Y-57574999I0J-249999D01*
G01*
X150385000Y-58325001D01*
G75*
G02*
X150135001Y-58575000I-249999J0D01*
G01*
G37*
%TD.AperFunction*%
%TD*%
D20*
%TO.P,BZ1,2*%
%TO.N,Net-(BZ1-Pad2)*%
X102870000Y-40620000D03*
D21*
%TO.P,BZ1,1*%
%TO.N,Net-(BZ1-Pad1)*%
X102870000Y-33020000D03*
%TD*%
D22*
%TO.N,Net-(BZ1-Pad2)*%
X100330000Y-57130000D02*
X66060000Y-57130000D01*
X74114998Y-66040000D02*
X74930000Y-66040000D01*
X66060000Y-57985002D02*
X74114998Y-66040000D01*
X66060000Y-57130000D02*
X66060000Y-57985002D01*
X100330000Y-43160000D02*
X102870000Y-40620000D01*
X100330000Y-57130000D02*
X100330000Y-43160000D01*
%TO.N,Net-(BZ1-Pad1)*%
X124960000Y-61730000D02*
X128270000Y-58420000D01*
X124960000Y-65150000D02*
X124960000Y-61730000D01*
X102870000Y-33020000D02*
X109220000Y-39370000D01*
X109220000Y-49410000D02*
X110550000Y-50740000D01*
X109220000Y-39370000D02*
X109220000Y-49410000D01*
X110550000Y-50740000D02*
X124960000Y-65150000D01*
X110490000Y-50680000D02*
X110550000Y-50740000D01*
X90170000Y-33020000D02*
X88900000Y-31750000D01*
X102870000Y-33020000D02*
X90170000Y-33020000D01*
%TO.N,Net-(C1-Pad1)*%
X135040000Y-72770000D02*
X149860000Y-57950000D01*
X132580000Y-72770000D02*
X135040000Y-72770000D01*
X163030000Y-71120000D02*
X149860000Y-57950000D01*
X168910000Y-71120000D02*
X163030000Y-71120000D01*
%TO.N,Net-(J2-Pad3)*%
X97060000Y-80740000D02*
X102870000Y-74930000D01*
X97060000Y-82550000D02*
X97060000Y-80740000D01*
%TO.N,Net-(J2-Pad2)*%
X99939998Y-80010000D02*
X106680000Y-80010000D01*
X98060000Y-81889998D02*
X99939998Y-80010000D01*
X98060000Y-82550000D02*
X98060000Y-81889998D01*
%TO.N,Net-(Q1-Pad3)*%
X92710000Y-99060000D02*
X91440000Y-99060000D01*
X74930000Y-82550000D02*
X74930000Y-67310000D01*
X91440000Y-99060000D02*
X74930000Y-82550000D01*
%TO.N,Net-(R2-Pad2)*%
X135890000Y-58420000D02*
X144780000Y-49530000D01*
X130810000Y-58420000D02*
X135890000Y-58420000D01*
X144780000Y-49530000D02*
X137160000Y-49530000D01*
X137160000Y-49530000D02*
X135890000Y-48260000D01*
X135890000Y-48260000D02*
X135890000Y-33020000D01*
X135890000Y-33020000D02*
X157480000Y-33020000D01*
X170060001Y-67429999D02*
X168910000Y-68580000D01*
X170060001Y-45600001D02*
X170060001Y-67429999D01*
X157480000Y-33020000D02*
X170060001Y-45600001D01*
%TO.N,Net-(R5-Pad1)*%
X122040000Y-77470000D02*
X124960000Y-80390000D01*
X106680000Y-77470000D02*
X122040000Y-77470000D01*
%TO.N,Net-(R6-Pad1)*%
X110870000Y-82930000D02*
X110490000Y-82550000D01*
X124960000Y-82930000D02*
X110870000Y-82930000D01*
%TO.N,GND*%
X141380000Y-56350000D02*
X132580000Y-65150000D01*
X149860000Y-56350000D02*
X141380000Y-56350000D01*
X131329999Y-66400001D02*
X132580000Y-65150000D01*
X123799999Y-66400001D02*
X131329999Y-66400001D01*
X122169998Y-64770000D02*
X123799999Y-66400001D01*
X74930000Y-64770000D02*
X122169998Y-64770000D01*
D23*
X149860000Y-49750000D02*
X150080000Y-49530000D01*
X149860000Y-56350000D02*
X149860000Y-49750000D01*
D22*
%TO.N,Net-(J2-Pad4)*%
X96060000Y-72850000D02*
X96060000Y-82550000D01*
X99060000Y-69850000D02*
X96060000Y-72850000D01*
%TO.N,Net-(J2-Pad1)*%
X107950000Y-82550000D02*
X110490000Y-85090000D01*
X99060000Y-82550000D02*
X107950000Y-82550000D01*
%TO.N,Net-(R1-Pad1)*%
X92710000Y-101600000D02*
X123190000Y-101600000D01*
X123190000Y-101600000D02*
X137160000Y-87630000D01*
X137160000Y-87630000D02*
X137160000Y-81280000D01*
X133470000Y-81280000D02*
X132580000Y-80390000D01*
X137160000Y-81280000D02*
X133470000Y-81280000D01*
%TO.N,Net-(R3-Pad2)*%
X116960000Y-67310000D02*
X124960000Y-75310000D01*
X99060000Y-67310000D02*
X116960000Y-67310000D01*
%TO.N,Net-(R4-Pad2)*%
X119500000Y-72390000D02*
X102870000Y-72390000D01*
X124960000Y-77850000D02*
X119500000Y-72390000D01*
%TD*%
M02*
