%FSLAX45Y45*%
G04 Gerber Fmt 4.5, Leading zero omitted, Abs format (unit mm)*
G04 Created by KiCad (PCBNEW (5.1.12)-1) date 2022-11-24 20:44:00*
%MOMM*%
%LPD*%
G01*
G04 APERTURE LIST*
%TA.AperFunction,Profile*%
%ADD10C,0.100000*%
%TD*%
%ADD11C,0.200000*%
%ADD12C,0.300000*%
G04 APERTURE END LIST*
D10*
X17780000Y-2540000D02*
X17780000Y-11430000D01*
X6477000Y-2540000D02*
X17780000Y-2540000D01*
X6477000Y-11303000D02*
X6477000Y-2540000D01*
X17780000Y-11430000D02*
X6477000Y-11303000D01*
D11*
X8865000Y-3150000D02*
X8915000Y-3200000D01*
X8915000Y-3150000D02*
X8865000Y-3200000D01*
X9581000Y-8230000D02*
X9631000Y-8280000D01*
X9631000Y-8230000D02*
X9581000Y-8280000D01*
X9681000Y-8230000D02*
X9731000Y-8280000D01*
X9731000Y-8230000D02*
X9681000Y-8280000D01*
X9781000Y-8230000D02*
X9831000Y-8280000D01*
X9831000Y-8230000D02*
X9781000Y-8280000D01*
X9881000Y-8230000D02*
X9931000Y-8280000D01*
X9931000Y-8230000D02*
X9881000Y-8280000D01*
X9306000Y-9906000D02*
G75*
G03*
X9306000Y-9906000I-35000J0D01*
G01*
X9306000Y-10160000D02*
G75*
G03*
X9306000Y-10160000I-35000J0D01*
G01*
X9941000Y-6731000D02*
G75*
G03*
X9941000Y-6731000I-35000J0D01*
G01*
X9941000Y-6985000D02*
G75*
G03*
X9941000Y-6985000I-35000J0D01*
G01*
X10322000Y-7239000D02*
G75*
G03*
X10322000Y-7239000I-35000J0D01*
G01*
X10322000Y-7493000D02*
G75*
G03*
X10322000Y-7493000I-35000J0D01*
G01*
X10703000Y-7747000D02*
G75*
G03*
X10703000Y-7747000I-35000J0D01*
G01*
X10703000Y-8001000D02*
G75*
G03*
X10703000Y-8001000I-35000J0D01*
G01*
X11084000Y-8255000D02*
G75*
G03*
X11084000Y-8255000I-35000J0D01*
G01*
X11084000Y-8509000D02*
G75*
G03*
X11084000Y-8509000I-35000J0D01*
G01*
X12862000Y-5842000D02*
G75*
G03*
X12862000Y-5842000I-35000J0D01*
G01*
X13116000Y-5842000D02*
G75*
G03*
X13116000Y-5842000I-35000J0D01*
G01*
X16926000Y-6858000D02*
G75*
G03*
X16926000Y-6858000I-35000J0D01*
G01*
X16926000Y-7112000D02*
G75*
G03*
X16926000Y-7112000I-35000J0D01*
G01*
X7493000Y-6439500D02*
X7493000Y-6514500D01*
X7455500Y-6477000D02*
X7530500Y-6477000D01*
X7493000Y-6566500D02*
X7493000Y-6641500D01*
X7455500Y-6604000D02*
X7530500Y-6604000D01*
X7493000Y-6693500D02*
X7493000Y-6768500D01*
X7455500Y-6731000D02*
X7530500Y-6731000D01*
X12524284Y-6543284D02*
X12524284Y-6486715D01*
X12467715Y-6486715D01*
X12467715Y-6543284D01*
X12524284Y-6543284D01*
X12524284Y-6797284D02*
X12524284Y-6740715D01*
X12467715Y-6740715D01*
X12467715Y-6797284D01*
X12524284Y-6797284D01*
X12524284Y-7051284D02*
X12524284Y-6994715D01*
X12467715Y-6994715D01*
X12467715Y-7051284D01*
X12524284Y-7051284D01*
X12524284Y-7305284D02*
X12524284Y-7248715D01*
X12467715Y-7248715D01*
X12467715Y-7305284D01*
X12524284Y-7305284D01*
X12524284Y-7559284D02*
X12524284Y-7502715D01*
X12467715Y-7502715D01*
X12467715Y-7559284D01*
X12524284Y-7559284D01*
X12524284Y-7813284D02*
X12524284Y-7756715D01*
X12467715Y-7756715D01*
X12467715Y-7813284D01*
X12524284Y-7813284D01*
X12524284Y-8067284D02*
X12524284Y-8010715D01*
X12467715Y-8010715D01*
X12467715Y-8067284D01*
X12524284Y-8067284D01*
X12524284Y-8321284D02*
X12524284Y-8264715D01*
X12467715Y-8264715D01*
X12467715Y-8321284D01*
X12524284Y-8321284D01*
X12524284Y-8575285D02*
X12524284Y-8518716D01*
X12467715Y-8518716D01*
X12467715Y-8575285D01*
X12524284Y-8575285D01*
X12524284Y-8829285D02*
X12524284Y-8772716D01*
X12467715Y-8772716D01*
X12467715Y-8829285D01*
X12524284Y-8829285D01*
X13286284Y-6543284D02*
X13286284Y-6486715D01*
X13229715Y-6486715D01*
X13229715Y-6543284D01*
X13286284Y-6543284D01*
X13286284Y-6797284D02*
X13286284Y-6740715D01*
X13229715Y-6740715D01*
X13229715Y-6797284D01*
X13286284Y-6797284D01*
X13286284Y-7051284D02*
X13286284Y-6994715D01*
X13229715Y-6994715D01*
X13229715Y-7051284D01*
X13286284Y-7051284D01*
X13286284Y-7305284D02*
X13286284Y-7248715D01*
X13229715Y-7248715D01*
X13229715Y-7305284D01*
X13286284Y-7305284D01*
X13286284Y-7559284D02*
X13286284Y-7502715D01*
X13229715Y-7502715D01*
X13229715Y-7559284D01*
X13286284Y-7559284D01*
X13286284Y-7813284D02*
X13286284Y-7756715D01*
X13229715Y-7756715D01*
X13229715Y-7813284D01*
X13286284Y-7813284D01*
X13286284Y-8067284D02*
X13286284Y-8010715D01*
X13229715Y-8010715D01*
X13229715Y-8067284D01*
X13286284Y-8067284D01*
X13286284Y-8321284D02*
X13286284Y-8264715D01*
X13229715Y-8264715D01*
X13229715Y-8321284D01*
X13286284Y-8321284D01*
X13286284Y-8575285D02*
X13286284Y-8518716D01*
X13229715Y-8518716D01*
X13229715Y-8575285D01*
X13286284Y-8575285D01*
X13286284Y-8829285D02*
X13286284Y-8772716D01*
X13229715Y-8772716D01*
X13229715Y-8829285D01*
X13286284Y-8829285D01*
X10287000Y-3352000D02*
X10337000Y-3302000D01*
X10287000Y-3252000D01*
X10237000Y-3302000D01*
X10287000Y-3352000D01*
X10287000Y-4112000D02*
X10337000Y-4062000D01*
X10287000Y-4012000D01*
X10237000Y-4062000D01*
X10287000Y-4112000D01*
X14418000Y-4893000D02*
X14538000Y-5013000D01*
X14538000Y-4893000D02*
X14418000Y-5013000D01*
X14538000Y-4953000D02*
G75*
G03*
X14538000Y-4953000I-60000J0D01*
G01*
X14948000Y-4893000D02*
X15068000Y-5013000D01*
X15068000Y-4893000D02*
X14948000Y-5013000D01*
X15068000Y-4953000D02*
G75*
G03*
X15068000Y-4953000I-60000J0D01*
G01*
D12*
X6758428Y-11900714D02*
X6758428Y-11600714D01*
X6829857Y-11600714D01*
X6872714Y-11615000D01*
X6901286Y-11643571D01*
X6915571Y-11672143D01*
X6929857Y-11729286D01*
X6929857Y-11772143D01*
X6915571Y-11829286D01*
X6901286Y-11857857D01*
X6872714Y-11886429D01*
X6829857Y-11900714D01*
X6758428Y-11900714D01*
X7058428Y-11900714D02*
X7058428Y-11700714D01*
X7058428Y-11757857D02*
X7072714Y-11729286D01*
X7087000Y-11715000D01*
X7115571Y-11700714D01*
X7144143Y-11700714D01*
X7244143Y-11900714D02*
X7244143Y-11700714D01*
X7244143Y-11600714D02*
X7229857Y-11615000D01*
X7244143Y-11629286D01*
X7258428Y-11615000D01*
X7244143Y-11600714D01*
X7244143Y-11629286D01*
X7429857Y-11900714D02*
X7401286Y-11886429D01*
X7387000Y-11857857D01*
X7387000Y-11600714D01*
X7587000Y-11900714D02*
X7558428Y-11886429D01*
X7544143Y-11857857D01*
X7544143Y-11600714D01*
X7929857Y-11900714D02*
X7929857Y-11600714D01*
X8029857Y-11815000D01*
X8129857Y-11600714D01*
X8129857Y-11900714D01*
X8401286Y-11900714D02*
X8401286Y-11743571D01*
X8387000Y-11715000D01*
X8358428Y-11700714D01*
X8301286Y-11700714D01*
X8272714Y-11715000D01*
X8401286Y-11886429D02*
X8372714Y-11900714D01*
X8301286Y-11900714D01*
X8272714Y-11886429D01*
X8258428Y-11857857D01*
X8258428Y-11829286D01*
X8272714Y-11800714D01*
X8301286Y-11786429D01*
X8372714Y-11786429D01*
X8401286Y-11772143D01*
X8544143Y-11700714D02*
X8544143Y-12000714D01*
X8544143Y-11715000D02*
X8572714Y-11700714D01*
X8629857Y-11700714D01*
X8658428Y-11715000D01*
X8672714Y-11729286D01*
X8687000Y-11757857D01*
X8687000Y-11843571D01*
X8672714Y-11872143D01*
X8658428Y-11886429D01*
X8629857Y-11900714D01*
X8572714Y-11900714D01*
X8544143Y-11886429D01*
X8815571Y-11872143D02*
X8829857Y-11886429D01*
X8815571Y-11900714D01*
X8801286Y-11886429D01*
X8815571Y-11872143D01*
X8815571Y-11900714D01*
X8815571Y-11715000D02*
X8829857Y-11729286D01*
X8815571Y-11743571D01*
X8801286Y-11729286D01*
X8815571Y-11715000D01*
X8815571Y-11743571D01*
X6422000Y-12370000D02*
X6472000Y-12420000D01*
X6472000Y-12370000D02*
X6422000Y-12420000D01*
X6815571Y-12230714D02*
X6844143Y-12230714D01*
X6872714Y-12245000D01*
X6887000Y-12259286D01*
X6901286Y-12287857D01*
X6915571Y-12345000D01*
X6915571Y-12416429D01*
X6901286Y-12473571D01*
X6887000Y-12502143D01*
X6872714Y-12516429D01*
X6844143Y-12530714D01*
X6815571Y-12530714D01*
X6787000Y-12516429D01*
X6772714Y-12502143D01*
X6758428Y-12473571D01*
X6744143Y-12416429D01*
X6744143Y-12345000D01*
X6758428Y-12287857D01*
X6772714Y-12259286D01*
X6787000Y-12245000D01*
X6815571Y-12230714D01*
X7044143Y-12502143D02*
X7058428Y-12516429D01*
X7044143Y-12530714D01*
X7029857Y-12516429D01*
X7044143Y-12502143D01*
X7044143Y-12530714D01*
X7329857Y-12230714D02*
X7187000Y-12230714D01*
X7172714Y-12373571D01*
X7187000Y-12359286D01*
X7215571Y-12345000D01*
X7287000Y-12345000D01*
X7315571Y-12359286D01*
X7329857Y-12373571D01*
X7344143Y-12402143D01*
X7344143Y-12473571D01*
X7329857Y-12502143D01*
X7315571Y-12516429D01*
X7287000Y-12530714D01*
X7215571Y-12530714D01*
X7187000Y-12516429D01*
X7172714Y-12502143D01*
X7529857Y-12230714D02*
X7558428Y-12230714D01*
X7587000Y-12245000D01*
X7601286Y-12259286D01*
X7615571Y-12287857D01*
X7629857Y-12345000D01*
X7629857Y-12416429D01*
X7615571Y-12473571D01*
X7601286Y-12502143D01*
X7587000Y-12516429D01*
X7558428Y-12530714D01*
X7529857Y-12530714D01*
X7501286Y-12516429D01*
X7487000Y-12502143D01*
X7472714Y-12473571D01*
X7458428Y-12416429D01*
X7458428Y-12345000D01*
X7472714Y-12287857D01*
X7487000Y-12259286D01*
X7501286Y-12245000D01*
X7529857Y-12230714D01*
X7815571Y-12230714D02*
X7844143Y-12230714D01*
X7872714Y-12245000D01*
X7887000Y-12259286D01*
X7901286Y-12287857D01*
X7915571Y-12345000D01*
X7915571Y-12416429D01*
X7901286Y-12473571D01*
X7887000Y-12502143D01*
X7872714Y-12516429D01*
X7844143Y-12530714D01*
X7815571Y-12530714D01*
X7787000Y-12516429D01*
X7772714Y-12502143D01*
X7758428Y-12473571D01*
X7744143Y-12416429D01*
X7744143Y-12345000D01*
X7758428Y-12287857D01*
X7772714Y-12259286D01*
X7787000Y-12245000D01*
X7815571Y-12230714D01*
X8044143Y-12530714D02*
X8044143Y-12330714D01*
X8044143Y-12359286D02*
X8058428Y-12345000D01*
X8087000Y-12330714D01*
X8129857Y-12330714D01*
X8158428Y-12345000D01*
X8172714Y-12373571D01*
X8172714Y-12530714D01*
X8172714Y-12373571D02*
X8187000Y-12345000D01*
X8215571Y-12330714D01*
X8258428Y-12330714D01*
X8287000Y-12345000D01*
X8301286Y-12373571D01*
X8301286Y-12530714D01*
X8444143Y-12530714D02*
X8444143Y-12330714D01*
X8444143Y-12359286D02*
X8458428Y-12345000D01*
X8487000Y-12330714D01*
X8529857Y-12330714D01*
X8558428Y-12345000D01*
X8572714Y-12373571D01*
X8572714Y-12530714D01*
X8572714Y-12373571D02*
X8587000Y-12345000D01*
X8615571Y-12330714D01*
X8658428Y-12330714D01*
X8687000Y-12345000D01*
X8701286Y-12373571D01*
X8701286Y-12530714D01*
X9287000Y-12216429D02*
X9029857Y-12602143D01*
X9672714Y-12230714D02*
X9701286Y-12230714D01*
X9729857Y-12245000D01*
X9744143Y-12259286D01*
X9758428Y-12287857D01*
X9772714Y-12345000D01*
X9772714Y-12416429D01*
X9758428Y-12473571D01*
X9744143Y-12502143D01*
X9729857Y-12516429D01*
X9701286Y-12530714D01*
X9672714Y-12530714D01*
X9644143Y-12516429D01*
X9629857Y-12502143D01*
X9615571Y-12473571D01*
X9601286Y-12416429D01*
X9601286Y-12345000D01*
X9615571Y-12287857D01*
X9629857Y-12259286D01*
X9644143Y-12245000D01*
X9672714Y-12230714D01*
X9901286Y-12502143D02*
X9915571Y-12516429D01*
X9901286Y-12530714D01*
X9887000Y-12516429D01*
X9901286Y-12502143D01*
X9901286Y-12530714D01*
X10101286Y-12230714D02*
X10129857Y-12230714D01*
X10158428Y-12245000D01*
X10172714Y-12259286D01*
X10187000Y-12287857D01*
X10201286Y-12345000D01*
X10201286Y-12416429D01*
X10187000Y-12473571D01*
X10172714Y-12502143D01*
X10158428Y-12516429D01*
X10129857Y-12530714D01*
X10101286Y-12530714D01*
X10072714Y-12516429D01*
X10058428Y-12502143D01*
X10044143Y-12473571D01*
X10029857Y-12416429D01*
X10029857Y-12345000D01*
X10044143Y-12287857D01*
X10058428Y-12259286D01*
X10072714Y-12245000D01*
X10101286Y-12230714D01*
X10487000Y-12530714D02*
X10315571Y-12530714D01*
X10401286Y-12530714D02*
X10401286Y-12230714D01*
X10372714Y-12273571D01*
X10344143Y-12302143D01*
X10315571Y-12316429D01*
X10629857Y-12530714D02*
X10687000Y-12530714D01*
X10715571Y-12516429D01*
X10729857Y-12502143D01*
X10758428Y-12459286D01*
X10772714Y-12402143D01*
X10772714Y-12287857D01*
X10758428Y-12259286D01*
X10744143Y-12245000D01*
X10715571Y-12230714D01*
X10658428Y-12230714D01*
X10629857Y-12245000D01*
X10615571Y-12259286D01*
X10601286Y-12287857D01*
X10601286Y-12359286D01*
X10615571Y-12387857D01*
X10629857Y-12402143D01*
X10658428Y-12416429D01*
X10715571Y-12416429D01*
X10744143Y-12402143D01*
X10758428Y-12387857D01*
X10772714Y-12359286D01*
X10872714Y-12230714D02*
X11072714Y-12230714D01*
X10944143Y-12530714D01*
X11172714Y-12230714D02*
X11172714Y-12287857D01*
X11287000Y-12230714D02*
X11287000Y-12287857D01*
X11729857Y-12645000D02*
X11715571Y-12630714D01*
X11687000Y-12587857D01*
X11672714Y-12559286D01*
X11658428Y-12516429D01*
X11644143Y-12445000D01*
X11644143Y-12387857D01*
X11658428Y-12316429D01*
X11672714Y-12273571D01*
X11687000Y-12245000D01*
X11715571Y-12202143D01*
X11729857Y-12187857D01*
X11987000Y-12230714D02*
X11844143Y-12230714D01*
X11829857Y-12373571D01*
X11844143Y-12359286D01*
X11872714Y-12345000D01*
X11944143Y-12345000D01*
X11972714Y-12359286D01*
X11987000Y-12373571D01*
X12001286Y-12402143D01*
X12001286Y-12473571D01*
X11987000Y-12502143D01*
X11972714Y-12516429D01*
X11944143Y-12530714D01*
X11872714Y-12530714D01*
X11844143Y-12516429D01*
X11829857Y-12502143D01*
X12358428Y-12530714D02*
X12358428Y-12230714D01*
X12487000Y-12530714D02*
X12487000Y-12373571D01*
X12472714Y-12345000D01*
X12444143Y-12330714D01*
X12401286Y-12330714D01*
X12372714Y-12345000D01*
X12358428Y-12359286D01*
X12672714Y-12530714D02*
X12644143Y-12516429D01*
X12629857Y-12502143D01*
X12615571Y-12473571D01*
X12615571Y-12387857D01*
X12629857Y-12359286D01*
X12644143Y-12345000D01*
X12672714Y-12330714D01*
X12715571Y-12330714D01*
X12744143Y-12345000D01*
X12758428Y-12359286D01*
X12772714Y-12387857D01*
X12772714Y-12473571D01*
X12758428Y-12502143D01*
X12744143Y-12516429D01*
X12715571Y-12530714D01*
X12672714Y-12530714D01*
X12944143Y-12530714D02*
X12915571Y-12516429D01*
X12901286Y-12487857D01*
X12901286Y-12230714D01*
X13172714Y-12516429D02*
X13144143Y-12530714D01*
X13087000Y-12530714D01*
X13058428Y-12516429D01*
X13044143Y-12487857D01*
X13044143Y-12373571D01*
X13058428Y-12345000D01*
X13087000Y-12330714D01*
X13144143Y-12330714D01*
X13172714Y-12345000D01*
X13187000Y-12373571D01*
X13187000Y-12402143D01*
X13044143Y-12430714D01*
X13301286Y-12516429D02*
X13329857Y-12530714D01*
X13387000Y-12530714D01*
X13415571Y-12516429D01*
X13429857Y-12487857D01*
X13429857Y-12473571D01*
X13415571Y-12445000D01*
X13387000Y-12430714D01*
X13344143Y-12430714D01*
X13315571Y-12416429D01*
X13301286Y-12387857D01*
X13301286Y-12373571D01*
X13315571Y-12345000D01*
X13344143Y-12330714D01*
X13387000Y-12330714D01*
X13415571Y-12345000D01*
X13529857Y-12645000D02*
X13544143Y-12630714D01*
X13572714Y-12587857D01*
X13587000Y-12559286D01*
X13601286Y-12516429D01*
X13615571Y-12445000D01*
X13615571Y-12387857D01*
X13601286Y-12316429D01*
X13587000Y-12273571D01*
X13572714Y-12245000D01*
X13544143Y-12202143D01*
X13529857Y-12187857D01*
X6472000Y-12791000D02*
G75*
G03*
X6472000Y-12791000I-35000J0D01*
G01*
X6815571Y-12626714D02*
X6844143Y-12626714D01*
X6872714Y-12641000D01*
X6887000Y-12655286D01*
X6901286Y-12683857D01*
X6915571Y-12741000D01*
X6915571Y-12812429D01*
X6901286Y-12869571D01*
X6887000Y-12898143D01*
X6872714Y-12912429D01*
X6844143Y-12926714D01*
X6815571Y-12926714D01*
X6787000Y-12912429D01*
X6772714Y-12898143D01*
X6758428Y-12869571D01*
X6744143Y-12812429D01*
X6744143Y-12741000D01*
X6758428Y-12683857D01*
X6772714Y-12655286D01*
X6787000Y-12641000D01*
X6815571Y-12626714D01*
X7044143Y-12898143D02*
X7058428Y-12912429D01*
X7044143Y-12926714D01*
X7029857Y-12912429D01*
X7044143Y-12898143D01*
X7044143Y-12926714D01*
X7158428Y-12626714D02*
X7358428Y-12626714D01*
X7229857Y-12926714D01*
X7529857Y-12626714D02*
X7558428Y-12626714D01*
X7587000Y-12641000D01*
X7601286Y-12655286D01*
X7615571Y-12683857D01*
X7629857Y-12741000D01*
X7629857Y-12812429D01*
X7615571Y-12869571D01*
X7601286Y-12898143D01*
X7587000Y-12912429D01*
X7558428Y-12926714D01*
X7529857Y-12926714D01*
X7501286Y-12912429D01*
X7487000Y-12898143D01*
X7472714Y-12869571D01*
X7458428Y-12812429D01*
X7458428Y-12741000D01*
X7472714Y-12683857D01*
X7487000Y-12655286D01*
X7501286Y-12641000D01*
X7529857Y-12626714D01*
X7815571Y-12626714D02*
X7844143Y-12626714D01*
X7872714Y-12641000D01*
X7887000Y-12655286D01*
X7901286Y-12683857D01*
X7915571Y-12741000D01*
X7915571Y-12812429D01*
X7901286Y-12869571D01*
X7887000Y-12898143D01*
X7872714Y-12912429D01*
X7844143Y-12926714D01*
X7815571Y-12926714D01*
X7787000Y-12912429D01*
X7772714Y-12898143D01*
X7758428Y-12869571D01*
X7744143Y-12812429D01*
X7744143Y-12741000D01*
X7758428Y-12683857D01*
X7772714Y-12655286D01*
X7787000Y-12641000D01*
X7815571Y-12626714D01*
X8044143Y-12926714D02*
X8044143Y-12726714D01*
X8044143Y-12755286D02*
X8058428Y-12741000D01*
X8087000Y-12726714D01*
X8129857Y-12726714D01*
X8158428Y-12741000D01*
X8172714Y-12769571D01*
X8172714Y-12926714D01*
X8172714Y-12769571D02*
X8187000Y-12741000D01*
X8215571Y-12726714D01*
X8258428Y-12726714D01*
X8287000Y-12741000D01*
X8301286Y-12769571D01*
X8301286Y-12926714D01*
X8444143Y-12926714D02*
X8444143Y-12726714D01*
X8444143Y-12755286D02*
X8458428Y-12741000D01*
X8487000Y-12726714D01*
X8529857Y-12726714D01*
X8558428Y-12741000D01*
X8572714Y-12769571D01*
X8572714Y-12926714D01*
X8572714Y-12769571D02*
X8587000Y-12741000D01*
X8615571Y-12726714D01*
X8658428Y-12726714D01*
X8687000Y-12741000D01*
X8701286Y-12769571D01*
X8701286Y-12926714D01*
X9287000Y-12612429D02*
X9029857Y-12998143D01*
X9672714Y-12626714D02*
X9701286Y-12626714D01*
X9729857Y-12641000D01*
X9744143Y-12655286D01*
X9758428Y-12683857D01*
X9772714Y-12741000D01*
X9772714Y-12812429D01*
X9758428Y-12869571D01*
X9744143Y-12898143D01*
X9729857Y-12912429D01*
X9701286Y-12926714D01*
X9672714Y-12926714D01*
X9644143Y-12912429D01*
X9629857Y-12898143D01*
X9615571Y-12869571D01*
X9601286Y-12812429D01*
X9601286Y-12741000D01*
X9615571Y-12683857D01*
X9629857Y-12655286D01*
X9644143Y-12641000D01*
X9672714Y-12626714D01*
X9901286Y-12898143D02*
X9915571Y-12912429D01*
X9901286Y-12926714D01*
X9887000Y-12912429D01*
X9901286Y-12898143D01*
X9901286Y-12926714D01*
X10101286Y-12626714D02*
X10129857Y-12626714D01*
X10158428Y-12641000D01*
X10172714Y-12655286D01*
X10187000Y-12683857D01*
X10201286Y-12741000D01*
X10201286Y-12812429D01*
X10187000Y-12869571D01*
X10172714Y-12898143D01*
X10158428Y-12912429D01*
X10129857Y-12926714D01*
X10101286Y-12926714D01*
X10072714Y-12912429D01*
X10058428Y-12898143D01*
X10044143Y-12869571D01*
X10029857Y-12812429D01*
X10029857Y-12741000D01*
X10044143Y-12683857D01*
X10058428Y-12655286D01*
X10072714Y-12641000D01*
X10101286Y-12626714D01*
X10315571Y-12655286D02*
X10329857Y-12641000D01*
X10358428Y-12626714D01*
X10429857Y-12626714D01*
X10458428Y-12641000D01*
X10472714Y-12655286D01*
X10487000Y-12683857D01*
X10487000Y-12712429D01*
X10472714Y-12755286D01*
X10301286Y-12926714D01*
X10487000Y-12926714D01*
X10587000Y-12626714D02*
X10787000Y-12626714D01*
X10658428Y-12926714D01*
X11029857Y-12626714D02*
X10972714Y-12626714D01*
X10944143Y-12641000D01*
X10929857Y-12655286D01*
X10901286Y-12698143D01*
X10887000Y-12755286D01*
X10887000Y-12869571D01*
X10901286Y-12898143D01*
X10915571Y-12912429D01*
X10944143Y-12926714D01*
X11001286Y-12926714D01*
X11029857Y-12912429D01*
X11044143Y-12898143D01*
X11058428Y-12869571D01*
X11058428Y-12798143D01*
X11044143Y-12769571D01*
X11029857Y-12755286D01*
X11001286Y-12741000D01*
X10944143Y-12741000D01*
X10915571Y-12755286D01*
X10901286Y-12769571D01*
X10887000Y-12798143D01*
X11172714Y-12626714D02*
X11172714Y-12683857D01*
X11287000Y-12626714D02*
X11287000Y-12683857D01*
X11729857Y-13041000D02*
X11715571Y-13026714D01*
X11687000Y-12983857D01*
X11672714Y-12955286D01*
X11658428Y-12912429D01*
X11644143Y-12841000D01*
X11644143Y-12783857D01*
X11658428Y-12712429D01*
X11672714Y-12669571D01*
X11687000Y-12641000D01*
X11715571Y-12598143D01*
X11729857Y-12583857D01*
X12001286Y-12926714D02*
X11829857Y-12926714D01*
X11915571Y-12926714D02*
X11915571Y-12626714D01*
X11887000Y-12669571D01*
X11858428Y-12698143D01*
X11829857Y-12712429D01*
X12258428Y-12726714D02*
X12258428Y-12926714D01*
X12187000Y-12612429D02*
X12115571Y-12826714D01*
X12301286Y-12826714D01*
X12644143Y-12926714D02*
X12644143Y-12626714D01*
X12772714Y-12926714D02*
X12772714Y-12769571D01*
X12758428Y-12741000D01*
X12729857Y-12726714D01*
X12687000Y-12726714D01*
X12658428Y-12741000D01*
X12644143Y-12755286D01*
X12958428Y-12926714D02*
X12929857Y-12912429D01*
X12915571Y-12898143D01*
X12901286Y-12869571D01*
X12901286Y-12783857D01*
X12915571Y-12755286D01*
X12929857Y-12741000D01*
X12958428Y-12726714D01*
X13001286Y-12726714D01*
X13029857Y-12741000D01*
X13044143Y-12755286D01*
X13058428Y-12783857D01*
X13058428Y-12869571D01*
X13044143Y-12898143D01*
X13029857Y-12912429D01*
X13001286Y-12926714D01*
X12958428Y-12926714D01*
X13229857Y-12926714D02*
X13201286Y-12912429D01*
X13187000Y-12883857D01*
X13187000Y-12626714D01*
X13458428Y-12912429D02*
X13429857Y-12926714D01*
X13372714Y-12926714D01*
X13344143Y-12912429D01*
X13329857Y-12883857D01*
X13329857Y-12769571D01*
X13344143Y-12741000D01*
X13372714Y-12726714D01*
X13429857Y-12726714D01*
X13458428Y-12741000D01*
X13472714Y-12769571D01*
X13472714Y-12798143D01*
X13329857Y-12826714D01*
X13587000Y-12912429D02*
X13615571Y-12926714D01*
X13672714Y-12926714D01*
X13701286Y-12912429D01*
X13715571Y-12883857D01*
X13715571Y-12869571D01*
X13701286Y-12841000D01*
X13672714Y-12826714D01*
X13629857Y-12826714D01*
X13601286Y-12812429D01*
X13587000Y-12783857D01*
X13587000Y-12769571D01*
X13601286Y-12741000D01*
X13629857Y-12726714D01*
X13672714Y-12726714D01*
X13701286Y-12741000D01*
X13815571Y-13041000D02*
X13829857Y-13026714D01*
X13858428Y-12983857D01*
X13872714Y-12955286D01*
X13887000Y-12912429D01*
X13901286Y-12841000D01*
X13901286Y-12783857D01*
X13887000Y-12712429D01*
X13872714Y-12669571D01*
X13858428Y-12641000D01*
X13829857Y-12598143D01*
X13815571Y-12583857D01*
X6434500Y-13149500D02*
X6434500Y-13224500D01*
X6397000Y-13187000D02*
X6472000Y-13187000D01*
X6815571Y-13022714D02*
X6844143Y-13022714D01*
X6872714Y-13037000D01*
X6887000Y-13051286D01*
X6901286Y-13079857D01*
X6915571Y-13137000D01*
X6915571Y-13208429D01*
X6901286Y-13265571D01*
X6887000Y-13294143D01*
X6872714Y-13308429D01*
X6844143Y-13322714D01*
X6815571Y-13322714D01*
X6787000Y-13308429D01*
X6772714Y-13294143D01*
X6758428Y-13265571D01*
X6744143Y-13208429D01*
X6744143Y-13137000D01*
X6758428Y-13079857D01*
X6772714Y-13051286D01*
X6787000Y-13037000D01*
X6815571Y-13022714D01*
X7044143Y-13294143D02*
X7058428Y-13308429D01*
X7044143Y-13322714D01*
X7029857Y-13308429D01*
X7044143Y-13294143D01*
X7044143Y-13322714D01*
X7158428Y-13022714D02*
X7358428Y-13022714D01*
X7229857Y-13322714D01*
X7615571Y-13022714D02*
X7472714Y-13022714D01*
X7458428Y-13165571D01*
X7472714Y-13151286D01*
X7501286Y-13137000D01*
X7572714Y-13137000D01*
X7601286Y-13151286D01*
X7615571Y-13165571D01*
X7629857Y-13194143D01*
X7629857Y-13265571D01*
X7615571Y-13294143D01*
X7601286Y-13308429D01*
X7572714Y-13322714D01*
X7501286Y-13322714D01*
X7472714Y-13308429D01*
X7458428Y-13294143D01*
X7815571Y-13022714D02*
X7844143Y-13022714D01*
X7872714Y-13037000D01*
X7887000Y-13051286D01*
X7901286Y-13079857D01*
X7915571Y-13137000D01*
X7915571Y-13208429D01*
X7901286Y-13265571D01*
X7887000Y-13294143D01*
X7872714Y-13308429D01*
X7844143Y-13322714D01*
X7815571Y-13322714D01*
X7787000Y-13308429D01*
X7772714Y-13294143D01*
X7758428Y-13265571D01*
X7744143Y-13208429D01*
X7744143Y-13137000D01*
X7758428Y-13079857D01*
X7772714Y-13051286D01*
X7787000Y-13037000D01*
X7815571Y-13022714D01*
X8044143Y-13322714D02*
X8044143Y-13122714D01*
X8044143Y-13151286D02*
X8058428Y-13137000D01*
X8087000Y-13122714D01*
X8129857Y-13122714D01*
X8158428Y-13137000D01*
X8172714Y-13165571D01*
X8172714Y-13322714D01*
X8172714Y-13165571D02*
X8187000Y-13137000D01*
X8215571Y-13122714D01*
X8258428Y-13122714D01*
X8287000Y-13137000D01*
X8301286Y-13165571D01*
X8301286Y-13322714D01*
X8444143Y-13322714D02*
X8444143Y-13122714D01*
X8444143Y-13151286D02*
X8458428Y-13137000D01*
X8487000Y-13122714D01*
X8529857Y-13122714D01*
X8558428Y-13137000D01*
X8572714Y-13165571D01*
X8572714Y-13322714D01*
X8572714Y-13165571D02*
X8587000Y-13137000D01*
X8615571Y-13122714D01*
X8658428Y-13122714D01*
X8687000Y-13137000D01*
X8701286Y-13165571D01*
X8701286Y-13322714D01*
X9287000Y-13008429D02*
X9029857Y-13394143D01*
X9672714Y-13022714D02*
X9701286Y-13022714D01*
X9729857Y-13037000D01*
X9744143Y-13051286D01*
X9758428Y-13079857D01*
X9772714Y-13137000D01*
X9772714Y-13208429D01*
X9758428Y-13265571D01*
X9744143Y-13294143D01*
X9729857Y-13308429D01*
X9701286Y-13322714D01*
X9672714Y-13322714D01*
X9644143Y-13308429D01*
X9629857Y-13294143D01*
X9615571Y-13265571D01*
X9601286Y-13208429D01*
X9601286Y-13137000D01*
X9615571Y-13079857D01*
X9629857Y-13051286D01*
X9644143Y-13037000D01*
X9672714Y-13022714D01*
X9901286Y-13294143D02*
X9915571Y-13308429D01*
X9901286Y-13322714D01*
X9887000Y-13308429D01*
X9901286Y-13294143D01*
X9901286Y-13322714D01*
X10101286Y-13022714D02*
X10129857Y-13022714D01*
X10158428Y-13037000D01*
X10172714Y-13051286D01*
X10187000Y-13079857D01*
X10201286Y-13137000D01*
X10201286Y-13208429D01*
X10187000Y-13265571D01*
X10172714Y-13294143D01*
X10158428Y-13308429D01*
X10129857Y-13322714D01*
X10101286Y-13322714D01*
X10072714Y-13308429D01*
X10058428Y-13294143D01*
X10044143Y-13265571D01*
X10029857Y-13208429D01*
X10029857Y-13137000D01*
X10044143Y-13079857D01*
X10058428Y-13051286D01*
X10072714Y-13037000D01*
X10101286Y-13022714D01*
X10315571Y-13051286D02*
X10329857Y-13037000D01*
X10358428Y-13022714D01*
X10429857Y-13022714D01*
X10458428Y-13037000D01*
X10472714Y-13051286D01*
X10487000Y-13079857D01*
X10487000Y-13108429D01*
X10472714Y-13151286D01*
X10301286Y-13322714D01*
X10487000Y-13322714D01*
X10629857Y-13322714D02*
X10687000Y-13322714D01*
X10715571Y-13308429D01*
X10729857Y-13294143D01*
X10758428Y-13251286D01*
X10772714Y-13194143D01*
X10772714Y-13079857D01*
X10758428Y-13051286D01*
X10744143Y-13037000D01*
X10715571Y-13022714D01*
X10658428Y-13022714D01*
X10629857Y-13037000D01*
X10615571Y-13051286D01*
X10601286Y-13079857D01*
X10601286Y-13151286D01*
X10615571Y-13179857D01*
X10629857Y-13194143D01*
X10658428Y-13208429D01*
X10715571Y-13208429D01*
X10744143Y-13194143D01*
X10758428Y-13179857D01*
X10772714Y-13151286D01*
X11044143Y-13022714D02*
X10901286Y-13022714D01*
X10887000Y-13165571D01*
X10901286Y-13151286D01*
X10929857Y-13137000D01*
X11001286Y-13137000D01*
X11029857Y-13151286D01*
X11044143Y-13165571D01*
X11058428Y-13194143D01*
X11058428Y-13265571D01*
X11044143Y-13294143D01*
X11029857Y-13308429D01*
X11001286Y-13322714D01*
X10929857Y-13322714D01*
X10901286Y-13308429D01*
X10887000Y-13294143D01*
X11172714Y-13022714D02*
X11172714Y-13079857D01*
X11287000Y-13022714D02*
X11287000Y-13079857D01*
X11729857Y-13437000D02*
X11715571Y-13422714D01*
X11687000Y-13379857D01*
X11672714Y-13351286D01*
X11658428Y-13308429D01*
X11644143Y-13237000D01*
X11644143Y-13179857D01*
X11658428Y-13108429D01*
X11672714Y-13065571D01*
X11687000Y-13037000D01*
X11715571Y-12994143D01*
X11729857Y-12979857D01*
X11815571Y-13022714D02*
X12001286Y-13022714D01*
X11901286Y-13137000D01*
X11944143Y-13137000D01*
X11972714Y-13151286D01*
X11987000Y-13165571D01*
X12001286Y-13194143D01*
X12001286Y-13265571D01*
X11987000Y-13294143D01*
X11972714Y-13308429D01*
X11944143Y-13322714D01*
X11858428Y-13322714D01*
X11829857Y-13308429D01*
X11815571Y-13294143D01*
X12358428Y-13322714D02*
X12358428Y-13022714D01*
X12487000Y-13322714D02*
X12487000Y-13165571D01*
X12472714Y-13137000D01*
X12444143Y-13122714D01*
X12401286Y-13122714D01*
X12372714Y-13137000D01*
X12358428Y-13151286D01*
X12672714Y-13322714D02*
X12644143Y-13308429D01*
X12629857Y-13294143D01*
X12615571Y-13265571D01*
X12615571Y-13179857D01*
X12629857Y-13151286D01*
X12644143Y-13137000D01*
X12672714Y-13122714D01*
X12715571Y-13122714D01*
X12744143Y-13137000D01*
X12758428Y-13151286D01*
X12772714Y-13179857D01*
X12772714Y-13265571D01*
X12758428Y-13294143D01*
X12744143Y-13308429D01*
X12715571Y-13322714D01*
X12672714Y-13322714D01*
X12944143Y-13322714D02*
X12915571Y-13308429D01*
X12901286Y-13279857D01*
X12901286Y-13022714D01*
X13172714Y-13308429D02*
X13144143Y-13322714D01*
X13087000Y-13322714D01*
X13058428Y-13308429D01*
X13044143Y-13279857D01*
X13044143Y-13165571D01*
X13058428Y-13137000D01*
X13087000Y-13122714D01*
X13144143Y-13122714D01*
X13172714Y-13137000D01*
X13187000Y-13165571D01*
X13187000Y-13194143D01*
X13044143Y-13222714D01*
X13301286Y-13308429D02*
X13329857Y-13322714D01*
X13387000Y-13322714D01*
X13415571Y-13308429D01*
X13429857Y-13279857D01*
X13429857Y-13265571D01*
X13415571Y-13237000D01*
X13387000Y-13222714D01*
X13344143Y-13222714D01*
X13315571Y-13208429D01*
X13301286Y-13179857D01*
X13301286Y-13165571D01*
X13315571Y-13137000D01*
X13344143Y-13122714D01*
X13387000Y-13122714D01*
X13415571Y-13137000D01*
X13529857Y-13437000D02*
X13544143Y-13422714D01*
X13572714Y-13379857D01*
X13587000Y-13351286D01*
X13601286Y-13308429D01*
X13615571Y-13237000D01*
X13615571Y-13179857D01*
X13601286Y-13108429D01*
X13587000Y-13065571D01*
X13572714Y-13037000D01*
X13544143Y-12994143D01*
X13529857Y-12979857D01*
X6460284Y-13611285D02*
X6460284Y-13554716D01*
X6403715Y-13554716D01*
X6403715Y-13611285D01*
X6460284Y-13611285D01*
X6815571Y-13418714D02*
X6844143Y-13418714D01*
X6872714Y-13433000D01*
X6887000Y-13447286D01*
X6901286Y-13475857D01*
X6915571Y-13533000D01*
X6915571Y-13604429D01*
X6901286Y-13661571D01*
X6887000Y-13690143D01*
X6872714Y-13704429D01*
X6844143Y-13718714D01*
X6815571Y-13718714D01*
X6787000Y-13704429D01*
X6772714Y-13690143D01*
X6758428Y-13661571D01*
X6744143Y-13604429D01*
X6744143Y-13533000D01*
X6758428Y-13475857D01*
X6772714Y-13447286D01*
X6787000Y-13433000D01*
X6815571Y-13418714D01*
X7044143Y-13690143D02*
X7058428Y-13704429D01*
X7044143Y-13718714D01*
X7029857Y-13704429D01*
X7044143Y-13690143D01*
X7044143Y-13718714D01*
X7229857Y-13547286D02*
X7201286Y-13533000D01*
X7187000Y-13518714D01*
X7172714Y-13490143D01*
X7172714Y-13475857D01*
X7187000Y-13447286D01*
X7201286Y-13433000D01*
X7229857Y-13418714D01*
X7287000Y-13418714D01*
X7315571Y-13433000D01*
X7329857Y-13447286D01*
X7344143Y-13475857D01*
X7344143Y-13490143D01*
X7329857Y-13518714D01*
X7315571Y-13533000D01*
X7287000Y-13547286D01*
X7229857Y-13547286D01*
X7201286Y-13561571D01*
X7187000Y-13575857D01*
X7172714Y-13604429D01*
X7172714Y-13661571D01*
X7187000Y-13690143D01*
X7201286Y-13704429D01*
X7229857Y-13718714D01*
X7287000Y-13718714D01*
X7315571Y-13704429D01*
X7329857Y-13690143D01*
X7344143Y-13661571D01*
X7344143Y-13604429D01*
X7329857Y-13575857D01*
X7315571Y-13561571D01*
X7287000Y-13547286D01*
X7529857Y-13418714D02*
X7558428Y-13418714D01*
X7587000Y-13433000D01*
X7601286Y-13447286D01*
X7615571Y-13475857D01*
X7629857Y-13533000D01*
X7629857Y-13604429D01*
X7615571Y-13661571D01*
X7601286Y-13690143D01*
X7587000Y-13704429D01*
X7558428Y-13718714D01*
X7529857Y-13718714D01*
X7501286Y-13704429D01*
X7487000Y-13690143D01*
X7472714Y-13661571D01*
X7458428Y-13604429D01*
X7458428Y-13533000D01*
X7472714Y-13475857D01*
X7487000Y-13447286D01*
X7501286Y-13433000D01*
X7529857Y-13418714D01*
X7815571Y-13418714D02*
X7844143Y-13418714D01*
X7872714Y-13433000D01*
X7887000Y-13447286D01*
X7901286Y-13475857D01*
X7915571Y-13533000D01*
X7915571Y-13604429D01*
X7901286Y-13661571D01*
X7887000Y-13690143D01*
X7872714Y-13704429D01*
X7844143Y-13718714D01*
X7815571Y-13718714D01*
X7787000Y-13704429D01*
X7772714Y-13690143D01*
X7758428Y-13661571D01*
X7744143Y-13604429D01*
X7744143Y-13533000D01*
X7758428Y-13475857D01*
X7772714Y-13447286D01*
X7787000Y-13433000D01*
X7815571Y-13418714D01*
X8044143Y-13718714D02*
X8044143Y-13518714D01*
X8044143Y-13547286D02*
X8058428Y-13533000D01*
X8087000Y-13518714D01*
X8129857Y-13518714D01*
X8158428Y-13533000D01*
X8172714Y-13561571D01*
X8172714Y-13718714D01*
X8172714Y-13561571D02*
X8187000Y-13533000D01*
X8215571Y-13518714D01*
X8258428Y-13518714D01*
X8287000Y-13533000D01*
X8301286Y-13561571D01*
X8301286Y-13718714D01*
X8444143Y-13718714D02*
X8444143Y-13518714D01*
X8444143Y-13547286D02*
X8458428Y-13533000D01*
X8487000Y-13518714D01*
X8529857Y-13518714D01*
X8558428Y-13533000D01*
X8572714Y-13561571D01*
X8572714Y-13718714D01*
X8572714Y-13561571D02*
X8587000Y-13533000D01*
X8615571Y-13518714D01*
X8658428Y-13518714D01*
X8687000Y-13533000D01*
X8701286Y-13561571D01*
X8701286Y-13718714D01*
X9287000Y-13404429D02*
X9029857Y-13790143D01*
X9672714Y-13418714D02*
X9701286Y-13418714D01*
X9729857Y-13433000D01*
X9744143Y-13447286D01*
X9758428Y-13475857D01*
X9772714Y-13533000D01*
X9772714Y-13604429D01*
X9758428Y-13661571D01*
X9744143Y-13690143D01*
X9729857Y-13704429D01*
X9701286Y-13718714D01*
X9672714Y-13718714D01*
X9644143Y-13704429D01*
X9629857Y-13690143D01*
X9615571Y-13661571D01*
X9601286Y-13604429D01*
X9601286Y-13533000D01*
X9615571Y-13475857D01*
X9629857Y-13447286D01*
X9644143Y-13433000D01*
X9672714Y-13418714D01*
X9901286Y-13690143D02*
X9915571Y-13704429D01*
X9901286Y-13718714D01*
X9887000Y-13704429D01*
X9901286Y-13690143D01*
X9901286Y-13718714D01*
X10101286Y-13418714D02*
X10129857Y-13418714D01*
X10158428Y-13433000D01*
X10172714Y-13447286D01*
X10187000Y-13475857D01*
X10201286Y-13533000D01*
X10201286Y-13604429D01*
X10187000Y-13661571D01*
X10172714Y-13690143D01*
X10158428Y-13704429D01*
X10129857Y-13718714D01*
X10101286Y-13718714D01*
X10072714Y-13704429D01*
X10058428Y-13690143D01*
X10044143Y-13661571D01*
X10029857Y-13604429D01*
X10029857Y-13533000D01*
X10044143Y-13475857D01*
X10058428Y-13447286D01*
X10072714Y-13433000D01*
X10101286Y-13418714D01*
X10301286Y-13418714D02*
X10487000Y-13418714D01*
X10387000Y-13533000D01*
X10429857Y-13533000D01*
X10458428Y-13547286D01*
X10472714Y-13561571D01*
X10487000Y-13590143D01*
X10487000Y-13661571D01*
X10472714Y-13690143D01*
X10458428Y-13704429D01*
X10429857Y-13718714D01*
X10344143Y-13718714D01*
X10315571Y-13704429D01*
X10301286Y-13690143D01*
X10772714Y-13718714D02*
X10601286Y-13718714D01*
X10687000Y-13718714D02*
X10687000Y-13418714D01*
X10658428Y-13461571D01*
X10629857Y-13490143D01*
X10601286Y-13504429D01*
X11044143Y-13418714D02*
X10901286Y-13418714D01*
X10887000Y-13561571D01*
X10901286Y-13547286D01*
X10929857Y-13533000D01*
X11001286Y-13533000D01*
X11029857Y-13547286D01*
X11044143Y-13561571D01*
X11058428Y-13590143D01*
X11058428Y-13661571D01*
X11044143Y-13690143D01*
X11029857Y-13704429D01*
X11001286Y-13718714D01*
X10929857Y-13718714D01*
X10901286Y-13704429D01*
X10887000Y-13690143D01*
X11172714Y-13418714D02*
X11172714Y-13475857D01*
X11287000Y-13418714D02*
X11287000Y-13475857D01*
X11729857Y-13833000D02*
X11715571Y-13818714D01*
X11687000Y-13775857D01*
X11672714Y-13747286D01*
X11658428Y-13704429D01*
X11644143Y-13633000D01*
X11644143Y-13575857D01*
X11658428Y-13504429D01*
X11672714Y-13461571D01*
X11687000Y-13433000D01*
X11715571Y-13390143D01*
X11729857Y-13375857D01*
X11829857Y-13447286D02*
X11844143Y-13433000D01*
X11872714Y-13418714D01*
X11944143Y-13418714D01*
X11972714Y-13433000D01*
X11987000Y-13447286D01*
X12001286Y-13475857D01*
X12001286Y-13504429D01*
X11987000Y-13547286D01*
X11815571Y-13718714D01*
X12001286Y-13718714D01*
X12187000Y-13418714D02*
X12215571Y-13418714D01*
X12244143Y-13433000D01*
X12258428Y-13447286D01*
X12272714Y-13475857D01*
X12287000Y-13533000D01*
X12287000Y-13604429D01*
X12272714Y-13661571D01*
X12258428Y-13690143D01*
X12244143Y-13704429D01*
X12215571Y-13718714D01*
X12187000Y-13718714D01*
X12158428Y-13704429D01*
X12144143Y-13690143D01*
X12129857Y-13661571D01*
X12115571Y-13604429D01*
X12115571Y-13533000D01*
X12129857Y-13475857D01*
X12144143Y-13447286D01*
X12158428Y-13433000D01*
X12187000Y-13418714D01*
X12644143Y-13718714D02*
X12644143Y-13418714D01*
X12772714Y-13718714D02*
X12772714Y-13561571D01*
X12758428Y-13533000D01*
X12729857Y-13518714D01*
X12687000Y-13518714D01*
X12658428Y-13533000D01*
X12644143Y-13547286D01*
X12958428Y-13718714D02*
X12929857Y-13704429D01*
X12915571Y-13690143D01*
X12901286Y-13661571D01*
X12901286Y-13575857D01*
X12915571Y-13547286D01*
X12929857Y-13533000D01*
X12958428Y-13518714D01*
X13001286Y-13518714D01*
X13029857Y-13533000D01*
X13044143Y-13547286D01*
X13058428Y-13575857D01*
X13058428Y-13661571D01*
X13044143Y-13690143D01*
X13029857Y-13704429D01*
X13001286Y-13718714D01*
X12958428Y-13718714D01*
X13229857Y-13718714D02*
X13201286Y-13704429D01*
X13187000Y-13675857D01*
X13187000Y-13418714D01*
X13458428Y-13704429D02*
X13429857Y-13718714D01*
X13372714Y-13718714D01*
X13344143Y-13704429D01*
X13329857Y-13675857D01*
X13329857Y-13561571D01*
X13344143Y-13533000D01*
X13372714Y-13518714D01*
X13429857Y-13518714D01*
X13458428Y-13533000D01*
X13472714Y-13561571D01*
X13472714Y-13590143D01*
X13329857Y-13618714D01*
X13587000Y-13704429D02*
X13615571Y-13718714D01*
X13672714Y-13718714D01*
X13701286Y-13704429D01*
X13715571Y-13675857D01*
X13715571Y-13661571D01*
X13701286Y-13633000D01*
X13672714Y-13618714D01*
X13629857Y-13618714D01*
X13601286Y-13604429D01*
X13587000Y-13575857D01*
X13587000Y-13561571D01*
X13601286Y-13533000D01*
X13629857Y-13518714D01*
X13672714Y-13518714D01*
X13701286Y-13533000D01*
X13815571Y-13833000D02*
X13829857Y-13818714D01*
X13858428Y-13775857D01*
X13872714Y-13747286D01*
X13887000Y-13704429D01*
X13901286Y-13633000D01*
X13901286Y-13575857D01*
X13887000Y-13504429D01*
X13872714Y-13461571D01*
X13858428Y-13433000D01*
X13829857Y-13390143D01*
X13815571Y-13375857D01*
X6422000Y-14029000D02*
X6472000Y-13979000D01*
X6422000Y-13929000D01*
X6372000Y-13979000D01*
X6422000Y-14029000D01*
X6915571Y-14114714D02*
X6744143Y-14114714D01*
X6829857Y-14114714D02*
X6829857Y-13814714D01*
X6801286Y-13857571D01*
X6772714Y-13886143D01*
X6744143Y-13900429D01*
X7044143Y-14086143D02*
X7058428Y-14100429D01*
X7044143Y-14114714D01*
X7029857Y-14100429D01*
X7044143Y-14086143D01*
X7044143Y-14114714D01*
X7244143Y-13814714D02*
X7272714Y-13814714D01*
X7301286Y-13829000D01*
X7315571Y-13843286D01*
X7329857Y-13871857D01*
X7344143Y-13929000D01*
X7344143Y-14000429D01*
X7329857Y-14057571D01*
X7315571Y-14086143D01*
X7301286Y-14100429D01*
X7272714Y-14114714D01*
X7244143Y-14114714D01*
X7215571Y-14100429D01*
X7201286Y-14086143D01*
X7187000Y-14057571D01*
X7172714Y-14000429D01*
X7172714Y-13929000D01*
X7187000Y-13871857D01*
X7201286Y-13843286D01*
X7215571Y-13829000D01*
X7244143Y-13814714D01*
X7529857Y-13814714D02*
X7558428Y-13814714D01*
X7587000Y-13829000D01*
X7601286Y-13843286D01*
X7615571Y-13871857D01*
X7629857Y-13929000D01*
X7629857Y-14000429D01*
X7615571Y-14057571D01*
X7601286Y-14086143D01*
X7587000Y-14100429D01*
X7558428Y-14114714D01*
X7529857Y-14114714D01*
X7501286Y-14100429D01*
X7487000Y-14086143D01*
X7472714Y-14057571D01*
X7458428Y-14000429D01*
X7458428Y-13929000D01*
X7472714Y-13871857D01*
X7487000Y-13843286D01*
X7501286Y-13829000D01*
X7529857Y-13814714D01*
X7815571Y-13814714D02*
X7844143Y-13814714D01*
X7872714Y-13829000D01*
X7887000Y-13843286D01*
X7901286Y-13871857D01*
X7915571Y-13929000D01*
X7915571Y-14000429D01*
X7901286Y-14057571D01*
X7887000Y-14086143D01*
X7872714Y-14100429D01*
X7844143Y-14114714D01*
X7815571Y-14114714D01*
X7787000Y-14100429D01*
X7772714Y-14086143D01*
X7758428Y-14057571D01*
X7744143Y-14000429D01*
X7744143Y-13929000D01*
X7758428Y-13871857D01*
X7772714Y-13843286D01*
X7787000Y-13829000D01*
X7815571Y-13814714D01*
X8044143Y-14114714D02*
X8044143Y-13914714D01*
X8044143Y-13943286D02*
X8058428Y-13929000D01*
X8087000Y-13914714D01*
X8129857Y-13914714D01*
X8158428Y-13929000D01*
X8172714Y-13957571D01*
X8172714Y-14114714D01*
X8172714Y-13957571D02*
X8187000Y-13929000D01*
X8215571Y-13914714D01*
X8258428Y-13914714D01*
X8287000Y-13929000D01*
X8301286Y-13957571D01*
X8301286Y-14114714D01*
X8444143Y-14114714D02*
X8444143Y-13914714D01*
X8444143Y-13943286D02*
X8458428Y-13929000D01*
X8487000Y-13914714D01*
X8529857Y-13914714D01*
X8558428Y-13929000D01*
X8572714Y-13957571D01*
X8572714Y-14114714D01*
X8572714Y-13957571D02*
X8587000Y-13929000D01*
X8615571Y-13914714D01*
X8658428Y-13914714D01*
X8687000Y-13929000D01*
X8701286Y-13957571D01*
X8701286Y-14114714D01*
X9287000Y-13800429D02*
X9029857Y-14186143D01*
X9672714Y-13814714D02*
X9701286Y-13814714D01*
X9729857Y-13829000D01*
X9744143Y-13843286D01*
X9758428Y-13871857D01*
X9772714Y-13929000D01*
X9772714Y-14000429D01*
X9758428Y-14057571D01*
X9744143Y-14086143D01*
X9729857Y-14100429D01*
X9701286Y-14114714D01*
X9672714Y-14114714D01*
X9644143Y-14100429D01*
X9629857Y-14086143D01*
X9615571Y-14057571D01*
X9601286Y-14000429D01*
X9601286Y-13929000D01*
X9615571Y-13871857D01*
X9629857Y-13843286D01*
X9644143Y-13829000D01*
X9672714Y-13814714D01*
X9901286Y-14086143D02*
X9915571Y-14100429D01*
X9901286Y-14114714D01*
X9887000Y-14100429D01*
X9901286Y-14086143D01*
X9901286Y-14114714D01*
X10101286Y-13814714D02*
X10129857Y-13814714D01*
X10158428Y-13829000D01*
X10172714Y-13843286D01*
X10187000Y-13871857D01*
X10201286Y-13929000D01*
X10201286Y-14000429D01*
X10187000Y-14057571D01*
X10172714Y-14086143D01*
X10158428Y-14100429D01*
X10129857Y-14114714D01*
X10101286Y-14114714D01*
X10072714Y-14100429D01*
X10058428Y-14086143D01*
X10044143Y-14057571D01*
X10029857Y-14000429D01*
X10029857Y-13929000D01*
X10044143Y-13871857D01*
X10058428Y-13843286D01*
X10072714Y-13829000D01*
X10101286Y-13814714D01*
X10301286Y-13814714D02*
X10487000Y-13814714D01*
X10387000Y-13929000D01*
X10429857Y-13929000D01*
X10458428Y-13943286D01*
X10472714Y-13957571D01*
X10487000Y-13986143D01*
X10487000Y-14057571D01*
X10472714Y-14086143D01*
X10458428Y-14100429D01*
X10429857Y-14114714D01*
X10344143Y-14114714D01*
X10315571Y-14100429D01*
X10301286Y-14086143D01*
X10629857Y-14114714D02*
X10687000Y-14114714D01*
X10715571Y-14100429D01*
X10729857Y-14086143D01*
X10758428Y-14043286D01*
X10772714Y-13986143D01*
X10772714Y-13871857D01*
X10758428Y-13843286D01*
X10744143Y-13829000D01*
X10715571Y-13814714D01*
X10658428Y-13814714D01*
X10629857Y-13829000D01*
X10615571Y-13843286D01*
X10601286Y-13871857D01*
X10601286Y-13943286D01*
X10615571Y-13971857D01*
X10629857Y-13986143D01*
X10658428Y-14000429D01*
X10715571Y-14000429D01*
X10744143Y-13986143D01*
X10758428Y-13971857D01*
X10772714Y-13943286D01*
X11029857Y-13914714D02*
X11029857Y-14114714D01*
X10958428Y-13800429D02*
X10887000Y-14014714D01*
X11072714Y-14014714D01*
X11172714Y-13814714D02*
X11172714Y-13871857D01*
X11287000Y-13814714D02*
X11287000Y-13871857D01*
X11729857Y-14229000D02*
X11715571Y-14214714D01*
X11687000Y-14171857D01*
X11672714Y-14143286D01*
X11658428Y-14100429D01*
X11644143Y-14029000D01*
X11644143Y-13971857D01*
X11658428Y-13900429D01*
X11672714Y-13857571D01*
X11687000Y-13829000D01*
X11715571Y-13786143D01*
X11729857Y-13771857D01*
X11829857Y-13843286D02*
X11844143Y-13829000D01*
X11872714Y-13814714D01*
X11944143Y-13814714D01*
X11972714Y-13829000D01*
X11987000Y-13843286D01*
X12001286Y-13871857D01*
X12001286Y-13900429D01*
X11987000Y-13943286D01*
X11815571Y-14114714D01*
X12001286Y-14114714D01*
X12358428Y-14114714D02*
X12358428Y-13814714D01*
X12487000Y-14114714D02*
X12487000Y-13957571D01*
X12472714Y-13929000D01*
X12444143Y-13914714D01*
X12401286Y-13914714D01*
X12372714Y-13929000D01*
X12358428Y-13943286D01*
X12672714Y-14114714D02*
X12644143Y-14100429D01*
X12629857Y-14086143D01*
X12615571Y-14057571D01*
X12615571Y-13971857D01*
X12629857Y-13943286D01*
X12644143Y-13929000D01*
X12672714Y-13914714D01*
X12715571Y-13914714D01*
X12744143Y-13929000D01*
X12758428Y-13943286D01*
X12772714Y-13971857D01*
X12772714Y-14057571D01*
X12758428Y-14086143D01*
X12744143Y-14100429D01*
X12715571Y-14114714D01*
X12672714Y-14114714D01*
X12944143Y-14114714D02*
X12915571Y-14100429D01*
X12901286Y-14071857D01*
X12901286Y-13814714D01*
X13172714Y-14100429D02*
X13144143Y-14114714D01*
X13087000Y-14114714D01*
X13058428Y-14100429D01*
X13044143Y-14071857D01*
X13044143Y-13957571D01*
X13058428Y-13929000D01*
X13087000Y-13914714D01*
X13144143Y-13914714D01*
X13172714Y-13929000D01*
X13187000Y-13957571D01*
X13187000Y-13986143D01*
X13044143Y-14014714D01*
X13301286Y-14100429D02*
X13329857Y-14114714D01*
X13387000Y-14114714D01*
X13415571Y-14100429D01*
X13429857Y-14071857D01*
X13429857Y-14057571D01*
X13415571Y-14029000D01*
X13387000Y-14014714D01*
X13344143Y-14014714D01*
X13315571Y-14000429D01*
X13301286Y-13971857D01*
X13301286Y-13957571D01*
X13315571Y-13929000D01*
X13344143Y-13914714D01*
X13387000Y-13914714D01*
X13415571Y-13929000D01*
X13529857Y-14229000D02*
X13544143Y-14214714D01*
X13572714Y-14171857D01*
X13587000Y-14143286D01*
X13601286Y-14100429D01*
X13615571Y-14029000D01*
X13615571Y-13971857D01*
X13601286Y-13900429D01*
X13587000Y-13857571D01*
X13572714Y-13829000D01*
X13544143Y-13786143D01*
X13529857Y-13771857D01*
X6352000Y-14315000D02*
X6472000Y-14435000D01*
X6472000Y-14315000D02*
X6352000Y-14435000D01*
X6472000Y-14375000D02*
G75*
G03*
X6472000Y-14375000I-60000J0D01*
G01*
X6915571Y-14510714D02*
X6744143Y-14510714D01*
X6829857Y-14510714D02*
X6829857Y-14210714D01*
X6801286Y-14253571D01*
X6772714Y-14282143D01*
X6744143Y-14296429D01*
X7044143Y-14482143D02*
X7058428Y-14496429D01*
X7044143Y-14510714D01*
X7029857Y-14496429D01*
X7044143Y-14482143D01*
X7044143Y-14510714D01*
X7172714Y-14239286D02*
X7187000Y-14225000D01*
X7215571Y-14210714D01*
X7287000Y-14210714D01*
X7315571Y-14225000D01*
X7329857Y-14239286D01*
X7344143Y-14267857D01*
X7344143Y-14296429D01*
X7329857Y-14339286D01*
X7158428Y-14510714D01*
X7344143Y-14510714D01*
X7529857Y-14210714D02*
X7558428Y-14210714D01*
X7587000Y-14225000D01*
X7601286Y-14239286D01*
X7615571Y-14267857D01*
X7629857Y-14325000D01*
X7629857Y-14396429D01*
X7615571Y-14453571D01*
X7601286Y-14482143D01*
X7587000Y-14496429D01*
X7558428Y-14510714D01*
X7529857Y-14510714D01*
X7501286Y-14496429D01*
X7487000Y-14482143D01*
X7472714Y-14453571D01*
X7458428Y-14396429D01*
X7458428Y-14325000D01*
X7472714Y-14267857D01*
X7487000Y-14239286D01*
X7501286Y-14225000D01*
X7529857Y-14210714D01*
X7815571Y-14210714D02*
X7844143Y-14210714D01*
X7872714Y-14225000D01*
X7887000Y-14239286D01*
X7901286Y-14267857D01*
X7915571Y-14325000D01*
X7915571Y-14396429D01*
X7901286Y-14453571D01*
X7887000Y-14482143D01*
X7872714Y-14496429D01*
X7844143Y-14510714D01*
X7815571Y-14510714D01*
X7787000Y-14496429D01*
X7772714Y-14482143D01*
X7758428Y-14453571D01*
X7744143Y-14396429D01*
X7744143Y-14325000D01*
X7758428Y-14267857D01*
X7772714Y-14239286D01*
X7787000Y-14225000D01*
X7815571Y-14210714D01*
X8044143Y-14510714D02*
X8044143Y-14310714D01*
X8044143Y-14339286D02*
X8058428Y-14325000D01*
X8087000Y-14310714D01*
X8129857Y-14310714D01*
X8158428Y-14325000D01*
X8172714Y-14353571D01*
X8172714Y-14510714D01*
X8172714Y-14353571D02*
X8187000Y-14325000D01*
X8215571Y-14310714D01*
X8258428Y-14310714D01*
X8287000Y-14325000D01*
X8301286Y-14353571D01*
X8301286Y-14510714D01*
X8444143Y-14510714D02*
X8444143Y-14310714D01*
X8444143Y-14339286D02*
X8458428Y-14325000D01*
X8487000Y-14310714D01*
X8529857Y-14310714D01*
X8558428Y-14325000D01*
X8572714Y-14353571D01*
X8572714Y-14510714D01*
X8572714Y-14353571D02*
X8587000Y-14325000D01*
X8615571Y-14310714D01*
X8658428Y-14310714D01*
X8687000Y-14325000D01*
X8701286Y-14353571D01*
X8701286Y-14510714D01*
X9287000Y-14196429D02*
X9029857Y-14582143D01*
X9672714Y-14210714D02*
X9701286Y-14210714D01*
X9729857Y-14225000D01*
X9744143Y-14239286D01*
X9758428Y-14267857D01*
X9772714Y-14325000D01*
X9772714Y-14396429D01*
X9758428Y-14453571D01*
X9744143Y-14482143D01*
X9729857Y-14496429D01*
X9701286Y-14510714D01*
X9672714Y-14510714D01*
X9644143Y-14496429D01*
X9629857Y-14482143D01*
X9615571Y-14453571D01*
X9601286Y-14396429D01*
X9601286Y-14325000D01*
X9615571Y-14267857D01*
X9629857Y-14239286D01*
X9644143Y-14225000D01*
X9672714Y-14210714D01*
X9901286Y-14482143D02*
X9915571Y-14496429D01*
X9901286Y-14510714D01*
X9887000Y-14496429D01*
X9901286Y-14482143D01*
X9901286Y-14510714D01*
X10101286Y-14210714D02*
X10129857Y-14210714D01*
X10158428Y-14225000D01*
X10172714Y-14239286D01*
X10187000Y-14267857D01*
X10201286Y-14325000D01*
X10201286Y-14396429D01*
X10187000Y-14453571D01*
X10172714Y-14482143D01*
X10158428Y-14496429D01*
X10129857Y-14510714D01*
X10101286Y-14510714D01*
X10072714Y-14496429D01*
X10058428Y-14482143D01*
X10044143Y-14453571D01*
X10029857Y-14396429D01*
X10029857Y-14325000D01*
X10044143Y-14267857D01*
X10058428Y-14239286D01*
X10072714Y-14225000D01*
X10101286Y-14210714D01*
X10458428Y-14310714D02*
X10458428Y-14510714D01*
X10387000Y-14196429D02*
X10315571Y-14410714D01*
X10501286Y-14410714D01*
X10587000Y-14210714D02*
X10787000Y-14210714D01*
X10658428Y-14510714D01*
X10887000Y-14239286D02*
X10901286Y-14225000D01*
X10929857Y-14210714D01*
X11001286Y-14210714D01*
X11029857Y-14225000D01*
X11044143Y-14239286D01*
X11058428Y-14267857D01*
X11058428Y-14296429D01*
X11044143Y-14339286D01*
X10872714Y-14510714D01*
X11058428Y-14510714D01*
X11172714Y-14210714D02*
X11172714Y-14267857D01*
X11287000Y-14210714D02*
X11287000Y-14267857D01*
X11729857Y-14625000D02*
X11715571Y-14610714D01*
X11687000Y-14567857D01*
X11672714Y-14539286D01*
X11658428Y-14496429D01*
X11644143Y-14425000D01*
X11644143Y-14367857D01*
X11658428Y-14296429D01*
X11672714Y-14253571D01*
X11687000Y-14225000D01*
X11715571Y-14182143D01*
X11729857Y-14167857D01*
X11829857Y-14239286D02*
X11844143Y-14225000D01*
X11872714Y-14210714D01*
X11944143Y-14210714D01*
X11972714Y-14225000D01*
X11987000Y-14239286D01*
X12001286Y-14267857D01*
X12001286Y-14296429D01*
X11987000Y-14339286D01*
X11815571Y-14510714D01*
X12001286Y-14510714D01*
X12358428Y-14510714D02*
X12358428Y-14210714D01*
X12487000Y-14510714D02*
X12487000Y-14353571D01*
X12472714Y-14325000D01*
X12444143Y-14310714D01*
X12401286Y-14310714D01*
X12372714Y-14325000D01*
X12358428Y-14339286D01*
X12672714Y-14510714D02*
X12644143Y-14496429D01*
X12629857Y-14482143D01*
X12615571Y-14453571D01*
X12615571Y-14367857D01*
X12629857Y-14339286D01*
X12644143Y-14325000D01*
X12672714Y-14310714D01*
X12715571Y-14310714D01*
X12744143Y-14325000D01*
X12758428Y-14339286D01*
X12772714Y-14367857D01*
X12772714Y-14453571D01*
X12758428Y-14482143D01*
X12744143Y-14496429D01*
X12715571Y-14510714D01*
X12672714Y-14510714D01*
X12944143Y-14510714D02*
X12915571Y-14496429D01*
X12901286Y-14467857D01*
X12901286Y-14210714D01*
X13172714Y-14496429D02*
X13144143Y-14510714D01*
X13087000Y-14510714D01*
X13058428Y-14496429D01*
X13044143Y-14467857D01*
X13044143Y-14353571D01*
X13058428Y-14325000D01*
X13087000Y-14310714D01*
X13144143Y-14310714D01*
X13172714Y-14325000D01*
X13187000Y-14353571D01*
X13187000Y-14382143D01*
X13044143Y-14410714D01*
X13301286Y-14496429D02*
X13329857Y-14510714D01*
X13387000Y-14510714D01*
X13415571Y-14496429D01*
X13429857Y-14467857D01*
X13429857Y-14453571D01*
X13415571Y-14425000D01*
X13387000Y-14410714D01*
X13344143Y-14410714D01*
X13315571Y-14396429D01*
X13301286Y-14367857D01*
X13301286Y-14353571D01*
X13315571Y-14325000D01*
X13344143Y-14310714D01*
X13387000Y-14310714D01*
X13415571Y-14325000D01*
X13529857Y-14625000D02*
X13544143Y-14610714D01*
X13572714Y-14567857D01*
X13587000Y-14539286D01*
X13601286Y-14496429D01*
X13615571Y-14425000D01*
X13615571Y-14367857D01*
X13601286Y-14296429D01*
X13587000Y-14253571D01*
X13572714Y-14225000D01*
X13544143Y-14182143D01*
X13529857Y-14167857D01*
M02*
