%TF.GenerationSoftware,KiCad,Pcbnew,(5.1.12)-1*%
%TF.CreationDate,2022-11-24T21:41:11-03:00*%
%TF.ProjectId,LED_tree,4c45445f-7472-4656-952e-6b696361645f,rev?*%
%TF.SameCoordinates,Original*%
%TF.FileFunction,Soldermask,Top*%
%TF.FilePolarity,Negative*%
%FSLAX46Y46*%
G04 Gerber Fmt 4.6, Leading zero omitted, Abs format (unit mm)*
G04 Created by KiCad (PCBNEW (5.1.12)-1) date 2022-11-24 21:41:11*
%MOMM*%
%LPD*%
G01*
G04 APERTURE LIST*
%ADD10C,2.400000*%
%ADD11O,0.850000X0.850000*%
%ADD12R,0.850000X0.850000*%
%ADD13O,1.600000X1.600000*%
%ADD14R,1.600000X1.600000*%
%ADD15O,1.400000X1.400000*%
%ADD16C,1.400000*%
%ADD17R,1.500000X1.050000*%
%ADD18O,1.500000X1.050000*%
%ADD19C,2.000000*%
%ADD20R,2.000000X2.000000*%
G04 APERTURE END LIST*
D10*
%TO.C,SW1*%
X150080000Y-49530000D03*
X144780000Y-49530000D03*
%TD*%
D11*
%TO.C,J2*%
X96060000Y-82550000D03*
X97060000Y-82550000D03*
X98060000Y-82550000D03*
D12*
X99060000Y-82550000D03*
%TD*%
%TO.C,J1*%
X88900000Y-31750000D03*
%TD*%
D13*
%TO.C,U1*%
X132580000Y-65150000D03*
X124960000Y-88010000D03*
X132580000Y-67690000D03*
X124960000Y-85470000D03*
X132580000Y-70230000D03*
X124960000Y-82930000D03*
X132580000Y-72770000D03*
X124960000Y-80390000D03*
X132580000Y-75310000D03*
X124960000Y-77850000D03*
X132580000Y-77850000D03*
X124960000Y-75310000D03*
X132580000Y-80390000D03*
X124960000Y-72770000D03*
X132580000Y-82930000D03*
X124960000Y-70230000D03*
X132580000Y-85470000D03*
X124960000Y-67690000D03*
X132580000Y-88010000D03*
D14*
X124960000Y-65150000D03*
%TD*%
D15*
%TO.C,R7*%
X168910000Y-71120000D03*
D16*
X168910000Y-68580000D03*
%TD*%
D15*
%TO.C,R6*%
X110490000Y-85090000D03*
D16*
X110490000Y-82550000D03*
%TD*%
D15*
%TO.C,R5*%
X106680000Y-80010000D03*
D16*
X106680000Y-77470000D03*
%TD*%
D15*
%TO.C,R4*%
X102870000Y-72390000D03*
D16*
X102870000Y-74930000D03*
%TD*%
D15*
%TO.C,R3*%
X99060000Y-67310000D03*
D16*
X99060000Y-69850000D03*
%TD*%
D15*
%TO.C,R2*%
X130810000Y-58420000D03*
D16*
X128270000Y-58420000D03*
%TD*%
D15*
%TO.C,R1*%
X92710000Y-99060000D03*
D16*
X92710000Y-101600000D03*
%TD*%
D17*
%TO.C,Q1*%
X74930000Y-64770000D03*
D18*
X74930000Y-67310000D03*
X74930000Y-66040000D03*
%TD*%
%TO.C,C1*%
G36*
G01*
X150135001Y-56975000D02*
X149584999Y-56975000D01*
G75*
G02*
X149335000Y-56725001I0J249999D01*
G01*
X149335000Y-55974999D01*
G75*
G02*
X149584999Y-55725000I249999J0D01*
G01*
X150135001Y-55725000D01*
G75*
G02*
X150385000Y-55974999I0J-249999D01*
G01*
X150385000Y-56725001D01*
G75*
G02*
X150135001Y-56975000I-249999J0D01*
G01*
G37*
G36*
G01*
X150135001Y-58575000D02*
X149584999Y-58575000D01*
G75*
G02*
X149335000Y-58325001I0J249999D01*
G01*
X149335000Y-57574999D01*
G75*
G02*
X149584999Y-57325000I249999J0D01*
G01*
X150135001Y-57325000D01*
G75*
G02*
X150385000Y-57574999I0J-249999D01*
G01*
X150385000Y-58325001D01*
G75*
G02*
X150135001Y-58575000I-249999J0D01*
G01*
G37*
%TD*%
D19*
%TO.C,BZ1*%
X102870000Y-40620000D03*
D20*
X102870000Y-33020000D03*
%TD*%
M02*
