<?xml version="1.0" standalone="no"?>
 <!DOCTYPE svg PUBLIC "-//W3C//DTD SVG 1.1//EN" 
 "http://www.w3.org/Graphics/SVG/1.1/DTD/svg11.dtd"> 
<svg
  xmlns:svg="http://www.w3.org/2000/svg"
  xmlns="http://www.w3.org/2000/svg"
  xmlns:xlink="http://www.w3.org/1999/xlink"
  version="1.1"
  width="29.700220cm" height="21.000720cm" viewBox="0 0 297002200 210007200">
<title>SVG Picture created as luz_inteligente-F_Silkscreen.svg date 2022/11/29 22:06:45 </title>
  <desc>Picture generated by PCBNEW </desc>
<g style="fill:#000000; fill-opacity:1.000000;stroke:#000000; stroke-opacity:1.000000;
stroke-linecap:round; stroke-linejoin:round;"
 transform="translate(0 0) scale(1 1)">
</g>
<g style="fill:#000000; fill-opacity:0.0; 
stroke:#000000; stroke-width:0.000000; stroke-opacity:1; 
stroke-linecap:round; stroke-linejoin:round;">
</g>
<g style="fill:#000000; fill-opacity:0.0; 
stroke:#000000; stroke-width:21200.000000; stroke-opacity:1; 
stroke-linecap:round; stroke-linejoin:round;">
</g>
<g style="fill:#000000; fill-opacity:0.0; 
stroke:#000000; stroke-width:150000.000000; stroke-opacity:1; 
stroke-linecap:round; stroke-linejoin:round;">
<rect x="177002200.000000" y="166007200.000000" width="108000000.000000" height="32000000.000000" rx="0.000000" />
</g>
<g style="fill:#000000; fill-opacity:0.0; 
stroke:#000000; stroke-width:21200.000000; stroke-opacity:1; 
stroke-linecap:round; stroke-linejoin:round;">
</g>
<g style="fill:#000000; fill-opacity:0.0; 
stroke:#000000; stroke-width:150000.000000; stroke-opacity:1; 
stroke-linecap:round; stroke-linejoin:round;">
<rect x="10000000.000000" y="10000000.000000" width="277002200.000000" height="190007200.000000" rx="0.000000" />
</g>
<g style="fill:#000000; fill-opacity:0.0; 
stroke:#000000; stroke-width:21200.000000; stroke-opacity:1; 
stroke-linecap:round; stroke-linejoin:round;">
</g>
<g style="fill:#000000; fill-opacity:0.0; 
stroke:#000000; stroke-width:150000.000000; stroke-opacity:1; 
stroke-linecap:round; stroke-linejoin:round;">
<rect x="12000000.000000" y="12000000.000000" width="273002200.000000" height="186007200.000000" rx="0.000000" />
</g>
<g style="fill:#000000; fill-opacity:0.0; 
stroke:#000000; stroke-width:21200.000000; stroke-opacity:1; 
stroke-linecap:round; stroke-linejoin:round;">
</g>
<g style="fill:#000000; fill-opacity:0.0; 
stroke:#000000; stroke-width:150000.000000; stroke-opacity:1; 
stroke-linecap:round; stroke-linejoin:round;">
<path d="M60000000 12000000
L60000000 10000000
" />
</g>
<g style="fill:#000000; fill-opacity:0.0; 
stroke:#000000; stroke-width:21200.000000; stroke-opacity:1; 
stroke-linecap:round; stroke-linejoin:round;">
</g>
<g style="fill:#000000; fill-opacity:0.0; 
stroke:#000000; stroke-width:150000.000000; stroke-opacity:1; 
stroke-linecap:round; stroke-linejoin:round;">
<path d="M110000000 12000000
L110000000 10000000
" />
</g>
<g style="fill:#000000; fill-opacity:0.0; 
stroke:#000000; stroke-width:21200.000000; stroke-opacity:1; 
stroke-linecap:round; stroke-linejoin:round;">
</g>
<g style="fill:#000000; fill-opacity:0.0; 
stroke:#000000; stroke-width:150000.000000; stroke-opacity:1; 
stroke-linecap:round; stroke-linejoin:round;">
<path d="M160000000 12000000
L160000000 10000000
" />
</g>
<g style="fill:#000000; fill-opacity:0.0; 
stroke:#000000; stroke-width:21200.000000; stroke-opacity:1; 
stroke-linecap:round; stroke-linejoin:round;">
</g>
<g style="fill:#000000; fill-opacity:0.0; 
stroke:#000000; stroke-width:150000.000000; stroke-opacity:1; 
stroke-linecap:round; stroke-linejoin:round;">
<path d="M210000000 12000000
L210000000 10000000
" />
</g>
<g style="fill:#000000; fill-opacity:0.0; 
stroke:#000000; stroke-width:21200.000000; stroke-opacity:1; 
stroke-linecap:round; stroke-linejoin:round;">
</g>
<g style="fill:#000000; fill-opacity:0.0; 
stroke:#000000; stroke-width:150000.000000; stroke-opacity:1; 
stroke-linecap:round; stroke-linejoin:round;">
<path d="M260000000 12000000
L260000000 10000000
" />
</g>
<g style="fill:#000000; fill-opacity:0.0; 
stroke:#000000; stroke-width:21200.000000; stroke-opacity:1; 
stroke-linecap:round; stroke-linejoin:round;">
</g>
<g style="fill:#000000; fill-opacity:0.0; 
stroke:#000000; stroke-width:150000.000000; stroke-opacity:1; 
stroke-linecap:round; stroke-linejoin:round;">
<text x="35000000.000000" y="11650000.000000"
textLength="1388095.000000" font-size="1733333.000000" lengthAdjust="spacingAndGlyphs"
text-anchor="start" opacity="0">1</text>
<g class="stroked-text"><desc>1</desc>
<path d="M36065476 11588095
L35322619 11588095
" />
<path d="M35694047 11588095
L35694047 10288095
L35570238 10473809
L35446428 10597619
L35322619 10659523
" />
</g></g>
<g style="fill:#000000; fill-opacity:0.0; 
stroke:#000000; stroke-width:21200.000000; stroke-opacity:1; 
stroke-linecap:round; stroke-linejoin:round;">
</g>
<g style="fill:#000000; fill-opacity:0.0; 
stroke:#000000; stroke-width:150000.000000; stroke-opacity:1; 
stroke-linecap:round; stroke-linejoin:round;">
<text x="85000000.000000" y="11650000.000000"
textLength="1388095.000000" font-size="1733333.000000" lengthAdjust="spacingAndGlyphs"
text-anchor="start" opacity="0">2</text>
<g class="stroked-text"><desc>2</desc>
<path d="M85322619 10411904
L85384523 10350000
L85508333 10288095
L85817857 10288095
L85941666 10350000
L86003571 10411904
L86065476 10535714
L86065476 10659523
L86003571 10845238
L85260714 11588095
L86065476 11588095
" />
</g></g>
<g style="fill:#000000; fill-opacity:0.0; 
stroke:#000000; stroke-width:21200.000000; stroke-opacity:1; 
stroke-linecap:round; stroke-linejoin:round;">
</g>
<g style="fill:#000000; fill-opacity:0.0; 
stroke:#000000; stroke-width:150000.000000; stroke-opacity:1; 
stroke-linecap:round; stroke-linejoin:round;">
<text x="135000000.000000" y="11650000.000000"
textLength="1388095.000000" font-size="1733333.000000" lengthAdjust="spacingAndGlyphs"
text-anchor="start" opacity="0">3</text>
<g class="stroked-text"><desc>3</desc>
<path d="M135260714 10288095
L136065476 10288095
L135632142 10783333
L135817857 10783333
L135941666 10845238
L136003571 10907142
L136065476 11030952
L136065476 11340476
L136003571 11464285
L135941666 11526190
L135817857 11588095
L135446428 11588095
L135322619 11526190
L135260714 11464285
" />
</g></g>
<g style="fill:#000000; fill-opacity:0.0; 
stroke:#000000; stroke-width:21200.000000; stroke-opacity:1; 
stroke-linecap:round; stroke-linejoin:round;">
</g>
<g style="fill:#000000; fill-opacity:0.0; 
stroke:#000000; stroke-width:150000.000000; stroke-opacity:1; 
stroke-linecap:round; stroke-linejoin:round;">
<text x="185000000.000000" y="11650000.000000"
textLength="1388095.000000" font-size="1733333.000000" lengthAdjust="spacingAndGlyphs"
text-anchor="start" opacity="0">4</text>
<g class="stroked-text"><desc>4</desc>
<path d="M185941666 10721428
L185941666 11588095
" />
<path d="M185632142 10226190
L185322619 11154761
L186127380 11154761
" />
</g></g>
<g style="fill:#000000; fill-opacity:0.0; 
stroke:#000000; stroke-width:21200.000000; stroke-opacity:1; 
stroke-linecap:round; stroke-linejoin:round;">
</g>
<g style="fill:#000000; fill-opacity:0.0; 
stroke:#000000; stroke-width:150000.000000; stroke-opacity:1; 
stroke-linecap:round; stroke-linejoin:round;">
<text x="235000000.000000" y="11650000.000000"
textLength="1388095.000000" font-size="1733333.000000" lengthAdjust="spacingAndGlyphs"
text-anchor="start" opacity="0">5</text>
<g class="stroked-text"><desc>5</desc>
<path d="M236003571 10288095
L235384523 10288095
L235322619 10907142
L235384523 10845238
L235508333 10783333
L235817857 10783333
L235941666 10845238
L236003571 10907142
L236065476 11030952
L236065476 11340476
L236003571 11464285
L235941666 11526190
L235817857 11588095
L235508333 11588095
L235384523 11526190
L235322619 11464285
" />
</g></g>
<g style="fill:#000000; fill-opacity:0.0; 
stroke:#000000; stroke-width:21200.000000; stroke-opacity:1; 
stroke-linecap:round; stroke-linejoin:round;">
</g>
<g style="fill:#000000; fill-opacity:0.0; 
stroke:#000000; stroke-width:150000.000000; stroke-opacity:1; 
stroke-linecap:round; stroke-linejoin:round;">
<text x="285000000.000000" y="11650000.000000"
textLength="1388095.000000" font-size="1733333.000000" lengthAdjust="spacingAndGlyphs"
text-anchor="start" opacity="0">6</text>
<g class="stroked-text"><desc>6</desc>
<path d="M285941666 10288095
L285694047 10288095
L285570238 10350000
L285508333 10411904
L285384523 10597619
L285322619 10845238
L285322619 11340476
L285384523 11464285
L285446428 11526190
L285570238 11588095
L285817857 11588095
L285941666 11526190
L286003571 11464285
L286065476 11340476
L286065476 11030952
L286003571 10907142
L285941666 10845238
L285817857 10783333
L285570238 10783333
L285446428 10845238
L285384523 10907142
L285322619 11030952
" />
</g></g>
<g style="fill:#000000; fill-opacity:0.0; 
stroke:#000000; stroke-width:21200.000000; stroke-opacity:1; 
stroke-linecap:round; stroke-linejoin:round;">
</g>
<g style="fill:#000000; fill-opacity:0.0; 
stroke:#000000; stroke-width:150000.000000; stroke-opacity:1; 
stroke-linecap:round; stroke-linejoin:round;">
<path d="M60000000 198007200
L60000000 200007200
" />
</g>
<g style="fill:#000000; fill-opacity:0.0; 
stroke:#000000; stroke-width:21200.000000; stroke-opacity:1; 
stroke-linecap:round; stroke-linejoin:round;">
</g>
<g style="fill:#000000; fill-opacity:0.0; 
stroke:#000000; stroke-width:150000.000000; stroke-opacity:1; 
stroke-linecap:round; stroke-linejoin:round;">
<path d="M110000000 198007200
L110000000 200007200
" />
</g>
<g style="fill:#000000; fill-opacity:0.0; 
stroke:#000000; stroke-width:21200.000000; stroke-opacity:1; 
stroke-linecap:round; stroke-linejoin:round;">
</g>
<g style="fill:#000000; fill-opacity:0.0; 
stroke:#000000; stroke-width:150000.000000; stroke-opacity:1; 
stroke-linecap:round; stroke-linejoin:round;">
<path d="M160000000 198007200
L160000000 200007200
" />
</g>
<g style="fill:#000000; fill-opacity:0.0; 
stroke:#000000; stroke-width:21200.000000; stroke-opacity:1; 
stroke-linecap:round; stroke-linejoin:round;">
</g>
<g style="fill:#000000; fill-opacity:0.0; 
stroke:#000000; stroke-width:150000.000000; stroke-opacity:1; 
stroke-linecap:round; stroke-linejoin:round;">
<path d="M210000000 198007200
L210000000 200007200
" />
</g>
<g style="fill:#000000; fill-opacity:0.0; 
stroke:#000000; stroke-width:21200.000000; stroke-opacity:1; 
stroke-linecap:round; stroke-linejoin:round;">
</g>
<g style="fill:#000000; fill-opacity:0.0; 
stroke:#000000; stroke-width:150000.000000; stroke-opacity:1; 
stroke-linecap:round; stroke-linejoin:round;">
<path d="M260000000 198007200
L260000000 200007200
" />
</g>
<g style="fill:#000000; fill-opacity:0.0; 
stroke:#000000; stroke-width:21200.000000; stroke-opacity:1; 
stroke-linecap:round; stroke-linejoin:round;">
</g>
<g style="fill:#000000; fill-opacity:0.0; 
stroke:#000000; stroke-width:150000.000000; stroke-opacity:1; 
stroke-linecap:round; stroke-linejoin:round;">
<text x="35000000.000000" y="199657200.000000"
textLength="1388095.000000" font-size="1733333.000000" lengthAdjust="spacingAndGlyphs"
text-anchor="start" opacity="0">1</text>
<g class="stroked-text"><desc>1</desc>
<path d="M36065476 199595295
L35322619 199595295
" />
<path d="M35694047 199595295
L35694047 198295295
L35570238 198481009
L35446428 198604819
L35322619 198666723
" />
</g></g>
<g style="fill:#000000; fill-opacity:0.0; 
stroke:#000000; stroke-width:21200.000000; stroke-opacity:1; 
stroke-linecap:round; stroke-linejoin:round;">
</g>
<g style="fill:#000000; fill-opacity:0.0; 
stroke:#000000; stroke-width:150000.000000; stroke-opacity:1; 
stroke-linecap:round; stroke-linejoin:round;">
<text x="85000000.000000" y="199657200.000000"
textLength="1388095.000000" font-size="1733333.000000" lengthAdjust="spacingAndGlyphs"
text-anchor="start" opacity="0">2</text>
<g class="stroked-text"><desc>2</desc>
<path d="M85322619 198419104
L85384523 198357200
L85508333 198295295
L85817857 198295295
L85941666 198357200
L86003571 198419104
L86065476 198542914
L86065476 198666723
L86003571 198852438
L85260714 199595295
L86065476 199595295
" />
</g></g>
<g style="fill:#000000; fill-opacity:0.0; 
stroke:#000000; stroke-width:21200.000000; stroke-opacity:1; 
stroke-linecap:round; stroke-linejoin:round;">
</g>
<g style="fill:#000000; fill-opacity:0.0; 
stroke:#000000; stroke-width:150000.000000; stroke-opacity:1; 
stroke-linecap:round; stroke-linejoin:round;">
<text x="135000000.000000" y="199657200.000000"
textLength="1388095.000000" font-size="1733333.000000" lengthAdjust="spacingAndGlyphs"
text-anchor="start" opacity="0">3</text>
<g class="stroked-text"><desc>3</desc>
<path d="M135260714 198295295
L136065476 198295295
L135632142 198790533
L135817857 198790533
L135941666 198852438
L136003571 198914342
L136065476 199038152
L136065476 199347676
L136003571 199471485
L135941666 199533390
L135817857 199595295
L135446428 199595295
L135322619 199533390
L135260714 199471485
" />
</g></g>
<g style="fill:#000000; fill-opacity:0.0; 
stroke:#000000; stroke-width:21200.000000; stroke-opacity:1; 
stroke-linecap:round; stroke-linejoin:round;">
</g>
<g style="fill:#000000; fill-opacity:0.0; 
stroke:#000000; stroke-width:150000.000000; stroke-opacity:1; 
stroke-linecap:round; stroke-linejoin:round;">
<text x="185000000.000000" y="199657200.000000"
textLength="1388095.000000" font-size="1733333.000000" lengthAdjust="spacingAndGlyphs"
text-anchor="start" opacity="0">4</text>
<g class="stroked-text"><desc>4</desc>
<path d="M185941666 198728628
L185941666 199595295
" />
<path d="M185632142 198233390
L185322619 199161961
L186127380 199161961
" />
</g></g>
<g style="fill:#000000; fill-opacity:0.0; 
stroke:#000000; stroke-width:21200.000000; stroke-opacity:1; 
stroke-linecap:round; stroke-linejoin:round;">
</g>
<g style="fill:#000000; fill-opacity:0.0; 
stroke:#000000; stroke-width:150000.000000; stroke-opacity:1; 
stroke-linecap:round; stroke-linejoin:round;">
<text x="235000000.000000" y="199657200.000000"
textLength="1388095.000000" font-size="1733333.000000" lengthAdjust="spacingAndGlyphs"
text-anchor="start" opacity="0">5</text>
<g class="stroked-text"><desc>5</desc>
<path d="M236003571 198295295
L235384523 198295295
L235322619 198914342
L235384523 198852438
L235508333 198790533
L235817857 198790533
L235941666 198852438
L236003571 198914342
L236065476 199038152
L236065476 199347676
L236003571 199471485
L235941666 199533390
L235817857 199595295
L235508333 199595295
L235384523 199533390
L235322619 199471485
" />
</g></g>
<g style="fill:#000000; fill-opacity:0.0; 
stroke:#000000; stroke-width:21200.000000; stroke-opacity:1; 
stroke-linecap:round; stroke-linejoin:round;">
</g>
<g style="fill:#000000; fill-opacity:0.0; 
stroke:#000000; stroke-width:150000.000000; stroke-opacity:1; 
stroke-linecap:round; stroke-linejoin:round;">
<text x="285000000.000000" y="199657200.000000"
textLength="1388095.000000" font-size="1733333.000000" lengthAdjust="spacingAndGlyphs"
text-anchor="start" opacity="0">6</text>
<g class="stroked-text"><desc>6</desc>
<path d="M285941666 198295295
L285694047 198295295
L285570238 198357200
L285508333 198419104
L285384523 198604819
L285322619 198852438
L285322619 199347676
L285384523 199471485
L285446428 199533390
L285570238 199595295
L285817857 199595295
L285941666 199533390
L286003571 199471485
L286065476 199347676
L286065476 199038152
L286003571 198914342
L285941666 198852438
L285817857 198790533
L285570238 198790533
L285446428 198852438
L285384523 198914342
L285322619 199038152
" />
</g></g>
<g style="fill:#000000; fill-opacity:0.0; 
stroke:#000000; stroke-width:21200.000000; stroke-opacity:1; 
stroke-linecap:round; stroke-linejoin:round;">
</g>
<g style="fill:#000000; fill-opacity:0.0; 
stroke:#000000; stroke-width:150000.000000; stroke-opacity:1; 
stroke-linecap:round; stroke-linejoin:round;">
<path d="M10000000 60000000
L12000000 60000000
" />
</g>
<g style="fill:#000000; fill-opacity:0.0; 
stroke:#000000; stroke-width:21200.000000; stroke-opacity:1; 
stroke-linecap:round; stroke-linejoin:round;">
</g>
<g style="fill:#000000; fill-opacity:0.0; 
stroke:#000000; stroke-width:150000.000000; stroke-opacity:1; 
stroke-linecap:round; stroke-linejoin:round;">
<path d="M10000000 110000000
L12000000 110000000
" />
</g>
<g style="fill:#000000; fill-opacity:0.0; 
stroke:#000000; stroke-width:21200.000000; stroke-opacity:1; 
stroke-linecap:round; stroke-linejoin:round;">
</g>
<g style="fill:#000000; fill-opacity:0.0; 
stroke:#000000; stroke-width:150000.000000; stroke-opacity:1; 
stroke-linecap:round; stroke-linejoin:round;">
<path d="M10000000 160000000
L12000000 160000000
" />
</g>
<g style="fill:#000000; fill-opacity:0.0; 
stroke:#000000; stroke-width:21200.000000; stroke-opacity:1; 
stroke-linecap:round; stroke-linejoin:round;">
</g>
<g style="fill:#000000; fill-opacity:0.0; 
stroke:#000000; stroke-width:150000.000000; stroke-opacity:1; 
stroke-linecap:round; stroke-linejoin:round;">
<text x="11000000.000000" y="35650000.000000"
textLength="1264286.000000" font-size="1733333.000000" lengthAdjust="spacingAndGlyphs"
text-anchor="middle" opacity="0">A</text>
<g class="stroked-text"><desc>A</desc>
<path d="M10690476 35216666
L11309523 35216666
" />
<path d="M10566666 35588095
L11000000 34288095
L11433333 35588095
" />
</g></g>
<g style="fill:#000000; fill-opacity:0.0; 
stroke:#000000; stroke-width:21200.000000; stroke-opacity:1; 
stroke-linecap:round; stroke-linejoin:round;">
</g>
<g style="fill:#000000; fill-opacity:0.0; 
stroke:#000000; stroke-width:150000.000000; stroke-opacity:1; 
stroke-linecap:round; stroke-linejoin:round;">
<text x="11000000.000000" y="85650000.000000"
textLength="1450000.000000" font-size="1733333.000000" lengthAdjust="spacingAndGlyphs"
text-anchor="middle" opacity="0">B</text>
<g class="stroked-text"><desc>B</desc>
<path d="M11092857 84907142
L11278571 84969047
L11340476 85030952
L11402380 85154761
L11402380 85340476
L11340476 85464285
L11278571 85526190
L11154761 85588095
L10659523 85588095
L10659523 84288095
L11092857 84288095
L11216666 84350000
L11278571 84411904
L11340476 84535714
L11340476 84659523
L11278571 84783333
L11216666 84845238
L11092857 84907142
L10659523 84907142
" />
</g></g>
<g style="fill:#000000; fill-opacity:0.0; 
stroke:#000000; stroke-width:21200.000000; stroke-opacity:1; 
stroke-linecap:round; stroke-linejoin:round;">
</g>
<g style="fill:#000000; fill-opacity:0.0; 
stroke:#000000; stroke-width:150000.000000; stroke-opacity:1; 
stroke-linecap:round; stroke-linejoin:round;">
<text x="11000000.000000" y="135650000.000000"
textLength="1450000.000000" font-size="1733333.000000" lengthAdjust="spacingAndGlyphs"
text-anchor="middle" opacity="0">C</text>
<g class="stroked-text"><desc>C</desc>
<path d="M11402380 135464285
L11340476 135526190
L11154761 135588095
L11030952 135588095
L10845238 135526190
L10721428 135402380
L10659523 135278571
L10597619 135030952
L10597619 134845238
L10659523 134597619
L10721428 134473809
L10845238 134350000
L11030952 134288095
L11154761 134288095
L11340476 134350000
L11402380 134411904
" />
</g></g>
<g style="fill:#000000; fill-opacity:0.0; 
stroke:#000000; stroke-width:21200.000000; stroke-opacity:1; 
stroke-linecap:round; stroke-linejoin:round;">
</g>
<g style="fill:#000000; fill-opacity:0.0; 
stroke:#000000; stroke-width:150000.000000; stroke-opacity:1; 
stroke-linecap:round; stroke-linejoin:round;">
<text x="11000000.000000" y="185650000.000000"
textLength="1450000.000000" font-size="1733333.000000" lengthAdjust="spacingAndGlyphs"
text-anchor="middle" opacity="0">D</text>
<g class="stroked-text"><desc>D</desc>
<path d="M10659523 185588095
L10659523 184288095
L10969047 184288095
L11154761 184350000
L11278571 184473809
L11340476 184597619
L11402380 184845238
L11402380 185030952
L11340476 185278571
L11278571 185402380
L11154761 185526190
L10969047 185588095
L10659523 185588095
" />
</g></g>
<g style="fill:#000000; fill-opacity:0.0; 
stroke:#000000; stroke-width:21200.000000; stroke-opacity:1; 
stroke-linecap:round; stroke-linejoin:round;">
</g>
<g style="fill:#000000; fill-opacity:0.0; 
stroke:#000000; stroke-width:150000.000000; stroke-opacity:1; 
stroke-linecap:round; stroke-linejoin:round;">
<path d="M287002200 60000000
L285002200 60000000
" />
</g>
<g style="fill:#000000; fill-opacity:0.0; 
stroke:#000000; stroke-width:21200.000000; stroke-opacity:1; 
stroke-linecap:round; stroke-linejoin:round;">
</g>
<g style="fill:#000000; fill-opacity:0.0; 
stroke:#000000; stroke-width:150000.000000; stroke-opacity:1; 
stroke-linecap:round; stroke-linejoin:round;">
<path d="M287002200 110000000
L285002200 110000000
" />
</g>
<g style="fill:#000000; fill-opacity:0.0; 
stroke:#000000; stroke-width:21200.000000; stroke-opacity:1; 
stroke-linecap:round; stroke-linejoin:round;">
</g>
<g style="fill:#000000; fill-opacity:0.0; 
stroke:#000000; stroke-width:150000.000000; stroke-opacity:1; 
stroke-linecap:round; stroke-linejoin:round;">
<path d="M287002200 160000000
L285002200 160000000
" />
</g>
<g style="fill:#000000; fill-opacity:0.0; 
stroke:#000000; stroke-width:21200.000000; stroke-opacity:1; 
stroke-linecap:round; stroke-linejoin:round;">
</g>
<g style="fill:#000000; fill-opacity:0.0; 
stroke:#000000; stroke-width:150000.000000; stroke-opacity:1; 
stroke-linecap:round; stroke-linejoin:round;">
<text x="286002200.000000" y="35650000.000000"
textLength="1264286.000000" font-size="1733333.000000" lengthAdjust="spacingAndGlyphs"
text-anchor="middle" opacity="0">A</text>
<g class="stroked-text"><desc>A</desc>
<path d="M285692676 35216666
L286311723 35216666
" />
<path d="M285568866 35588095
L286002200 34288095
L286435533 35588095
" />
</g></g>
<g style="fill:#000000; fill-opacity:0.0; 
stroke:#000000; stroke-width:21200.000000; stroke-opacity:1; 
stroke-linecap:round; stroke-linejoin:round;">
</g>
<g style="fill:#000000; fill-opacity:0.0; 
stroke:#000000; stroke-width:150000.000000; stroke-opacity:1; 
stroke-linecap:round; stroke-linejoin:round;">
<text x="286002200.000000" y="85650000.000000"
textLength="1450000.000000" font-size="1733333.000000" lengthAdjust="spacingAndGlyphs"
text-anchor="middle" opacity="0">B</text>
<g class="stroked-text"><desc>B</desc>
<path d="M286095057 84907142
L286280771 84969047
L286342676 85030952
L286404580 85154761
L286404580 85340476
L286342676 85464285
L286280771 85526190
L286156961 85588095
L285661723 85588095
L285661723 84288095
L286095057 84288095
L286218866 84350000
L286280771 84411904
L286342676 84535714
L286342676 84659523
L286280771 84783333
L286218866 84845238
L286095057 84907142
L285661723 84907142
" />
</g></g>
<g style="fill:#000000; fill-opacity:0.0; 
stroke:#000000; stroke-width:21200.000000; stroke-opacity:1; 
stroke-linecap:round; stroke-linejoin:round;">
</g>
<g style="fill:#000000; fill-opacity:0.0; 
stroke:#000000; stroke-width:150000.000000; stroke-opacity:1; 
stroke-linecap:round; stroke-linejoin:round;">
<text x="286002200.000000" y="135650000.000000"
textLength="1450000.000000" font-size="1733333.000000" lengthAdjust="spacingAndGlyphs"
text-anchor="middle" opacity="0">C</text>
<g class="stroked-text"><desc>C</desc>
<path d="M286404580 135464285
L286342676 135526190
L286156961 135588095
L286033152 135588095
L285847438 135526190
L285723628 135402380
L285661723 135278571
L285599819 135030952
L285599819 134845238
L285661723 134597619
L285723628 134473809
L285847438 134350000
L286033152 134288095
L286156961 134288095
L286342676 134350000
L286404580 134411904
" />
</g></g>
<g style="fill:#000000; fill-opacity:0.0; 
stroke:#000000; stroke-width:21200.000000; stroke-opacity:1; 
stroke-linecap:round; stroke-linejoin:round;">
</g>
<g style="fill:#000000; fill-opacity:0.0; 
stroke:#000000; stroke-width:150000.000000; stroke-opacity:1; 
stroke-linecap:round; stroke-linejoin:round;">
<text x="286002200.000000" y="185650000.000000"
textLength="1450000.000000" font-size="1733333.000000" lengthAdjust="spacingAndGlyphs"
text-anchor="middle" opacity="0">D</text>
<g class="stroked-text"><desc>D</desc>
<path d="M285661723 185588095
L285661723 184288095
L285971247 184288095
L286156961 184350000
L286280771 184473809
L286342676 184597619
L286404580 184845238
L286404580 185030952
L286342676 185278571
L286280771 185402380
L286156961 185526190
L285971247 185588095
L285661723 185588095
" />
</g></g>
<g style="fill:#000000; fill-opacity:0.0; 
stroke:#000000; stroke-width:21200.000000; stroke-opacity:1; 
stroke-linecap:round; stroke-linejoin:round;">
</g>
<g style="fill:#000000; fill-opacity:0.0; 
stroke:#000000; stroke-width:150000.000000; stroke-opacity:1; 
stroke-linecap:round; stroke-linejoin:round;">
<text x="200002200.000000" y="193857200.000000"
textLength="7007143.000000" font-size="2000000.000000" lengthAdjust="spacingAndGlyphs"
text-anchor="start" opacity="0">Date: </text>
<g class="stroked-text"><desc>Date: </desc>
<path d="M200434342 193785771
L200434342 192285771
L200791485 192285771
L201005771 192357200
L201148628 192500057
L201220057 192642914
L201291485 192928628
L201291485 193142914
L201220057 193428628
L201148628 193571485
L201005771 193714342
L200791485 193785771
L200434342 193785771
" />
<path d="M202577200 193785771
L202577200 193000057
L202505771 192857200
L202362914 192785771
L202077200 192785771
L201934342 192857200
" />
<path d="M202577200 193714342
L202434342 193785771
L202077200 193785771
L201934342 193714342
L201862914 193571485
L201862914 193428628
L201934342 193285771
L202077200 193214342
L202434342 193214342
L202577200 193142914
" />
<path d="M203077200 192785771
L203648628 192785771
" />
<path d="M203291485 192285771
L203291485 193571485
L203362914 193714342
L203505771 193785771
L203648628 193785771
" />
<path d="M204720057 193714342
L204577200 193785771
L204291485 193785771
L204148628 193714342
L204077200 193571485
L204077200 193000057
L204148628 192857200
L204291485 192785771
L204577200 192785771
L204720057 192857200
L204791485 193000057
L204791485 193142914
L204077200 193285771
" />
<path d="M205434342 193642914
L205505771 193714342
L205434342 193785771
L205362914 193714342
L205434342 193642914
L205434342 193785771
" />
<path d="M205434342 192857200
L205505771 192928628
L205434342 193000057
L205362914 192928628
L205434342 192857200
L205434342 193000057
" />
</g></g>
<g style="fill:#000000; fill-opacity:0.0; 
stroke:#000000; stroke-width:21200.000000; stroke-opacity:1; 
stroke-linecap:round; stroke-linejoin:round;">
</g>
<g style="fill:#000000; fill-opacity:0.0; 
stroke:#000000; stroke-width:150000.000000; stroke-opacity:1; 
stroke-linecap:round; stroke-linejoin:round;">
<path d="M177002200 194507200
L285002200 194507200
" />
</g>
<g style="fill:#000000; fill-opacity:0.0; 
stroke:#000000; stroke-width:21200.000000; stroke-opacity:1; 
stroke-linecap:round; stroke-linejoin:round;">
</g>
<g style="fill:#000000; fill-opacity:0.0; 
stroke:#000000; stroke-width:150000.000000; stroke-opacity:1; 
stroke-linecap:round; stroke-linejoin:round;">
<text x="178002200.000000" y="196657200.000000"
textLength="31078571.000000" font-size="2000000.000000" lengthAdjust="spacingAndGlyphs"
text-anchor="start" opacity="0">KiCad E.D.A.  kicad (6.0.9)</text>
<g class="stroked-text"><desc>KiCad E.D.A.  kicad (6.0.9)</desc>
<path d="M178434342 196585771
L178434342 195085771
" />
<path d="M179291485 196585771
L178648628 195728628
" />
<path d="M179291485 195085771
L178434342 195942914
" />
<path d="M179934342 196585771
L179934342 195585771
" />
<path d="M179934342 195085771
L179862914 195157200
L179934342 195228628
L180005771 195157200
L179934342 195085771
L179934342 195228628
" />
<path d="M181505771 196442914
L181434342 196514342
L181220057 196585771
L181077200 196585771
L180862914 196514342
L180720057 196371485
L180648628 196228628
L180577200 195942914
L180577200 195728628
L180648628 195442914
L180720057 195300057
L180862914 195157200
L181077200 195085771
L181220057 195085771
L181434342 195157200
L181505771 195228628
" />
<path d="M182791485 196585771
L182791485 195800057
L182720057 195657200
L182577200 195585771
L182291485 195585771
L182148628 195657200
" />
<path d="M182791485 196514342
L182648628 196585771
L182291485 196585771
L182148628 196514342
L182077200 196371485
L182077200 196228628
L182148628 196085771
L182291485 196014342
L182648628 196014342
L182791485 195942914
" />
<path d="M184148628 196585771
L184148628 195085771
" />
<path d="M184148628 196514342
L184005771 196585771
L183720057 196585771
L183577200 196514342
L183505771 196442914
L183434342 196300057
L183434342 195871485
L183505771 195728628
L183577200 195657200
L183720057 195585771
L184005771 195585771
L184148628 195657200
" />
<path d="M186005771 195800057
L186505771 195800057
" />
<path d="M186720057 196585771
L186005771 196585771
L186005771 195085771
L186720057 195085771
" />
<path d="M187362914 196442914
L187434342 196514342
L187362914 196585771
L187291485 196514342
L187362914 196442914
L187362914 196585771
" />
<path d="M188077200 196585771
L188077200 195085771
L188434342 195085771
L188648628 195157200
L188791485 195300057
L188862914 195442914
L188934342 195728628
L188934342 195942914
L188862914 196228628
L188791485 196371485
L188648628 196514342
L188434342 196585771
L188077200 196585771
" />
<path d="M189577200 196442914
L189648628 196514342
L189577200 196585771
L189505771 196514342
L189577200 196442914
L189577200 196585771
" />
<path d="M190220057 196157200
L190934342 196157200
" />
<path d="M190077200 196585771
L190577200 195085771
L191077200 196585771
" />
<path d="M191577200 196442914
L191648628 196514342
L191577200 196585771
L191505771 196514342
L191577200 196442914
L191577200 196585771
" />
<path d="M194577200 196585771
L194577200 195085771
" />
<path d="M194720057 196014342
L195148628 196585771
" />
<path d="M195148628 195585771
L194577200 196157200
" />
<path d="M195791485 196585771
L195791485 195585771
" />
<path d="M195791485 195085771
L195720057 195157200
L195791485 195228628
L195862914 195157200
L195791485 195085771
L195791485 195228628
" />
<path d="M197148628 196514342
L197005771 196585771
L196720057 196585771
L196577200 196514342
L196505771 196442914
L196434342 196300057
L196434342 195871485
L196505771 195728628
L196577200 195657200
L196720057 195585771
L197005771 195585771
L197148628 195657200
" />
<path d="M198434342 196585771
L198434342 195800057
L198362914 195657200
L198220057 195585771
L197934342 195585771
L197791485 195657200
" />
<path d="M198434342 196514342
L198291485 196585771
L197934342 196585771
L197791485 196514342
L197720057 196371485
L197720057 196228628
L197791485 196085771
L197934342 196014342
L198291485 196014342
L198434342 195942914
" />
<path d="M199791485 196585771
L199791485 195085771
" />
<path d="M199791485 196514342
L199648628 196585771
L199362914 196585771
L199220057 196514342
L199148628 196442914
L199077200 196300057
L199077200 195871485
L199148628 195728628
L199220057 195657200
L199362914 195585771
L199648628 195585771
L199791485 195657200
" />
<path d="M202077200 197157200
L202005771 197085771
L201862914 196871485
L201791485 196728628
L201720057 196514342
L201648628 196157200
L201648628 195871485
L201720057 195514342
L201791485 195300057
L201862914 195157200
L202005771 194942914
L202077200 194871485
" />
<path d="M203291485 195085771
L203005771 195085771
L202862914 195157200
L202791485 195228628
L202648628 195442914
L202577200 195728628
L202577200 196300057
L202648628 196442914
L202720057 196514342
L202862914 196585771
L203148628 196585771
L203291485 196514342
L203362914 196442914
L203434342 196300057
L203434342 195942914
L203362914 195800057
L203291485 195728628
L203148628 195657200
L202862914 195657200
L202720057 195728628
L202648628 195800057
L202577200 195942914
" />
<path d="M204077200 196442914
L204148628 196514342
L204077200 196585771
L204005771 196514342
L204077200 196442914
L204077200 196585771
" />
<path d="M205077200 195085771
L205220057 195085771
L205362914 195157200
L205434342 195228628
L205505771 195371485
L205577200 195657200
L205577200 196014342
L205505771 196300057
L205434342 196442914
L205362914 196514342
L205220057 196585771
L205077200 196585771
L204934342 196514342
L204862914 196442914
L204791485 196300057
L204720057 196014342
L204720057 195657200
L204791485 195371485
L204862914 195228628
L204934342 195157200
L205077200 195085771
" />
<path d="M206220057 196442914
L206291485 196514342
L206220057 196585771
L206148628 196514342
L206220057 196442914
L206220057 196585771
" />
<path d="M207005771 196585771
L207291485 196585771
L207434342 196514342
L207505771 196442914
L207648628 196228628
L207720057 195942914
L207720057 195371485
L207648628 195228628
L207577200 195157200
L207434342 195085771
L207148628 195085771
L207005771 195157200
L206934342 195228628
L206862914 195371485
L206862914 195728628
L206934342 195871485
L207005771 195942914
L207148628 196014342
L207434342 196014342
L207577200 195942914
L207648628 195871485
L207720057 195728628
" />
<path d="M208220057 197157200
L208291485 197085771
L208434342 196871485
L208505771 196728628
L208577200 196514342
L208648628 196157200
L208648628 195871485
L208577200 195514342
L208505771 195300057
L208434342 195157200
L208291485 194942914
L208220057 194871485
" />
</g></g>
<g style="fill:#000000; fill-opacity:0.0; 
stroke:#000000; stroke-width:21200.000000; stroke-opacity:1; 
stroke-linecap:round; stroke-linejoin:round;">
</g>
<g style="fill:#000000; fill-opacity:0.0; 
stroke:#000000; stroke-width:150000.000000; stroke-opacity:1; 
stroke-linecap:round; stroke-linejoin:round;">
<path d="M177002200 191507200
L285002200 191507200
" />
</g>
<g style="fill:#000000; fill-opacity:0.0; 
stroke:#000000; stroke-width:21200.000000; stroke-opacity:1; 
stroke-linecap:round; stroke-linejoin:round;">
</g>
<g style="fill:#000000; fill-opacity:0.0; 
stroke:#000000; stroke-width:300000.000000; stroke-opacity:1; 
stroke-linecap:round; stroke-linejoin:round;">
<text x="263002200.000000" y="193857200.000000"
textLength="5935714.000000" font-size="2000000.000000" lengthAdjust="spacingAndGlyphs"
text-anchor="start" opacity="0">Rev: </text>
<g class="stroked-text"><desc>Rev: </desc>
<path d="M264411485 193785771
L263911485 193071485
" />
<path d="M263554342 193785771
L263554342 192285771
L264125771 192285771
L264268628 192357200
L264340057 192428628
L264411485 192571485
L264411485 192785771
L264340057 192928628
L264268628 193000057
L264125771 193071485
L263554342 193071485
" />
<path d="M265625771 193714342
L265482914 193785771
L265197200 193785771
L265054342 193714342
L264982914 193571485
L264982914 193000057
L265054342 192857200
L265197200 192785771
L265482914 192785771
L265625771 192857200
L265697200 193000057
L265697200 193142914
L264982914 193285771
" />
<path d="M266197200 192785771
L266554342 193785771
L266911485 192785771
" />
<path d="M267482914 193642914
L267554342 193714342
L267482914 193785771
L267411485 193714342
L267482914 193642914
L267482914 193785771
" />
<path d="M267482914 192857200
L267554342 192928628
L267482914 193000057
L267411485 192928628
L267482914 192857200
L267482914 193000057
" />
</g></g>
<g style="fill:#000000; fill-opacity:0.0; 
stroke:#000000; stroke-width:21200.000000; stroke-opacity:1; 
stroke-linecap:round; stroke-linejoin:round;">
</g>
<g style="fill:#000000; fill-opacity:0.0; 
stroke:#000000; stroke-width:150000.000000; stroke-opacity:1; 
stroke-linecap:round; stroke-linejoin:round;">
<text x="178002200.000000" y="193857200.000000"
textLength="9604286.000000" font-size="2000000.000000" lengthAdjust="spacingAndGlyphs"
text-anchor="start" opacity="0">Size: A4</text>
<g class="stroked-text"><desc>Size: A4</desc>
<path d="M178362914 193714342
L178577200 193785771
L178934342 193785771
L179077200 193714342
L179148628 193642914
L179220057 193500057
L179220057 193357200
L179148628 193214342
L179077200 193142914
L178934342 193071485
L178648628 193000057
L178505771 192928628
L178434342 192857200
L178362914 192714342
L178362914 192571485
L178434342 192428628
L178505771 192357200
L178648628 192285771
L179005771 192285771
L179220057 192357200
" />
<path d="M179862914 193785771
L179862914 192785771
" />
<path d="M179862914 192285771
L179791485 192357200
L179862914 192428628
L179934342 192357200
L179862914 192285771
L179862914 192428628
" />
<path d="M180434342 192785771
L181220057 192785771
L180434342 193785771
L181220057 193785771
" />
<path d="M182362914 193714342
L182220057 193785771
L181934342 193785771
L181791485 193714342
L181720057 193571485
L181720057 193000057
L181791485 192857200
L181934342 192785771
L182220057 192785771
L182362914 192857200
L182434342 193000057
L182434342 193142914
L181720057 193285771
" />
<path d="M183077200 193642914
L183148628 193714342
L183077200 193785771
L183005771 193714342
L183077200 193642914
L183077200 193785771
" />
<path d="M183077200 192857200
L183148628 192928628
L183077200 193000057
L183005771 192928628
L183077200 192857200
L183077200 193000057
" />
<path d="M184862914 193357200
L185577200 193357200
" />
<path d="M184720057 193785771
L185220057 192285771
L185720057 193785771
" />
<path d="M186862914 192785771
L186862914 193785771
" />
<path d="M186505771 192214342
L186148628 193285771
L187077200 193285771
" />
</g></g>
<g style="fill:#000000; fill-opacity:0.0; 
stroke:#000000; stroke-width:21200.000000; stroke-opacity:1; 
stroke-linecap:round; stroke-linejoin:round;">
</g>
<g style="fill:#000000; fill-opacity:0.0; 
stroke:#000000; stroke-width:150000.000000; stroke-opacity:1; 
stroke-linecap:round; stroke-linejoin:round;">
<text x="263002200.000000" y="196657200.000000"
textLength="8507143.000000" font-size="2000000.000000" lengthAdjust="spacingAndGlyphs"
text-anchor="start" opacity="0">Id: 1/1</text>
<g class="stroked-text"><desc>Id: 1/1</desc>
<path d="M263434342 196585771
L263434342 195085771
" />
<path d="M264791485 196585771
L264791485 195085771
" />
<path d="M264791485 196514342
L264648628 196585771
L264362914 196585771
L264220057 196514342
L264148628 196442914
L264077200 196300057
L264077200 195871485
L264148628 195728628
L264220057 195657200
L264362914 195585771
L264648628 195585771
L264791485 195657200
" />
<path d="M265505771 196442914
L265577200 196514342
L265505771 196585771
L265434342 196514342
L265505771 196442914
L265505771 196585771
" />
<path d="M265505771 195657200
L265577200 195728628
L265505771 195800057
L265434342 195728628
L265505771 195657200
L265505771 195800057
" />
<path d="M268148628 196585771
L267291485 196585771
" />
<path d="M267720057 196585771
L267720057 195085771
L267577200 195300057
L267434342 195442914
L267291485 195514342
" />
<path d="M269862914 195014342
L268577200 196942914
" />
<path d="M271148628 196585771
L270291485 196585771
" />
<path d="M270720057 196585771
L270720057 195085771
L270577200 195300057
L270434342 195442914
L270291485 195514342
" />
</g></g>
<g style="fill:#000000; fill-opacity:0.0; 
stroke:#000000; stroke-width:21200.000000; stroke-opacity:1; 
stroke-linecap:round; stroke-linejoin:round;">
</g>
<g style="fill:#000000; fill-opacity:0.0; 
stroke:#000000; stroke-width:150000.000000; stroke-opacity:1; 
stroke-linecap:round; stroke-linejoin:round;">
<path d="M177002200 187507200
L285002200 187507200
" />
</g>
<g style="fill:#000000; fill-opacity:0.0; 
stroke:#000000; stroke-width:21200.000000; stroke-opacity:1; 
stroke-linecap:round; stroke-linejoin:round;">
</g>
<g style="fill:#000000; fill-opacity:0.0; 
stroke:#000000; stroke-width:400000.000000; stroke-opacity:1; 
stroke-linecap:round; stroke-linejoin:round;">
<text x="178002200.000000" y="190307200.000000"
textLength="9409643.000000" font-size="2666666.000000" lengthAdjust="spacingAndGlyphs"
text-anchor="start" opacity="0">Title: </text>
<g class="stroked-text"><desc>Title: </desc>
<path d="M178714580 188211961
L179857438 188211961
" />
<path d="M179036009 190211961
L179286009 188211961
" />
<path d="M180274104 190211961
L180440771 188878628
" />
<path d="M180524104 188211961
L180416961 188307200
L180500295 188402438
L180607438 188307200
L180524104 188211961
L180500295 188402438
" />
<path d="M181107438 188878628
L181869342 188878628
" />
<path d="M181476485 188211961
L181262200 189926247
L181333628 190116723
L181512200 190211961
L181702676 190211961
" />
<path d="M182655057 190211961
L182476485 190116723
L182405057 189926247
L182619342 188211961
" />
<path d="M184190771 190116723
L183988390 190211961
L183607438 190211961
L183428866 190116723
L183357438 189926247
L183452676 189164342
L183571723 188973866
L183774104 188878628
L184155057 188878628
L184333628 188973866
L184405057 189164342
L184381247 189354819
L183405057 189545295
" />
<path d="M185155057 190021485
L185238390 190116723
L185131247 190211961
L185047914 190116723
L185155057 190021485
L185131247 190211961
" />
<path d="M185286009 188973866
L185369342 189069104
L185262200 189164342
L185178866 189069104
L185286009 188973866
L185262200 189164342
" />
</g></g>
<g style="fill:#000000; fill-opacity:0.0; 
stroke:#000000; stroke-width:21200.000000; stroke-opacity:1; 
stroke-linecap:round; stroke-linejoin:round;">
</g>
<g style="fill:#000000; fill-opacity:0.0; 
stroke:#000000; stroke-width:150000.000000; stroke-opacity:1; 
stroke-linecap:round; stroke-linejoin:round;">
<text x="178002200.000000" y="186457200.000000"
textLength="34591429.000000" font-size="2000000.000000" lengthAdjust="spacingAndGlyphs"
text-anchor="start" opacity="0">File: luz_inteligente.kicad_pcb</text>
<g class="stroked-text"><desc>File: luz_inteligente.kicad_pcb</desc>
<path d="M178934342 185600057
L178434342 185600057
" />
<path d="M178434342 186385771
L178434342 184885771
L179148628 184885771
" />
<path d="M179720057 186385771
L179720057 185385771
" />
<path d="M179720057 184885771
L179648628 184957200
L179720057 185028628
L179791485 184957200
L179720057 184885771
L179720057 185028628
" />
<path d="M180648628 186385771
L180505771 186314342
L180434342 186171485
L180434342 184885771
" />
<path d="M181791485 186314342
L181648628 186385771
L181362914 186385771
L181220057 186314342
L181148628 186171485
L181148628 185600057
L181220057 185457200
L181362914 185385771
L181648628 185385771
L181791485 185457200
L181862914 185600057
L181862914 185742914
L181148628 185885771
" />
<path d="M182505771 186242914
L182577200 186314342
L182505771 186385771
L182434342 186314342
L182505771 186242914
L182505771 186385771
" />
<path d="M182505771 185457200
L182577200 185528628
L182505771 185600057
L182434342 185528628
L182505771 185457200
L182505771 185600057
" />
<path d="M184577200 186385771
L184434342 186314342
L184362914 186171485
L184362914 184885771
" />
<path d="M185791485 185385771
L185791485 186385771
" />
<path d="M185148628 185385771
L185148628 186171485
L185220057 186314342
L185362914 186385771
L185577200 186385771
L185720057 186314342
L185791485 186242914
" />
<path d="M186362914 185385771
L187148628 185385771
L186362914 186385771
L187148628 186385771
" />
<path d="M187362914 186528628
L188505771 186528628
" />
<path d="M188862914 186385771
L188862914 185385771
" />
<path d="M188862914 184885771
L188791485 184957200
L188862914 185028628
L188934342 184957200
L188862914 184885771
L188862914 185028628
" />
<path d="M189577200 185385771
L189577200 186385771
" />
<path d="M189577200 185528628
L189648628 185457200
L189791485 185385771
L190005771 185385771
L190148628 185457200
L190220057 185600057
L190220057 186385771
" />
<path d="M190720057 185385771
L191291485 185385771
" />
<path d="M190934342 184885771
L190934342 186171485
L191005771 186314342
L191148628 186385771
L191291485 186385771
" />
<path d="M192362914 186314342
L192220057 186385771
L191934342 186385771
L191791485 186314342
L191720057 186171485
L191720057 185600057
L191791485 185457200
L191934342 185385771
L192220057 185385771
L192362914 185457200
L192434342 185600057
L192434342 185742914
L191720057 185885771
" />
<path d="M193291485 186385771
L193148628 186314342
L193077200 186171485
L193077200 184885771
" />
<path d="M193862914 186385771
L193862914 185385771
" />
<path d="M193862914 184885771
L193791485 184957200
L193862914 185028628
L193934342 184957200
L193862914 184885771
L193862914 185028628
" />
<path d="M195220057 185385771
L195220057 186600057
L195148628 186742914
L195077200 186814342
L194934342 186885771
L194720057 186885771
L194577200 186814342
" />
<path d="M195220057 186314342
L195077200 186385771
L194791485 186385771
L194648628 186314342
L194577200 186242914
L194505771 186100057
L194505771 185671485
L194577200 185528628
L194648628 185457200
L194791485 185385771
L195077200 185385771
L195220057 185457200
" />
<path d="M196505771 186314342
L196362914 186385771
L196077200 186385771
L195934342 186314342
L195862914 186171485
L195862914 185600057
L195934342 185457200
L196077200 185385771
L196362914 185385771
L196505771 185457200
L196577200 185600057
L196577200 185742914
L195862914 185885771
" />
<path d="M197220057 185385771
L197220057 186385771
" />
<path d="M197220057 185528628
L197291485 185457200
L197434342 185385771
L197648628 185385771
L197791485 185457200
L197862914 185600057
L197862914 186385771
" />
<path d="M198362914 185385771
L198934342 185385771
" />
<path d="M198577200 184885771
L198577200 186171485
L198648628 186314342
L198791485 186385771
L198934342 186385771
" />
<path d="M200005771 186314342
L199862914 186385771
L199577200 186385771
L199434342 186314342
L199362914 186171485
L199362914 185600057
L199434342 185457200
L199577200 185385771
L199862914 185385771
L200005771 185457200
L200077200 185600057
L200077200 185742914
L199362914 185885771
" />
<path d="M200720057 186242914
L200791485 186314342
L200720057 186385771
L200648628 186314342
L200720057 186242914
L200720057 186385771
" />
<path d="M201434342 186385771
L201434342 184885771
" />
<path d="M201577200 185814342
L202005771 186385771
" />
<path d="M202005771 185385771
L201434342 185957200
" />
<path d="M202648628 186385771
L202648628 185385771
" />
<path d="M202648628 184885771
L202577200 184957200
L202648628 185028628
L202720057 184957200
L202648628 184885771
L202648628 185028628
" />
<path d="M204005771 186314342
L203862914 186385771
L203577200 186385771
L203434342 186314342
L203362914 186242914
L203291485 186100057
L203291485 185671485
L203362914 185528628
L203434342 185457200
L203577200 185385771
L203862914 185385771
L204005771 185457200
" />
<path d="M205291485 186385771
L205291485 185600057
L205220057 185457200
L205077200 185385771
L204791485 185385771
L204648628 185457200
" />
<path d="M205291485 186314342
L205148628 186385771
L204791485 186385771
L204648628 186314342
L204577200 186171485
L204577200 186028628
L204648628 185885771
L204791485 185814342
L205148628 185814342
L205291485 185742914
" />
<path d="M206648628 186385771
L206648628 184885771
" />
<path d="M206648628 186314342
L206505771 186385771
L206220057 186385771
L206077200 186314342
L206005771 186242914
L205934342 186100057
L205934342 185671485
L206005771 185528628
L206077200 185457200
L206220057 185385771
L206505771 185385771
L206648628 185457200
" />
<path d="M207005771 186528628
L208148628 186528628
" />
<path d="M208505771 185385771
L208505771 186885771
" />
<path d="M208505771 185457200
L208648628 185385771
L208934342 185385771
L209077200 185457200
L209148628 185528628
L209220057 185671485
L209220057 186100057
L209148628 186242914
L209077200 186314342
L208934342 186385771
L208648628 186385771
L208505771 186314342
" />
<path d="M210505771 186314342
L210362914 186385771
L210077200 186385771
L209934342 186314342
L209862914 186242914
L209791485 186100057
L209791485 185671485
L209862914 185528628
L209934342 185457200
L210077200 185385771
L210362914 185385771
L210505771 185457200
" />
<path d="M211148628 186385771
L211148628 184885771
" />
<path d="M211148628 185457200
L211291485 185385771
L211577200 185385771
L211720057 185457200
L211791485 185528628
L211862914 185671485
L211862914 186100057
L211791485 186242914
L211720057 186314342
L211577200 186385771
L211291485 186385771
L211148628 186314342
" />
</g></g>
<g style="fill:#000000; fill-opacity:0.0; 
stroke:#000000; stroke-width:21200.000000; stroke-opacity:1; 
stroke-linecap:round; stroke-linejoin:round;">
</g>
<g style="fill:#000000; fill-opacity:0.0; 
stroke:#000000; stroke-width:150000.000000; stroke-opacity:1; 
stroke-linecap:round; stroke-linejoin:round;">
<path d="M177002200 181507200
L285002200 181507200
" />
</g>
<g style="fill:#000000; fill-opacity:0.0; 
stroke:#000000; stroke-width:21200.000000; stroke-opacity:1; 
stroke-linecap:round; stroke-linejoin:round;">
</g>
<g style="fill:#000000; fill-opacity:0.0; 
stroke:#000000; stroke-width:150000.000000; stroke-opacity:1; 
stroke-linecap:round; stroke-linejoin:round;">
<text x="178002200.000000" y="183757200.000000"
textLength="8221429.000000" font-size="2000000.000000" lengthAdjust="spacingAndGlyphs"
text-anchor="start" opacity="0">Sheet: </text>
<g class="stroked-text"><desc>Sheet: </desc>
<path d="M178362914 183614342
L178577200 183685771
L178934342 183685771
L179077200 183614342
L179148628 183542914
L179220057 183400057
L179220057 183257200
L179148628 183114342
L179077200 183042914
L178934342 182971485
L178648628 182900057
L178505771 182828628
L178434342 182757200
L178362914 182614342
L178362914 182471485
L178434342 182328628
L178505771 182257200
L178648628 182185771
L179005771 182185771
L179220057 182257200
" />
<path d="M179862914 183685771
L179862914 182185771
" />
<path d="M180505771 183685771
L180505771 182900057
L180434342 182757200
L180291485 182685771
L180077200 182685771
L179934342 182757200
L179862914 182828628
" />
<path d="M181791485 183614342
L181648628 183685771
L181362914 183685771
L181220057 183614342
L181148628 183471485
L181148628 182900057
L181220057 182757200
L181362914 182685771
L181648628 182685771
L181791485 182757200
L181862914 182900057
L181862914 183042914
L181148628 183185771
" />
<path d="M183077200 183614342
L182934342 183685771
L182648628 183685771
L182505771 183614342
L182434342 183471485
L182434342 182900057
L182505771 182757200
L182648628 182685771
L182934342 182685771
L183077200 182757200
L183148628 182900057
L183148628 183042914
L182434342 183185771
" />
<path d="M183577200 182685771
L184148628 182685771
" />
<path d="M183791485 182185771
L183791485 183471485
L183862914 183614342
L184005771 183685771
L184148628 183685771
" />
<path d="M184648628 183542914
L184720057 183614342
L184648628 183685771
L184577200 183614342
L184648628 183542914
L184648628 183685771
" />
<path d="M184648628 182757200
L184720057 182828628
L184648628 182900057
L184577200 182828628
L184648628 182757200
L184648628 182900057
" />
</g></g>
<g style="fill:#000000; fill-opacity:0.0; 
stroke:#000000; stroke-width:21200.000000; stroke-opacity:1; 
stroke-linecap:round; stroke-linejoin:round;">
</g>
<g style="fill:#000000; fill-opacity:0.0; 
stroke:#000000; stroke-width:300000.000000; stroke-opacity:1; 
stroke-linecap:round; stroke-linejoin:round;">
<text x="178002200.000000" y="180757200.000000"
textLength="150000.000000" font-size="2000000.000000" lengthAdjust="spacingAndGlyphs"
text-anchor="start" opacity="0"></text>
<g class="stroked-text"><desc></desc>
</g></g>
<g style="fill:#000000; fill-opacity:0.0; 
stroke:#000000; stroke-width:21200.000000; stroke-opacity:1; 
stroke-linecap:round; stroke-linejoin:round;">
</g>
<g style="fill:#000000; fill-opacity:0.0; 
stroke:#000000; stroke-width:150000.000000; stroke-opacity:1; 
stroke-linecap:round; stroke-linejoin:round;">
<text x="178002200.000000" y="177757200.000000"
textLength="300000.000000" font-size="2000000.000000" lengthAdjust="spacingAndGlyphs"
text-anchor="start" opacity="0"></text>
<g class="stroked-text"><desc></desc>
</g></g>
<g style="fill:#000000; fill-opacity:0.0; 
stroke:#000000; stroke-width:21200.000000; stroke-opacity:1; 
stroke-linecap:round; stroke-linejoin:round;">
</g>
<g style="fill:#000000; fill-opacity:0.0; 
stroke:#000000; stroke-width:150000.000000; stroke-opacity:1; 
stroke-linecap:round; stroke-linejoin:round;">
<text x="178002200.000000" y="174757200.000000"
textLength="150000.000000" font-size="2000000.000000" lengthAdjust="spacingAndGlyphs"
text-anchor="start" opacity="0"></text>
<g class="stroked-text"><desc></desc>
</g></g>
<g style="fill:#000000; fill-opacity:0.0; 
stroke:#000000; stroke-width:21200.000000; stroke-opacity:1; 
stroke-linecap:round; stroke-linejoin:round;">
</g>
<g style="fill:#000000; fill-opacity:0.0; 
stroke:#000000; stroke-width:150000.000000; stroke-opacity:1; 
stroke-linecap:round; stroke-linejoin:round;">
<text x="178002200.000000" y="171757200.000000"
textLength="150000.000000" font-size="2000000.000000" lengthAdjust="spacingAndGlyphs"
text-anchor="start" opacity="0"></text>
<g class="stroked-text"><desc></desc>
</g></g>
<g style="fill:#000000; fill-opacity:0.0; 
stroke:#000000; stroke-width:21200.000000; stroke-opacity:1; 
stroke-linecap:round; stroke-linejoin:round;">
</g>
<g style="fill:#000000; fill-opacity:0.0; 
stroke:#000000; stroke-width:150000.000000; stroke-opacity:1; 
stroke-linecap:round; stroke-linejoin:round;">
<text x="178002200.000000" y="168757200.000000"
textLength="150000.000000" font-size="2000000.000000" lengthAdjust="spacingAndGlyphs"
text-anchor="start" opacity="0"></text>
<g class="stroked-text"><desc></desc>
</g></g>
<g style="fill:#000000; fill-opacity:0.0; 
stroke:#000000; stroke-width:21200.000000; stroke-opacity:1; 
stroke-linecap:round; stroke-linejoin:round;">
</g>
<g style="fill:#000000; fill-opacity:0.0; 
stroke:#000000; stroke-width:150000.000000; stroke-opacity:1; 
stroke-linecap:round; stroke-linejoin:round;">
<path d="M197002200 191507200
L197002200 194507200
" />
</g>
<g style="fill:#000000; fill-opacity:0.0; 
stroke:#000000; stroke-width:21200.000000; stroke-opacity:1; 
stroke-linecap:round; stroke-linejoin:round;">
</g>
<g style="fill:#000000; fill-opacity:0.0; 
stroke:#000000; stroke-width:150000.000000; stroke-opacity:1; 
stroke-linecap:round; stroke-linejoin:round;">
<path d="M261002200 191507200
L261002200 198007200
" />
</g>
<g style="fill:#F2EDA1; fill-opacity:0.0; 
stroke:#F2EDA1; stroke-width:150000.000000; stroke-opacity:1; 
stroke-linecap:round; stroke-linejoin:round;">
<text x="76200000.000000" y="72650000.000000"
textLength="16483333.000000" font-size="1333333.000000" lengthAdjust="spacingAndGlyphs"
text-anchor="middle" opacity="0">KY-037-connectors1</text>
<g class="stroked-text"><desc>KY-037-connectors1</desc>
<path d="M68271428 72602380
L68271428 71602380
" />
<path d="M68842857 72602380
L68414285 72030952
" />
<path d="M68842857 71602380
L68271428 72173809
" />
<path d="M69461904 72126190
L69461904 72602380
" />
<path d="M69128571 71602380
L69461904 72126190
L69795238 71602380
" />
<path d="M70128571 72221428
L70890476 72221428
" />
<path d="M71557142 71602380
L71652380 71602380
L71747619 71650000
L71795238 71697619
L71842857 71792857
L71890476 71983333
L71890476 72221428
L71842857 72411904
L71795238 72507142
L71747619 72554761
L71652380 72602380
L71557142 72602380
L71461904 72554761
L71414285 72507142
L71366666 72411904
L71319047 72221428
L71319047 71983333
L71366666 71792857
L71414285 71697619
L71461904 71650000
L71557142 71602380
" />
<path d="M72223809 71602380
L72842857 71602380
L72509523 71983333
L72652380 71983333
L72747619 72030952
L72795238 72078571
L72842857 72173809
L72842857 72411904
L72795238 72507142
L72747619 72554761
L72652380 72602380
L72366666 72602380
L72271428 72554761
L72223809 72507142
" />
<path d="M73176190 71602380
L73842857 71602380
L73414285 72602380
" />
<path d="M74223809 72221428
L74985714 72221428
" />
<path d="M75890476 72554761
L75795238 72602380
L75604761 72602380
L75509523 72554761
L75461904 72507142
L75414285 72411904
L75414285 72126190
L75461904 72030952
L75509523 71983333
L75604761 71935714
L75795238 71935714
L75890476 71983333
" />
<path d="M76461904 72602380
L76366666 72554761
L76319047 72507142
L76271428 72411904
L76271428 72126190
L76319047 72030952
L76366666 71983333
L76461904 71935714
L76604761 71935714
L76700000 71983333
L76747619 72030952
L76795238 72126190
L76795238 72411904
L76747619 72507142
L76700000 72554761
L76604761 72602380
L76461904 72602380
" />
<path d="M77223809 71935714
L77223809 72602380
" />
<path d="M77223809 72030952
L77271428 71983333
L77366666 71935714
L77509523 71935714
L77604761 71983333
L77652380 72078571
L77652380 72602380
" />
<path d="M78128571 71935714
L78128571 72602380
" />
<path d="M78128571 72030952
L78176190 71983333
L78271428 71935714
L78414285 71935714
L78509523 71983333
L78557142 72078571
L78557142 72602380
" />
<path d="M79414285 72554761
L79319047 72602380
L79128571 72602380
L79033333 72554761
L78985714 72459523
L78985714 72078571
L79033333 71983333
L79128571 71935714
L79319047 71935714
L79414285 71983333
L79461904 72078571
L79461904 72173809
L78985714 72269047
" />
<path d="M80319047 72554761
L80223809 72602380
L80033333 72602380
L79938095 72554761
L79890476 72507142
L79842857 72411904
L79842857 72126190
L79890476 72030952
L79938095 71983333
L80033333 71935714
L80223809 71935714
L80319047 71983333
" />
<path d="M80604761 71935714
L80985714 71935714
" />
<path d="M80747619 71602380
L80747619 72459523
L80795238 72554761
L80890476 72602380
L80985714 72602380
" />
<path d="M81461904 72602380
L81366666 72554761
L81319047 72507142
L81271428 72411904
L81271428 72126190
L81319047 72030952
L81366666 71983333
L81461904 71935714
L81604761 71935714
L81700000 71983333
L81747619 72030952
L81795238 72126190
L81795238 72411904
L81747619 72507142
L81700000 72554761
L81604761 72602380
L81461904 72602380
" />
<path d="M82223809 72602380
L82223809 71935714
" />
<path d="M82223809 72126190
L82271428 72030952
L82319047 71983333
L82414285 71935714
L82509523 71935714
" />
<path d="M82795238 72554761
L82890476 72602380
L83080952 72602380
L83176190 72554761
L83223809 72459523
L83223809 72411904
L83176190 72316666
L83080952 72269047
L82938095 72269047
L82842857 72221428
L82795238 72126190
L82795238 72078571
L82842857 71983333
L82938095 71935714
L83080952 71935714
L83176190 71983333
" />
<path d="M84176190 72602380
L83604761 72602380
" />
<path d="M83890476 72602380
L83890476 71602380
L83795238 71745238
L83700000 71840476
L83604761 71888095
" />
</g><text x="73620000.000000" y="26980000.000000"
textLength="1909286.000000" font-size="1333333.000000" lengthAdjust="spacingAndGlyphs"
text-anchor="middle" opacity="0">J1</text>
<g class="stroked-text"><desc>J1</desc>
<path d="M73286666 25932380
L73286666 26646666
L73239047 26789523
L73143809 26884761
L73000952 26932380
L72905714 26932380
" />
<path d="M74286666 26932380
L73715238 26932380
" />
<path d="M74000952 26932380
L74000952 25932380
L73905714 26075238
L73810476 26170476
L73715238 26218095
" />
</g><text x="80120000.000000" y="31230000.000000"
textLength="2052143.000000" font-size="2000000.000000" lengthAdjust="spacingAndGlyphs"
text-anchor="middle" opacity="0">+</text>
<g class="stroked-text"><desc>+</desc>
<path d="M79548571 30587142
L80691428 30587142
" />
<path d="M80120000 31158571
L80120000 30015714
" />
</g><text x="67120000.000000" y="31230000.000000"
textLength="2052143.000000" font-size="2000000.000000" lengthAdjust="spacingAndGlyphs"
text-anchor="middle" opacity="0">-</text>
<g class="stroked-text"><desc>-</desc>
<path d="M66548571 30587142
L67691428 30587142
" />
</g><g transform="rotate(-90.000000 105170000.000000 43180000.000000)">
<text x="105170000.000000" y="43680000.000000"
textLength="18671190.000000" font-size="1333333.000000" lengthAdjust="spacingAndGlyphs"
text-anchor="middle" opacity="0">HC-SR501-connectors1</text>
</g>
<g class="stroked-text"><desc>HC-SR501-connectors1</desc>
<path d="M105622380 52180000
L104622380 52180000
" />
<path d="M105098571 52180000
L105098571 51608571
" />
<path d="M105622380 51608571
L104622380 51608571
" />
<path d="M105527142 50560952
L105574761 50608571
L105622380 50751428
L105622380 50846666
L105574761 50989523
L105479523 51084761
L105384285 51132380
L105193809 51180000
L105050952 51180000
L104860476 51132380
L104765238 51084761
L104670000 50989523
L104622380 50846666
L104622380 50751428
L104670000 50608571
L104717619 50560952
" />
<path d="M105241428 50132380
L105241428 49370476
" />
<path d="M105574761 48941904
L105622380 48799047
L105622380 48560952
L105574761 48465714
L105527142 48418095
L105431904 48370476
L105336666 48370476
L105241428 48418095
L105193809 48465714
L105146190 48560952
L105098571 48751428
L105050952 48846666
L105003333 48894285
L104908095 48941904
L104812857 48941904
L104717619 48894285
L104670000 48846666
L104622380 48751428
L104622380 48513333
L104670000 48370476
" />
<path d="M105622380 47370476
L105146190 47703809
" />
<path d="M105622380 47941904
L104622380 47941904
L104622380 47560952
L104670000 47465714
L104717619 47418095
L104812857 47370476
L104955714 47370476
L105050952 47418095
L105098571 47465714
L105146190 47560952
L105146190 47941904
" />
<path d="M104622380 46465714
L104622380 46941904
L105098571 46989523
L105050952 46941904
L105003333 46846666
L105003333 46608571
L105050952 46513333
L105098571 46465714
L105193809 46418095
L105431904 46418095
L105527142 46465714
L105574761 46513333
L105622380 46608571
L105622380 46846666
L105574761 46941904
L105527142 46989523
" />
<path d="M104622380 45799047
L104622380 45703809
L104670000 45608571
L104717619 45560952
L104812857 45513333
L105003333 45465714
L105241428 45465714
L105431904 45513333
L105527142 45560952
L105574761 45608571
L105622380 45703809
L105622380 45799047
L105574761 45894285
L105527142 45941904
L105431904 45989523
L105241428 46037142
L105003333 46037142
L104812857 45989523
L104717619 45941904
L104670000 45894285
L104622380 45799047
" />
<path d="M105622380 44513333
L105622380 45084761
" />
<path d="M105622380 44799047
L104622380 44799047
L104765238 44894285
L104860476 44989523
L104908095 45084761
" />
<path d="M105241428 44084761
L105241428 43322857
" />
<path d="M105574761 42418095
L105622380 42513333
L105622380 42703809
L105574761 42799047
L105527142 42846666
L105431904 42894285
L105146190 42894285
L105050952 42846666
L105003333 42799047
L104955714 42703809
L104955714 42513333
L105003333 42418095
" />
<path d="M105622380 41846666
L105574761 41941904
L105527142 41989523
L105431904 42037142
L105146190 42037142
L105050952 41989523
L105003333 41941904
L104955714 41846666
L104955714 41703809
L105003333 41608571
L105050952 41560952
L105146190 41513333
L105431904 41513333
L105527142 41560952
L105574761 41608571
L105622380 41703809
L105622380 41846666
" />
<path d="M104955714 41084761
L105622380 41084761
" />
<path d="M105050952 41084761
L105003333 41037142
L104955714 40941904
L104955714 40799047
L105003333 40703809
L105098571 40656190
L105622380 40656190
" />
<path d="M104955714 40180000
L105622380 40180000
" />
<path d="M105050952 40180000
L105003333 40132380
L104955714 40037142
L104955714 39894285
L105003333 39799047
L105098571 39751428
L105622380 39751428
" />
<path d="M105574761 38894285
L105622380 38989523
L105622380 39180000
L105574761 39275238
L105479523 39322857
L105098571 39322857
L105003333 39275238
L104955714 39180000
L104955714 38989523
L105003333 38894285
L105098571 38846666
L105193809 38846666
L105289047 39322857
" />
<path d="M105574761 37989523
L105622380 38084761
L105622380 38275238
L105574761 38370476
L105527142 38418095
L105431904 38465714
L105146190 38465714
L105050952 38418095
L105003333 38370476
L104955714 38275238
L104955714 38084761
L105003333 37989523
" />
<path d="M104955714 37703809
L104955714 37322857
" />
<path d="M104622380 37560952
L105479523 37560952
L105574761 37513333
L105622380 37418095
L105622380 37322857
" />
<path d="M105622380 36846666
L105574761 36941904
L105527142 36989523
L105431904 37037142
L105146190 37037142
L105050952 36989523
L105003333 36941904
L104955714 36846666
L104955714 36703809
L105003333 36608571
L105050952 36560952
L105146190 36513333
L105431904 36513333
L105527142 36560952
L105574761 36608571
L105622380 36703809
L105622380 36846666
" />
<path d="M105622380 36084761
L104955714 36084761
" />
<path d="M105146190 36084761
L105050952 36037142
L105003333 35989523
L104955714 35894285
L104955714 35799047
" />
<path d="M105574761 35513333
L105622380 35418095
L105622380 35227619
L105574761 35132380
L105479523 35084761
L105431904 35084761
L105336666 35132380
L105289047 35227619
L105289047 35370476
L105241428 35465714
L105146190 35513333
L105098571 35513333
L105003333 35465714
L104955714 35370476
L104955714 35227619
L105003333 35132380
" />
<path d="M105622380 34132380
L105622380 34703809
" />
<path d="M105622380 34418095
L104622380 34418095
L104765238 34513333
L104860476 34608571
L104908095 34703809
" />
</g><g transform="rotate(-90.000000 62420000.000000 45680000.000000)">
<text x="62420000.000000" y="46180000.000000"
textLength="10242619.000000" font-size="1333333.000000" lengthAdjust="spacingAndGlyphs"
text-anchor="middle" opacity="0">Alimentao1</text>
</g>
<g class="stroked-text"><desc>Alimentao1</desc>
<path d="M62586666 50513333
L62586666 50037142
" />
<path d="M62872380 50608571
L61872380 50275238
L62872380 49941904
" />
<path d="M62872380 49465714
L62824761 49560952
L62729523 49608571
L61872380 49608571
" />
<path d="M62872380 49084761
L62205714 49084761
" />
<path d="M61872380 49084761
L61920000 49132380
L61967619 49084761
L61920000 49037142
L61872380 49084761
L61967619 49084761
" />
<path d="M62872380 48608571
L62205714 48608571
" />
<path d="M62300952 48608571
L62253333 48560952
L62205714 48465714
L62205714 48322857
L62253333 48227619
L62348571 48180000
L62872380 48180000
" />
<path d="M62348571 48180000
L62253333 48132380
L62205714 48037142
L62205714 47894285
L62253333 47799047
L62348571 47751428
L62872380 47751428
" />
<path d="M62824761 46894285
L62872380 46989523
L62872380 47180000
L62824761 47275238
L62729523 47322857
L62348571 47322857
L62253333 47275238
L62205714 47180000
L62205714 46989523
L62253333 46894285
L62348571 46846666
L62443809 46846666
L62539047 47322857
" />
<path d="M62205714 46418095
L62872380 46418095
" />
<path d="M62300952 46418095
L62253333 46370476
L62205714 46275238
L62205714 46132380
L62253333 46037142
L62348571 45989523
L62872380 45989523
" />
<path d="M62205714 45656190
L62205714 45275238
" />
<path d="M61872380 45513333
L62729523 45513333
L62824761 45465714
L62872380 45370476
L62872380 45275238
" />
<path d="M62872380 44513333
L62348571 44513333
L62253333 44560952
L62205714 44656190
L62205714 44846666
L62253333 44941904
" />
<path d="M62824761 44513333
L62872380 44608571
L62872380 44846666
L62824761 44941904
L62729523 44989523
L62634285 44989523
L62539047 44941904
L62491428 44846666
L62491428 44608571
L62443809 44513333
" />
<path d="M62824761 43608571
L62872380 43703809
L62872380 43894285
L62824761 43989523
L62777142 44037142
L62681904 44084761
L62396190 44084761
L62300952 44037142
L62253333 43989523
L62205714 43894285
L62205714 43703809
L62253333 43608571
" />
<path d="M62920000 43799047
L62967619 43703809
L63062857 43656190
L63158095 43703809
L63205714 43799047
L63205714 43941904
" />
<path d="M62872380 42751428
L62348571 42751428
L62253333 42799047
L62205714 42894285
L62205714 43084761
L62253333 43180000
" />
<path d="M62824761 42751428
L62872380 42846666
L62872380 43084761
L62824761 43180000
L62729523 43227619
L62634285 43227619
L62539047 43180000
L62491428 43084761
L62491428 42846666
L62443809 42751428
" />
<path d="M61967619 43227619
L61920000 43180000
L61872380 43084761
L61967619 42894285
L61920000 42799047
L61872380 42751428
" />
<path d="M62872380 42132380
L62824761 42227619
L62777142 42275238
L62681904 42322857
L62396190 42322857
L62300952 42275238
L62253333 42227619
L62205714 42132380
L62205714 41989523
L62253333 41894285
L62300952 41846666
L62396190 41799047
L62681904 41799047
L62777142 41846666
L62824761 41894285
L62872380 41989523
L62872380 42132380
" />
<path d="M62872380 40846666
L62872380 41418095
" />
<path d="M62872380 41132380
L61872380 41132380
L62015238 41227619
L62110476 41322857
L62158095 41418095
" />
</g><g transform="rotate(-90.000000 58420000.000000 52180000.000000)">
<text x="58420000.000000" y="52930000.000000"
textLength="2052143.000000" font-size="2000000.000000" lengthAdjust="spacingAndGlyphs"
text-anchor="middle" opacity="0">+</text>
</g>
<g class="stroked-text"><desc>+</desc>
<path d="M58527142 52751428
L58527142 51608571
" />
<path d="M59098571 52180000
L57955714 52180000
" />
</g><g transform="rotate(-90.000000 58420000.000000 39180000.000000)">
<text x="58420000.000000" y="39930000.000000"
textLength="2052143.000000" font-size="2000000.000000" lengthAdjust="spacingAndGlyphs"
text-anchor="middle" opacity="0">-</text>
</g>
<g class="stroked-text"><desc>-</desc>
<path d="M58527142 39751428
L58527142 38608571
" />
</g><text x="73660000.000000" y="41010000.000000"
textLength="13766429.000000" font-size="1333333.000000" lengthAdjust="spacingAndGlyphs"
text-anchor="middle" opacity="0">Microcontrolador1</text>
<g class="stroked-text"><desc>Microcontrolador1</desc>
<path d="M67112380 40962380
L67112380 39962380
L67445714 40676666
L67779047 39962380
L67779047 40962380
" />
<path d="M68255238 40962380
L68255238 40295714
" />
<path d="M68255238 39962380
L68207619 40010000
L68255238 40057619
L68302857 40010000
L68255238 39962380
L68255238 40057619
" />
<path d="M69160000 40914761
L69064761 40962380
L68874285 40962380
L68779047 40914761
L68731428 40867142
L68683809 40771904
L68683809 40486190
L68731428 40390952
L68779047 40343333
L68874285 40295714
L69064761 40295714
L69160000 40343333
" />
<path d="M69588571 40962380
L69588571 40295714
" />
<path d="M69588571 40486190
L69636190 40390952
L69683809 40343333
L69779047 40295714
L69874285 40295714
" />
<path d="M70350476 40962380
L70255238 40914761
L70207619 40867142
L70160000 40771904
L70160000 40486190
L70207619 40390952
L70255238 40343333
L70350476 40295714
L70493333 40295714
L70588571 40343333
L70636190 40390952
L70683809 40486190
L70683809 40771904
L70636190 40867142
L70588571 40914761
L70493333 40962380
L70350476 40962380
" />
<path d="M71540952 40914761
L71445714 40962380
L71255238 40962380
L71160000 40914761
L71112380 40867142
L71064761 40771904
L71064761 40486190
L71112380 40390952
L71160000 40343333
L71255238 40295714
L71445714 40295714
L71540952 40343333
" />
<path d="M72112380 40962380
L72017142 40914761
L71969523 40867142
L71921904 40771904
L71921904 40486190
L71969523 40390952
L72017142 40343333
L72112380 40295714
L72255238 40295714
L72350476 40343333
L72398095 40390952
L72445714 40486190
L72445714 40771904
L72398095 40867142
L72350476 40914761
L72255238 40962380
L72112380 40962380
" />
<path d="M72874285 40295714
L72874285 40962380
" />
<path d="M72874285 40390952
L72921904 40343333
L73017142 40295714
L73160000 40295714
L73255238 40343333
L73302857 40438571
L73302857 40962380
" />
<path d="M73636190 40295714
L74017142 40295714
" />
<path d="M73779047 39962380
L73779047 40819523
L73826666 40914761
L73921904 40962380
L74017142 40962380
" />
<path d="M74350476 40962380
L74350476 40295714
" />
<path d="M74350476 40486190
L74398095 40390952
L74445714 40343333
L74540952 40295714
L74636190 40295714
" />
<path d="M75112380 40962380
L75017142 40914761
L74969523 40867142
L74921904 40771904
L74921904 40486190
L74969523 40390952
L75017142 40343333
L75112380 40295714
L75255238 40295714
L75350476 40343333
L75398095 40390952
L75445714 40486190
L75445714 40771904
L75398095 40867142
L75350476 40914761
L75255238 40962380
L75112380 40962380
" />
<path d="M76017142 40962380
L75921904 40914761
L75874285 40819523
L75874285 39962380
" />
<path d="M76826666 40962380
L76826666 40438571
L76779047 40343333
L76683809 40295714
L76493333 40295714
L76398095 40343333
" />
<path d="M76826666 40914761
L76731428 40962380
L76493333 40962380
L76398095 40914761
L76350476 40819523
L76350476 40724285
L76398095 40629047
L76493333 40581428
L76731428 40581428
L76826666 40533809
" />
<path d="M77731428 40962380
L77731428 39962380
" />
<path d="M77731428 40914761
L77636190 40962380
L77445714 40962380
L77350476 40914761
L77302857 40867142
L77255238 40771904
L77255238 40486190
L77302857 40390952
L77350476 40343333
L77445714 40295714
L77636190 40295714
L77731428 40343333
" />
<path d="M78350476 40962380
L78255238 40914761
L78207619 40867142
L78160000 40771904
L78160000 40486190
L78207619 40390952
L78255238 40343333
L78350476 40295714
L78493333 40295714
L78588571 40343333
L78636190 40390952
L78683809 40486190
L78683809 40771904
L78636190 40867142
L78588571 40914761
L78493333 40962380
L78350476 40962380
" />
<path d="M79112380 40962380
L79112380 40295714
" />
<path d="M79112380 40486190
L79160000 40390952
L79207619 40343333
L79302857 40295714
L79398095 40295714
" />
<path d="M80255238 40962380
L79683809 40962380
" />
<path d="M79969523 40962380
L79969523 39962380
L79874285 40105238
L79779047 40200476
L79683809 40248095
" />
</g></g>
<g style="fill:#F2EDA1; fill-opacity:0.0; 
stroke:#F2EDA1; stroke-width:120000.000000; stroke-opacity:1; 
stroke-linecap:round; stroke-linejoin:round;">
<path d="M69500000.000000 66540000.000000 A1110000.000000 1110000.000000 0.0 0 0 69500000.000000 68760000.000000" />
<path d="M82900000.000000 68760000.000000 A1110000.000000 1110000.000000 0.0 0 0 82900000.000000 66540000.000000" />
<path d="M70340000 66540000
L69500000 66540000
" />
<path d="M82060000 70960000
L82060000 68760000
" />
<path d="M82060000 66540000
L82060000 61740000
" />
<path d="M82060000 61740000
L70340000 61740000
" />
<path d="M70340000 70960000
L70340000 68760000
" />
<path d="M70340000 66540000
L70340000 61740000
" />
<path d="M70340000 68760000
L69500000 68760000
" />
<path d="M82900000 66540000
L82060000 66540000
" />
<path d="M82900000 68760000
L82060000 68760000
" />
<path d="M82060000 70960000
L70340000 70960000
" />
<path d="M68410000 29070000
L68410000 31890000
" />
<path d="M68410000 31890000
L70110000 33190000
" />
<path d="M68410000 29070000
L70110000 27770000
" />
<path d="M70110000 33190000
L78830000 33190000
" />
<path d="M70110000 27770000
L78830000 27770000
" />
<path d="M78830000 27770000
L78830000 33190000
" />
<path d="M99560000.000000 49880000.000000 A1110000.000000 1110000.000000 0.0 0 0 101780000.000000 49880000.000000" />
<path d="M101780000.000000 36480000.000000 A1110000.000000 1110000.000000 0.0 0 0 99560000.000000 36480000.000000" />
<path d="M99560000 49040000
L99560000 49880000
" />
<path d="M103980000 37320000
L101780000 37320000
" />
<path d="M99560000 37320000
L94760000 37320000
" />
<path d="M94760000 37320000
L94760000 49040000
" />
<path d="M103980000 49040000
L101780000 49040000
" />
<path d="M99560000 49040000
L94760000 49040000
" />
<path d="M101780000 49040000
L101780000 49880000
" />
<path d="M99560000 36480000
L99560000 37320000
" />
<path d="M101780000 36480000
L101780000 37320000
" />
<path d="M103980000 37320000
L103980000 49040000
" />
<path d="M59830000 40470000
L57010000 40470000
" />
<path d="M57010000 40470000
L55710000 42170000
" />
<path d="M59830000 40470000
L61130000 42170000
" />
<path d="M55710000 42170000
L55710000 50890000
" />
<path d="M61130000 42170000
L61130000 50890000
" />
<path d="M61130000 50890000
L55710000 50890000
" />
<path d="M71525000 46940000
L71050000 46940000
" />
<path d="M76270000 41720000
L76270000 42195000
" />
<path d="M75795000 41720000
L76270000 41720000
" />
<path d="M75795000 46940000
L76270000 46940000
" />
<path d="M71050000 46940000
L71050000 46465000
" />
<path d="M71525000 41720000
L71050000 41720000
" />
<path d="M76270000 46940000
L76270000 46465000
" />
<g >
</g>
<g >
</g>
<g >
</g>
<g >
</g>
<g >
</g>
<g >
</g>
<g >
</g>
<g >
</g>
</g>
<g style="fill:#000000; fill-opacity:0.0; 
stroke:#000000; stroke-width:120000.000000; stroke-opacity:1; 
stroke-linecap:round; stroke-linejoin:round;">
<g >
</g>
<g >
</g>
<g >
</g>
<g >
</g>
<g >
</g>
<g >
</g>
<g >
</g>
<g >
</g>
</g> 
</svg>
