<?xml version="1.0" standalone="no"?>
 <!DOCTYPE svg PUBLIC "-//W3C//DTD SVG 1.1//EN" 
 "http://www.w3.org/Graphics/SVG/1.1/DTD/svg11.dtd"> 
<svg
  xmlns:svg="http://www.w3.org/2000/svg"
  xmlns="http://www.w3.org/2000/svg"
  xmlns:xlink="http://www.w3.org/1999/xlink"
  version="1.1"
  width="29.700220cm" height="21.000720cm" viewBox="0 0 297002200 210007200">
<title>SVG Picture created as luz_inteligente-F_Fab.svg date 2022/11/29 22:06:45 </title>
  <desc>Picture generated by PCBNEW </desc>
<g style="fill:#000000; fill-opacity:1.000000;stroke:#000000; stroke-opacity:1.000000;
stroke-linecap:round; stroke-linejoin:round;"
 transform="translate(0 0) scale(1 1)">
</g>
<g style="fill:#000000; fill-opacity:0.0; 
stroke:#000000; stroke-width:0.000000; stroke-opacity:1; 
stroke-linecap:round; stroke-linejoin:round;">
</g>
<g style="fill:#000000; fill-opacity:0.0; 
stroke:#000000; stroke-width:21200.000000; stroke-opacity:1; 
stroke-linecap:round; stroke-linejoin:round;">
</g>
<g style="fill:#000000; fill-opacity:0.0; 
stroke:#000000; stroke-width:150000.000000; stroke-opacity:1; 
stroke-linecap:round; stroke-linejoin:round;">
<rect x="177002200.000000" y="166007200.000000" width="108000000.000000" height="32000000.000000" rx="0.000000" />
</g>
<g style="fill:#000000; fill-opacity:0.0; 
stroke:#000000; stroke-width:21200.000000; stroke-opacity:1; 
stroke-linecap:round; stroke-linejoin:round;">
</g>
<g style="fill:#000000; fill-opacity:0.0; 
stroke:#000000; stroke-width:150000.000000; stroke-opacity:1; 
stroke-linecap:round; stroke-linejoin:round;">
<rect x="10000000.000000" y="10000000.000000" width="277002200.000000" height="190007200.000000" rx="0.000000" />
</g>
<g style="fill:#000000; fill-opacity:0.0; 
stroke:#000000; stroke-width:21200.000000; stroke-opacity:1; 
stroke-linecap:round; stroke-linejoin:round;">
</g>
<g style="fill:#000000; fill-opacity:0.0; 
stroke:#000000; stroke-width:150000.000000; stroke-opacity:1; 
stroke-linecap:round; stroke-linejoin:round;">
<rect x="12000000.000000" y="12000000.000000" width="273002200.000000" height="186007200.000000" rx="0.000000" />
</g>
<g style="fill:#000000; fill-opacity:0.0; 
stroke:#000000; stroke-width:21200.000000; stroke-opacity:1; 
stroke-linecap:round; stroke-linejoin:round;">
</g>
<g style="fill:#000000; fill-opacity:0.0; 
stroke:#000000; stroke-width:150000.000000; stroke-opacity:1; 
stroke-linecap:round; stroke-linejoin:round;">
<path d="M60000000 12000000
L60000000 10000000
" />
</g>
<g style="fill:#000000; fill-opacity:0.0; 
stroke:#000000; stroke-width:21200.000000; stroke-opacity:1; 
stroke-linecap:round; stroke-linejoin:round;">
</g>
<g style="fill:#000000; fill-opacity:0.0; 
stroke:#000000; stroke-width:150000.000000; stroke-opacity:1; 
stroke-linecap:round; stroke-linejoin:round;">
<path d="M110000000 12000000
L110000000 10000000
" />
</g>
<g style="fill:#000000; fill-opacity:0.0; 
stroke:#000000; stroke-width:21200.000000; stroke-opacity:1; 
stroke-linecap:round; stroke-linejoin:round;">
</g>
<g style="fill:#000000; fill-opacity:0.0; 
stroke:#000000; stroke-width:150000.000000; stroke-opacity:1; 
stroke-linecap:round; stroke-linejoin:round;">
<path d="M160000000 12000000
L160000000 10000000
" />
</g>
<g style="fill:#000000; fill-opacity:0.0; 
stroke:#000000; stroke-width:21200.000000; stroke-opacity:1; 
stroke-linecap:round; stroke-linejoin:round;">
</g>
<g style="fill:#000000; fill-opacity:0.0; 
stroke:#000000; stroke-width:150000.000000; stroke-opacity:1; 
stroke-linecap:round; stroke-linejoin:round;">
<path d="M210000000 12000000
L210000000 10000000
" />
</g>
<g style="fill:#000000; fill-opacity:0.0; 
stroke:#000000; stroke-width:21200.000000; stroke-opacity:1; 
stroke-linecap:round; stroke-linejoin:round;">
</g>
<g style="fill:#000000; fill-opacity:0.0; 
stroke:#000000; stroke-width:150000.000000; stroke-opacity:1; 
stroke-linecap:round; stroke-linejoin:round;">
<path d="M260000000 12000000
L260000000 10000000
" />
</g>
<g style="fill:#000000; fill-opacity:0.0; 
stroke:#000000; stroke-width:21200.000000; stroke-opacity:1; 
stroke-linecap:round; stroke-linejoin:round;">
</g>
<g style="fill:#000000; fill-opacity:0.0; 
stroke:#000000; stroke-width:150000.000000; stroke-opacity:1; 
stroke-linecap:round; stroke-linejoin:round;">
<text x="35000000.000000" y="11650000.000000"
textLength="1388095.000000" font-size="1733333.000000" lengthAdjust="spacingAndGlyphs"
text-anchor="start" opacity="0">1</text>
<g class="stroked-text"><desc>1</desc>
<path d="M36065476 11588095
L35322619 11588095
" />
<path d="M35694047 11588095
L35694047 10288095
L35570238 10473809
L35446428 10597619
L35322619 10659523
" />
</g></g>
<g style="fill:#000000; fill-opacity:0.0; 
stroke:#000000; stroke-width:21200.000000; stroke-opacity:1; 
stroke-linecap:round; stroke-linejoin:round;">
</g>
<g style="fill:#000000; fill-opacity:0.0; 
stroke:#000000; stroke-width:150000.000000; stroke-opacity:1; 
stroke-linecap:round; stroke-linejoin:round;">
<text x="85000000.000000" y="11650000.000000"
textLength="1388095.000000" font-size="1733333.000000" lengthAdjust="spacingAndGlyphs"
text-anchor="start" opacity="0">2</text>
<g class="stroked-text"><desc>2</desc>
<path d="M85322619 10411904
L85384523 10350000
L85508333 10288095
L85817857 10288095
L85941666 10350000
L86003571 10411904
L86065476 10535714
L86065476 10659523
L86003571 10845238
L85260714 11588095
L86065476 11588095
" />
</g></g>
<g style="fill:#000000; fill-opacity:0.0; 
stroke:#000000; stroke-width:21200.000000; stroke-opacity:1; 
stroke-linecap:round; stroke-linejoin:round;">
</g>
<g style="fill:#000000; fill-opacity:0.0; 
stroke:#000000; stroke-width:150000.000000; stroke-opacity:1; 
stroke-linecap:round; stroke-linejoin:round;">
<text x="135000000.000000" y="11650000.000000"
textLength="1388095.000000" font-size="1733333.000000" lengthAdjust="spacingAndGlyphs"
text-anchor="start" opacity="0">3</text>
<g class="stroked-text"><desc>3</desc>
<path d="M135260714 10288095
L136065476 10288095
L135632142 10783333
L135817857 10783333
L135941666 10845238
L136003571 10907142
L136065476 11030952
L136065476 11340476
L136003571 11464285
L135941666 11526190
L135817857 11588095
L135446428 11588095
L135322619 11526190
L135260714 11464285
" />
</g></g>
<g style="fill:#000000; fill-opacity:0.0; 
stroke:#000000; stroke-width:21200.000000; stroke-opacity:1; 
stroke-linecap:round; stroke-linejoin:round;">
</g>
<g style="fill:#000000; fill-opacity:0.0; 
stroke:#000000; stroke-width:150000.000000; stroke-opacity:1; 
stroke-linecap:round; stroke-linejoin:round;">
<text x="185000000.000000" y="11650000.000000"
textLength="1388095.000000" font-size="1733333.000000" lengthAdjust="spacingAndGlyphs"
text-anchor="start" opacity="0">4</text>
<g class="stroked-text"><desc>4</desc>
<path d="M185941666 10721428
L185941666 11588095
" />
<path d="M185632142 10226190
L185322619 11154761
L186127380 11154761
" />
</g></g>
<g style="fill:#000000; fill-opacity:0.0; 
stroke:#000000; stroke-width:21200.000000; stroke-opacity:1; 
stroke-linecap:round; stroke-linejoin:round;">
</g>
<g style="fill:#000000; fill-opacity:0.0; 
stroke:#000000; stroke-width:150000.000000; stroke-opacity:1; 
stroke-linecap:round; stroke-linejoin:round;">
<text x="235000000.000000" y="11650000.000000"
textLength="1388095.000000" font-size="1733333.000000" lengthAdjust="spacingAndGlyphs"
text-anchor="start" opacity="0">5</text>
<g class="stroked-text"><desc>5</desc>
<path d="M236003571 10288095
L235384523 10288095
L235322619 10907142
L235384523 10845238
L235508333 10783333
L235817857 10783333
L235941666 10845238
L236003571 10907142
L236065476 11030952
L236065476 11340476
L236003571 11464285
L235941666 11526190
L235817857 11588095
L235508333 11588095
L235384523 11526190
L235322619 11464285
" />
</g></g>
<g style="fill:#000000; fill-opacity:0.0; 
stroke:#000000; stroke-width:21200.000000; stroke-opacity:1; 
stroke-linecap:round; stroke-linejoin:round;">
</g>
<g style="fill:#000000; fill-opacity:0.0; 
stroke:#000000; stroke-width:150000.000000; stroke-opacity:1; 
stroke-linecap:round; stroke-linejoin:round;">
<text x="285000000.000000" y="11650000.000000"
textLength="1388095.000000" font-size="1733333.000000" lengthAdjust="spacingAndGlyphs"
text-anchor="start" opacity="0">6</text>
<g class="stroked-text"><desc>6</desc>
<path d="M285941666 10288095
L285694047 10288095
L285570238 10350000
L285508333 10411904
L285384523 10597619
L285322619 10845238
L285322619 11340476
L285384523 11464285
L285446428 11526190
L285570238 11588095
L285817857 11588095
L285941666 11526190
L286003571 11464285
L286065476 11340476
L286065476 11030952
L286003571 10907142
L285941666 10845238
L285817857 10783333
L285570238 10783333
L285446428 10845238
L285384523 10907142
L285322619 11030952
" />
</g></g>
<g style="fill:#000000; fill-opacity:0.0; 
stroke:#000000; stroke-width:21200.000000; stroke-opacity:1; 
stroke-linecap:round; stroke-linejoin:round;">
</g>
<g style="fill:#000000; fill-opacity:0.0; 
stroke:#000000; stroke-width:150000.000000; stroke-opacity:1; 
stroke-linecap:round; stroke-linejoin:round;">
<path d="M60000000 198007200
L60000000 200007200
" />
</g>
<g style="fill:#000000; fill-opacity:0.0; 
stroke:#000000; stroke-width:21200.000000; stroke-opacity:1; 
stroke-linecap:round; stroke-linejoin:round;">
</g>
<g style="fill:#000000; fill-opacity:0.0; 
stroke:#000000; stroke-width:150000.000000; stroke-opacity:1; 
stroke-linecap:round; stroke-linejoin:round;">
<path d="M110000000 198007200
L110000000 200007200
" />
</g>
<g style="fill:#000000; fill-opacity:0.0; 
stroke:#000000; stroke-width:21200.000000; stroke-opacity:1; 
stroke-linecap:round; stroke-linejoin:round;">
</g>
<g style="fill:#000000; fill-opacity:0.0; 
stroke:#000000; stroke-width:150000.000000; stroke-opacity:1; 
stroke-linecap:round; stroke-linejoin:round;">
<path d="M160000000 198007200
L160000000 200007200
" />
</g>
<g style="fill:#000000; fill-opacity:0.0; 
stroke:#000000; stroke-width:21200.000000; stroke-opacity:1; 
stroke-linecap:round; stroke-linejoin:round;">
</g>
<g style="fill:#000000; fill-opacity:0.0; 
stroke:#000000; stroke-width:150000.000000; stroke-opacity:1; 
stroke-linecap:round; stroke-linejoin:round;">
<path d="M210000000 198007200
L210000000 200007200
" />
</g>
<g style="fill:#000000; fill-opacity:0.0; 
stroke:#000000; stroke-width:21200.000000; stroke-opacity:1; 
stroke-linecap:round; stroke-linejoin:round;">
</g>
<g style="fill:#000000; fill-opacity:0.0; 
stroke:#000000; stroke-width:150000.000000; stroke-opacity:1; 
stroke-linecap:round; stroke-linejoin:round;">
<path d="M260000000 198007200
L260000000 200007200
" />
</g>
<g style="fill:#000000; fill-opacity:0.0; 
stroke:#000000; stroke-width:21200.000000; stroke-opacity:1; 
stroke-linecap:round; stroke-linejoin:round;">
</g>
<g style="fill:#000000; fill-opacity:0.0; 
stroke:#000000; stroke-width:150000.000000; stroke-opacity:1; 
stroke-linecap:round; stroke-linejoin:round;">
<text x="35000000.000000" y="199657200.000000"
textLength="1388095.000000" font-size="1733333.000000" lengthAdjust="spacingAndGlyphs"
text-anchor="start" opacity="0">1</text>
<g class="stroked-text"><desc>1</desc>
<path d="M36065476 199595295
L35322619 199595295
" />
<path d="M35694047 199595295
L35694047 198295295
L35570238 198481009
L35446428 198604819
L35322619 198666723
" />
</g></g>
<g style="fill:#000000; fill-opacity:0.0; 
stroke:#000000; stroke-width:21200.000000; stroke-opacity:1; 
stroke-linecap:round; stroke-linejoin:round;">
</g>
<g style="fill:#000000; fill-opacity:0.0; 
stroke:#000000; stroke-width:150000.000000; stroke-opacity:1; 
stroke-linecap:round; stroke-linejoin:round;">
<text x="85000000.000000" y="199657200.000000"
textLength="1388095.000000" font-size="1733333.000000" lengthAdjust="spacingAndGlyphs"
text-anchor="start" opacity="0">2</text>
<g class="stroked-text"><desc>2</desc>
<path d="M85322619 198419104
L85384523 198357200
L85508333 198295295
L85817857 198295295
L85941666 198357200
L86003571 198419104
L86065476 198542914
L86065476 198666723
L86003571 198852438
L85260714 199595295
L86065476 199595295
" />
</g></g>
<g style="fill:#000000; fill-opacity:0.0; 
stroke:#000000; stroke-width:21200.000000; stroke-opacity:1; 
stroke-linecap:round; stroke-linejoin:round;">
</g>
<g style="fill:#000000; fill-opacity:0.0; 
stroke:#000000; stroke-width:150000.000000; stroke-opacity:1; 
stroke-linecap:round; stroke-linejoin:round;">
<text x="135000000.000000" y="199657200.000000"
textLength="1388095.000000" font-size="1733333.000000" lengthAdjust="spacingAndGlyphs"
text-anchor="start" opacity="0">3</text>
<g class="stroked-text"><desc>3</desc>
<path d="M135260714 198295295
L136065476 198295295
L135632142 198790533
L135817857 198790533
L135941666 198852438
L136003571 198914342
L136065476 199038152
L136065476 199347676
L136003571 199471485
L135941666 199533390
L135817857 199595295
L135446428 199595295
L135322619 199533390
L135260714 199471485
" />
</g></g>
<g style="fill:#000000; fill-opacity:0.0; 
stroke:#000000; stroke-width:21200.000000; stroke-opacity:1; 
stroke-linecap:round; stroke-linejoin:round;">
</g>
<g style="fill:#000000; fill-opacity:0.0; 
stroke:#000000; stroke-width:150000.000000; stroke-opacity:1; 
stroke-linecap:round; stroke-linejoin:round;">
<text x="185000000.000000" y="199657200.000000"
textLength="1388095.000000" font-size="1733333.000000" lengthAdjust="spacingAndGlyphs"
text-anchor="start" opacity="0">4</text>
<g class="stroked-text"><desc>4</desc>
<path d="M185941666 198728628
L185941666 199595295
" />
<path d="M185632142 198233390
L185322619 199161961
L186127380 199161961
" />
</g></g>
<g style="fill:#000000; fill-opacity:0.0; 
stroke:#000000; stroke-width:21200.000000; stroke-opacity:1; 
stroke-linecap:round; stroke-linejoin:round;">
</g>
<g style="fill:#000000; fill-opacity:0.0; 
stroke:#000000; stroke-width:150000.000000; stroke-opacity:1; 
stroke-linecap:round; stroke-linejoin:round;">
<text x="235000000.000000" y="199657200.000000"
textLength="1388095.000000" font-size="1733333.000000" lengthAdjust="spacingAndGlyphs"
text-anchor="start" opacity="0">5</text>
<g class="stroked-text"><desc>5</desc>
<path d="M236003571 198295295
L235384523 198295295
L235322619 198914342
L235384523 198852438
L235508333 198790533
L235817857 198790533
L235941666 198852438
L236003571 198914342
L236065476 199038152
L236065476 199347676
L236003571 199471485
L235941666 199533390
L235817857 199595295
L235508333 199595295
L235384523 199533390
L235322619 199471485
" />
</g></g>
<g style="fill:#000000; fill-opacity:0.0; 
stroke:#000000; stroke-width:21200.000000; stroke-opacity:1; 
stroke-linecap:round; stroke-linejoin:round;">
</g>
<g style="fill:#000000; fill-opacity:0.0; 
stroke:#000000; stroke-width:150000.000000; stroke-opacity:1; 
stroke-linecap:round; stroke-linejoin:round;">
<text x="285000000.000000" y="199657200.000000"
textLength="1388095.000000" font-size="1733333.000000" lengthAdjust="spacingAndGlyphs"
text-anchor="start" opacity="0">6</text>
<g class="stroked-text"><desc>6</desc>
<path d="M285941666 198295295
L285694047 198295295
L285570238 198357200
L285508333 198419104
L285384523 198604819
L285322619 198852438
L285322619 199347676
L285384523 199471485
L285446428 199533390
L285570238 199595295
L285817857 199595295
L285941666 199533390
L286003571 199471485
L286065476 199347676
L286065476 199038152
L286003571 198914342
L285941666 198852438
L285817857 198790533
L285570238 198790533
L285446428 198852438
L285384523 198914342
L285322619 199038152
" />
</g></g>
<g style="fill:#000000; fill-opacity:0.0; 
stroke:#000000; stroke-width:21200.000000; stroke-opacity:1; 
stroke-linecap:round; stroke-linejoin:round;">
</g>
<g style="fill:#000000; fill-opacity:0.0; 
stroke:#000000; stroke-width:150000.000000; stroke-opacity:1; 
stroke-linecap:round; stroke-linejoin:round;">
<path d="M10000000 60000000
L12000000 60000000
" />
</g>
<g style="fill:#000000; fill-opacity:0.0; 
stroke:#000000; stroke-width:21200.000000; stroke-opacity:1; 
stroke-linecap:round; stroke-linejoin:round;">
</g>
<g style="fill:#000000; fill-opacity:0.0; 
stroke:#000000; stroke-width:150000.000000; stroke-opacity:1; 
stroke-linecap:round; stroke-linejoin:round;">
<path d="M10000000 110000000
L12000000 110000000
" />
</g>
<g style="fill:#000000; fill-opacity:0.0; 
stroke:#000000; stroke-width:21200.000000; stroke-opacity:1; 
stroke-linecap:round; stroke-linejoin:round;">
</g>
<g style="fill:#000000; fill-opacity:0.0; 
stroke:#000000; stroke-width:150000.000000; stroke-opacity:1; 
stroke-linecap:round; stroke-linejoin:round;">
<path d="M10000000 160000000
L12000000 160000000
" />
</g>
<g style="fill:#000000; fill-opacity:0.0; 
stroke:#000000; stroke-width:21200.000000; stroke-opacity:1; 
stroke-linecap:round; stroke-linejoin:round;">
</g>
<g style="fill:#000000; fill-opacity:0.0; 
stroke:#000000; stroke-width:150000.000000; stroke-opacity:1; 
stroke-linecap:round; stroke-linejoin:round;">
<text x="11000000.000000" y="35650000.000000"
textLength="1264286.000000" font-size="1733333.000000" lengthAdjust="spacingAndGlyphs"
text-anchor="middle" opacity="0">A</text>
<g class="stroked-text"><desc>A</desc>
<path d="M10690476 35216666
L11309523 35216666
" />
<path d="M10566666 35588095
L11000000 34288095
L11433333 35588095
" />
</g></g>
<g style="fill:#000000; fill-opacity:0.0; 
stroke:#000000; stroke-width:21200.000000; stroke-opacity:1; 
stroke-linecap:round; stroke-linejoin:round;">
</g>
<g style="fill:#000000; fill-opacity:0.0; 
stroke:#000000; stroke-width:150000.000000; stroke-opacity:1; 
stroke-linecap:round; stroke-linejoin:round;">
<text x="11000000.000000" y="85650000.000000"
textLength="1450000.000000" font-size="1733333.000000" lengthAdjust="spacingAndGlyphs"
text-anchor="middle" opacity="0">B</text>
<g class="stroked-text"><desc>B</desc>
<path d="M11092857 84907142
L11278571 84969047
L11340476 85030952
L11402380 85154761
L11402380 85340476
L11340476 85464285
L11278571 85526190
L11154761 85588095
L10659523 85588095
L10659523 84288095
L11092857 84288095
L11216666 84350000
L11278571 84411904
L11340476 84535714
L11340476 84659523
L11278571 84783333
L11216666 84845238
L11092857 84907142
L10659523 84907142
" />
</g></g>
<g style="fill:#000000; fill-opacity:0.0; 
stroke:#000000; stroke-width:21200.000000; stroke-opacity:1; 
stroke-linecap:round; stroke-linejoin:round;">
</g>
<g style="fill:#000000; fill-opacity:0.0; 
stroke:#000000; stroke-width:150000.000000; stroke-opacity:1; 
stroke-linecap:round; stroke-linejoin:round;">
<text x="11000000.000000" y="135650000.000000"
textLength="1450000.000000" font-size="1733333.000000" lengthAdjust="spacingAndGlyphs"
text-anchor="middle" opacity="0">C</text>
<g class="stroked-text"><desc>C</desc>
<path d="M11402380 135464285
L11340476 135526190
L11154761 135588095
L11030952 135588095
L10845238 135526190
L10721428 135402380
L10659523 135278571
L10597619 135030952
L10597619 134845238
L10659523 134597619
L10721428 134473809
L10845238 134350000
L11030952 134288095
L11154761 134288095
L11340476 134350000
L11402380 134411904
" />
</g></g>
<g style="fill:#000000; fill-opacity:0.0; 
stroke:#000000; stroke-width:21200.000000; stroke-opacity:1; 
stroke-linecap:round; stroke-linejoin:round;">
</g>
<g style="fill:#000000; fill-opacity:0.0; 
stroke:#000000; stroke-width:150000.000000; stroke-opacity:1; 
stroke-linecap:round; stroke-linejoin:round;">
<text x="11000000.000000" y="185650000.000000"
textLength="1450000.000000" font-size="1733333.000000" lengthAdjust="spacingAndGlyphs"
text-anchor="middle" opacity="0">D</text>
<g class="stroked-text"><desc>D</desc>
<path d="M10659523 185588095
L10659523 184288095
L10969047 184288095
L11154761 184350000
L11278571 184473809
L11340476 184597619
L11402380 184845238
L11402380 185030952
L11340476 185278571
L11278571 185402380
L11154761 185526190
L10969047 185588095
L10659523 185588095
" />
</g></g>
<g style="fill:#000000; fill-opacity:0.0; 
stroke:#000000; stroke-width:21200.000000; stroke-opacity:1; 
stroke-linecap:round; stroke-linejoin:round;">
</g>
<g style="fill:#000000; fill-opacity:0.0; 
stroke:#000000; stroke-width:150000.000000; stroke-opacity:1; 
stroke-linecap:round; stroke-linejoin:round;">
<path d="M287002200 60000000
L285002200 60000000
" />
</g>
<g style="fill:#000000; fill-opacity:0.0; 
stroke:#000000; stroke-width:21200.000000; stroke-opacity:1; 
stroke-linecap:round; stroke-linejoin:round;">
</g>
<g style="fill:#000000; fill-opacity:0.0; 
stroke:#000000; stroke-width:150000.000000; stroke-opacity:1; 
stroke-linecap:round; stroke-linejoin:round;">
<path d="M287002200 110000000
L285002200 110000000
" />
</g>
<g style="fill:#000000; fill-opacity:0.0; 
stroke:#000000; stroke-width:21200.000000; stroke-opacity:1; 
stroke-linecap:round; stroke-linejoin:round;">
</g>
<g style="fill:#000000; fill-opacity:0.0; 
stroke:#000000; stroke-width:150000.000000; stroke-opacity:1; 
stroke-linecap:round; stroke-linejoin:round;">
<path d="M287002200 160000000
L285002200 160000000
" />
</g>
<g style="fill:#000000; fill-opacity:0.0; 
stroke:#000000; stroke-width:21200.000000; stroke-opacity:1; 
stroke-linecap:round; stroke-linejoin:round;">
</g>
<g style="fill:#000000; fill-opacity:0.0; 
stroke:#000000; stroke-width:150000.000000; stroke-opacity:1; 
stroke-linecap:round; stroke-linejoin:round;">
<text x="286002200.000000" y="35650000.000000"
textLength="1264286.000000" font-size="1733333.000000" lengthAdjust="spacingAndGlyphs"
text-anchor="middle" opacity="0">A</text>
<g class="stroked-text"><desc>A</desc>
<path d="M285692676 35216666
L286311723 35216666
" />
<path d="M285568866 35588095
L286002200 34288095
L286435533 35588095
" />
</g></g>
<g style="fill:#000000; fill-opacity:0.0; 
stroke:#000000; stroke-width:21200.000000; stroke-opacity:1; 
stroke-linecap:round; stroke-linejoin:round;">
</g>
<g style="fill:#000000; fill-opacity:0.0; 
stroke:#000000; stroke-width:150000.000000; stroke-opacity:1; 
stroke-linecap:round; stroke-linejoin:round;">
<text x="286002200.000000" y="85650000.000000"
textLength="1450000.000000" font-size="1733333.000000" lengthAdjust="spacingAndGlyphs"
text-anchor="middle" opacity="0">B</text>
<g class="stroked-text"><desc>B</desc>
<path d="M286095057 84907142
L286280771 84969047
L286342676 85030952
L286404580 85154761
L286404580 85340476
L286342676 85464285
L286280771 85526190
L286156961 85588095
L285661723 85588095
L285661723 84288095
L286095057 84288095
L286218866 84350000
L286280771 84411904
L286342676 84535714
L286342676 84659523
L286280771 84783333
L286218866 84845238
L286095057 84907142
L285661723 84907142
" />
</g></g>
<g style="fill:#000000; fill-opacity:0.0; 
stroke:#000000; stroke-width:21200.000000; stroke-opacity:1; 
stroke-linecap:round; stroke-linejoin:round;">
</g>
<g style="fill:#000000; fill-opacity:0.0; 
stroke:#000000; stroke-width:150000.000000; stroke-opacity:1; 
stroke-linecap:round; stroke-linejoin:round;">
<text x="286002200.000000" y="135650000.000000"
textLength="1450000.000000" font-size="1733333.000000" lengthAdjust="spacingAndGlyphs"
text-anchor="middle" opacity="0">C</text>
<g class="stroked-text"><desc>C</desc>
<path d="M286404580 135464285
L286342676 135526190
L286156961 135588095
L286033152 135588095
L285847438 135526190
L285723628 135402380
L285661723 135278571
L285599819 135030952
L285599819 134845238
L285661723 134597619
L285723628 134473809
L285847438 134350000
L286033152 134288095
L286156961 134288095
L286342676 134350000
L286404580 134411904
" />
</g></g>
<g style="fill:#000000; fill-opacity:0.0; 
stroke:#000000; stroke-width:21200.000000; stroke-opacity:1; 
stroke-linecap:round; stroke-linejoin:round;">
</g>
<g style="fill:#000000; fill-opacity:0.0; 
stroke:#000000; stroke-width:150000.000000; stroke-opacity:1; 
stroke-linecap:round; stroke-linejoin:round;">
<text x="286002200.000000" y="185650000.000000"
textLength="1450000.000000" font-size="1733333.000000" lengthAdjust="spacingAndGlyphs"
text-anchor="middle" opacity="0">D</text>
<g class="stroked-text"><desc>D</desc>
<path d="M285661723 185588095
L285661723 184288095
L285971247 184288095
L286156961 184350000
L286280771 184473809
L286342676 184597619
L286404580 184845238
L286404580 185030952
L286342676 185278571
L286280771 185402380
L286156961 185526190
L285971247 185588095
L285661723 185588095
" />
</g></g>
<g style="fill:#000000; fill-opacity:0.0; 
stroke:#000000; stroke-width:21200.000000; stroke-opacity:1; 
stroke-linecap:round; stroke-linejoin:round;">
</g>
<g style="fill:#000000; fill-opacity:0.0; 
stroke:#000000; stroke-width:150000.000000; stroke-opacity:1; 
stroke-linecap:round; stroke-linejoin:round;">
<text x="200002200.000000" y="193857200.000000"
textLength="7007143.000000" font-size="2000000.000000" lengthAdjust="spacingAndGlyphs"
text-anchor="start" opacity="0">Date: </text>
<g class="stroked-text"><desc>Date: </desc>
<path d="M200434342 193785771
L200434342 192285771
L200791485 192285771
L201005771 192357200
L201148628 192500057
L201220057 192642914
L201291485 192928628
L201291485 193142914
L201220057 193428628
L201148628 193571485
L201005771 193714342
L200791485 193785771
L200434342 193785771
" />
<path d="M202577200 193785771
L202577200 193000057
L202505771 192857200
L202362914 192785771
L202077200 192785771
L201934342 192857200
" />
<path d="M202577200 193714342
L202434342 193785771
L202077200 193785771
L201934342 193714342
L201862914 193571485
L201862914 193428628
L201934342 193285771
L202077200 193214342
L202434342 193214342
L202577200 193142914
" />
<path d="M203077200 192785771
L203648628 192785771
" />
<path d="M203291485 192285771
L203291485 193571485
L203362914 193714342
L203505771 193785771
L203648628 193785771
" />
<path d="M204720057 193714342
L204577200 193785771
L204291485 193785771
L204148628 193714342
L204077200 193571485
L204077200 193000057
L204148628 192857200
L204291485 192785771
L204577200 192785771
L204720057 192857200
L204791485 193000057
L204791485 193142914
L204077200 193285771
" />
<path d="M205434342 193642914
L205505771 193714342
L205434342 193785771
L205362914 193714342
L205434342 193642914
L205434342 193785771
" />
<path d="M205434342 192857200
L205505771 192928628
L205434342 193000057
L205362914 192928628
L205434342 192857200
L205434342 193000057
" />
</g></g>
<g style="fill:#000000; fill-opacity:0.0; 
stroke:#000000; stroke-width:21200.000000; stroke-opacity:1; 
stroke-linecap:round; stroke-linejoin:round;">
</g>
<g style="fill:#000000; fill-opacity:0.0; 
stroke:#000000; stroke-width:150000.000000; stroke-opacity:1; 
stroke-linecap:round; stroke-linejoin:round;">
<path d="M177002200 194507200
L285002200 194507200
" />
</g>
<g style="fill:#000000; fill-opacity:0.0; 
stroke:#000000; stroke-width:21200.000000; stroke-opacity:1; 
stroke-linecap:round; stroke-linejoin:round;">
</g>
<g style="fill:#000000; fill-opacity:0.0; 
stroke:#000000; stroke-width:150000.000000; stroke-opacity:1; 
stroke-linecap:round; stroke-linejoin:round;">
<text x="178002200.000000" y="196657200.000000"
textLength="31078571.000000" font-size="2000000.000000" lengthAdjust="spacingAndGlyphs"
text-anchor="start" opacity="0">KiCad E.D.A.  kicad (6.0.9)</text>
<g class="stroked-text"><desc>KiCad E.D.A.  kicad (6.0.9)</desc>
<path d="M178434342 196585771
L178434342 195085771
" />
<path d="M179291485 196585771
L178648628 195728628
" />
<path d="M179291485 195085771
L178434342 195942914
" />
<path d="M179934342 196585771
L179934342 195585771
" />
<path d="M179934342 195085771
L179862914 195157200
L179934342 195228628
L180005771 195157200
L179934342 195085771
L179934342 195228628
" />
<path d="M181505771 196442914
L181434342 196514342
L181220057 196585771
L181077200 196585771
L180862914 196514342
L180720057 196371485
L180648628 196228628
L180577200 195942914
L180577200 195728628
L180648628 195442914
L180720057 195300057
L180862914 195157200
L181077200 195085771
L181220057 195085771
L181434342 195157200
L181505771 195228628
" />
<path d="M182791485 196585771
L182791485 195800057
L182720057 195657200
L182577200 195585771
L182291485 195585771
L182148628 195657200
" />
<path d="M182791485 196514342
L182648628 196585771
L182291485 196585771
L182148628 196514342
L182077200 196371485
L182077200 196228628
L182148628 196085771
L182291485 196014342
L182648628 196014342
L182791485 195942914
" />
<path d="M184148628 196585771
L184148628 195085771
" />
<path d="M184148628 196514342
L184005771 196585771
L183720057 196585771
L183577200 196514342
L183505771 196442914
L183434342 196300057
L183434342 195871485
L183505771 195728628
L183577200 195657200
L183720057 195585771
L184005771 195585771
L184148628 195657200
" />
<path d="M186005771 195800057
L186505771 195800057
" />
<path d="M186720057 196585771
L186005771 196585771
L186005771 195085771
L186720057 195085771
" />
<path d="M187362914 196442914
L187434342 196514342
L187362914 196585771
L187291485 196514342
L187362914 196442914
L187362914 196585771
" />
<path d="M188077200 196585771
L188077200 195085771
L188434342 195085771
L188648628 195157200
L188791485 195300057
L188862914 195442914
L188934342 195728628
L188934342 195942914
L188862914 196228628
L188791485 196371485
L188648628 196514342
L188434342 196585771
L188077200 196585771
" />
<path d="M189577200 196442914
L189648628 196514342
L189577200 196585771
L189505771 196514342
L189577200 196442914
L189577200 196585771
" />
<path d="M190220057 196157200
L190934342 196157200
" />
<path d="M190077200 196585771
L190577200 195085771
L191077200 196585771
" />
<path d="M191577200 196442914
L191648628 196514342
L191577200 196585771
L191505771 196514342
L191577200 196442914
L191577200 196585771
" />
<path d="M194577200 196585771
L194577200 195085771
" />
<path d="M194720057 196014342
L195148628 196585771
" />
<path d="M195148628 195585771
L194577200 196157200
" />
<path d="M195791485 196585771
L195791485 195585771
" />
<path d="M195791485 195085771
L195720057 195157200
L195791485 195228628
L195862914 195157200
L195791485 195085771
L195791485 195228628
" />
<path d="M197148628 196514342
L197005771 196585771
L196720057 196585771
L196577200 196514342
L196505771 196442914
L196434342 196300057
L196434342 195871485
L196505771 195728628
L196577200 195657200
L196720057 195585771
L197005771 195585771
L197148628 195657200
" />
<path d="M198434342 196585771
L198434342 195800057
L198362914 195657200
L198220057 195585771
L197934342 195585771
L197791485 195657200
" />
<path d="M198434342 196514342
L198291485 196585771
L197934342 196585771
L197791485 196514342
L197720057 196371485
L197720057 196228628
L197791485 196085771
L197934342 196014342
L198291485 196014342
L198434342 195942914
" />
<path d="M199791485 196585771
L199791485 195085771
" />
<path d="M199791485 196514342
L199648628 196585771
L199362914 196585771
L199220057 196514342
L199148628 196442914
L199077200 196300057
L199077200 195871485
L199148628 195728628
L199220057 195657200
L199362914 195585771
L199648628 195585771
L199791485 195657200
" />
<path d="M202077200 197157200
L202005771 197085771
L201862914 196871485
L201791485 196728628
L201720057 196514342
L201648628 196157200
L201648628 195871485
L201720057 195514342
L201791485 195300057
L201862914 195157200
L202005771 194942914
L202077200 194871485
" />
<path d="M203291485 195085771
L203005771 195085771
L202862914 195157200
L202791485 195228628
L202648628 195442914
L202577200 195728628
L202577200 196300057
L202648628 196442914
L202720057 196514342
L202862914 196585771
L203148628 196585771
L203291485 196514342
L203362914 196442914
L203434342 196300057
L203434342 195942914
L203362914 195800057
L203291485 195728628
L203148628 195657200
L202862914 195657200
L202720057 195728628
L202648628 195800057
L202577200 195942914
" />
<path d="M204077200 196442914
L204148628 196514342
L204077200 196585771
L204005771 196514342
L204077200 196442914
L204077200 196585771
" />
<path d="M205077200 195085771
L205220057 195085771
L205362914 195157200
L205434342 195228628
L205505771 195371485
L205577200 195657200
L205577200 196014342
L205505771 196300057
L205434342 196442914
L205362914 196514342
L205220057 196585771
L205077200 196585771
L204934342 196514342
L204862914 196442914
L204791485 196300057
L204720057 196014342
L204720057 195657200
L204791485 195371485
L204862914 195228628
L204934342 195157200
L205077200 195085771
" />
<path d="M206220057 196442914
L206291485 196514342
L206220057 196585771
L206148628 196514342
L206220057 196442914
L206220057 196585771
" />
<path d="M207005771 196585771
L207291485 196585771
L207434342 196514342
L207505771 196442914
L207648628 196228628
L207720057 195942914
L207720057 195371485
L207648628 195228628
L207577200 195157200
L207434342 195085771
L207148628 195085771
L207005771 195157200
L206934342 195228628
L206862914 195371485
L206862914 195728628
L206934342 195871485
L207005771 195942914
L207148628 196014342
L207434342 196014342
L207577200 195942914
L207648628 195871485
L207720057 195728628
" />
<path d="M208220057 197157200
L208291485 197085771
L208434342 196871485
L208505771 196728628
L208577200 196514342
L208648628 196157200
L208648628 195871485
L208577200 195514342
L208505771 195300057
L208434342 195157200
L208291485 194942914
L208220057 194871485
" />
</g></g>
<g style="fill:#000000; fill-opacity:0.0; 
stroke:#000000; stroke-width:21200.000000; stroke-opacity:1; 
stroke-linecap:round; stroke-linejoin:round;">
</g>
<g style="fill:#000000; fill-opacity:0.0; 
stroke:#000000; stroke-width:150000.000000; stroke-opacity:1; 
stroke-linecap:round; stroke-linejoin:round;">
<path d="M177002200 191507200
L285002200 191507200
" />
</g>
<g style="fill:#000000; fill-opacity:0.0; 
stroke:#000000; stroke-width:21200.000000; stroke-opacity:1; 
stroke-linecap:round; stroke-linejoin:round;">
</g>
<g style="fill:#000000; fill-opacity:0.0; 
stroke:#000000; stroke-width:300000.000000; stroke-opacity:1; 
stroke-linecap:round; stroke-linejoin:round;">
<text x="263002200.000000" y="193857200.000000"
textLength="5935714.000000" font-size="2000000.000000" lengthAdjust="spacingAndGlyphs"
text-anchor="start" opacity="0">Rev: </text>
<g class="stroked-text"><desc>Rev: </desc>
<path d="M264411485 193785771
L263911485 193071485
" />
<path d="M263554342 193785771
L263554342 192285771
L264125771 192285771
L264268628 192357200
L264340057 192428628
L264411485 192571485
L264411485 192785771
L264340057 192928628
L264268628 193000057
L264125771 193071485
L263554342 193071485
" />
<path d="M265625771 193714342
L265482914 193785771
L265197200 193785771
L265054342 193714342
L264982914 193571485
L264982914 193000057
L265054342 192857200
L265197200 192785771
L265482914 192785771
L265625771 192857200
L265697200 193000057
L265697200 193142914
L264982914 193285771
" />
<path d="M266197200 192785771
L266554342 193785771
L266911485 192785771
" />
<path d="M267482914 193642914
L267554342 193714342
L267482914 193785771
L267411485 193714342
L267482914 193642914
L267482914 193785771
" />
<path d="M267482914 192857200
L267554342 192928628
L267482914 193000057
L267411485 192928628
L267482914 192857200
L267482914 193000057
" />
</g></g>
<g style="fill:#000000; fill-opacity:0.0; 
stroke:#000000; stroke-width:21200.000000; stroke-opacity:1; 
stroke-linecap:round; stroke-linejoin:round;">
</g>
<g style="fill:#000000; fill-opacity:0.0; 
stroke:#000000; stroke-width:150000.000000; stroke-opacity:1; 
stroke-linecap:round; stroke-linejoin:round;">
<text x="178002200.000000" y="193857200.000000"
textLength="9604286.000000" font-size="2000000.000000" lengthAdjust="spacingAndGlyphs"
text-anchor="start" opacity="0">Size: A4</text>
<g class="stroked-text"><desc>Size: A4</desc>
<path d="M178362914 193714342
L178577200 193785771
L178934342 193785771
L179077200 193714342
L179148628 193642914
L179220057 193500057
L179220057 193357200
L179148628 193214342
L179077200 193142914
L178934342 193071485
L178648628 193000057
L178505771 192928628
L178434342 192857200
L178362914 192714342
L178362914 192571485
L178434342 192428628
L178505771 192357200
L178648628 192285771
L179005771 192285771
L179220057 192357200
" />
<path d="M179862914 193785771
L179862914 192785771
" />
<path d="M179862914 192285771
L179791485 192357200
L179862914 192428628
L179934342 192357200
L179862914 192285771
L179862914 192428628
" />
<path d="M180434342 192785771
L181220057 192785771
L180434342 193785771
L181220057 193785771
" />
<path d="M182362914 193714342
L182220057 193785771
L181934342 193785771
L181791485 193714342
L181720057 193571485
L181720057 193000057
L181791485 192857200
L181934342 192785771
L182220057 192785771
L182362914 192857200
L182434342 193000057
L182434342 193142914
L181720057 193285771
" />
<path d="M183077200 193642914
L183148628 193714342
L183077200 193785771
L183005771 193714342
L183077200 193642914
L183077200 193785771
" />
<path d="M183077200 192857200
L183148628 192928628
L183077200 193000057
L183005771 192928628
L183077200 192857200
L183077200 193000057
" />
<path d="M184862914 193357200
L185577200 193357200
" />
<path d="M184720057 193785771
L185220057 192285771
L185720057 193785771
" />
<path d="M186862914 192785771
L186862914 193785771
" />
<path d="M186505771 192214342
L186148628 193285771
L187077200 193285771
" />
</g></g>
<g style="fill:#000000; fill-opacity:0.0; 
stroke:#000000; stroke-width:21200.000000; stroke-opacity:1; 
stroke-linecap:round; stroke-linejoin:round;">
</g>
<g style="fill:#000000; fill-opacity:0.0; 
stroke:#000000; stroke-width:150000.000000; stroke-opacity:1; 
stroke-linecap:round; stroke-linejoin:round;">
<text x="263002200.000000" y="196657200.000000"
textLength="8507143.000000" font-size="2000000.000000" lengthAdjust="spacingAndGlyphs"
text-anchor="start" opacity="0">Id: 1/1</text>
<g class="stroked-text"><desc>Id: 1/1</desc>
<path d="M263434342 196585771
L263434342 195085771
" />
<path d="M264791485 196585771
L264791485 195085771
" />
<path d="M264791485 196514342
L264648628 196585771
L264362914 196585771
L264220057 196514342
L264148628 196442914
L264077200 196300057
L264077200 195871485
L264148628 195728628
L264220057 195657200
L264362914 195585771
L264648628 195585771
L264791485 195657200
" />
<path d="M265505771 196442914
L265577200 196514342
L265505771 196585771
L265434342 196514342
L265505771 196442914
L265505771 196585771
" />
<path d="M265505771 195657200
L265577200 195728628
L265505771 195800057
L265434342 195728628
L265505771 195657200
L265505771 195800057
" />
<path d="M268148628 196585771
L267291485 196585771
" />
<path d="M267720057 196585771
L267720057 195085771
L267577200 195300057
L267434342 195442914
L267291485 195514342
" />
<path d="M269862914 195014342
L268577200 196942914
" />
<path d="M271148628 196585771
L270291485 196585771
" />
<path d="M270720057 196585771
L270720057 195085771
L270577200 195300057
L270434342 195442914
L270291485 195514342
" />
</g></g>
<g style="fill:#000000; fill-opacity:0.0; 
stroke:#000000; stroke-width:21200.000000; stroke-opacity:1; 
stroke-linecap:round; stroke-linejoin:round;">
</g>
<g style="fill:#000000; fill-opacity:0.0; 
stroke:#000000; stroke-width:150000.000000; stroke-opacity:1; 
stroke-linecap:round; stroke-linejoin:round;">
<path d="M177002200 187507200
L285002200 187507200
" />
</g>
<g style="fill:#000000; fill-opacity:0.0; 
stroke:#000000; stroke-width:21200.000000; stroke-opacity:1; 
stroke-linecap:round; stroke-linejoin:round;">
</g>
<g style="fill:#000000; fill-opacity:0.0; 
stroke:#000000; stroke-width:400000.000000; stroke-opacity:1; 
stroke-linecap:round; stroke-linejoin:round;">
<text x="178002200.000000" y="190307200.000000"
textLength="9409643.000000" font-size="2666666.000000" lengthAdjust="spacingAndGlyphs"
text-anchor="start" opacity="0">Title: </text>
<g class="stroked-text"><desc>Title: </desc>
<path d="M178714580 188211961
L179857438 188211961
" />
<path d="M179036009 190211961
L179286009 188211961
" />
<path d="M180274104 190211961
L180440771 188878628
" />
<path d="M180524104 188211961
L180416961 188307200
L180500295 188402438
L180607438 188307200
L180524104 188211961
L180500295 188402438
" />
<path d="M181107438 188878628
L181869342 188878628
" />
<path d="M181476485 188211961
L181262200 189926247
L181333628 190116723
L181512200 190211961
L181702676 190211961
" />
<path d="M182655057 190211961
L182476485 190116723
L182405057 189926247
L182619342 188211961
" />
<path d="M184190771 190116723
L183988390 190211961
L183607438 190211961
L183428866 190116723
L183357438 189926247
L183452676 189164342
L183571723 188973866
L183774104 188878628
L184155057 188878628
L184333628 188973866
L184405057 189164342
L184381247 189354819
L183405057 189545295
" />
<path d="M185155057 190021485
L185238390 190116723
L185131247 190211961
L185047914 190116723
L185155057 190021485
L185131247 190211961
" />
<path d="M185286009 188973866
L185369342 189069104
L185262200 189164342
L185178866 189069104
L185286009 188973866
L185262200 189164342
" />
</g></g>
<g style="fill:#000000; fill-opacity:0.0; 
stroke:#000000; stroke-width:21200.000000; stroke-opacity:1; 
stroke-linecap:round; stroke-linejoin:round;">
</g>
<g style="fill:#000000; fill-opacity:0.0; 
stroke:#000000; stroke-width:150000.000000; stroke-opacity:1; 
stroke-linecap:round; stroke-linejoin:round;">
<text x="178002200.000000" y="186457200.000000"
textLength="34591429.000000" font-size="2000000.000000" lengthAdjust="spacingAndGlyphs"
text-anchor="start" opacity="0">File: luz_inteligente.kicad_pcb</text>
<g class="stroked-text"><desc>File: luz_inteligente.kicad_pcb</desc>
<path d="M178934342 185600057
L178434342 185600057
" />
<path d="M178434342 186385771
L178434342 184885771
L179148628 184885771
" />
<path d="M179720057 186385771
L179720057 185385771
" />
<path d="M179720057 184885771
L179648628 184957200
L179720057 185028628
L179791485 184957200
L179720057 184885771
L179720057 185028628
" />
<path d="M180648628 186385771
L180505771 186314342
L180434342 186171485
L180434342 184885771
" />
<path d="M181791485 186314342
L181648628 186385771
L181362914 186385771
L181220057 186314342
L181148628 186171485
L181148628 185600057
L181220057 185457200
L181362914 185385771
L181648628 185385771
L181791485 185457200
L181862914 185600057
L181862914 185742914
L181148628 185885771
" />
<path d="M182505771 186242914
L182577200 186314342
L182505771 186385771
L182434342 186314342
L182505771 186242914
L182505771 186385771
" />
<path d="M182505771 185457200
L182577200 185528628
L182505771 185600057
L182434342 185528628
L182505771 185457200
L182505771 185600057
" />
<path d="M184577200 186385771
L184434342 186314342
L184362914 186171485
L184362914 184885771
" />
<path d="M185791485 185385771
L185791485 186385771
" />
<path d="M185148628 185385771
L185148628 186171485
L185220057 186314342
L185362914 186385771
L185577200 186385771
L185720057 186314342
L185791485 186242914
" />
<path d="M186362914 185385771
L187148628 185385771
L186362914 186385771
L187148628 186385771
" />
<path d="M187362914 186528628
L188505771 186528628
" />
<path d="M188862914 186385771
L188862914 185385771
" />
<path d="M188862914 184885771
L188791485 184957200
L188862914 185028628
L188934342 184957200
L188862914 184885771
L188862914 185028628
" />
<path d="M189577200 185385771
L189577200 186385771
" />
<path d="M189577200 185528628
L189648628 185457200
L189791485 185385771
L190005771 185385771
L190148628 185457200
L190220057 185600057
L190220057 186385771
" />
<path d="M190720057 185385771
L191291485 185385771
" />
<path d="M190934342 184885771
L190934342 186171485
L191005771 186314342
L191148628 186385771
L191291485 186385771
" />
<path d="M192362914 186314342
L192220057 186385771
L191934342 186385771
L191791485 186314342
L191720057 186171485
L191720057 185600057
L191791485 185457200
L191934342 185385771
L192220057 185385771
L192362914 185457200
L192434342 185600057
L192434342 185742914
L191720057 185885771
" />
<path d="M193291485 186385771
L193148628 186314342
L193077200 186171485
L193077200 184885771
" />
<path d="M193862914 186385771
L193862914 185385771
" />
<path d="M193862914 184885771
L193791485 184957200
L193862914 185028628
L193934342 184957200
L193862914 184885771
L193862914 185028628
" />
<path d="M195220057 185385771
L195220057 186600057
L195148628 186742914
L195077200 186814342
L194934342 186885771
L194720057 186885771
L194577200 186814342
" />
<path d="M195220057 186314342
L195077200 186385771
L194791485 186385771
L194648628 186314342
L194577200 186242914
L194505771 186100057
L194505771 185671485
L194577200 185528628
L194648628 185457200
L194791485 185385771
L195077200 185385771
L195220057 185457200
" />
<path d="M196505771 186314342
L196362914 186385771
L196077200 186385771
L195934342 186314342
L195862914 186171485
L195862914 185600057
L195934342 185457200
L196077200 185385771
L196362914 185385771
L196505771 185457200
L196577200 185600057
L196577200 185742914
L195862914 185885771
" />
<path d="M197220057 185385771
L197220057 186385771
" />
<path d="M197220057 185528628
L197291485 185457200
L197434342 185385771
L197648628 185385771
L197791485 185457200
L197862914 185600057
L197862914 186385771
" />
<path d="M198362914 185385771
L198934342 185385771
" />
<path d="M198577200 184885771
L198577200 186171485
L198648628 186314342
L198791485 186385771
L198934342 186385771
" />
<path d="M200005771 186314342
L199862914 186385771
L199577200 186385771
L199434342 186314342
L199362914 186171485
L199362914 185600057
L199434342 185457200
L199577200 185385771
L199862914 185385771
L200005771 185457200
L200077200 185600057
L200077200 185742914
L199362914 185885771
" />
<path d="M200720057 186242914
L200791485 186314342
L200720057 186385771
L200648628 186314342
L200720057 186242914
L200720057 186385771
" />
<path d="M201434342 186385771
L201434342 184885771
" />
<path d="M201577200 185814342
L202005771 186385771
" />
<path d="M202005771 185385771
L201434342 185957200
" />
<path d="M202648628 186385771
L202648628 185385771
" />
<path d="M202648628 184885771
L202577200 184957200
L202648628 185028628
L202720057 184957200
L202648628 184885771
L202648628 185028628
" />
<path d="M204005771 186314342
L203862914 186385771
L203577200 186385771
L203434342 186314342
L203362914 186242914
L203291485 186100057
L203291485 185671485
L203362914 185528628
L203434342 185457200
L203577200 185385771
L203862914 185385771
L204005771 185457200
" />
<path d="M205291485 186385771
L205291485 185600057
L205220057 185457200
L205077200 185385771
L204791485 185385771
L204648628 185457200
" />
<path d="M205291485 186314342
L205148628 186385771
L204791485 186385771
L204648628 186314342
L204577200 186171485
L204577200 186028628
L204648628 185885771
L204791485 185814342
L205148628 185814342
L205291485 185742914
" />
<path d="M206648628 186385771
L206648628 184885771
" />
<path d="M206648628 186314342
L206505771 186385771
L206220057 186385771
L206077200 186314342
L206005771 186242914
L205934342 186100057
L205934342 185671485
L206005771 185528628
L206077200 185457200
L206220057 185385771
L206505771 185385771
L206648628 185457200
" />
<path d="M207005771 186528628
L208148628 186528628
" />
<path d="M208505771 185385771
L208505771 186885771
" />
<path d="M208505771 185457200
L208648628 185385771
L208934342 185385771
L209077200 185457200
L209148628 185528628
L209220057 185671485
L209220057 186100057
L209148628 186242914
L209077200 186314342
L208934342 186385771
L208648628 186385771
L208505771 186314342
" />
<path d="M210505771 186314342
L210362914 186385771
L210077200 186385771
L209934342 186314342
L209862914 186242914
L209791485 186100057
L209791485 185671485
L209862914 185528628
L209934342 185457200
L210077200 185385771
L210362914 185385771
L210505771 185457200
" />
<path d="M211148628 186385771
L211148628 184885771
" />
<path d="M211148628 185457200
L211291485 185385771
L211577200 185385771
L211720057 185457200
L211791485 185528628
L211862914 185671485
L211862914 186100057
L211791485 186242914
L211720057 186314342
L211577200 186385771
L211291485 186385771
L211148628 186314342
" />
</g></g>
<g style="fill:#000000; fill-opacity:0.0; 
stroke:#000000; stroke-width:21200.000000; stroke-opacity:1; 
stroke-linecap:round; stroke-linejoin:round;">
</g>
<g style="fill:#000000; fill-opacity:0.0; 
stroke:#000000; stroke-width:150000.000000; stroke-opacity:1; 
stroke-linecap:round; stroke-linejoin:round;">
<path d="M177002200 181507200
L285002200 181507200
" />
</g>
<g style="fill:#000000; fill-opacity:0.0; 
stroke:#000000; stroke-width:21200.000000; stroke-opacity:1; 
stroke-linecap:round; stroke-linejoin:round;">
</g>
<g style="fill:#000000; fill-opacity:0.0; 
stroke:#000000; stroke-width:150000.000000; stroke-opacity:1; 
stroke-linecap:round; stroke-linejoin:round;">
<text x="178002200.000000" y="183757200.000000"
textLength="8221429.000000" font-size="2000000.000000" lengthAdjust="spacingAndGlyphs"
text-anchor="start" opacity="0">Sheet: </text>
<g class="stroked-text"><desc>Sheet: </desc>
<path d="M178362914 183614342
L178577200 183685771
L178934342 183685771
L179077200 183614342
L179148628 183542914
L179220057 183400057
L179220057 183257200
L179148628 183114342
L179077200 183042914
L178934342 182971485
L178648628 182900057
L178505771 182828628
L178434342 182757200
L178362914 182614342
L178362914 182471485
L178434342 182328628
L178505771 182257200
L178648628 182185771
L179005771 182185771
L179220057 182257200
" />
<path d="M179862914 183685771
L179862914 182185771
" />
<path d="M180505771 183685771
L180505771 182900057
L180434342 182757200
L180291485 182685771
L180077200 182685771
L179934342 182757200
L179862914 182828628
" />
<path d="M181791485 183614342
L181648628 183685771
L181362914 183685771
L181220057 183614342
L181148628 183471485
L181148628 182900057
L181220057 182757200
L181362914 182685771
L181648628 182685771
L181791485 182757200
L181862914 182900057
L181862914 183042914
L181148628 183185771
" />
<path d="M183077200 183614342
L182934342 183685771
L182648628 183685771
L182505771 183614342
L182434342 183471485
L182434342 182900057
L182505771 182757200
L182648628 182685771
L182934342 182685771
L183077200 182757200
L183148628 182900057
L183148628 183042914
L182434342 183185771
" />
<path d="M183577200 182685771
L184148628 182685771
" />
<path d="M183791485 182185771
L183791485 183471485
L183862914 183614342
L184005771 183685771
L184148628 183685771
" />
<path d="M184648628 183542914
L184720057 183614342
L184648628 183685771
L184577200 183614342
L184648628 183542914
L184648628 183685771
" />
<path d="M184648628 182757200
L184720057 182828628
L184648628 182900057
L184577200 182828628
L184648628 182757200
L184648628 182900057
" />
</g></g>
<g style="fill:#000000; fill-opacity:0.0; 
stroke:#000000; stroke-width:21200.000000; stroke-opacity:1; 
stroke-linecap:round; stroke-linejoin:round;">
</g>
<g style="fill:#000000; fill-opacity:0.0; 
stroke:#000000; stroke-width:300000.000000; stroke-opacity:1; 
stroke-linecap:round; stroke-linejoin:round;">
<text x="178002200.000000" y="180757200.000000"
textLength="150000.000000" font-size="2000000.000000" lengthAdjust="spacingAndGlyphs"
text-anchor="start" opacity="0"></text>
<g class="stroked-text"><desc></desc>
</g></g>
<g style="fill:#000000; fill-opacity:0.0; 
stroke:#000000; stroke-width:21200.000000; stroke-opacity:1; 
stroke-linecap:round; stroke-linejoin:round;">
</g>
<g style="fill:#000000; fill-opacity:0.0; 
stroke:#000000; stroke-width:150000.000000; stroke-opacity:1; 
stroke-linecap:round; stroke-linejoin:round;">
<text x="178002200.000000" y="177757200.000000"
textLength="300000.000000" font-size="2000000.000000" lengthAdjust="spacingAndGlyphs"
text-anchor="start" opacity="0"></text>
<g class="stroked-text"><desc></desc>
</g></g>
<g style="fill:#000000; fill-opacity:0.0; 
stroke:#000000; stroke-width:21200.000000; stroke-opacity:1; 
stroke-linecap:round; stroke-linejoin:round;">
</g>
<g style="fill:#000000; fill-opacity:0.0; 
stroke:#000000; stroke-width:150000.000000; stroke-opacity:1; 
stroke-linecap:round; stroke-linejoin:round;">
<text x="178002200.000000" y="174757200.000000"
textLength="150000.000000" font-size="2000000.000000" lengthAdjust="spacingAndGlyphs"
text-anchor="start" opacity="0"></text>
<g class="stroked-text"><desc></desc>
</g></g>
<g style="fill:#000000; fill-opacity:0.0; 
stroke:#000000; stroke-width:21200.000000; stroke-opacity:1; 
stroke-linecap:round; stroke-linejoin:round;">
</g>
<g style="fill:#000000; fill-opacity:0.0; 
stroke:#000000; stroke-width:150000.000000; stroke-opacity:1; 
stroke-linecap:round; stroke-linejoin:round;">
<text x="178002200.000000" y="171757200.000000"
textLength="150000.000000" font-size="2000000.000000" lengthAdjust="spacingAndGlyphs"
text-anchor="start" opacity="0"></text>
<g class="stroked-text"><desc></desc>
</g></g>
<g style="fill:#000000; fill-opacity:0.0; 
stroke:#000000; stroke-width:21200.000000; stroke-opacity:1; 
stroke-linecap:round; stroke-linejoin:round;">
</g>
<g style="fill:#000000; fill-opacity:0.0; 
stroke:#000000; stroke-width:150000.000000; stroke-opacity:1; 
stroke-linecap:round; stroke-linejoin:round;">
<text x="178002200.000000" y="168757200.000000"
textLength="150000.000000" font-size="2000000.000000" lengthAdjust="spacingAndGlyphs"
text-anchor="start" opacity="0"></text>
<g class="stroked-text"><desc></desc>
</g></g>
<g style="fill:#000000; fill-opacity:0.0; 
stroke:#000000; stroke-width:21200.000000; stroke-opacity:1; 
stroke-linecap:round; stroke-linejoin:round;">
</g>
<g style="fill:#000000; fill-opacity:0.0; 
stroke:#000000; stroke-width:150000.000000; stroke-opacity:1; 
stroke-linecap:round; stroke-linejoin:round;">
<path d="M197002200 191507200
L197002200 194507200
" />
</g>
<g style="fill:#000000; fill-opacity:0.0; 
stroke:#000000; stroke-width:21200.000000; stroke-opacity:1; 
stroke-linecap:round; stroke-linejoin:round;">
</g>
<g style="fill:#000000; fill-opacity:0.0; 
stroke:#000000; stroke-width:150000.000000; stroke-opacity:1; 
stroke-linecap:round; stroke-linejoin:round;">
<path d="M261002200 191507200
L261002200 198007200
" />
</g>
<g style="fill:#AFAFAF; fill-opacity:0.0; 
stroke:#AFAFAF; stroke-width:150000.000000; stroke-opacity:1; 
stroke-linecap:round; stroke-linejoin:round;">
<text x="76200000.000000" y="54950000.000000"
textLength="11007143.000000" font-size="1333333.000000" lengthAdjust="spacingAndGlyphs"
text-anchor="middle" opacity="0">Sensor sonoro</text>
<g class="stroked-text"><desc>Sensor sonoro</desc>
<path d="M70961904 54854761
L71104761 54902380
L71342857 54902380
L71438095 54854761
L71485714 54807142
L71533333 54711904
L71533333 54616666
L71485714 54521428
L71438095 54473809
L71342857 54426190
L71152380 54378571
L71057142 54330952
L71009523 54283333
L70961904 54188095
L70961904 54092857
L71009523 53997619
L71057142 53950000
L71152380 53902380
L71390476 53902380
L71533333 53950000
" />
<path d="M72342857 54854761
L72247619 54902380
L72057142 54902380
L71961904 54854761
L71914285 54759523
L71914285 54378571
L71961904 54283333
L72057142 54235714
L72247619 54235714
L72342857 54283333
L72390476 54378571
L72390476 54473809
L71914285 54569047
" />
<path d="M72819047 54235714
L72819047 54902380
" />
<path d="M72819047 54330952
L72866666 54283333
L72961904 54235714
L73104761 54235714
L73200000 54283333
L73247619 54378571
L73247619 54902380
" />
<path d="M73676190 54854761
L73771428 54902380
L73961904 54902380
L74057142 54854761
L74104761 54759523
L74104761 54711904
L74057142 54616666
L73961904 54569047
L73819047 54569047
L73723809 54521428
L73676190 54426190
L73676190 54378571
L73723809 54283333
L73819047 54235714
L73961904 54235714
L74057142 54283333
" />
<path d="M74676190 54902380
L74580952 54854761
L74533333 54807142
L74485714 54711904
L74485714 54426190
L74533333 54330952
L74580952 54283333
L74676190 54235714
L74819047 54235714
L74914285 54283333
L74961904 54330952
L75009523 54426190
L75009523 54711904
L74961904 54807142
L74914285 54854761
L74819047 54902380
L74676190 54902380
" />
<path d="M75438095 54902380
L75438095 54235714
" />
<path d="M75438095 54426190
L75485714 54330952
L75533333 54283333
L75628571 54235714
L75723809 54235714
" />
<path d="M76771428 54854761
L76866666 54902380
L77057142 54902380
L77152380 54854761
L77200000 54759523
L77200000 54711904
L77152380 54616666
L77057142 54569047
L76914285 54569047
L76819047 54521428
L76771428 54426190
L76771428 54378571
L76819047 54283333
L76914285 54235714
L77057142 54235714
L77152380 54283333
" />
<path d="M77771428 54902380
L77676190 54854761
L77628571 54807142
L77580952 54711904
L77580952 54426190
L77628571 54330952
L77676190 54283333
L77771428 54235714
L77914285 54235714
L78009523 54283333
L78057142 54330952
L78104761 54426190
L78104761 54711904
L78057142 54807142
L78009523 54854761
L77914285 54902380
L77771428 54902380
" />
<path d="M78533333 54235714
L78533333 54902380
" />
<path d="M78533333 54330952
L78580952 54283333
L78676190 54235714
L78819047 54235714
L78914285 54283333
L78961904 54378571
L78961904 54902380
" />
<path d="M79580952 54902380
L79485714 54854761
L79438095 54807142
L79390476 54711904
L79390476 54426190
L79438095 54330952
L79485714 54283333
L79580952 54235714
L79723809 54235714
L79819047 54283333
L79866666 54330952
L79914285 54426190
L79914285 54711904
L79866666 54807142
L79819047 54854761
L79723809 54902380
L79580952 54902380
" />
<path d="M80342857 54902380
L80342857 54235714
" />
<path d="M80342857 54426190
L80390476 54330952
L80438095 54283333
L80533333 54235714
L80628571 54235714
" />
<path d="M81104761 54902380
L81009523 54854761
L80961904 54807142
L80914285 54711904
L80914285 54426190
L80961904 54330952
L81009523 54283333
L81104761 54235714
L81247619 54235714
L81342857 54283333
L81390476 54330952
L81438095 54426190
L81438095 54711904
L81390476 54807142
L81342857 54854761
L81247619 54902380
L81104761 54902380
" />
</g><text x="76200000.000000" y="60850000.000000"
textLength="16528333.000000" font-size="1333333.000000" lengthAdjust="spacingAndGlyphs"
text-anchor="middle" opacity="0">KY-037-connectors1</text>
<g class="stroked-text"><desc>KY-037-connectors1</desc>
<path d="M68271428 60802380
L68271428 59802380
" />
<path d="M68842857 60802380
L68414285 60230952
" />
<path d="M68842857 59802380
L68271428 60373809
" />
<path d="M69461904 60326190
L69461904 60802380
" />
<path d="M69128571 59802380
L69461904 60326190
L69795238 59802380
" />
<path d="M70128571 60421428
L70890476 60421428
" />
<path d="M71557142 59802380
L71652380 59802380
L71747619 59850000
L71795238 59897619
L71842857 59992857
L71890476 60183333
L71890476 60421428
L71842857 60611904
L71795238 60707142
L71747619 60754761
L71652380 60802380
L71557142 60802380
L71461904 60754761
L71414285 60707142
L71366666 60611904
L71319047 60421428
L71319047 60183333
L71366666 59992857
L71414285 59897619
L71461904 59850000
L71557142 59802380
" />
<path d="M72223809 59802380
L72842857 59802380
L72509523 60183333
L72652380 60183333
L72747619 60230952
L72795238 60278571
L72842857 60373809
L72842857 60611904
L72795238 60707142
L72747619 60754761
L72652380 60802380
L72366666 60802380
L72271428 60754761
L72223809 60707142
" />
<path d="M73176190 59802380
L73842857 59802380
L73414285 60802380
" />
<path d="M74223809 60421428
L74985714 60421428
" />
<path d="M75890476 60754761
L75795238 60802380
L75604761 60802380
L75509523 60754761
L75461904 60707142
L75414285 60611904
L75414285 60326190
L75461904 60230952
L75509523 60183333
L75604761 60135714
L75795238 60135714
L75890476 60183333
" />
<path d="M76461904 60802380
L76366666 60754761
L76319047 60707142
L76271428 60611904
L76271428 60326190
L76319047 60230952
L76366666 60183333
L76461904 60135714
L76604761 60135714
L76700000 60183333
L76747619 60230952
L76795238 60326190
L76795238 60611904
L76747619 60707142
L76700000 60754761
L76604761 60802380
L76461904 60802380
" />
<path d="M77223809 60135714
L77223809 60802380
" />
<path d="M77223809 60230952
L77271428 60183333
L77366666 60135714
L77509523 60135714
L77604761 60183333
L77652380 60278571
L77652380 60802380
" />
<path d="M78128571 60135714
L78128571 60802380
" />
<path d="M78128571 60230952
L78176190 60183333
L78271428 60135714
L78414285 60135714
L78509523 60183333
L78557142 60278571
L78557142 60802380
" />
<path d="M79414285 60754761
L79319047 60802380
L79128571 60802380
L79033333 60754761
L78985714 60659523
L78985714 60278571
L79033333 60183333
L79128571 60135714
L79319047 60135714
L79414285 60183333
L79461904 60278571
L79461904 60373809
L78985714 60469047
" />
<path d="M80319047 60754761
L80223809 60802380
L80033333 60802380
L79938095 60754761
L79890476 60707142
L79842857 60611904
L79842857 60326190
L79890476 60230952
L79938095 60183333
L80033333 60135714
L80223809 60135714
L80319047 60183333
" />
<path d="M80604761 60135714
L80985714 60135714
" />
<path d="M80747619 59802380
L80747619 60659523
L80795238 60754761
L80890476 60802380
L80985714 60802380
" />
<path d="M81461904 60802380
L81366666 60754761
L81319047 60707142
L81271428 60611904
L81271428 60326190
L81319047 60230952
L81366666 60183333
L81461904 60135714
L81604761 60135714
L81700000 60183333
L81747619 60230952
L81795238 60326190
L81795238 60611904
L81747619 60707142
L81700000 60754761
L81604761 60802380
L81461904 60802380
" />
<path d="M82223809 60802380
L82223809 60135714
" />
<path d="M82223809 60326190
L82271428 60230952
L82319047 60183333
L82414285 60135714
L82509523 60135714
" />
<path d="M82795238 60754761
L82890476 60802380
L83080952 60802380
L83176190 60754761
L83223809 60659523
L83223809 60611904
L83176190 60516666
L83080952 60469047
L82938095 60469047
L82842857 60421428
L82795238 60326190
L82795238 60278571
L82842857 60183333
L82938095 60135714
L83080952 60135714
L83176190 60183333
" />
<path d="M84176190 60802380
L83604761 60802380
" />
<path d="M83890476 60802380
L83890476 59802380
L83795238 59945238
L83700000 60040476
L83604761 60088095
" />
</g><text x="73620000.000000" y="34980000.000000"
textLength="21718810.000000" font-size="1333333.000000" lengthAdjust="spacingAndGlyphs"
text-anchor="middle" opacity="0">output_controller_interruptor</text>
<g class="stroked-text"><desc>output_controller_interruptor</desc>
<path d="M63239047 34932380
L63143809 34884761
L63096190 34837142
L63048571 34741904
L63048571 34456190
L63096190 34360952
L63143809 34313333
L63239047 34265714
L63381904 34265714
L63477142 34313333
L63524761 34360952
L63572380 34456190
L63572380 34741904
L63524761 34837142
L63477142 34884761
L63381904 34932380
L63239047 34932380
" />
<path d="M64429523 34265714
L64429523 34932380
" />
<path d="M64000952 34265714
L64000952 34789523
L64048571 34884761
L64143809 34932380
L64286666 34932380
L64381904 34884761
L64429523 34837142
" />
<path d="M64762857 34265714
L65143809 34265714
" />
<path d="M64905714 33932380
L64905714 34789523
L64953333 34884761
L65048571 34932380
L65143809 34932380
" />
<path d="M65477142 34265714
L65477142 35265714
" />
<path d="M65477142 34313333
L65572380 34265714
L65762857 34265714
L65858095 34313333
L65905714 34360952
L65953333 34456190
L65953333 34741904
L65905714 34837142
L65858095 34884761
L65762857 34932380
L65572380 34932380
L65477142 34884761
" />
<path d="M66810476 34265714
L66810476 34932380
" />
<path d="M66381904 34265714
L66381904 34789523
L66429523 34884761
L66524761 34932380
L66667619 34932380
L66762857 34884761
L66810476 34837142
" />
<path d="M67143809 34265714
L67524761 34265714
" />
<path d="M67286666 33932380
L67286666 34789523
L67334285 34884761
L67429523 34932380
L67524761 34932380
" />
<path d="M67620000 35027619
L68381904 35027619
" />
<path d="M69048571 34884761
L68953333 34932380
L68762857 34932380
L68667619 34884761
L68620000 34837142
L68572380 34741904
L68572380 34456190
L68620000 34360952
L68667619 34313333
L68762857 34265714
L68953333 34265714
L69048571 34313333
" />
<path d="M69620000 34932380
L69524761 34884761
L69477142 34837142
L69429523 34741904
L69429523 34456190
L69477142 34360952
L69524761 34313333
L69620000 34265714
L69762857 34265714
L69858095 34313333
L69905714 34360952
L69953333 34456190
L69953333 34741904
L69905714 34837142
L69858095 34884761
L69762857 34932380
L69620000 34932380
" />
<path d="M70381904 34265714
L70381904 34932380
" />
<path d="M70381904 34360952
L70429523 34313333
L70524761 34265714
L70667619 34265714
L70762857 34313333
L70810476 34408571
L70810476 34932380
" />
<path d="M71143809 34265714
L71524761 34265714
" />
<path d="M71286666 33932380
L71286666 34789523
L71334285 34884761
L71429523 34932380
L71524761 34932380
" />
<path d="M71858095 34932380
L71858095 34265714
" />
<path d="M71858095 34456190
L71905714 34360952
L71953333 34313333
L72048571 34265714
L72143809 34265714
" />
<path d="M72620000 34932380
L72524761 34884761
L72477142 34837142
L72429523 34741904
L72429523 34456190
L72477142 34360952
L72524761 34313333
L72620000 34265714
L72762857 34265714
L72858095 34313333
L72905714 34360952
L72953333 34456190
L72953333 34741904
L72905714 34837142
L72858095 34884761
L72762857 34932380
L72620000 34932380
" />
<path d="M73524761 34932380
L73429523 34884761
L73381904 34789523
L73381904 33932380
" />
<path d="M74048571 34932380
L73953333 34884761
L73905714 34789523
L73905714 33932380
" />
<path d="M74810476 34884761
L74715238 34932380
L74524761 34932380
L74429523 34884761
L74381904 34789523
L74381904 34408571
L74429523 34313333
L74524761 34265714
L74715238 34265714
L74810476 34313333
L74858095 34408571
L74858095 34503809
L74381904 34599047
" />
<path d="M75286666 34932380
L75286666 34265714
" />
<path d="M75286666 34456190
L75334285 34360952
L75381904 34313333
L75477142 34265714
L75572380 34265714
" />
<path d="M75667619 35027619
L76429523 35027619
" />
<path d="M76667619 34932380
L76667619 34265714
" />
<path d="M76667619 33932380
L76620000 33980000
L76667619 34027619
L76715238 33980000
L76667619 33932380
L76667619 34027619
" />
<path d="M77143809 34265714
L77143809 34932380
" />
<path d="M77143809 34360952
L77191428 34313333
L77286666 34265714
L77429523 34265714
L77524761 34313333
L77572380 34408571
L77572380 34932380
" />
<path d="M77905714 34265714
L78286666 34265714
" />
<path d="M78048571 33932380
L78048571 34789523
L78096190 34884761
L78191428 34932380
L78286666 34932380
" />
<path d="M79000952 34884761
L78905714 34932380
L78715238 34932380
L78620000 34884761
L78572380 34789523
L78572380 34408571
L78620000 34313333
L78715238 34265714
L78905714 34265714
L79000952 34313333
L79048571 34408571
L79048571 34503809
L78572380 34599047
" />
<path d="M79477142 34932380
L79477142 34265714
" />
<path d="M79477142 34456190
L79524761 34360952
L79572380 34313333
L79667619 34265714
L79762857 34265714
" />
<path d="M80096190 34932380
L80096190 34265714
" />
<path d="M80096190 34456190
L80143809 34360952
L80191428 34313333
L80286666 34265714
L80381904 34265714
" />
<path d="M81143809 34265714
L81143809 34932380
" />
<path d="M80715238 34265714
L80715238 34789523
L80762857 34884761
L80858095 34932380
L81000952 34932380
L81096190 34884761
L81143809 34837142
" />
<path d="M81620000 34265714
L81620000 35265714
" />
<path d="M81620000 34313333
L81715238 34265714
L81905714 34265714
L82000952 34313333
L82048571 34360952
L82096190 34456190
L82096190 34741904
L82048571 34837142
L82000952 34884761
L81905714 34932380
L81715238 34932380
L81620000 34884761
" />
<path d="M82381904 34265714
L82762857 34265714
" />
<path d="M82524761 33932380
L82524761 34789523
L82572380 34884761
L82667619 34932380
L82762857 34932380
" />
<path d="M83239047 34932380
L83143809 34884761
L83096190 34837142
L83048571 34741904
L83048571 34456190
L83096190 34360952
L83143809 34313333
L83239047 34265714
L83381904 34265714
L83477142 34313333
L83524761 34360952
L83572380 34456190
L83572380 34741904
L83524761 34837142
L83477142 34884761
L83381904 34932380
L83239047 34932380
" />
<path d="M84000952 34932380
L84000952 34265714
" />
<path d="M84000952 34456190
L84048571 34360952
L84096190 34313333
L84191428 34265714
L84286666 34265714
" />
</g><text x="73620000.000000" y="30980000.000000"
textLength="1909286.000000" font-size="1333333.000000" lengthAdjust="spacingAndGlyphs"
text-anchor="middle" opacity="0">J1</text>
<g class="stroked-text"><desc>J1</desc>
<path d="M73286666 29932380
L73286666 30646666
L73239047 30789523
L73143809 30884761
L73000952 30932380
L72905714 30932380
" />
<path d="M74286666 30932380
L73715238 30932380
" />
<path d="M74000952 30932380
L74000952 29932380
L73905714 30075238
L73810476 30170476
L73715238 30218095
" />
</g><g transform="rotate(-90.000000 87470000.000000 43180000.000000)">
<text x="87470000.000000" y="43680000.000000"
textLength="15242619.000000" font-size="1333333.000000" lengthAdjust="spacingAndGlyphs"
text-anchor="middle" opacity="0">Sensor de presena</text>
</g>
<g class="stroked-text"><desc>Sensor de presena</desc>
<path d="M87874761 50513333
L87922380 50370476
L87922380 50132380
L87874761 50037142
L87827142 49989523
L87731904 49941904
L87636666 49941904
L87541428 49989523
L87493809 50037142
L87446190 50132380
L87398571 50322857
L87350952 50418095
L87303333 50465714
L87208095 50513333
L87112857 50513333
L87017619 50465714
L86970000 50418095
L86922380 50322857
L86922380 50084761
L86970000 49941904
" />
<path d="M87874761 49132380
L87922380 49227619
L87922380 49418095
L87874761 49513333
L87779523 49560952
L87398571 49560952
L87303333 49513333
L87255714 49418095
L87255714 49227619
L87303333 49132380
L87398571 49084761
L87493809 49084761
L87589047 49560952
" />
<path d="M87255714 48656190
L87922380 48656190
" />
<path d="M87350952 48656190
L87303333 48608571
L87255714 48513333
L87255714 48370476
L87303333 48275238
L87398571 48227619
L87922380 48227619
" />
<path d="M87874761 47799047
L87922380 47703809
L87922380 47513333
L87874761 47418095
L87779523 47370476
L87731904 47370476
L87636666 47418095
L87589047 47513333
L87589047 47656190
L87541428 47751428
L87446190 47799047
L87398571 47799047
L87303333 47751428
L87255714 47656190
L87255714 47513333
L87303333 47418095
" />
<path d="M87922380 46799047
L87874761 46894285
L87827142 46941904
L87731904 46989523
L87446190 46989523
L87350952 46941904
L87303333 46894285
L87255714 46799047
L87255714 46656190
L87303333 46560952
L87350952 46513333
L87446190 46465714
L87731904 46465714
L87827142 46513333
L87874761 46560952
L87922380 46656190
L87922380 46799047
" />
<path d="M87922380 46037142
L87255714 46037142
" />
<path d="M87446190 46037142
L87350952 45989523
L87303333 45941904
L87255714 45846666
L87255714 45751428
" />
<path d="M87922380 44227619
L86922380 44227619
" />
<path d="M87874761 44227619
L87922380 44322857
L87922380 44513333
L87874761 44608571
L87827142 44656190
L87731904 44703809
L87446190 44703809
L87350952 44656190
L87303333 44608571
L87255714 44513333
L87255714 44322857
L87303333 44227619
" />
<path d="M87874761 43370476
L87922380 43465714
L87922380 43656190
L87874761 43751428
L87779523 43799047
L87398571 43799047
L87303333 43751428
L87255714 43656190
L87255714 43465714
L87303333 43370476
L87398571 43322857
L87493809 43322857
L87589047 43799047
" />
<path d="M87255714 42132380
L88255714 42132380
" />
<path d="M87303333 42132380
L87255714 42037142
L87255714 41846666
L87303333 41751428
L87350952 41703809
L87446190 41656190
L87731904 41656190
L87827142 41703809
L87874761 41751428
L87922380 41846666
L87922380 42037142
L87874761 42132380
" />
<path d="M87922380 41227619
L87255714 41227619
" />
<path d="M87446190 41227619
L87350952 41180000
L87303333 41132380
L87255714 41037142
L87255714 40941904
" />
<path d="M87874761 40227619
L87922380 40322857
L87922380 40513333
L87874761 40608571
L87779523 40656190
L87398571 40656190
L87303333 40608571
L87255714 40513333
L87255714 40322857
L87303333 40227619
L87398571 40180000
L87493809 40180000
L87589047 40656190
" />
<path d="M87874761 39799047
L87922380 39703809
L87922380 39513333
L87874761 39418095
L87779523 39370476
L87731904 39370476
L87636666 39418095
L87589047 39513333
L87589047 39656190
L87541428 39751428
L87446190 39799047
L87398571 39799047
L87303333 39751428
L87255714 39656190
L87255714 39513333
L87303333 39418095
" />
<path d="M87874761 38560952
L87922380 38656190
L87922380 38846666
L87874761 38941904
L87779523 38989523
L87398571 38989523
L87303333 38941904
L87255714 38846666
L87255714 38656190
L87303333 38560952
L87398571 38513333
L87493809 38513333
L87589047 38989523
" />
<path d="M87255714 38084761
L87922380 38084761
" />
<path d="M87350952 38084761
L87303333 38037142
L87255714 37941904
L87255714 37799047
L87303333 37703809
L87398571 37656190
L87922380 37656190
" />
<path d="M87874761 36751428
L87922380 36846666
L87922380 37037142
L87874761 37132380
L87827142 37180000
L87731904 37227619
L87446190 37227619
L87350952 37180000
L87303333 37132380
L87255714 37037142
L87255714 36846666
L87303333 36751428
" />
<path d="M87970000 36941904
L88017619 36846666
L88112857 36799047
L88208095 36846666
L88255714 36941904
L88255714 37084761
" />
<path d="M87922380 35894285
L87398571 35894285
L87303333 35941904
L87255714 36037142
L87255714 36227619
L87303333 36322857
" />
<path d="M87874761 35894285
L87922380 35989523
L87922380 36227619
L87874761 36322857
L87779523 36370476
L87684285 36370476
L87589047 36322857
L87541428 36227619
L87541428 35989523
L87493809 35894285
" />
</g><g transform="rotate(-90.000000 93370000.000000 43180000.000000)">
<text x="93370000.000000" y="43680000.000000"
textLength="18671190.000000" font-size="1333333.000000" lengthAdjust="spacingAndGlyphs"
text-anchor="middle" opacity="0">HC-SR501-connectors1</text>
</g>
<g class="stroked-text"><desc>HC-SR501-connectors1</desc>
<path d="M93822380 52180000
L92822380 52180000
" />
<path d="M93298571 52180000
L93298571 51608571
" />
<path d="M93822380 51608571
L92822380 51608571
" />
<path d="M93727142 50560952
L93774761 50608571
L93822380 50751428
L93822380 50846666
L93774761 50989523
L93679523 51084761
L93584285 51132380
L93393809 51180000
L93250952 51180000
L93060476 51132380
L92965238 51084761
L92870000 50989523
L92822380 50846666
L92822380 50751428
L92870000 50608571
L92917619 50560952
" />
<path d="M93441428 50132380
L93441428 49370476
" />
<path d="M93774761 48941904
L93822380 48799047
L93822380 48560952
L93774761 48465714
L93727142 48418095
L93631904 48370476
L93536666 48370476
L93441428 48418095
L93393809 48465714
L93346190 48560952
L93298571 48751428
L93250952 48846666
L93203333 48894285
L93108095 48941904
L93012857 48941904
L92917619 48894285
L92870000 48846666
L92822380 48751428
L92822380 48513333
L92870000 48370476
" />
<path d="M93822380 47370476
L93346190 47703809
" />
<path d="M93822380 47941904
L92822380 47941904
L92822380 47560952
L92870000 47465714
L92917619 47418095
L93012857 47370476
L93155714 47370476
L93250952 47418095
L93298571 47465714
L93346190 47560952
L93346190 47941904
" />
<path d="M92822380 46465714
L92822380 46941904
L93298571 46989523
L93250952 46941904
L93203333 46846666
L93203333 46608571
L93250952 46513333
L93298571 46465714
L93393809 46418095
L93631904 46418095
L93727142 46465714
L93774761 46513333
L93822380 46608571
L93822380 46846666
L93774761 46941904
L93727142 46989523
" />
<path d="M92822380 45799047
L92822380 45703809
L92870000 45608571
L92917619 45560952
L93012857 45513333
L93203333 45465714
L93441428 45465714
L93631904 45513333
L93727142 45560952
L93774761 45608571
L93822380 45703809
L93822380 45799047
L93774761 45894285
L93727142 45941904
L93631904 45989523
L93441428 46037142
L93203333 46037142
L93012857 45989523
L92917619 45941904
L92870000 45894285
L92822380 45799047
" />
<path d="M93822380 44513333
L93822380 45084761
" />
<path d="M93822380 44799047
L92822380 44799047
L92965238 44894285
L93060476 44989523
L93108095 45084761
" />
<path d="M93441428 44084761
L93441428 43322857
" />
<path d="M93774761 42418095
L93822380 42513333
L93822380 42703809
L93774761 42799047
L93727142 42846666
L93631904 42894285
L93346190 42894285
L93250952 42846666
L93203333 42799047
L93155714 42703809
L93155714 42513333
L93203333 42418095
" />
<path d="M93822380 41846666
L93774761 41941904
L93727142 41989523
L93631904 42037142
L93346190 42037142
L93250952 41989523
L93203333 41941904
L93155714 41846666
L93155714 41703809
L93203333 41608571
L93250952 41560952
L93346190 41513333
L93631904 41513333
L93727142 41560952
L93774761 41608571
L93822380 41703809
L93822380 41846666
" />
<path d="M93155714 41084761
L93822380 41084761
" />
<path d="M93250952 41084761
L93203333 41037142
L93155714 40941904
L93155714 40799047
L93203333 40703809
L93298571 40656190
L93822380 40656190
" />
<path d="M93155714 40180000
L93822380 40180000
" />
<path d="M93250952 40180000
L93203333 40132380
L93155714 40037142
L93155714 39894285
L93203333 39799047
L93298571 39751428
L93822380 39751428
" />
<path d="M93774761 38894285
L93822380 38989523
L93822380 39180000
L93774761 39275238
L93679523 39322857
L93298571 39322857
L93203333 39275238
L93155714 39180000
L93155714 38989523
L93203333 38894285
L93298571 38846666
L93393809 38846666
L93489047 39322857
" />
<path d="M93774761 37989523
L93822380 38084761
L93822380 38275238
L93774761 38370476
L93727142 38418095
L93631904 38465714
L93346190 38465714
L93250952 38418095
L93203333 38370476
L93155714 38275238
L93155714 38084761
L93203333 37989523
" />
<path d="M93155714 37703809
L93155714 37322857
" />
<path d="M92822380 37560952
L93679523 37560952
L93774761 37513333
L93822380 37418095
L93822380 37322857
" />
<path d="M93822380 36846666
L93774761 36941904
L93727142 36989523
L93631904 37037142
L93346190 37037142
L93250952 36989523
L93203333 36941904
L93155714 36846666
L93155714 36703809
L93203333 36608571
L93250952 36560952
L93346190 36513333
L93631904 36513333
L93727142 36560952
L93774761 36608571
L93822380 36703809
L93822380 36846666
" />
<path d="M93822380 36084761
L93155714 36084761
" />
<path d="M93346190 36084761
L93250952 36037142
L93203333 35989523
L93155714 35894285
L93155714 35799047
" />
<path d="M93774761 35513333
L93822380 35418095
L93822380 35227619
L93774761 35132380
L93679523 35084761
L93631904 35084761
L93536666 35132380
L93489047 35227619
L93489047 35370476
L93441428 35465714
L93346190 35513333
L93298571 35513333
L93203333 35465714
L93155714 35370476
L93155714 35227619
L93203333 35132380
" />
<path d="M93822380 34132380
L93822380 34703809
" />
<path d="M93822380 34418095
L92822380 34418095
L92965238 34513333
L93060476 34608571
L93108095 34703809
" />
</g><g transform="rotate(-90.000000 54420000.000000 45680000.000000)">
<text x="54420000.000000" y="46180000.000000"
textLength="10671190.000000" font-size="1333333.000000" lengthAdjust="spacingAndGlyphs"
text-anchor="middle" opacity="0">pinos machos</text>
</g>
<g class="stroked-text"><desc>pinos machos</desc>
<path d="M54205714 50680000
L55205714 50680000
" />
<path d="M54253333 50680000
L54205714 50584761
L54205714 50394285
L54253333 50299047
L54300952 50251428
L54396190 50203809
L54681904 50203809
L54777142 50251428
L54824761 50299047
L54872380 50394285
L54872380 50584761
L54824761 50680000
" />
<path d="M54872380 49775238
L54205714 49775238
" />
<path d="M53872380 49775238
L53920000 49822857
L53967619 49775238
L53920000 49727619
L53872380 49775238
L53967619 49775238
" />
<path d="M54205714 49299047
L54872380 49299047
" />
<path d="M54300952 49299047
L54253333 49251428
L54205714 49156190
L54205714 49013333
L54253333 48918095
L54348571 48870476
L54872380 48870476
" />
<path d="M54872380 48251428
L54824761 48346666
L54777142 48394285
L54681904 48441904
L54396190 48441904
L54300952 48394285
L54253333 48346666
L54205714 48251428
L54205714 48108571
L54253333 48013333
L54300952 47965714
L54396190 47918095
L54681904 47918095
L54777142 47965714
L54824761 48013333
L54872380 48108571
L54872380 48251428
" />
<path d="M54824761 47537142
L54872380 47441904
L54872380 47251428
L54824761 47156190
L54729523 47108571
L54681904 47108571
L54586666 47156190
L54539047 47251428
L54539047 47394285
L54491428 47489523
L54396190 47537142
L54348571 47537142
L54253333 47489523
L54205714 47394285
L54205714 47251428
L54253333 47156190
" />
<path d="M54872380 45918095
L54205714 45918095
" />
<path d="M54300952 45918095
L54253333 45870476
L54205714 45775238
L54205714 45632380
L54253333 45537142
L54348571 45489523
L54872380 45489523
" />
<path d="M54348571 45489523
L54253333 45441904
L54205714 45346666
L54205714 45203809
L54253333 45108571
L54348571 45060952
L54872380 45060952
" />
<path d="M54872380 44156190
L54348571 44156190
L54253333 44203809
L54205714 44299047
L54205714 44489523
L54253333 44584761
" />
<path d="M54824761 44156190
L54872380 44251428
L54872380 44489523
L54824761 44584761
L54729523 44632380
L54634285 44632380
L54539047 44584761
L54491428 44489523
L54491428 44251428
L54443809 44156190
" />
<path d="M54824761 43251428
L54872380 43346666
L54872380 43537142
L54824761 43632380
L54777142 43680000
L54681904 43727619
L54396190 43727619
L54300952 43680000
L54253333 43632380
L54205714 43537142
L54205714 43346666
L54253333 43251428
" />
<path d="M54872380 42822857
L53872380 42822857
" />
<path d="M54872380 42394285
L54348571 42394285
L54253333 42441904
L54205714 42537142
L54205714 42680000
L54253333 42775238
L54300952 42822857
" />
<path d="M54872380 41775238
L54824761 41870476
L54777142 41918095
L54681904 41965714
L54396190 41965714
L54300952 41918095
L54253333 41870476
L54205714 41775238
L54205714 41632380
L54253333 41537142
L54300952 41489523
L54396190 41441904
L54681904 41441904
L54777142 41489523
L54824761 41537142
L54872380 41632380
L54872380 41775238
" />
<path d="M54824761 41060952
L54872380 40965714
L54872380 40775238
L54824761 40680000
L54729523 40632380
L54681904 40632380
L54586666 40680000
L54539047 40775238
L54539047 40918095
L54491428 41013333
L54396190 41060952
L54348571 41060952
L54253333 41013333
L54205714 40918095
L54205714 40775238
L54253333 40680000
" />
</g><g transform="rotate(-90.000000 58420000.000000 45680000.000000)">
<text x="58420000.000000" y="46180000.000000"
textLength="10242619.000000" font-size="1333333.000000" lengthAdjust="spacingAndGlyphs"
text-anchor="middle" opacity="0">Alimentao1</text>
</g>
<g class="stroked-text"><desc>Alimentao1</desc>
<path d="M58586666 50513333
L58586666 50037142
" />
<path d="M58872380 50608571
L57872380 50275238
L58872380 49941904
" />
<path d="M58872380 49465714
L58824761 49560952
L58729523 49608571
L57872380 49608571
" />
<path d="M58872380 49084761
L58205714 49084761
" />
<path d="M57872380 49084761
L57920000 49132380
L57967619 49084761
L57920000 49037142
L57872380 49084761
L57967619 49084761
" />
<path d="M58872380 48608571
L58205714 48608571
" />
<path d="M58300952 48608571
L58253333 48560952
L58205714 48465714
L58205714 48322857
L58253333 48227619
L58348571 48180000
L58872380 48180000
" />
<path d="M58348571 48180000
L58253333 48132380
L58205714 48037142
L58205714 47894285
L58253333 47799047
L58348571 47751428
L58872380 47751428
" />
<path d="M58824761 46894285
L58872380 46989523
L58872380 47180000
L58824761 47275238
L58729523 47322857
L58348571 47322857
L58253333 47275238
L58205714 47180000
L58205714 46989523
L58253333 46894285
L58348571 46846666
L58443809 46846666
L58539047 47322857
" />
<path d="M58205714 46418095
L58872380 46418095
" />
<path d="M58300952 46418095
L58253333 46370476
L58205714 46275238
L58205714 46132380
L58253333 46037142
L58348571 45989523
L58872380 45989523
" />
<path d="M58205714 45656190
L58205714 45275238
" />
<path d="M57872380 45513333
L58729523 45513333
L58824761 45465714
L58872380 45370476
L58872380 45275238
" />
<path d="M58872380 44513333
L58348571 44513333
L58253333 44560952
L58205714 44656190
L58205714 44846666
L58253333 44941904
" />
<path d="M58824761 44513333
L58872380 44608571
L58872380 44846666
L58824761 44941904
L58729523 44989523
L58634285 44989523
L58539047 44941904
L58491428 44846666
L58491428 44608571
L58443809 44513333
" />
<path d="M58824761 43608571
L58872380 43703809
L58872380 43894285
L58824761 43989523
L58777142 44037142
L58681904 44084761
L58396190 44084761
L58300952 44037142
L58253333 43989523
L58205714 43894285
L58205714 43703809
L58253333 43608571
" />
<path d="M58920000 43799047
L58967619 43703809
L59062857 43656190
L59158095 43703809
L59205714 43799047
L59205714 43941904
" />
<path d="M58872380 42751428
L58348571 42751428
L58253333 42799047
L58205714 42894285
L58205714 43084761
L58253333 43180000
" />
<path d="M58824761 42751428
L58872380 42846666
L58872380 43084761
L58824761 43180000
L58729523 43227619
L58634285 43227619
L58539047 43180000
L58491428 43084761
L58491428 42846666
L58443809 42751428
" />
<path d="M57967619 43227619
L57920000 43180000
L57872380 43084761
L57967619 42894285
L57920000 42799047
L57872380 42751428
" />
<path d="M58872380 42132380
L58824761 42227619
L58777142 42275238
L58681904 42322857
L58396190 42322857
L58300952 42275238
L58253333 42227619
L58205714 42132380
L58205714 41989523
L58253333 41894285
L58300952 41846666
L58396190 41799047
L58681904 41799047
L58777142 41846666
L58824761 41894285
L58872380 41989523
L58872380 42132380
" />
<path d="M58872380 40846666
L58872380 41418095
" />
<path d="M58872380 41132380
L57872380 41132380
L58015238 41227619
L58110476 41322857
L58158095 41418095
" />
</g><text x="73660000.000000" y="48650000.000000"
textLength="8718810.000000" font-size="1333333.000000" lengthAdjust="spacingAndGlyphs"
text-anchor="middle" opacity="0">ESP8266EX</text>
<g class="stroked-text"><desc>ESP8266EX</desc>
<path d="M69636190 48078571
L69969523 48078571
" />
<path d="M70112380 48602380
L69636190 48602380
L69636190 47602380
L70112380 47602380
" />
<path d="M70493333 48554761
L70636190 48602380
L70874285 48602380
L70969523 48554761
L71017142 48507142
L71064761 48411904
L71064761 48316666
L71017142 48221428
L70969523 48173809
L70874285 48126190
L70683809 48078571
L70588571 48030952
L70540952 47983333
L70493333 47888095
L70493333 47792857
L70540952 47697619
L70588571 47650000
L70683809 47602380
L70921904 47602380
L71064761 47650000
" />
<path d="M71493333 48602380
L71493333 47602380
L71874285 47602380
L71969523 47650000
L72017142 47697619
L72064761 47792857
L72064761 47935714
L72017142 48030952
L71969523 48078571
L71874285 48126190
L71493333 48126190
" />
<path d="M72636190 48030952
L72540952 47983333
L72493333 47935714
L72445714 47840476
L72445714 47792857
L72493333 47697619
L72540952 47650000
L72636190 47602380
L72826666 47602380
L72921904 47650000
L72969523 47697619
L73017142 47792857
L73017142 47840476
L72969523 47935714
L72921904 47983333
L72826666 48030952
L72636190 48030952
L72540952 48078571
L72493333 48126190
L72445714 48221428
L72445714 48411904
L72493333 48507142
L72540952 48554761
L72636190 48602380
L72826666 48602380
L72921904 48554761
L72969523 48507142
L73017142 48411904
L73017142 48221428
L72969523 48126190
L72921904 48078571
L72826666 48030952
" />
<path d="M73398095 47697619
L73445714 47650000
L73540952 47602380
L73779047 47602380
L73874285 47650000
L73921904 47697619
L73969523 47792857
L73969523 47888095
L73921904 48030952
L73350476 48602380
L73969523 48602380
" />
<path d="M74826666 47602380
L74636190 47602380
L74540952 47650000
L74493333 47697619
L74398095 47840476
L74350476 48030952
L74350476 48411904
L74398095 48507142
L74445714 48554761
L74540952 48602380
L74731428 48602380
L74826666 48554761
L74874285 48507142
L74921904 48411904
L74921904 48173809
L74874285 48078571
L74826666 48030952
L74731428 47983333
L74540952 47983333
L74445714 48030952
L74398095 48078571
L74350476 48173809
" />
<path d="M75779047 47602380
L75588571 47602380
L75493333 47650000
L75445714 47697619
L75350476 47840476
L75302857 48030952
L75302857 48411904
L75350476 48507142
L75398095 48554761
L75493333 48602380
L75683809 48602380
L75779047 48554761
L75826666 48507142
L75874285 48411904
L75874285 48173809
L75826666 48078571
L75779047 48030952
L75683809 47983333
L75493333 47983333
L75398095 48030952
L75350476 48078571
L75302857 48173809
" />
<path d="M76302857 48078571
L76636190 48078571
" />
<path d="M76779047 48602380
L76302857 48602380
L76302857 47602380
L76779047 47602380
" />
<path d="M77112380 47602380
L77779047 48602380
" />
<path d="M77779047 47602380
L77112380 48602380
" />
</g><text x="73660000.000000" y="44830000.000000"
textLength="13766429.000000" font-size="1333333.000000" lengthAdjust="spacingAndGlyphs"
text-anchor="middle" opacity="0">Microcontrolador1</text>
<g class="stroked-text"><desc>Microcontrolador1</desc>
<path d="M67112380 44782380
L67112380 43782380
L67445714 44496666
L67779047 43782380
L67779047 44782380
" />
<path d="M68255238 44782380
L68255238 44115714
" />
<path d="M68255238 43782380
L68207619 43830000
L68255238 43877619
L68302857 43830000
L68255238 43782380
L68255238 43877619
" />
<path d="M69160000 44734761
L69064761 44782380
L68874285 44782380
L68779047 44734761
L68731428 44687142
L68683809 44591904
L68683809 44306190
L68731428 44210952
L68779047 44163333
L68874285 44115714
L69064761 44115714
L69160000 44163333
" />
<path d="M69588571 44782380
L69588571 44115714
" />
<path d="M69588571 44306190
L69636190 44210952
L69683809 44163333
L69779047 44115714
L69874285 44115714
" />
<path d="M70350476 44782380
L70255238 44734761
L70207619 44687142
L70160000 44591904
L70160000 44306190
L70207619 44210952
L70255238 44163333
L70350476 44115714
L70493333 44115714
L70588571 44163333
L70636190 44210952
L70683809 44306190
L70683809 44591904
L70636190 44687142
L70588571 44734761
L70493333 44782380
L70350476 44782380
" />
<path d="M71540952 44734761
L71445714 44782380
L71255238 44782380
L71160000 44734761
L71112380 44687142
L71064761 44591904
L71064761 44306190
L71112380 44210952
L71160000 44163333
L71255238 44115714
L71445714 44115714
L71540952 44163333
" />
<path d="M72112380 44782380
L72017142 44734761
L71969523 44687142
L71921904 44591904
L71921904 44306190
L71969523 44210952
L72017142 44163333
L72112380 44115714
L72255238 44115714
L72350476 44163333
L72398095 44210952
L72445714 44306190
L72445714 44591904
L72398095 44687142
L72350476 44734761
L72255238 44782380
L72112380 44782380
" />
<path d="M72874285 44115714
L72874285 44782380
" />
<path d="M72874285 44210952
L72921904 44163333
L73017142 44115714
L73160000 44115714
L73255238 44163333
L73302857 44258571
L73302857 44782380
" />
<path d="M73636190 44115714
L74017142 44115714
" />
<path d="M73779047 43782380
L73779047 44639523
L73826666 44734761
L73921904 44782380
L74017142 44782380
" />
<path d="M74350476 44782380
L74350476 44115714
" />
<path d="M74350476 44306190
L74398095 44210952
L74445714 44163333
L74540952 44115714
L74636190 44115714
" />
<path d="M75112380 44782380
L75017142 44734761
L74969523 44687142
L74921904 44591904
L74921904 44306190
L74969523 44210952
L75017142 44163333
L75112380 44115714
L75255238 44115714
L75350476 44163333
L75398095 44210952
L75445714 44306190
L75445714 44591904
L75398095 44687142
L75350476 44734761
L75255238 44782380
L75112380 44782380
" />
<path d="M76017142 44782380
L75921904 44734761
L75874285 44639523
L75874285 43782380
" />
<path d="M76826666 44782380
L76826666 44258571
L76779047 44163333
L76683809 44115714
L76493333 44115714
L76398095 44163333
" />
<path d="M76826666 44734761
L76731428 44782380
L76493333 44782380
L76398095 44734761
L76350476 44639523
L76350476 44544285
L76398095 44449047
L76493333 44401428
L76731428 44401428
L76826666 44353809
" />
<path d="M77731428 44782380
L77731428 43782380
" />
<path d="M77731428 44734761
L77636190 44782380
L77445714 44782380
L77350476 44734761
L77302857 44687142
L77255238 44591904
L77255238 44306190
L77302857 44210952
L77350476 44163333
L77445714 44115714
L77636190 44115714
L77731428 44163333
" />
<path d="M78350476 44782380
L78255238 44734761
L78207619 44687142
L78160000 44591904
L78160000 44306190
L78207619 44210952
L78255238 44163333
L78350476 44115714
L78493333 44115714
L78588571 44163333
L78636190 44210952
L78683809 44306190
L78683809 44591904
L78636190 44687142
L78588571 44734761
L78493333 44782380
L78350476 44782380
" />
<path d="M79112380 44782380
L79112380 44115714
" />
<path d="M79112380 44306190
L79160000 44210952
L79207619 44163333
L79302857 44115714
L79398095 44115714
" />
<path d="M80255238 44782380
L79683809 44782380
" />
<path d="M79969523 44782380
L79969523 43782380
L79874285 43925238
L79779047 44020476
L79683809 44068095
" />
</g></g>
<g style="fill:#AFAFAF; fill-opacity:0.0; 
stroke:#AFAFAF; stroke-width:100000.000000; stroke-opacity:1; 
stroke-linecap:round; stroke-linejoin:round;">
<path d="M69500000.000000 66650000.000000 A1000000.000000 1000000.000000 0.0 0 0 69500000.000000 68650000.000000" />
<path d="M82900000.000000 68650000.000000 A1000000.000000 1000000.000000 0.0 0 0 82900000.000000 66650000.000000" />
<path d="M70450000 70850000
L70450000 68650000
" />
<path d="M70450000 66650000
L69500000 66650000
" />
<path d="M81950000 70850000
L70450000 70850000
" />
<path d="M77950000 70850000
L77950000 61850000
" />
<path d="M70450000 66650000
L70450000 61850000
" />
<path d="M70450000 68650000
L69500000 68650000
" />
<path d="M81950000 61850000
L70450000 61850000
" />
<path d="M81950000 66650000
L81950000 61850000
" />
<path d="M82900000 66650000
L81950000 66650000
" />
<path d="M81950000 70850000
L81950000 68650000
" />
<path d="M82900000 68650000
L81950000 68650000
" />
<path d="M70220000 33080000
L78720000 33080000
" />
<path d="M68520000 31780000
L70220000 33080000
" />
<path d="M68520000 29180000
L70220000 27880000
" />
<path d="M78720000 27880000
L78720000 33080000
" />
<path d="M70220000 27880000
L78720000 27880000
" />
<path d="M68520000 29180000
L68520000 31780000
" />
<path d="M99670000.000000 49880000.000000 A1000000.000000 1000000.000000 0.0 0 0 101670000.000000 49880000.000000" />
<path d="M101670000.000000 36480000.000000 A1000000.000000 1000000.000000 0.0 0 0 99670000.000000 36480000.000000" />
<path d="M103870000 48930000
L101670000 48930000
" />
<path d="M99670000 48930000
L99670000 49880000
" />
<path d="M103870000 37430000
L103870000 48930000
" />
<path d="M103870000 41430000
L94870000 41430000
" />
<path d="M99670000 48930000
L94870000 48930000
" />
<path d="M101670000 48930000
L101670000 49880000
" />
<path d="M94870000 37430000
L94870000 48930000
" />
<path d="M99670000 37430000
L94870000 37430000
" />
<path d="M99670000 36480000
L99670000 37430000
" />
<path d="M103870000 37430000
L101670000 37430000
" />
<path d="M101670000 36480000
L101670000 37430000
" />
<path d="M55820000 42280000
L55820000 50780000
" />
<path d="M57120000 40580000
L55820000 42280000
" />
<path d="M59720000 40580000
L61020000 42280000
" />
<path d="M61020000 50780000
L55820000 50780000
" />
<path d="M61020000 42280000
L61020000 50780000
" />
<path d="M59720000 40580000
L57120000 40580000
" />
<path d="M76160000 41830000
L76160000 46830000
" />
<path d="M71160000 42830000
L72160000 41830000
" />
<path d="M76160000 46830000
L71160000 46830000
" />
<path d="M72160000 41830000
L76160000 41830000
" />
<path d="M71160000 46830000
L71160000 42830000
" />
<g >
</g>
<g >
</g>
<g >
</g>
<g >
</g>
<g >
</g>
<g >
</g>
<g >
</g>
<g >
</g>
</g>
<g style="fill:#000000; fill-opacity:0.0; 
stroke:#000000; stroke-width:100000.000000; stroke-opacity:1; 
stroke-linecap:round; stroke-linejoin:round;">
<g >
</g>
<g >
</g>
<g >
</g>
<g >
</g>
<g >
</g>
<g >
</g>
<g >
</g>
<g >
</g>
</g> 
</svg>
