%TF.GenerationSoftware,KiCad,Pcbnew,(6.0.7)*%
%TF.CreationDate,2022-11-30T19:42:34-03:00*%
%TF.ProjectId,CaixaDeRemedios,43616978-6144-4655-9265-6d6564696f73,rev?*%
%TF.SameCoordinates,Original*%
%TF.FileFunction,Legend,Top*%
%TF.FilePolarity,Positive*%
%FSLAX46Y46*%
G04 Gerber Fmt 4.6, Leading zero omitted, Abs format (unit mm)*
G04 Created by KiCad (PCBNEW (6.0.7)) date 2022-11-30 19:42:34*
%MOMM*%
%LPD*%
G01*
G04 APERTURE LIST*
%ADD10C,0.150000*%
%ADD11C,0.120000*%
%ADD12R,0.850000X0.850000*%
%ADD13O,0.850000X0.850000*%
%ADD14R,2.000000X2.000000*%
%ADD15C,2.000000*%
%ADD16C,6.500000*%
%ADD17R,1.500000X3.000000*%
%ADD18O,1.500000X3.000000*%
%ADD19C,3.000000*%
%ADD20R,1.800000X2.600000*%
%ADD21O,1.800000X2.600000*%
%ADD22R,1.600000X1.600000*%
%ADD23O,1.600000X1.600000*%
%ADD24R,1.750000X0.450000*%
%ADD25R,3.000000X3.000000*%
G04 APERTURE END LIST*
D10*
%TO.C,U14*%
X153412380Y-116818095D02*
X154221904Y-116818095D01*
X154317142Y-116770476D01*
X154364761Y-116722857D01*
X154412380Y-116627619D01*
X154412380Y-116437142D01*
X154364761Y-116341904D01*
X154317142Y-116294285D01*
X154221904Y-116246666D01*
X153412380Y-116246666D01*
X154412380Y-115246666D02*
X154412380Y-115818095D01*
X154412380Y-115532380D02*
X153412380Y-115532380D01*
X153555238Y-115627619D01*
X153650476Y-115722857D01*
X153698095Y-115818095D01*
X153745714Y-114389523D02*
X154412380Y-114389523D01*
X153364761Y-114627619D02*
X154079047Y-114865714D01*
X154079047Y-114246666D01*
%TO.C,U13*%
X133092380Y-116818095D02*
X133901904Y-116818095D01*
X133997142Y-116770476D01*
X134044761Y-116722857D01*
X134092380Y-116627619D01*
X134092380Y-116437142D01*
X134044761Y-116341904D01*
X133997142Y-116294285D01*
X133901904Y-116246666D01*
X133092380Y-116246666D01*
X134092380Y-115246666D02*
X134092380Y-115818095D01*
X134092380Y-115532380D02*
X133092380Y-115532380D01*
X133235238Y-115627619D01*
X133330476Y-115722857D01*
X133378095Y-115818095D01*
X133092380Y-114913333D02*
X133092380Y-114294285D01*
X133473333Y-114627619D01*
X133473333Y-114484761D01*
X133520952Y-114389523D01*
X133568571Y-114341904D01*
X133663809Y-114294285D01*
X133901904Y-114294285D01*
X133997142Y-114341904D01*
X134044761Y-114389523D01*
X134092380Y-114484761D01*
X134092380Y-114770476D01*
X134044761Y-114865714D01*
X133997142Y-114913333D01*
%TO.C,U12*%
X112772380Y-116818095D02*
X113581904Y-116818095D01*
X113677142Y-116770476D01*
X113724761Y-116722857D01*
X113772380Y-116627619D01*
X113772380Y-116437142D01*
X113724761Y-116341904D01*
X113677142Y-116294285D01*
X113581904Y-116246666D01*
X112772380Y-116246666D01*
X113772380Y-115246666D02*
X113772380Y-115818095D01*
X113772380Y-115532380D02*
X112772380Y-115532380D01*
X112915238Y-115627619D01*
X113010476Y-115722857D01*
X113058095Y-115818095D01*
X112867619Y-114865714D02*
X112820000Y-114818095D01*
X112772380Y-114722857D01*
X112772380Y-114484761D01*
X112820000Y-114389523D01*
X112867619Y-114341904D01*
X112962857Y-114294285D01*
X113058095Y-114294285D01*
X113200952Y-114341904D01*
X113772380Y-114913333D01*
X113772380Y-114294285D01*
%TO.C,U11*%
X92452380Y-116818095D02*
X93261904Y-116818095D01*
X93357142Y-116770476D01*
X93404761Y-116722857D01*
X93452380Y-116627619D01*
X93452380Y-116437142D01*
X93404761Y-116341904D01*
X93357142Y-116294285D01*
X93261904Y-116246666D01*
X92452380Y-116246666D01*
X93452380Y-115246666D02*
X93452380Y-115818095D01*
X93452380Y-115532380D02*
X92452380Y-115532380D01*
X92595238Y-115627619D01*
X92690476Y-115722857D01*
X92738095Y-115818095D01*
X93452380Y-114294285D02*
X93452380Y-114865714D01*
X93452380Y-114580000D02*
X92452380Y-114580000D01*
X92595238Y-114675238D01*
X92690476Y-114770476D01*
X92738095Y-114865714D01*
%TO.C,U10*%
X72132380Y-116818095D02*
X72941904Y-116818095D01*
X73037142Y-116770476D01*
X73084761Y-116722857D01*
X73132380Y-116627619D01*
X73132380Y-116437142D01*
X73084761Y-116341904D01*
X73037142Y-116294285D01*
X72941904Y-116246666D01*
X72132380Y-116246666D01*
X73132380Y-115246666D02*
X73132380Y-115818095D01*
X73132380Y-115532380D02*
X72132380Y-115532380D01*
X72275238Y-115627619D01*
X72370476Y-115722857D01*
X72418095Y-115818095D01*
X72132380Y-114627619D02*
X72132380Y-114532380D01*
X72180000Y-114437142D01*
X72227619Y-114389523D01*
X72322857Y-114341904D01*
X72513333Y-114294285D01*
X72751428Y-114294285D01*
X72941904Y-114341904D01*
X73037142Y-114389523D01*
X73084761Y-114437142D01*
X73132380Y-114532380D01*
X73132380Y-114627619D01*
X73084761Y-114722857D01*
X73037142Y-114770476D01*
X72941904Y-114818095D01*
X72751428Y-114865714D01*
X72513333Y-114865714D01*
X72322857Y-114818095D01*
X72227619Y-114770476D01*
X72180000Y-114722857D01*
X72132380Y-114627619D01*
%TO.C,U9*%
X51812380Y-116341904D02*
X52621904Y-116341904D01*
X52717142Y-116294285D01*
X52764761Y-116246666D01*
X52812380Y-116151428D01*
X52812380Y-115960952D01*
X52764761Y-115865714D01*
X52717142Y-115818095D01*
X52621904Y-115770476D01*
X51812380Y-115770476D01*
X52812380Y-115246666D02*
X52812380Y-115056190D01*
X52764761Y-114960952D01*
X52717142Y-114913333D01*
X52574285Y-114818095D01*
X52383809Y-114770476D01*
X52002857Y-114770476D01*
X51907619Y-114818095D01*
X51860000Y-114865714D01*
X51812380Y-114960952D01*
X51812380Y-115151428D01*
X51860000Y-115246666D01*
X51907619Y-115294285D01*
X52002857Y-115341904D01*
X52240952Y-115341904D01*
X52336190Y-115294285D01*
X52383809Y-115246666D01*
X52431428Y-115151428D01*
X52431428Y-114960952D01*
X52383809Y-114865714D01*
X52336190Y-114818095D01*
X52240952Y-114770476D01*
%TO.C,U8*%
X31492380Y-116341904D02*
X32301904Y-116341904D01*
X32397142Y-116294285D01*
X32444761Y-116246666D01*
X32492380Y-116151428D01*
X32492380Y-115960952D01*
X32444761Y-115865714D01*
X32397142Y-115818095D01*
X32301904Y-115770476D01*
X31492380Y-115770476D01*
X31920952Y-115151428D02*
X31873333Y-115246666D01*
X31825714Y-115294285D01*
X31730476Y-115341904D01*
X31682857Y-115341904D01*
X31587619Y-115294285D01*
X31540000Y-115246666D01*
X31492380Y-115151428D01*
X31492380Y-114960952D01*
X31540000Y-114865714D01*
X31587619Y-114818095D01*
X31682857Y-114770476D01*
X31730476Y-114770476D01*
X31825714Y-114818095D01*
X31873333Y-114865714D01*
X31920952Y-114960952D01*
X31920952Y-115151428D01*
X31968571Y-115246666D01*
X32016190Y-115294285D01*
X32111428Y-115341904D01*
X32301904Y-115341904D01*
X32397142Y-115294285D01*
X32444761Y-115246666D01*
X32492380Y-115151428D01*
X32492380Y-114960952D01*
X32444761Y-114865714D01*
X32397142Y-114818095D01*
X32301904Y-114770476D01*
X32111428Y-114770476D01*
X32016190Y-114818095D01*
X31968571Y-114865714D01*
X31920952Y-114960952D01*
%TO.C,U7*%
X153412380Y-122681904D02*
X154221904Y-122681904D01*
X154317142Y-122634285D01*
X154364761Y-122586666D01*
X154412380Y-122491428D01*
X154412380Y-122300952D01*
X154364761Y-122205714D01*
X154317142Y-122158095D01*
X154221904Y-122110476D01*
X153412380Y-122110476D01*
X153412380Y-121729523D02*
X153412380Y-121062857D01*
X154412380Y-121491428D01*
%TO.C,U6*%
X133092380Y-122681904D02*
X133901904Y-122681904D01*
X133997142Y-122634285D01*
X134044761Y-122586666D01*
X134092380Y-122491428D01*
X134092380Y-122300952D01*
X134044761Y-122205714D01*
X133997142Y-122158095D01*
X133901904Y-122110476D01*
X133092380Y-122110476D01*
X133092380Y-121205714D02*
X133092380Y-121396190D01*
X133140000Y-121491428D01*
X133187619Y-121539047D01*
X133330476Y-121634285D01*
X133520952Y-121681904D01*
X133901904Y-121681904D01*
X133997142Y-121634285D01*
X134044761Y-121586666D01*
X134092380Y-121491428D01*
X134092380Y-121300952D01*
X134044761Y-121205714D01*
X133997142Y-121158095D01*
X133901904Y-121110476D01*
X133663809Y-121110476D01*
X133568571Y-121158095D01*
X133520952Y-121205714D01*
X133473333Y-121300952D01*
X133473333Y-121491428D01*
X133520952Y-121586666D01*
X133568571Y-121634285D01*
X133663809Y-121681904D01*
%TO.C,U5*%
X112772380Y-122681904D02*
X113581904Y-122681904D01*
X113677142Y-122634285D01*
X113724761Y-122586666D01*
X113772380Y-122491428D01*
X113772380Y-122300952D01*
X113724761Y-122205714D01*
X113677142Y-122158095D01*
X113581904Y-122110476D01*
X112772380Y-122110476D01*
X112772380Y-121158095D02*
X112772380Y-121634285D01*
X113248571Y-121681904D01*
X113200952Y-121634285D01*
X113153333Y-121539047D01*
X113153333Y-121300952D01*
X113200952Y-121205714D01*
X113248571Y-121158095D01*
X113343809Y-121110476D01*
X113581904Y-121110476D01*
X113677142Y-121158095D01*
X113724761Y-121205714D01*
X113772380Y-121300952D01*
X113772380Y-121539047D01*
X113724761Y-121634285D01*
X113677142Y-121681904D01*
%TO.C,U4*%
X92452380Y-122681904D02*
X93261904Y-122681904D01*
X93357142Y-122634285D01*
X93404761Y-122586666D01*
X93452380Y-122491428D01*
X93452380Y-122300952D01*
X93404761Y-122205714D01*
X93357142Y-122158095D01*
X93261904Y-122110476D01*
X92452380Y-122110476D01*
X92785714Y-121205714D02*
X93452380Y-121205714D01*
X92404761Y-121443809D02*
X93119047Y-121681904D01*
X93119047Y-121062857D01*
%TO.C,U3*%
X72132380Y-122681904D02*
X72941904Y-122681904D01*
X73037142Y-122634285D01*
X73084761Y-122586666D01*
X73132380Y-122491428D01*
X73132380Y-122300952D01*
X73084761Y-122205714D01*
X73037142Y-122158095D01*
X72941904Y-122110476D01*
X72132380Y-122110476D01*
X72132380Y-121729523D02*
X72132380Y-121110476D01*
X72513333Y-121443809D01*
X72513333Y-121300952D01*
X72560952Y-121205714D01*
X72608571Y-121158095D01*
X72703809Y-121110476D01*
X72941904Y-121110476D01*
X73037142Y-121158095D01*
X73084761Y-121205714D01*
X73132380Y-121300952D01*
X73132380Y-121586666D01*
X73084761Y-121681904D01*
X73037142Y-121729523D01*
%TO.C,U2*%
X51812380Y-122681904D02*
X52621904Y-122681904D01*
X52717142Y-122634285D01*
X52764761Y-122586666D01*
X52812380Y-122491428D01*
X52812380Y-122300952D01*
X52764761Y-122205714D01*
X52717142Y-122158095D01*
X52621904Y-122110476D01*
X51812380Y-122110476D01*
X51907619Y-121681904D02*
X51860000Y-121634285D01*
X51812380Y-121539047D01*
X51812380Y-121300952D01*
X51860000Y-121205714D01*
X51907619Y-121158095D01*
X52002857Y-121110476D01*
X52098095Y-121110476D01*
X52240952Y-121158095D01*
X52812380Y-121729523D01*
X52812380Y-121110476D01*
%TO.C,U1*%
X31492380Y-122681904D02*
X32301904Y-122681904D01*
X32397142Y-122634285D01*
X32444761Y-122586666D01*
X32492380Y-122491428D01*
X32492380Y-122300952D01*
X32444761Y-122205714D01*
X32397142Y-122158095D01*
X32301904Y-122110476D01*
X31492380Y-122110476D01*
X32492380Y-121110476D02*
X32492380Y-121681904D01*
X32492380Y-121396190D02*
X31492380Y-121396190D01*
X31635238Y-121491428D01*
X31730476Y-121586666D01*
X31778095Y-121681904D01*
%TO.C,U15*%
X143551904Y-74382380D02*
X143551904Y-75191904D01*
X143599523Y-75287142D01*
X143647142Y-75334761D01*
X143742380Y-75382380D01*
X143932857Y-75382380D01*
X144028095Y-75334761D01*
X144075714Y-75287142D01*
X144123333Y-75191904D01*
X144123333Y-74382380D01*
X145123333Y-75382380D02*
X144551904Y-75382380D01*
X144837619Y-75382380D02*
X144837619Y-74382380D01*
X144742380Y-74525238D01*
X144647142Y-74620476D01*
X144551904Y-74668095D01*
X146028095Y-74382380D02*
X145551904Y-74382380D01*
X145504285Y-74858571D01*
X145551904Y-74810952D01*
X145647142Y-74763333D01*
X145885238Y-74763333D01*
X145980476Y-74810952D01*
X146028095Y-74858571D01*
X146075714Y-74953809D01*
X146075714Y-75191904D01*
X146028095Y-75287142D01*
X145980476Y-75334761D01*
X145885238Y-75382380D01*
X145647142Y-75382380D01*
X145551904Y-75334761D01*
X145504285Y-75287142D01*
X140589047Y-81351428D02*
X141350952Y-81351428D01*
X140970000Y-81732380D02*
X140970000Y-80970476D01*
%TO.C,U18*%
X27371904Y-25357380D02*
X27371904Y-26166904D01*
X27419523Y-26262142D01*
X27467142Y-26309761D01*
X27562380Y-26357380D01*
X27752857Y-26357380D01*
X27848095Y-26309761D01*
X27895714Y-26262142D01*
X27943333Y-26166904D01*
X27943333Y-25357380D01*
X28943333Y-26357380D02*
X28371904Y-26357380D01*
X28657619Y-26357380D02*
X28657619Y-25357380D01*
X28562380Y-25500238D01*
X28467142Y-25595476D01*
X28371904Y-25643095D01*
X29514761Y-25785952D02*
X29419523Y-25738333D01*
X29371904Y-25690714D01*
X29324285Y-25595476D01*
X29324285Y-25547857D01*
X29371904Y-25452619D01*
X29419523Y-25405000D01*
X29514761Y-25357380D01*
X29705238Y-25357380D01*
X29800476Y-25405000D01*
X29848095Y-25452619D01*
X29895714Y-25547857D01*
X29895714Y-25595476D01*
X29848095Y-25690714D01*
X29800476Y-25738333D01*
X29705238Y-25785952D01*
X29514761Y-25785952D01*
X29419523Y-25833571D01*
X29371904Y-25881190D01*
X29324285Y-25976428D01*
X29324285Y-26166904D01*
X29371904Y-26262142D01*
X29419523Y-26309761D01*
X29514761Y-26357380D01*
X29705238Y-26357380D01*
X29800476Y-26309761D01*
X29848095Y-26262142D01*
X29895714Y-26166904D01*
X29895714Y-25976428D01*
X29848095Y-25881190D01*
X29800476Y-25833571D01*
X29705238Y-25785952D01*
%TO.C,U16*%
X27761904Y-70787380D02*
X27761904Y-71596904D01*
X27809523Y-71692142D01*
X27857142Y-71739761D01*
X27952380Y-71787380D01*
X28142857Y-71787380D01*
X28238095Y-71739761D01*
X28285714Y-71692142D01*
X28333333Y-71596904D01*
X28333333Y-70787380D01*
X29333333Y-71787380D02*
X28761904Y-71787380D01*
X29047619Y-71787380D02*
X29047619Y-70787380D01*
X28952380Y-70930238D01*
X28857142Y-71025476D01*
X28761904Y-71073095D01*
X30190476Y-70787380D02*
X30000000Y-70787380D01*
X29904761Y-70835000D01*
X29857142Y-70882619D01*
X29761904Y-71025476D01*
X29714285Y-71215952D01*
X29714285Y-71596904D01*
X29761904Y-71692142D01*
X29809523Y-71739761D01*
X29904761Y-71787380D01*
X30095238Y-71787380D01*
X30190476Y-71739761D01*
X30238095Y-71692142D01*
X30285714Y-71596904D01*
X30285714Y-71358809D01*
X30238095Y-71263571D01*
X30190476Y-71215952D01*
X30095238Y-71168333D01*
X29904761Y-71168333D01*
X29809523Y-71215952D01*
X29761904Y-71263571D01*
X29714285Y-71358809D01*
%TO.C,U19*%
X111791904Y-70782380D02*
X111791904Y-71591904D01*
X111839523Y-71687142D01*
X111887142Y-71734761D01*
X111982380Y-71782380D01*
X112172857Y-71782380D01*
X112268095Y-71734761D01*
X112315714Y-71687142D01*
X112363333Y-71591904D01*
X112363333Y-70782380D01*
X113363333Y-71782380D02*
X112791904Y-71782380D01*
X113077619Y-71782380D02*
X113077619Y-70782380D01*
X112982380Y-70925238D01*
X112887142Y-71020476D01*
X112791904Y-71068095D01*
X113839523Y-71782380D02*
X114030000Y-71782380D01*
X114125238Y-71734761D01*
X114172857Y-71687142D01*
X114268095Y-71544285D01*
X114315714Y-71353809D01*
X114315714Y-70972857D01*
X114268095Y-70877619D01*
X114220476Y-70830000D01*
X114125238Y-70782380D01*
X113934761Y-70782380D01*
X113839523Y-70830000D01*
X113791904Y-70877619D01*
X113744285Y-70972857D01*
X113744285Y-71210952D01*
X113791904Y-71306190D01*
X113839523Y-71353809D01*
X113934761Y-71401428D01*
X114125238Y-71401428D01*
X114220476Y-71353809D01*
X114268095Y-71306190D01*
X114315714Y-71210952D01*
%TO.C,Mux16x4*%
X123976190Y-96802380D02*
X123976190Y-95802380D01*
X124309523Y-96516666D01*
X124642857Y-95802380D01*
X124642857Y-96802380D01*
X125547619Y-96135714D02*
X125547619Y-96802380D01*
X125119047Y-96135714D02*
X125119047Y-96659523D01*
X125166666Y-96754761D01*
X125261904Y-96802380D01*
X125404761Y-96802380D01*
X125500000Y-96754761D01*
X125547619Y-96707142D01*
X125928571Y-96802380D02*
X126452380Y-96135714D01*
X125928571Y-96135714D02*
X126452380Y-96802380D01*
X127357142Y-96802380D02*
X126785714Y-96802380D01*
X127071428Y-96802380D02*
X127071428Y-95802380D01*
X126976190Y-95945238D01*
X126880952Y-96040476D01*
X126785714Y-96088095D01*
X128214285Y-95802380D02*
X128023809Y-95802380D01*
X127928571Y-95850000D01*
X127880952Y-95897619D01*
X127785714Y-96040476D01*
X127738095Y-96230952D01*
X127738095Y-96611904D01*
X127785714Y-96707142D01*
X127833333Y-96754761D01*
X127928571Y-96802380D01*
X128119047Y-96802380D01*
X128214285Y-96754761D01*
X128261904Y-96707142D01*
X128309523Y-96611904D01*
X128309523Y-96373809D01*
X128261904Y-96278571D01*
X128214285Y-96230952D01*
X128119047Y-96183333D01*
X127928571Y-96183333D01*
X127833333Y-96230952D01*
X127785714Y-96278571D01*
X127738095Y-96373809D01*
X128642857Y-96802380D02*
X129166666Y-96135714D01*
X128642857Y-96135714D02*
X129166666Y-96802380D01*
X129976190Y-96135714D02*
X129976190Y-96802380D01*
X129738095Y-95754761D02*
X129500000Y-96469047D01*
X130119047Y-96469047D01*
%TO.C,U17*%
X149732380Y-67278095D02*
X150541904Y-67278095D01*
X150637142Y-67230476D01*
X150684761Y-67182857D01*
X150732380Y-67087619D01*
X150732380Y-66897142D01*
X150684761Y-66801904D01*
X150637142Y-66754285D01*
X150541904Y-66706666D01*
X149732380Y-66706666D01*
X150732380Y-65706666D02*
X150732380Y-66278095D01*
X150732380Y-65992380D02*
X149732380Y-65992380D01*
X149875238Y-66087619D01*
X149970476Y-66182857D01*
X150018095Y-66278095D01*
X149732380Y-65373333D02*
X149732380Y-64706666D01*
X150732380Y-65135238D01*
D11*
%TO.C,U14*%
X151715000Y-114885000D02*
X151715000Y-114971724D01*
X153085000Y-114885000D02*
X153085000Y-115580000D01*
X151715000Y-114885000D02*
X150840000Y-114885000D01*
X150840000Y-114885000D02*
X150840000Y-115185507D01*
X151715000Y-116188276D02*
X151715000Y-116275000D01*
X150840000Y-115974493D02*
X150840000Y-116275000D01*
X152400000Y-114885000D02*
X153085000Y-114885000D01*
X151715000Y-116275000D02*
X150840000Y-116275000D01*
%TO.C,U13*%
X131395000Y-114885000D02*
X131395000Y-114971724D01*
X132765000Y-114885000D02*
X132765000Y-115580000D01*
X131395000Y-114885000D02*
X130520000Y-114885000D01*
X130520000Y-114885000D02*
X130520000Y-115185507D01*
X131395000Y-116188276D02*
X131395000Y-116275000D01*
X130520000Y-115974493D02*
X130520000Y-116275000D01*
X132080000Y-114885000D02*
X132765000Y-114885000D01*
X131395000Y-116275000D02*
X130520000Y-116275000D01*
%TO.C,U12*%
X111075000Y-114885000D02*
X111075000Y-114971724D01*
X112445000Y-114885000D02*
X112445000Y-115580000D01*
X111075000Y-114885000D02*
X110200000Y-114885000D01*
X110200000Y-114885000D02*
X110200000Y-115185507D01*
X111075000Y-116188276D02*
X111075000Y-116275000D01*
X110200000Y-115974493D02*
X110200000Y-116275000D01*
X111760000Y-114885000D02*
X112445000Y-114885000D01*
X111075000Y-116275000D02*
X110200000Y-116275000D01*
%TO.C,U11*%
X90755000Y-114885000D02*
X90755000Y-114971724D01*
X92125000Y-114885000D02*
X92125000Y-115580000D01*
X90755000Y-114885000D02*
X89880000Y-114885000D01*
X89880000Y-114885000D02*
X89880000Y-115185507D01*
X90755000Y-116188276D02*
X90755000Y-116275000D01*
X89880000Y-115974493D02*
X89880000Y-116275000D01*
X91440000Y-114885000D02*
X92125000Y-114885000D01*
X90755000Y-116275000D02*
X89880000Y-116275000D01*
%TO.C,U10*%
X70435000Y-114885000D02*
X70435000Y-114971724D01*
X71805000Y-114885000D02*
X71805000Y-115580000D01*
X70435000Y-114885000D02*
X69560000Y-114885000D01*
X69560000Y-114885000D02*
X69560000Y-115185507D01*
X70435000Y-116188276D02*
X70435000Y-116275000D01*
X69560000Y-115974493D02*
X69560000Y-116275000D01*
X71120000Y-114885000D02*
X71805000Y-114885000D01*
X70435000Y-116275000D02*
X69560000Y-116275000D01*
%TO.C,U9*%
X50115000Y-114885000D02*
X50115000Y-114971724D01*
X51485000Y-114885000D02*
X51485000Y-115580000D01*
X50115000Y-114885000D02*
X49240000Y-114885000D01*
X49240000Y-114885000D02*
X49240000Y-115185507D01*
X50115000Y-116188276D02*
X50115000Y-116275000D01*
X49240000Y-115974493D02*
X49240000Y-116275000D01*
X50800000Y-114885000D02*
X51485000Y-114885000D01*
X50115000Y-116275000D02*
X49240000Y-116275000D01*
%TO.C,U8*%
X29795000Y-114885000D02*
X29795000Y-114971724D01*
X31165000Y-114885000D02*
X31165000Y-115580000D01*
X29795000Y-114885000D02*
X28920000Y-114885000D01*
X28920000Y-114885000D02*
X28920000Y-115185507D01*
X29795000Y-116188276D02*
X29795000Y-116275000D01*
X28920000Y-115974493D02*
X28920000Y-116275000D01*
X30480000Y-114885000D02*
X31165000Y-114885000D01*
X29795000Y-116275000D02*
X28920000Y-116275000D01*
%TO.C,U7*%
X151715000Y-121225000D02*
X151715000Y-121311724D01*
X153085000Y-121225000D02*
X153085000Y-121920000D01*
X151715000Y-121225000D02*
X150840000Y-121225000D01*
X150840000Y-121225000D02*
X150840000Y-121525507D01*
X151715000Y-122528276D02*
X151715000Y-122615000D01*
X150840000Y-122314493D02*
X150840000Y-122615000D01*
X152400000Y-121225000D02*
X153085000Y-121225000D01*
X151715000Y-122615000D02*
X150840000Y-122615000D01*
%TO.C,U6*%
X131395000Y-121225000D02*
X131395000Y-121311724D01*
X132765000Y-121225000D02*
X132765000Y-121920000D01*
X131395000Y-121225000D02*
X130520000Y-121225000D01*
X130520000Y-121225000D02*
X130520000Y-121525507D01*
X131395000Y-122528276D02*
X131395000Y-122615000D01*
X130520000Y-122314493D02*
X130520000Y-122615000D01*
X132080000Y-121225000D02*
X132765000Y-121225000D01*
X131395000Y-122615000D02*
X130520000Y-122615000D01*
%TO.C,U5*%
X111075000Y-121225000D02*
X111075000Y-121311724D01*
X112445000Y-121225000D02*
X112445000Y-121920000D01*
X111075000Y-121225000D02*
X110200000Y-121225000D01*
X110200000Y-121225000D02*
X110200000Y-121525507D01*
X111075000Y-122528276D02*
X111075000Y-122615000D01*
X110200000Y-122314493D02*
X110200000Y-122615000D01*
X111760000Y-121225000D02*
X112445000Y-121225000D01*
X111075000Y-122615000D02*
X110200000Y-122615000D01*
%TO.C,U4*%
X90755000Y-121225000D02*
X90755000Y-121311724D01*
X92125000Y-121225000D02*
X92125000Y-121920000D01*
X90755000Y-121225000D02*
X89880000Y-121225000D01*
X89880000Y-121225000D02*
X89880000Y-121525507D01*
X90755000Y-122528276D02*
X90755000Y-122615000D01*
X89880000Y-122314493D02*
X89880000Y-122615000D01*
X91440000Y-121225000D02*
X92125000Y-121225000D01*
X90755000Y-122615000D02*
X89880000Y-122615000D01*
%TO.C,U3*%
X70435000Y-121225000D02*
X70435000Y-121311724D01*
X71805000Y-121225000D02*
X71805000Y-121920000D01*
X70435000Y-121225000D02*
X69560000Y-121225000D01*
X69560000Y-121225000D02*
X69560000Y-121525507D01*
X70435000Y-122528276D02*
X70435000Y-122615000D01*
X69560000Y-122314493D02*
X69560000Y-122615000D01*
X71120000Y-121225000D02*
X71805000Y-121225000D01*
X70435000Y-122615000D02*
X69560000Y-122615000D01*
%TO.C,U2*%
X50115000Y-121225000D02*
X50115000Y-121311724D01*
X51485000Y-121225000D02*
X51485000Y-121920000D01*
X50115000Y-121225000D02*
X49240000Y-121225000D01*
X49240000Y-121225000D02*
X49240000Y-121525507D01*
X50115000Y-122528276D02*
X50115000Y-122615000D01*
X49240000Y-122314493D02*
X49240000Y-122615000D01*
X50800000Y-121225000D02*
X51485000Y-121225000D01*
X50115000Y-122615000D02*
X49240000Y-122615000D01*
%TO.C,U1*%
X29795000Y-121225000D02*
X29795000Y-121311724D01*
X31165000Y-121225000D02*
X31165000Y-121920000D01*
X29795000Y-121225000D02*
X28920000Y-121225000D01*
X28920000Y-121225000D02*
X28920000Y-121525507D01*
X29795000Y-122528276D02*
X29795000Y-122615000D01*
X28920000Y-122314493D02*
X28920000Y-122615000D01*
X30480000Y-121225000D02*
X31165000Y-121225000D01*
X29795000Y-122615000D02*
X28920000Y-122615000D01*
%TO.C,U15*%
X152380000Y-83820000D02*
G75*
G03*
X152380000Y-83820000I-7600000J0D01*
G01*
%TO.C,U18*%
X103820000Y-26315000D02*
X105820000Y-26315000D01*
D10*
X35605000Y-34268000D02*
X34843000Y-34268000D01*
X36875000Y-34522000D02*
X36621000Y-34776000D01*
X38145000Y-62208000D02*
X38145000Y-39856000D01*
X137205000Y-39856000D02*
X137205000Y-62208000D01*
X35605000Y-68558000D02*
X35605000Y-67796000D01*
X136443000Y-62970000D02*
X38907000Y-62970000D01*
X36875000Y-67542000D02*
X138475000Y-67542000D01*
X38907000Y-62970000D02*
X38145000Y-62208000D01*
X139745000Y-33506000D02*
X139745000Y-34268000D01*
X138475000Y-34522000D02*
X36875000Y-34522000D01*
X139745000Y-34268000D02*
X140507000Y-34268000D01*
X36621000Y-67288000D02*
X36875000Y-67542000D01*
X138729000Y-67288000D02*
X138475000Y-67034000D01*
X36875000Y-67034000D02*
X36621000Y-67288000D01*
X34843000Y-34268000D02*
X34843000Y-67796000D01*
X139745000Y-33506000D02*
X35605000Y-33506000D01*
D11*
X148960000Y-26675000D02*
X26680000Y-26675000D01*
D10*
X38145000Y-39856000D02*
X38907000Y-39094000D01*
X140507000Y-67796000D02*
X139745000Y-67796000D01*
X137205000Y-62208000D02*
X136443000Y-62970000D01*
X140507000Y-67796000D02*
X140507000Y-34268000D01*
X138475000Y-67034000D02*
X36875000Y-67034000D01*
X36875000Y-35030000D02*
X138475000Y-35030000D01*
X35605000Y-68558000D02*
X139745000Y-68558000D01*
X136443000Y-39094000D02*
X137205000Y-39856000D01*
X35605000Y-33506000D02*
X35605000Y-34268000D01*
D11*
X26680000Y-26675000D02*
X26680000Y-70955000D01*
X148960000Y-26675000D02*
X148960000Y-70955000D01*
D10*
X138475000Y-34522000D02*
X138729000Y-34776000D01*
X138729000Y-34776000D02*
X138475000Y-35030000D01*
D11*
X26680000Y-70955000D02*
X148960000Y-70955000D01*
D10*
X35605000Y-67796000D02*
X34843000Y-67796000D01*
X36621000Y-34776000D02*
X36875000Y-35030000D01*
X138475000Y-67542000D02*
X138729000Y-67288000D01*
X139745000Y-67796000D02*
X139745000Y-68558000D01*
X38907000Y-39094000D02*
X136443000Y-39094000D01*
D11*
%TO.C,U16*%
X29820000Y-78145000D02*
X102820000Y-78145000D01*
X106960000Y-108785000D02*
X106960000Y-72505000D01*
X26680000Y-108785000D02*
X106960000Y-108785000D01*
X26680000Y-72505000D02*
X26680000Y-108785000D01*
X98520660Y-98145000D02*
X35020000Y-98145000D01*
X26690000Y-72505000D02*
X27480000Y-72505000D01*
X34520280Y-97644320D02*
X34520280Y-83645000D01*
X106960000Y-72505000D02*
X27480000Y-72505000D01*
X102820000Y-78145000D02*
X102820000Y-103145000D01*
X102820000Y-103145000D02*
X29820000Y-103145000D01*
X99020000Y-83645000D02*
X99020000Y-97645000D01*
X35020000Y-83145000D02*
X98520000Y-83145000D01*
X33320000Y-72145000D02*
X36320000Y-72145000D01*
X29820000Y-103145000D02*
X29820000Y-78145000D01*
X35020660Y-83143460D02*
G75*
G03*
X34520280Y-83643840I0J-500380D01*
G01*
X34520280Y-97644320D02*
G75*
G03*
X35020660Y-98144700I500380J0D01*
G01*
X98520660Y-98144640D02*
G75*
G03*
X99021040Y-97644320I40J500340D01*
G01*
X99020000Y-83645000D02*
G75*
G03*
X98520000Y-83145000I-500000J0D01*
G01*
%TO.C,U19*%
X115680000Y-72330000D02*
X114030000Y-72330000D01*
X115680000Y-108010000D02*
X115680000Y-72330000D01*
X112030000Y-72330000D02*
X110380000Y-72330000D01*
X110380000Y-72330000D02*
X110380000Y-108010000D01*
X110380000Y-108010000D02*
X115680000Y-108010000D01*
X112030000Y-72330000D02*
G75*
G03*
X114030000Y-72330000I1000000J0D01*
G01*
D10*
%TO.C,Mux16x4*%
X129875000Y-105925000D02*
X129875000Y-105625000D01*
X124125000Y-105925000D02*
X129875000Y-105925000D01*
X124125000Y-97500000D02*
X122525000Y-97500000D01*
X124125000Y-97275000D02*
X129875000Y-97275000D01*
X129875000Y-97275000D02*
X129875000Y-97575000D01*
X124125000Y-105925000D02*
X124125000Y-105625000D01*
X124125000Y-97275000D02*
X124125000Y-97500000D01*
D11*
%TO.C,U17*%
X151360000Y-28420000D02*
X164100000Y-28420000D01*
X164100000Y-68660000D02*
X164100000Y-28420000D01*
X153980000Y-69040000D02*
X150980000Y-69040000D01*
X151360000Y-68660000D02*
X151360000Y-28420000D01*
X151360000Y-68660000D02*
X151360000Y-28420000D01*
X151360000Y-28420000D02*
X164100000Y-28420000D01*
X164100000Y-68660000D02*
X164100000Y-28420000D01*
X151360000Y-68660000D02*
X164100000Y-68660000D01*
X150980000Y-69040000D02*
X150980000Y-66040000D01*
X151360000Y-68660000D02*
X164100000Y-68660000D01*
%TD*%
%LPC*%
D12*
%TO.C,U14*%
X152400000Y-115580000D03*
D13*
X151400000Y-115580000D03*
%TD*%
D12*
%TO.C,U13*%
X132080000Y-115580000D03*
D13*
X131080000Y-115580000D03*
%TD*%
D12*
%TO.C,U12*%
X111760000Y-115580000D03*
D13*
X110760000Y-115580000D03*
%TD*%
D12*
%TO.C,U11*%
X91440000Y-115580000D03*
D13*
X90440000Y-115580000D03*
%TD*%
D12*
%TO.C,U10*%
X71120000Y-115580000D03*
D13*
X70120000Y-115580000D03*
%TD*%
D12*
%TO.C,U9*%
X50800000Y-115580000D03*
D13*
X49800000Y-115580000D03*
%TD*%
D12*
%TO.C,U8*%
X30480000Y-115580000D03*
D13*
X29480000Y-115580000D03*
%TD*%
D12*
%TO.C,U7*%
X152400000Y-121920000D03*
D13*
X151400000Y-121920000D03*
%TD*%
D12*
%TO.C,U6*%
X132080000Y-121920000D03*
D13*
X131080000Y-121920000D03*
%TD*%
D12*
%TO.C,U5*%
X111760000Y-121920000D03*
D13*
X110760000Y-121920000D03*
%TD*%
D12*
%TO.C,U4*%
X91440000Y-121920000D03*
D13*
X90440000Y-121920000D03*
%TD*%
D12*
%TO.C,U3*%
X71120000Y-121920000D03*
D13*
X70120000Y-121920000D03*
%TD*%
D12*
%TO.C,U2*%
X50800000Y-121920000D03*
D13*
X49800000Y-121920000D03*
%TD*%
D12*
%TO.C,U1*%
X30480000Y-121920000D03*
D13*
X29480000Y-121920000D03*
%TD*%
D14*
%TO.C,U15*%
X140980000Y-83820000D03*
D15*
X148580000Y-83820000D03*
%TD*%
D16*
%TO.C,U18*%
X145320000Y-30315000D03*
X145320000Y-67315000D03*
X30320000Y-67315000D03*
X30320000Y-30315000D03*
D17*
X104820000Y-29315000D03*
D18*
X107360000Y-29315000D03*
X109900000Y-29315000D03*
X112440000Y-29315000D03*
X114980000Y-29315000D03*
X117520000Y-29315000D03*
X120060000Y-29315000D03*
X122600000Y-29315000D03*
X125140000Y-29315000D03*
X127680000Y-29315000D03*
X130220000Y-29315000D03*
X132760000Y-29315000D03*
X135300000Y-29315000D03*
X137840000Y-29315000D03*
X102280000Y-29315000D03*
X99740000Y-29315000D03*
D14*
X29320000Y-43315000D03*
X29320000Y-54315000D03*
X29320000Y-47315000D03*
X29320000Y-58315000D03*
%TD*%
D19*
%TO.C,U16*%
X104319480Y-106145700D03*
X29320900Y-75145000D03*
X29320900Y-106145700D03*
X104320000Y-75145000D03*
D20*
X34820000Y-75145000D03*
D21*
X37360000Y-75145000D03*
X39900000Y-75145000D03*
X42440000Y-75145000D03*
X44980000Y-75145000D03*
X47520000Y-75145000D03*
X50060000Y-75145000D03*
X52600000Y-75145000D03*
X55140000Y-75145000D03*
X57680000Y-75145000D03*
X60220000Y-75145000D03*
X62760000Y-75145000D03*
X65300000Y-75145000D03*
X67840000Y-75145000D03*
X70380000Y-75145000D03*
X72920000Y-75145000D03*
%TD*%
D22*
%TO.C,U19*%
X109220000Y-73660000D03*
D23*
X109220000Y-76200000D03*
X109220000Y-78740000D03*
X109220000Y-81280000D03*
X109220000Y-83820000D03*
X109220000Y-86360000D03*
X109220000Y-88900000D03*
X109220000Y-91440000D03*
X109220000Y-93980000D03*
X109220000Y-96520000D03*
X109220000Y-99060000D03*
X109220000Y-101600000D03*
X109220000Y-104140000D03*
X109220000Y-106680000D03*
X116840000Y-106680000D03*
X116840000Y-104140000D03*
X116840000Y-101600000D03*
X116840000Y-99060000D03*
X116840000Y-96520000D03*
X116840000Y-93980000D03*
X116840000Y-91440000D03*
X116840000Y-88900000D03*
X116840000Y-86360000D03*
X116840000Y-83820000D03*
X116840000Y-81280000D03*
X116840000Y-78740000D03*
X116840000Y-76200000D03*
X116840000Y-73660000D03*
%TD*%
D24*
%TO.C,Mux16x4*%
X123400000Y-98025000D03*
X123400000Y-98675000D03*
X123400000Y-99325000D03*
X123400000Y-99975000D03*
X123400000Y-100625000D03*
X123400000Y-101275000D03*
X123400000Y-101925000D03*
X123400000Y-102575000D03*
X123400000Y-103225000D03*
X123400000Y-103875000D03*
X123400000Y-104525000D03*
X123400000Y-105175000D03*
X130600000Y-105175000D03*
X130600000Y-104525000D03*
X130600000Y-103875000D03*
X130600000Y-103225000D03*
X130600000Y-102575000D03*
X130600000Y-101925000D03*
X130600000Y-101275000D03*
X130600000Y-100625000D03*
X130600000Y-99975000D03*
X130600000Y-99325000D03*
X130600000Y-98675000D03*
X130600000Y-98025000D03*
%TD*%
D25*
%TO.C,U17*%
X157480000Y-66040000D03*
D19*
X157480000Y-61040000D03*
X157480000Y-56040000D03*
X157480000Y-51040000D03*
X157480000Y-46040000D03*
X157480000Y-41040000D03*
X157480000Y-36040000D03*
X157480000Y-31040000D03*
%TD*%
M02*
