%TF.GenerationSoftware,KiCad,Pcbnew,(6.0.7)*%
%TF.CreationDate,2022-11-30T23:51:13-03:00*%
%TF.ProjectId,ea075_project,65613037-355f-4707-926f-6a6563742e6b,rev?*%
%TF.SameCoordinates,Original*%
%TF.FileFunction,Copper,L1,Top*%
%TF.FilePolarity,Positive*%
%FSLAX46Y46*%
G04 Gerber Fmt 4.6, Leading zero omitted, Abs format (unit mm)*
G04 Created by KiCad (PCBNEW (6.0.7)) date 2022-11-30 23:51:13*
%MOMM*%
%LPD*%
G01*
G04 APERTURE LIST*
%TA.AperFunction,ComponentPad*%
%ADD10C,2.000000*%
%TD*%
%TA.AperFunction,ComponentPad*%
%ADD11O,3.500000X2.000000*%
%TD*%
%TA.AperFunction,ComponentPad*%
%ADD12O,2.000000X3.300000*%
%TD*%
%TA.AperFunction,ComponentPad*%
%ADD13R,2.000000X4.000000*%
%TD*%
%TA.AperFunction,ComponentPad*%
%ADD14O,1.700000X1.700000*%
%TD*%
%TA.AperFunction,ComponentPad*%
%ADD15R,1.700000X1.700000*%
%TD*%
%TA.AperFunction,ComponentPad*%
%ADD16C,2.300000*%
%TD*%
%TA.AperFunction,ComponentPad*%
%ADD17R,2.300000X2.000000*%
%TD*%
%TA.AperFunction,ComponentPad*%
%ADD18C,1.500000*%
%TD*%
%TA.AperFunction,ComponentPad*%
%ADD19R,1.800000X1.800000*%
%TD*%
%TA.AperFunction,ComponentPad*%
%ADD20C,1.800000*%
%TD*%
%TA.AperFunction,ComponentPad*%
%ADD21R,1.070000X1.800000*%
%TD*%
%TA.AperFunction,ComponentPad*%
%ADD22O,1.070000X1.800000*%
%TD*%
%TA.AperFunction,SMDPad,CuDef*%
%ADD23R,1.100000X0.300000*%
%TD*%
%TA.AperFunction,SMDPad,CuDef*%
%ADD24R,0.300000X1.100000*%
%TD*%
%TA.AperFunction,SMDPad,CuDef*%
%ADD25R,0.200000X1.500000*%
%TD*%
%TA.AperFunction,SMDPad,CuDef*%
%ADD26R,1.500000X0.200000*%
%TD*%
%TA.AperFunction,SMDPad,CuDef*%
%ADD27R,1.600000X0.410000*%
%TD*%
%TA.AperFunction,ComponentPad*%
%ADD28R,2.000000X1.905000*%
%TD*%
%TA.AperFunction,ComponentPad*%
%ADD29O,2.000000X1.905000*%
%TD*%
%TA.AperFunction,ComponentPad*%
%ADD30C,1.600000*%
%TD*%
%TA.AperFunction,ComponentPad*%
%ADD31O,1.600000X1.600000*%
%TD*%
%TA.AperFunction,ViaPad*%
%ADD32C,0.800000*%
%TD*%
%TA.AperFunction,Conductor*%
%ADD33C,0.500000*%
%TD*%
%TA.AperFunction,Conductor*%
%ADD34C,0.200000*%
%TD*%
%TA.AperFunction,Conductor*%
%ADD35C,0.250000*%
%TD*%
%TA.AperFunction,Conductor*%
%ADD36C,1.000000*%
%TD*%
G04 APERTURE END LIST*
D10*
%TO.P,C_vss1,1*%
%TO.N,Net-(C_vss1-Pad1)*%
X172720000Y-86200000D03*
%TO.P,C_vss1,2*%
%TO.N,/supply_3V*%
X172720000Y-76200000D03*
%TD*%
%TO.P,C_vcap1,1*%
%TO.N,GND*%
X162560000Y-76200000D03*
%TO.P,C_vcap1,2*%
%TO.N,Net-(C_vcap1-Pad2)*%
X162560000Y-86200000D03*
%TD*%
%TO.P,c_svdd2,1*%
%TO.N,/supply_3V*%
X223520000Y-40640000D03*
%TO.P,c_svdd2,2*%
%TO.N,GND*%
X223520000Y-50640000D03*
%TD*%
%TO.P,c_svdd1,1*%
%TO.N,GND*%
X210820000Y-50640000D03*
%TO.P,c_svdd1,2*%
%TO.N,/supply_3V*%
X210820000Y-40640000D03*
%TD*%
%TO.P,C_osc2,2*%
%TO.N,GND*%
X149860000Y-45560000D03*
%TO.P,C_osc2,1*%
%TO.N,Net-(C_osc2-Pad1)*%
X149860000Y-35560000D03*
%TD*%
%TO.P,C_osc1,2*%
%TO.N,Net-(C_osc1-Pad2)*%
X175260000Y-35560000D03*
%TO.P,C_osc1,1*%
%TO.N,GND*%
X175260000Y-45560000D03*
%TD*%
%TO.P,C_avss1,2*%
%TO.N,/supply_3V*%
X200660000Y-76280000D03*
%TO.P,C_avss1,1*%
%TO.N,Net-(C_avss1-Pad1)*%
X200660000Y-86280000D03*
%TD*%
%TO.P,C1,1*%
%TO.N,GND*%
X157400000Y-137080000D03*
%TO.P,C1,2*%
%TO.N,/supply_3V*%
X147400000Y-137080000D03*
%TD*%
D11*
%TO.P,J-AC1,MP*%
%TO.N,N/C*%
X62000000Y-60300000D03*
X62000000Y-51300000D03*
D12*
%TO.P,J-AC1,2,Pin_2*%
%TO.N,/AC-N*%
X63000000Y-55800000D03*
D13*
%TO.P,J-AC1,1,Pin_1*%
%TO.N,/AC-L*%
X69000000Y-55800000D03*
%TD*%
D14*
%TO.P,J_PUMP1,2,Pin_2*%
%TO.N,Net-(PS_12V1-Pad3)*%
X180340000Y-53260000D03*
D15*
%TO.P,J_PUMP1,1,Pin_1*%
%TO.N,Net-(Q1-Pad3)*%
X180340000Y-55800000D03*
%TD*%
D14*
%TO.P,J_HSENS1,3,Pin_3*%
%TO.N,Net-(J_HSENS1-Pad3)*%
X116840000Y-93900000D03*
%TO.P,J_HSENS1,2,Pin_2*%
%TO.N,GND*%
X116840000Y-91360000D03*
D15*
%TO.P,J_HSENS1,1,Pin_1*%
%TO.N,/supply_5V*%
X116840000Y-88820000D03*
%TD*%
D16*
%TO.P,PS_12V1,4,-Vout*%
%TO.N,GND*%
X102900000Y-142277500D03*
%TO.P,PS_12V1,3,+Vout*%
%TO.N,Net-(PS_12V1-Pad3)*%
X102900000Y-134677500D03*
%TO.P,PS_12V1,2,AC/N*%
%TO.N,/AC-L*%
X74900000Y-149877500D03*
D17*
%TO.P,PS_12V1,1,AC/L*%
%TO.N,/AC-N*%
X74900000Y-134677500D03*
%TD*%
D16*
%TO.P,PS_5V1,4,+Vo*%
%TO.N,/supply_5V*%
X102900000Y-111797500D03*
%TO.P,PS_5V1,3,-Vo*%
%TO.N,GND*%
X102900000Y-104197500D03*
%TO.P,PS_5V1,2,AC/L*%
%TO.N,/AC-L*%
X74900000Y-119397500D03*
D17*
%TO.P,PS_5V1,1,AC/N*%
%TO.N,/AC-N*%
X74900000Y-104197500D03*
%TD*%
D16*
%TO.P,PS_3V1,4,+Vo*%
%TO.N,/supply_3V*%
X102900000Y-81317500D03*
%TO.P,PS_3V1,3,-Vo*%
%TO.N,GND*%
X102900000Y-73717500D03*
%TO.P,PS_3V1,2,AC/N*%
%TO.N,/AC-N*%
X74900000Y-88917500D03*
D17*
%TO.P,PS_3V1,1,AC/L*%
%TO.N,/AC-L*%
X74900000Y-73717500D03*
%TD*%
D18*
%TO.P,Y1,2,2*%
%TO.N,Net-(R_osc1-Pad1)*%
X165100000Y-42920000D03*
%TO.P,Y1,1,1*%
%TO.N,Net-(C_osc1-Pad2)*%
X165100000Y-38020000D03*
%TD*%
D19*
%TO.P,D_UV1,1,K*%
%TO.N,Net-(D_UV1-Pad1)*%
X127000000Y-162480000D03*
D20*
%TO.P,D_UV1,2,A*%
%TO.N,/supply_3V*%
X124460000Y-162480000D03*
%TD*%
D19*
%TO.P,D_IR1,1,K*%
%TO.N,Net-(D_IR1-Pad1)*%
X134620000Y-162480000D03*
D20*
%TO.P,D_IR1,2,A*%
%TO.N,/supply_3V*%
X132080000Y-162480000D03*
%TD*%
D21*
%TO.P,D_RGB1,1,BK*%
%TO.N,Net-(D_RGB1-Pad1)*%
X116840000Y-162480000D03*
D22*
%TO.P,D_RGB1,2,GK*%
%TO.N,Net-(D_RGB1-Pad2)*%
X115570000Y-162480000D03*
%TO.P,D_RGB1,3,RK*%
%TO.N,Net-(D_RGB1-Pad3)*%
X114300000Y-162480000D03*
%TO.P,D_RGB1,4,A*%
%TO.N,/supply_3V*%
X113030000Y-162480000D03*
%TD*%
D23*
%TO.P,U1,20,NF*%
%TO.N,unconnected-(U1-Pad20)*%
X195680000Y-44340000D03*
%TO.P,U1,19,NF*%
%TO.N,unconnected-(U1-Pad19)*%
X195680000Y-44990000D03*
%TO.P,U1,18,LED_IND*%
%TO.N,unconnected-(U1-Pad18)*%
X195680000Y-45640000D03*
%TO.P,U1,17,VDD*%
%TO.N,/supply_3V*%
X195680000Y-46290000D03*
%TO.P,U1,16,GND*%
%TO.N,GND*%
X195680000Y-46940000D03*
D24*
%TO.P,U1,15,LED_DRV*%
%TO.N,unconnected-(U1-Pad15)*%
X194680000Y-47840000D03*
%TO.P,U1,14,VDD*%
%TO.N,/supply_3V*%
X194030000Y-47840000D03*
%TO.P,U1,13,INT*%
%TO.N,GND*%
X193380000Y-47840000D03*
%TO.P,U1,12,TX/SDA_S*%
%TO.N,/light_sensor_SDA*%
X192730000Y-47840000D03*
%TO.P,U1,11,RX/SCL_S*%
%TO.N,/light_sensor_SCL*%
X192080000Y-47840000D03*
D23*
%TO.P,U1,10,NF*%
%TO.N,unconnected-(U1-Pad10)*%
X191080000Y-46940000D03*
%TO.P,U1,9,NF*%
%TO.N,unconnected-(U1-Pad9)*%
X191080000Y-46290000D03*
%TO.P,U1,8,I2C_ENB*%
%TO.N,/supply_3V*%
X191080000Y-45640000D03*
%TO.P,U1,7,CSN_SD*%
%TO.N,unconnected-(U1-Pad7)*%
X191080000Y-44990000D03*
%TO.P,U1,6,CSN_EE*%
%TO.N,unconnected-(U1-Pad6)*%
X191080000Y-44340000D03*
D24*
%TO.P,U1,5,MISO*%
%TO.N,unconnected-(U1-Pad5)*%
X192080000Y-43440000D03*
%TO.P,U1,4,MOSI*%
%TO.N,unconnected-(U1-Pad4)*%
X192730000Y-43440000D03*
%TO.P,U1,3,SCK*%
%TO.N,unconnected-(U1-Pad3)*%
X193380000Y-43440000D03*
%TO.P,U1,2,~{RES}*%
%TO.N,GND*%
X194030000Y-43440000D03*
%TO.P,U1,1,NF*%
%TO.N,unconnected-(U1-Pad1)*%
X194680000Y-43440000D03*
%TD*%
D25*
%TO.P,U2,100,RE4*%
%TO.N,unconnected-(U2-Pad100)*%
X145060000Y-104980000D03*
%TO.P,U2,99,RE3*%
%TO.N,unconnected-(U2-Pad99)*%
X145460000Y-104980000D03*
%TO.P,U2,98,RE2*%
%TO.N,unconnected-(U2-Pad98)*%
X145860000Y-104980000D03*
%TO.P,U2,97,RG13/TRD0*%
%TO.N,unconnected-(U2-Pad97)*%
X146260000Y-104980000D03*
%TO.P,U2,96,RG12/TRD1*%
%TO.N,unconnected-(U2-Pad96)*%
X146660000Y-104980000D03*
%TO.P,U2,95,RG14/TRD2*%
%TO.N,unconnected-(U2-Pad95)*%
X147060000Y-104980000D03*
%TO.P,U2,94,RE1*%
%TO.N,unconnected-(U2-Pad94)*%
X147460000Y-104980000D03*
%TO.P,U2,93,RE0*%
%TO.N,unconnected-(U2-Pad93)*%
X147860000Y-104980000D03*
%TO.P,U2,92,RA7/TRD3*%
%TO.N,unconnected-(U2-Pad92)*%
X148260000Y-104980000D03*
%TO.P,U2,91,RA6/TRCLK*%
%TO.N,unconnected-(U2-Pad91)*%
X148660000Y-104980000D03*
%TO.P,U2,90,RG0*%
%TO.N,unconnected-(U2-Pad90)*%
X149060000Y-104980000D03*
%TO.P,U2,89,RG1*%
%TO.N,unconnected-(U2-Pad89)*%
X149460000Y-104980000D03*
%TO.P,U2,88,RF1*%
%TO.N,unconnected-(U2-Pad88)*%
X149860000Y-104980000D03*
%TO.P,U2,87,RF0*%
%TO.N,unconnected-(U2-Pad87)*%
X150260000Y-104980000D03*
%TO.P,U2,86,VDD*%
%TO.N,/supply_3V*%
X150660000Y-104980000D03*
%TO.P,U2,85,VCAP/VDDCORE*%
%TO.N,Net-(C_vcap1-Pad2)*%
X151060000Y-104980000D03*
%TO.P,U2,84,RD7*%
%TO.N,unconnected-(U2-Pad84)*%
X151460000Y-104980000D03*
%TO.P,U2,83,RD6*%
%TO.N,unconnected-(U2-Pad83)*%
X151860000Y-104980000D03*
%TO.P,U2,82,RD5*%
%TO.N,unconnected-(U2-Pad82)*%
X152260000Y-104980000D03*
%TO.P,U2,81,RD4*%
%TO.N,unconnected-(U2-Pad81)*%
X152660000Y-104980000D03*
%TO.P,U2,80,RD13*%
%TO.N,unconnected-(U2-Pad80)*%
X153060000Y-104980000D03*
%TO.P,U2,79,RD12*%
%TO.N,unconnected-(U2-Pad79)*%
X153460000Y-104980000D03*
%TO.P,U2,78,RD3*%
%TO.N,unconnected-(U2-Pad78)*%
X153860000Y-104980000D03*
%TO.P,U2,77,RD2*%
%TO.N,unconnected-(U2-Pad77)*%
X154260000Y-104980000D03*
%TO.P,U2,76,RD1*%
%TO.N,unconnected-(U2-Pad76)*%
X154660000Y-104980000D03*
D26*
%TO.P,U2,75,VSS*%
%TO.N,Net-(C_vss1-Pad1)*%
X156560000Y-106880000D03*
%TO.P,U2,74,RC14/SOSCO*%
%TO.N,unconnected-(U2-Pad74)*%
X156560000Y-107280000D03*
%TO.P,U2,73,RC13/SOSCI*%
%TO.N,unconnected-(U2-Pad73)*%
X156560000Y-107680000D03*
%TO.P,U2,72,RD0*%
%TO.N,Net-(R_q1-Pad1)*%
X156560000Y-108080000D03*
%TO.P,U2,71,RD11*%
%TO.N,unconnected-(U2-Pad71)*%
X156560000Y-108480000D03*
%TO.P,U2,70,RD10*%
%TO.N,unconnected-(U2-Pad70)*%
X156560000Y-108880000D03*
%TO.P,U2,69,RD9*%
%TO.N,unconnected-(U2-Pad69)*%
X156560000Y-109280000D03*
%TO.P,U2,68,RD8*%
%TO.N,unconnected-(U2-Pad68)*%
X156560000Y-109680000D03*
%TO.P,U2,67,RA15*%
%TO.N,unconnected-(U2-Pad67)*%
X156560000Y-110080000D03*
%TO.P,U2,66,RA14*%
%TO.N,unconnected-(U2-Pad66)*%
X156560000Y-110480000D03*
%TO.P,U2,65,VSS*%
%TO.N,Net-(C_vss1-Pad1)*%
X156560000Y-110880000D03*
%TO.P,U2,64,RC15/OSC2/CLKO*%
%TO.N,Net-(C_osc2-Pad1)*%
X156560000Y-111280000D03*
%TO.P,U2,63,RC12/OSC1/CLK*%
%TO.N,Net-(C_osc1-Pad2)*%
X156560000Y-111680000D03*
%TO.P,U2,62,VDD*%
%TO.N,/supply_3V*%
X156560000Y-112080000D03*
%TO.P,U2,61,RA5/TDO*%
%TO.N,unconnected-(U2-Pad61)*%
X156560000Y-112480000D03*
%TO.P,U2,60,RA4/TDI*%
%TO.N,unconnected-(U2-Pad60)*%
X156560000Y-112880000D03*
%TO.P,U2,59,RA3*%
%TO.N,unconnected-(U2-Pad59)*%
X156560000Y-113280000D03*
%TO.P,U2,58,RA2*%
%TO.N,unconnected-(U2-Pad58)*%
X156560000Y-113680000D03*
%TO.P,U2,57,RG2/D+*%
%TO.N,unconnected-(U2-Pad57)*%
X156560000Y-114080000D03*
%TO.P,U2,56,RG3/D-*%
%TO.N,unconnected-(U2-Pad56)*%
X156560000Y-114480000D03*
%TO.P,U2,55,VUSB3V3*%
%TO.N,/supply_3V*%
X156560000Y-114880000D03*
%TO.P,U2,54,VBUS*%
%TO.N,unconnected-(U2-Pad54)*%
X156560000Y-115280000D03*
%TO.P,U2,53,RF8*%
%TO.N,unconnected-(U2-Pad53)*%
X156560000Y-115680000D03*
%TO.P,U2,52,RF2*%
%TO.N,unconnected-(U2-Pad52)*%
X156560000Y-116080000D03*
%TO.P,U2,51,RF3*%
%TO.N,unconnected-(U2-Pad51)*%
X156560000Y-116480000D03*
D25*
%TO.P,U2,50,RF5*%
%TO.N,unconnected-(U2-Pad50)*%
X154660000Y-118380000D03*
%TO.P,U2,49,RF4*%
%TO.N,unconnected-(U2-Pad49)*%
X154260000Y-118380000D03*
%TO.P,U2,48,RD15*%
%TO.N,unconnected-(U2-Pad48)*%
X153860000Y-118380000D03*
%TO.P,U2,47,RD14*%
%TO.N,unconnected-(U2-Pad47)*%
X153460000Y-118380000D03*
%TO.P,U2,46,VDD*%
%TO.N,/supply_3V*%
X153060000Y-118380000D03*
%TO.P,U2,45,VSS*%
%TO.N,Net-(C_vss1-Pad1)*%
X152660000Y-118380000D03*
%TO.P,U2,44,RB15*%
%TO.N,/light_sensor_SCL*%
X152260000Y-118380000D03*
%TO.P,U2,43,RB14*%
%TO.N,/light_sensor_SDA*%
X151860000Y-118380000D03*
%TO.P,U2,42,RB13*%
%TO.N,unconnected-(U2-Pad42)*%
X151460000Y-118380000D03*
%TO.P,U2,41,RB12*%
%TO.N,unconnected-(U2-Pad41)*%
X151060000Y-118380000D03*
%TO.P,U2,40,RF12*%
%TO.N,unconnected-(U2-Pad40)*%
X150660000Y-118380000D03*
%TO.P,U2,39,RF13*%
%TO.N,unconnected-(U2-Pad39)*%
X150260000Y-118380000D03*
%TO.P,U2,38,RA1//TCK*%
%TO.N,unconnected-(U2-Pad38)*%
X149860000Y-118380000D03*
%TO.P,U2,37,VDD*%
%TO.N,/supply_3V*%
X149460000Y-118380000D03*
%TO.P,U2,36,VSS*%
%TO.N,Net-(C_vss1-Pad1)*%
X149060000Y-118380000D03*
%TO.P,U2,35,RB11*%
%TO.N,unconnected-(U2-Pad35)*%
X148660000Y-118380000D03*
%TO.P,U2,34,RB10*%
%TO.N,unconnected-(U2-Pad34)*%
X148260000Y-118380000D03*
%TO.P,U2,33,RB9*%
%TO.N,unconnected-(U2-Pad33)*%
X147860000Y-118380000D03*
%TO.P,U2,32,RB8*%
%TO.N,unconnected-(U2-Pad32)*%
X147460000Y-118380000D03*
%TO.P,U2,31,AVSS*%
%TO.N,Net-(C_avss1-Pad1)*%
X147060000Y-118380000D03*
%TO.P,U2,30,AVDD*%
%TO.N,/supply_3V*%
X146660000Y-118380000D03*
%TO.P,U2,29,RA10*%
%TO.N,unconnected-(U2-Pad29)*%
X146260000Y-118380000D03*
%TO.P,U2,28,RA9*%
%TO.N,unconnected-(U2-Pad28)*%
X145860000Y-118380000D03*
%TO.P,U2,27,PGED2/RB7*%
%TO.N,unconnected-(U2-Pad27)*%
X145460000Y-118380000D03*
%TO.P,U2,26,PGEC2/RB6*%
%TO.N,unconnected-(U2-Pad26)*%
X145060000Y-118380000D03*
D26*
%TO.P,U2,25,PGED1/RB0*%
%TO.N,unconnected-(U2-Pad25)*%
X143160000Y-116480000D03*
%TO.P,U2,24,PGEC1/RB1*%
%TO.N,unconnected-(U2-Pad24)*%
X143160000Y-116080000D03*
%TO.P,U2,23,RB2*%
%TO.N,unconnected-(U2-Pad23)*%
X143160000Y-115680000D03*
%TO.P,U2,22,RB3*%
%TO.N,Net-(J_HSENS1-Pad3)*%
X143160000Y-115280000D03*
%TO.P,U2,21,RB4*%
%TO.N,unconnected-(U2-Pad21)*%
X143160000Y-114880000D03*
%TO.P,U2,20,RB5*%
%TO.N,unconnected-(U2-Pad20)*%
X143160000Y-114480000D03*
%TO.P,U2,19,RE9*%
%TO.N,unconnected-(U2-Pad19)*%
X143160000Y-114080000D03*
%TO.P,U2,18,RE8*%
%TO.N,unconnected-(U2-Pad18)*%
X143160000Y-113680000D03*
%TO.P,U2,17,RA0/TMS*%
%TO.N,unconnected-(U2-Pad17)*%
X143160000Y-113280000D03*
%TO.P,U2,16,VDD*%
%TO.N,/supply_3V*%
X143160000Y-112880000D03*
%TO.P,U2,15,VSS*%
%TO.N,Net-(C_vss1-Pad1)*%
X143160000Y-112480000D03*
%TO.P,U2,14,RG9*%
%TO.N,/led_pwm_clk*%
X143160000Y-112080000D03*
%TO.P,U2,13,~{MCLR}*%
%TO.N,Net-(R1-Pad1)*%
X143160000Y-111680000D03*
%TO.P,U2,12,RG8*%
%TO.N,/led_pwm_SDI*%
X143160000Y-111280000D03*
%TO.P,U2,11,RG7*%
%TO.N,/led_pwm_LE*%
X143160000Y-110880000D03*
%TO.P,U2,10,RG6*%
%TO.N,unconnected-(U2-Pad10)*%
X143160000Y-110480000D03*
%TO.P,U2,9,RC4*%
%TO.N,unconnected-(U2-Pad9)*%
X143160000Y-110080000D03*
%TO.P,U2,8,RC3*%
%TO.N,unconnected-(U2-Pad8)*%
X143160000Y-109680000D03*
%TO.P,U2,7,RC2*%
%TO.N,unconnected-(U2-Pad7)*%
X143160000Y-109280000D03*
%TO.P,U2,6,RC1*%
%TO.N,unconnected-(U2-Pad6)*%
X143160000Y-108880000D03*
%TO.P,U2,5,RE7*%
%TO.N,unconnected-(U2-Pad5)*%
X143160000Y-108480000D03*
%TO.P,U2,4,RE6*%
%TO.N,unconnected-(U2-Pad4)*%
X143160000Y-108080000D03*
%TO.P,U2,3,RE5*%
%TO.N,unconnected-(U2-Pad3)*%
X143160000Y-107680000D03*
%TO.P,U2,2,VDD*%
%TO.N,/supply_3V*%
X143160000Y-107280000D03*
%TO.P,U2,1,RG15*%
%TO.N,unconnected-(U2-Pad1)*%
X143160000Y-106880000D03*
%TD*%
D27*
%TO.P,U3,1,GND*%
%TO.N,GND*%
X134505700Y-136127500D03*
%TO.P,U3,2,SDI*%
%TO.N,/led_pwm_SDI*%
X134505700Y-136762500D03*
%TO.P,U3,3,CLK*%
%TO.N,/led_pwm_clk*%
X134505700Y-137397500D03*
%TO.P,U3,4,LE*%
%TO.N,/led_pwm_LE*%
X134505700Y-138032500D03*
%TO.P,U3,5,OUT0*%
%TO.N,Net-(D_IR1-Pad1)*%
X134505700Y-138667500D03*
%TO.P,U3,6,OUT1*%
%TO.N,Net-(D_RGB1-Pad3)*%
X134505700Y-139302500D03*
%TO.P,U3,7,OUT2*%
%TO.N,Net-(D_RGB1-Pad2)*%
X134505700Y-139937500D03*
%TO.P,U3,8,OUT3*%
%TO.N,Net-(D_RGB1-Pad1)*%
X134505700Y-140572500D03*
%TO.P,U3,9,OUT4*%
%TO.N,Net-(D_UV1-Pad1)*%
X134505700Y-141207500D03*
%TO.P,U3,10,OUT5*%
%TO.N,unconnected-(U3-Pad10)*%
X134505700Y-141842500D03*
%TO.P,U3,11,OUT6*%
%TO.N,unconnected-(U3-Pad11)*%
X134505700Y-142477500D03*
%TO.P,U3,12,OUT7*%
%TO.N,unconnected-(U3-Pad12)*%
X134505700Y-143112500D03*
%TO.P,U3,13,OUT8*%
%TO.N,unconnected-(U3-Pad13)*%
X139814300Y-143112500D03*
%TO.P,U3,14,OUT9*%
%TO.N,unconnected-(U3-Pad14)*%
X139814300Y-142477500D03*
%TO.P,U3,15,OUT10*%
%TO.N,unconnected-(U3-Pad15)*%
X139814300Y-141842500D03*
%TO.P,U3,16,OUT11*%
%TO.N,unconnected-(U3-Pad16)*%
X139814300Y-141207500D03*
%TO.P,U3,17,OUT12*%
%TO.N,unconnected-(U3-Pad17)*%
X139814300Y-140572500D03*
%TO.P,U3,18,OUT13*%
%TO.N,unconnected-(U3-Pad18)*%
X139814300Y-139937500D03*
%TO.P,U3,19,OUT14*%
%TO.N,unconnected-(U3-Pad19)*%
X139814300Y-139302500D03*
%TO.P,U3,20,OUT15*%
%TO.N,unconnected-(U3-Pad20)*%
X139814300Y-138667500D03*
%TO.P,U3,21,PWCLK*%
%TO.N,unconnected-(U3-Pad21)*%
X139814300Y-138032500D03*
%TO.P,U3,22,SDO*%
%TO.N,unconnected-(U3-Pad22)*%
X139814300Y-137397500D03*
%TO.P,U3,23,R-EXT*%
%TO.N,unconnected-(U3-Pad23)*%
X139814300Y-136762500D03*
%TO.P,U3,24,VDD*%
%TO.N,/supply_3V*%
X139814300Y-136127500D03*
%TD*%
D28*
%TO.P,Q1,1,B*%
%TO.N,Net-(R_q1-Pad2)*%
X180340000Y-71040000D03*
D29*
%TO.P,Q1,2,E*%
%TO.N,GND*%
X180340000Y-68500000D03*
%TO.P,Q1,3,C*%
%TO.N,Net-(Q1-Pad3)*%
X180340000Y-65960000D03*
%TD*%
D30*
%TO.P,R_q1,1*%
%TO.N,Net-(R_q1-Pad1)*%
X180340000Y-86280000D03*
D31*
%TO.P,R_q1,2*%
%TO.N,Net-(R_q1-Pad2)*%
X180340000Y-76120000D03*
%TD*%
%TO.P,R_osc1,2*%
%TO.N,Net-(C_osc2-Pad1)*%
X157480000Y-35480000D03*
D30*
%TO.P,R_osc1,1*%
%TO.N,Net-(R_osc1-Pad1)*%
X157480000Y-45640000D03*
%TD*%
D31*
%TO.P,R2,2*%
%TO.N,/supply_3V*%
X127000000Y-63420000D03*
D30*
%TO.P,R2,1*%
%TO.N,GND*%
X127000000Y-73580000D03*
%TD*%
D31*
%TO.P,R1,2*%
%TO.N,GND*%
X127000000Y-81200000D03*
D30*
%TO.P,R1,1*%
%TO.N,Net-(R1-Pad1)*%
X127000000Y-91360000D03*
%TD*%
D32*
%TO.N,Net-(C_osc2-Pad1)*%
X147320000Y-65960000D03*
X139700000Y-50720000D03*
X162560000Y-109140000D03*
%TO.N,/supply_3V*%
X106680000Y-116760000D03*
X106680000Y-109140000D03*
%TO.N,Net-(D_IR1-Pad1)*%
X119380000Y-147240000D03*
%TO.N,Net-(D_RGB1-Pad3)*%
X114300000Y-154860000D03*
%TO.N,Net-(D_RGB1-Pad2)*%
X116840000Y-154860000D03*
%TO.N,Net-(D_RGB1-Pad1)*%
X119380000Y-154860000D03*
%TO.N,/led_pwm_clk*%
X119380000Y-116760000D03*
%TO.N,/led_pwm_SDI*%
X124460000Y-116760000D03*
%TO.N,/led_pwm_LE*%
X114300000Y-116760000D03*
X137160000Y-98980000D03*
%TO.N,/led_pwm_SDI*%
X132080000Y-98980000D03*
%TO.N,/led_pwm_clk*%
X121920000Y-98980000D03*
%TD*%
D33*
%TO.N,Net-(C_osc2-Pad1)*%
X147320000Y-58340000D02*
X147320000Y-65960000D01*
X139700000Y-50720000D02*
X147320000Y-58340000D01*
D34*
X160420000Y-111280000D02*
X162560000Y-109140000D01*
X156560000Y-111280000D02*
X160420000Y-111280000D01*
%TO.N,/supply_3V*%
X146447500Y-136127500D02*
X147400000Y-137080000D01*
X139814300Y-136127500D02*
X146447500Y-136127500D01*
D33*
%TO.N,GND*%
X99060000Y-162480000D02*
X99060000Y-139620000D01*
X139700000Y-167560000D02*
X137160000Y-170100000D01*
X106680000Y-170100000D02*
X99060000Y-162480000D01*
X157400000Y-149860000D02*
X139700000Y-167560000D01*
X137160000Y-170100000D02*
X106680000Y-170100000D01*
X157400000Y-137080000D02*
X157400000Y-149860000D01*
X134620000Y-129460000D02*
X129540000Y-134540000D01*
X157400000Y-134460000D02*
X152400000Y-129460000D01*
X152400000Y-129460000D02*
X134620000Y-129460000D01*
X157400000Y-137080000D02*
X157400000Y-134460000D01*
D35*
X131127500Y-136127500D02*
X129540000Y-134540000D01*
X134505700Y-136127500D02*
X131127500Y-136127500D01*
D33*
%TO.N,/supply_3V*%
X106680000Y-109140000D02*
X106680000Y-116760000D01*
D35*
%TO.N,Net-(D_UV1-Pad1)*%
X129540000Y-159940000D02*
X127000000Y-162480000D01*
X129540000Y-145123200D02*
X129540000Y-159940000D01*
X133455700Y-141207500D02*
X129540000Y-145123200D01*
X134505700Y-141207500D02*
X133455700Y-141207500D01*
%TO.N,Net-(D_RGB1-Pad1)*%
X127000000Y-147240000D02*
X119380000Y-154860000D01*
%TO.N,Net-(D_RGB1-Pad2)*%
X131762500Y-139937500D02*
X116840000Y-154860000D01*
X134505700Y-139937500D02*
X131762500Y-139937500D01*
%TO.N,Net-(D_RGB1-Pad3)*%
X134505700Y-139302500D02*
X129857500Y-139302500D01*
X129857500Y-139302500D02*
X114300000Y-154860000D01*
%TO.N,Net-(D_RGB1-Pad1)*%
X131763896Y-140572500D02*
X127000000Y-145336396D01*
X134505700Y-140572500D02*
X131763896Y-140572500D01*
X127000000Y-145336396D02*
X127000000Y-147240000D01*
%TO.N,Net-(D_IR1-Pad1)*%
X127952500Y-138667500D02*
X119380000Y-147240000D01*
X134505700Y-138667500D02*
X127952500Y-138667500D01*
%TO.N,/led_pwm_SDI*%
X124460000Y-131363604D02*
X124460000Y-116760000D01*
X129858896Y-136762500D02*
X124460000Y-131363604D01*
X134505700Y-136762500D02*
X129858896Y-136762500D01*
%TO.N,/led_pwm_LE*%
X114300000Y-126920000D02*
X114300000Y-116760000D01*
X125412500Y-138032500D02*
X114300000Y-126920000D01*
X134505700Y-138032500D02*
X125412500Y-138032500D01*
%TO.N,/led_pwm_clk*%
X119380000Y-126920000D02*
X119380000Y-116760000D01*
X129857500Y-137397500D02*
X119380000Y-126920000D01*
X134505700Y-137397500D02*
X129857500Y-137397500D01*
D36*
%TO.N,GND*%
X102900000Y-104197500D02*
X99197500Y-104197500D01*
X99060000Y-104060000D02*
X99197500Y-104197500D01*
D33*
X100242500Y-139620000D02*
X102900000Y-142277500D01*
X99060000Y-139620000D02*
X100242500Y-139620000D01*
X99060000Y-77557500D02*
X99060000Y-139620000D01*
X102900000Y-73717500D02*
X99060000Y-77557500D01*
X182880000Y-27860000D02*
X195580000Y-40560000D01*
X142240000Y-30400000D02*
X144780000Y-27860000D01*
X144780000Y-27860000D02*
X182880000Y-27860000D01*
X142240000Y-45640000D02*
X142240000Y-30400000D01*
X147320000Y-50720000D02*
X142240000Y-45640000D01*
X152400000Y-50720000D02*
X147320000Y-50720000D01*
X154940000Y-50720000D02*
X152400000Y-50720000D01*
X170100000Y-50720000D02*
X154940000Y-50720000D01*
X154940000Y-73580000D02*
X159940000Y-73580000D01*
X154940000Y-73580000D02*
X154940000Y-50720000D01*
X127000000Y-73580000D02*
X154940000Y-73580000D01*
X159940000Y-73580000D02*
X162560000Y-76200000D01*
X109220000Y-73580000D02*
X127000000Y-73580000D01*
X109082500Y-73717500D02*
X102900000Y-73717500D01*
X109220000Y-73580000D02*
X109082500Y-73717500D01*
X109220000Y-88820000D02*
X109220000Y-73580000D01*
X111760000Y-91360000D02*
X109220000Y-88820000D01*
X116840000Y-91360000D02*
X111760000Y-91360000D01*
X203200000Y-43100000D02*
X203200000Y-48180000D01*
X200660000Y-40560000D02*
X203200000Y-43100000D01*
X195860000Y-40560000D02*
X200660000Y-40560000D01*
X203200000Y-48180000D02*
X205660000Y-50640000D01*
X194030000Y-42390000D02*
X195860000Y-40560000D01*
X194030000Y-43440000D02*
X194030000Y-42390000D01*
X205660000Y-50640000D02*
X210820000Y-50640000D01*
X210820000Y-50640000D02*
X223520000Y-50640000D01*
X152400000Y-50720000D02*
X149860000Y-48180000D01*
X149860000Y-48180000D02*
X149860000Y-45560000D01*
X175260000Y-45560000D02*
X170100000Y-50720000D01*
%TO.N,Net-(R_osc1-Pad1)*%
X162560000Y-45640000D02*
X165100000Y-43100000D01*
X157480000Y-45640000D02*
X162560000Y-45640000D01*
%TO.N,Net-(C_osc2-Pad1)*%
X149940000Y-35480000D02*
X149860000Y-35560000D01*
X157480000Y-35480000D02*
X149940000Y-35480000D01*
%TO.N,Net-(C_osc1-Pad2)*%
X167560000Y-35560000D02*
X165100000Y-38020000D01*
X175260000Y-35560000D02*
X167560000Y-35560000D01*
X185420000Y-43100000D02*
X185420000Y-98980000D01*
X177880000Y-35560000D02*
X185420000Y-43100000D01*
X175260000Y-35560000D02*
X177880000Y-35560000D01*
D34*
%TO.N,/light_sensor_SDA*%
X151860000Y-121300000D02*
X151860000Y-118380000D01*
X172720000Y-124380000D02*
X154940000Y-124380000D01*
X195580000Y-60880000D02*
X195580000Y-101520000D01*
X192730000Y-58030000D02*
X195580000Y-60880000D01*
X195580000Y-101520000D02*
X172720000Y-124380000D01*
X154940000Y-124380000D02*
X151860000Y-121300000D01*
X192730000Y-47840000D02*
X192730000Y-58030000D01*
%TO.N,/light_sensor_SCL*%
X190500000Y-50720000D02*
X190500000Y-63420000D01*
X192080000Y-49140000D02*
X190500000Y-50720000D01*
X192080000Y-47840000D02*
X192080000Y-49140000D01*
X190500000Y-98980000D02*
X190500000Y-55800000D01*
D33*
%TO.N,Net-(C_avss1-Pad1)*%
X200660000Y-86280000D02*
X200660000Y-98980000D01*
%TO.N,Net-(R_q1-Pad2)*%
X180340000Y-76120000D02*
X180340000Y-71040000D01*
%TO.N,Net-(R_q1-Pad1)*%
X180340000Y-86280000D02*
X180340000Y-98980000D01*
%TO.N,Net-(Q1-Pad3)*%
X180340000Y-65960000D02*
X180340000Y-55800000D01*
%TO.N,Net-(C_vcap1-Pad2)*%
X162560000Y-91360000D02*
X170180000Y-98980000D01*
X162560000Y-86200000D02*
X162560000Y-91360000D01*
%TO.N,Net-(C_vss1-Pad1)*%
X172720000Y-96440000D02*
X175260000Y-98980000D01*
X172720000Y-86200000D02*
X172720000Y-96440000D01*
%TO.N,Net-(J_HSENS1-Pad3)*%
X116840000Y-93900000D02*
X116840000Y-98980000D01*
%TO.N,GND*%
X127000000Y-81200000D02*
X127000000Y-73580000D01*
%TO.N,Net-(R1-Pad1)*%
X127000000Y-91360000D02*
X127000000Y-98980000D01*
D34*
X143160000Y-111680000D02*
X134620000Y-111680000D01*
X134620000Y-111680000D02*
X127000000Y-104060000D01*
X127000000Y-104060000D02*
X127000000Y-98980000D01*
%TO.N,Net-(C_avss1-Pad1)*%
X154650000Y-126920000D02*
X177800000Y-126920000D01*
X147060000Y-119330000D02*
X154650000Y-126920000D01*
X177800000Y-126920000D02*
X200660000Y-104060000D01*
X200660000Y-104060000D02*
X200660000Y-98980000D01*
X147060000Y-118380000D02*
X147060000Y-119330000D01*
%TO.N,Net-(J_HSENS1-Pad3)*%
X116840000Y-101520000D02*
X116840000Y-98980000D01*
X130600000Y-115280000D02*
X116840000Y-101520000D01*
X143160000Y-115280000D02*
X130600000Y-115280000D01*
%TO.N,/led_pwm_clk*%
X121920000Y-104060000D02*
X121920000Y-98980000D01*
X129940000Y-112080000D02*
X121920000Y-104060000D01*
X143160000Y-112080000D02*
X129940000Y-112080000D01*
%TO.N,/led_pwm_SDI*%
X132080000Y-106600000D02*
X132080000Y-98980000D01*
X143160000Y-111280000D02*
X136760000Y-111280000D01*
X136760000Y-111280000D02*
X132080000Y-106600000D01*
%TO.N,/led_pwm_LE*%
X137160000Y-105830000D02*
X137160000Y-98980000D01*
X142210000Y-110880000D02*
X137160000Y-105830000D01*
X143160000Y-110880000D02*
X142210000Y-110880000D01*
%TO.N,/light_sensor_SCL*%
X167640000Y-121840000D02*
X190500000Y-98980000D01*
X154670000Y-121840000D02*
X167640000Y-121840000D01*
X152260000Y-119430000D02*
X154670000Y-121840000D01*
X152260000Y-118380000D02*
X152260000Y-119430000D01*
%TO.N,Net-(C_osc1-Pad2)*%
X172720000Y-111680000D02*
X185420000Y-98980000D01*
X156560000Y-111680000D02*
X172720000Y-111680000D01*
%TO.N,Net-(R_q1-Pad1)*%
X171240000Y-108080000D02*
X180340000Y-98980000D01*
X156560000Y-108080000D02*
X171240000Y-108080000D01*
%TO.N,Net-(C_vss1-Pad1)*%
X167360000Y-106880000D02*
X175260000Y-98980000D01*
X156560000Y-106880000D02*
X167360000Y-106880000D01*
%TO.N,Net-(C_vcap1-Pad2)*%
X167640000Y-101520000D02*
X170180000Y-98980000D01*
X152400000Y-101520000D02*
X167640000Y-101520000D01*
X151060000Y-102860000D02*
X152400000Y-101520000D01*
X151060000Y-104980000D02*
X151060000Y-102860000D01*
%TO.N,/supply_3V*%
X152400000Y-98980000D02*
X165100000Y-98980000D01*
X150660000Y-100720000D02*
X152400000Y-98980000D01*
X150660000Y-104980000D02*
X150660000Y-100720000D01*
%TD*%
M02*
