%TF.GenerationSoftware,KiCad,Pcbnew,(6.0.7)*%
%TF.CreationDate,2022-11-30T23:51:13-03:00*%
%TF.ProjectId,ea075_project,65613037-355f-4707-926f-6a6563742e6b,rev?*%
%TF.SameCoordinates,Original*%
%TF.FileFunction,Legend,Top*%
%TF.FilePolarity,Positive*%
%FSLAX46Y46*%
G04 Gerber Fmt 4.6, Leading zero omitted, Abs format (unit mm)*
G04 Created by KiCad (PCBNEW (6.0.7)) date 2022-11-30 23:51:13*
%MOMM*%
%LPD*%
G01*
G04 APERTURE LIST*
%ADD10C,0.150000*%
%ADD11C,0.120000*%
G04 APERTURE END LIST*
D10*
%TO.C,C_vss1*%
X169327142Y-82938095D02*
X169374761Y-82985714D01*
X169422380Y-83128571D01*
X169422380Y-83223809D01*
X169374761Y-83366666D01*
X169279523Y-83461904D01*
X169184285Y-83509523D01*
X168993809Y-83557142D01*
X168850952Y-83557142D01*
X168660476Y-83509523D01*
X168565238Y-83461904D01*
X168470000Y-83366666D01*
X168422380Y-83223809D01*
X168422380Y-83128571D01*
X168470000Y-82985714D01*
X168517619Y-82938095D01*
X169517619Y-82747619D02*
X169517619Y-81985714D01*
X168755714Y-81842857D02*
X169422380Y-81604761D01*
X168755714Y-81366666D01*
X169374761Y-81033333D02*
X169422380Y-80938095D01*
X169422380Y-80747619D01*
X169374761Y-80652380D01*
X169279523Y-80604761D01*
X169231904Y-80604761D01*
X169136666Y-80652380D01*
X169089047Y-80747619D01*
X169089047Y-80890476D01*
X169041428Y-80985714D01*
X168946190Y-81033333D01*
X168898571Y-81033333D01*
X168803333Y-80985714D01*
X168755714Y-80890476D01*
X168755714Y-80747619D01*
X168803333Y-80652380D01*
X169374761Y-80223809D02*
X169422380Y-80128571D01*
X169422380Y-79938095D01*
X169374761Y-79842857D01*
X169279523Y-79795238D01*
X169231904Y-79795238D01*
X169136666Y-79842857D01*
X169089047Y-79938095D01*
X169089047Y-80080952D01*
X169041428Y-80176190D01*
X168946190Y-80223809D01*
X168898571Y-80223809D01*
X168803333Y-80176190D01*
X168755714Y-80080952D01*
X168755714Y-79938095D01*
X168803333Y-79842857D01*
X169422380Y-78842857D02*
X169422380Y-79414285D01*
X169422380Y-79128571D02*
X168422380Y-79128571D01*
X168565238Y-79223809D01*
X168660476Y-79319047D01*
X168708095Y-79414285D01*
%TO.C,C_vcap1*%
X166667142Y-83461904D02*
X166714761Y-83509523D01*
X166762380Y-83652380D01*
X166762380Y-83747619D01*
X166714761Y-83890476D01*
X166619523Y-83985714D01*
X166524285Y-84033333D01*
X166333809Y-84080952D01*
X166190952Y-84080952D01*
X166000476Y-84033333D01*
X165905238Y-83985714D01*
X165810000Y-83890476D01*
X165762380Y-83747619D01*
X165762380Y-83652380D01*
X165810000Y-83509523D01*
X165857619Y-83461904D01*
X166857619Y-83271428D02*
X166857619Y-82509523D01*
X166095714Y-82366666D02*
X166762380Y-82128571D01*
X166095714Y-81890476D01*
X166714761Y-81080952D02*
X166762380Y-81176190D01*
X166762380Y-81366666D01*
X166714761Y-81461904D01*
X166667142Y-81509523D01*
X166571904Y-81557142D01*
X166286190Y-81557142D01*
X166190952Y-81509523D01*
X166143333Y-81461904D01*
X166095714Y-81366666D01*
X166095714Y-81176190D01*
X166143333Y-81080952D01*
X166762380Y-80223809D02*
X166238571Y-80223809D01*
X166143333Y-80271428D01*
X166095714Y-80366666D01*
X166095714Y-80557142D01*
X166143333Y-80652380D01*
X166714761Y-80223809D02*
X166762380Y-80319047D01*
X166762380Y-80557142D01*
X166714761Y-80652380D01*
X166619523Y-80700000D01*
X166524285Y-80700000D01*
X166429047Y-80652380D01*
X166381428Y-80557142D01*
X166381428Y-80319047D01*
X166333809Y-80223809D01*
X166095714Y-79747619D02*
X167095714Y-79747619D01*
X166143333Y-79747619D02*
X166095714Y-79652380D01*
X166095714Y-79461904D01*
X166143333Y-79366666D01*
X166190952Y-79319047D01*
X166286190Y-79271428D01*
X166571904Y-79271428D01*
X166667142Y-79319047D01*
X166714761Y-79366666D01*
X166762380Y-79461904D01*
X166762380Y-79652380D01*
X166714761Y-79747619D01*
X166762380Y-78319047D02*
X166762380Y-78890476D01*
X166762380Y-78604761D02*
X165762380Y-78604761D01*
X165905238Y-78700000D01*
X166000476Y-78795238D01*
X166048095Y-78890476D01*
%TO.C,c_svdd2*%
X227674761Y-47949523D02*
X227722380Y-48044761D01*
X227722380Y-48235238D01*
X227674761Y-48330476D01*
X227627142Y-48378095D01*
X227531904Y-48425714D01*
X227246190Y-48425714D01*
X227150952Y-48378095D01*
X227103333Y-48330476D01*
X227055714Y-48235238D01*
X227055714Y-48044761D01*
X227103333Y-47949523D01*
X227817619Y-47759047D02*
X227817619Y-46997142D01*
X227674761Y-46806666D02*
X227722380Y-46711428D01*
X227722380Y-46520952D01*
X227674761Y-46425714D01*
X227579523Y-46378095D01*
X227531904Y-46378095D01*
X227436666Y-46425714D01*
X227389047Y-46520952D01*
X227389047Y-46663809D01*
X227341428Y-46759047D01*
X227246190Y-46806666D01*
X227198571Y-46806666D01*
X227103333Y-46759047D01*
X227055714Y-46663809D01*
X227055714Y-46520952D01*
X227103333Y-46425714D01*
X227055714Y-46044761D02*
X227722380Y-45806666D01*
X227055714Y-45568571D01*
X227722380Y-44759047D02*
X226722380Y-44759047D01*
X227674761Y-44759047D02*
X227722380Y-44854285D01*
X227722380Y-45044761D01*
X227674761Y-45140000D01*
X227627142Y-45187619D01*
X227531904Y-45235238D01*
X227246190Y-45235238D01*
X227150952Y-45187619D01*
X227103333Y-45140000D01*
X227055714Y-45044761D01*
X227055714Y-44854285D01*
X227103333Y-44759047D01*
X227722380Y-43854285D02*
X226722380Y-43854285D01*
X227674761Y-43854285D02*
X227722380Y-43949523D01*
X227722380Y-44140000D01*
X227674761Y-44235238D01*
X227627142Y-44282857D01*
X227531904Y-44330476D01*
X227246190Y-44330476D01*
X227150952Y-44282857D01*
X227103333Y-44235238D01*
X227055714Y-44140000D01*
X227055714Y-43949523D01*
X227103333Y-43854285D01*
X226817619Y-43425714D02*
X226770000Y-43378095D01*
X226722380Y-43282857D01*
X226722380Y-43044761D01*
X226770000Y-42949523D01*
X226817619Y-42901904D01*
X226912857Y-42854285D01*
X227008095Y-42854285D01*
X227150952Y-42901904D01*
X227722380Y-43473333D01*
X227722380Y-42854285D01*
%TO.C,c_svdd1*%
X207474761Y-47949523D02*
X207522380Y-48044761D01*
X207522380Y-48235238D01*
X207474761Y-48330476D01*
X207427142Y-48378095D01*
X207331904Y-48425714D01*
X207046190Y-48425714D01*
X206950952Y-48378095D01*
X206903333Y-48330476D01*
X206855714Y-48235238D01*
X206855714Y-48044761D01*
X206903333Y-47949523D01*
X207617619Y-47759047D02*
X207617619Y-46997142D01*
X207474761Y-46806666D02*
X207522380Y-46711428D01*
X207522380Y-46520952D01*
X207474761Y-46425714D01*
X207379523Y-46378095D01*
X207331904Y-46378095D01*
X207236666Y-46425714D01*
X207189047Y-46520952D01*
X207189047Y-46663809D01*
X207141428Y-46759047D01*
X207046190Y-46806666D01*
X206998571Y-46806666D01*
X206903333Y-46759047D01*
X206855714Y-46663809D01*
X206855714Y-46520952D01*
X206903333Y-46425714D01*
X206855714Y-46044761D02*
X207522380Y-45806666D01*
X206855714Y-45568571D01*
X207522380Y-44759047D02*
X206522380Y-44759047D01*
X207474761Y-44759047D02*
X207522380Y-44854285D01*
X207522380Y-45044761D01*
X207474761Y-45140000D01*
X207427142Y-45187619D01*
X207331904Y-45235238D01*
X207046190Y-45235238D01*
X206950952Y-45187619D01*
X206903333Y-45140000D01*
X206855714Y-45044761D01*
X206855714Y-44854285D01*
X206903333Y-44759047D01*
X207522380Y-43854285D02*
X206522380Y-43854285D01*
X207474761Y-43854285D02*
X207522380Y-43949523D01*
X207522380Y-44140000D01*
X207474761Y-44235238D01*
X207427142Y-44282857D01*
X207331904Y-44330476D01*
X207046190Y-44330476D01*
X206950952Y-44282857D01*
X206903333Y-44235238D01*
X206855714Y-44140000D01*
X206855714Y-43949523D01*
X206903333Y-43854285D01*
X207522380Y-42854285D02*
X207522380Y-43425714D01*
X207522380Y-43140000D02*
X206522380Y-43140000D01*
X206665238Y-43235238D01*
X206760476Y-43330476D01*
X206808095Y-43425714D01*
%TO.C,C_osc2*%
X153967142Y-42393333D02*
X154014761Y-42440952D01*
X154062380Y-42583809D01*
X154062380Y-42679047D01*
X154014761Y-42821904D01*
X153919523Y-42917142D01*
X153824285Y-42964761D01*
X153633809Y-43012380D01*
X153490952Y-43012380D01*
X153300476Y-42964761D01*
X153205238Y-42917142D01*
X153110000Y-42821904D01*
X153062380Y-42679047D01*
X153062380Y-42583809D01*
X153110000Y-42440952D01*
X153157619Y-42393333D01*
X154157619Y-42202857D02*
X154157619Y-41440952D01*
X154062380Y-41060000D02*
X154014761Y-41155238D01*
X153967142Y-41202857D01*
X153871904Y-41250476D01*
X153586190Y-41250476D01*
X153490952Y-41202857D01*
X153443333Y-41155238D01*
X153395714Y-41060000D01*
X153395714Y-40917142D01*
X153443333Y-40821904D01*
X153490952Y-40774285D01*
X153586190Y-40726666D01*
X153871904Y-40726666D01*
X153967142Y-40774285D01*
X154014761Y-40821904D01*
X154062380Y-40917142D01*
X154062380Y-41060000D01*
X154014761Y-40345714D02*
X154062380Y-40250476D01*
X154062380Y-40060000D01*
X154014761Y-39964761D01*
X153919523Y-39917142D01*
X153871904Y-39917142D01*
X153776666Y-39964761D01*
X153729047Y-40060000D01*
X153729047Y-40202857D01*
X153681428Y-40298095D01*
X153586190Y-40345714D01*
X153538571Y-40345714D01*
X153443333Y-40298095D01*
X153395714Y-40202857D01*
X153395714Y-40060000D01*
X153443333Y-39964761D01*
X154014761Y-39060000D02*
X154062380Y-39155238D01*
X154062380Y-39345714D01*
X154014761Y-39440952D01*
X153967142Y-39488571D01*
X153871904Y-39536190D01*
X153586190Y-39536190D01*
X153490952Y-39488571D01*
X153443333Y-39440952D01*
X153395714Y-39345714D01*
X153395714Y-39155238D01*
X153443333Y-39060000D01*
X153157619Y-38679047D02*
X153110000Y-38631428D01*
X153062380Y-38536190D01*
X153062380Y-38298095D01*
X153110000Y-38202857D01*
X153157619Y-38155238D01*
X153252857Y-38107619D01*
X153348095Y-38107619D01*
X153490952Y-38155238D01*
X154062380Y-38726666D01*
X154062380Y-38107619D01*
%TO.C,C_osc1*%
X171867142Y-42393333D02*
X171914761Y-42440952D01*
X171962380Y-42583809D01*
X171962380Y-42679047D01*
X171914761Y-42821904D01*
X171819523Y-42917142D01*
X171724285Y-42964761D01*
X171533809Y-43012380D01*
X171390952Y-43012380D01*
X171200476Y-42964761D01*
X171105238Y-42917142D01*
X171010000Y-42821904D01*
X170962380Y-42679047D01*
X170962380Y-42583809D01*
X171010000Y-42440952D01*
X171057619Y-42393333D01*
X172057619Y-42202857D02*
X172057619Y-41440952D01*
X171962380Y-41060000D02*
X171914761Y-41155238D01*
X171867142Y-41202857D01*
X171771904Y-41250476D01*
X171486190Y-41250476D01*
X171390952Y-41202857D01*
X171343333Y-41155238D01*
X171295714Y-41060000D01*
X171295714Y-40917142D01*
X171343333Y-40821904D01*
X171390952Y-40774285D01*
X171486190Y-40726666D01*
X171771904Y-40726666D01*
X171867142Y-40774285D01*
X171914761Y-40821904D01*
X171962380Y-40917142D01*
X171962380Y-41060000D01*
X171914761Y-40345714D02*
X171962380Y-40250476D01*
X171962380Y-40060000D01*
X171914761Y-39964761D01*
X171819523Y-39917142D01*
X171771904Y-39917142D01*
X171676666Y-39964761D01*
X171629047Y-40060000D01*
X171629047Y-40202857D01*
X171581428Y-40298095D01*
X171486190Y-40345714D01*
X171438571Y-40345714D01*
X171343333Y-40298095D01*
X171295714Y-40202857D01*
X171295714Y-40060000D01*
X171343333Y-39964761D01*
X171914761Y-39060000D02*
X171962380Y-39155238D01*
X171962380Y-39345714D01*
X171914761Y-39440952D01*
X171867142Y-39488571D01*
X171771904Y-39536190D01*
X171486190Y-39536190D01*
X171390952Y-39488571D01*
X171343333Y-39440952D01*
X171295714Y-39345714D01*
X171295714Y-39155238D01*
X171343333Y-39060000D01*
X171962380Y-38107619D02*
X171962380Y-38679047D01*
X171962380Y-38393333D02*
X170962380Y-38393333D01*
X171105238Y-38488571D01*
X171200476Y-38583809D01*
X171248095Y-38679047D01*
%TO.C,C_avss1*%
X197267142Y-83470476D02*
X197314761Y-83518095D01*
X197362380Y-83660952D01*
X197362380Y-83756190D01*
X197314761Y-83899047D01*
X197219523Y-83994285D01*
X197124285Y-84041904D01*
X196933809Y-84089523D01*
X196790952Y-84089523D01*
X196600476Y-84041904D01*
X196505238Y-83994285D01*
X196410000Y-83899047D01*
X196362380Y-83756190D01*
X196362380Y-83660952D01*
X196410000Y-83518095D01*
X196457619Y-83470476D01*
X197457619Y-83280000D02*
X197457619Y-82518095D01*
X197362380Y-81851428D02*
X196838571Y-81851428D01*
X196743333Y-81899047D01*
X196695714Y-81994285D01*
X196695714Y-82184761D01*
X196743333Y-82280000D01*
X197314761Y-81851428D02*
X197362380Y-81946666D01*
X197362380Y-82184761D01*
X197314761Y-82280000D01*
X197219523Y-82327619D01*
X197124285Y-82327619D01*
X197029047Y-82280000D01*
X196981428Y-82184761D01*
X196981428Y-81946666D01*
X196933809Y-81851428D01*
X196695714Y-81470476D02*
X197362380Y-81232380D01*
X196695714Y-80994285D01*
X197314761Y-80660952D02*
X197362380Y-80565714D01*
X197362380Y-80375238D01*
X197314761Y-80280000D01*
X197219523Y-80232380D01*
X197171904Y-80232380D01*
X197076666Y-80280000D01*
X197029047Y-80375238D01*
X197029047Y-80518095D01*
X196981428Y-80613333D01*
X196886190Y-80660952D01*
X196838571Y-80660952D01*
X196743333Y-80613333D01*
X196695714Y-80518095D01*
X196695714Y-80375238D01*
X196743333Y-80280000D01*
X197314761Y-79851428D02*
X197362380Y-79756190D01*
X197362380Y-79565714D01*
X197314761Y-79470476D01*
X197219523Y-79422857D01*
X197171904Y-79422857D01*
X197076666Y-79470476D01*
X197029047Y-79565714D01*
X197029047Y-79708571D01*
X196981428Y-79803809D01*
X196886190Y-79851428D01*
X196838571Y-79851428D01*
X196743333Y-79803809D01*
X196695714Y-79708571D01*
X196695714Y-79565714D01*
X196743333Y-79470476D01*
X197362380Y-78470476D02*
X197362380Y-79041904D01*
X197362380Y-78756190D02*
X196362380Y-78756190D01*
X196505238Y-78851428D01*
X196600476Y-78946666D01*
X196648095Y-79041904D01*
%TO.C,C1*%
X152233333Y-141187142D02*
X152185714Y-141234761D01*
X152042857Y-141282380D01*
X151947619Y-141282380D01*
X151804761Y-141234761D01*
X151709523Y-141139523D01*
X151661904Y-141044285D01*
X151614285Y-140853809D01*
X151614285Y-140710952D01*
X151661904Y-140520476D01*
X151709523Y-140425238D01*
X151804761Y-140330000D01*
X151947619Y-140282380D01*
X152042857Y-140282380D01*
X152185714Y-140330000D01*
X152233333Y-140377619D01*
X153185714Y-141282380D02*
X152614285Y-141282380D01*
X152900000Y-141282380D02*
X152900000Y-140282380D01*
X152804761Y-140425238D01*
X152709523Y-140520476D01*
X152614285Y-140568095D01*
%TO.C,J-AC1*%
X70752380Y-57680952D02*
X71466666Y-57680952D01*
X71609523Y-57728571D01*
X71704761Y-57823809D01*
X71752380Y-57966666D01*
X71752380Y-58061904D01*
X71371428Y-57204761D02*
X71371428Y-56442857D01*
X71466666Y-56014285D02*
X71466666Y-55538095D01*
X71752380Y-56109523D02*
X70752380Y-55776190D01*
X71752380Y-55442857D01*
X71657142Y-54538095D02*
X71704761Y-54585714D01*
X71752380Y-54728571D01*
X71752380Y-54823809D01*
X71704761Y-54966666D01*
X71609523Y-55061904D01*
X71514285Y-55109523D01*
X71323809Y-55157142D01*
X71180952Y-55157142D01*
X70990476Y-55109523D01*
X70895238Y-55061904D01*
X70800000Y-54966666D01*
X70752380Y-54823809D01*
X70752380Y-54728571D01*
X70800000Y-54585714D01*
X70847619Y-54538095D01*
X71752380Y-53585714D02*
X71752380Y-54157142D01*
X71752380Y-53871428D02*
X70752380Y-53871428D01*
X70895238Y-53966666D01*
X70990476Y-54061904D01*
X71038095Y-54157142D01*
%TO.C,J_PUMP1*%
X177530476Y-58022380D02*
X177530476Y-58736666D01*
X177482857Y-58879523D01*
X177387619Y-58974761D01*
X177244761Y-59022380D01*
X177149523Y-59022380D01*
X177768571Y-59117619D02*
X178530476Y-59117619D01*
X178768571Y-59022380D02*
X178768571Y-58022380D01*
X179149523Y-58022380D01*
X179244761Y-58070000D01*
X179292380Y-58117619D01*
X179340000Y-58212857D01*
X179340000Y-58355714D01*
X179292380Y-58450952D01*
X179244761Y-58498571D01*
X179149523Y-58546190D01*
X178768571Y-58546190D01*
X179768571Y-58022380D02*
X179768571Y-58831904D01*
X179816190Y-58927142D01*
X179863809Y-58974761D01*
X179959047Y-59022380D01*
X180149523Y-59022380D01*
X180244761Y-58974761D01*
X180292380Y-58927142D01*
X180340000Y-58831904D01*
X180340000Y-58022380D01*
X180816190Y-59022380D02*
X180816190Y-58022380D01*
X181149523Y-58736666D01*
X181482857Y-58022380D01*
X181482857Y-59022380D01*
X181959047Y-59022380D02*
X181959047Y-58022380D01*
X182340000Y-58022380D01*
X182435238Y-58070000D01*
X182482857Y-58117619D01*
X182530476Y-58212857D01*
X182530476Y-58355714D01*
X182482857Y-58450952D01*
X182435238Y-58498571D01*
X182340000Y-58546190D01*
X181959047Y-58546190D01*
X183482857Y-59022380D02*
X182911428Y-59022380D01*
X183197142Y-59022380D02*
X183197142Y-58022380D01*
X183101904Y-58165238D01*
X183006666Y-58260476D01*
X182911428Y-58308095D01*
%TO.C,J_HSENS1*%
X113673333Y-85502380D02*
X113673333Y-86216666D01*
X113625714Y-86359523D01*
X113530476Y-86454761D01*
X113387619Y-86502380D01*
X113292380Y-86502380D01*
X113911428Y-86597619D02*
X114673333Y-86597619D01*
X114911428Y-86502380D02*
X114911428Y-85502380D01*
X114911428Y-85978571D02*
X115482857Y-85978571D01*
X115482857Y-86502380D02*
X115482857Y-85502380D01*
X115911428Y-86454761D02*
X116054285Y-86502380D01*
X116292380Y-86502380D01*
X116387619Y-86454761D01*
X116435238Y-86407142D01*
X116482857Y-86311904D01*
X116482857Y-86216666D01*
X116435238Y-86121428D01*
X116387619Y-86073809D01*
X116292380Y-86026190D01*
X116101904Y-85978571D01*
X116006666Y-85930952D01*
X115959047Y-85883333D01*
X115911428Y-85788095D01*
X115911428Y-85692857D01*
X115959047Y-85597619D01*
X116006666Y-85550000D01*
X116101904Y-85502380D01*
X116340000Y-85502380D01*
X116482857Y-85550000D01*
X116911428Y-85978571D02*
X117244761Y-85978571D01*
X117387619Y-86502380D02*
X116911428Y-86502380D01*
X116911428Y-85502380D01*
X117387619Y-85502380D01*
X117816190Y-86502380D02*
X117816190Y-85502380D01*
X118387619Y-86502380D01*
X118387619Y-85502380D01*
X118816190Y-86454761D02*
X118959047Y-86502380D01*
X119197142Y-86502380D01*
X119292380Y-86454761D01*
X119340000Y-86407142D01*
X119387619Y-86311904D01*
X119387619Y-86216666D01*
X119340000Y-86121428D01*
X119292380Y-86073809D01*
X119197142Y-86026190D01*
X119006666Y-85978571D01*
X118911428Y-85930952D01*
X118863809Y-85883333D01*
X118816190Y-85788095D01*
X118816190Y-85692857D01*
X118863809Y-85597619D01*
X118911428Y-85550000D01*
X119006666Y-85502380D01*
X119244761Y-85502380D01*
X119387619Y-85550000D01*
X120340000Y-86502380D02*
X119768571Y-86502380D01*
X120054285Y-86502380D02*
X120054285Y-85502380D01*
X119959047Y-85645238D01*
X119863809Y-85740476D01*
X119768571Y-85788095D01*
%TO.C,PS_12V1*%
X71123809Y-130329880D02*
X71123809Y-129329880D01*
X71504761Y-129329880D01*
X71600000Y-129377500D01*
X71647619Y-129425119D01*
X71695238Y-129520357D01*
X71695238Y-129663214D01*
X71647619Y-129758452D01*
X71600000Y-129806071D01*
X71504761Y-129853690D01*
X71123809Y-129853690D01*
X72076190Y-130282261D02*
X72219047Y-130329880D01*
X72457142Y-130329880D01*
X72552380Y-130282261D01*
X72600000Y-130234642D01*
X72647619Y-130139404D01*
X72647619Y-130044166D01*
X72600000Y-129948928D01*
X72552380Y-129901309D01*
X72457142Y-129853690D01*
X72266666Y-129806071D01*
X72171428Y-129758452D01*
X72123809Y-129710833D01*
X72076190Y-129615595D01*
X72076190Y-129520357D01*
X72123809Y-129425119D01*
X72171428Y-129377500D01*
X72266666Y-129329880D01*
X72504761Y-129329880D01*
X72647619Y-129377500D01*
X72838095Y-130425119D02*
X73600000Y-130425119D01*
X74361904Y-130329880D02*
X73790476Y-130329880D01*
X74076190Y-130329880D02*
X74076190Y-129329880D01*
X73980952Y-129472738D01*
X73885714Y-129567976D01*
X73790476Y-129615595D01*
X74742857Y-129425119D02*
X74790476Y-129377500D01*
X74885714Y-129329880D01*
X75123809Y-129329880D01*
X75219047Y-129377500D01*
X75266666Y-129425119D01*
X75314285Y-129520357D01*
X75314285Y-129615595D01*
X75266666Y-129758452D01*
X74695238Y-130329880D01*
X75314285Y-130329880D01*
X75600000Y-129329880D02*
X75933333Y-130329880D01*
X76266666Y-129329880D01*
X77123809Y-130329880D02*
X76552380Y-130329880D01*
X76838095Y-130329880D02*
X76838095Y-129329880D01*
X76742857Y-129472738D01*
X76647619Y-129567976D01*
X76552380Y-129615595D01*
%TO.C,PS_5V1*%
X71600000Y-99849880D02*
X71600000Y-98849880D01*
X71980952Y-98849880D01*
X72076190Y-98897500D01*
X72123809Y-98945119D01*
X72171428Y-99040357D01*
X72171428Y-99183214D01*
X72123809Y-99278452D01*
X72076190Y-99326071D01*
X71980952Y-99373690D01*
X71600000Y-99373690D01*
X72552380Y-99802261D02*
X72695238Y-99849880D01*
X72933333Y-99849880D01*
X73028571Y-99802261D01*
X73076190Y-99754642D01*
X73123809Y-99659404D01*
X73123809Y-99564166D01*
X73076190Y-99468928D01*
X73028571Y-99421309D01*
X72933333Y-99373690D01*
X72742857Y-99326071D01*
X72647619Y-99278452D01*
X72600000Y-99230833D01*
X72552380Y-99135595D01*
X72552380Y-99040357D01*
X72600000Y-98945119D01*
X72647619Y-98897500D01*
X72742857Y-98849880D01*
X72980952Y-98849880D01*
X73123809Y-98897500D01*
X73314285Y-99945119D02*
X74076190Y-99945119D01*
X74790476Y-98849880D02*
X74314285Y-98849880D01*
X74266666Y-99326071D01*
X74314285Y-99278452D01*
X74409523Y-99230833D01*
X74647619Y-99230833D01*
X74742857Y-99278452D01*
X74790476Y-99326071D01*
X74838095Y-99421309D01*
X74838095Y-99659404D01*
X74790476Y-99754642D01*
X74742857Y-99802261D01*
X74647619Y-99849880D01*
X74409523Y-99849880D01*
X74314285Y-99802261D01*
X74266666Y-99754642D01*
X75123809Y-98849880D02*
X75457142Y-99849880D01*
X75790476Y-98849880D01*
X76647619Y-99849880D02*
X76076190Y-99849880D01*
X76361904Y-99849880D02*
X76361904Y-98849880D01*
X76266666Y-98992738D01*
X76171428Y-99087976D01*
X76076190Y-99135595D01*
%TO.C,PS_3V1*%
X71600000Y-69369880D02*
X71600000Y-68369880D01*
X71980952Y-68369880D01*
X72076190Y-68417500D01*
X72123809Y-68465119D01*
X72171428Y-68560357D01*
X72171428Y-68703214D01*
X72123809Y-68798452D01*
X72076190Y-68846071D01*
X71980952Y-68893690D01*
X71600000Y-68893690D01*
X72552380Y-69322261D02*
X72695238Y-69369880D01*
X72933333Y-69369880D01*
X73028571Y-69322261D01*
X73076190Y-69274642D01*
X73123809Y-69179404D01*
X73123809Y-69084166D01*
X73076190Y-68988928D01*
X73028571Y-68941309D01*
X72933333Y-68893690D01*
X72742857Y-68846071D01*
X72647619Y-68798452D01*
X72600000Y-68750833D01*
X72552380Y-68655595D01*
X72552380Y-68560357D01*
X72600000Y-68465119D01*
X72647619Y-68417500D01*
X72742857Y-68369880D01*
X72980952Y-68369880D01*
X73123809Y-68417500D01*
X73314285Y-69465119D02*
X74076190Y-69465119D01*
X74219047Y-68369880D02*
X74838095Y-68369880D01*
X74504761Y-68750833D01*
X74647619Y-68750833D01*
X74742857Y-68798452D01*
X74790476Y-68846071D01*
X74838095Y-68941309D01*
X74838095Y-69179404D01*
X74790476Y-69274642D01*
X74742857Y-69322261D01*
X74647619Y-69369880D01*
X74361904Y-69369880D01*
X74266666Y-69322261D01*
X74219047Y-69274642D01*
X75123809Y-68369880D02*
X75457142Y-69369880D01*
X75790476Y-68369880D01*
X76647619Y-69369880D02*
X76076190Y-69369880D01*
X76361904Y-69369880D02*
X76361904Y-68369880D01*
X76266666Y-68512738D01*
X76171428Y-68607976D01*
X76076190Y-68655595D01*
%TO.C,Y1*%
X168601190Y-40946190D02*
X169077380Y-40946190D01*
X168077380Y-41279523D02*
X168601190Y-40946190D01*
X168077380Y-40612857D01*
X169077380Y-39755714D02*
X169077380Y-40327142D01*
X169077380Y-40041428D02*
X168077380Y-40041428D01*
X168220238Y-40136666D01*
X168315476Y-40231904D01*
X168363095Y-40327142D01*
%TO.C,D_UV1*%
X123658571Y-165892380D02*
X123658571Y-164892380D01*
X123896666Y-164892380D01*
X124039523Y-164940000D01*
X124134761Y-165035238D01*
X124182380Y-165130476D01*
X124230000Y-165320952D01*
X124230000Y-165463809D01*
X124182380Y-165654285D01*
X124134761Y-165749523D01*
X124039523Y-165844761D01*
X123896666Y-165892380D01*
X123658571Y-165892380D01*
X124420476Y-165987619D02*
X125182380Y-165987619D01*
X125420476Y-164892380D02*
X125420476Y-165701904D01*
X125468095Y-165797142D01*
X125515714Y-165844761D01*
X125610952Y-165892380D01*
X125801428Y-165892380D01*
X125896666Y-165844761D01*
X125944285Y-165797142D01*
X125991904Y-165701904D01*
X125991904Y-164892380D01*
X126325238Y-164892380D02*
X126658571Y-165892380D01*
X126991904Y-164892380D01*
X127849047Y-165892380D02*
X127277619Y-165892380D01*
X127563333Y-165892380D02*
X127563333Y-164892380D01*
X127468095Y-165035238D01*
X127372857Y-165130476D01*
X127277619Y-165178095D01*
%TO.C,D_IR1*%
X131492857Y-165892380D02*
X131492857Y-164892380D01*
X131730952Y-164892380D01*
X131873809Y-164940000D01*
X131969047Y-165035238D01*
X132016666Y-165130476D01*
X132064285Y-165320952D01*
X132064285Y-165463809D01*
X132016666Y-165654285D01*
X131969047Y-165749523D01*
X131873809Y-165844761D01*
X131730952Y-165892380D01*
X131492857Y-165892380D01*
X132254761Y-165987619D02*
X133016666Y-165987619D01*
X133254761Y-165892380D02*
X133254761Y-164892380D01*
X134302380Y-165892380D02*
X133969047Y-165416190D01*
X133730952Y-165892380D02*
X133730952Y-164892380D01*
X134111904Y-164892380D01*
X134207142Y-164940000D01*
X134254761Y-164987619D01*
X134302380Y-165082857D01*
X134302380Y-165225714D01*
X134254761Y-165320952D01*
X134207142Y-165368571D01*
X134111904Y-165416190D01*
X133730952Y-165416190D01*
X135254761Y-165892380D02*
X134683333Y-165892380D01*
X134969047Y-165892380D02*
X134969047Y-164892380D01*
X134873809Y-165035238D01*
X134778571Y-165130476D01*
X134683333Y-165178095D01*
%TO.C,D_RGB1*%
X112315952Y-166892380D02*
X112315952Y-165892380D01*
X112554047Y-165892380D01*
X112696904Y-165940000D01*
X112792142Y-166035238D01*
X112839761Y-166130476D01*
X112887380Y-166320952D01*
X112887380Y-166463809D01*
X112839761Y-166654285D01*
X112792142Y-166749523D01*
X112696904Y-166844761D01*
X112554047Y-166892380D01*
X112315952Y-166892380D01*
X113077857Y-166987619D02*
X113839761Y-166987619D01*
X114649285Y-166892380D02*
X114315952Y-166416190D01*
X114077857Y-166892380D02*
X114077857Y-165892380D01*
X114458809Y-165892380D01*
X114554047Y-165940000D01*
X114601666Y-165987619D01*
X114649285Y-166082857D01*
X114649285Y-166225714D01*
X114601666Y-166320952D01*
X114554047Y-166368571D01*
X114458809Y-166416190D01*
X114077857Y-166416190D01*
X115601666Y-165940000D02*
X115506428Y-165892380D01*
X115363571Y-165892380D01*
X115220714Y-165940000D01*
X115125476Y-166035238D01*
X115077857Y-166130476D01*
X115030238Y-166320952D01*
X115030238Y-166463809D01*
X115077857Y-166654285D01*
X115125476Y-166749523D01*
X115220714Y-166844761D01*
X115363571Y-166892380D01*
X115458809Y-166892380D01*
X115601666Y-166844761D01*
X115649285Y-166797142D01*
X115649285Y-166463809D01*
X115458809Y-166463809D01*
X116411190Y-166368571D02*
X116554047Y-166416190D01*
X116601666Y-166463809D01*
X116649285Y-166559047D01*
X116649285Y-166701904D01*
X116601666Y-166797142D01*
X116554047Y-166844761D01*
X116458809Y-166892380D01*
X116077857Y-166892380D01*
X116077857Y-165892380D01*
X116411190Y-165892380D01*
X116506428Y-165940000D01*
X116554047Y-165987619D01*
X116601666Y-166082857D01*
X116601666Y-166178095D01*
X116554047Y-166273333D01*
X116506428Y-166320952D01*
X116411190Y-166368571D01*
X116077857Y-166368571D01*
X117601666Y-166892380D02*
X117030238Y-166892380D01*
X117315952Y-166892380D02*
X117315952Y-165892380D01*
X117220714Y-166035238D01*
X117125476Y-166130476D01*
X117030238Y-166178095D01*
%TO.C,U1*%
X196882380Y-46401904D02*
X197691904Y-46401904D01*
X197787142Y-46354285D01*
X197834761Y-46306666D01*
X197882380Y-46211428D01*
X197882380Y-46020952D01*
X197834761Y-45925714D01*
X197787142Y-45878095D01*
X197691904Y-45830476D01*
X196882380Y-45830476D01*
X197882380Y-44830476D02*
X197882380Y-45401904D01*
X197882380Y-45116190D02*
X196882380Y-45116190D01*
X197025238Y-45211428D01*
X197120476Y-45306666D01*
X197168095Y-45401904D01*
%TO.C,U2*%
X149098095Y-102682380D02*
X149098095Y-103491904D01*
X149145714Y-103587142D01*
X149193333Y-103634761D01*
X149288571Y-103682380D01*
X149479047Y-103682380D01*
X149574285Y-103634761D01*
X149621904Y-103587142D01*
X149669523Y-103491904D01*
X149669523Y-102682380D01*
X150098095Y-102777619D02*
X150145714Y-102730000D01*
X150240952Y-102682380D01*
X150479047Y-102682380D01*
X150574285Y-102730000D01*
X150621904Y-102777619D01*
X150669523Y-102872857D01*
X150669523Y-102968095D01*
X150621904Y-103110952D01*
X150050476Y-103682380D01*
X150669523Y-103682380D01*
%TO.C,U3*%
X136398095Y-133822380D02*
X136398095Y-134631904D01*
X136445714Y-134727142D01*
X136493333Y-134774761D01*
X136588571Y-134822380D01*
X136779047Y-134822380D01*
X136874285Y-134774761D01*
X136921904Y-134727142D01*
X136969523Y-134631904D01*
X136969523Y-133822380D01*
X137350476Y-133822380D02*
X137969523Y-133822380D01*
X137636190Y-134203333D01*
X137779047Y-134203333D01*
X137874285Y-134250952D01*
X137921904Y-134298571D01*
X137969523Y-134393809D01*
X137969523Y-134631904D01*
X137921904Y-134727142D01*
X137874285Y-134774761D01*
X137779047Y-134822380D01*
X137493333Y-134822380D01*
X137398095Y-134774761D01*
X137350476Y-134727142D01*
%TO.C,Q1*%
X176617619Y-68595238D02*
X176570000Y-68690476D01*
X176474761Y-68785714D01*
X176331904Y-68928571D01*
X176284285Y-69023809D01*
X176284285Y-69119047D01*
X176522380Y-69071428D02*
X176474761Y-69166666D01*
X176379523Y-69261904D01*
X176189047Y-69309523D01*
X175855714Y-69309523D01*
X175665238Y-69261904D01*
X175570000Y-69166666D01*
X175522380Y-69071428D01*
X175522380Y-68880952D01*
X175570000Y-68785714D01*
X175665238Y-68690476D01*
X175855714Y-68642857D01*
X176189047Y-68642857D01*
X176379523Y-68690476D01*
X176474761Y-68785714D01*
X176522380Y-68880952D01*
X176522380Y-69071428D01*
X176522380Y-67690476D02*
X176522380Y-68261904D01*
X176522380Y-67976190D02*
X175522380Y-67976190D01*
X175665238Y-68071428D01*
X175760476Y-68166666D01*
X175808095Y-68261904D01*
%TO.C,R_q1*%
X178422380Y-82200000D02*
X177946190Y-82533333D01*
X178422380Y-82771428D02*
X177422380Y-82771428D01*
X177422380Y-82390476D01*
X177470000Y-82295238D01*
X177517619Y-82247619D01*
X177612857Y-82200000D01*
X177755714Y-82200000D01*
X177850952Y-82247619D01*
X177898571Y-82295238D01*
X177946190Y-82390476D01*
X177946190Y-82771428D01*
X178517619Y-82009523D02*
X178517619Y-81247619D01*
X177755714Y-80580952D02*
X178755714Y-80580952D01*
X178374761Y-80580952D02*
X178422380Y-80676190D01*
X178422380Y-80866666D01*
X178374761Y-80961904D01*
X178327142Y-81009523D01*
X178231904Y-81057142D01*
X177946190Y-81057142D01*
X177850952Y-81009523D01*
X177803333Y-80961904D01*
X177755714Y-80866666D01*
X177755714Y-80676190D01*
X177803333Y-80580952D01*
X178422380Y-79580952D02*
X178422380Y-80152380D01*
X178422380Y-79866666D02*
X177422380Y-79866666D01*
X177565238Y-79961904D01*
X177660476Y-80057142D01*
X177708095Y-80152380D01*
%TO.C,R_osc1*%
X155562380Y-42393333D02*
X155086190Y-42726666D01*
X155562380Y-42964761D02*
X154562380Y-42964761D01*
X154562380Y-42583809D01*
X154610000Y-42488571D01*
X154657619Y-42440952D01*
X154752857Y-42393333D01*
X154895714Y-42393333D01*
X154990952Y-42440952D01*
X155038571Y-42488571D01*
X155086190Y-42583809D01*
X155086190Y-42964761D01*
X155657619Y-42202857D02*
X155657619Y-41440952D01*
X155562380Y-41060000D02*
X155514761Y-41155238D01*
X155467142Y-41202857D01*
X155371904Y-41250476D01*
X155086190Y-41250476D01*
X154990952Y-41202857D01*
X154943333Y-41155238D01*
X154895714Y-41060000D01*
X154895714Y-40917142D01*
X154943333Y-40821904D01*
X154990952Y-40774285D01*
X155086190Y-40726666D01*
X155371904Y-40726666D01*
X155467142Y-40774285D01*
X155514761Y-40821904D01*
X155562380Y-40917142D01*
X155562380Y-41060000D01*
X155514761Y-40345714D02*
X155562380Y-40250476D01*
X155562380Y-40060000D01*
X155514761Y-39964761D01*
X155419523Y-39917142D01*
X155371904Y-39917142D01*
X155276666Y-39964761D01*
X155229047Y-40060000D01*
X155229047Y-40202857D01*
X155181428Y-40298095D01*
X155086190Y-40345714D01*
X155038571Y-40345714D01*
X154943333Y-40298095D01*
X154895714Y-40202857D01*
X154895714Y-40060000D01*
X154943333Y-39964761D01*
X155514761Y-39060000D02*
X155562380Y-39155238D01*
X155562380Y-39345714D01*
X155514761Y-39440952D01*
X155467142Y-39488571D01*
X155371904Y-39536190D01*
X155086190Y-39536190D01*
X154990952Y-39488571D01*
X154943333Y-39440952D01*
X154895714Y-39345714D01*
X154895714Y-39155238D01*
X154943333Y-39060000D01*
X155562380Y-38107619D02*
X155562380Y-38679047D01*
X155562380Y-38393333D02*
X154562380Y-38393333D01*
X154705238Y-38488571D01*
X154800476Y-38583809D01*
X154848095Y-38679047D01*
%TO.C,R2*%
X125082380Y-68666666D02*
X124606190Y-69000000D01*
X125082380Y-69238095D02*
X124082380Y-69238095D01*
X124082380Y-68857142D01*
X124130000Y-68761904D01*
X124177619Y-68714285D01*
X124272857Y-68666666D01*
X124415714Y-68666666D01*
X124510952Y-68714285D01*
X124558571Y-68761904D01*
X124606190Y-68857142D01*
X124606190Y-69238095D01*
X124177619Y-68285714D02*
X124130000Y-68238095D01*
X124082380Y-68142857D01*
X124082380Y-67904761D01*
X124130000Y-67809523D01*
X124177619Y-67761904D01*
X124272857Y-67714285D01*
X124368095Y-67714285D01*
X124510952Y-67761904D01*
X125082380Y-68333333D01*
X125082380Y-67714285D01*
%TO.C,R1*%
X125082380Y-86446666D02*
X124606190Y-86780000D01*
X125082380Y-87018095D02*
X124082380Y-87018095D01*
X124082380Y-86637142D01*
X124130000Y-86541904D01*
X124177619Y-86494285D01*
X124272857Y-86446666D01*
X124415714Y-86446666D01*
X124510952Y-86494285D01*
X124558571Y-86541904D01*
X124606190Y-86637142D01*
X124606190Y-87018095D01*
X125082380Y-85494285D02*
X125082380Y-86065714D01*
X125082380Y-85780000D02*
X124082380Y-85780000D01*
X124225238Y-85875238D01*
X124320476Y-85970476D01*
X124368095Y-86065714D01*
D11*
%TO.C,C_vss1*%
X170100000Y-85320000D02*
X170100000Y-77080000D01*
X173666000Y-77080000D02*
X175340000Y-77080000D01*
X173666000Y-85320000D02*
X175340000Y-85320000D01*
X170100000Y-77080000D02*
X171774000Y-77080000D01*
X175340000Y-85320000D02*
X175340000Y-77080000D01*
X170100000Y-85320000D02*
X171774000Y-85320000D01*
%TO.C,C_vcap1*%
X165180000Y-77080000D02*
X165180000Y-85320000D01*
X161614000Y-85320000D02*
X159940000Y-85320000D01*
X161614000Y-77080000D02*
X159940000Y-77080000D01*
X165180000Y-85320000D02*
X163506000Y-85320000D01*
X159940000Y-77080000D02*
X159940000Y-85320000D01*
X165180000Y-77080000D02*
X163506000Y-77080000D01*
%TO.C,c_svdd2*%
X226140000Y-41520000D02*
X226140000Y-49760000D01*
X222574000Y-49760000D02*
X220900000Y-49760000D01*
X222574000Y-41520000D02*
X220900000Y-41520000D01*
X226140000Y-49760000D02*
X224466000Y-49760000D01*
X220900000Y-41520000D02*
X220900000Y-49760000D01*
X226140000Y-41520000D02*
X224466000Y-41520000D01*
%TO.C,c_svdd1*%
X208200000Y-49760000D02*
X208200000Y-41520000D01*
X211766000Y-41520000D02*
X213440000Y-41520000D01*
X211766000Y-49760000D02*
X213440000Y-49760000D01*
X208200000Y-41520000D02*
X209874000Y-41520000D01*
X213440000Y-49760000D02*
X213440000Y-41520000D01*
X208200000Y-49760000D02*
X209874000Y-49760000D01*
%TO.C,C_osc2*%
X152480000Y-36440000D02*
X150806000Y-36440000D01*
X147240000Y-36440000D02*
X147240000Y-44680000D01*
X152480000Y-44680000D02*
X150806000Y-44680000D01*
X148914000Y-36440000D02*
X147240000Y-36440000D01*
X148914000Y-44680000D02*
X147240000Y-44680000D01*
X152480000Y-36440000D02*
X152480000Y-44680000D01*
%TO.C,C_osc1*%
X172640000Y-44680000D02*
X174314000Y-44680000D01*
X177880000Y-44680000D02*
X177880000Y-36440000D01*
X172640000Y-36440000D02*
X174314000Y-36440000D01*
X176206000Y-44680000D02*
X177880000Y-44680000D01*
X176206000Y-36440000D02*
X177880000Y-36440000D01*
X172640000Y-44680000D02*
X172640000Y-36440000D01*
%TO.C,C_avss1*%
X198040000Y-85400000D02*
X199714000Y-85400000D01*
X203280000Y-85400000D02*
X203280000Y-77160000D01*
X198040000Y-77160000D02*
X199714000Y-77160000D01*
X201606000Y-85400000D02*
X203280000Y-85400000D01*
X201606000Y-77160000D02*
X203280000Y-77160000D01*
X198040000Y-85400000D02*
X198040000Y-77160000D01*
%TO.C,C1*%
X156520000Y-139700000D02*
X148280000Y-139700000D01*
X148280000Y-136134000D02*
X148280000Y-134460000D01*
X156520000Y-136134000D02*
X156520000Y-134460000D01*
X148280000Y-139700000D02*
X148280000Y-138026000D01*
X156520000Y-134460000D02*
X148280000Y-134460000D01*
X156520000Y-139700000D02*
X156520000Y-138026000D01*
%TO.C,J-AC1*%
X59950000Y-60910000D02*
X56890000Y-60910000D01*
X64050000Y-50690000D02*
X70110000Y-50690000D01*
X70110000Y-58100000D02*
X70110000Y-60910000D01*
X70110000Y-50690000D02*
X70110000Y-53500000D01*
X56890000Y-60910000D02*
X56890000Y-50690000D01*
X70300000Y-54800000D02*
X70300000Y-56800000D01*
X56890000Y-50690000D02*
X59950000Y-50690000D01*
X70110000Y-60910000D02*
X64050000Y-60910000D01*
%TO.C,J_PUMP1*%
X181670000Y-51930000D02*
X179010000Y-51930000D01*
X179010000Y-57130000D02*
X179010000Y-55800000D01*
X180340000Y-57130000D02*
X179010000Y-57130000D01*
X181670000Y-54530000D02*
X179010000Y-54530000D01*
X179010000Y-54530000D02*
X179010000Y-51930000D01*
X181670000Y-54530000D02*
X181670000Y-51930000D01*
%TO.C,J_HSENS1*%
X115510000Y-95230000D02*
X118170000Y-95230000D01*
X118170000Y-87490000D02*
X118170000Y-88820000D01*
X115510000Y-90090000D02*
X118170000Y-90090000D01*
X115510000Y-90090000D02*
X115510000Y-95230000D01*
X118170000Y-90090000D02*
X118170000Y-95230000D01*
X116840000Y-87490000D02*
X118170000Y-87490000D01*
%TO.C,PS_12V1*%
X71930000Y-153497500D02*
X105870000Y-153497500D01*
X71930000Y-131057500D02*
X105870000Y-131057500D01*
X105870000Y-131057500D02*
X105870000Y-153497500D01*
X72900000Y-130727500D02*
X78900000Y-130727500D01*
X71930000Y-153497500D02*
X71930000Y-131057500D01*
%TO.C,PS_5V1*%
X71930000Y-123017500D02*
X105870000Y-123017500D01*
X71930000Y-100577500D02*
X105870000Y-100577500D01*
X105870000Y-100577500D02*
X105870000Y-123017500D01*
X72900000Y-100247500D02*
X78900000Y-100247500D01*
X71930000Y-123017500D02*
X71930000Y-100577500D01*
%TO.C,PS_3V1*%
X71930000Y-92537500D02*
X105870000Y-92537500D01*
X71930000Y-70097500D02*
X105870000Y-70097500D01*
X105870000Y-70097500D02*
X105870000Y-92537500D01*
X72900000Y-69767500D02*
X78900000Y-69767500D01*
X71930000Y-92537500D02*
X71930000Y-70097500D01*
%TO.C,Y1*%
X162575000Y-43595000D02*
G75*
G03*
X167625000Y-43595000I2525000J0D01*
G01*
X167625000Y-37345000D02*
G75*
G03*
X162575000Y-37345000I-2525000J0D01*
G01*
X167625000Y-37345000D02*
X167625000Y-43595000D01*
X162575000Y-37345000D02*
X162575000Y-43595000D01*
%TO.C,D_UV1*%
X127290000Y-163716000D02*
X127290000Y-163560000D01*
X127290000Y-161400000D02*
X127290000Y-161244000D01*
X124688870Y-163559837D02*
G75*
G03*
X126770961Y-163560000I1041130J1079837D01*
G01*
X127290000Y-161244484D02*
G75*
G03*
X124057665Y-161401392I-1560000J-1235516D01*
G01*
X126770961Y-161400000D02*
G75*
G03*
X124688870Y-161400163I-1040961J-1080000D01*
G01*
X124057665Y-163558608D02*
G75*
G03*
X127290000Y-163715516I1672335J1078608D01*
G01*
%TO.C,D_IR1*%
X134910000Y-163716000D02*
X134910000Y-163560000D01*
X134910000Y-161400000D02*
X134910000Y-161244000D01*
X132308870Y-163559837D02*
G75*
G03*
X134390961Y-163560000I1041130J1079837D01*
G01*
X134910000Y-161244484D02*
G75*
G03*
X131677665Y-161401392I-1560000J-1235516D01*
G01*
X134390961Y-161400000D02*
G75*
G03*
X132308870Y-161400163I-1040961J-1080000D01*
G01*
X131677665Y-163558608D02*
G75*
G03*
X134910000Y-163715516I1672335J1078608D01*
G01*
%TO.C,D_RGB1*%
X117495000Y-164025000D02*
X117495000Y-163560000D01*
X117495000Y-161400000D02*
X117495000Y-160935000D01*
X117495000Y-160935170D02*
G75*
G03*
X112147185Y-161399173I-2560000J-1544830D01*
G01*
X112680521Y-163560429D02*
G75*
G03*
X117189684Y-163560000I2254479J1080429D01*
G01*
X117189684Y-161400000D02*
G75*
G03*
X112680521Y-161399571I-2254684J-1080000D01*
G01*
X112147185Y-163560827D02*
G75*
G03*
X117495000Y-164024830I2787815J1080827D01*
G01*
D10*
%TO.C,U1*%
X190930000Y-43290000D02*
X191430000Y-43290000D01*
X195830000Y-47990000D02*
X195330000Y-47990000D01*
X190930000Y-47590000D02*
X190930000Y-47990000D01*
X190930000Y-47990000D02*
X191430000Y-47990000D01*
X195330000Y-43290000D02*
X195830000Y-43290000D01*
X190930000Y-43690000D02*
X190930000Y-43290000D01*
X195330000Y-42890000D02*
X195330000Y-43290000D01*
X195830000Y-47590000D02*
X195830000Y-47990000D01*
X195830000Y-43290000D02*
X195830000Y-43690000D01*
%TO.C,U2*%
X143685000Y-105505000D02*
X144735000Y-105505000D01*
X156035000Y-117855000D02*
X156035000Y-116805000D01*
X143685000Y-106480000D02*
X142410000Y-106480000D01*
X156035000Y-117855000D02*
X154985000Y-117855000D01*
X156035000Y-105505000D02*
X154985000Y-105505000D01*
X143685000Y-117855000D02*
X143685000Y-116805000D01*
X143685000Y-105505000D02*
X143685000Y-106480000D01*
X143685000Y-117855000D02*
X144735000Y-117855000D01*
X156035000Y-105505000D02*
X156035000Y-106555000D01*
D11*
%TO.C,U3*%
X133635000Y-135145000D02*
X139018600Y-135145000D01*
X135305700Y-144095000D02*
X139014300Y-144095000D01*
%TO.C,Q1*%
X177070000Y-73620000D02*
X177070000Y-63380000D01*
X177070000Y-70350000D02*
X178580000Y-70350000D01*
X177070000Y-66649000D02*
X178580000Y-66649000D01*
X177070000Y-73620000D02*
X181711000Y-73620000D01*
X181711000Y-73620000D02*
X181711000Y-63380000D01*
X177070000Y-63380000D02*
X181711000Y-63380000D01*
X178580000Y-73620000D02*
X178580000Y-63380000D01*
%TO.C,R_q1*%
X180340000Y-77160000D02*
X180340000Y-77930000D01*
X180340000Y-85240000D02*
X180340000Y-84470000D01*
X178970000Y-84470000D02*
X181710000Y-84470000D01*
X181710000Y-77930000D02*
X178970000Y-77930000D01*
X181710000Y-84470000D02*
X181710000Y-77930000D01*
X178970000Y-77930000D02*
X178970000Y-84470000D01*
%TO.C,R_osc1*%
X156110000Y-37290000D02*
X156110000Y-43830000D01*
X158850000Y-43830000D02*
X158850000Y-37290000D01*
X158850000Y-37290000D02*
X156110000Y-37290000D01*
X156110000Y-43830000D02*
X158850000Y-43830000D01*
X157480000Y-44600000D02*
X157480000Y-43830000D01*
X157480000Y-36520000D02*
X157480000Y-37290000D01*
%TO.C,R2*%
X125630000Y-65230000D02*
X125630000Y-71770000D01*
X128370000Y-71770000D02*
X128370000Y-65230000D01*
X128370000Y-65230000D02*
X125630000Y-65230000D01*
X125630000Y-71770000D02*
X128370000Y-71770000D01*
X127000000Y-72540000D02*
X127000000Y-71770000D01*
X127000000Y-64460000D02*
X127000000Y-65230000D01*
%TO.C,R1*%
X125630000Y-83010000D02*
X125630000Y-89550000D01*
X128370000Y-89550000D02*
X128370000Y-83010000D01*
X128370000Y-83010000D02*
X125630000Y-83010000D01*
X125630000Y-89550000D02*
X128370000Y-89550000D01*
X127000000Y-90320000D02*
X127000000Y-89550000D01*
X127000000Y-82240000D02*
X127000000Y-83010000D01*
%TD*%
M02*
