%TF.GenerationSoftware,KiCad,Pcbnew,(6.0.7)*%
%TF.CreationDate,2022-11-30T23:51:13-03:00*%
%TF.ProjectId,ea075_project,65613037-355f-4707-926f-6a6563742e6b,rev?*%
%TF.SameCoordinates,Original*%
%TF.FileFunction,Soldermask,Top*%
%TF.FilePolarity,Negative*%
%FSLAX46Y46*%
G04 Gerber Fmt 4.6, Leading zero omitted, Abs format (unit mm)*
G04 Created by KiCad (PCBNEW (6.0.7)) date 2022-11-30 23:51:13*
%MOMM*%
%LPD*%
G01*
G04 APERTURE LIST*
%ADD10C,2.000000*%
%ADD11O,3.500000X2.000000*%
%ADD12O,2.000000X3.300000*%
%ADD13R,2.000000X4.000000*%
%ADD14C,1.600000*%
%ADD15O,1.700000X1.700000*%
%ADD16R,1.700000X1.700000*%
%ADD17C,2.300000*%
%ADD18R,2.300000X2.000000*%
%ADD19C,1.500000*%
%ADD20R,1.800000X1.800000*%
%ADD21C,1.800000*%
%ADD22R,1.070000X1.800000*%
%ADD23O,1.070000X1.800000*%
%ADD24R,1.100000X0.300000*%
%ADD25R,0.300000X1.100000*%
%ADD26R,0.200000X1.500000*%
%ADD27R,1.500000X0.200000*%
%ADD28R,1.600000X0.410000*%
%ADD29R,2.000000X1.905000*%
%ADD30O,2.000000X1.905000*%
%ADD31O,1.600000X1.600000*%
G04 APERTURE END LIST*
D10*
%TO.C,C_vss1*%
X172720000Y-86200000D03*
X172720000Y-76200000D03*
%TD*%
%TO.C,C_vcap1*%
X162560000Y-76200000D03*
X162560000Y-86200000D03*
%TD*%
%TO.C,c_svdd2*%
X223520000Y-40640000D03*
X223520000Y-50640000D03*
%TD*%
%TO.C,c_svdd1*%
X210820000Y-50640000D03*
X210820000Y-40640000D03*
%TD*%
%TO.C,C_osc2*%
X149860000Y-45560000D03*
X149860000Y-35560000D03*
%TD*%
%TO.C,C_osc1*%
X175260000Y-35560000D03*
X175260000Y-45560000D03*
%TD*%
%TO.C,C_avss1*%
X200660000Y-76280000D03*
X200660000Y-86280000D03*
%TD*%
%TO.C,C1*%
X157400000Y-137080000D03*
X147400000Y-137080000D03*
%TD*%
D11*
%TO.C,J-AC1*%
X62000000Y-60300000D03*
X62000000Y-51300000D03*
D12*
X63000000Y-55800000D03*
D13*
X69000000Y-55800000D03*
D14*
X60000000Y-55800000D03*
%TD*%
D15*
%TO.C,J_PUMP1*%
X180340000Y-53260000D03*
D16*
X180340000Y-55800000D03*
%TD*%
D15*
%TO.C,J_HSENS1*%
X116840000Y-93900000D03*
X116840000Y-91360000D03*
D16*
X116840000Y-88820000D03*
%TD*%
D17*
%TO.C,PS_12V1*%
X102900000Y-142277500D03*
X102900000Y-134677500D03*
X74900000Y-149877500D03*
D18*
X74900000Y-134677500D03*
%TD*%
D17*
%TO.C,PS_5V1*%
X102900000Y-111797500D03*
X102900000Y-104197500D03*
X74900000Y-119397500D03*
D18*
X74900000Y-104197500D03*
%TD*%
D17*
%TO.C,PS_3V1*%
X102900000Y-81317500D03*
X102900000Y-73717500D03*
X74900000Y-88917500D03*
D18*
X74900000Y-73717500D03*
%TD*%
D19*
%TO.C,Y1*%
X165100000Y-42920000D03*
X165100000Y-38020000D03*
%TD*%
D20*
%TO.C,D_UV1*%
X127000000Y-162480000D03*
D21*
X124460000Y-162480000D03*
%TD*%
D20*
%TO.C,D_IR1*%
X134620000Y-162480000D03*
D21*
X132080000Y-162480000D03*
%TD*%
D22*
%TO.C,D_RGB1*%
X116840000Y-162480000D03*
D23*
X115570000Y-162480000D03*
X114300000Y-162480000D03*
X113030000Y-162480000D03*
%TD*%
D24*
%TO.C,U1*%
X195680000Y-44340000D03*
X195680000Y-44990000D03*
X195680000Y-45640000D03*
X195680000Y-46290000D03*
X195680000Y-46940000D03*
D25*
X194680000Y-47840000D03*
X194030000Y-47840000D03*
X193380000Y-47840000D03*
X192730000Y-47840000D03*
X192080000Y-47840000D03*
D24*
X191080000Y-46940000D03*
X191080000Y-46290000D03*
X191080000Y-45640000D03*
X191080000Y-44990000D03*
X191080000Y-44340000D03*
D25*
X192080000Y-43440000D03*
X192730000Y-43440000D03*
X193380000Y-43440000D03*
X194030000Y-43440000D03*
X194680000Y-43440000D03*
%TD*%
D26*
%TO.C,U2*%
X145060000Y-104980000D03*
X145460000Y-104980000D03*
X145860000Y-104980000D03*
X146260000Y-104980000D03*
X146660000Y-104980000D03*
X147060000Y-104980000D03*
X147460000Y-104980000D03*
X147860000Y-104980000D03*
X148260000Y-104980000D03*
X148660000Y-104980000D03*
X149060000Y-104980000D03*
X149460000Y-104980000D03*
X149860000Y-104980000D03*
X150260000Y-104980000D03*
X150660000Y-104980000D03*
X151060000Y-104980000D03*
X151460000Y-104980000D03*
X151860000Y-104980000D03*
X152260000Y-104980000D03*
X152660000Y-104980000D03*
X153060000Y-104980000D03*
X153460000Y-104980000D03*
X153860000Y-104980000D03*
X154260000Y-104980000D03*
X154660000Y-104980000D03*
D27*
X156560000Y-106880000D03*
X156560000Y-107280000D03*
X156560000Y-107680000D03*
X156560000Y-108080000D03*
X156560000Y-108480000D03*
X156560000Y-108880000D03*
X156560000Y-109280000D03*
X156560000Y-109680000D03*
X156560000Y-110080000D03*
X156560000Y-110480000D03*
X156560000Y-110880000D03*
X156560000Y-111280000D03*
X156560000Y-111680000D03*
X156560000Y-112080000D03*
X156560000Y-112480000D03*
X156560000Y-112880000D03*
X156560000Y-113280000D03*
X156560000Y-113680000D03*
X156560000Y-114080000D03*
X156560000Y-114480000D03*
X156560000Y-114880000D03*
X156560000Y-115280000D03*
X156560000Y-115680000D03*
X156560000Y-116080000D03*
X156560000Y-116480000D03*
D26*
X154660000Y-118380000D03*
X154260000Y-118380000D03*
X153860000Y-118380000D03*
X153460000Y-118380000D03*
X153060000Y-118380000D03*
X152660000Y-118380000D03*
X152260000Y-118380000D03*
X151860000Y-118380000D03*
X151460000Y-118380000D03*
X151060000Y-118380000D03*
X150660000Y-118380000D03*
X150260000Y-118380000D03*
X149860000Y-118380000D03*
X149460000Y-118380000D03*
X149060000Y-118380000D03*
X148660000Y-118380000D03*
X148260000Y-118380000D03*
X147860000Y-118380000D03*
X147460000Y-118380000D03*
X147060000Y-118380000D03*
X146660000Y-118380000D03*
X146260000Y-118380000D03*
X145860000Y-118380000D03*
X145460000Y-118380000D03*
X145060000Y-118380000D03*
D27*
X143160000Y-116480000D03*
X143160000Y-116080000D03*
X143160000Y-115680000D03*
X143160000Y-115280000D03*
X143160000Y-114880000D03*
X143160000Y-114480000D03*
X143160000Y-114080000D03*
X143160000Y-113680000D03*
X143160000Y-113280000D03*
X143160000Y-112880000D03*
X143160000Y-112480000D03*
X143160000Y-112080000D03*
X143160000Y-111680000D03*
X143160000Y-111280000D03*
X143160000Y-110880000D03*
X143160000Y-110480000D03*
X143160000Y-110080000D03*
X143160000Y-109680000D03*
X143160000Y-109280000D03*
X143160000Y-108880000D03*
X143160000Y-108480000D03*
X143160000Y-108080000D03*
X143160000Y-107680000D03*
X143160000Y-107280000D03*
X143160000Y-106880000D03*
%TD*%
D28*
%TO.C,U3*%
X134505700Y-136127500D03*
X134505700Y-136762500D03*
X134505700Y-137397500D03*
X134505700Y-138032500D03*
X134505700Y-138667500D03*
X134505700Y-139302500D03*
X134505700Y-139937500D03*
X134505700Y-140572500D03*
X134505700Y-141207500D03*
X134505700Y-141842500D03*
X134505700Y-142477500D03*
X134505700Y-143112500D03*
X139814300Y-143112500D03*
X139814300Y-142477500D03*
X139814300Y-141842500D03*
X139814300Y-141207500D03*
X139814300Y-140572500D03*
X139814300Y-139937500D03*
X139814300Y-139302500D03*
X139814300Y-138667500D03*
X139814300Y-138032500D03*
X139814300Y-137397500D03*
X139814300Y-136762500D03*
X139814300Y-136127500D03*
%TD*%
D29*
%TO.C,Q1*%
X180340000Y-71040000D03*
D30*
X180340000Y-68500000D03*
X180340000Y-65960000D03*
%TD*%
D14*
%TO.C,R_q1*%
X180340000Y-86280000D03*
D31*
X180340000Y-76120000D03*
%TD*%
%TO.C,R_osc1*%
X157480000Y-35480000D03*
D14*
X157480000Y-45640000D03*
%TD*%
D31*
%TO.C,R2*%
X127000000Y-63420000D03*
D14*
X127000000Y-73580000D03*
%TD*%
D31*
%TO.C,R1*%
X127000000Y-81200000D03*
D14*
X127000000Y-91360000D03*
%TD*%
M02*
