%TF.GenerationSoftware,KiCad,Pcbnew,(6.0.7)*%
%TF.CreationDate,2022-11-30T23:51:10-03:00*%
%TF.ProjectId,ea075_project,65613037-355f-4707-926f-6a6563742e6b,rev?*%
%TF.SameCoordinates,Original*%
%TF.FileFunction,Drillmap*%
%TF.FilePolarity,Positive*%
%FSLAX45Y45*%
G04 Gerber Fmt 4.5, Leading zero omitted, Abs format (unit mm)*
G04 Created by KiCad (PCBNEW (6.0.7)) date 2022-11-30 23:51:10*
%MOMM*%
%LPD*%
G01*
G04 APERTURE LIST*
%ADD10C,0.100000*%
%ADD11C,0.200000*%
%ADD12C,0.160000*%
G04 APERTURE END LIST*
D10*
X5842000Y-2286000D02*
X23114000Y-2286000D01*
X23114000Y-2286000D02*
X23114000Y-17780000D01*
X23114000Y-17780000D02*
X5842000Y-17780000D01*
X5842000Y-17780000D02*
X5842000Y-2286000D01*
D11*
D12*
X5920000Y-5500000D02*
X6080000Y-5660000D01*
X6080000Y-5500000D02*
X5920000Y-5660000D01*
D11*
X6094619Y-18095476D02*
X6094619Y-17895476D01*
X6142238Y-17895476D01*
X6170809Y-17905000D01*
X6189857Y-17924048D01*
X6199381Y-17943095D01*
X6208905Y-17981190D01*
X6208905Y-18009762D01*
X6199381Y-18047857D01*
X6189857Y-18066905D01*
X6170809Y-18085952D01*
X6142238Y-18095476D01*
X6094619Y-18095476D01*
X6294619Y-18095476D02*
X6294619Y-17962143D01*
X6294619Y-18000238D02*
X6304143Y-17981190D01*
X6313667Y-17971667D01*
X6332714Y-17962143D01*
X6351762Y-17962143D01*
X6418428Y-18095476D02*
X6418428Y-17962143D01*
X6418428Y-17895476D02*
X6408905Y-17905000D01*
X6418428Y-17914524D01*
X6427952Y-17905000D01*
X6418428Y-17895476D01*
X6418428Y-17914524D01*
X6542238Y-18095476D02*
X6523190Y-18085952D01*
X6513667Y-18066905D01*
X6513667Y-17895476D01*
X6647000Y-18095476D02*
X6627952Y-18085952D01*
X6618428Y-18066905D01*
X6618428Y-17895476D01*
X6875571Y-18095476D02*
X6875571Y-17895476D01*
X6942238Y-18038333D01*
X7008905Y-17895476D01*
X7008905Y-18095476D01*
X7189857Y-18095476D02*
X7189857Y-17990714D01*
X7180333Y-17971667D01*
X7161286Y-17962143D01*
X7123190Y-17962143D01*
X7104143Y-17971667D01*
X7189857Y-18085952D02*
X7170809Y-18095476D01*
X7123190Y-18095476D01*
X7104143Y-18085952D01*
X7094619Y-18066905D01*
X7094619Y-18047857D01*
X7104143Y-18028810D01*
X7123190Y-18019286D01*
X7170809Y-18019286D01*
X7189857Y-18009762D01*
X7285095Y-17962143D02*
X7285095Y-18162143D01*
X7285095Y-17971667D02*
X7304143Y-17962143D01*
X7342238Y-17962143D01*
X7361286Y-17971667D01*
X7370809Y-17981190D01*
X7380333Y-18000238D01*
X7380333Y-18057381D01*
X7370809Y-18076429D01*
X7361286Y-18085952D01*
X7342238Y-18095476D01*
X7304143Y-18095476D01*
X7285095Y-18085952D01*
X7466048Y-18076429D02*
X7475571Y-18085952D01*
X7466048Y-18095476D01*
X7456524Y-18085952D01*
X7466048Y-18076429D01*
X7466048Y-18095476D01*
X7466048Y-17971667D02*
X7475571Y-17981190D01*
X7466048Y-17990714D01*
X7456524Y-17981190D01*
X7466048Y-17971667D01*
X7466048Y-17990714D01*
D12*
X5677000Y-18345000D02*
X5837000Y-18505000D01*
X5837000Y-18345000D02*
X5677000Y-18505000D01*
D11*
X6199381Y-18515476D02*
X6085095Y-18515476D01*
X6142238Y-18515476D02*
X6142238Y-18315476D01*
X6123190Y-18344048D01*
X6104143Y-18363095D01*
X6085095Y-18372619D01*
X6285095Y-18496429D02*
X6294619Y-18505952D01*
X6285095Y-18515476D01*
X6275571Y-18505952D01*
X6285095Y-18496429D01*
X6285095Y-18515476D01*
X6466048Y-18315476D02*
X6427952Y-18315476D01*
X6408905Y-18325000D01*
X6399381Y-18334524D01*
X6380333Y-18363095D01*
X6370809Y-18401190D01*
X6370809Y-18477381D01*
X6380333Y-18496429D01*
X6389857Y-18505952D01*
X6408905Y-18515476D01*
X6447000Y-18515476D01*
X6466048Y-18505952D01*
X6475571Y-18496429D01*
X6485095Y-18477381D01*
X6485095Y-18429762D01*
X6475571Y-18410714D01*
X6466048Y-18401190D01*
X6447000Y-18391667D01*
X6408905Y-18391667D01*
X6389857Y-18401190D01*
X6380333Y-18410714D01*
X6370809Y-18429762D01*
X6608905Y-18315476D02*
X6627952Y-18315476D01*
X6647000Y-18325000D01*
X6656524Y-18334524D01*
X6666048Y-18353571D01*
X6675571Y-18391667D01*
X6675571Y-18439286D01*
X6666048Y-18477381D01*
X6656524Y-18496429D01*
X6647000Y-18505952D01*
X6627952Y-18515476D01*
X6608905Y-18515476D01*
X6589857Y-18505952D01*
X6580333Y-18496429D01*
X6570809Y-18477381D01*
X6561286Y-18439286D01*
X6561286Y-18391667D01*
X6570809Y-18353571D01*
X6580333Y-18334524D01*
X6589857Y-18325000D01*
X6608905Y-18315476D01*
X6799381Y-18315476D02*
X6818428Y-18315476D01*
X6837476Y-18325000D01*
X6847000Y-18334524D01*
X6856524Y-18353571D01*
X6866048Y-18391667D01*
X6866048Y-18439286D01*
X6856524Y-18477381D01*
X6847000Y-18496429D01*
X6837476Y-18505952D01*
X6818428Y-18515476D01*
X6799381Y-18515476D01*
X6780333Y-18505952D01*
X6770809Y-18496429D01*
X6761286Y-18477381D01*
X6751762Y-18439286D01*
X6751762Y-18391667D01*
X6761286Y-18353571D01*
X6770809Y-18334524D01*
X6780333Y-18325000D01*
X6799381Y-18315476D01*
X6951762Y-18515476D02*
X6951762Y-18382143D01*
X6951762Y-18401190D02*
X6961286Y-18391667D01*
X6980333Y-18382143D01*
X7008905Y-18382143D01*
X7027952Y-18391667D01*
X7037476Y-18410714D01*
X7037476Y-18515476D01*
X7037476Y-18410714D02*
X7047000Y-18391667D01*
X7066048Y-18382143D01*
X7094619Y-18382143D01*
X7113667Y-18391667D01*
X7123190Y-18410714D01*
X7123190Y-18515476D01*
X7218428Y-18515476D02*
X7218428Y-18382143D01*
X7218428Y-18401190D02*
X7227952Y-18391667D01*
X7247000Y-18382143D01*
X7275571Y-18382143D01*
X7294619Y-18391667D01*
X7304143Y-18410714D01*
X7304143Y-18515476D01*
X7304143Y-18410714D02*
X7313667Y-18391667D01*
X7332714Y-18382143D01*
X7361286Y-18382143D01*
X7380333Y-18391667D01*
X7389857Y-18410714D01*
X7389857Y-18515476D01*
X7780333Y-18305952D02*
X7608905Y-18563095D01*
X8037476Y-18315476D02*
X8056524Y-18315476D01*
X8075571Y-18325000D01*
X8085095Y-18334524D01*
X8094619Y-18353571D01*
X8104143Y-18391667D01*
X8104143Y-18439286D01*
X8094619Y-18477381D01*
X8085095Y-18496429D01*
X8075571Y-18505952D01*
X8056524Y-18515476D01*
X8037476Y-18515476D01*
X8018428Y-18505952D01*
X8008905Y-18496429D01*
X7999381Y-18477381D01*
X7989857Y-18439286D01*
X7989857Y-18391667D01*
X7999381Y-18353571D01*
X8008905Y-18334524D01*
X8018428Y-18325000D01*
X8037476Y-18315476D01*
X8189857Y-18496429D02*
X8199381Y-18505952D01*
X8189857Y-18515476D01*
X8180333Y-18505952D01*
X8189857Y-18496429D01*
X8189857Y-18515476D01*
X8323190Y-18315476D02*
X8342238Y-18315476D01*
X8361286Y-18325000D01*
X8370809Y-18334524D01*
X8380333Y-18353571D01*
X8389857Y-18391667D01*
X8389857Y-18439286D01*
X8380333Y-18477381D01*
X8370809Y-18496429D01*
X8361286Y-18505952D01*
X8342238Y-18515476D01*
X8323190Y-18515476D01*
X8304143Y-18505952D01*
X8294619Y-18496429D01*
X8285095Y-18477381D01*
X8275571Y-18439286D01*
X8275571Y-18391667D01*
X8285095Y-18353571D01*
X8294619Y-18334524D01*
X8304143Y-18325000D01*
X8323190Y-18315476D01*
X8561286Y-18315476D02*
X8523190Y-18315476D01*
X8504143Y-18325000D01*
X8494619Y-18334524D01*
X8475571Y-18363095D01*
X8466048Y-18401190D01*
X8466048Y-18477381D01*
X8475571Y-18496429D01*
X8485095Y-18505952D01*
X8504143Y-18515476D01*
X8542238Y-18515476D01*
X8561286Y-18505952D01*
X8570810Y-18496429D01*
X8580333Y-18477381D01*
X8580333Y-18429762D01*
X8570810Y-18410714D01*
X8561286Y-18401190D01*
X8542238Y-18391667D01*
X8504143Y-18391667D01*
X8485095Y-18401190D01*
X8475571Y-18410714D01*
X8466048Y-18429762D01*
X8647000Y-18315476D02*
X8770810Y-18315476D01*
X8704143Y-18391667D01*
X8732714Y-18391667D01*
X8751762Y-18401190D01*
X8761286Y-18410714D01*
X8770810Y-18429762D01*
X8770810Y-18477381D01*
X8761286Y-18496429D01*
X8751762Y-18505952D01*
X8732714Y-18515476D01*
X8675571Y-18515476D01*
X8656524Y-18505952D01*
X8647000Y-18496429D01*
X8894619Y-18315476D02*
X8913667Y-18315476D01*
X8932714Y-18325000D01*
X8942238Y-18334524D01*
X8951762Y-18353571D01*
X8961286Y-18391667D01*
X8961286Y-18439286D01*
X8951762Y-18477381D01*
X8942238Y-18496429D01*
X8932714Y-18505952D01*
X8913667Y-18515476D01*
X8894619Y-18515476D01*
X8875571Y-18505952D01*
X8866048Y-18496429D01*
X8856524Y-18477381D01*
X8847000Y-18439286D01*
X8847000Y-18391667D01*
X8856524Y-18353571D01*
X8866048Y-18334524D01*
X8875571Y-18325000D01*
X8894619Y-18315476D01*
X9037476Y-18315476D02*
X9037476Y-18353571D01*
X9113667Y-18315476D02*
X9113667Y-18353571D01*
X9408905Y-18591667D02*
X9399381Y-18582143D01*
X9380333Y-18553571D01*
X9370810Y-18534524D01*
X9361286Y-18505952D01*
X9351762Y-18458333D01*
X9351762Y-18420238D01*
X9361286Y-18372619D01*
X9370810Y-18344048D01*
X9380333Y-18325000D01*
X9399381Y-18296429D01*
X9408905Y-18286905D01*
X9589857Y-18515476D02*
X9475571Y-18515476D01*
X9532714Y-18515476D02*
X9532714Y-18315476D01*
X9513667Y-18344048D01*
X9494619Y-18363095D01*
X9475571Y-18372619D01*
X9827952Y-18515476D02*
X9827952Y-18315476D01*
X9913667Y-18515476D02*
X9913667Y-18410714D01*
X9904143Y-18391667D01*
X9885095Y-18382143D01*
X9856524Y-18382143D01*
X9837476Y-18391667D01*
X9827952Y-18401190D01*
X10037476Y-18515476D02*
X10018429Y-18505952D01*
X10008905Y-18496429D01*
X9999381Y-18477381D01*
X9999381Y-18420238D01*
X10008905Y-18401190D01*
X10018429Y-18391667D01*
X10037476Y-18382143D01*
X10066048Y-18382143D01*
X10085095Y-18391667D01*
X10094619Y-18401190D01*
X10104143Y-18420238D01*
X10104143Y-18477381D01*
X10094619Y-18496429D01*
X10085095Y-18505952D01*
X10066048Y-18515476D01*
X10037476Y-18515476D01*
X10218429Y-18515476D02*
X10199381Y-18505952D01*
X10189857Y-18486905D01*
X10189857Y-18315476D01*
X10370810Y-18505952D02*
X10351762Y-18515476D01*
X10313667Y-18515476D01*
X10294619Y-18505952D01*
X10285095Y-18486905D01*
X10285095Y-18410714D01*
X10294619Y-18391667D01*
X10313667Y-18382143D01*
X10351762Y-18382143D01*
X10370810Y-18391667D01*
X10380333Y-18410714D01*
X10380333Y-18429762D01*
X10285095Y-18448810D01*
X10447000Y-18591667D02*
X10456524Y-18582143D01*
X10475571Y-18553571D01*
X10485095Y-18534524D01*
X10494619Y-18505952D01*
X10504143Y-18458333D01*
X10504143Y-18420238D01*
X10494619Y-18372619D01*
X10485095Y-18344048D01*
X10475571Y-18325000D01*
X10456524Y-18296429D01*
X10447000Y-18286905D01*
X10808905Y-18591667D02*
X10799381Y-18582143D01*
X10780333Y-18553571D01*
X10770810Y-18534524D01*
X10761286Y-18505952D01*
X10751762Y-18458333D01*
X10751762Y-18420238D01*
X10761286Y-18372619D01*
X10770810Y-18344048D01*
X10780333Y-18325000D01*
X10799381Y-18296429D01*
X10808905Y-18286905D01*
X10885095Y-18382143D02*
X10885095Y-18515476D01*
X10885095Y-18401190D02*
X10894619Y-18391667D01*
X10913667Y-18382143D01*
X10942238Y-18382143D01*
X10961286Y-18391667D01*
X10970810Y-18410714D01*
X10970810Y-18515476D01*
X11094619Y-18515476D02*
X11075571Y-18505952D01*
X11066048Y-18496429D01*
X11056524Y-18477381D01*
X11056524Y-18420238D01*
X11066048Y-18401190D01*
X11075571Y-18391667D01*
X11094619Y-18382143D01*
X11123190Y-18382143D01*
X11142238Y-18391667D01*
X11151762Y-18401190D01*
X11161286Y-18420238D01*
X11161286Y-18477381D01*
X11151762Y-18496429D01*
X11142238Y-18505952D01*
X11123190Y-18515476D01*
X11094619Y-18515476D01*
X11218428Y-18382143D02*
X11294619Y-18382143D01*
X11247000Y-18315476D02*
X11247000Y-18486905D01*
X11256524Y-18505952D01*
X11275571Y-18515476D01*
X11294619Y-18515476D01*
X11513667Y-18382143D02*
X11513667Y-18582143D01*
X11513667Y-18391667D02*
X11532714Y-18382143D01*
X11570809Y-18382143D01*
X11589857Y-18391667D01*
X11599381Y-18401190D01*
X11608905Y-18420238D01*
X11608905Y-18477381D01*
X11599381Y-18496429D01*
X11589857Y-18505952D01*
X11570809Y-18515476D01*
X11532714Y-18515476D01*
X11513667Y-18505952D01*
X11723190Y-18515476D02*
X11704143Y-18505952D01*
X11694619Y-18486905D01*
X11694619Y-18315476D01*
X11885095Y-18515476D02*
X11885095Y-18410714D01*
X11875571Y-18391667D01*
X11856524Y-18382143D01*
X11818428Y-18382143D01*
X11799381Y-18391667D01*
X11885095Y-18505952D02*
X11866048Y-18515476D01*
X11818428Y-18515476D01*
X11799381Y-18505952D01*
X11789857Y-18486905D01*
X11789857Y-18467857D01*
X11799381Y-18448810D01*
X11818428Y-18439286D01*
X11866048Y-18439286D01*
X11885095Y-18429762D01*
X11951762Y-18382143D02*
X12027952Y-18382143D01*
X11980333Y-18315476D02*
X11980333Y-18486905D01*
X11989857Y-18505952D01*
X12008905Y-18515476D01*
X12027952Y-18515476D01*
X12170809Y-18505952D02*
X12151762Y-18515476D01*
X12113667Y-18515476D01*
X12094619Y-18505952D01*
X12085095Y-18486905D01*
X12085095Y-18410714D01*
X12094619Y-18391667D01*
X12113667Y-18382143D01*
X12151762Y-18382143D01*
X12170809Y-18391667D01*
X12180333Y-18410714D01*
X12180333Y-18429762D01*
X12085095Y-18448810D01*
X12351762Y-18515476D02*
X12351762Y-18315476D01*
X12351762Y-18505952D02*
X12332714Y-18515476D01*
X12294619Y-18515476D01*
X12275571Y-18505952D01*
X12266048Y-18496429D01*
X12256524Y-18477381D01*
X12256524Y-18420238D01*
X12266048Y-18401190D01*
X12275571Y-18391667D01*
X12294619Y-18382143D01*
X12332714Y-18382143D01*
X12351762Y-18391667D01*
X12427952Y-18591667D02*
X12437476Y-18582143D01*
X12456524Y-18553571D01*
X12466048Y-18534524D01*
X12475571Y-18505952D01*
X12485095Y-18458333D01*
X12485095Y-18420238D01*
X12475571Y-18372619D01*
X12466048Y-18344048D01*
X12456524Y-18325000D01*
X12437476Y-18296429D01*
X12427952Y-18286905D01*
M02*
