%TF.GenerationSoftware,KiCad,Pcbnew,(6.0.7)*%
%TF.CreationDate,2022-11-30T23:51:10-03:00*%
%TF.ProjectId,ea075_project,65613037-355f-4707-926f-6a6563742e6b,rev?*%
%TF.SameCoordinates,Original*%
%TF.FileFunction,Drillmap*%
%TF.FilePolarity,Positive*%
%FSLAX45Y45*%
G04 Gerber Fmt 4.5, Leading zero omitted, Abs format (unit mm)*
G04 Created by KiCad (PCBNEW (6.0.7)) date 2022-11-30 23:51:10*
%MOMM*%
%LPD*%
G01*
G04 APERTURE LIST*
%ADD10C,0.100000*%
%ADD11C,0.200000*%
%ADD12C,0.040000*%
%ADD13C,0.076000*%
%ADD14C,0.080000*%
%ADD15C,0.090000*%
%ADD16C,0.110000*%
G04 APERTURE END LIST*
D10*
X5842000Y-2286000D02*
X23114000Y-2286000D01*
X23114000Y-2286000D02*
X23114000Y-17780000D01*
X23114000Y-17780000D02*
X5842000Y-17780000D01*
X5842000Y-17780000D02*
X5842000Y-2286000D01*
D11*
D12*
X10648000Y-10894000D02*
X10688000Y-10934000D01*
X10688000Y-10894000D02*
X10648000Y-10934000D01*
X10648000Y-11656000D02*
X10688000Y-11696000D01*
X10688000Y-11656000D02*
X10648000Y-11696000D01*
X11410000Y-11656000D02*
X11450000Y-11696000D01*
X11450000Y-11656000D02*
X11410000Y-11696000D01*
X11410000Y-15466000D02*
X11450000Y-15506000D01*
X11450000Y-15466000D02*
X11410000Y-15506000D01*
X11664000Y-15466000D02*
X11704000Y-15506000D01*
X11704000Y-15466000D02*
X11664000Y-15506000D01*
X11918000Y-11656000D02*
X11958000Y-11696000D01*
X11958000Y-11656000D02*
X11918000Y-11696000D01*
X11918000Y-14704000D02*
X11958000Y-14744000D01*
X11958000Y-14704000D02*
X11918000Y-14744000D01*
X11918000Y-15466000D02*
X11958000Y-15506000D01*
X11958000Y-15466000D02*
X11918000Y-15506000D01*
X12172000Y-9878000D02*
X12212000Y-9918000D01*
X12212000Y-9878000D02*
X12172000Y-9918000D01*
X12426000Y-11656000D02*
X12466000Y-11696000D01*
X12466000Y-11656000D02*
X12426000Y-11696000D01*
X13188000Y-9878000D02*
X13228000Y-9918000D01*
X13228000Y-9878000D02*
X13188000Y-9918000D01*
X13696000Y-9878000D02*
X13736000Y-9918000D01*
X13736000Y-9878000D02*
X13696000Y-9918000D01*
X13950000Y-5052000D02*
X13990000Y-5092000D01*
X13990000Y-5052000D02*
X13950000Y-5092000D01*
X14712000Y-6576000D02*
X14752000Y-6616000D01*
X14752000Y-6576000D02*
X14712000Y-6616000D01*
X16236000Y-10894000D02*
X16276000Y-10934000D01*
X16276000Y-10894000D02*
X16236000Y-10934000D01*
D13*
X10328000Y-7371750D02*
G75*
G03*
X10328000Y-7371750I-38000J0D01*
G01*
X10328000Y-8131750D02*
G75*
G03*
X10328000Y-8131750I-38000J0D01*
G01*
X10328000Y-10419750D02*
G75*
G03*
X10328000Y-10419750I-38000J0D01*
G01*
X10328000Y-11179750D02*
G75*
G03*
X10328000Y-11179750I-38000J0D01*
G01*
X10328000Y-13467750D02*
G75*
G03*
X10328000Y-13467750I-38000J0D01*
G01*
X10328000Y-14227750D02*
G75*
G03*
X10328000Y-14227750I-38000J0D01*
G01*
D14*
X7490000Y-7331750D02*
X7490000Y-7411750D01*
X7450000Y-7371750D02*
X7530000Y-7371750D01*
X7490000Y-8851750D02*
X7490000Y-8931750D01*
X7450000Y-8891750D02*
X7530000Y-8891750D01*
X7490000Y-10379750D02*
X7490000Y-10459750D01*
X7450000Y-10419750D02*
X7530000Y-10419750D01*
X7490000Y-11899750D02*
X7490000Y-11979750D01*
X7450000Y-11939750D02*
X7530000Y-11939750D01*
X7490000Y-13427750D02*
X7490000Y-13507750D01*
X7450000Y-13467750D02*
X7530000Y-13467750D01*
X7490000Y-14947750D02*
X7490000Y-15027750D01*
X7450000Y-14987750D02*
X7530000Y-14987750D01*
X12700000Y-6302000D02*
X12700000Y-6382000D01*
X12660000Y-6342000D02*
X12740000Y-6342000D01*
X12700000Y-7318000D02*
X12700000Y-7398000D01*
X12660000Y-7358000D02*
X12740000Y-7358000D01*
X12700000Y-8080000D02*
X12700000Y-8160000D01*
X12660000Y-8120000D02*
X12740000Y-8120000D01*
X12700000Y-9096000D02*
X12700000Y-9176000D01*
X12660000Y-9136000D02*
X12740000Y-9136000D01*
X15748000Y-3508000D02*
X15748000Y-3588000D01*
X15708000Y-3548000D02*
X15788000Y-3548000D01*
X15748000Y-4524000D02*
X15748000Y-4604000D01*
X15708000Y-4564000D02*
X15788000Y-4564000D01*
X16510000Y-3762000D02*
X16510000Y-3842000D01*
X16470000Y-3802000D02*
X16550000Y-3802000D01*
X16510000Y-4252000D02*
X16510000Y-4332000D01*
X16470000Y-4292000D02*
X16550000Y-4292000D01*
X18034000Y-7572000D02*
X18034000Y-7652000D01*
X17994000Y-7612000D02*
X18074000Y-7612000D01*
X18034000Y-8588000D02*
X18034000Y-8668000D01*
X17994000Y-8628000D02*
X18074000Y-8628000D01*
D15*
X11334820Y-16279820D02*
X11334820Y-16216180D01*
X11271180Y-16216180D01*
X11271180Y-16279820D01*
X11334820Y-16279820D01*
X11461820Y-16279820D02*
X11461820Y-16216180D01*
X11398180Y-16216180D01*
X11398180Y-16279820D01*
X11461820Y-16279820D01*
X11588820Y-16279820D02*
X11588820Y-16216180D01*
X11525180Y-16216180D01*
X11525180Y-16279820D01*
X11588820Y-16279820D01*
X11715820Y-16279820D02*
X11715820Y-16216180D01*
X11652180Y-16216180D01*
X11652180Y-16279820D01*
X11715820Y-16279820D01*
X12477820Y-16279820D02*
X12477820Y-16216180D01*
X12414180Y-16216180D01*
X12414180Y-16279820D01*
X12477820Y-16279820D01*
X12731820Y-16279820D02*
X12731820Y-16216180D01*
X12668180Y-16216180D01*
X12668180Y-16279820D01*
X12731820Y-16279820D01*
X13239820Y-16279820D02*
X13239820Y-16216180D01*
X13176180Y-16216180D01*
X13176180Y-16279820D01*
X13239820Y-16279820D01*
X13493820Y-16279820D02*
X13493820Y-16216180D01*
X13430180Y-16216180D01*
X13430180Y-16279820D01*
X13493820Y-16279820D01*
D10*
X6200000Y-5180000D02*
X6250000Y-5130000D01*
X6200000Y-5080000D01*
X6150000Y-5130000D01*
X6200000Y-5180000D01*
D11*
X6275000Y-5080000D02*
X6125000Y-5080000D01*
X6275000Y-5180000D02*
X6125000Y-5180000D01*
X6125000Y-5080000D02*
G75*
G03*
X6125000Y-5180000I0J-50000D01*
G01*
X6275000Y-5180000D02*
G75*
G03*
X6275000Y-5080000I0J50000D01*
G01*
D10*
X6200000Y-6080000D02*
X6250000Y-6030000D01*
X6200000Y-5980000D01*
X6150000Y-6030000D01*
X6200000Y-6080000D01*
D11*
X6275000Y-5980000D02*
X6125000Y-5980000D01*
X6275000Y-6080000D02*
X6125000Y-6080000D01*
X6125000Y-5980000D02*
G75*
G03*
X6125000Y-6080000I0J-50000D01*
G01*
X6275000Y-6080000D02*
G75*
G03*
X6275000Y-5980000I0J50000D01*
G01*
D10*
X6300000Y-5630000D02*
X6350000Y-5580000D01*
X6300000Y-5530000D01*
X6250000Y-5580000D01*
X6300000Y-5630000D01*
D11*
X6250000Y-5515000D02*
X6250000Y-5645000D01*
X6350000Y-5515000D02*
X6350000Y-5645000D01*
X6250000Y-5645000D02*
G75*
G03*
X6350000Y-5645000I50000J0D01*
G01*
X6350000Y-5515000D02*
G75*
G03*
X6250000Y-5515000I-50000J0D01*
G01*
D10*
X6900000Y-5630000D02*
X6950000Y-5580000D01*
X6900000Y-5530000D01*
X6850000Y-5580000D01*
X6900000Y-5630000D01*
D11*
X6850000Y-5480000D02*
X6850000Y-5680000D01*
X6950000Y-5480000D02*
X6950000Y-5680000D01*
X6850000Y-5680000D02*
G75*
G03*
X6950000Y-5680000I50000J0D01*
G01*
X6950000Y-5480000D02*
G75*
G03*
X6850000Y-5480000I-50000J0D01*
G01*
D10*
X11684000Y-8932000D02*
X11734000Y-8882000D01*
X11684000Y-8832000D01*
X11634000Y-8882000D01*
X11684000Y-8932000D01*
X11684000Y-9186000D02*
X11734000Y-9136000D01*
X11684000Y-9086000D01*
X11634000Y-9136000D01*
X11684000Y-9186000D01*
X11684000Y-9440000D02*
X11734000Y-9390000D01*
X11684000Y-9340000D01*
X11634000Y-9390000D01*
X11684000Y-9440000D01*
X14740000Y-13758000D02*
X14790000Y-13708000D01*
X14740000Y-13658000D01*
X14690000Y-13708000D01*
X14740000Y-13758000D01*
X14986000Y-3606000D02*
X15036000Y-3556000D01*
X14986000Y-3506000D01*
X14936000Y-3556000D01*
X14986000Y-3606000D01*
X14986000Y-4606000D02*
X15036000Y-4556000D01*
X14986000Y-4506000D01*
X14936000Y-4556000D01*
X14986000Y-4606000D01*
X15740000Y-13758000D02*
X15790000Y-13708000D01*
X15740000Y-13658000D01*
X15690000Y-13708000D01*
X15740000Y-13758000D01*
X16256000Y-7670000D02*
X16306000Y-7620000D01*
X16256000Y-7570000D01*
X16206000Y-7620000D01*
X16256000Y-7670000D01*
X16256000Y-8670000D02*
X16306000Y-8620000D01*
X16256000Y-8570000D01*
X16206000Y-8620000D01*
X16256000Y-8670000D01*
X17272000Y-7670000D02*
X17322000Y-7620000D01*
X17272000Y-7570000D01*
X17222000Y-7620000D01*
X17272000Y-7670000D01*
X17272000Y-8670000D02*
X17322000Y-8620000D01*
X17272000Y-8570000D01*
X17222000Y-8620000D01*
X17272000Y-8670000D01*
X17526000Y-3606000D02*
X17576000Y-3556000D01*
X17526000Y-3506000D01*
X17476000Y-3556000D01*
X17526000Y-3606000D01*
X17526000Y-4606000D02*
X17576000Y-4556000D01*
X17526000Y-4506000D01*
X17476000Y-4556000D01*
X17526000Y-4606000D01*
X18034000Y-5376000D02*
X18084000Y-5326000D01*
X18034000Y-5276000D01*
X17984000Y-5326000D01*
X18034000Y-5376000D01*
X18034000Y-5630000D02*
X18084000Y-5580000D01*
X18034000Y-5530000D01*
X17984000Y-5580000D01*
X18034000Y-5630000D01*
X20066000Y-7678000D02*
X20116000Y-7628000D01*
X20066000Y-7578000D01*
X20016000Y-7628000D01*
X20066000Y-7678000D01*
X20066000Y-8678000D02*
X20116000Y-8628000D01*
X20066000Y-8578000D01*
X20016000Y-8628000D01*
X20066000Y-8678000D01*
X21082000Y-4114000D02*
X21132000Y-4064000D01*
X21082000Y-4014000D01*
X21032000Y-4064000D01*
X21082000Y-4114000D01*
X21082000Y-5114000D02*
X21132000Y-5064000D01*
X21082000Y-5014000D01*
X21032000Y-5064000D01*
X21082000Y-5114000D01*
X22352000Y-4114000D02*
X22402000Y-4064000D01*
X22352000Y-4014000D01*
X22302000Y-4064000D01*
X22352000Y-4114000D01*
X22352000Y-5114000D02*
X22402000Y-5064000D01*
X22352000Y-5014000D01*
X22302000Y-5064000D01*
X22352000Y-5114000D01*
D16*
X17979000Y-6541000D02*
X18089000Y-6651000D01*
X18089000Y-6541000D02*
X17979000Y-6651000D01*
X18089000Y-6596000D02*
G75*
G03*
X18089000Y-6596000I-55000J0D01*
G01*
X17979000Y-6795000D02*
X18089000Y-6905000D01*
X18089000Y-6795000D02*
X17979000Y-6905000D01*
X18089000Y-6850000D02*
G75*
G03*
X18089000Y-6850000I-55000J0D01*
G01*
X17979000Y-7049000D02*
X18089000Y-7159000D01*
X18089000Y-7049000D02*
X17979000Y-7159000D01*
X18089000Y-7104000D02*
G75*
G03*
X18089000Y-7104000I-55000J0D01*
G01*
D11*
X6094619Y-18095476D02*
X6094619Y-17895476D01*
X6142238Y-17895476D01*
X6170809Y-17905000D01*
X6189857Y-17924048D01*
X6199381Y-17943095D01*
X6208905Y-17981190D01*
X6208905Y-18009762D01*
X6199381Y-18047857D01*
X6189857Y-18066905D01*
X6170809Y-18085952D01*
X6142238Y-18095476D01*
X6094619Y-18095476D01*
X6294619Y-18095476D02*
X6294619Y-17962143D01*
X6294619Y-18000238D02*
X6304143Y-17981190D01*
X6313667Y-17971667D01*
X6332714Y-17962143D01*
X6351762Y-17962143D01*
X6418428Y-18095476D02*
X6418428Y-17962143D01*
X6418428Y-17895476D02*
X6408905Y-17905000D01*
X6418428Y-17914524D01*
X6427952Y-17905000D01*
X6418428Y-17895476D01*
X6418428Y-17914524D01*
X6542238Y-18095476D02*
X6523190Y-18085952D01*
X6513667Y-18066905D01*
X6513667Y-17895476D01*
X6647000Y-18095476D02*
X6627952Y-18085952D01*
X6618428Y-18066905D01*
X6618428Y-17895476D01*
X6875571Y-18095476D02*
X6875571Y-17895476D01*
X6942238Y-18038333D01*
X7008905Y-17895476D01*
X7008905Y-18095476D01*
X7189857Y-18095476D02*
X7189857Y-17990714D01*
X7180333Y-17971667D01*
X7161286Y-17962143D01*
X7123190Y-17962143D01*
X7104143Y-17971667D01*
X7189857Y-18085952D02*
X7170809Y-18095476D01*
X7123190Y-18095476D01*
X7104143Y-18085952D01*
X7094619Y-18066905D01*
X7094619Y-18047857D01*
X7104143Y-18028810D01*
X7123190Y-18019286D01*
X7170809Y-18019286D01*
X7189857Y-18009762D01*
X7285095Y-17962143D02*
X7285095Y-18162143D01*
X7285095Y-17971667D02*
X7304143Y-17962143D01*
X7342238Y-17962143D01*
X7361286Y-17971667D01*
X7370809Y-17981190D01*
X7380333Y-18000238D01*
X7380333Y-18057381D01*
X7370809Y-18076429D01*
X7361286Y-18085952D01*
X7342238Y-18095476D01*
X7304143Y-18095476D01*
X7285095Y-18085952D01*
X7466048Y-18076429D02*
X7475571Y-18085952D01*
X7466048Y-18095476D01*
X7456524Y-18085952D01*
X7466048Y-18076429D01*
X7466048Y-18095476D01*
X7466048Y-17971667D02*
X7475571Y-17981190D01*
X7466048Y-17990714D01*
X7456524Y-17981190D01*
X7466048Y-17971667D01*
X7466048Y-17990714D01*
D12*
X5797000Y-18405000D02*
X5837000Y-18445000D01*
X5837000Y-18405000D02*
X5797000Y-18445000D01*
D11*
X6132714Y-18315476D02*
X6151762Y-18315476D01*
X6170809Y-18325000D01*
X6180333Y-18334524D01*
X6189857Y-18353571D01*
X6199381Y-18391667D01*
X6199381Y-18439286D01*
X6189857Y-18477381D01*
X6180333Y-18496429D01*
X6170809Y-18505952D01*
X6151762Y-18515476D01*
X6132714Y-18515476D01*
X6113667Y-18505952D01*
X6104143Y-18496429D01*
X6094619Y-18477381D01*
X6085095Y-18439286D01*
X6085095Y-18391667D01*
X6094619Y-18353571D01*
X6104143Y-18334524D01*
X6113667Y-18325000D01*
X6132714Y-18315476D01*
X6285095Y-18496429D02*
X6294619Y-18505952D01*
X6285095Y-18515476D01*
X6275571Y-18505952D01*
X6285095Y-18496429D01*
X6285095Y-18515476D01*
X6466048Y-18382143D02*
X6466048Y-18515476D01*
X6418428Y-18305952D02*
X6370809Y-18448810D01*
X6494619Y-18448810D01*
X6608905Y-18315476D02*
X6627952Y-18315476D01*
X6647000Y-18325000D01*
X6656524Y-18334524D01*
X6666048Y-18353571D01*
X6675571Y-18391667D01*
X6675571Y-18439286D01*
X6666048Y-18477381D01*
X6656524Y-18496429D01*
X6647000Y-18505952D01*
X6627952Y-18515476D01*
X6608905Y-18515476D01*
X6589857Y-18505952D01*
X6580333Y-18496429D01*
X6570809Y-18477381D01*
X6561286Y-18439286D01*
X6561286Y-18391667D01*
X6570809Y-18353571D01*
X6580333Y-18334524D01*
X6589857Y-18325000D01*
X6608905Y-18315476D01*
X6799381Y-18315476D02*
X6818428Y-18315476D01*
X6837476Y-18325000D01*
X6847000Y-18334524D01*
X6856524Y-18353571D01*
X6866048Y-18391667D01*
X6866048Y-18439286D01*
X6856524Y-18477381D01*
X6847000Y-18496429D01*
X6837476Y-18505952D01*
X6818428Y-18515476D01*
X6799381Y-18515476D01*
X6780333Y-18505952D01*
X6770809Y-18496429D01*
X6761286Y-18477381D01*
X6751762Y-18439286D01*
X6751762Y-18391667D01*
X6761286Y-18353571D01*
X6770809Y-18334524D01*
X6780333Y-18325000D01*
X6799381Y-18315476D01*
X6951762Y-18515476D02*
X6951762Y-18382143D01*
X6951762Y-18401190D02*
X6961286Y-18391667D01*
X6980333Y-18382143D01*
X7008905Y-18382143D01*
X7027952Y-18391667D01*
X7037476Y-18410714D01*
X7037476Y-18515476D01*
X7037476Y-18410714D02*
X7047000Y-18391667D01*
X7066048Y-18382143D01*
X7094619Y-18382143D01*
X7113667Y-18391667D01*
X7123190Y-18410714D01*
X7123190Y-18515476D01*
X7218428Y-18515476D02*
X7218428Y-18382143D01*
X7218428Y-18401190D02*
X7227952Y-18391667D01*
X7247000Y-18382143D01*
X7275571Y-18382143D01*
X7294619Y-18391667D01*
X7304143Y-18410714D01*
X7304143Y-18515476D01*
X7304143Y-18410714D02*
X7313667Y-18391667D01*
X7332714Y-18382143D01*
X7361286Y-18382143D01*
X7380333Y-18391667D01*
X7389857Y-18410714D01*
X7389857Y-18515476D01*
X7780333Y-18305952D02*
X7608905Y-18563095D01*
X8037476Y-18315476D02*
X8056524Y-18315476D01*
X8075571Y-18325000D01*
X8085095Y-18334524D01*
X8094619Y-18353571D01*
X8104143Y-18391667D01*
X8104143Y-18439286D01*
X8094619Y-18477381D01*
X8085095Y-18496429D01*
X8075571Y-18505952D01*
X8056524Y-18515476D01*
X8037476Y-18515476D01*
X8018428Y-18505952D01*
X8008905Y-18496429D01*
X7999381Y-18477381D01*
X7989857Y-18439286D01*
X7989857Y-18391667D01*
X7999381Y-18353571D01*
X8008905Y-18334524D01*
X8018428Y-18325000D01*
X8037476Y-18315476D01*
X8189857Y-18496429D02*
X8199381Y-18505952D01*
X8189857Y-18515476D01*
X8180333Y-18505952D01*
X8189857Y-18496429D01*
X8189857Y-18515476D01*
X8323190Y-18315476D02*
X8342238Y-18315476D01*
X8361286Y-18325000D01*
X8370809Y-18334524D01*
X8380333Y-18353571D01*
X8389857Y-18391667D01*
X8389857Y-18439286D01*
X8380333Y-18477381D01*
X8370809Y-18496429D01*
X8361286Y-18505952D01*
X8342238Y-18515476D01*
X8323190Y-18515476D01*
X8304143Y-18505952D01*
X8294619Y-18496429D01*
X8285095Y-18477381D01*
X8275571Y-18439286D01*
X8275571Y-18391667D01*
X8285095Y-18353571D01*
X8294619Y-18334524D01*
X8304143Y-18325000D01*
X8323190Y-18315476D01*
X8580333Y-18515476D02*
X8466048Y-18515476D01*
X8523190Y-18515476D02*
X8523190Y-18315476D01*
X8504143Y-18344048D01*
X8485095Y-18363095D01*
X8466048Y-18372619D01*
X8761286Y-18315476D02*
X8666048Y-18315476D01*
X8656524Y-18410714D01*
X8666048Y-18401190D01*
X8685095Y-18391667D01*
X8732714Y-18391667D01*
X8751762Y-18401190D01*
X8761286Y-18410714D01*
X8770810Y-18429762D01*
X8770810Y-18477381D01*
X8761286Y-18496429D01*
X8751762Y-18505952D01*
X8732714Y-18515476D01*
X8685095Y-18515476D01*
X8666048Y-18505952D01*
X8656524Y-18496429D01*
X8837476Y-18315476D02*
X8970810Y-18315476D01*
X8885095Y-18515476D01*
X9037476Y-18315476D02*
X9037476Y-18353571D01*
X9113667Y-18315476D02*
X9113667Y-18353571D01*
X9408905Y-18591667D02*
X9399381Y-18582143D01*
X9380333Y-18553571D01*
X9370810Y-18534524D01*
X9361286Y-18505952D01*
X9351762Y-18458333D01*
X9351762Y-18420238D01*
X9361286Y-18372619D01*
X9370810Y-18344048D01*
X9380333Y-18325000D01*
X9399381Y-18296429D01*
X9408905Y-18286905D01*
X9589857Y-18515476D02*
X9475571Y-18515476D01*
X9532714Y-18515476D02*
X9532714Y-18315476D01*
X9513667Y-18344048D01*
X9494619Y-18363095D01*
X9475571Y-18372619D01*
X9770810Y-18315476D02*
X9675571Y-18315476D01*
X9666048Y-18410714D01*
X9675571Y-18401190D01*
X9694619Y-18391667D01*
X9742238Y-18391667D01*
X9761286Y-18401190D01*
X9770810Y-18410714D01*
X9780333Y-18429762D01*
X9780333Y-18477381D01*
X9770810Y-18496429D01*
X9761286Y-18505952D01*
X9742238Y-18515476D01*
X9694619Y-18515476D01*
X9675571Y-18505952D01*
X9666048Y-18496429D01*
X10018429Y-18515476D02*
X10018429Y-18315476D01*
X10104143Y-18515476D02*
X10104143Y-18410714D01*
X10094619Y-18391667D01*
X10075571Y-18382143D01*
X10047000Y-18382143D01*
X10027952Y-18391667D01*
X10018429Y-18401190D01*
X10227952Y-18515476D02*
X10208905Y-18505952D01*
X10199381Y-18496429D01*
X10189857Y-18477381D01*
X10189857Y-18420238D01*
X10199381Y-18401190D01*
X10208905Y-18391667D01*
X10227952Y-18382143D01*
X10256524Y-18382143D01*
X10275571Y-18391667D01*
X10285095Y-18401190D01*
X10294619Y-18420238D01*
X10294619Y-18477381D01*
X10285095Y-18496429D01*
X10275571Y-18505952D01*
X10256524Y-18515476D01*
X10227952Y-18515476D01*
X10408905Y-18515476D02*
X10389857Y-18505952D01*
X10380333Y-18486905D01*
X10380333Y-18315476D01*
X10561286Y-18505952D02*
X10542238Y-18515476D01*
X10504143Y-18515476D01*
X10485095Y-18505952D01*
X10475571Y-18486905D01*
X10475571Y-18410714D01*
X10485095Y-18391667D01*
X10504143Y-18382143D01*
X10542238Y-18382143D01*
X10561286Y-18391667D01*
X10570810Y-18410714D01*
X10570810Y-18429762D01*
X10475571Y-18448810D01*
X10647000Y-18505952D02*
X10666048Y-18515476D01*
X10704143Y-18515476D01*
X10723190Y-18505952D01*
X10732714Y-18486905D01*
X10732714Y-18477381D01*
X10723190Y-18458333D01*
X10704143Y-18448810D01*
X10675571Y-18448810D01*
X10656524Y-18439286D01*
X10647000Y-18420238D01*
X10647000Y-18410714D01*
X10656524Y-18391667D01*
X10675571Y-18382143D01*
X10704143Y-18382143D01*
X10723190Y-18391667D01*
X10799381Y-18591667D02*
X10808905Y-18582143D01*
X10827952Y-18553571D01*
X10837476Y-18534524D01*
X10847000Y-18505952D01*
X10856524Y-18458333D01*
X10856524Y-18420238D01*
X10847000Y-18372619D01*
X10837476Y-18344048D01*
X10827952Y-18325000D01*
X10808905Y-18296429D01*
X10799381Y-18286905D01*
D13*
X5837000Y-18689000D02*
G75*
G03*
X5837000Y-18689000I-38000J0D01*
G01*
D11*
X6132714Y-18579476D02*
X6151762Y-18579476D01*
X6170809Y-18589000D01*
X6180333Y-18598524D01*
X6189857Y-18617571D01*
X6199381Y-18655667D01*
X6199381Y-18703286D01*
X6189857Y-18741381D01*
X6180333Y-18760429D01*
X6170809Y-18769952D01*
X6151762Y-18779476D01*
X6132714Y-18779476D01*
X6113667Y-18769952D01*
X6104143Y-18760429D01*
X6094619Y-18741381D01*
X6085095Y-18703286D01*
X6085095Y-18655667D01*
X6094619Y-18617571D01*
X6104143Y-18598524D01*
X6113667Y-18589000D01*
X6132714Y-18579476D01*
X6285095Y-18760429D02*
X6294619Y-18769952D01*
X6285095Y-18779476D01*
X6275571Y-18769952D01*
X6285095Y-18760429D01*
X6285095Y-18779476D01*
X6361286Y-18579476D02*
X6494619Y-18579476D01*
X6408905Y-18779476D01*
X6656524Y-18579476D02*
X6618428Y-18579476D01*
X6599381Y-18589000D01*
X6589857Y-18598524D01*
X6570809Y-18627095D01*
X6561286Y-18665190D01*
X6561286Y-18741381D01*
X6570809Y-18760429D01*
X6580333Y-18769952D01*
X6599381Y-18779476D01*
X6637476Y-18779476D01*
X6656524Y-18769952D01*
X6666048Y-18760429D01*
X6675571Y-18741381D01*
X6675571Y-18693762D01*
X6666048Y-18674714D01*
X6656524Y-18665190D01*
X6637476Y-18655667D01*
X6599381Y-18655667D01*
X6580333Y-18665190D01*
X6570809Y-18674714D01*
X6561286Y-18693762D01*
X6799381Y-18579476D02*
X6818428Y-18579476D01*
X6837476Y-18589000D01*
X6847000Y-18598524D01*
X6856524Y-18617571D01*
X6866048Y-18655667D01*
X6866048Y-18703286D01*
X6856524Y-18741381D01*
X6847000Y-18760429D01*
X6837476Y-18769952D01*
X6818428Y-18779476D01*
X6799381Y-18779476D01*
X6780333Y-18769952D01*
X6770809Y-18760429D01*
X6761286Y-18741381D01*
X6751762Y-18703286D01*
X6751762Y-18655667D01*
X6761286Y-18617571D01*
X6770809Y-18598524D01*
X6780333Y-18589000D01*
X6799381Y-18579476D01*
X6951762Y-18779476D02*
X6951762Y-18646143D01*
X6951762Y-18665190D02*
X6961286Y-18655667D01*
X6980333Y-18646143D01*
X7008905Y-18646143D01*
X7027952Y-18655667D01*
X7037476Y-18674714D01*
X7037476Y-18779476D01*
X7037476Y-18674714D02*
X7047000Y-18655667D01*
X7066048Y-18646143D01*
X7094619Y-18646143D01*
X7113667Y-18655667D01*
X7123190Y-18674714D01*
X7123190Y-18779476D01*
X7218428Y-18779476D02*
X7218428Y-18646143D01*
X7218428Y-18665190D02*
X7227952Y-18655667D01*
X7247000Y-18646143D01*
X7275571Y-18646143D01*
X7294619Y-18655667D01*
X7304143Y-18674714D01*
X7304143Y-18779476D01*
X7304143Y-18674714D02*
X7313667Y-18655667D01*
X7332714Y-18646143D01*
X7361286Y-18646143D01*
X7380333Y-18655667D01*
X7389857Y-18674714D01*
X7389857Y-18779476D01*
X7780333Y-18569952D02*
X7608905Y-18827095D01*
X8037476Y-18579476D02*
X8056524Y-18579476D01*
X8075571Y-18589000D01*
X8085095Y-18598524D01*
X8094619Y-18617571D01*
X8104143Y-18655667D01*
X8104143Y-18703286D01*
X8094619Y-18741381D01*
X8085095Y-18760429D01*
X8075571Y-18769952D01*
X8056524Y-18779476D01*
X8037476Y-18779476D01*
X8018428Y-18769952D01*
X8008905Y-18760429D01*
X7999381Y-18741381D01*
X7989857Y-18703286D01*
X7989857Y-18655667D01*
X7999381Y-18617571D01*
X8008905Y-18598524D01*
X8018428Y-18589000D01*
X8037476Y-18579476D01*
X8189857Y-18760429D02*
X8199381Y-18769952D01*
X8189857Y-18779476D01*
X8180333Y-18769952D01*
X8189857Y-18760429D01*
X8189857Y-18779476D01*
X8323190Y-18579476D02*
X8342238Y-18579476D01*
X8361286Y-18589000D01*
X8370809Y-18598524D01*
X8380333Y-18617571D01*
X8389857Y-18655667D01*
X8389857Y-18703286D01*
X8380333Y-18741381D01*
X8370809Y-18760429D01*
X8361286Y-18769952D01*
X8342238Y-18779476D01*
X8323190Y-18779476D01*
X8304143Y-18769952D01*
X8294619Y-18760429D01*
X8285095Y-18741381D01*
X8275571Y-18703286D01*
X8275571Y-18655667D01*
X8285095Y-18617571D01*
X8294619Y-18598524D01*
X8304143Y-18589000D01*
X8323190Y-18579476D01*
X8466048Y-18598524D02*
X8475571Y-18589000D01*
X8494619Y-18579476D01*
X8542238Y-18579476D01*
X8561286Y-18589000D01*
X8570810Y-18598524D01*
X8580333Y-18617571D01*
X8580333Y-18636619D01*
X8570810Y-18665190D01*
X8456524Y-18779476D01*
X8580333Y-18779476D01*
X8675571Y-18779476D02*
X8713667Y-18779476D01*
X8732714Y-18769952D01*
X8742238Y-18760429D01*
X8761286Y-18731857D01*
X8770810Y-18693762D01*
X8770810Y-18617571D01*
X8761286Y-18598524D01*
X8751762Y-18589000D01*
X8732714Y-18579476D01*
X8694619Y-18579476D01*
X8675571Y-18589000D01*
X8666048Y-18598524D01*
X8656524Y-18617571D01*
X8656524Y-18665190D01*
X8666048Y-18684238D01*
X8675571Y-18693762D01*
X8694619Y-18703286D01*
X8732714Y-18703286D01*
X8751762Y-18693762D01*
X8761286Y-18684238D01*
X8770810Y-18665190D01*
X8866048Y-18779476D02*
X8904143Y-18779476D01*
X8923190Y-18769952D01*
X8932714Y-18760429D01*
X8951762Y-18731857D01*
X8961286Y-18693762D01*
X8961286Y-18617571D01*
X8951762Y-18598524D01*
X8942238Y-18589000D01*
X8923190Y-18579476D01*
X8885095Y-18579476D01*
X8866048Y-18589000D01*
X8856524Y-18598524D01*
X8847000Y-18617571D01*
X8847000Y-18665190D01*
X8856524Y-18684238D01*
X8866048Y-18693762D01*
X8885095Y-18703286D01*
X8923190Y-18703286D01*
X8942238Y-18693762D01*
X8951762Y-18684238D01*
X8961286Y-18665190D01*
X9037476Y-18579476D02*
X9037476Y-18617571D01*
X9113667Y-18579476D02*
X9113667Y-18617571D01*
X9408905Y-18855667D02*
X9399381Y-18846143D01*
X9380333Y-18817571D01*
X9370810Y-18798524D01*
X9361286Y-18769952D01*
X9351762Y-18722333D01*
X9351762Y-18684238D01*
X9361286Y-18636619D01*
X9370810Y-18608048D01*
X9380333Y-18589000D01*
X9399381Y-18560429D01*
X9408905Y-18550905D01*
X9570810Y-18579476D02*
X9532714Y-18579476D01*
X9513667Y-18589000D01*
X9504143Y-18598524D01*
X9485095Y-18627095D01*
X9475571Y-18665190D01*
X9475571Y-18741381D01*
X9485095Y-18760429D01*
X9494619Y-18769952D01*
X9513667Y-18779476D01*
X9551762Y-18779476D01*
X9570810Y-18769952D01*
X9580333Y-18760429D01*
X9589857Y-18741381D01*
X9589857Y-18693762D01*
X9580333Y-18674714D01*
X9570810Y-18665190D01*
X9551762Y-18655667D01*
X9513667Y-18655667D01*
X9494619Y-18665190D01*
X9485095Y-18674714D01*
X9475571Y-18693762D01*
X9827952Y-18779476D02*
X9827952Y-18579476D01*
X9913667Y-18779476D02*
X9913667Y-18674714D01*
X9904143Y-18655667D01*
X9885095Y-18646143D01*
X9856524Y-18646143D01*
X9837476Y-18655667D01*
X9827952Y-18665190D01*
X10037476Y-18779476D02*
X10018429Y-18769952D01*
X10008905Y-18760429D01*
X9999381Y-18741381D01*
X9999381Y-18684238D01*
X10008905Y-18665190D01*
X10018429Y-18655667D01*
X10037476Y-18646143D01*
X10066048Y-18646143D01*
X10085095Y-18655667D01*
X10094619Y-18665190D01*
X10104143Y-18684238D01*
X10104143Y-18741381D01*
X10094619Y-18760429D01*
X10085095Y-18769952D01*
X10066048Y-18779476D01*
X10037476Y-18779476D01*
X10218429Y-18779476D02*
X10199381Y-18769952D01*
X10189857Y-18750905D01*
X10189857Y-18579476D01*
X10370810Y-18769952D02*
X10351762Y-18779476D01*
X10313667Y-18779476D01*
X10294619Y-18769952D01*
X10285095Y-18750905D01*
X10285095Y-18674714D01*
X10294619Y-18655667D01*
X10313667Y-18646143D01*
X10351762Y-18646143D01*
X10370810Y-18655667D01*
X10380333Y-18674714D01*
X10380333Y-18693762D01*
X10285095Y-18712810D01*
X10456524Y-18769952D02*
X10475571Y-18779476D01*
X10513667Y-18779476D01*
X10532714Y-18769952D01*
X10542238Y-18750905D01*
X10542238Y-18741381D01*
X10532714Y-18722333D01*
X10513667Y-18712810D01*
X10485095Y-18712810D01*
X10466048Y-18703286D01*
X10456524Y-18684238D01*
X10456524Y-18674714D01*
X10466048Y-18655667D01*
X10485095Y-18646143D01*
X10513667Y-18646143D01*
X10532714Y-18655667D01*
X10608905Y-18855667D02*
X10618429Y-18846143D01*
X10637476Y-18817571D01*
X10647000Y-18798524D01*
X10656524Y-18769952D01*
X10666048Y-18722333D01*
X10666048Y-18684238D01*
X10656524Y-18636619D01*
X10647000Y-18608048D01*
X10637476Y-18589000D01*
X10618429Y-18560429D01*
X10608905Y-18550905D01*
D14*
X5797000Y-18913000D02*
X5797000Y-18993000D01*
X5757000Y-18953000D02*
X5837000Y-18953000D01*
D11*
X6132714Y-18843476D02*
X6151762Y-18843476D01*
X6170809Y-18853000D01*
X6180333Y-18862524D01*
X6189857Y-18881571D01*
X6199381Y-18919667D01*
X6199381Y-18967286D01*
X6189857Y-19005381D01*
X6180333Y-19024429D01*
X6170809Y-19033952D01*
X6151762Y-19043476D01*
X6132714Y-19043476D01*
X6113667Y-19033952D01*
X6104143Y-19024429D01*
X6094619Y-19005381D01*
X6085095Y-18967286D01*
X6085095Y-18919667D01*
X6094619Y-18881571D01*
X6104143Y-18862524D01*
X6113667Y-18853000D01*
X6132714Y-18843476D01*
X6285095Y-19024429D02*
X6294619Y-19033952D01*
X6285095Y-19043476D01*
X6275571Y-19033952D01*
X6285095Y-19024429D01*
X6285095Y-19043476D01*
X6408905Y-18929190D02*
X6389857Y-18919667D01*
X6380333Y-18910143D01*
X6370809Y-18891095D01*
X6370809Y-18881571D01*
X6380333Y-18862524D01*
X6389857Y-18853000D01*
X6408905Y-18843476D01*
X6447000Y-18843476D01*
X6466048Y-18853000D01*
X6475571Y-18862524D01*
X6485095Y-18881571D01*
X6485095Y-18891095D01*
X6475571Y-18910143D01*
X6466048Y-18919667D01*
X6447000Y-18929190D01*
X6408905Y-18929190D01*
X6389857Y-18938714D01*
X6380333Y-18948238D01*
X6370809Y-18967286D01*
X6370809Y-19005381D01*
X6380333Y-19024429D01*
X6389857Y-19033952D01*
X6408905Y-19043476D01*
X6447000Y-19043476D01*
X6466048Y-19033952D01*
X6475571Y-19024429D01*
X6485095Y-19005381D01*
X6485095Y-18967286D01*
X6475571Y-18948238D01*
X6466048Y-18938714D01*
X6447000Y-18929190D01*
X6608905Y-18843476D02*
X6627952Y-18843476D01*
X6647000Y-18853000D01*
X6656524Y-18862524D01*
X6666048Y-18881571D01*
X6675571Y-18919667D01*
X6675571Y-18967286D01*
X6666048Y-19005381D01*
X6656524Y-19024429D01*
X6647000Y-19033952D01*
X6627952Y-19043476D01*
X6608905Y-19043476D01*
X6589857Y-19033952D01*
X6580333Y-19024429D01*
X6570809Y-19005381D01*
X6561286Y-18967286D01*
X6561286Y-18919667D01*
X6570809Y-18881571D01*
X6580333Y-18862524D01*
X6589857Y-18853000D01*
X6608905Y-18843476D01*
X6799381Y-18843476D02*
X6818428Y-18843476D01*
X6837476Y-18853000D01*
X6847000Y-18862524D01*
X6856524Y-18881571D01*
X6866048Y-18919667D01*
X6866048Y-18967286D01*
X6856524Y-19005381D01*
X6847000Y-19024429D01*
X6837476Y-19033952D01*
X6818428Y-19043476D01*
X6799381Y-19043476D01*
X6780333Y-19033952D01*
X6770809Y-19024429D01*
X6761286Y-19005381D01*
X6751762Y-18967286D01*
X6751762Y-18919667D01*
X6761286Y-18881571D01*
X6770809Y-18862524D01*
X6780333Y-18853000D01*
X6799381Y-18843476D01*
X6951762Y-19043476D02*
X6951762Y-18910143D01*
X6951762Y-18929190D02*
X6961286Y-18919667D01*
X6980333Y-18910143D01*
X7008905Y-18910143D01*
X7027952Y-18919667D01*
X7037476Y-18938714D01*
X7037476Y-19043476D01*
X7037476Y-18938714D02*
X7047000Y-18919667D01*
X7066048Y-18910143D01*
X7094619Y-18910143D01*
X7113667Y-18919667D01*
X7123190Y-18938714D01*
X7123190Y-19043476D01*
X7218428Y-19043476D02*
X7218428Y-18910143D01*
X7218428Y-18929190D02*
X7227952Y-18919667D01*
X7247000Y-18910143D01*
X7275571Y-18910143D01*
X7294619Y-18919667D01*
X7304143Y-18938714D01*
X7304143Y-19043476D01*
X7304143Y-18938714D02*
X7313667Y-18919667D01*
X7332714Y-18910143D01*
X7361286Y-18910143D01*
X7380333Y-18919667D01*
X7389857Y-18938714D01*
X7389857Y-19043476D01*
X7780333Y-18833952D02*
X7608905Y-19091095D01*
X8037476Y-18843476D02*
X8056524Y-18843476D01*
X8075571Y-18853000D01*
X8085095Y-18862524D01*
X8094619Y-18881571D01*
X8104143Y-18919667D01*
X8104143Y-18967286D01*
X8094619Y-19005381D01*
X8085095Y-19024429D01*
X8075571Y-19033952D01*
X8056524Y-19043476D01*
X8037476Y-19043476D01*
X8018428Y-19033952D01*
X8008905Y-19024429D01*
X7999381Y-19005381D01*
X7989857Y-18967286D01*
X7989857Y-18919667D01*
X7999381Y-18881571D01*
X8008905Y-18862524D01*
X8018428Y-18853000D01*
X8037476Y-18843476D01*
X8189857Y-19024429D02*
X8199381Y-19033952D01*
X8189857Y-19043476D01*
X8180333Y-19033952D01*
X8189857Y-19024429D01*
X8189857Y-19043476D01*
X8323190Y-18843476D02*
X8342238Y-18843476D01*
X8361286Y-18853000D01*
X8370809Y-18862524D01*
X8380333Y-18881571D01*
X8389857Y-18919667D01*
X8389857Y-18967286D01*
X8380333Y-19005381D01*
X8370809Y-19024429D01*
X8361286Y-19033952D01*
X8342238Y-19043476D01*
X8323190Y-19043476D01*
X8304143Y-19033952D01*
X8294619Y-19024429D01*
X8285095Y-19005381D01*
X8275571Y-18967286D01*
X8275571Y-18919667D01*
X8285095Y-18881571D01*
X8294619Y-18862524D01*
X8304143Y-18853000D01*
X8323190Y-18843476D01*
X8456524Y-18843476D02*
X8580333Y-18843476D01*
X8513667Y-18919667D01*
X8542238Y-18919667D01*
X8561286Y-18929190D01*
X8570810Y-18938714D01*
X8580333Y-18957762D01*
X8580333Y-19005381D01*
X8570810Y-19024429D01*
X8561286Y-19033952D01*
X8542238Y-19043476D01*
X8485095Y-19043476D01*
X8466048Y-19033952D01*
X8456524Y-19024429D01*
X8770810Y-19043476D02*
X8656524Y-19043476D01*
X8713667Y-19043476D02*
X8713667Y-18843476D01*
X8694619Y-18872048D01*
X8675571Y-18891095D01*
X8656524Y-18900619D01*
X8951762Y-18843476D02*
X8856524Y-18843476D01*
X8847000Y-18938714D01*
X8856524Y-18929190D01*
X8875571Y-18919667D01*
X8923190Y-18919667D01*
X8942238Y-18929190D01*
X8951762Y-18938714D01*
X8961286Y-18957762D01*
X8961286Y-19005381D01*
X8951762Y-19024429D01*
X8942238Y-19033952D01*
X8923190Y-19043476D01*
X8875571Y-19043476D01*
X8856524Y-19033952D01*
X8847000Y-19024429D01*
X9037476Y-18843476D02*
X9037476Y-18881571D01*
X9113667Y-18843476D02*
X9113667Y-18881571D01*
X9408905Y-19119667D02*
X9399381Y-19110143D01*
X9380333Y-19081571D01*
X9370810Y-19062524D01*
X9361286Y-19033952D01*
X9351762Y-18986333D01*
X9351762Y-18948238D01*
X9361286Y-18900619D01*
X9370810Y-18872048D01*
X9380333Y-18853000D01*
X9399381Y-18824429D01*
X9408905Y-18814905D01*
X9589857Y-19043476D02*
X9475571Y-19043476D01*
X9532714Y-19043476D02*
X9532714Y-18843476D01*
X9513667Y-18872048D01*
X9494619Y-18891095D01*
X9475571Y-18900619D01*
X9761286Y-18843476D02*
X9723190Y-18843476D01*
X9704143Y-18853000D01*
X9694619Y-18862524D01*
X9675571Y-18891095D01*
X9666048Y-18929190D01*
X9666048Y-19005381D01*
X9675571Y-19024429D01*
X9685095Y-19033952D01*
X9704143Y-19043476D01*
X9742238Y-19043476D01*
X9761286Y-19033952D01*
X9770810Y-19024429D01*
X9780333Y-19005381D01*
X9780333Y-18957762D01*
X9770810Y-18938714D01*
X9761286Y-18929190D01*
X9742238Y-18919667D01*
X9704143Y-18919667D01*
X9685095Y-18929190D01*
X9675571Y-18938714D01*
X9666048Y-18957762D01*
X10018429Y-19043476D02*
X10018429Y-18843476D01*
X10104143Y-19043476D02*
X10104143Y-18938714D01*
X10094619Y-18919667D01*
X10075571Y-18910143D01*
X10047000Y-18910143D01*
X10027952Y-18919667D01*
X10018429Y-18929190D01*
X10227952Y-19043476D02*
X10208905Y-19033952D01*
X10199381Y-19024429D01*
X10189857Y-19005381D01*
X10189857Y-18948238D01*
X10199381Y-18929190D01*
X10208905Y-18919667D01*
X10227952Y-18910143D01*
X10256524Y-18910143D01*
X10275571Y-18919667D01*
X10285095Y-18929190D01*
X10294619Y-18948238D01*
X10294619Y-19005381D01*
X10285095Y-19024429D01*
X10275571Y-19033952D01*
X10256524Y-19043476D01*
X10227952Y-19043476D01*
X10408905Y-19043476D02*
X10389857Y-19033952D01*
X10380333Y-19014905D01*
X10380333Y-18843476D01*
X10561286Y-19033952D02*
X10542238Y-19043476D01*
X10504143Y-19043476D01*
X10485095Y-19033952D01*
X10475571Y-19014905D01*
X10475571Y-18938714D01*
X10485095Y-18919667D01*
X10504143Y-18910143D01*
X10542238Y-18910143D01*
X10561286Y-18919667D01*
X10570810Y-18938714D01*
X10570810Y-18957762D01*
X10475571Y-18976810D01*
X10647000Y-19033952D02*
X10666048Y-19043476D01*
X10704143Y-19043476D01*
X10723190Y-19033952D01*
X10732714Y-19014905D01*
X10732714Y-19005381D01*
X10723190Y-18986333D01*
X10704143Y-18976810D01*
X10675571Y-18976810D01*
X10656524Y-18967286D01*
X10647000Y-18948238D01*
X10647000Y-18938714D01*
X10656524Y-18919667D01*
X10675571Y-18910143D01*
X10704143Y-18910143D01*
X10723190Y-18919667D01*
X10799381Y-19119667D02*
X10808905Y-19110143D01*
X10827952Y-19081571D01*
X10837476Y-19062524D01*
X10847000Y-19033952D01*
X10856524Y-18986333D01*
X10856524Y-18948238D01*
X10847000Y-18900619D01*
X10837476Y-18872048D01*
X10827952Y-18853000D01*
X10808905Y-18824429D01*
X10799381Y-18814905D01*
D15*
X5823820Y-19248820D02*
X5823820Y-19185180D01*
X5760180Y-19185180D01*
X5760180Y-19248820D01*
X5823820Y-19248820D01*
D11*
X6132714Y-19107476D02*
X6151762Y-19107476D01*
X6170809Y-19117000D01*
X6180333Y-19126524D01*
X6189857Y-19145571D01*
X6199381Y-19183667D01*
X6199381Y-19231286D01*
X6189857Y-19269381D01*
X6180333Y-19288429D01*
X6170809Y-19297952D01*
X6151762Y-19307476D01*
X6132714Y-19307476D01*
X6113667Y-19297952D01*
X6104143Y-19288429D01*
X6094619Y-19269381D01*
X6085095Y-19231286D01*
X6085095Y-19183667D01*
X6094619Y-19145571D01*
X6104143Y-19126524D01*
X6113667Y-19117000D01*
X6132714Y-19107476D01*
X6285095Y-19288429D02*
X6294619Y-19297952D01*
X6285095Y-19307476D01*
X6275571Y-19297952D01*
X6285095Y-19288429D01*
X6285095Y-19307476D01*
X6389857Y-19307476D02*
X6427952Y-19307476D01*
X6447000Y-19297952D01*
X6456524Y-19288429D01*
X6475571Y-19259857D01*
X6485095Y-19221762D01*
X6485095Y-19145571D01*
X6475571Y-19126524D01*
X6466048Y-19117000D01*
X6447000Y-19107476D01*
X6408905Y-19107476D01*
X6389857Y-19117000D01*
X6380333Y-19126524D01*
X6370809Y-19145571D01*
X6370809Y-19193190D01*
X6380333Y-19212238D01*
X6389857Y-19221762D01*
X6408905Y-19231286D01*
X6447000Y-19231286D01*
X6466048Y-19221762D01*
X6475571Y-19212238D01*
X6485095Y-19193190D01*
X6608905Y-19107476D02*
X6627952Y-19107476D01*
X6647000Y-19117000D01*
X6656524Y-19126524D01*
X6666048Y-19145571D01*
X6675571Y-19183667D01*
X6675571Y-19231286D01*
X6666048Y-19269381D01*
X6656524Y-19288429D01*
X6647000Y-19297952D01*
X6627952Y-19307476D01*
X6608905Y-19307476D01*
X6589857Y-19297952D01*
X6580333Y-19288429D01*
X6570809Y-19269381D01*
X6561286Y-19231286D01*
X6561286Y-19183667D01*
X6570809Y-19145571D01*
X6580333Y-19126524D01*
X6589857Y-19117000D01*
X6608905Y-19107476D01*
X6799381Y-19107476D02*
X6818428Y-19107476D01*
X6837476Y-19117000D01*
X6847000Y-19126524D01*
X6856524Y-19145571D01*
X6866048Y-19183667D01*
X6866048Y-19231286D01*
X6856524Y-19269381D01*
X6847000Y-19288429D01*
X6837476Y-19297952D01*
X6818428Y-19307476D01*
X6799381Y-19307476D01*
X6780333Y-19297952D01*
X6770809Y-19288429D01*
X6761286Y-19269381D01*
X6751762Y-19231286D01*
X6751762Y-19183667D01*
X6761286Y-19145571D01*
X6770809Y-19126524D01*
X6780333Y-19117000D01*
X6799381Y-19107476D01*
X6951762Y-19307476D02*
X6951762Y-19174143D01*
X6951762Y-19193190D02*
X6961286Y-19183667D01*
X6980333Y-19174143D01*
X7008905Y-19174143D01*
X7027952Y-19183667D01*
X7037476Y-19202714D01*
X7037476Y-19307476D01*
X7037476Y-19202714D02*
X7047000Y-19183667D01*
X7066048Y-19174143D01*
X7094619Y-19174143D01*
X7113667Y-19183667D01*
X7123190Y-19202714D01*
X7123190Y-19307476D01*
X7218428Y-19307476D02*
X7218428Y-19174143D01*
X7218428Y-19193190D02*
X7227952Y-19183667D01*
X7247000Y-19174143D01*
X7275571Y-19174143D01*
X7294619Y-19183667D01*
X7304143Y-19202714D01*
X7304143Y-19307476D01*
X7304143Y-19202714D02*
X7313667Y-19183667D01*
X7332714Y-19174143D01*
X7361286Y-19174143D01*
X7380333Y-19183667D01*
X7389857Y-19202714D01*
X7389857Y-19307476D01*
X7780333Y-19097952D02*
X7608905Y-19355095D01*
X8037476Y-19107476D02*
X8056524Y-19107476D01*
X8075571Y-19117000D01*
X8085095Y-19126524D01*
X8094619Y-19145571D01*
X8104143Y-19183667D01*
X8104143Y-19231286D01*
X8094619Y-19269381D01*
X8085095Y-19288429D01*
X8075571Y-19297952D01*
X8056524Y-19307476D01*
X8037476Y-19307476D01*
X8018428Y-19297952D01*
X8008905Y-19288429D01*
X7999381Y-19269381D01*
X7989857Y-19231286D01*
X7989857Y-19183667D01*
X7999381Y-19145571D01*
X8008905Y-19126524D01*
X8018428Y-19117000D01*
X8037476Y-19107476D01*
X8189857Y-19288429D02*
X8199381Y-19297952D01*
X8189857Y-19307476D01*
X8180333Y-19297952D01*
X8189857Y-19288429D01*
X8189857Y-19307476D01*
X8323190Y-19107476D02*
X8342238Y-19107476D01*
X8361286Y-19117000D01*
X8370809Y-19126524D01*
X8380333Y-19145571D01*
X8389857Y-19183667D01*
X8389857Y-19231286D01*
X8380333Y-19269381D01*
X8370809Y-19288429D01*
X8361286Y-19297952D01*
X8342238Y-19307476D01*
X8323190Y-19307476D01*
X8304143Y-19297952D01*
X8294619Y-19288429D01*
X8285095Y-19269381D01*
X8275571Y-19231286D01*
X8275571Y-19183667D01*
X8285095Y-19145571D01*
X8294619Y-19126524D01*
X8304143Y-19117000D01*
X8323190Y-19107476D01*
X8456524Y-19107476D02*
X8580333Y-19107476D01*
X8513667Y-19183667D01*
X8542238Y-19183667D01*
X8561286Y-19193190D01*
X8570810Y-19202714D01*
X8580333Y-19221762D01*
X8580333Y-19269381D01*
X8570810Y-19288429D01*
X8561286Y-19297952D01*
X8542238Y-19307476D01*
X8485095Y-19307476D01*
X8466048Y-19297952D01*
X8456524Y-19288429D01*
X8761286Y-19107476D02*
X8666048Y-19107476D01*
X8656524Y-19202714D01*
X8666048Y-19193190D01*
X8685095Y-19183667D01*
X8732714Y-19183667D01*
X8751762Y-19193190D01*
X8761286Y-19202714D01*
X8770810Y-19221762D01*
X8770810Y-19269381D01*
X8761286Y-19288429D01*
X8751762Y-19297952D01*
X8732714Y-19307476D01*
X8685095Y-19307476D01*
X8666048Y-19297952D01*
X8656524Y-19288429D01*
X8942238Y-19174143D02*
X8942238Y-19307476D01*
X8894619Y-19097952D02*
X8847000Y-19240810D01*
X8970810Y-19240810D01*
X9037476Y-19107476D02*
X9037476Y-19145571D01*
X9113667Y-19107476D02*
X9113667Y-19145571D01*
X9408905Y-19383667D02*
X9399381Y-19374143D01*
X9380333Y-19345571D01*
X9370810Y-19326524D01*
X9361286Y-19297952D01*
X9351762Y-19250333D01*
X9351762Y-19212238D01*
X9361286Y-19164619D01*
X9370810Y-19136048D01*
X9380333Y-19117000D01*
X9399381Y-19088429D01*
X9408905Y-19078905D01*
X9513667Y-19193190D02*
X9494619Y-19183667D01*
X9485095Y-19174143D01*
X9475571Y-19155095D01*
X9475571Y-19145571D01*
X9485095Y-19126524D01*
X9494619Y-19117000D01*
X9513667Y-19107476D01*
X9551762Y-19107476D01*
X9570810Y-19117000D01*
X9580333Y-19126524D01*
X9589857Y-19145571D01*
X9589857Y-19155095D01*
X9580333Y-19174143D01*
X9570810Y-19183667D01*
X9551762Y-19193190D01*
X9513667Y-19193190D01*
X9494619Y-19202714D01*
X9485095Y-19212238D01*
X9475571Y-19231286D01*
X9475571Y-19269381D01*
X9485095Y-19288429D01*
X9494619Y-19297952D01*
X9513667Y-19307476D01*
X9551762Y-19307476D01*
X9570810Y-19297952D01*
X9580333Y-19288429D01*
X9589857Y-19269381D01*
X9589857Y-19231286D01*
X9580333Y-19212238D01*
X9570810Y-19202714D01*
X9551762Y-19193190D01*
X9827952Y-19307476D02*
X9827952Y-19107476D01*
X9913667Y-19307476D02*
X9913667Y-19202714D01*
X9904143Y-19183667D01*
X9885095Y-19174143D01*
X9856524Y-19174143D01*
X9837476Y-19183667D01*
X9827952Y-19193190D01*
X10037476Y-19307476D02*
X10018429Y-19297952D01*
X10008905Y-19288429D01*
X9999381Y-19269381D01*
X9999381Y-19212238D01*
X10008905Y-19193190D01*
X10018429Y-19183667D01*
X10037476Y-19174143D01*
X10066048Y-19174143D01*
X10085095Y-19183667D01*
X10094619Y-19193190D01*
X10104143Y-19212238D01*
X10104143Y-19269381D01*
X10094619Y-19288429D01*
X10085095Y-19297952D01*
X10066048Y-19307476D01*
X10037476Y-19307476D01*
X10218429Y-19307476D02*
X10199381Y-19297952D01*
X10189857Y-19278905D01*
X10189857Y-19107476D01*
X10370810Y-19297952D02*
X10351762Y-19307476D01*
X10313667Y-19307476D01*
X10294619Y-19297952D01*
X10285095Y-19278905D01*
X10285095Y-19202714D01*
X10294619Y-19183667D01*
X10313667Y-19174143D01*
X10351762Y-19174143D01*
X10370810Y-19183667D01*
X10380333Y-19202714D01*
X10380333Y-19221762D01*
X10285095Y-19240810D01*
X10456524Y-19297952D02*
X10475571Y-19307476D01*
X10513667Y-19307476D01*
X10532714Y-19297952D01*
X10542238Y-19278905D01*
X10542238Y-19269381D01*
X10532714Y-19250333D01*
X10513667Y-19240810D01*
X10485095Y-19240810D01*
X10466048Y-19231286D01*
X10456524Y-19212238D01*
X10456524Y-19202714D01*
X10466048Y-19183667D01*
X10485095Y-19174143D01*
X10513667Y-19174143D01*
X10532714Y-19183667D01*
X10608905Y-19383667D02*
X10618429Y-19374143D01*
X10637476Y-19345571D01*
X10647000Y-19326524D01*
X10656524Y-19297952D01*
X10666048Y-19250333D01*
X10666048Y-19212238D01*
X10656524Y-19164619D01*
X10647000Y-19136048D01*
X10637476Y-19117000D01*
X10618429Y-19088429D01*
X10608905Y-19078905D01*
D10*
X5787000Y-19531000D02*
X5837000Y-19481000D01*
X5787000Y-19431000D01*
X5737000Y-19481000D01*
X5787000Y-19531000D01*
D11*
X6199381Y-19571476D02*
X6085095Y-19571476D01*
X6142238Y-19571476D02*
X6142238Y-19371476D01*
X6123190Y-19400048D01*
X6104143Y-19419095D01*
X6085095Y-19428619D01*
X6285095Y-19552429D02*
X6294619Y-19561952D01*
X6285095Y-19571476D01*
X6275571Y-19561952D01*
X6285095Y-19552429D01*
X6285095Y-19571476D01*
X6418428Y-19371476D02*
X6437476Y-19371476D01*
X6456524Y-19381000D01*
X6466048Y-19390524D01*
X6475571Y-19409571D01*
X6485095Y-19447667D01*
X6485095Y-19495286D01*
X6475571Y-19533381D01*
X6466048Y-19552429D01*
X6456524Y-19561952D01*
X6437476Y-19571476D01*
X6418428Y-19571476D01*
X6399381Y-19561952D01*
X6389857Y-19552429D01*
X6380333Y-19533381D01*
X6370809Y-19495286D01*
X6370809Y-19447667D01*
X6380333Y-19409571D01*
X6389857Y-19390524D01*
X6399381Y-19381000D01*
X6418428Y-19371476D01*
X6608905Y-19371476D02*
X6627952Y-19371476D01*
X6647000Y-19381000D01*
X6656524Y-19390524D01*
X6666048Y-19409571D01*
X6675571Y-19447667D01*
X6675571Y-19495286D01*
X6666048Y-19533381D01*
X6656524Y-19552429D01*
X6647000Y-19561952D01*
X6627952Y-19571476D01*
X6608905Y-19571476D01*
X6589857Y-19561952D01*
X6580333Y-19552429D01*
X6570809Y-19533381D01*
X6561286Y-19495286D01*
X6561286Y-19447667D01*
X6570809Y-19409571D01*
X6580333Y-19390524D01*
X6589857Y-19381000D01*
X6608905Y-19371476D01*
X6799381Y-19371476D02*
X6818428Y-19371476D01*
X6837476Y-19381000D01*
X6847000Y-19390524D01*
X6856524Y-19409571D01*
X6866048Y-19447667D01*
X6866048Y-19495286D01*
X6856524Y-19533381D01*
X6847000Y-19552429D01*
X6837476Y-19561952D01*
X6818428Y-19571476D01*
X6799381Y-19571476D01*
X6780333Y-19561952D01*
X6770809Y-19552429D01*
X6761286Y-19533381D01*
X6751762Y-19495286D01*
X6751762Y-19447667D01*
X6761286Y-19409571D01*
X6770809Y-19390524D01*
X6780333Y-19381000D01*
X6799381Y-19371476D01*
X6951762Y-19571476D02*
X6951762Y-19438143D01*
X6951762Y-19457190D02*
X6961286Y-19447667D01*
X6980333Y-19438143D01*
X7008905Y-19438143D01*
X7027952Y-19447667D01*
X7037476Y-19466714D01*
X7037476Y-19571476D01*
X7037476Y-19466714D02*
X7047000Y-19447667D01*
X7066048Y-19438143D01*
X7094619Y-19438143D01*
X7113667Y-19447667D01*
X7123190Y-19466714D01*
X7123190Y-19571476D01*
X7218428Y-19571476D02*
X7218428Y-19438143D01*
X7218428Y-19457190D02*
X7227952Y-19447667D01*
X7247000Y-19438143D01*
X7275571Y-19438143D01*
X7294619Y-19447667D01*
X7304143Y-19466714D01*
X7304143Y-19571476D01*
X7304143Y-19466714D02*
X7313667Y-19447667D01*
X7332714Y-19438143D01*
X7361286Y-19438143D01*
X7380333Y-19447667D01*
X7389857Y-19466714D01*
X7389857Y-19571476D01*
X7780333Y-19361952D02*
X7608905Y-19619095D01*
X8037476Y-19371476D02*
X8056524Y-19371476D01*
X8075571Y-19381000D01*
X8085095Y-19390524D01*
X8094619Y-19409571D01*
X8104143Y-19447667D01*
X8104143Y-19495286D01*
X8094619Y-19533381D01*
X8085095Y-19552429D01*
X8075571Y-19561952D01*
X8056524Y-19571476D01*
X8037476Y-19571476D01*
X8018428Y-19561952D01*
X8008905Y-19552429D01*
X7999381Y-19533381D01*
X7989857Y-19495286D01*
X7989857Y-19447667D01*
X7999381Y-19409571D01*
X8008905Y-19390524D01*
X8018428Y-19381000D01*
X8037476Y-19371476D01*
X8189857Y-19552429D02*
X8199381Y-19561952D01*
X8189857Y-19571476D01*
X8180333Y-19561952D01*
X8189857Y-19552429D01*
X8189857Y-19571476D01*
X8323190Y-19371476D02*
X8342238Y-19371476D01*
X8361286Y-19381000D01*
X8370809Y-19390524D01*
X8380333Y-19409571D01*
X8389857Y-19447667D01*
X8389857Y-19495286D01*
X8380333Y-19533381D01*
X8370809Y-19552429D01*
X8361286Y-19561952D01*
X8342238Y-19571476D01*
X8323190Y-19571476D01*
X8304143Y-19561952D01*
X8294619Y-19552429D01*
X8285095Y-19533381D01*
X8275571Y-19495286D01*
X8275571Y-19447667D01*
X8285095Y-19409571D01*
X8294619Y-19390524D01*
X8304143Y-19381000D01*
X8323190Y-19371476D01*
X8456524Y-19371476D02*
X8580333Y-19371476D01*
X8513667Y-19447667D01*
X8542238Y-19447667D01*
X8561286Y-19457190D01*
X8570810Y-19466714D01*
X8580333Y-19485762D01*
X8580333Y-19533381D01*
X8570810Y-19552429D01*
X8561286Y-19561952D01*
X8542238Y-19571476D01*
X8485095Y-19571476D01*
X8466048Y-19561952D01*
X8456524Y-19552429D01*
X8675571Y-19571476D02*
X8713667Y-19571476D01*
X8732714Y-19561952D01*
X8742238Y-19552429D01*
X8761286Y-19523857D01*
X8770810Y-19485762D01*
X8770810Y-19409571D01*
X8761286Y-19390524D01*
X8751762Y-19381000D01*
X8732714Y-19371476D01*
X8694619Y-19371476D01*
X8675571Y-19381000D01*
X8666048Y-19390524D01*
X8656524Y-19409571D01*
X8656524Y-19457190D01*
X8666048Y-19476238D01*
X8675571Y-19485762D01*
X8694619Y-19495286D01*
X8732714Y-19495286D01*
X8751762Y-19485762D01*
X8761286Y-19476238D01*
X8770810Y-19457190D01*
X8942238Y-19438143D02*
X8942238Y-19571476D01*
X8894619Y-19361952D02*
X8847000Y-19504810D01*
X8970810Y-19504810D01*
X9037476Y-19371476D02*
X9037476Y-19409571D01*
X9113667Y-19371476D02*
X9113667Y-19409571D01*
X9408905Y-19647667D02*
X9399381Y-19638143D01*
X9380333Y-19609571D01*
X9370810Y-19590524D01*
X9361286Y-19561952D01*
X9351762Y-19514333D01*
X9351762Y-19476238D01*
X9361286Y-19428619D01*
X9370810Y-19400048D01*
X9380333Y-19381000D01*
X9399381Y-19352429D01*
X9408905Y-19342905D01*
X9475571Y-19390524D02*
X9485095Y-19381000D01*
X9504143Y-19371476D01*
X9551762Y-19371476D01*
X9570810Y-19381000D01*
X9580333Y-19390524D01*
X9589857Y-19409571D01*
X9589857Y-19428619D01*
X9580333Y-19457190D01*
X9466048Y-19571476D01*
X9589857Y-19571476D01*
X9780333Y-19571476D02*
X9666048Y-19571476D01*
X9723190Y-19571476D02*
X9723190Y-19371476D01*
X9704143Y-19400048D01*
X9685095Y-19419095D01*
X9666048Y-19428619D01*
X10018429Y-19571476D02*
X10018429Y-19371476D01*
X10104143Y-19571476D02*
X10104143Y-19466714D01*
X10094619Y-19447667D01*
X10075571Y-19438143D01*
X10047000Y-19438143D01*
X10027952Y-19447667D01*
X10018429Y-19457190D01*
X10227952Y-19571476D02*
X10208905Y-19561952D01*
X10199381Y-19552429D01*
X10189857Y-19533381D01*
X10189857Y-19476238D01*
X10199381Y-19457190D01*
X10208905Y-19447667D01*
X10227952Y-19438143D01*
X10256524Y-19438143D01*
X10275571Y-19447667D01*
X10285095Y-19457190D01*
X10294619Y-19476238D01*
X10294619Y-19533381D01*
X10285095Y-19552429D01*
X10275571Y-19561952D01*
X10256524Y-19571476D01*
X10227952Y-19571476D01*
X10408905Y-19571476D02*
X10389857Y-19561952D01*
X10380333Y-19542905D01*
X10380333Y-19371476D01*
X10561286Y-19561952D02*
X10542238Y-19571476D01*
X10504143Y-19571476D01*
X10485095Y-19561952D01*
X10475571Y-19542905D01*
X10475571Y-19466714D01*
X10485095Y-19447667D01*
X10504143Y-19438143D01*
X10542238Y-19438143D01*
X10561286Y-19447667D01*
X10570810Y-19466714D01*
X10570810Y-19485762D01*
X10475571Y-19504810D01*
X10647000Y-19561952D02*
X10666048Y-19571476D01*
X10704143Y-19571476D01*
X10723190Y-19561952D01*
X10732714Y-19542905D01*
X10732714Y-19533381D01*
X10723190Y-19514333D01*
X10704143Y-19504810D01*
X10675571Y-19504810D01*
X10656524Y-19495286D01*
X10647000Y-19476238D01*
X10647000Y-19466714D01*
X10656524Y-19447667D01*
X10675571Y-19438143D01*
X10704143Y-19438143D01*
X10723190Y-19447667D01*
X10970810Y-19495286D02*
X11123190Y-19495286D01*
X11047000Y-19571476D02*
X11047000Y-19419095D01*
X11456524Y-19438143D02*
X11456524Y-19571476D01*
X11408905Y-19361952D02*
X11361286Y-19504810D01*
X11485095Y-19504810D01*
X11704143Y-19561952D02*
X11723190Y-19571476D01*
X11761286Y-19571476D01*
X11780333Y-19561952D01*
X11789857Y-19542905D01*
X11789857Y-19533381D01*
X11780333Y-19514333D01*
X11761286Y-19504810D01*
X11732714Y-19504810D01*
X11713667Y-19495286D01*
X11704143Y-19476238D01*
X11704143Y-19466714D01*
X11713667Y-19447667D01*
X11732714Y-19438143D01*
X11761286Y-19438143D01*
X11780333Y-19447667D01*
X11904143Y-19571476D02*
X11885095Y-19561952D01*
X11875571Y-19542905D01*
X11875571Y-19371476D01*
X12008905Y-19571476D02*
X11989857Y-19561952D01*
X11980333Y-19552429D01*
X11970809Y-19533381D01*
X11970809Y-19476238D01*
X11980333Y-19457190D01*
X11989857Y-19447667D01*
X12008905Y-19438143D01*
X12037476Y-19438143D01*
X12056524Y-19447667D01*
X12066048Y-19457190D01*
X12075571Y-19476238D01*
X12075571Y-19533381D01*
X12066048Y-19552429D01*
X12056524Y-19561952D01*
X12037476Y-19571476D01*
X12008905Y-19571476D01*
X12132714Y-19438143D02*
X12208905Y-19438143D01*
X12161286Y-19371476D02*
X12161286Y-19542905D01*
X12170809Y-19561952D01*
X12189857Y-19571476D01*
X12208905Y-19571476D01*
X12266048Y-19561952D02*
X12285095Y-19571476D01*
X12323190Y-19571476D01*
X12342238Y-19561952D01*
X12351762Y-19542905D01*
X12351762Y-19533381D01*
X12342238Y-19514333D01*
X12323190Y-19504810D01*
X12294619Y-19504810D01*
X12275571Y-19495286D01*
X12266048Y-19476238D01*
X12266048Y-19466714D01*
X12275571Y-19447667D01*
X12294619Y-19438143D01*
X12323190Y-19438143D01*
X12342238Y-19447667D01*
X12418428Y-19647667D02*
X12427952Y-19638143D01*
X12447000Y-19609571D01*
X12456524Y-19590524D01*
X12466048Y-19561952D01*
X12475571Y-19514333D01*
X12475571Y-19476238D01*
X12466048Y-19428619D01*
X12456524Y-19400048D01*
X12447000Y-19381000D01*
X12427952Y-19352429D01*
X12418428Y-19342905D01*
D16*
X5727000Y-19690000D02*
X5837000Y-19800000D01*
X5837000Y-19690000D02*
X5727000Y-19800000D01*
X5837000Y-19745000D02*
G75*
G03*
X5837000Y-19745000I-55000J0D01*
G01*
D11*
X6199381Y-19835476D02*
X6085095Y-19835476D01*
X6142238Y-19835476D02*
X6142238Y-19635476D01*
X6123190Y-19664048D01*
X6104143Y-19683095D01*
X6085095Y-19692619D01*
X6285095Y-19816429D02*
X6294619Y-19825952D01*
X6285095Y-19835476D01*
X6275571Y-19825952D01*
X6285095Y-19816429D01*
X6285095Y-19835476D01*
X6485095Y-19835476D02*
X6370809Y-19835476D01*
X6427952Y-19835476D02*
X6427952Y-19635476D01*
X6408905Y-19664048D01*
X6389857Y-19683095D01*
X6370809Y-19692619D01*
X6608905Y-19635476D02*
X6627952Y-19635476D01*
X6647000Y-19645000D01*
X6656524Y-19654524D01*
X6666048Y-19673571D01*
X6675571Y-19711667D01*
X6675571Y-19759286D01*
X6666048Y-19797381D01*
X6656524Y-19816429D01*
X6647000Y-19825952D01*
X6627952Y-19835476D01*
X6608905Y-19835476D01*
X6589857Y-19825952D01*
X6580333Y-19816429D01*
X6570809Y-19797381D01*
X6561286Y-19759286D01*
X6561286Y-19711667D01*
X6570809Y-19673571D01*
X6580333Y-19654524D01*
X6589857Y-19645000D01*
X6608905Y-19635476D01*
X6799381Y-19635476D02*
X6818428Y-19635476D01*
X6837476Y-19645000D01*
X6847000Y-19654524D01*
X6856524Y-19673571D01*
X6866048Y-19711667D01*
X6866048Y-19759286D01*
X6856524Y-19797381D01*
X6847000Y-19816429D01*
X6837476Y-19825952D01*
X6818428Y-19835476D01*
X6799381Y-19835476D01*
X6780333Y-19825952D01*
X6770809Y-19816429D01*
X6761286Y-19797381D01*
X6751762Y-19759286D01*
X6751762Y-19711667D01*
X6761286Y-19673571D01*
X6770809Y-19654524D01*
X6780333Y-19645000D01*
X6799381Y-19635476D01*
X6951762Y-19835476D02*
X6951762Y-19702143D01*
X6951762Y-19721190D02*
X6961286Y-19711667D01*
X6980333Y-19702143D01*
X7008905Y-19702143D01*
X7027952Y-19711667D01*
X7037476Y-19730714D01*
X7037476Y-19835476D01*
X7037476Y-19730714D02*
X7047000Y-19711667D01*
X7066048Y-19702143D01*
X7094619Y-19702143D01*
X7113667Y-19711667D01*
X7123190Y-19730714D01*
X7123190Y-19835476D01*
X7218428Y-19835476D02*
X7218428Y-19702143D01*
X7218428Y-19721190D02*
X7227952Y-19711667D01*
X7247000Y-19702143D01*
X7275571Y-19702143D01*
X7294619Y-19711667D01*
X7304143Y-19730714D01*
X7304143Y-19835476D01*
X7304143Y-19730714D02*
X7313667Y-19711667D01*
X7332714Y-19702143D01*
X7361286Y-19702143D01*
X7380333Y-19711667D01*
X7389857Y-19730714D01*
X7389857Y-19835476D01*
X7780333Y-19625952D02*
X7608905Y-19883095D01*
X8037476Y-19635476D02*
X8056524Y-19635476D01*
X8075571Y-19645000D01*
X8085095Y-19654524D01*
X8094619Y-19673571D01*
X8104143Y-19711667D01*
X8104143Y-19759286D01*
X8094619Y-19797381D01*
X8085095Y-19816429D01*
X8075571Y-19825952D01*
X8056524Y-19835476D01*
X8037476Y-19835476D01*
X8018428Y-19825952D01*
X8008905Y-19816429D01*
X7999381Y-19797381D01*
X7989857Y-19759286D01*
X7989857Y-19711667D01*
X7999381Y-19673571D01*
X8008905Y-19654524D01*
X8018428Y-19645000D01*
X8037476Y-19635476D01*
X8189857Y-19816429D02*
X8199381Y-19825952D01*
X8189857Y-19835476D01*
X8180333Y-19825952D01*
X8189857Y-19816429D01*
X8189857Y-19835476D01*
X8323190Y-19635476D02*
X8342238Y-19635476D01*
X8361286Y-19645000D01*
X8370809Y-19654524D01*
X8380333Y-19673571D01*
X8389857Y-19711667D01*
X8389857Y-19759286D01*
X8380333Y-19797381D01*
X8370809Y-19816429D01*
X8361286Y-19825952D01*
X8342238Y-19835476D01*
X8323190Y-19835476D01*
X8304143Y-19825952D01*
X8294619Y-19816429D01*
X8285095Y-19797381D01*
X8275571Y-19759286D01*
X8275571Y-19711667D01*
X8285095Y-19673571D01*
X8294619Y-19654524D01*
X8304143Y-19645000D01*
X8323190Y-19635476D01*
X8561286Y-19702143D02*
X8561286Y-19835476D01*
X8513667Y-19625952D02*
X8466048Y-19768810D01*
X8589857Y-19768810D01*
X8647000Y-19635476D02*
X8770810Y-19635476D01*
X8704143Y-19711667D01*
X8732714Y-19711667D01*
X8751762Y-19721190D01*
X8761286Y-19730714D01*
X8770810Y-19749762D01*
X8770810Y-19797381D01*
X8761286Y-19816429D01*
X8751762Y-19825952D01*
X8732714Y-19835476D01*
X8675571Y-19835476D01*
X8656524Y-19825952D01*
X8647000Y-19816429D01*
X8837476Y-19635476D02*
X8961286Y-19635476D01*
X8894619Y-19711667D01*
X8923190Y-19711667D01*
X8942238Y-19721190D01*
X8951762Y-19730714D01*
X8961286Y-19749762D01*
X8961286Y-19797381D01*
X8951762Y-19816429D01*
X8942238Y-19825952D01*
X8923190Y-19835476D01*
X8866048Y-19835476D01*
X8847000Y-19825952D01*
X8837476Y-19816429D01*
X9037476Y-19635476D02*
X9037476Y-19673571D01*
X9113667Y-19635476D02*
X9113667Y-19673571D01*
X9408905Y-19911667D02*
X9399381Y-19902143D01*
X9380333Y-19873571D01*
X9370810Y-19854524D01*
X9361286Y-19825952D01*
X9351762Y-19778333D01*
X9351762Y-19740238D01*
X9361286Y-19692619D01*
X9370810Y-19664048D01*
X9380333Y-19645000D01*
X9399381Y-19616429D01*
X9408905Y-19606905D01*
X9466048Y-19635476D02*
X9589857Y-19635476D01*
X9523190Y-19711667D01*
X9551762Y-19711667D01*
X9570810Y-19721190D01*
X9580333Y-19730714D01*
X9589857Y-19749762D01*
X9589857Y-19797381D01*
X9580333Y-19816429D01*
X9570810Y-19825952D01*
X9551762Y-19835476D01*
X9494619Y-19835476D01*
X9475571Y-19825952D01*
X9466048Y-19816429D01*
X9827952Y-19835476D02*
X9827952Y-19635476D01*
X9913667Y-19835476D02*
X9913667Y-19730714D01*
X9904143Y-19711667D01*
X9885095Y-19702143D01*
X9856524Y-19702143D01*
X9837476Y-19711667D01*
X9827952Y-19721190D01*
X10037476Y-19835476D02*
X10018429Y-19825952D01*
X10008905Y-19816429D01*
X9999381Y-19797381D01*
X9999381Y-19740238D01*
X10008905Y-19721190D01*
X10018429Y-19711667D01*
X10037476Y-19702143D01*
X10066048Y-19702143D01*
X10085095Y-19711667D01*
X10094619Y-19721190D01*
X10104143Y-19740238D01*
X10104143Y-19797381D01*
X10094619Y-19816429D01*
X10085095Y-19825952D01*
X10066048Y-19835476D01*
X10037476Y-19835476D01*
X10218429Y-19835476D02*
X10199381Y-19825952D01*
X10189857Y-19806905D01*
X10189857Y-19635476D01*
X10370810Y-19825952D02*
X10351762Y-19835476D01*
X10313667Y-19835476D01*
X10294619Y-19825952D01*
X10285095Y-19806905D01*
X10285095Y-19730714D01*
X10294619Y-19711667D01*
X10313667Y-19702143D01*
X10351762Y-19702143D01*
X10370810Y-19711667D01*
X10380333Y-19730714D01*
X10380333Y-19749762D01*
X10285095Y-19768810D01*
X10456524Y-19825952D02*
X10475571Y-19835476D01*
X10513667Y-19835476D01*
X10532714Y-19825952D01*
X10542238Y-19806905D01*
X10542238Y-19797381D01*
X10532714Y-19778333D01*
X10513667Y-19768810D01*
X10485095Y-19768810D01*
X10466048Y-19759286D01*
X10456524Y-19740238D01*
X10456524Y-19730714D01*
X10466048Y-19711667D01*
X10485095Y-19702143D01*
X10513667Y-19702143D01*
X10532714Y-19711667D01*
X10608905Y-19911667D02*
X10618429Y-19902143D01*
X10637476Y-19873571D01*
X10647000Y-19854524D01*
X10656524Y-19825952D01*
X10666048Y-19778333D01*
X10666048Y-19740238D01*
X10656524Y-19692619D01*
X10647000Y-19664048D01*
X10637476Y-19645000D01*
X10618429Y-19616429D01*
X10608905Y-19606905D01*
M02*
