M48
; DRILL file {KiCad (6.0.7)} date Wed Nov 30 23:51:08 2022
; FORMAT={-:-/ absolute / inch / decimal}
; #@! TF.CreationDate,2022-11-30T23:51:08-03:00
; #@! TF.GenerationSoftware,Kicad,Pcbnew,(6.0.7)
; #@! TF.FileFunction,Plated,1,2,PTH
FMAT,2
INCH
; #@! TA.AperFunction,Plated,PTH,ViaDrill
T1C0.0157
; #@! TA.AperFunction,Plated,PTH,ComponentDrill
T2C0.0299
; #@! TA.AperFunction,Plated,PTH,ComponentDrill
T3C0.0315
; #@! TA.AperFunction,Plated,PTH,ComponentDrill
T4C0.0354
; #@! TA.AperFunction,Plated,PTH,ComponentDrill
T5C0.0394
; #@! TA.AperFunction,Plated,PTH,ComponentDrill
T6C0.0433
%
G90
G05
T1
X4.2Y-4.2969
X4.2Y-4.5969
X4.5Y-4.5969
X4.5Y-6.0969
X4.6Y-6.0969
X4.7Y-4.5969
X4.7Y-5.7969
X4.7Y-6.0969
X4.8Y-3.8969
X4.9Y-4.5969
X5.2Y-3.8969
X5.4Y-3.8969
X5.5Y-1.9969
X5.8Y-2.5969
X6.4Y-4.2969
T2
X4.0512Y-2.9023
X4.0512Y-3.2015
X4.0512Y-4.1023
X4.0512Y-4.4015
X4.0512Y-5.3023
X4.0512Y-5.6015
T3
X2.9488Y-2.9023
X2.9488Y-3.5007
X2.9488Y-4.1023
X2.9488Y-4.7007
X2.9488Y-5.3023
X2.9488Y-5.9007
X5.0Y-2.4969
X5.0Y-2.8969
X5.0Y-3.1969
X5.0Y-3.5969
X6.2Y-1.3969
X6.2Y-1.7969
X6.5Y-1.4969
X6.5Y-1.6898
X7.1Y-2.9969
X7.1Y-3.3969
T4
X4.45Y-6.3969
X4.5Y-6.3969
X4.55Y-6.3969
X4.6Y-6.3969
X4.9Y-6.3969
X5.0Y-6.3969
X5.2Y-6.3969
X5.3Y-6.3969
T5
X4.6Y-3.4969
X4.6Y-3.5969
X4.6Y-3.6969
X5.8031Y-5.3969
X5.9Y-1.4
X5.9Y-1.7937
X6.1969Y-5.3969
X6.4Y-3.0
X6.4Y-3.3937
X6.8Y-3.0
X6.8Y-3.3937
X6.9Y-1.4
X6.9Y-1.7937
X7.1Y-2.0969
X7.1Y-2.1969
X7.9Y-3.0031
X7.9Y-3.3969
X8.3Y-1.6
X8.3Y-1.9937
X8.8Y-1.6
X8.8Y-1.9937
T6
X7.1Y-2.5969
X7.1Y-2.6969
X7.1Y-2.7969
T5
G00X2.4705Y-2.0197
M15
G01X2.4114Y-2.0197
M16
G05
G00X2.4705Y-2.374
M15
G01X2.4114Y-2.374
M16
G05
G00X2.4803Y-2.1713
M15
G01X2.4803Y-2.2224
M16
G05
G00X2.7165Y-2.1575
M15
G01X2.7165Y-2.2362
M16
G05
T0
M30
