%TF.GenerationSoftware,KiCad,Pcbnew,(6.0.7)*%
%TF.CreationDate,2022-11-30T23:51:13-03:00*%
%TF.ProjectId,ea075_project,65613037-355f-4707-926f-6a6563742e6b,rev?*%
%TF.SameCoordinates,Original*%
%TF.FileFunction,Paste,Top*%
%TF.FilePolarity,Positive*%
%FSLAX46Y46*%
G04 Gerber Fmt 4.6, Leading zero omitted, Abs format (unit mm)*
G04 Created by KiCad (PCBNEW (6.0.7)) date 2022-11-30 23:51:13*
%MOMM*%
%LPD*%
G01*
G04 APERTURE LIST*
%ADD10R,1.100000X0.300000*%
%ADD11R,0.300000X1.100000*%
%ADD12R,0.200000X1.500000*%
%ADD13R,1.500000X0.200000*%
%ADD14R,1.600000X0.410000*%
G04 APERTURE END LIST*
D10*
%TO.C,U1*%
X195680000Y-44340000D03*
X195680000Y-44990000D03*
X195680000Y-45640000D03*
X195680000Y-46290000D03*
X195680000Y-46940000D03*
D11*
X194680000Y-47840000D03*
X194030000Y-47840000D03*
X193380000Y-47840000D03*
X192730000Y-47840000D03*
X192080000Y-47840000D03*
D10*
X191080000Y-46940000D03*
X191080000Y-46290000D03*
X191080000Y-45640000D03*
X191080000Y-44990000D03*
X191080000Y-44340000D03*
D11*
X192080000Y-43440000D03*
X192730000Y-43440000D03*
X193380000Y-43440000D03*
X194030000Y-43440000D03*
X194680000Y-43440000D03*
%TD*%
D12*
%TO.C,U2*%
X145060000Y-104980000D03*
X145460000Y-104980000D03*
X145860000Y-104980000D03*
X146260000Y-104980000D03*
X146660000Y-104980000D03*
X147060000Y-104980000D03*
X147460000Y-104980000D03*
X147860000Y-104980000D03*
X148260000Y-104980000D03*
X148660000Y-104980000D03*
X149060000Y-104980000D03*
X149460000Y-104980000D03*
X149860000Y-104980000D03*
X150260000Y-104980000D03*
X150660000Y-104980000D03*
X151060000Y-104980000D03*
X151460000Y-104980000D03*
X151860000Y-104980000D03*
X152260000Y-104980000D03*
X152660000Y-104980000D03*
X153060000Y-104980000D03*
X153460000Y-104980000D03*
X153860000Y-104980000D03*
X154260000Y-104980000D03*
X154660000Y-104980000D03*
D13*
X156560000Y-106880000D03*
X156560000Y-107280000D03*
X156560000Y-107680000D03*
X156560000Y-108080000D03*
X156560000Y-108480000D03*
X156560000Y-108880000D03*
X156560000Y-109280000D03*
X156560000Y-109680000D03*
X156560000Y-110080000D03*
X156560000Y-110480000D03*
X156560000Y-110880000D03*
X156560000Y-111280000D03*
X156560000Y-111680000D03*
X156560000Y-112080000D03*
X156560000Y-112480000D03*
X156560000Y-112880000D03*
X156560000Y-113280000D03*
X156560000Y-113680000D03*
X156560000Y-114080000D03*
X156560000Y-114480000D03*
X156560000Y-114880000D03*
X156560000Y-115280000D03*
X156560000Y-115680000D03*
X156560000Y-116080000D03*
X156560000Y-116480000D03*
D12*
X154660000Y-118380000D03*
X154260000Y-118380000D03*
X153860000Y-118380000D03*
X153460000Y-118380000D03*
X153060000Y-118380000D03*
X152660000Y-118380000D03*
X152260000Y-118380000D03*
X151860000Y-118380000D03*
X151460000Y-118380000D03*
X151060000Y-118380000D03*
X150660000Y-118380000D03*
X150260000Y-118380000D03*
X149860000Y-118380000D03*
X149460000Y-118380000D03*
X149060000Y-118380000D03*
X148660000Y-118380000D03*
X148260000Y-118380000D03*
X147860000Y-118380000D03*
X147460000Y-118380000D03*
X147060000Y-118380000D03*
X146660000Y-118380000D03*
X146260000Y-118380000D03*
X145860000Y-118380000D03*
X145460000Y-118380000D03*
X145060000Y-118380000D03*
D13*
X143160000Y-116480000D03*
X143160000Y-116080000D03*
X143160000Y-115680000D03*
X143160000Y-115280000D03*
X143160000Y-114880000D03*
X143160000Y-114480000D03*
X143160000Y-114080000D03*
X143160000Y-113680000D03*
X143160000Y-113280000D03*
X143160000Y-112880000D03*
X143160000Y-112480000D03*
X143160000Y-112080000D03*
X143160000Y-111680000D03*
X143160000Y-111280000D03*
X143160000Y-110880000D03*
X143160000Y-110480000D03*
X143160000Y-110080000D03*
X143160000Y-109680000D03*
X143160000Y-109280000D03*
X143160000Y-108880000D03*
X143160000Y-108480000D03*
X143160000Y-108080000D03*
X143160000Y-107680000D03*
X143160000Y-107280000D03*
X143160000Y-106880000D03*
%TD*%
D14*
%TO.C,U3*%
X134505700Y-136127500D03*
X134505700Y-136762500D03*
X134505700Y-137397500D03*
X134505700Y-138032500D03*
X134505700Y-138667500D03*
X134505700Y-139302500D03*
X134505700Y-139937500D03*
X134505700Y-140572500D03*
X134505700Y-141207500D03*
X134505700Y-141842500D03*
X134505700Y-142477500D03*
X134505700Y-143112500D03*
X139814300Y-143112500D03*
X139814300Y-142477500D03*
X139814300Y-141842500D03*
X139814300Y-141207500D03*
X139814300Y-140572500D03*
X139814300Y-139937500D03*
X139814300Y-139302500D03*
X139814300Y-138667500D03*
X139814300Y-138032500D03*
X139814300Y-137397500D03*
X139814300Y-136762500D03*
X139814300Y-136127500D03*
%TD*%
M02*
