<?xml version="1.0" standalone="no"?>
 <!DOCTYPE svg PUBLIC "-//W3C//DTD SVG 1.1//EN" 
 "http://www.w3.org/Graphics/SVG/1.1/DTD/svg11.dtd"> 
<svg
  xmlns:svg="http://www.w3.org/2000/svg"
  xmlns="http://www.w3.org/2000/svg"
  xmlns:xlink="http://www.w3.org/1999/xlink"
  version="1.1"
  width="297.0022mm" height="210.0072mm" viewBox="0.0000 0.0000 297.0022 210.0072">
<title>SVG Image created as Projeto final de EA075-GND.svg date 2023/06/25 00:54:47 </title>
  <desc>Image generated by PCBNEW </desc>
<g style="fill:#000000; fill-opacity:1.0000;stroke:#000000; stroke-opacity:1.0000;
stroke-linecap:round; stroke-linejoin:round;"
 transform="translate(0 0) scale(1 1)">
</g>
<g style="fill:#000000; fill-opacity:0.0; 
stroke:#000000; stroke-width:0.0000; stroke-opacity:1; 
stroke-linecap:round; stroke-linejoin:round;">
</g>
<g style="fill:#000000; fill-opacity:1.0000; 
stroke:#000000; stroke-width:0.0212; stroke-opacity:1; 
stroke-linecap:round; stroke-linejoin:round;">
<rect x="127.030000" y="60.990000" width="53.280000" height="51.709048" rx="0.000000" />
</g>
<g style="fill:#FFFFFF; fill-opacity:1.0000; 
stroke:#FFFFFF; stroke-width:0.0212; stroke-opacity:1; 
stroke-linecap:round; stroke-linejoin:round;">
<g >
</g>
<g >
</g>
<g >
</g>
<g >
</g>
<g >
</g>
<g style="fill:#FFFFFF; fill-opacity:1.0000; 
stroke:#FFFFFF; stroke-width:0.0212; stroke-opacity:1; 
stroke-linecap:round; stroke-linejoin:round;">
</g>
<g style="fill:#FFFFFF; fill-opacity:1.0000; 
stroke:#FFFFFF; stroke-width:0.0000; stroke-opacity:1; 
stroke-linecap:round; stroke-linejoin:round;">
<path style="fill:#FFFFFF; fill-opacity:1.0000; 
stroke:#FFFFFF; stroke-width:0.0000; stroke-opacity:1; 
stroke-linecap:round; stroke-linejoin:round;fill-rule:evenodd;"
d="M 151.9000,98.5600
152.9000,98.5600
152.9000,99.5600
151.9000,99.5600
Z" /> 
</g>
<g >
</g>
<g style="fill:#FFFFFF; fill-opacity:1.0000; 
stroke:#FFFFFF; stroke-width:0.0000; stroke-opacity:1; 
stroke-linecap:round; stroke-linejoin:round;">
<path style="fill:#FFFFFF; fill-opacity:1.0000; 
stroke:#FFFFFF; stroke-width:0.0000; stroke-opacity:1; 
stroke-linecap:round; stroke-linejoin:round;fill-rule:evenodd;"
d="M 154.4400,98.5600
155.4400,98.5600
155.4400,99.5600
154.4400,99.5600
Z" /> 
</g>
<g >
</g>
<g style="fill:#FFFFFF; fill-opacity:1.0000; 
stroke:#FFFFFF; stroke-width:0.0000; stroke-opacity:1; 
stroke-linecap:round; stroke-linejoin:round;">
<path style="fill:#FFFFFF; fill-opacity:1.0000; 
stroke:#FFFFFF; stroke-width:0.0000; stroke-opacity:1; 
stroke-linecap:round; stroke-linejoin:round;fill-rule:evenodd;"
d="M 164.4500,92.3000
164.4500,91.3000
165.4500,91.3000
165.4500,92.3000
Z" /> 
</g>
<g >
</g>
<g style="fill:#FFFFFF; fill-opacity:1.0000; 
stroke:#FFFFFF; stroke-width:0.0000; stroke-opacity:1; 
stroke-linecap:round; stroke-linejoin:round;">
<path style="fill:#FFFFFF; fill-opacity:1.0000; 
stroke:#FFFFFF; stroke-width:0.0000; stroke-opacity:1; 
stroke-linecap:round; stroke-linejoin:round;fill-rule:evenodd;"
d="M 164.4500,88.9500
164.4500,87.9500
165.4500,87.9500
165.4500,88.9500
Z" /> 
</g>
<g >
</g>
<g style="fill:#FFFFFF; fill-opacity:1.0000; 
stroke:#FFFFFF; stroke-width:0.0000; stroke-opacity:1; 
stroke-linecap:round; stroke-linejoin:round;">
<path style="fill:#FFFFFF; fill-opacity:1.0000; 
stroke:#FFFFFF; stroke-width:0.0000; stroke-opacity:1; 
stroke-linecap:round; stroke-linejoin:round;fill-rule:evenodd;"
d="M 136.4000,92.4400
136.4000,90.4400
138.4000,90.4400
138.4000,92.4400
Z" /> 
<circle cx="152.4000" cy="91.4400" r="1.0000" /> 
</g>
<g >
</g>
<g style="fill:#FFFFFF; fill-opacity:1.0000; 
stroke:#FFFFFF; stroke-width:0.0000; stroke-opacity:1; 
stroke-linecap:round; stroke-linejoin:round;">
<path style="fill:#FFFFFF; fill-opacity:1.0000; 
stroke:#FFFFFF; stroke-width:0.0000; stroke-opacity:1; 
stroke-linecap:round; stroke-linejoin:round;fill-rule:evenodd;"
d="M 136.4000,85.9050
136.4000,83.9050
138.4000,83.9050
138.4000,85.9050
Z" /> 
<circle cx="152.4000" cy="84.9050" r="1.0000" /> 
</g>
<g >
</g>
<g style="fill:#FFFFFF; fill-opacity:1.0000; 
stroke:#FFFFFF; stroke-width:0.0000; stroke-opacity:1; 
stroke-linecap:round; stroke-linejoin:round;">
<path style="fill:#FFFFFF; fill-opacity:1.0000; 
stroke:#FFFFFF; stroke-width:0.0000; stroke-opacity:1; 
stroke-linecap:round; stroke-linejoin:round;fill-rule:evenodd;"
d="M 136.4000,79.3700
136.4000,77.3700
138.4000,77.3700
138.4000,79.3700
Z" /> 
<circle cx="152.4000" cy="78.3700" r="1.0000" /> 
</g>
<g >
</g>
<g style="fill:#FFFFFF; fill-opacity:1.0000; 
stroke:#FFFFFF; stroke-width:0.0000; stroke-opacity:1; 
stroke-linecap:round; stroke-linejoin:round;">
<path style="fill:#FFFFFF; fill-opacity:1.0000; 
stroke:#FFFFFF; stroke-width:0.0000; stroke-opacity:1; 
stroke-linecap:round; stroke-linejoin:round;fill-rule:evenodd;"
d="M 136.4000,72.8350
136.4000,70.8350
138.4000,70.8350
138.4000,72.8350
Z" /> 
<circle cx="152.4000" cy="71.8350" r="1.0000" /> 
</g>
<g >
</g>
<g style="fill:#FFFFFF; fill-opacity:1.0000; 
stroke:#FFFFFF; stroke-width:0.0000; stroke-opacity:1; 
stroke-linecap:round; stroke-linejoin:round;">
<circle cx="154.9721" cy="86.1157" r="0.4000" /> 
</g>
<g style="fill:#FFFFFF; fill-opacity:1.0000; 
stroke:#FFFFFF; stroke-width:0.0212; stroke-opacity:1; 
stroke-linecap:round; stroke-linejoin:round;">
</g>
<g style="fill:#FFFFFF; fill-opacity:1.0000; 
stroke:#FFFFFF; stroke-width:0.0000; stroke-opacity:1; 
stroke-linecap:round; stroke-linejoin:round;">
<circle cx="152.4000" cy="94.9000" r="0.4000" /> 
</g>
<g style="fill:#FFFFFF; fill-opacity:1.0000; 
stroke:#FFFFFF; stroke-width:0.0212; stroke-opacity:1; 
stroke-linecap:round; stroke-linejoin:round;">
</g>
<g style="fill:#FFFFFF; fill-opacity:1.0000; 
stroke:#FFFFFF; stroke-width:0.0000; stroke-opacity:1; 
stroke-linecap:round; stroke-linejoin:round;">
<circle cx="155.6789" cy="86.8225" r="0.4000" /> 
</g>
<g style="fill:#FFFFFF; fill-opacity:1.0000; 
stroke:#FFFFFF; stroke-width:0.0212; stroke-opacity:1; 
stroke-linecap:round; stroke-linejoin:round;">
</g>
<g style="fill:#FFFFFF; fill-opacity:1.0000; 
stroke:#FFFFFF; stroke-width:0.0000; stroke-opacity:1; 
stroke-linecap:round; stroke-linejoin:round;">
<circle cx="154.1004" cy="81.2800" r="0.4000" /> 
</g>
<g style="fill:#FFFFFF; fill-opacity:1.0000; 
stroke:#FFFFFF; stroke-width:0.0212; stroke-opacity:1; 
stroke-linecap:round; stroke-linejoin:round;">
</g>
<g style="fill:#FFFFFF; fill-opacity:1.0000; 
stroke:#FFFFFF; stroke-width:0.0000; stroke-opacity:1; 
stroke-linecap:round; stroke-linejoin:round;">
<circle cx="164.8850" cy="96.1300" r="0.4000" /> 
</g>
<g style="fill:#FFFFFF; fill-opacity:1.0000; 
stroke:#FFFFFF; stroke-width:0.0212; stroke-opacity:1; 
stroke-linecap:round; stroke-linejoin:round;">
</g>
<g style="fill:#FFFFFF; fill-opacity:1.0000; 
stroke:#FFFFFF; stroke-width:0.0000; stroke-opacity:1; 
stroke-linecap:round; stroke-linejoin:round;">
<circle cx="165.1927" cy="86.5995" r="0.4000" /> 
</g>
<g style="fill:#FFFFFF; fill-opacity:1.0000; 
stroke:#FFFFFF; stroke-width:0.0212; stroke-opacity:1; 
stroke-linecap:round; stroke-linejoin:round;">
</g>
<g style="fill:#FFFFFF; fill-opacity:1.0000; 
stroke:#FFFFFF; stroke-width:0.0000; stroke-opacity:1; 
stroke-linecap:round; stroke-linejoin:round;">
<circle cx="162.5600" cy="96.5200" r="0.4000" /> 
</g>
<g style="fill:#FFFFFF; fill-opacity:1.0000; 
stroke:#FFFFFF; stroke-width:0.0212; stroke-opacity:1; 
stroke-linecap:round; stroke-linejoin:round;">
</g>
<g style="fill:#FFFFFF; fill-opacity:1.0000; 
stroke:#FFFFFF; stroke-width:0.0000; stroke-opacity:1; 
stroke-linecap:round; stroke-linejoin:round;">
<circle cx="157.4800" cy="87.2995" r="0.4000" /> 
</g>
<g style="fill:#FFFFFF; fill-opacity:1.0000; 
stroke:#FFFFFF; stroke-width:0.0212; stroke-opacity:1; 
stroke-linecap:round; stroke-linejoin:round;">
</g>
<g style="fill:#FFFFFF; fill-opacity:1.0000; 
stroke:#FFFFFF; stroke-width:0.0000; stroke-opacity:1; 
stroke-linecap:round; stroke-linejoin:round;">
<circle cx="160.0200" cy="85.6005" r="0.4000" /> 
</g>
<g style="fill:#FFFFFF; fill-opacity:1.0000; 
stroke:#FFFFFF; stroke-width:0.0212; stroke-opacity:1; 
stroke-linecap:round; stroke-linejoin:round;">
</g>
<g style="fill:#FFFFFF; fill-opacity:1.0000; 
stroke:#FFFFFF; stroke-width:0.0000; stroke-opacity:1; 
stroke-linecap:round; stroke-linejoin:round;">
<circle cx="165.0962" cy="67.8005" r="0.4000" /> 
</g>
<g style="fill:#FFFFFF; fill-opacity:1.0000; 
stroke:#FFFFFF; stroke-width:0.0212; stroke-opacity:1; 
stroke-linecap:round; stroke-linejoin:round;">
</g>
<g style="fill:#FFFFFF; fill-opacity:1.0000; 
stroke:#FFFFFF; stroke-width:0.0000; stroke-opacity:1; 
stroke-linecap:round; stroke-linejoin:round;">
<circle cx="154.9400" cy="71.1200" r="0.4000" /> 
</g>
<g style="fill:#FFFFFF; fill-opacity:1.0000; 
stroke:#FFFFFF; stroke-width:0.0212; stroke-opacity:1; 
stroke-linecap:round; stroke-linejoin:round;">
</g>
<g style="fill:#FFFFFF; fill-opacity:1.0000; 
stroke:#FFFFFF; stroke-width:0.0000; stroke-opacity:1; 
stroke-linecap:round; stroke-linejoin:round;">
<circle cx="134.6200" cy="99.0600" r="0.4000" /> 
</g>
<g style="fill:#FFFFFF; fill-opacity:1.0000; 
stroke:#FFFFFF; stroke-width:0.0212; stroke-opacity:1; 
stroke-linecap:round; stroke-linejoin:round;">
</g>
<g style="fill:#FFFFFF; fill-opacity:1.0000; 
stroke:#FFFFFF; stroke-width:0.0000; stroke-opacity:1; 
stroke-linecap:round; stroke-linejoin:round;">
<circle cx="162.5600" cy="88.5155" r="0.4000" /> 
</g>
<g style="fill:#FFFFFF; fill-opacity:1.0000; 
stroke:#FFFFFF; stroke-width:0.0212; stroke-opacity:1; 
stroke-linecap:round; stroke-linejoin:round;">
</g>
<g style="fill:#FFFFFF; fill-opacity:1.0000; 
stroke:#FFFFFF; stroke-width:0.0000; stroke-opacity:1; 
stroke-linecap:round; stroke-linejoin:round;">
<circle cx="162.5600" cy="91.4845" r="0.4000" /> 
</g>
<g style="fill:#FFFFFF; fill-opacity:1.0000; 
stroke:#FFFFFF; stroke-width:0.0212; stroke-opacity:1; 
stroke-linecap:round; stroke-linejoin:round;">
</g>
<g style="fill:#FFFFFF; fill-opacity:1.0000; 
stroke:#FFFFFF; stroke-width:0.0000; stroke-opacity:1; 
stroke-linecap:round; stroke-linejoin:round;">
<circle cx="134.6200" cy="93.9800" r="0.4000" /> 
</g>
<g style="fill:#FFFFFF; fill-opacity:1.0000; 
stroke:#FFFFFF; stroke-width:0.0212; stroke-opacity:1; 
stroke-linecap:round; stroke-linejoin:round;">
</g>
<g style="fill:#FFFFFF; fill-opacity:1.0000; 
stroke:#FFFFFF; stroke-width:0.0000; stroke-opacity:1; 
stroke-linecap:round; stroke-linejoin:round;">
<circle cx="142.2400" cy="93.9800" r="0.4000" /> 
</g>
<g style="fill:#FFFFFF; fill-opacity:1.0000; 
stroke:#FFFFFF; stroke-width:0.0212; stroke-opacity:1; 
stroke-linecap:round; stroke-linejoin:round;">
</g>
<g >
</g>
<g >
</g>
<g style="fill:#FFFFFF; fill-opacity:1.0000; 
stroke:#FFFFFF; stroke-width:0.0212; stroke-opacity:1; 
stroke-linecap:round; stroke-linejoin:round;">
<g >
</g>
<g style="fill:#FFFFFF; fill-opacity:1.0000; 
stroke:#FFFFFF; stroke-width:0.0000; stroke-opacity:1; 
stroke-linecap:round; stroke-linejoin:round;">
<path style="fill:#FFFFFF; fill-opacity:1.0000; 
stroke:#FFFFFF; stroke-width:0.0000; stroke-opacity:1; 
stroke-linecap:round; stroke-linejoin:round;fill-rule:evenodd;"
d="M 175.2025,66.0602
175.2483,66.1130
175.2595,66.1645
175.2595,106.5555
175.2398,106.6225
175.1870,106.6683
175.1355,106.6795
132.2045,106.6795
132.1375,106.6598
132.0917,106.6070
132.0805,106.5555
132.0805,99.0600
133.7145,99.0600
133.7343,99.2483
133.7928,99.4283
133.8875,99.5922
134.0141,99.7329
134.1673,99.8442
134.3402,99.9211
134.5254,99.9605
134.5254,99.9605
134.7146,99.9605
134.8381,99.9343
134.8998,99.9211
135.0727,99.8442
135.2259,99.7329
135.3414,99.6046
151.3995,99.6046
151.3995,99.6079
151.4059,99.6675
151.4562,99.8023
151.5425,99.9175
151.6577,100.0038
151.7925,100.0541
151.8521,100.0605
152.9479,100.0605
153.0075,100.0541
153.1423,100.0038
153.2575,99.9175
153.3438,99.8023
153.3941,99.6675
153.4005,99.6079
153.4005,99.3100
153.9400,99.3100
153.9400,99.6045
153.9404,99.6111
153.9464,99.6674
153.9966,99.8021
154.0828,99.9172
154.1979,100.0034
154.3326,100.0536
154.3889,100.0596
154.3955,100.0600
154.6900,100.0600
154.6900,99.3100
153.9400,99.3100
153.4005,99.3100
153.4005,99.1173
154.6150,99.1173
154.6542,99.2250
154.7279,99.3128
154.8271,99.3701
154.9116,99.3850
154.9684,99.3850
155.0529,99.3701
155.1521,99.3128
155.1545,99.3100
155.1900,99.3100
155.1900,100.0600
155.4845,100.0600
155.4911,100.0596
155.5474,100.0536
155.6821,100.0034
155.7972,99.9172
155.8834,99.8021
155.9336,99.6674
155.9396,99.6111
155.9400,99.6045
155.9400,99.3100
155.1900,99.3100
155.1545,99.3100
155.2258,99.2250
155.2650,99.1173
155.2650,99.0027
155.2258,98.8950
155.1521,98.8072
155.0529,98.7499
154.9684,98.7350
154.9116,98.7350
154.8271,98.7499
154.7279,98.8072
154.6542,98.8950
154.6150,99.0027
154.6150,99.1173
153.4005,99.1173
153.4005,98.8100
153.9400,98.8100
154.6900,98.8100
154.6900,98.0600
155.1900,98.0600
155.1900,98.8100
155.9400,98.8100
155.9400,98.5155
155.9396,98.5089
155.9336,98.4526
155.8834,98.3179
155.7972,98.2028
155.6821,98.1166
155.5474,98.0664
155.4911,98.0604
155.4845,98.0600
155.1900,98.0600
154.6900,98.0600
154.3955,98.0600
154.3889,98.0604
154.3326,98.0664
154.1979,98.1166
154.0828,98.2028
153.9966,98.3179
153.9464,98.4526
153.9404,98.5089
153.9400,98.5155
153.9400,98.8100
153.4005,98.8100
153.4005,98.5121
153.3941,98.4525
153.3438,98.3177
153.2575,98.2025
153.1423,98.1162
153.0075,98.0659
152.9558,98.0604
152.9512,98.0599
152.9512,98.0599
152.9479,98.0595
152.9445,98.0595
151.8554,98.0595
151.8554,98.0595
151.8521,98.0595
151.8488,98.0599
151.8488,98.0599
151.7925,98.0659
151.6577,98.1162
151.5425,98.2025
151.4562,98.3177
151.4059,98.4525
151.4059,98.4525
151.3995,98.5121
151.3995,98.5154
151.3995,98.5154
151.3995,99.6046
151.3995,99.6046
135.3414,99.6046
135.3525,99.5922
135.4472,99.4283
135.5057,99.2483
135.5255,99.0600
135.5057,98.8717
135.4472,98.6917
135.4472,98.6917
135.3525,98.5278
135.2259,98.3871
135.0727,98.2758
134.8998,98.1989
134.7146,98.1595
134.7146,98.1595
134.5254,98.1595
134.5254,98.1595
134.3402,98.1989
134.1673,98.2758
134.0141,98.3871
133.8875,98.5278
133.7928,98.6917
133.7343,98.8717
133.7145,99.0600
132.0805,99.0600
132.0805,96.5200
161.6545,96.5200
161.6743,96.7083
161.7328,96.8883
161.8275,97.0522
161.9541,97.1929
162.1073,97.3042
162.2802,97.3811
162.4654,97.4205
162.4654,97.4205
162.6546,97.4205
162.7781,97.3943
162.8398,97.3811
163.0127,97.3042
163.1659,97.1929
163.2925,97.0522
163.3872,96.8883
163.4457,96.7083
163.4655,96.5200
163.4457,96.3317
163.3872,96.1517
163.3872,96.1517
163.3746,96.1300
163.9795,96.1300
163.9993,96.3183
164.0578,96.4983
164.1525,96.6622
164.2791,96.8029
164.4323,96.9142
164.6052,96.9911
164.7904,97.0305
164.7904,97.0305
164.9796,97.0305
165.1031,97.0043
165.1648,96.9911
165.3377,96.9142
165.4909,96.8029
165.6175,96.6622
165.7122,96.4983
165.7707,96.3183
165.7905,96.1300
165.7707,95.9417
165.7122,95.7617
165.7122,95.7617
165.6175,95.5978
165.4909,95.4571
165.3377,95.3458
165.1648,95.2689
164.9796,95.2295
164.9796,95.2295
164.7904,95.2295
164.7904,95.2295
164.6052,95.2689
164.4323,95.3458
164.2791,95.4571
164.1525,95.5978
164.0578,95.7617
163.9993,95.9417
163.9795,96.1300
163.3746,96.1300
163.2925,95.9878
163.1659,95.8471
163.0127,95.7358
162.8398,95.6589
162.6546,95.6195
162.6546,95.6195
162.4654,95.6195
162.4654,95.6195
162.2802,95.6589
162.1073,95.7358
161.9541,95.8471
161.8275,95.9878
161.7328,96.1517
161.6743,96.3317
161.6545,96.5200
132.0805,96.5200
132.0805,93.9800
133.7145,93.9800
133.7343,94.1683
133.7928,94.3483
133.8875,94.5122
134.0141,94.6529
134.1673,94.7642
134.3402,94.8411
134.5254,94.8805
134.5254,94.8805
134.7146,94.8805
134.8381,94.8543
134.8998,94.8411
135.0727,94.7642
135.2259,94.6529
135.3525,94.5122
135.4472,94.3483
135.5057,94.1683
135.5255,93.9800
141.3345,93.9800
141.3543,94.1683
141.4128,94.3483
141.5075,94.5122
141.6341,94.6529
141.7873,94.7642
141.9602,94.8411
142.1454,94.8805
142.1454,94.8805
142.3346,94.8805
142.4581,94.8543
142.5198,94.8411
142.6927,94.7642
142.8459,94.6529
142.9725,94.5122
143.0672,94.3483
143.1257,94.1683
143.1455,93.9800
143.1257,93.7917
143.0672,93.6117
143.0672,93.6117
142.9725,93.4478
142.8459,93.3071
142.6927,93.1958
142.5198,93.1189
142.3346,93.0795
142.3346,93.0795
142.1454,93.0795
142.1454,93.0795
141.9602,93.1189
141.7873,93.1958
141.6341,93.3071
141.5075,93.4478
141.4128,93.6117
141.3543,93.7917
141.3345,93.9800
135.5255,93.9800
135.5057,93.7917
135.4472,93.6117
135.4472,93.6117
135.3525,93.4478
135.2259,93.3071
135.0727,93.1958
134.8998,93.1189
134.7146,93.0795
134.7146,93.0795
134.5254,93.0795
134.5254,93.0795
134.3402,93.1189
134.1673,93.1958
134.0141,93.3071
133.8875,93.4478
133.7928,93.6117
133.7343,93.7917
133.7145,93.9800
132.0805,93.9800
132.0805,92.4845
135.9000,92.4845
135.9004,92.4911
135.9064,92.5474
135.9566,92.6821
136.0428,92.7972
136.1579,92.8834
136.2926,92.9336
136.3489,92.9396
136.3555,92.9400
137.1500,92.9400
137.1500,91.8755
137.2577,91.9247
137.3642,91.9400
137.4358,91.9400
137.5423,91.9247
137.6500,91.8755
137.6500,92.9400
138.4445,92.9400
138.4511,92.9396
138.5074,92.9336
138.6421,92.8834
138.7572,92.7972
138.8434,92.6821
138.8936,92.5474
138.8996,92.4911
138.9000,92.4845
138.9000,91.6900
137.8337,91.6900
137.8595,91.6498
137.9000,91.5119
137.9000,91.4400
150.8944,91.4400
150.9149,91.6878
150.9149,91.6878
150.9149,91.6878
150.9759,91.9289
151.0145,92.0167
151.0758,92.1566
151.0758,92.1566
151.2118,92.3648
151.3803,92.5477
151.3803,92.5477
151.5765,92.7005
151.5765,92.7005
151.5765,92.7005
151.7952,92.8188
152.0304,92.8996
152.2757,92.9405
152.5243,92.9405
152.7696,92.8996
153.0048,92.8188
153.2235,92.7005
153.4197,92.5477
153.5882,92.3648
153.7242,92.1566
153.8241,91.9289
153.8851,91.6878
153.9020,91.4845
161.6545,91.4845
161.6743,91.6728
161.7328,91.8528
161.8275,92.0167
161.9541,92.1574
162.1073,92.2687
162.2802,92.3456
162.4654,92.3850
162.4654,92.3850
162.6546,92.3850
162.7781,92.3588
162.8398,92.3456
162.8422,92.3446
163.9495,92.3446
163.9495,92.3479
163.9559,92.4075
164.0062,92.5423
164.0925,92.6575
164.2077,92.7438
164.3425,92.7941
164.4021,92.8005
165.4979,92.8005
165.5575,92.7941
165.6923,92.7438
165.8075,92.6575
165.8938,92.5423
165.9441,92.4075
165.9505,92.3479
165.9505,91.2521
165.9441,91.1925
165.8938,91.0577
165.8075,90.9425
165.6923,90.8562
165.5575,90.8059
165.4979,90.7995
165.4946,90.7995
164.4054,90.7995
164.4054,90.7995
164.4021,90.7995
164.3988,90.7999
164.3988,90.7999
164.3425,90.8059
164.2077,90.8562
164.0925,90.9425
164.0062,91.0577
163.9559,91.1925
163.9559,91.1925
163.9495,91.2521
163.9495,91.2554
163.9495,91.2554
163.9495,92.3446
163.9495,92.3446
162.8422,92.3446
163.0127,92.2687
163.1659,92.1574
163.2925,92.0167
163.3872,91.8528
163.4457,91.6728
163.4655,91.4845
163.4457,91.2962
163.3872,91.1162
163.3872,91.1162
163.2925,90.9523
163.1659,90.8116
163.0127,90.7003
162.8398,90.6234
162.6546,90.5840
162.6546,90.5840
162.4654,90.5840
162.4654,90.5840
162.2802,90.6234
162.1073,90.7003
161.9541,90.8116
161.8275,90.9523
161.7328,91.1162
161.6743,91.2962
161.6545,91.4845
153.9020,91.4845
153.9056,91.4400
153.8851,91.1922
153.8241,90.9511
153.7242,90.7234
153.5882,90.5152
153.4197,90.3323
153.3976,90.3150
153.2235,90.1795
153.2235,90.1795
153.2235,90.1795
153.0048,90.0612
153.0048,90.0612
153.0048,90.0612
152.7696,89.9804
152.5243,89.9395
152.2757,89.9395
152.0304,89.9804
151.7952,90.0612
151.5765,90.1795
151.3803,90.3323
151.3803,90.3323
151.3803,90.3323
151.3221,90.3955
151.2118,90.5152
151.0758,90.7234
150.9858,90.9287
150.9759,90.9511
150.9597,91.0150
150.9149,91.1922
150.8944,91.4400
137.9000,91.4400
137.9000,91.3681
137.8595,91.2302
137.8337,91.1900
138.9000,91.1900
138.9000,90.3955
138.8996,90.3889
138.8936,90.3326
138.8434,90.1979
138.7572,90.0828
138.6421,89.9966
138.5074,89.9464
138.4511,89.9404
138.4445,89.9400
137.6500,89.9400
137.6500,91.0045
137.5423,90.9553
137.4358,90.9400
137.3642,90.9400
137.2577,90.9553
137.1500,91.0045
137.1500,89.9400
136.3555,89.9400
136.3489,89.9404
136.2926,89.9464
136.1579,89.9966
136.0428,90.0828
135.9566,90.1979
135.9064,90.3326
135.9004,90.3889
135.9000,90.3955
135.9000,91.1900
136.9663,91.1900
136.9405,91.2302
136.9000,91.3681
136.9000,91.5119
136.9405,91.6498
136.9663,91.6900
135.9000,91.6900
135.9000,92.4845
132.0805,92.4845
132.0805,88.5155
161.6545,88.5155
161.6743,88.7038
161.7328,88.8838
161.8275,89.0477
161.9541,89.1884
162.1073,89.2997
162.2802,89.3766
162.4654,89.4160
162.4654,89.4160
162.6546,89.4160
162.7781,89.3898
162.8398,89.3766
163.0127,89.2997
163.1659,89.1884
163.2925,89.0477
163.3872,88.8838
163.4457,88.7038
163.4461,88.7000
163.9500,88.7000
163.9500,88.9945
163.9504,89.0011
163.9564,89.0574
164.0066,89.1921
164.0928,89.3072
164.2079,89.3934
164.3426,89.4436
164.3989,89.4496
164.4055,89.4500
164.7000,89.4500
164.7000,88.7000
163.9500,88.7000
163.4461,88.7000
163.4655,88.5155
163.4457,88.3272
163.4043,88.2000
163.9500,88.2000
164.7044,88.2000
164.6529,88.2559
164.6060,88.3629
164.5964,88.4793
164.6250,88.5925
164.6889,88.6903
164.7811,88.7621
164.8916,88.8000
164.9790,88.8000
165.0652,88.7856
165.1679,88.7300
165.1956,88.7000
165.2000,88.7000
165.2000,89.4500
165.4945,89.4500
165.5011,89.4496
165.5574,89.4436
165.6921,89.3934
165.8072,89.3072
165.8934,89.1921
165.9436,89.0574
165.9496,89.0011
165.9500,88.9945
165.9500,88.7000
165.2000,88.7000
165.1956,88.7000
165.2471,88.6441
165.2940,88.5371
165.3036,88.4207
165.2750,88.3075
165.2111,88.2097
165.1986,88.2000
165.9500,88.2000
165.9500,87.9055
165.9496,87.8989
165.9436,87.8426
165.8934,87.7079
165.8072,87.5928
165.7203,87.5278
165.6785,87.4719
165.6735,87.4022
165.7070,87.3408
165.7218,87.3282
165.7986,87.2724
165.9253,87.1317
166.0199,86.9678
166.0784,86.7878
166.0982,86.5995
166.0784,86.4112
166.0199,86.2312
166.0199,86.2312
165.9253,86.0673
165.7986,85.9266
165.6455,85.8153
165.4725,85.7384
165.2874,85.6990
165.2874,85.6990
165.0981,85.6990
165.0981,85.6990
164.9129,85.7384
164.7400,85.8153
164.5869,85.9266
164.4602,86.0673
164.3656,86.2312
164.3071,86.4112
164.2873,86.5995
164.3071,86.7878
164.3656,86.9678
164.4602,87.1317
164.5604,87.2430
164.5907,87.3060
164.5820,87.3754
164.5373,87.4290
164.4706,87.4500
164.4683,87.4500
164.4055,87.4500
164.3989,87.4504
164.3426,87.4564
164.2079,87.5066
164.0928,87.5928
164.0066,87.7079
163.9564,87.8426
163.9504,87.8989
163.9500,87.9055
163.9500,88.2000
163.4043,88.2000
163.3872,88.1472
163.3872,88.1472
163.2925,87.9833
163.1659,87.8426
163.0127,87.7313
162.8398,87.6544
162.6546,87.6150
162.6546,87.6150
162.4654,87.6150
162.4654,87.6150
162.2802,87.6544
162.1073,87.7313
161.9541,87.8426
161.8275,87.9833
161.7328,88.1472
161.6743,88.3272
161.6545,88.5155
132.0805,88.5155
132.0805,87.2995
156.5745,87.2995
156.5943,87.4878
156.6528,87.6678
156.7475,87.8317
156.8741,87.9724
157.0273,88.0837
157.2002,88.1606
157.3854,88.2000
157.3854,88.2000
157.5746,88.2000
157.7159,88.1700
157.7598,88.1606
157.9327,88.0837
158.0709,87.9833
158.0859,87.9724
158.1461,87.9055
158.2125,87.8317
158.3072,87.6678
158.3657,87.4878
158.3855,87.2995
158.3657,87.1112
158.3348,87.0162
158.3072,86.9312
158.2125,86.7673
158.0859,86.6266
157.9327,86.5153
157.7598,86.4384
157.5746,86.3990
157.5746,86.3990
157.3854,86.3990
157.3854,86.3990
157.2002,86.4384
157.0273,86.5153
156.8741,86.6266
156.7475,86.7673
156.6528,86.9312
156.5943,87.1112
156.5745,87.2995
132.0805,87.2995
132.0805,85.9496
135.8995,85.9496
135.8995,85.9529
135.9059,86.0125
135.9562,86.1473
136.0425,86.2625
136.1577,86.3488
136.2925,86.3991
136.3521,86.4055
138.4479,86.4055
138.5075,86.3991
138.6423,86.3488
138.7575,86.2625
138.8438,86.1473
138.8941,86.0125
138.9005,85.9529
138.9005,85.1550
150.9160,85.1550
150.9764,85.3937
151.0763,85.6214
151.2122,85.8295
151.3806,86.0124
151.5768,86.1651
151.7954,86.2834
152.0305,86.3641
152.1500,86.3840
152.1500,86.3840
152.1500,85.3405
152.2577,85.3897
152.3642,85.4050
152.4358,85.4050
152.5423,85.3897
152.6500,85.3405
152.6500,86.3840
152.7695,86.3641
153.0046,86.2834
153.2232,86.1651
153.2866,86.1157
154.0667,86.1157
154.0864,86.3040
154.1449,86.4840
154.2396,86.6480
154.3662,86.7886
154.5194,86.8999
154.6923,86.9769
154.8775,87.0162
154.8775,87.0162
155.0668,87.0162
155.1902,86.9900
155.2519,86.9769
155.4249,86.8999
155.5780,86.7886
155.7047,86.6480
155.7993,86.4840
155.8578,86.3040
155.8776,86.1157
155.8578,85.9275
155.7993,85.7475
155.7993,85.7475
155.7145,85.6005
159.1145,85.6005
159.1343,85.7888
159.1928,85.9688
159.2875,86.1327
159.4141,86.2734
159.5673,86.3847
159.7402,86.4616
159.9254,86.5010
159.9254,86.5010
160.1146,86.5010
160.2381,86.4748
160.2998,86.4616
160.4727,86.3847
160.5837,86.3040
160.6259,86.2734
160.7525,86.1327
160.8472,85.9688
160.8534,85.9496
160.9057,85.7888
160.9255,85.6005
160.9057,85.4122
160.8545,85.2546
160.8472,85.2322
160.7525,85.0683
160.6259,84.9276
160.4727,84.8163
160.2998,84.7394
160.1146,84.7000
160.1146,84.7000
159.9254,84.7000
159.9254,84.7000
159.7402,84.7394
159.5673,84.8163
159.4141,84.9276
159.2875,85.0683
159.1928,85.2322
159.1343,85.4122
159.1145,85.6005
155.7145,85.6005
155.7047,85.5835
155.5780,85.4429
155.4249,85.3316
155.2519,85.2546
155.0668,85.2152
155.0668,85.2152
154.8775,85.2152
154.8775,85.2152
154.6923,85.2546
154.5194,85.3316
154.3662,85.4429
154.2396,85.5835
154.1449,85.7475
154.0864,85.9275
154.0667,86.1157
153.2866,86.1157
153.4194,86.0124
153.5878,85.8295
153.7237,85.6214
153.8236,85.3937
153.8840,85.1550
152.8337,85.1550
152.8595,85.1148
152.9000,84.9769
152.9000,84.8331
152.8595,84.6952
152.8337,84.6550
153.8840,84.6550
153.8236,84.4163
153.7237,84.1886
153.5878,83.9805
153.4194,83.7976
153.2232,83.6449
153.0046,83.5266
152.7695,83.4459
152.6500,83.4260
152.6500,84.4695
152.5423,84.4203
152.4358,84.4050
152.3642,84.4050
152.2577,84.4203
152.1500,84.4695
152.1500,83.4260
152.1500,83.4260
152.0305,83.4459
151.7954,83.5266
151.5768,83.6449
151.3806,83.7976
151.2122,83.9805
151.0763,84.1886
150.9764,84.4163
150.9160,84.6550
151.9663,84.6550
151.9405,84.6952
151.9000,84.8331
151.9000,84.9769
151.9405,85.1148
151.9663,85.1550
150.9160,85.1550
138.9005,85.1550
138.9005,83.8571
138.8941,83.7975
138.8438,83.6627
138.7575,83.5475
138.6423,83.4612
138.5075,83.4109
138.4479,83.4045
138.4445,83.4045
136.3554,83.4045
136.3554,83.4045
136.3521,83.4045
136.3488,83.4049
136.3488,83.4049
136.2925,83.4109
136.1577,83.4612
136.0425,83.5475
135.9562,83.6627
135.9059,83.7975
135.9059,83.7975
135.8995,83.8571
135.8995,83.8604
135.8995,83.8604
135.8995,85.9496
135.8995,85.9496
132.0805,85.9496
132.0805,81.2800
153.1949,81.2800
153.2147,81.4683
153.2732,81.6483
153.3679,81.8122
153.4945,81.9529
153.6477,82.0642
153.8206,82.1411
154.0057,82.1805
154.0057,82.1805
154.1950,82.1805
154.3185,82.1543
154.3802,82.1411
154.5531,82.0642
154.7063,81.9529
154.8329,81.8122
154.9276,81.6483
154.9861,81.4683
155.0058,81.2800
154.9861,81.0917
154.9276,80.9117
154.9276,80.9117
154.8329,80.7478
154.7063,80.6071
154.5531,80.4958
154.3802,80.4189
154.1950,80.3795
154.1950,80.3795
154.0057,80.3795
154.0057,80.3795
153.8206,80.4189
153.6477,80.4958
153.4945,80.6071
153.3679,80.7478
153.2732,80.9117
153.2147,81.0917
153.1949,81.2800
132.0805,81.2800
132.0805,79.4146
135.8995,79.4146
135.8995,79.4179
135.9059,79.4775
135.9562,79.6123
136.0425,79.7275
136.1577,79.8138
136.2925,79.8641
136.3521,79.8705
138.4479,79.8705
138.5075,79.8641
138.6423,79.8138
138.7575,79.7275
138.8438,79.6123
138.8941,79.4775
138.9005,79.4179
138.9005,78.6200
150.9160,78.6200
150.9764,78.8587
151.0763,79.0864
151.2122,79.2945
151.3806,79.4774
151.5768,79.6301
151.7954,79.7484
152.0305,79.8291
152.1500,79.8490
152.1500,79.8490
152.1500,78.8055
152.2577,78.8547
152.3642,78.8700
152.4358,78.8700
152.5423,78.8547
152.6500,78.8055
152.6500,79.8490
152.7695,79.8291
153.0046,79.7484
153.2232,79.6301
153.4194,79.4774
153.5878,79.2945
153.7237,79.0864
153.8236,78.8587
153.8840,78.6200
152.8337,78.6200
152.8595,78.5798
152.9000,78.4419
152.9000,78.2981
152.8595,78.1602
152.8337,78.1200
153.8840,78.1200
153.8236,77.8813
153.7237,77.6536
153.5878,77.4455
153.4194,77.2626
153.2232,77.1099
153.0046,76.9916
152.7695,76.9109
152.6500,76.8910
152.6500,77.9345
152.5423,77.8853
152.4358,77.8700
152.3642,77.8700
152.2577,77.8853
152.1500,77.9345
152.1500,76.8910
152.1500,76.8910
152.0305,76.9109
151.7954,76.9916
151.5768,77.1099
151.3806,77.2626
151.2122,77.4455
151.0763,77.6536
150.9764,77.8813
150.9160,78.1200
151.9663,78.1200
151.9405,78.1602
151.9000,78.2981
151.9000,78.4419
151.9405,78.5798
151.9663,78.6200
150.9160,78.6200
138.9005,78.6200
138.9005,77.3221
138.8941,77.2625
138.8438,77.1277
138.7575,77.0125
138.6423,76.9262
138.5075,76.8759
138.4479,76.8695
138.4445,76.8695
136.3554,76.8695
136.3554,76.8695
136.3521,76.8695
136.3488,76.8699
136.3488,76.8699
136.2925,76.8759
136.1577,76.9262
136.0425,77.0125
135.9562,77.1277
135.9059,77.2625
135.9059,77.2625
135.8995,77.3221
135.8995,77.3254
135.8995,77.3254
135.8995,79.4146
135.8995,79.4146
132.0805,79.4146
132.0805,72.8796
135.8995,72.8796
135.8995,72.8829
135.9059,72.9425
135.9562,73.0773
136.0425,73.1925
136.1577,73.2788
136.2925,73.3291
136.3521,73.3355
138.4479,73.3355
138.5075,73.3291
138.6423,73.2788
138.7575,73.1925
138.8438,73.0773
138.8941,72.9425
138.9005,72.8829
138.9005,72.0850
150.9160,72.0850
150.9764,72.3237
151.0763,72.5514
151.2122,72.7595
151.3806,72.9424
151.5768,73.0951
151.7954,73.2134
152.0305,73.2941
152.1500,73.3140
152.1500,73.3140
152.1500,72.2705
152.2577,72.3197
152.3642,72.3350
152.4358,72.3350
152.5423,72.3197
152.6500,72.2705
152.6500,73.3140
152.7695,73.2941
153.0046,73.2134
153.2232,73.0951
153.4194,72.9424
153.5878,72.7595
153.7237,72.5514
153.8236,72.3237
153.8840,72.0850
152.8337,72.0850
152.8595,72.0448
152.9000,71.9069
152.9000,71.7631
152.8595,71.6252
152.8337,71.5850
153.8840,71.5850
153.8812,71.5737
153.8838,71.5039
153.9238,71.4466
153.9884,71.4200
154.0571,71.4325
154.1081,71.4802
154.1088,71.4813
154.2075,71.6522
154.3341,71.7929
154.4873,71.9042
154.6602,71.9811
154.8454,72.0205
154.8454,72.0205
155.0346,72.0205
155.1581,71.9943
155.2198,71.9811
155.3927,71.9042
155.5459,71.7929
155.6725,71.6522
155.7672,71.4883
155.8257,71.3083
155.8455,71.1200
155.8257,70.9317
155.7672,70.7517
155.7672,70.7517
155.6725,70.5878
155.5459,70.4471
155.3927,70.3358
155.2198,70.2589
155.0346,70.2195
155.0346,70.2195
154.8454,70.2195
154.8454,70.2195
154.6602,70.2589
154.4873,70.3358
154.3341,70.4471
154.2075,70.5878
154.1128,70.7517
154.0543,70.9317
154.0345,71.1200
154.0490,71.2573
154.0364,71.3260
153.9887,71.3771
153.9209,71.3942
153.8547,71.3720
153.8121,71.3201
153.7237,71.1186
153.5878,70.9105
153.4194,70.7276
153.2232,70.5749
153.0046,70.4566
152.7695,70.3759
152.6500,70.3560
152.6500,71.3995
152.5423,71.3503
152.4358,71.3350
152.3642,71.3350
152.2577,71.3503
152.1500,71.3995
152.1500,70.3560
152.1500,70.3560
152.0305,70.3759
151.7954,70.4566
151.5768,70.5749
151.3806,70.7276
151.2122,70.9105
151.0763,71.1186
150.9764,71.3463
150.9160,71.5850
151.9663,71.5850
151.9405,71.6252
151.9000,71.7631
151.9000,71.9069
151.9405,72.0448
151.9663,72.0850
150.9160,72.0850
138.9005,72.0850
138.9005,70.7871
138.8941,70.7275
138.8438,70.5927
138.7575,70.4775
138.6423,70.3912
138.5075,70.3409
138.4479,70.3345
138.4445,70.3345
136.3554,70.3345
136.3554,70.3345
136.3521,70.3345
136.3488,70.3349
136.3488,70.3349
136.2925,70.3409
136.1577,70.3912
136.0425,70.4775
135.9562,70.5927
135.9059,70.7275
135.9059,70.7275
135.8995,70.7871
135.8995,70.7904
135.8995,70.7904
135.8995,72.8796
135.8995,72.8796
132.0805,72.8796
132.0805,67.8005
164.1908,67.8005
164.2105,67.9888
164.2690,68.1688
164.3637,68.3327
164.4903,68.4734
164.6435,68.5847
164.8164,68.6616
165.0016,68.7010
165.0016,68.7010
165.1909,68.7010
165.3143,68.6748
165.3760,68.6616
165.5489,68.5847
165.7021,68.4734
165.8287,68.3327
165.9234,68.1688
165.9819,67.9888
166.0017,67.8005
165.9819,67.6122
165.9234,67.4322
165.9234,67.4322
165.8287,67.2683
165.7021,67.1276
165.5489,67.0163
165.3760,66.9394
165.1909,66.9000
165.1909,66.9000
165.0016,66.9000
165.0016,66.9000
164.8164,66.9394
164.6435,67.0163
164.4903,67.1276
164.3637,67.2683
164.2690,67.4322
164.2105,67.6122
164.1908,67.8005
132.0805,67.8005
132.0805,66.1645
132.1002,66.0975
132.1530,66.0517
132.2045,66.0405
175.1355,66.0405
Z" /> 
</g>
</g>
</g>
<g style="fill:#000000; fill-opacity:1.0000; 
stroke:#000000; stroke-width:0.0000; stroke-opacity:1; 
stroke-linecap:round; stroke-linejoin:round;">
<circle cx="154.9721" cy="86.1157" r="0.1750" /> 
</g>
<g style="fill:#000000; fill-opacity:1.0000; 
stroke:#000000; stroke-width:0.0212; stroke-opacity:1; 
stroke-linecap:round; stroke-linejoin:round;">
</g>
<g style="fill:#000000; fill-opacity:1.0000; 
stroke:#000000; stroke-width:0.0000; stroke-opacity:1; 
stroke-linecap:round; stroke-linejoin:round;">
<circle cx="152.4000" cy="94.9000" r="0.1750" /> 
</g>
<g style="fill:#000000; fill-opacity:1.0000; 
stroke:#000000; stroke-width:0.0212; stroke-opacity:1; 
stroke-linecap:round; stroke-linejoin:round;">
</g>
<g style="fill:#000000; fill-opacity:1.0000; 
stroke:#000000; stroke-width:0.0000; stroke-opacity:1; 
stroke-linecap:round; stroke-linejoin:round;">
<circle cx="155.6789" cy="86.8225" r="0.1750" /> 
</g>
<g style="fill:#000000; fill-opacity:1.0000; 
stroke:#000000; stroke-width:0.0212; stroke-opacity:1; 
stroke-linecap:round; stroke-linejoin:round;">
</g>
<g style="fill:#000000; fill-opacity:1.0000; 
stroke:#000000; stroke-width:0.0000; stroke-opacity:1; 
stroke-linecap:round; stroke-linejoin:round;">
<circle cx="154.1004" cy="81.2800" r="0.1750" /> 
</g>
<g style="fill:#000000; fill-opacity:1.0000; 
stroke:#000000; stroke-width:0.0212; stroke-opacity:1; 
stroke-linecap:round; stroke-linejoin:round;">
</g>
<g style="fill:#000000; fill-opacity:1.0000; 
stroke:#000000; stroke-width:0.0000; stroke-opacity:1; 
stroke-linecap:round; stroke-linejoin:round;">
<circle cx="164.8850" cy="96.1300" r="0.1750" /> 
</g>
<g style="fill:#000000; fill-opacity:1.0000; 
stroke:#000000; stroke-width:0.0212; stroke-opacity:1; 
stroke-linecap:round; stroke-linejoin:round;">
</g>
<g style="fill:#000000; fill-opacity:1.0000; 
stroke:#000000; stroke-width:0.0000; stroke-opacity:1; 
stroke-linecap:round; stroke-linejoin:round;">
<circle cx="165.1927" cy="86.5995" r="0.1750" /> 
</g>
<g style="fill:#000000; fill-opacity:1.0000; 
stroke:#000000; stroke-width:0.0212; stroke-opacity:1; 
stroke-linecap:round; stroke-linejoin:round;">
</g>
<g style="fill:#000000; fill-opacity:1.0000; 
stroke:#000000; stroke-width:0.0000; stroke-opacity:1; 
stroke-linecap:round; stroke-linejoin:round;">
<circle cx="162.5600" cy="96.5200" r="0.1750" /> 
</g>
<g style="fill:#000000; fill-opacity:1.0000; 
stroke:#000000; stroke-width:0.0212; stroke-opacity:1; 
stroke-linecap:round; stroke-linejoin:round;">
</g>
<g style="fill:#000000; fill-opacity:1.0000; 
stroke:#000000; stroke-width:0.0000; stroke-opacity:1; 
stroke-linecap:round; stroke-linejoin:round;">
<circle cx="157.4800" cy="87.2995" r="0.1750" /> 
</g>
<g style="fill:#000000; fill-opacity:1.0000; 
stroke:#000000; stroke-width:0.0212; stroke-opacity:1; 
stroke-linecap:round; stroke-linejoin:round;">
</g>
<g style="fill:#000000; fill-opacity:1.0000; 
stroke:#000000; stroke-width:0.0000; stroke-opacity:1; 
stroke-linecap:round; stroke-linejoin:round;">
<circle cx="160.0200" cy="85.6005" r="0.1750" /> 
</g>
<g style="fill:#000000; fill-opacity:1.0000; 
stroke:#000000; stroke-width:0.0212; stroke-opacity:1; 
stroke-linecap:round; stroke-linejoin:round;">
</g>
<g style="fill:#000000; fill-opacity:1.0000; 
stroke:#000000; stroke-width:0.0000; stroke-opacity:1; 
stroke-linecap:round; stroke-linejoin:round;">
<circle cx="165.0962" cy="67.8005" r="0.1750" /> 
</g>
<g style="fill:#000000; fill-opacity:1.0000; 
stroke:#000000; stroke-width:0.0212; stroke-opacity:1; 
stroke-linecap:round; stroke-linejoin:round;">
</g>
<g style="fill:#000000; fill-opacity:1.0000; 
stroke:#000000; stroke-width:0.0000; stroke-opacity:1; 
stroke-linecap:round; stroke-linejoin:round;">
<circle cx="154.9400" cy="71.1200" r="0.1750" /> 
</g>
<g style="fill:#000000; fill-opacity:1.0000; 
stroke:#000000; stroke-width:0.0212; stroke-opacity:1; 
stroke-linecap:round; stroke-linejoin:round;">
</g>
<g style="fill:#000000; fill-opacity:1.0000; 
stroke:#000000; stroke-width:0.0000; stroke-opacity:1; 
stroke-linecap:round; stroke-linejoin:round;">
<circle cx="134.6200" cy="99.0600" r="0.1750" /> 
</g>
<g style="fill:#000000; fill-opacity:1.0000; 
stroke:#000000; stroke-width:0.0212; stroke-opacity:1; 
stroke-linecap:round; stroke-linejoin:round;">
</g>
<g style="fill:#000000; fill-opacity:1.0000; 
stroke:#000000; stroke-width:0.0000; stroke-opacity:1; 
stroke-linecap:round; stroke-linejoin:round;">
<circle cx="162.5600" cy="88.5155" r="0.1750" /> 
</g>
<g style="fill:#000000; fill-opacity:1.0000; 
stroke:#000000; stroke-width:0.0212; stroke-opacity:1; 
stroke-linecap:round; stroke-linejoin:round;">
</g>
<g style="fill:#000000; fill-opacity:1.0000; 
stroke:#000000; stroke-width:0.0000; stroke-opacity:1; 
stroke-linecap:round; stroke-linejoin:round;">
<circle cx="162.5600" cy="91.4845" r="0.1750" /> 
</g>
<g style="fill:#000000; fill-opacity:1.0000; 
stroke:#000000; stroke-width:0.0212; stroke-opacity:1; 
stroke-linecap:round; stroke-linejoin:round;">
</g>
<g style="fill:#000000; fill-opacity:1.0000; 
stroke:#000000; stroke-width:0.0000; stroke-opacity:1; 
stroke-linecap:round; stroke-linejoin:round;">
<circle cx="134.6200" cy="93.9800" r="0.1750" /> 
</g>
<g style="fill:#000000; fill-opacity:1.0000; 
stroke:#000000; stroke-width:0.0212; stroke-opacity:1; 
stroke-linecap:round; stroke-linejoin:round;">
</g>
<g style="fill:#000000; fill-opacity:1.0000; 
stroke:#000000; stroke-width:0.0000; stroke-opacity:1; 
stroke-linecap:round; stroke-linejoin:round;">
<circle cx="142.2400" cy="93.9800" r="0.1750" /> 
</g>
<g style="fill:#000000; fill-opacity:1.0000; 
stroke:#000000; stroke-width:0.0212; stroke-opacity:1; 
stroke-linecap:round; stroke-linejoin:round;">
</g>
<g style="fill:#000000; fill-opacity:1.0000; 
stroke:#000000; stroke-width:0.0000; stroke-opacity:1; 
stroke-linecap:round; stroke-linejoin:round;">
<circle cx="152.4000" cy="99.0600" r="0.1750" /> 
</g>
<g style="fill:#000000; fill-opacity:1.0000; 
stroke:#000000; stroke-width:0.0212; stroke-opacity:1; 
stroke-linecap:round; stroke-linejoin:round;">
</g>
<g style="fill:#000000; fill-opacity:1.0000; 
stroke:#000000; stroke-width:0.0000; stroke-opacity:1; 
stroke-linecap:round; stroke-linejoin:round;">
<circle cx="154.9400" cy="99.0600" r="0.1750" /> 
</g>
<g style="fill:#000000; fill-opacity:1.0000; 
stroke:#000000; stroke-width:0.0212; stroke-opacity:1; 
stroke-linecap:round; stroke-linejoin:round;">
</g>
<g style="fill:#000000; fill-opacity:1.0000; 
stroke:#000000; stroke-width:0.0000; stroke-opacity:1; 
stroke-linecap:round; stroke-linejoin:round;">
<circle cx="164.9500" cy="91.8000" r="0.1750" /> 
</g>
<g style="fill:#000000; fill-opacity:1.0000; 
stroke:#000000; stroke-width:0.0212; stroke-opacity:1; 
stroke-linecap:round; stroke-linejoin:round;">
</g>
<g style="fill:#000000; fill-opacity:1.0000; 
stroke:#000000; stroke-width:0.0000; stroke-opacity:1; 
stroke-linecap:round; stroke-linejoin:round;">
<circle cx="164.9500" cy="88.4500" r="0.1750" /> 
</g>
<g style="fill:#000000; fill-opacity:1.0000; 
stroke:#000000; stroke-width:0.0212; stroke-opacity:1; 
stroke-linecap:round; stroke-linejoin:round;">
</g>
<g style="fill:#000000; fill-opacity:1.0000; 
stroke:#000000; stroke-width:0.0000; stroke-opacity:1; 
stroke-linecap:round; stroke-linejoin:round;">
<circle cx="137.4000" cy="91.4400" r="0.1750" /> 
</g>
<g style="fill:#000000; fill-opacity:1.0000; 
stroke:#000000; stroke-width:0.0212; stroke-opacity:1; 
stroke-linecap:round; stroke-linejoin:round;">
</g>
<g style="fill:#000000; fill-opacity:1.0000; 
stroke:#000000; stroke-width:0.0000; stroke-opacity:1; 
stroke-linecap:round; stroke-linejoin:round;">
<circle cx="152.4000" cy="91.4400" r="0.1750" /> 
</g>
<g style="fill:#000000; fill-opacity:1.0000; 
stroke:#000000; stroke-width:0.0212; stroke-opacity:1; 
stroke-linecap:round; stroke-linejoin:round;">
</g>
<g style="fill:#000000; fill-opacity:1.0000; 
stroke:#000000; stroke-width:0.0000; stroke-opacity:1; 
stroke-linecap:round; stroke-linejoin:round;">
<circle cx="137.4000" cy="84.9050" r="0.1750" /> 
</g>
<g style="fill:#000000; fill-opacity:1.0000; 
stroke:#000000; stroke-width:0.0212; stroke-opacity:1; 
stroke-linecap:round; stroke-linejoin:round;">
</g>
<g style="fill:#000000; fill-opacity:1.0000; 
stroke:#000000; stroke-width:0.0000; stroke-opacity:1; 
stroke-linecap:round; stroke-linejoin:round;">
<circle cx="152.4000" cy="84.9050" r="0.1750" /> 
</g>
<g style="fill:#000000; fill-opacity:1.0000; 
stroke:#000000; stroke-width:0.0212; stroke-opacity:1; 
stroke-linecap:round; stroke-linejoin:round;">
</g>
<g style="fill:#000000; fill-opacity:1.0000; 
stroke:#000000; stroke-width:0.0000; stroke-opacity:1; 
stroke-linecap:round; stroke-linejoin:round;">
<circle cx="137.4000" cy="78.3700" r="0.1750" /> 
</g>
<g style="fill:#000000; fill-opacity:1.0000; 
stroke:#000000; stroke-width:0.0212; stroke-opacity:1; 
stroke-linecap:round; stroke-linejoin:round;">
</g>
<g style="fill:#000000; fill-opacity:1.0000; 
stroke:#000000; stroke-width:0.0000; stroke-opacity:1; 
stroke-linecap:round; stroke-linejoin:round;">
<circle cx="152.4000" cy="78.3700" r="0.1750" /> 
</g>
<g style="fill:#000000; fill-opacity:1.0000; 
stroke:#000000; stroke-width:0.0212; stroke-opacity:1; 
stroke-linecap:round; stroke-linejoin:round;">
</g>
<g style="fill:#000000; fill-opacity:1.0000; 
stroke:#000000; stroke-width:0.0000; stroke-opacity:1; 
stroke-linecap:round; stroke-linejoin:round;">
<circle cx="137.4000" cy="71.8350" r="0.1750" /> 
</g>
<g style="fill:#000000; fill-opacity:1.0000; 
stroke:#000000; stroke-width:0.0212; stroke-opacity:1; 
stroke-linecap:round; stroke-linejoin:round;">
</g>
<g style="fill:#000000; fill-opacity:1.0000; 
stroke:#000000; stroke-width:0.0000; stroke-opacity:1; 
stroke-linecap:round; stroke-linejoin:round;">
<circle cx="152.4000" cy="71.8350" r="0.1750" /> 
</g>
<g style="fill:#000000; fill-opacity:1.0000; 
stroke:#000000; stroke-width:0.0212; stroke-opacity:1; 
stroke-linecap:round; stroke-linejoin:round;">
</g>
<g style="fill:#FFFFFF; fill-opacity:1.0000; 
stroke:#FFFFFF; stroke-width:0.0212; stroke-opacity:1; 
stroke-linecap:round; stroke-linejoin:round;">
</g> 
</svg>
