<?xml version="1.0" standalone="no"?>
 <!DOCTYPE svg PUBLIC "-//W3C//DTD SVG 1.1//EN" 
 "http://www.w3.org/Graphics/SVG/1.1/DTD/svg11.dtd"> 
<svg
  xmlns:svg="http://www.w3.org/2000/svg"
  xmlns="http://www.w3.org/2000/svg"
  xmlns:xlink="http://www.w3.org/1999/xlink"
  version="1.1"
  width="297.0022mm" height="210.0072mm" viewBox="0.0000 0.0000 297.0022 210.0072">
<title>SVG Image created as Projeto final de EA075-VCC.svg date 2023/06/25 00:54:47 </title>
  <desc>Image generated by PCBNEW </desc>
<g style="fill:#000000; fill-opacity:1.0000;stroke:#000000; stroke-opacity:1.0000;
stroke-linecap:round; stroke-linejoin:round;"
 transform="translate(0 0) scale(1 1)">
</g>
<g style="fill:#000000; fill-opacity:0.0; 
stroke:#000000; stroke-width:0.0000; stroke-opacity:1; 
stroke-linecap:round; stroke-linejoin:round;">
</g>
<g style="fill:#000000; fill-opacity:1.0000; 
stroke:#000000; stroke-width:0.0212; stroke-opacity:1; 
stroke-linecap:round; stroke-linejoin:round;">
<rect x="127.030000" y="60.990000" width="53.280000" height="51.709048" rx="0.000000" />
</g>
<g style="fill:#FFFFFF; fill-opacity:1.0000; 
stroke:#FFFFFF; stroke-width:0.0212; stroke-opacity:1; 
stroke-linecap:round; stroke-linejoin:round;">
<g >
</g>
<g >
</g>
<g >
</g>
<g >
</g>
<g >
</g>
<g style="fill:#FFFFFF; fill-opacity:1.0000; 
stroke:#FFFFFF; stroke-width:0.0212; stroke-opacity:1; 
stroke-linecap:round; stroke-linejoin:round;">
</g>
<g style="fill:#FFFFFF; fill-opacity:1.0000; 
stroke:#FFFFFF; stroke-width:0.0000; stroke-opacity:1; 
stroke-linecap:round; stroke-linejoin:round;">
<path style="fill:#FFFFFF; fill-opacity:1.0000; 
stroke:#FFFFFF; stroke-width:0.0000; stroke-opacity:1; 
stroke-linecap:round; stroke-linejoin:round;fill-rule:evenodd;"
d="M 151.9000,98.5600
152.9000,98.5600
152.9000,99.5600
151.9000,99.5600
Z" /> 
</g>
<g >
</g>
<g style="fill:#FFFFFF; fill-opacity:1.0000; 
stroke:#FFFFFF; stroke-width:0.0000; stroke-opacity:1; 
stroke-linecap:round; stroke-linejoin:round;">
<path style="fill:#FFFFFF; fill-opacity:1.0000; 
stroke:#FFFFFF; stroke-width:0.0000; stroke-opacity:1; 
stroke-linecap:round; stroke-linejoin:round;fill-rule:evenodd;"
d="M 154.4400,98.5600
155.4400,98.5600
155.4400,99.5600
154.4400,99.5600
Z" /> 
</g>
<g >
</g>
<g style="fill:#FFFFFF; fill-opacity:1.0000; 
stroke:#FFFFFF; stroke-width:0.0000; stroke-opacity:1; 
stroke-linecap:round; stroke-linejoin:round;">
<path style="fill:#FFFFFF; fill-opacity:1.0000; 
stroke:#FFFFFF; stroke-width:0.0000; stroke-opacity:1; 
stroke-linecap:round; stroke-linejoin:round;fill-rule:evenodd;"
d="M 164.4500,92.3000
164.4500,91.3000
165.4500,91.3000
165.4500,92.3000
Z" /> 
</g>
<g >
</g>
<g style="fill:#FFFFFF; fill-opacity:1.0000; 
stroke:#FFFFFF; stroke-width:0.0000; stroke-opacity:1; 
stroke-linecap:round; stroke-linejoin:round;">
<path style="fill:#FFFFFF; fill-opacity:1.0000; 
stroke:#FFFFFF; stroke-width:0.0000; stroke-opacity:1; 
stroke-linecap:round; stroke-linejoin:round;fill-rule:evenodd;"
d="M 164.4500,88.9500
164.4500,87.9500
165.4500,87.9500
165.4500,88.9500
Z" /> 
</g>
<g >
</g>
<g style="fill:#FFFFFF; fill-opacity:1.0000; 
stroke:#FFFFFF; stroke-width:0.0000; stroke-opacity:1; 
stroke-linecap:round; stroke-linejoin:round;">
<path style="fill:#FFFFFF; fill-opacity:1.0000; 
stroke:#FFFFFF; stroke-width:0.0000; stroke-opacity:1; 
stroke-linecap:round; stroke-linejoin:round;fill-rule:evenodd;"
d="M 136.4000,92.4400
136.4000,90.4400
138.4000,90.4400
138.4000,92.4400
Z" /> 
<circle cx="152.4000" cy="91.4400" r="1.0000" /> 
</g>
<g >
</g>
<g style="fill:#FFFFFF; fill-opacity:1.0000; 
stroke:#FFFFFF; stroke-width:0.0000; stroke-opacity:1; 
stroke-linecap:round; stroke-linejoin:round;">
<path style="fill:#FFFFFF; fill-opacity:1.0000; 
stroke:#FFFFFF; stroke-width:0.0000; stroke-opacity:1; 
stroke-linecap:round; stroke-linejoin:round;fill-rule:evenodd;"
d="M 136.4000,85.9050
136.4000,83.9050
138.4000,83.9050
138.4000,85.9050
Z" /> 
<circle cx="152.4000" cy="84.9050" r="1.0000" /> 
</g>
<g >
</g>
<g style="fill:#FFFFFF; fill-opacity:1.0000; 
stroke:#FFFFFF; stroke-width:0.0000; stroke-opacity:1; 
stroke-linecap:round; stroke-linejoin:round;">
<path style="fill:#FFFFFF; fill-opacity:1.0000; 
stroke:#FFFFFF; stroke-width:0.0000; stroke-opacity:1; 
stroke-linecap:round; stroke-linejoin:round;fill-rule:evenodd;"
d="M 136.4000,79.3700
136.4000,77.3700
138.4000,77.3700
138.4000,79.3700
Z" /> 
<circle cx="152.4000" cy="78.3700" r="1.0000" /> 
</g>
<g >
</g>
<g style="fill:#FFFFFF; fill-opacity:1.0000; 
stroke:#FFFFFF; stroke-width:0.0000; stroke-opacity:1; 
stroke-linecap:round; stroke-linejoin:round;">
<path style="fill:#FFFFFF; fill-opacity:1.0000; 
stroke:#FFFFFF; stroke-width:0.0000; stroke-opacity:1; 
stroke-linecap:round; stroke-linejoin:round;fill-rule:evenodd;"
d="M 136.4000,72.8350
136.4000,70.8350
138.4000,70.8350
138.4000,72.8350
Z" /> 
<circle cx="152.4000" cy="71.8350" r="1.0000" /> 
</g>
<g >
</g>
<g style="fill:#FFFFFF; fill-opacity:1.0000; 
stroke:#FFFFFF; stroke-width:0.0000; stroke-opacity:1; 
stroke-linecap:round; stroke-linejoin:round;">
<circle cx="154.9721" cy="86.1157" r="0.4000" /> 
</g>
<g style="fill:#FFFFFF; fill-opacity:1.0000; 
stroke:#FFFFFF; stroke-width:0.0212; stroke-opacity:1; 
stroke-linecap:round; stroke-linejoin:round;">
</g>
<g style="fill:#FFFFFF; fill-opacity:1.0000; 
stroke:#FFFFFF; stroke-width:0.0000; stroke-opacity:1; 
stroke-linecap:round; stroke-linejoin:round;">
<circle cx="152.4000" cy="94.9000" r="0.4000" /> 
</g>
<g style="fill:#FFFFFF; fill-opacity:1.0000; 
stroke:#FFFFFF; stroke-width:0.0212; stroke-opacity:1; 
stroke-linecap:round; stroke-linejoin:round;">
</g>
<g style="fill:#FFFFFF; fill-opacity:1.0000; 
stroke:#FFFFFF; stroke-width:0.0000; stroke-opacity:1; 
stroke-linecap:round; stroke-linejoin:round;">
<circle cx="155.6789" cy="86.8225" r="0.4000" /> 
</g>
<g style="fill:#FFFFFF; fill-opacity:1.0000; 
stroke:#FFFFFF; stroke-width:0.0212; stroke-opacity:1; 
stroke-linecap:round; stroke-linejoin:round;">
</g>
<g style="fill:#FFFFFF; fill-opacity:1.0000; 
stroke:#FFFFFF; stroke-width:0.0000; stroke-opacity:1; 
stroke-linecap:round; stroke-linejoin:round;">
<circle cx="154.1004" cy="81.2800" r="0.4000" /> 
</g>
<g style="fill:#FFFFFF; fill-opacity:1.0000; 
stroke:#FFFFFF; stroke-width:0.0212; stroke-opacity:1; 
stroke-linecap:round; stroke-linejoin:round;">
</g>
<g style="fill:#FFFFFF; fill-opacity:1.0000; 
stroke:#FFFFFF; stroke-width:0.0000; stroke-opacity:1; 
stroke-linecap:round; stroke-linejoin:round;">
<circle cx="164.8850" cy="96.1300" r="0.4000" /> 
</g>
<g style="fill:#FFFFFF; fill-opacity:1.0000; 
stroke:#FFFFFF; stroke-width:0.0212; stroke-opacity:1; 
stroke-linecap:round; stroke-linejoin:round;">
</g>
<g style="fill:#FFFFFF; fill-opacity:1.0000; 
stroke:#FFFFFF; stroke-width:0.0000; stroke-opacity:1; 
stroke-linecap:round; stroke-linejoin:round;">
<circle cx="165.1927" cy="86.5995" r="0.4000" /> 
</g>
<g style="fill:#FFFFFF; fill-opacity:1.0000; 
stroke:#FFFFFF; stroke-width:0.0212; stroke-opacity:1; 
stroke-linecap:round; stroke-linejoin:round;">
</g>
<g style="fill:#FFFFFF; fill-opacity:1.0000; 
stroke:#FFFFFF; stroke-width:0.0000; stroke-opacity:1; 
stroke-linecap:round; stroke-linejoin:round;">
<circle cx="162.5600" cy="96.5200" r="0.4000" /> 
</g>
<g style="fill:#FFFFFF; fill-opacity:1.0000; 
stroke:#FFFFFF; stroke-width:0.0212; stroke-opacity:1; 
stroke-linecap:round; stroke-linejoin:round;">
</g>
<g style="fill:#FFFFFF; fill-opacity:1.0000; 
stroke:#FFFFFF; stroke-width:0.0000; stroke-opacity:1; 
stroke-linecap:round; stroke-linejoin:round;">
<circle cx="157.4800" cy="87.2995" r="0.4000" /> 
</g>
<g style="fill:#FFFFFF; fill-opacity:1.0000; 
stroke:#FFFFFF; stroke-width:0.0212; stroke-opacity:1; 
stroke-linecap:round; stroke-linejoin:round;">
</g>
<g style="fill:#FFFFFF; fill-opacity:1.0000; 
stroke:#FFFFFF; stroke-width:0.0000; stroke-opacity:1; 
stroke-linecap:round; stroke-linejoin:round;">
<circle cx="160.0200" cy="85.6005" r="0.4000" /> 
</g>
<g style="fill:#FFFFFF; fill-opacity:1.0000; 
stroke:#FFFFFF; stroke-width:0.0212; stroke-opacity:1; 
stroke-linecap:round; stroke-linejoin:round;">
</g>
<g style="fill:#FFFFFF; fill-opacity:1.0000; 
stroke:#FFFFFF; stroke-width:0.0000; stroke-opacity:1; 
stroke-linecap:round; stroke-linejoin:round;">
<circle cx="165.0962" cy="67.8005" r="0.4000" /> 
</g>
<g style="fill:#FFFFFF; fill-opacity:1.0000; 
stroke:#FFFFFF; stroke-width:0.0212; stroke-opacity:1; 
stroke-linecap:round; stroke-linejoin:round;">
</g>
<g style="fill:#FFFFFF; fill-opacity:1.0000; 
stroke:#FFFFFF; stroke-width:0.0000; stroke-opacity:1; 
stroke-linecap:round; stroke-linejoin:round;">
<circle cx="154.9400" cy="71.1200" r="0.4000" /> 
</g>
<g style="fill:#FFFFFF; fill-opacity:1.0000; 
stroke:#FFFFFF; stroke-width:0.0212; stroke-opacity:1; 
stroke-linecap:round; stroke-linejoin:round;">
</g>
<g style="fill:#FFFFFF; fill-opacity:1.0000; 
stroke:#FFFFFF; stroke-width:0.0000; stroke-opacity:1; 
stroke-linecap:round; stroke-linejoin:round;">
<circle cx="134.6200" cy="99.0600" r="0.4000" /> 
</g>
<g style="fill:#FFFFFF; fill-opacity:1.0000; 
stroke:#FFFFFF; stroke-width:0.0212; stroke-opacity:1; 
stroke-linecap:round; stroke-linejoin:round;">
</g>
<g style="fill:#FFFFFF; fill-opacity:1.0000; 
stroke:#FFFFFF; stroke-width:0.0000; stroke-opacity:1; 
stroke-linecap:round; stroke-linejoin:round;">
<circle cx="162.5600" cy="88.5155" r="0.4000" /> 
</g>
<g style="fill:#FFFFFF; fill-opacity:1.0000; 
stroke:#FFFFFF; stroke-width:0.0212; stroke-opacity:1; 
stroke-linecap:round; stroke-linejoin:round;">
</g>
<g style="fill:#FFFFFF; fill-opacity:1.0000; 
stroke:#FFFFFF; stroke-width:0.0000; stroke-opacity:1; 
stroke-linecap:round; stroke-linejoin:round;">
<circle cx="162.5600" cy="91.4845" r="0.4000" /> 
</g>
<g style="fill:#FFFFFF; fill-opacity:1.0000; 
stroke:#FFFFFF; stroke-width:0.0212; stroke-opacity:1; 
stroke-linecap:round; stroke-linejoin:round;">
</g>
<g style="fill:#FFFFFF; fill-opacity:1.0000; 
stroke:#FFFFFF; stroke-width:0.0000; stroke-opacity:1; 
stroke-linecap:round; stroke-linejoin:round;">
<circle cx="134.6200" cy="93.9800" r="0.4000" /> 
</g>
<g style="fill:#FFFFFF; fill-opacity:1.0000; 
stroke:#FFFFFF; stroke-width:0.0212; stroke-opacity:1; 
stroke-linecap:round; stroke-linejoin:round;">
</g>
<g style="fill:#FFFFFF; fill-opacity:1.0000; 
stroke:#FFFFFF; stroke-width:0.0000; stroke-opacity:1; 
stroke-linecap:round; stroke-linejoin:round;">
<circle cx="142.2400" cy="93.9800" r="0.4000" /> 
</g>
<g style="fill:#FFFFFF; fill-opacity:1.0000; 
stroke:#FFFFFF; stroke-width:0.0212; stroke-opacity:1; 
stroke-linecap:round; stroke-linejoin:round;">
</g>
<g >
</g>
<g >
</g>
<g style="fill:#FFFFFF; fill-opacity:1.0000; 
stroke:#FFFFFF; stroke-width:0.0212; stroke-opacity:1; 
stroke-linecap:round; stroke-linejoin:round;">
<g >
</g>
<g style="fill:#FFFFFF; fill-opacity:1.0000; 
stroke:#FFFFFF; stroke-width:0.0000; stroke-opacity:1; 
stroke-linecap:round; stroke-linejoin:round;">
<path style="fill:#FFFFFF; fill-opacity:1.0000; 
stroke:#FFFFFF; stroke-width:0.0000; stroke-opacity:1; 
stroke-linecap:round; stroke-linejoin:round;fill-rule:evenodd;"
d="M 175.2025,66.0602
175.2483,66.1130
175.2595,66.1645
175.2595,106.5555
175.2398,106.6225
175.1870,106.6683
175.1355,106.6795
132.2045,106.6795
132.1375,106.6598
132.0917,106.6070
132.0805,106.5555
132.0805,99.0600
133.7145,99.0600
133.7343,99.2483
133.7928,99.4283
133.8875,99.5922
134.0141,99.7329
134.1673,99.8442
134.3402,99.9211
134.5254,99.9605
134.5254,99.9605
134.7146,99.9605
134.8381,99.9343
134.8998,99.9211
135.0727,99.8442
135.2259,99.7329
135.3414,99.6046
151.3995,99.6046
151.3995,99.6079
151.4059,99.6675
151.4562,99.8023
151.5425,99.9175
151.6577,100.0038
151.7925,100.0541
151.8521,100.0605
152.9479,100.0605
153.0075,100.0541
153.1423,100.0038
153.2575,99.9175
153.3438,99.8023
153.3941,99.6675
153.4005,99.6079
153.4005,99.6046
153.9395,99.6046
153.9395,99.6079
153.9459,99.6675
153.9962,99.8023
154.0825,99.9175
154.1977,100.0038
154.3325,100.0541
154.3921,100.0605
155.4879,100.0605
155.5475,100.0541
155.6823,100.0038
155.7975,99.9175
155.8838,99.8023
155.9341,99.6675
155.9405,99.6079
155.9405,98.5121
155.9341,98.4525
155.8838,98.3177
155.7975,98.2025
155.6823,98.1162
155.5475,98.0659
155.4879,98.0595
155.4845,98.0595
154.3954,98.0595
154.3954,98.0595
154.3921,98.0595
154.3888,98.0599
154.3888,98.0599
154.3325,98.0659
154.1977,98.1162
154.0825,98.2025
153.9962,98.3177
153.9459,98.4525
153.9459,98.4525
153.9395,98.5121
153.9395,98.5154
153.9395,98.5154
153.9395,99.6046
153.9395,99.6046
153.4005,99.6046
153.4005,98.5121
153.3941,98.4525
153.3438,98.3177
153.2575,98.2025
153.1423,98.1162
153.0075,98.0659
152.9479,98.0595
152.9445,98.0595
151.8554,98.0595
151.8554,98.0595
151.8521,98.0595
151.8488,98.0599
151.8488,98.0599
151.7925,98.0659
151.6577,98.1162
151.5425,98.2025
151.4562,98.3177
151.4059,98.4525
151.4059,98.4525
151.3995,98.5121
151.3995,98.5154
151.3995,98.5154
151.3995,99.6046
151.3995,99.6046
135.3414,99.6046
135.3525,99.5922
135.4472,99.4283
135.5057,99.2483
135.5255,99.0600
135.5057,98.8717
135.4472,98.6917
135.4472,98.6917
135.3525,98.5278
135.2259,98.3871
135.0727,98.2758
134.8998,98.1989
134.7146,98.1595
134.7146,98.1595
134.5254,98.1595
134.5254,98.1595
134.3402,98.1989
134.1673,98.2758
134.0141,98.3871
133.8875,98.5278
133.7928,98.6917
133.7343,98.8717
133.7145,99.0600
132.0805,99.0600
132.0805,96.5200
161.6545,96.5200
161.6743,96.7083
161.7328,96.8883
161.8275,97.0522
161.9541,97.1929
162.1073,97.3042
162.2802,97.3811
162.4654,97.4205
162.4654,97.4205
162.6546,97.4205
162.7781,97.3943
162.8398,97.3811
163.0127,97.3042
163.1659,97.1929
163.2925,97.0522
163.3872,96.8883
163.4457,96.7083
163.4655,96.5200
163.4457,96.3317
163.3872,96.1517
163.3872,96.1517
163.3746,96.1300
163.9795,96.1300
163.9993,96.3183
164.0578,96.4983
164.1525,96.6622
164.2791,96.8029
164.4323,96.9142
164.6052,96.9911
164.7904,97.0305
164.7904,97.0305
164.9796,97.0305
165.1031,97.0043
165.1648,96.9911
165.3377,96.9142
165.4909,96.8029
165.6175,96.6622
165.7122,96.4983
165.7707,96.3183
165.7905,96.1300
165.7707,95.9417
165.7122,95.7617
165.7122,95.7617
165.6175,95.5978
165.4909,95.4571
165.3377,95.3458
165.1648,95.2689
164.9796,95.2295
164.9796,95.2295
164.7904,95.2295
164.7904,95.2295
164.6052,95.2689
164.4323,95.3458
164.2791,95.4571
164.1525,95.5978
164.0578,95.7617
163.9993,95.9417
163.9795,96.1300
163.3746,96.1300
163.2925,95.9878
163.1659,95.8471
163.0127,95.7358
162.8398,95.6589
162.6546,95.6195
162.6546,95.6195
162.4654,95.6195
162.4654,95.6195
162.2802,95.6589
162.1073,95.7358
161.9541,95.8471
161.8275,95.9878
161.7328,96.1517
161.6743,96.3317
161.6545,96.5200
132.0805,96.5200
132.0805,94.9000
151.4945,94.9000
151.5143,95.0883
151.5728,95.2683
151.6675,95.4322
151.7941,95.5729
151.9473,95.6842
152.1202,95.7611
152.3054,95.8005
152.3054,95.8005
152.4946,95.8005
152.6181,95.7743
152.6798,95.7611
152.8527,95.6842
152.9417,95.6195
153.0059,95.5729
153.1325,95.4322
153.2272,95.2683
153.2398,95.2295
153.2857,95.0883
153.3055,94.9000
153.2857,94.7117
153.2272,94.5317
153.2272,94.5317
153.1325,94.3678
153.0059,94.2271
152.8527,94.1158
152.6798,94.0389
152.4946,93.9995
152.4946,93.9995
152.3054,93.9995
152.3054,93.9995
152.1202,94.0389
151.9473,94.1158
151.7941,94.2271
151.6675,94.3678
151.5728,94.5317
151.5143,94.7117
151.4945,94.9000
132.0805,94.9000
132.0805,92.4846
135.8995,92.4846
135.8995,92.4879
135.9059,92.5475
135.9562,92.6823
136.0425,92.7975
136.1577,92.8838
136.2925,92.9341
136.3521,92.9405
138.4479,92.9405
138.5075,92.9341
138.6423,92.8838
138.7575,92.7975
138.8438,92.6823
138.8941,92.5475
138.9005,92.4879
138.9005,91.6900
150.9160,91.6900
150.9764,91.9287
151.0763,92.1564
151.2122,92.3645
151.3806,92.5474
151.5768,92.7001
151.7954,92.8184
152.0305,92.8991
152.1500,92.9190
152.1500,92.9190
152.1500,91.8755
152.2577,91.9247
152.3642,91.9400
152.4358,91.9400
152.5423,91.9247
152.6500,91.8755
152.6500,92.9190
152.7695,92.8991
153.0046,92.8184
153.2232,92.7001
153.4194,92.5474
153.5878,92.3645
153.7237,92.1564
153.7704,92.0500
163.9500,92.0500
163.9500,92.3445
163.9504,92.3511
163.9564,92.4074
164.0066,92.5421
164.0928,92.6572
164.2079,92.7434
164.3426,92.7936
164.3989,92.7996
164.4055,92.8000
164.7000,92.8000
164.7000,92.0500
163.9500,92.0500
153.7704,92.0500
153.8236,91.9287
153.8488,91.8293
164.5964,91.8293
164.6250,91.9425
164.6889,92.0403
164.7811,92.1121
164.8916,92.1500
164.9790,92.1500
165.0652,92.1356
165.1679,92.0800
165.1956,92.0500
165.2000,92.0500
165.2000,92.8000
165.4945,92.8000
165.5011,92.7996
165.5574,92.7936
165.6921,92.7434
165.8072,92.6572
165.8934,92.5421
165.9436,92.4074
165.9496,92.3511
165.9500,92.3445
165.9500,92.0500
165.2000,92.0500
165.1956,92.0500
165.2471,91.9941
165.2940,91.8871
165.3036,91.7707
165.2750,91.6575
165.2111,91.5597
165.1189,91.4879
165.0084,91.4500
164.9210,91.4500
164.8348,91.4644
164.7321,91.5200
164.6529,91.6059
164.6060,91.7129
164.5964,91.8293
153.8488,91.8293
153.8840,91.6900
152.8337,91.6900
152.8595,91.6498
152.8888,91.5500
163.9500,91.5500
164.7000,91.5500
164.7000,90.8000
165.2000,90.8000
165.2000,91.5500
165.9500,91.5500
165.9500,91.2555
165.9496,91.2489
165.9436,91.1926
165.8934,91.0579
165.8072,90.9428
165.6921,90.8566
165.5574,90.8064
165.5011,90.8004
165.4945,90.8000
165.2000,90.8000
164.7000,90.8000
164.4055,90.8000
164.3989,90.8004
164.3426,90.8064
164.2079,90.8566
164.0928,90.9428
164.0066,91.0579
163.9564,91.1926
163.9504,91.2489
163.9500,91.2555
163.9500,91.5500
152.8888,91.5500
152.9000,91.5119
152.9000,91.3681
152.8595,91.2302
152.8337,91.1900
153.8840,91.1900
153.8236,90.9513
153.7237,90.7236
153.5878,90.5155
153.4194,90.3326
153.2232,90.1799
153.0046,90.0616
152.7695,89.9809
152.6500,89.9610
152.6500,91.0045
152.5423,90.9553
152.4358,90.9400
152.3642,90.9400
152.2577,90.9553
152.1500,91.0045
152.1500,89.9610
152.1500,89.9610
152.0305,89.9809
151.7954,90.0616
151.5768,90.1799
151.3806,90.3326
151.2122,90.5155
151.0763,90.7236
150.9764,90.9513
150.9160,91.1900
151.9663,91.1900
151.9405,91.2302
151.9000,91.3681
151.9000,91.5119
151.9405,91.6498
151.9663,91.6900
150.9160,91.6900
138.9005,91.6900
138.9005,90.3921
138.8941,90.3325
138.8438,90.1977
138.7575,90.0825
138.6423,89.9962
138.5075,89.9459
138.4479,89.9395
138.4445,89.9395
136.3554,89.9395
136.3554,89.9395
136.3521,89.9395
136.3488,89.9399
136.3488,89.9399
136.2925,89.9459
136.1577,89.9962
136.0425,90.0825
135.9562,90.1977
135.9059,90.3325
135.9059,90.3325
135.8995,90.3921
135.8995,90.3954
135.8995,90.3954
135.8995,92.4846
135.8995,92.4846
132.0805,92.4846
132.0805,88.9946
163.9495,88.9946
163.9495,88.9979
163.9559,89.0575
164.0062,89.1923
164.0925,89.3075
164.2077,89.3938
164.3425,89.4441
164.4021,89.4505
165.4979,89.4505
165.5575,89.4441
165.6923,89.3938
165.8075,89.3075
165.8938,89.1923
165.9441,89.0575
165.9505,88.9979
165.9505,87.9021
165.9441,87.8425
165.8938,87.7077
165.8075,87.5925
165.7208,87.5275
165.6789,87.4716
165.6739,87.4019
165.7074,87.3405
165.7222,87.3279
165.7986,87.2724
165.9253,87.1317
166.0199,86.9678
166.0784,86.7878
166.0982,86.5995
166.0784,86.4112
166.0391,86.2903
166.0199,86.2312
165.9253,86.0673
165.7986,85.9266
165.6455,85.8153
165.4725,85.7384
165.2874,85.6990
165.2874,85.6990
165.0981,85.6990
165.0981,85.6990
164.9129,85.7384
164.7400,85.8153
164.5869,85.9266
164.4602,86.0673
164.3656,86.2312
164.3071,86.4112
164.2873,86.5995
164.2873,86.5995
164.2937,86.6607
164.3071,86.7878
164.3656,86.9678
164.4602,87.1317
164.4602,87.1317
164.5600,87.2425
164.5902,87.3055
164.5816,87.3749
164.5368,87.4285
164.4702,87.4495
164.4678,87.4495
164.4054,87.4495
164.4054,87.4495
164.4021,87.4495
164.3988,87.4499
164.3988,87.4499
164.3425,87.4559
164.2077,87.5062
164.0925,87.5925
164.0062,87.7077
163.9559,87.8425
163.9559,87.8425
163.9495,87.9021
163.9495,87.9054
163.9495,87.9054
163.9495,88.9946
163.9495,88.9946
132.0805,88.9946
132.0805,85.9496
135.8995,85.9496
135.8995,85.9529
135.8999,85.9562
135.8999,85.9562
135.9059,86.0125
135.9156,86.0383
135.9562,86.1473
136.0425,86.2625
136.1577,86.3488
136.2925,86.3991
136.3521,86.4055
138.4479,86.4055
138.5075,86.3991
138.6423,86.3488
138.7575,86.2625
138.8438,86.1473
138.8941,86.0125
138.9005,85.9529
138.9005,84.9050
150.8944,84.9050
150.9149,85.1528
150.9149,85.1528
150.9149,85.1528
150.9759,85.3939
151.0210,85.4965
151.0758,85.6216
151.0758,85.6216
151.2118,85.8298
151.3803,86.0127
151.3803,86.0127
151.5765,86.1655
151.5765,86.1655
151.5765,86.1655
151.7952,86.2838
152.0304,86.3646
152.2757,86.4055
152.5243,86.4055
152.7696,86.3646
153.0048,86.2838
153.2235,86.1655
153.2874,86.1157
154.0667,86.1157
154.0864,86.3040
154.1449,86.4840
154.2396,86.6480
154.3662,86.7886
154.5194,86.8999
154.6923,86.9769
154.6923,86.9769
154.6923,86.9769
154.7188,86.9825
154.7803,87.0157
154.8110,87.0655
154.8517,87.1908
154.9463,87.3547
155.0730,87.4954
155.2261,87.6067
155.3991,87.6836
155.5842,87.7230
155.5842,87.7230
155.7735,87.7230
155.8970,87.6968
155.9587,87.6836
156.1316,87.6067
156.1511,87.5925
156.2847,87.4954
156.3261,87.4495
156.3763,87.3937
156.4358,87.3570
156.5057,87.3584
156.5637,87.3972
156.5915,87.4613
156.5918,87.4637
156.5943,87.4878
156.6528,87.6678
156.7475,87.8317
156.8741,87.9724
157.0273,88.0837
157.2002,88.1606
157.3854,88.2000
157.3854,88.2000
157.5746,88.2000
157.6981,88.1738
157.7598,88.1606
157.9327,88.0837
158.0859,87.9724
158.2125,87.8317
158.3072,87.6678
158.3657,87.4878
158.3855,87.2995
158.3657,87.1112
158.3330,87.0108
158.3072,86.9312
158.2125,86.7673
158.0859,86.6266
157.9327,86.5153
157.7598,86.4384
157.5746,86.3990
157.5746,86.3990
157.3854,86.3990
157.3854,86.3990
157.2002,86.4384
157.0273,86.5153
156.8741,86.6266
156.7825,86.7283
156.7231,86.7650
156.6532,86.7636
156.5952,86.7248
156.5673,86.6607
156.5671,86.6584
156.5645,86.6342
156.5342,86.5409
156.5061,86.4542
156.4114,86.2903
156.2847,86.1496
156.1316,86.0383
155.9754,85.9688
155.9587,85.9614
155.9403,85.9575
155.9322,85.9557
155.8707,85.9225
155.8400,85.8727
155.8260,85.8298
155.7993,85.7475
155.7993,85.7475
155.7145,85.6005
159.1145,85.6005
159.1343,85.7888
159.1928,85.9688
159.2875,86.1327
159.4141,86.2734
159.5673,86.3847
159.7402,86.4616
159.9254,86.5010
159.9254,86.5010
160.1146,86.5010
160.2381,86.4748
160.2998,86.4616
160.4727,86.3847
160.5837,86.3040
160.6259,86.2734
160.7525,86.1327
160.8472,85.9688
160.8472,85.9688
160.9057,85.7888
160.9255,85.6005
160.9057,85.4122
160.8545,85.2546
160.8472,85.2322
160.7525,85.0683
160.6259,84.9276
160.4727,84.8163
160.2998,84.7394
160.1146,84.7000
160.1146,84.7000
159.9254,84.7000
159.9254,84.7000
159.7402,84.7394
159.5673,84.8163
159.4141,84.9276
159.2875,85.0683
159.1928,85.2322
159.1343,85.4122
159.1145,85.6005
155.7145,85.6005
155.7047,85.5835
155.5780,85.4429
155.4249,85.3316
155.2519,85.2546
155.0668,85.2152
155.0668,85.2152
154.8775,85.2152
154.8775,85.2152
154.6923,85.2546
154.5194,85.3316
154.3662,85.4429
154.2396,85.5835
154.1449,85.7475
154.0864,85.9275
154.0667,86.1157
153.2874,86.1157
153.4197,86.0127
153.5882,85.8298
153.7242,85.6216
153.8241,85.3939
153.8851,85.1528
153.9056,84.9050
153.8851,84.6572
153.8241,84.4161
153.7242,84.1884
153.5882,83.9802
153.4197,83.7973
153.3976,83.7800
153.2235,83.6445
153.2235,83.6445
153.2235,83.6445
153.0048,83.5262
153.0048,83.5262
153.0048,83.5262
152.7696,83.4454
152.5243,83.4045
152.2757,83.4045
152.0304,83.4454
151.7952,83.5262
151.5765,83.6445
151.3803,83.7973
151.3803,83.7973
151.3803,83.7973
151.3221,83.8604
151.2118,83.9802
151.0758,84.1884
150.9759,84.4161
150.9149,84.6572
150.8944,84.9050
138.9005,84.9050
138.9005,83.8571
138.8941,83.7975
138.8438,83.6627
138.7575,83.5475
138.6423,83.4612
138.5075,83.4109
138.4479,83.4045
138.4445,83.4045
136.3554,83.4045
136.3554,83.4045
136.3521,83.4045
136.3488,83.4049
136.3488,83.4049
136.2925,83.4109
136.1577,83.4612
136.0425,83.5475
135.9562,83.6627
135.9059,83.7975
135.9059,83.7975
135.8995,83.8571
135.8995,83.8604
135.8995,83.8604
135.8995,85.9496
135.8995,85.9496
132.0805,85.9496
132.0805,81.2800
153.1949,81.2800
153.2147,81.4683
153.2732,81.6483
153.3679,81.8122
153.4945,81.9529
153.6477,82.0642
153.8206,82.1411
154.0057,82.1805
154.0057,82.1805
154.1950,82.1805
154.3185,82.1543
154.3802,82.1411
154.5531,82.0642
154.7063,81.9529
154.8329,81.8122
154.9276,81.6483
154.9861,81.4683
155.0058,81.2800
154.9861,81.0917
154.9276,80.9117
154.9276,80.9117
154.8329,80.7478
154.7063,80.6071
154.5531,80.4958
154.3802,80.4189
154.1950,80.3795
154.1950,80.3795
154.0057,80.3795
154.0057,80.3795
153.8206,80.4189
153.6477,80.4958
153.4945,80.6071
153.3679,80.7478
153.2732,80.9117
153.2147,81.0917
153.1949,81.2800
132.0805,81.2800
132.0805,79.4146
135.8995,79.4146
135.8995,79.4179
135.8999,79.4212
135.8999,79.4212
135.9059,79.4775
135.9311,79.5449
135.9562,79.6123
136.0425,79.7275
136.1577,79.8138
136.2925,79.8641
136.3521,79.8705
138.4479,79.8705
138.5075,79.8641
138.6423,79.8138
138.7575,79.7275
138.8438,79.6123
138.8941,79.4775
138.9005,79.4179
138.9005,78.3700
150.8944,78.3700
150.9149,78.6178
150.9149,78.6178
150.9149,78.6178
150.9759,78.8589
151.0210,78.9615
151.0758,79.0866
151.0758,79.0866
151.2118,79.2948
151.3803,79.4777
151.3803,79.4777
151.5765,79.6305
151.5765,79.6305
151.5765,79.6305
151.7952,79.7488
152.0304,79.8296
152.2757,79.8705
152.5243,79.8705
152.7696,79.8296
153.0048,79.7488
153.2235,79.6305
153.4197,79.4777
153.5882,79.2948
153.7242,79.0866
153.8241,78.8589
153.8851,78.6178
153.9056,78.3700
153.8851,78.1222
153.8241,77.8811
153.7242,77.6534
153.5882,77.4452
153.4197,77.2623
153.3976,77.2450
153.2235,77.1095
153.2235,77.1095
153.2235,77.1095
153.0048,76.9912
153.0048,76.9912
153.0048,76.9912
152.7696,76.9104
152.5243,76.8695
152.2757,76.8695
152.0304,76.9104
151.7952,76.9912
151.5765,77.1095
151.3803,77.2623
151.3803,77.2623
151.3803,77.2623
151.3221,77.3254
151.2118,77.4452
151.0758,77.6534
150.9759,77.8811
150.9149,78.1222
150.8944,78.3700
138.9005,78.3700
138.9005,77.3221
138.8941,77.2625
138.8438,77.1277
138.7575,77.0125
138.6423,76.9262
138.5075,76.8759
138.4479,76.8695
138.4445,76.8695
136.3554,76.8695
136.3554,76.8695
136.3521,76.8695
136.3488,76.8699
136.3488,76.8699
136.2925,76.8759
136.1577,76.9262
136.0425,77.0125
135.9562,77.1277
135.9059,77.2625
135.9059,77.2625
135.8995,77.3221
135.8995,77.3254
135.8995,77.3254
135.8995,79.4146
135.8995,79.4146
132.0805,79.4146
132.0805,72.8795
135.9000,72.8795
135.9004,72.8861
135.9064,72.9424
135.9566,73.0771
136.0428,73.1922
136.1579,73.2784
136.2926,73.3286
136.3489,73.3346
136.3555,73.3350
137.1500,73.3350
137.1500,72.2705
137.2577,72.3197
137.3642,72.3350
137.4358,72.3350
137.5423,72.3197
137.6500,72.2705
137.6500,73.3350
138.4445,73.3350
138.4511,73.3346
138.5074,73.3286
138.6421,73.2784
138.7572,73.1922
138.8434,73.0771
138.8936,72.9424
138.8996,72.8861
138.9000,72.8795
138.9000,72.0850
137.8337,72.0850
137.8595,72.0448
137.9000,71.9069
137.9000,71.8350
150.8944,71.8350
150.9149,72.0828
150.9149,72.0828
150.9149,72.0828
150.9759,72.3239
151.0210,72.4265
151.0758,72.5516
151.0758,72.5516
151.2118,72.7598
151.3803,72.9427
151.3803,72.9427
151.5765,73.0955
151.5765,73.0955
151.5765,73.0955
151.7952,73.2138
152.0304,73.2946
152.2757,73.3355
152.5243,73.3355
152.7696,73.2946
153.0048,73.2138
153.2235,73.0955
153.4197,72.9427
153.5882,72.7598
153.7242,72.5516
153.8241,72.3239
153.8851,72.0828
153.9056,71.8350
153.8851,71.5872
153.8821,71.5753
153.8847,71.5055
153.9247,71.4482
153.9893,71.4216
154.0580,71.4341
154.1091,71.4818
154.1097,71.4829
154.2075,71.6522
154.3341,71.7929
154.4873,71.9042
154.6602,71.9811
154.8454,72.0205
154.8454,72.0205
155.0346,72.0205
155.1581,71.9943
155.2198,71.9811
155.3927,71.9042
155.5459,71.7929
155.6725,71.6522
155.7672,71.4883
155.8257,71.3083
155.8455,71.1200
155.8257,70.9317
155.7672,70.7517
155.7672,70.7517
155.6725,70.5878
155.5459,70.4471
155.3927,70.3358
155.2198,70.2589
155.0346,70.2195
155.0346,70.2195
154.8454,70.2195
154.8454,70.2195
154.6602,70.2589
154.4873,70.3358
154.3341,70.4471
154.2075,70.5878
154.1128,70.7517
154.0543,70.9317
154.0345,71.1200
154.0488,71.2557
154.0362,71.3244
153.9885,71.3754
153.9208,71.3925
153.8545,71.3703
153.8119,71.3184
153.7249,71.1200
153.7242,71.1184
153.7242,71.1184
153.5882,70.9102
153.4197,70.7273
153.3976,70.7100
153.2235,70.5745
153.2235,70.5745
153.2235,70.5745
153.0048,70.4562
153.0048,70.4562
153.0048,70.4562
152.7696,70.3754
152.5243,70.3345
152.2757,70.3345
152.0304,70.3754
151.7952,70.4562
151.5765,70.5745
151.3803,70.7273
151.3803,70.7273
151.3803,70.7273
151.2118,70.9102
151.1665,70.9796
151.0758,71.1184
151.0156,71.2557
150.9759,71.3461
150.9501,71.4482
150.9149,71.5872
150.8944,71.8350
137.9000,71.8350
137.9000,71.7631
137.8595,71.6252
137.8337,71.5850
138.9000,71.5850
138.9000,70.7905
138.8996,70.7839
138.8936,70.7276
138.8434,70.5929
138.7572,70.4778
138.6421,70.3916
138.5074,70.3414
138.4511,70.3354
138.4445,70.3350
137.6500,70.3350
137.6500,71.3995
137.5423,71.3503
137.4358,71.3350
137.3642,71.3350
137.2577,71.3503
137.1500,71.3995
137.1500,70.3350
136.3555,70.3350
136.3489,70.3354
136.2926,70.3414
136.1579,70.3916
136.0428,70.4778
135.9566,70.5929
135.9064,70.7276
135.9004,70.7839
135.9000,70.7905
135.9000,71.5850
136.9663,71.5850
136.9405,71.6252
136.9000,71.7631
136.9000,71.9069
136.9405,72.0448
136.9663,72.0850
135.9000,72.0850
135.9000,72.8795
132.0805,72.8795
132.0805,67.8005
164.1908,67.8005
164.2105,67.9888
164.2690,68.1688
164.3637,68.3327
164.4903,68.4734
164.6435,68.5847
164.8164,68.6616
165.0016,68.7010
165.0016,68.7010
165.1909,68.7010
165.3143,68.6748
165.3760,68.6616
165.5489,68.5847
165.7021,68.4734
165.8287,68.3327
165.9234,68.1688
165.9819,67.9888
166.0017,67.8005
165.9819,67.6122
165.9234,67.4322
165.9234,67.4322
165.8287,67.2683
165.7021,67.1276
165.5489,67.0163
165.3760,66.9394
165.1909,66.9000
165.1909,66.9000
165.0016,66.9000
165.0016,66.9000
164.8164,66.9394
164.6435,67.0163
164.4903,67.1276
164.3637,67.2683
164.2690,67.4322
164.2105,67.6122
164.1908,67.8005
132.0805,67.8005
132.0805,66.1645
132.1002,66.0975
132.1530,66.0517
132.2045,66.0405
175.1355,66.0405
Z" /> 
</g>
</g>
</g>
<g style="fill:#000000; fill-opacity:1.0000; 
stroke:#000000; stroke-width:0.0000; stroke-opacity:1; 
stroke-linecap:round; stroke-linejoin:round;">
<circle cx="154.9721" cy="86.1157" r="0.1750" /> 
</g>
<g style="fill:#000000; fill-opacity:1.0000; 
stroke:#000000; stroke-width:0.0212; stroke-opacity:1; 
stroke-linecap:round; stroke-linejoin:round;">
</g>
<g style="fill:#000000; fill-opacity:1.0000; 
stroke:#000000; stroke-width:0.0000; stroke-opacity:1; 
stroke-linecap:round; stroke-linejoin:round;">
<circle cx="152.4000" cy="94.9000" r="0.1750" /> 
</g>
<g style="fill:#000000; fill-opacity:1.0000; 
stroke:#000000; stroke-width:0.0212; stroke-opacity:1; 
stroke-linecap:round; stroke-linejoin:round;">
</g>
<g style="fill:#000000; fill-opacity:1.0000; 
stroke:#000000; stroke-width:0.0000; stroke-opacity:1; 
stroke-linecap:round; stroke-linejoin:round;">
<circle cx="155.6789" cy="86.8225" r="0.1750" /> 
</g>
<g style="fill:#000000; fill-opacity:1.0000; 
stroke:#000000; stroke-width:0.0212; stroke-opacity:1; 
stroke-linecap:round; stroke-linejoin:round;">
</g>
<g style="fill:#000000; fill-opacity:1.0000; 
stroke:#000000; stroke-width:0.0000; stroke-opacity:1; 
stroke-linecap:round; stroke-linejoin:round;">
<circle cx="154.1004" cy="81.2800" r="0.1750" /> 
</g>
<g style="fill:#000000; fill-opacity:1.0000; 
stroke:#000000; stroke-width:0.0212; stroke-opacity:1; 
stroke-linecap:round; stroke-linejoin:round;">
</g>
<g style="fill:#000000; fill-opacity:1.0000; 
stroke:#000000; stroke-width:0.0000; stroke-opacity:1; 
stroke-linecap:round; stroke-linejoin:round;">
<circle cx="164.8850" cy="96.1300" r="0.1750" /> 
</g>
<g style="fill:#000000; fill-opacity:1.0000; 
stroke:#000000; stroke-width:0.0212; stroke-opacity:1; 
stroke-linecap:round; stroke-linejoin:round;">
</g>
<g style="fill:#000000; fill-opacity:1.0000; 
stroke:#000000; stroke-width:0.0000; stroke-opacity:1; 
stroke-linecap:round; stroke-linejoin:round;">
<circle cx="165.1927" cy="86.5995" r="0.1750" /> 
</g>
<g style="fill:#000000; fill-opacity:1.0000; 
stroke:#000000; stroke-width:0.0212; stroke-opacity:1; 
stroke-linecap:round; stroke-linejoin:round;">
</g>
<g style="fill:#000000; fill-opacity:1.0000; 
stroke:#000000; stroke-width:0.0000; stroke-opacity:1; 
stroke-linecap:round; stroke-linejoin:round;">
<circle cx="162.5600" cy="96.5200" r="0.1750" /> 
</g>
<g style="fill:#000000; fill-opacity:1.0000; 
stroke:#000000; stroke-width:0.0212; stroke-opacity:1; 
stroke-linecap:round; stroke-linejoin:round;">
</g>
<g style="fill:#000000; fill-opacity:1.0000; 
stroke:#000000; stroke-width:0.0000; stroke-opacity:1; 
stroke-linecap:round; stroke-linejoin:round;">
<circle cx="157.4800" cy="87.2995" r="0.1750" /> 
</g>
<g style="fill:#000000; fill-opacity:1.0000; 
stroke:#000000; stroke-width:0.0212; stroke-opacity:1; 
stroke-linecap:round; stroke-linejoin:round;">
</g>
<g style="fill:#000000; fill-opacity:1.0000; 
stroke:#000000; stroke-width:0.0000; stroke-opacity:1; 
stroke-linecap:round; stroke-linejoin:round;">
<circle cx="160.0200" cy="85.6005" r="0.1750" /> 
</g>
<g style="fill:#000000; fill-opacity:1.0000; 
stroke:#000000; stroke-width:0.0212; stroke-opacity:1; 
stroke-linecap:round; stroke-linejoin:round;">
</g>
<g style="fill:#000000; fill-opacity:1.0000; 
stroke:#000000; stroke-width:0.0000; stroke-opacity:1; 
stroke-linecap:round; stroke-linejoin:round;">
<circle cx="165.0962" cy="67.8005" r="0.1750" /> 
</g>
<g style="fill:#000000; fill-opacity:1.0000; 
stroke:#000000; stroke-width:0.0212; stroke-opacity:1; 
stroke-linecap:round; stroke-linejoin:round;">
</g>
<g style="fill:#000000; fill-opacity:1.0000; 
stroke:#000000; stroke-width:0.0000; stroke-opacity:1; 
stroke-linecap:round; stroke-linejoin:round;">
<circle cx="154.9400" cy="71.1200" r="0.1750" /> 
</g>
<g style="fill:#000000; fill-opacity:1.0000; 
stroke:#000000; stroke-width:0.0212; stroke-opacity:1; 
stroke-linecap:round; stroke-linejoin:round;">
</g>
<g style="fill:#000000; fill-opacity:1.0000; 
stroke:#000000; stroke-width:0.0000; stroke-opacity:1; 
stroke-linecap:round; stroke-linejoin:round;">
<circle cx="134.6200" cy="99.0600" r="0.1750" /> 
</g>
<g style="fill:#000000; fill-opacity:1.0000; 
stroke:#000000; stroke-width:0.0212; stroke-opacity:1; 
stroke-linecap:round; stroke-linejoin:round;">
</g>
<g style="fill:#000000; fill-opacity:1.0000; 
stroke:#000000; stroke-width:0.0000; stroke-opacity:1; 
stroke-linecap:round; stroke-linejoin:round;">
<circle cx="162.5600" cy="88.5155" r="0.1750" /> 
</g>
<g style="fill:#000000; fill-opacity:1.0000; 
stroke:#000000; stroke-width:0.0212; stroke-opacity:1; 
stroke-linecap:round; stroke-linejoin:round;">
</g>
<g style="fill:#000000; fill-opacity:1.0000; 
stroke:#000000; stroke-width:0.0000; stroke-opacity:1; 
stroke-linecap:round; stroke-linejoin:round;">
<circle cx="162.5600" cy="91.4845" r="0.1750" /> 
</g>
<g style="fill:#000000; fill-opacity:1.0000; 
stroke:#000000; stroke-width:0.0212; stroke-opacity:1; 
stroke-linecap:round; stroke-linejoin:round;">
</g>
<g style="fill:#000000; fill-opacity:1.0000; 
stroke:#000000; stroke-width:0.0000; stroke-opacity:1; 
stroke-linecap:round; stroke-linejoin:round;">
<circle cx="134.6200" cy="93.9800" r="0.1750" /> 
</g>
<g style="fill:#000000; fill-opacity:1.0000; 
stroke:#000000; stroke-width:0.0212; stroke-opacity:1; 
stroke-linecap:round; stroke-linejoin:round;">
</g>
<g style="fill:#000000; fill-opacity:1.0000; 
stroke:#000000; stroke-width:0.0000; stroke-opacity:1; 
stroke-linecap:round; stroke-linejoin:round;">
<circle cx="142.2400" cy="93.9800" r="0.1750" /> 
</g>
<g style="fill:#000000; fill-opacity:1.0000; 
stroke:#000000; stroke-width:0.0212; stroke-opacity:1; 
stroke-linecap:round; stroke-linejoin:round;">
</g>
<g style="fill:#000000; fill-opacity:1.0000; 
stroke:#000000; stroke-width:0.0000; stroke-opacity:1; 
stroke-linecap:round; stroke-linejoin:round;">
<circle cx="152.4000" cy="99.0600" r="0.1750" /> 
</g>
<g style="fill:#000000; fill-opacity:1.0000; 
stroke:#000000; stroke-width:0.0212; stroke-opacity:1; 
stroke-linecap:round; stroke-linejoin:round;">
</g>
<g style="fill:#000000; fill-opacity:1.0000; 
stroke:#000000; stroke-width:0.0000; stroke-opacity:1; 
stroke-linecap:round; stroke-linejoin:round;">
<circle cx="154.9400" cy="99.0600" r="0.1750" /> 
</g>
<g style="fill:#000000; fill-opacity:1.0000; 
stroke:#000000; stroke-width:0.0212; stroke-opacity:1; 
stroke-linecap:round; stroke-linejoin:round;">
</g>
<g style="fill:#000000; fill-opacity:1.0000; 
stroke:#000000; stroke-width:0.0000; stroke-opacity:1; 
stroke-linecap:round; stroke-linejoin:round;">
<circle cx="164.9500" cy="91.8000" r="0.1750" /> 
</g>
<g style="fill:#000000; fill-opacity:1.0000; 
stroke:#000000; stroke-width:0.0212; stroke-opacity:1; 
stroke-linecap:round; stroke-linejoin:round;">
</g>
<g style="fill:#000000; fill-opacity:1.0000; 
stroke:#000000; stroke-width:0.0000; stroke-opacity:1; 
stroke-linecap:round; stroke-linejoin:round;">
<circle cx="164.9500" cy="88.4500" r="0.1750" /> 
</g>
<g style="fill:#000000; fill-opacity:1.0000; 
stroke:#000000; stroke-width:0.0212; stroke-opacity:1; 
stroke-linecap:round; stroke-linejoin:round;">
</g>
<g style="fill:#000000; fill-opacity:1.0000; 
stroke:#000000; stroke-width:0.0000; stroke-opacity:1; 
stroke-linecap:round; stroke-linejoin:round;">
<circle cx="137.4000" cy="91.4400" r="0.1750" /> 
</g>
<g style="fill:#000000; fill-opacity:1.0000; 
stroke:#000000; stroke-width:0.0212; stroke-opacity:1; 
stroke-linecap:round; stroke-linejoin:round;">
</g>
<g style="fill:#000000; fill-opacity:1.0000; 
stroke:#000000; stroke-width:0.0000; stroke-opacity:1; 
stroke-linecap:round; stroke-linejoin:round;">
<circle cx="152.4000" cy="91.4400" r="0.1750" /> 
</g>
<g style="fill:#000000; fill-opacity:1.0000; 
stroke:#000000; stroke-width:0.0212; stroke-opacity:1; 
stroke-linecap:round; stroke-linejoin:round;">
</g>
<g style="fill:#000000; fill-opacity:1.0000; 
stroke:#000000; stroke-width:0.0000; stroke-opacity:1; 
stroke-linecap:round; stroke-linejoin:round;">
<circle cx="137.4000" cy="84.9050" r="0.1750" /> 
</g>
<g style="fill:#000000; fill-opacity:1.0000; 
stroke:#000000; stroke-width:0.0212; stroke-opacity:1; 
stroke-linecap:round; stroke-linejoin:round;">
</g>
<g style="fill:#000000; fill-opacity:1.0000; 
stroke:#000000; stroke-width:0.0000; stroke-opacity:1; 
stroke-linecap:round; stroke-linejoin:round;">
<circle cx="152.4000" cy="84.9050" r="0.1750" /> 
</g>
<g style="fill:#000000; fill-opacity:1.0000; 
stroke:#000000; stroke-width:0.0212; stroke-opacity:1; 
stroke-linecap:round; stroke-linejoin:round;">
</g>
<g style="fill:#000000; fill-opacity:1.0000; 
stroke:#000000; stroke-width:0.0000; stroke-opacity:1; 
stroke-linecap:round; stroke-linejoin:round;">
<circle cx="137.4000" cy="78.3700" r="0.1750" /> 
</g>
<g style="fill:#000000; fill-opacity:1.0000; 
stroke:#000000; stroke-width:0.0212; stroke-opacity:1; 
stroke-linecap:round; stroke-linejoin:round;">
</g>
<g style="fill:#000000; fill-opacity:1.0000; 
stroke:#000000; stroke-width:0.0000; stroke-opacity:1; 
stroke-linecap:round; stroke-linejoin:round;">
<circle cx="152.4000" cy="78.3700" r="0.1750" /> 
</g>
<g style="fill:#000000; fill-opacity:1.0000; 
stroke:#000000; stroke-width:0.0212; stroke-opacity:1; 
stroke-linecap:round; stroke-linejoin:round;">
</g>
<g style="fill:#000000; fill-opacity:1.0000; 
stroke:#000000; stroke-width:0.0000; stroke-opacity:1; 
stroke-linecap:round; stroke-linejoin:round;">
<circle cx="137.4000" cy="71.8350" r="0.1750" /> 
</g>
<g style="fill:#000000; fill-opacity:1.0000; 
stroke:#000000; stroke-width:0.0212; stroke-opacity:1; 
stroke-linecap:round; stroke-linejoin:round;">
</g>
<g style="fill:#000000; fill-opacity:1.0000; 
stroke:#000000; stroke-width:0.0000; stroke-opacity:1; 
stroke-linecap:round; stroke-linejoin:round;">
<circle cx="152.4000" cy="71.8350" r="0.1750" /> 
</g>
<g style="fill:#000000; fill-opacity:1.0000; 
stroke:#000000; stroke-width:0.0212; stroke-opacity:1; 
stroke-linecap:round; stroke-linejoin:round;">
</g>
<g style="fill:#FFFFFF; fill-opacity:1.0000; 
stroke:#FFFFFF; stroke-width:0.0212; stroke-opacity:1; 
stroke-linecap:round; stroke-linejoin:round;">
</g> 
</svg>
