<?xml version="1.0" standalone="no"?>
 <!DOCTYPE svg PUBLIC "-//W3C//DTD SVG 1.1//EN" 
 "http://www.w3.org/Graphics/SVG/1.1/DTD/svg11.dtd"> 
<svg
  xmlns:svg="http://www.w3.org/2000/svg"
  xmlns="http://www.w3.org/2000/svg"
  xmlns:xlink="http://www.w3.org/1999/xlink"
  version="1.1"
  width="297.0022mm" height="210.0072mm" viewBox="0.0000 0.0000 297.0022 210.0072">
<title>SVG Image created as Projeto final de EA075-F_Mask.svg date 2023/06/25 00:54:47 </title>
  <desc>Image generated by PCBNEW </desc>
<g style="fill:#000000; fill-opacity:1.0000;stroke:#000000; stroke-opacity:1.0000;
stroke-linecap:round; stroke-linejoin:round;"
 transform="translate(0 0) scale(1 1)">
</g>
<g style="fill:#000000; fill-opacity:0.0; 
stroke:#000000; stroke-width:0.0000; stroke-opacity:1; 
stroke-linecap:round; stroke-linejoin:round;">
</g>
<g style="fill:#000000; fill-opacity:1.0000; 
stroke:#000000; stroke-width:0.0212; stroke-opacity:1; 
stroke-linecap:round; stroke-linejoin:round;">
<rect x="127.030000" y="60.990000" width="53.280000" height="51.709048" rx="0.000000" />
</g>
<g style="fill:#FFFFFF; fill-opacity:1.0000; 
stroke:#FFFFFF; stroke-width:0.0212; stroke-opacity:1; 
stroke-linecap:round; stroke-linejoin:round;">
<g >
</g>
<g style="fill:#FFFFFF; fill-opacity:1.0000; 
stroke:#FFFFFF; stroke-width:0.0000; stroke-opacity:1; 
stroke-linecap:round; stroke-linejoin:round;">
<path style="fill:#FFFFFF; fill-opacity:1.0000; 
stroke:#FFFFFF; stroke-width:0.0000; stroke-opacity:1; 
stroke-linecap:round; stroke-linejoin:round;fill-rule:evenodd;"
d="M 157.2000,91.6000
157.2000,88.4000
159.6000,88.4000
159.6000,91.6000
Z" /> 
<path style="fill:#FFFFFF; fill-opacity:1.0000; 
stroke:#FFFFFF; stroke-width:0.0000; stroke-opacity:1; 
stroke-linecap:round; stroke-linejoin:round;fill-rule:evenodd;"
d="M 160.2500,87.9450
160.2614,87.8876
160.2939,87.8389
160.3426,87.8064
160.4000,87.7950
161.7000,87.7950
161.7574,87.8064
161.8061,87.8389
161.8386,87.8876
161.8500,87.9450
161.8500,88.2450
161.8386,88.3024
161.8061,88.3511
161.7574,88.3836
161.7000,88.3950
160.4000,88.3950
160.3426,88.3836
160.2939,88.3511
160.2614,88.3024
160.2500,88.2450
Z" /> 
<path style="fill:#FFFFFF; fill-opacity:1.0000; 
stroke:#FFFFFF; stroke-width:0.0000; stroke-opacity:1; 
stroke-linecap:round; stroke-linejoin:round;fill-rule:evenodd;"
d="M 160.2500,89.2150
160.2614,89.1576
160.2939,89.1089
160.3426,89.0764
160.4000,89.0650
161.7000,89.0650
161.7574,89.0764
161.8061,89.1089
161.8386,89.1576
161.8500,89.2150
161.8500,89.5150
161.8386,89.5724
161.8061,89.6211
161.7574,89.6536
161.7000,89.6650
160.4000,89.6650
160.3426,89.6536
160.2939,89.6211
160.2614,89.5724
160.2500,89.5150
Z" /> 
<path style="fill:#FFFFFF; fill-opacity:1.0000; 
stroke:#FFFFFF; stroke-width:0.0000; stroke-opacity:1; 
stroke-linecap:round; stroke-linejoin:round;fill-rule:evenodd;"
d="M 160.2500,90.4850
160.2614,90.4276
160.2939,90.3789
160.3426,90.3464
160.4000,90.3350
161.7000,90.3350
161.7574,90.3464
161.8061,90.3789
161.8386,90.4276
161.8500,90.4850
161.8500,90.7850
161.8386,90.8424
161.8061,90.8911
161.7574,90.9236
161.7000,90.9350
160.4000,90.9350
160.3426,90.9236
160.2939,90.8911
160.2614,90.8424
160.2500,90.7850
Z" /> 
<path style="fill:#FFFFFF; fill-opacity:1.0000; 
stroke:#FFFFFF; stroke-width:0.0000; stroke-opacity:1; 
stroke-linecap:round; stroke-linejoin:round;fill-rule:evenodd;"
d="M 160.2500,91.7550
160.2614,91.6976
160.2939,91.6489
160.3426,91.6164
160.4000,91.6050
161.7000,91.6050
161.7574,91.6164
161.8061,91.6489
161.8386,91.6976
161.8500,91.7550
161.8500,92.0550
161.8386,92.1124
161.8061,92.1611
161.7574,92.1936
161.7000,92.2050
160.4000,92.2050
160.3426,92.1936
160.2939,92.1611
160.2614,92.1124
160.2500,92.0550
Z" /> 
<path style="fill:#FFFFFF; fill-opacity:1.0000; 
stroke:#FFFFFF; stroke-width:0.0000; stroke-opacity:1; 
stroke-linecap:round; stroke-linejoin:round;fill-rule:evenodd;"
d="M 154.9500,91.7550
154.9614,91.6976
154.9939,91.6489
155.0426,91.6164
155.1000,91.6050
156.4000,91.6050
156.4574,91.6164
156.5061,91.6489
156.5386,91.6976
156.5500,91.7550
156.5500,92.0550
156.5386,92.1124
156.5061,92.1611
156.4574,92.1936
156.4000,92.2050
155.1000,92.2050
155.0426,92.1936
154.9939,92.1611
154.9614,92.1124
154.9500,92.0550
Z" /> 
<path style="fill:#FFFFFF; fill-opacity:1.0000; 
stroke:#FFFFFF; stroke-width:0.0000; stroke-opacity:1; 
stroke-linecap:round; stroke-linejoin:round;fill-rule:evenodd;"
d="M 154.9500,90.4850
154.9614,90.4276
154.9939,90.3789
155.0426,90.3464
155.1000,90.3350
156.4000,90.3350
156.4574,90.3464
156.5061,90.3789
156.5386,90.4276
156.5500,90.4850
156.5500,90.7850
156.5386,90.8424
156.5061,90.8911
156.4574,90.9236
156.4000,90.9350
155.1000,90.9350
155.0426,90.9236
154.9939,90.8911
154.9614,90.8424
154.9500,90.7850
Z" /> 
<path style="fill:#FFFFFF; fill-opacity:1.0000; 
stroke:#FFFFFF; stroke-width:0.0000; stroke-opacity:1; 
stroke-linecap:round; stroke-linejoin:round;fill-rule:evenodd;"
d="M 154.9500,89.2150
154.9614,89.1576
154.9939,89.1089
155.0426,89.0764
155.1000,89.0650
156.4000,89.0650
156.4574,89.0764
156.5061,89.1089
156.5386,89.1576
156.5500,89.2150
156.5500,89.5150
156.5386,89.5724
156.5061,89.6211
156.4574,89.6536
156.4000,89.6650
155.1000,89.6650
155.0426,89.6536
154.9939,89.6211
154.9614,89.5724
154.9500,89.5150
Z" /> 
<path style="fill:#FFFFFF; fill-opacity:1.0000; 
stroke:#FFFFFF; stroke-width:0.0000; stroke-opacity:1; 
stroke-linecap:round; stroke-linejoin:round;fill-rule:evenodd;"
d="M 154.9500,87.9450
154.9614,87.8876
154.9939,87.8389
155.0426,87.8064
155.1000,87.7950
156.4000,87.7950
156.4574,87.8064
156.5061,87.8389
156.5386,87.8876
156.5500,87.9450
156.5500,88.2450
156.5386,88.3024
156.5061,88.3511
156.4574,88.3836
156.4000,88.3950
155.1000,88.3950
155.0426,88.3836
154.9939,88.3511
154.9614,88.3024
154.9500,88.2450
Z" /> 
</g>
<g >
</g>
<g style="fill:#FFFFFF; fill-opacity:1.0000; 
stroke:#FFFFFF; stroke-width:0.0000; stroke-opacity:1; 
stroke-linecap:round; stroke-linejoin:round;">
<path style="fill:#FFFFFF; fill-opacity:1.0000; 
stroke:#FFFFFF; stroke-width:0.0000; stroke-opacity:1; 
stroke-linecap:round; stroke-linejoin:round;fill-rule:evenodd;"
d="M 163.5550,95.0300
163.5550,94.4300
164.2750,94.4300
164.2750,95.0300
Z" /> 
<path style="fill:#FFFFFF; fill-opacity:1.0000; 
stroke:#FFFFFF; stroke-width:0.0000; stroke-opacity:1; 
stroke-linecap:round; stroke-linejoin:round;fill-rule:evenodd;"
d="M 164.5250,95.0300
164.5250,94.4300
165.2450,94.4300
165.2450,95.0300
Z" /> 
<path style="fill:#FFFFFF; fill-opacity:1.0000; 
stroke:#FFFFFF; stroke-width:0.0000; stroke-opacity:1; 
stroke-linecap:round; stroke-linejoin:round;fill-rule:evenodd;"
d="M 165.4950,95.0300
165.4950,94.4300
166.2150,94.4300
166.2150,95.0300
Z" /> 
<path style="fill:#FFFFFF; fill-opacity:1.0000; 
stroke:#FFFFFF; stroke-width:0.0000; stroke-opacity:1; 
stroke-linecap:round; stroke-linejoin:round;fill-rule:evenodd;"
d="M 166.4650,95.0300
166.4650,94.4300
167.1850,94.4300
167.1850,95.0300
Z" /> 
<path style="fill:#FFFFFF; fill-opacity:1.0000; 
stroke:#FFFFFF; stroke-width:0.0000; stroke-opacity:1; 
stroke-linecap:round; stroke-linejoin:round;fill-rule:evenodd;"
d="M 166.4650,96.4300
166.4650,95.8300
167.1850,95.8300
167.1850,96.4300
Z" /> 
<path style="fill:#FFFFFF; fill-opacity:1.0000; 
stroke:#FFFFFF; stroke-width:0.0000; stroke-opacity:1; 
stroke-linecap:round; stroke-linejoin:round;fill-rule:evenodd;"
d="M 165.4950,96.4300
165.4950,95.8300
166.2150,95.8300
166.2150,96.4300
Z" /> 
<path style="fill:#FFFFFF; fill-opacity:1.0000; 
stroke:#FFFFFF; stroke-width:0.0000; stroke-opacity:1; 
stroke-linecap:round; stroke-linejoin:round;fill-rule:evenodd;"
d="M 164.5250,96.4300
164.5250,95.8300
165.2450,95.8300
165.2450,96.4300
Z" /> 
<path style="fill:#FFFFFF; fill-opacity:1.0000; 
stroke:#FFFFFF; stroke-width:0.0000; stroke-opacity:1; 
stroke-linecap:round; stroke-linejoin:round;fill-rule:evenodd;"
d="M 163.5550,96.4300
163.5550,95.8300
164.2750,95.8300
164.2750,96.4300
Z" /> 
</g>
<g >
</g>
<g style="fill:#FFFFFF; fill-opacity:1.0000; 
stroke:#FFFFFF; stroke-width:0.0000; stroke-opacity:1; 
stroke-linecap:round; stroke-linejoin:round;">
<path style="fill:#FFFFFF; fill-opacity:1.0000; 
stroke:#FFFFFF; stroke-width:0.0000; stroke-opacity:1; 
stroke-linecap:round; stroke-linejoin:round;fill-rule:evenodd;"
d="M 154.9500,71.8250
154.9500,71.2750
156.4500,71.2750
156.4500,71.8250
Z" /> 
<path style="fill:#FFFFFF; fill-opacity:1.0000; 
stroke:#FFFFFF; stroke-width:0.0000; stroke-opacity:1; 
stroke-linecap:round; stroke-linejoin:round;fill-rule:evenodd;"
d="M 154.9500,72.6250
154.9500,72.0750
156.4500,72.0750
156.4500,72.6250
Z" /> 
<path style="fill:#FFFFFF; fill-opacity:1.0000; 
stroke:#FFFFFF; stroke-width:0.0000; stroke-opacity:1; 
stroke-linecap:round; stroke-linejoin:round;fill-rule:evenodd;"
d="M 154.9500,73.4250
154.9500,72.8750
156.4500,72.8750
156.4500,73.4250
Z" /> 
<path style="fill:#FFFFFF; fill-opacity:1.0000; 
stroke:#FFFFFF; stroke-width:0.0000; stroke-opacity:1; 
stroke-linecap:round; stroke-linejoin:round;fill-rule:evenodd;"
d="M 154.9500,74.2250
154.9500,73.6750
156.4500,73.6750
156.4500,74.2250
Z" /> 
<path style="fill:#FFFFFF; fill-opacity:1.0000; 
stroke:#FFFFFF; stroke-width:0.0000; stroke-opacity:1; 
stroke-linecap:round; stroke-linejoin:round;fill-rule:evenodd;"
d="M 154.9500,75.0250
154.9500,74.4750
156.4500,74.4750
156.4500,75.0250
Z" /> 
<path style="fill:#FFFFFF; fill-opacity:1.0000; 
stroke:#FFFFFF; stroke-width:0.0000; stroke-opacity:1; 
stroke-linecap:round; stroke-linejoin:round;fill-rule:evenodd;"
d="M 154.9500,75.8250
154.9500,75.2750
156.4500,75.2750
156.4500,75.8250
Z" /> 
<path style="fill:#FFFFFF; fill-opacity:1.0000; 
stroke:#FFFFFF; stroke-width:0.0000; stroke-opacity:1; 
stroke-linecap:round; stroke-linejoin:round;fill-rule:evenodd;"
d="M 154.9500,76.6250
154.9500,76.0750
156.4500,76.0750
156.4500,76.6250
Z" /> 
<path style="fill:#FFFFFF; fill-opacity:1.0000; 
stroke:#FFFFFF; stroke-width:0.0000; stroke-opacity:1; 
stroke-linecap:round; stroke-linejoin:round;fill-rule:evenodd;"
d="M 154.9500,77.4250
154.9500,76.8750
156.4500,76.8750
156.4500,77.4250
Z" /> 
<path style="fill:#FFFFFF; fill-opacity:1.0000; 
stroke:#FFFFFF; stroke-width:0.0000; stroke-opacity:1; 
stroke-linecap:round; stroke-linejoin:round;fill-rule:evenodd;"
d="M 154.9500,78.2250
154.9500,77.6750
156.4500,77.6750
156.4500,78.2250
Z" /> 
<path style="fill:#FFFFFF; fill-opacity:1.0000; 
stroke:#FFFFFF; stroke-width:0.0000; stroke-opacity:1; 
stroke-linecap:round; stroke-linejoin:round;fill-rule:evenodd;"
d="M 154.9500,79.0250
154.9500,78.4750
156.4500,78.4750
156.4500,79.0250
Z" /> 
<path style="fill:#FFFFFF; fill-opacity:1.0000; 
stroke:#FFFFFF; stroke-width:0.0000; stroke-opacity:1; 
stroke-linecap:round; stroke-linejoin:round;fill-rule:evenodd;"
d="M 154.9500,79.8250
154.9500,79.2750
156.4500,79.2750
156.4500,79.8250
Z" /> 
<path style="fill:#FFFFFF; fill-opacity:1.0000; 
stroke:#FFFFFF; stroke-width:0.0000; stroke-opacity:1; 
stroke-linecap:round; stroke-linejoin:round;fill-rule:evenodd;"
d="M 154.9500,80.6250
154.9500,80.0750
156.4500,80.0750
156.4500,80.6250
Z" /> 
<path style="fill:#FFFFFF; fill-opacity:1.0000; 
stroke:#FFFFFF; stroke-width:0.0000; stroke-opacity:1; 
stroke-linecap:round; stroke-linejoin:round;fill-rule:evenodd;"
d="M 154.9500,81.4250
154.9500,80.8750
156.4500,80.8750
156.4500,81.4250
Z" /> 
<path style="fill:#FFFFFF; fill-opacity:1.0000; 
stroke:#FFFFFF; stroke-width:0.0000; stroke-opacity:1; 
stroke-linecap:round; stroke-linejoin:round;fill-rule:evenodd;"
d="M 154.9500,82.2250
154.9500,81.6750
156.4500,81.6750
156.4500,82.2250
Z" /> 
<path style="fill:#FFFFFF; fill-opacity:1.0000; 
stroke:#FFFFFF; stroke-width:0.0000; stroke-opacity:1; 
stroke-linecap:round; stroke-linejoin:round;fill-rule:evenodd;"
d="M 154.9500,83.0250
154.9500,82.4750
156.4500,82.4750
156.4500,83.0250
Z" /> 
<path style="fill:#FFFFFF; fill-opacity:1.0000; 
stroke:#FFFFFF; stroke-width:0.0000; stroke-opacity:1; 
stroke-linecap:round; stroke-linejoin:round;fill-rule:evenodd;"
d="M 154.9500,83.8250
154.9500,83.2750
156.4500,83.2750
156.4500,83.8250
Z" /> 
<path style="fill:#FFFFFF; fill-opacity:1.0000; 
stroke:#FFFFFF; stroke-width:0.0000; stroke-opacity:1; 
stroke-linecap:round; stroke-linejoin:round;fill-rule:evenodd;"
d="M 157.6750,86.0000
157.1250,86.0000
157.1250,84.5000
157.6750,84.5000
Z" /> 
<path style="fill:#FFFFFF; fill-opacity:1.0000; 
stroke:#FFFFFF; stroke-width:0.0000; stroke-opacity:1; 
stroke-linecap:round; stroke-linejoin:round;fill-rule:evenodd;"
d="M 158.4750,86.0000
157.9250,86.0000
157.9250,84.5000
158.4750,84.5000
Z" /> 
<path style="fill:#FFFFFF; fill-opacity:1.0000; 
stroke:#FFFFFF; stroke-width:0.0000; stroke-opacity:1; 
stroke-linecap:round; stroke-linejoin:round;fill-rule:evenodd;"
d="M 159.2750,86.0000
158.7250,86.0000
158.7250,84.5000
159.2750,84.5000
Z" /> 
<path style="fill:#FFFFFF; fill-opacity:1.0000; 
stroke:#FFFFFF; stroke-width:0.0000; stroke-opacity:1; 
stroke-linecap:round; stroke-linejoin:round;fill-rule:evenodd;"
d="M 160.0750,86.0000
159.5250,86.0000
159.5250,84.5000
160.0750,84.5000
Z" /> 
<path style="fill:#FFFFFF; fill-opacity:1.0000; 
stroke:#FFFFFF; stroke-width:0.0000; stroke-opacity:1; 
stroke-linecap:round; stroke-linejoin:round;fill-rule:evenodd;"
d="M 160.8750,86.0000
160.3250,86.0000
160.3250,84.5000
160.8750,84.5000
Z" /> 
<path style="fill:#FFFFFF; fill-opacity:1.0000; 
stroke:#FFFFFF; stroke-width:0.0000; stroke-opacity:1; 
stroke-linecap:round; stroke-linejoin:round;fill-rule:evenodd;"
d="M 161.6750,86.0000
161.1250,86.0000
161.1250,84.5000
161.6750,84.5000
Z" /> 
<path style="fill:#FFFFFF; fill-opacity:1.0000; 
stroke:#FFFFFF; stroke-width:0.0000; stroke-opacity:1; 
stroke-linecap:round; stroke-linejoin:round;fill-rule:evenodd;"
d="M 162.4750,86.0000
161.9250,86.0000
161.9250,84.5000
162.4750,84.5000
Z" /> 
<path style="fill:#FFFFFF; fill-opacity:1.0000; 
stroke:#FFFFFF; stroke-width:0.0000; stroke-opacity:1; 
stroke-linecap:round; stroke-linejoin:round;fill-rule:evenodd;"
d="M 163.2750,86.0000
162.7250,86.0000
162.7250,84.5000
163.2750,84.5000
Z" /> 
<path style="fill:#FFFFFF; fill-opacity:1.0000; 
stroke:#FFFFFF; stroke-width:0.0000; stroke-opacity:1; 
stroke-linecap:round; stroke-linejoin:round;fill-rule:evenodd;"
d="M 164.0750,86.0000
163.5250,86.0000
163.5250,84.5000
164.0750,84.5000
Z" /> 
<path style="fill:#FFFFFF; fill-opacity:1.0000; 
stroke:#FFFFFF; stroke-width:0.0000; stroke-opacity:1; 
stroke-linecap:round; stroke-linejoin:round;fill-rule:evenodd;"
d="M 164.8750,86.0000
164.3250,86.0000
164.3250,84.5000
164.8750,84.5000
Z" /> 
<path style="fill:#FFFFFF; fill-opacity:1.0000; 
stroke:#FFFFFF; stroke-width:0.0000; stroke-opacity:1; 
stroke-linecap:round; stroke-linejoin:round;fill-rule:evenodd;"
d="M 165.6750,86.0000
165.1250,86.0000
165.1250,84.5000
165.6750,84.5000
Z" /> 
<path style="fill:#FFFFFF; fill-opacity:1.0000; 
stroke:#FFFFFF; stroke-width:0.0000; stroke-opacity:1; 
stroke-linecap:round; stroke-linejoin:round;fill-rule:evenodd;"
d="M 166.4750,86.0000
165.9250,86.0000
165.9250,84.5000
166.4750,84.5000
Z" /> 
<path style="fill:#FFFFFF; fill-opacity:1.0000; 
stroke:#FFFFFF; stroke-width:0.0000; stroke-opacity:1; 
stroke-linecap:round; stroke-linejoin:round;fill-rule:evenodd;"
d="M 167.2750,86.0000
166.7250,86.0000
166.7250,84.5000
167.2750,84.5000
Z" /> 
<path style="fill:#FFFFFF; fill-opacity:1.0000; 
stroke:#FFFFFF; stroke-width:0.0000; stroke-opacity:1; 
stroke-linecap:round; stroke-linejoin:round;fill-rule:evenodd;"
d="M 168.0750,86.0000
167.5250,86.0000
167.5250,84.5000
168.0750,84.5000
Z" /> 
<path style="fill:#FFFFFF; fill-opacity:1.0000; 
stroke:#FFFFFF; stroke-width:0.0000; stroke-opacity:1; 
stroke-linecap:round; stroke-linejoin:round;fill-rule:evenodd;"
d="M 168.8750,86.0000
168.3250,86.0000
168.3250,84.5000
168.8750,84.5000
Z" /> 
<path style="fill:#FFFFFF; fill-opacity:1.0000; 
stroke:#FFFFFF; stroke-width:0.0000; stroke-opacity:1; 
stroke-linecap:round; stroke-linejoin:round;fill-rule:evenodd;"
d="M 169.6750,86.0000
169.1250,86.0000
169.1250,84.5000
169.6750,84.5000
Z" /> 
<path style="fill:#FFFFFF; fill-opacity:1.0000; 
stroke:#FFFFFF; stroke-width:0.0000; stroke-opacity:1; 
stroke-linecap:round; stroke-linejoin:round;fill-rule:evenodd;"
d="M 170.3500,83.8250
170.3500,83.2750
171.8500,83.2750
171.8500,83.8250
Z" /> 
<path style="fill:#FFFFFF; fill-opacity:1.0000; 
stroke:#FFFFFF; stroke-width:0.0000; stroke-opacity:1; 
stroke-linecap:round; stroke-linejoin:round;fill-rule:evenodd;"
d="M 170.3500,83.0250
170.3500,82.4750
171.8500,82.4750
171.8500,83.0250
Z" /> 
<path style="fill:#FFFFFF; fill-opacity:1.0000; 
stroke:#FFFFFF; stroke-width:0.0000; stroke-opacity:1; 
stroke-linecap:round; stroke-linejoin:round;fill-rule:evenodd;"
d="M 170.3500,82.2250
170.3500,81.6750
171.8500,81.6750
171.8500,82.2250
Z" /> 
<path style="fill:#FFFFFF; fill-opacity:1.0000; 
stroke:#FFFFFF; stroke-width:0.0000; stroke-opacity:1; 
stroke-linecap:round; stroke-linejoin:round;fill-rule:evenodd;"
d="M 170.3500,81.4250
170.3500,80.8750
171.8500,80.8750
171.8500,81.4250
Z" /> 
<path style="fill:#FFFFFF; fill-opacity:1.0000; 
stroke:#FFFFFF; stroke-width:0.0000; stroke-opacity:1; 
stroke-linecap:round; stroke-linejoin:round;fill-rule:evenodd;"
d="M 170.3500,80.6250
170.3500,80.0750
171.8500,80.0750
171.8500,80.6250
Z" /> 
<path style="fill:#FFFFFF; fill-opacity:1.0000; 
stroke:#FFFFFF; stroke-width:0.0000; stroke-opacity:1; 
stroke-linecap:round; stroke-linejoin:round;fill-rule:evenodd;"
d="M 170.3500,79.8250
170.3500,79.2750
171.8500,79.2750
171.8500,79.8250
Z" /> 
<path style="fill:#FFFFFF; fill-opacity:1.0000; 
stroke:#FFFFFF; stroke-width:0.0000; stroke-opacity:1; 
stroke-linecap:round; stroke-linejoin:round;fill-rule:evenodd;"
d="M 170.3500,79.0250
170.3500,78.4750
171.8500,78.4750
171.8500,79.0250
Z" /> 
<path style="fill:#FFFFFF; fill-opacity:1.0000; 
stroke:#FFFFFF; stroke-width:0.0000; stroke-opacity:1; 
stroke-linecap:round; stroke-linejoin:round;fill-rule:evenodd;"
d="M 170.3500,78.2250
170.3500,77.6750
171.8500,77.6750
171.8500,78.2250
Z" /> 
<path style="fill:#FFFFFF; fill-opacity:1.0000; 
stroke:#FFFFFF; stroke-width:0.0000; stroke-opacity:1; 
stroke-linecap:round; stroke-linejoin:round;fill-rule:evenodd;"
d="M 170.3500,77.4250
170.3500,76.8750
171.8500,76.8750
171.8500,77.4250
Z" /> 
<path style="fill:#FFFFFF; fill-opacity:1.0000; 
stroke:#FFFFFF; stroke-width:0.0000; stroke-opacity:1; 
stroke-linecap:round; stroke-linejoin:round;fill-rule:evenodd;"
d="M 170.3500,76.6250
170.3500,76.0750
171.8500,76.0750
171.8500,76.6250
Z" /> 
<path style="fill:#FFFFFF; fill-opacity:1.0000; 
stroke:#FFFFFF; stroke-width:0.0000; stroke-opacity:1; 
stroke-linecap:round; stroke-linejoin:round;fill-rule:evenodd;"
d="M 170.3500,75.8250
170.3500,75.2750
171.8500,75.2750
171.8500,75.8250
Z" /> 
<path style="fill:#FFFFFF; fill-opacity:1.0000; 
stroke:#FFFFFF; stroke-width:0.0000; stroke-opacity:1; 
stroke-linecap:round; stroke-linejoin:round;fill-rule:evenodd;"
d="M 170.3500,75.0250
170.3500,74.4750
171.8500,74.4750
171.8500,75.0250
Z" /> 
<path style="fill:#FFFFFF; fill-opacity:1.0000; 
stroke:#FFFFFF; stroke-width:0.0000; stroke-opacity:1; 
stroke-linecap:round; stroke-linejoin:round;fill-rule:evenodd;"
d="M 170.3500,74.2250
170.3500,73.6750
171.8500,73.6750
171.8500,74.2250
Z" /> 
<path style="fill:#FFFFFF; fill-opacity:1.0000; 
stroke:#FFFFFF; stroke-width:0.0000; stroke-opacity:1; 
stroke-linecap:round; stroke-linejoin:round;fill-rule:evenodd;"
d="M 170.3500,73.4250
170.3500,72.8750
171.8500,72.8750
171.8500,73.4250
Z" /> 
<path style="fill:#FFFFFF; fill-opacity:1.0000; 
stroke:#FFFFFF; stroke-width:0.0000; stroke-opacity:1; 
stroke-linecap:round; stroke-linejoin:round;fill-rule:evenodd;"
d="M 170.3500,72.6250
170.3500,72.0750
171.8500,72.0750
171.8500,72.6250
Z" /> 
<path style="fill:#FFFFFF; fill-opacity:1.0000; 
stroke:#FFFFFF; stroke-width:0.0000; stroke-opacity:1; 
stroke-linecap:round; stroke-linejoin:round;fill-rule:evenodd;"
d="M 170.3500,71.8250
170.3500,71.2750
171.8500,71.2750
171.8500,71.8250
Z" /> 
<path style="fill:#FFFFFF; fill-opacity:1.0000; 
stroke:#FFFFFF; stroke-width:0.0000; stroke-opacity:1; 
stroke-linecap:round; stroke-linejoin:round;fill-rule:evenodd;"
d="M 169.6750,70.6000
169.1250,70.6000
169.1250,69.1000
169.6750,69.1000
Z" /> 
<path style="fill:#FFFFFF; fill-opacity:1.0000; 
stroke:#FFFFFF; stroke-width:0.0000; stroke-opacity:1; 
stroke-linecap:round; stroke-linejoin:round;fill-rule:evenodd;"
d="M 168.8750,70.6000
168.3250,70.6000
168.3250,69.1000
168.8750,69.1000
Z" /> 
<path style="fill:#FFFFFF; fill-opacity:1.0000; 
stroke:#FFFFFF; stroke-width:0.0000; stroke-opacity:1; 
stroke-linecap:round; stroke-linejoin:round;fill-rule:evenodd;"
d="M 168.0750,70.6000
167.5250,70.6000
167.5250,69.1000
168.0750,69.1000
Z" /> 
<path style="fill:#FFFFFF; fill-opacity:1.0000; 
stroke:#FFFFFF; stroke-width:0.0000; stroke-opacity:1; 
stroke-linecap:round; stroke-linejoin:round;fill-rule:evenodd;"
d="M 167.2750,70.6000
166.7250,70.6000
166.7250,69.1000
167.2750,69.1000
Z" /> 
<path style="fill:#FFFFFF; fill-opacity:1.0000; 
stroke:#FFFFFF; stroke-width:0.0000; stroke-opacity:1; 
stroke-linecap:round; stroke-linejoin:round;fill-rule:evenodd;"
d="M 166.4750,70.6000
165.9250,70.6000
165.9250,69.1000
166.4750,69.1000
Z" /> 
<path style="fill:#FFFFFF; fill-opacity:1.0000; 
stroke:#FFFFFF; stroke-width:0.0000; stroke-opacity:1; 
stroke-linecap:round; stroke-linejoin:round;fill-rule:evenodd;"
d="M 165.6750,70.6000
165.1250,70.6000
165.1250,69.1000
165.6750,69.1000
Z" /> 
<path style="fill:#FFFFFF; fill-opacity:1.0000; 
stroke:#FFFFFF; stroke-width:0.0000; stroke-opacity:1; 
stroke-linecap:round; stroke-linejoin:round;fill-rule:evenodd;"
d="M 164.8750,70.6000
164.3250,70.6000
164.3250,69.1000
164.8750,69.1000
Z" /> 
<path style="fill:#FFFFFF; fill-opacity:1.0000; 
stroke:#FFFFFF; stroke-width:0.0000; stroke-opacity:1; 
stroke-linecap:round; stroke-linejoin:round;fill-rule:evenodd;"
d="M 164.0750,70.6000
163.5250,70.6000
163.5250,69.1000
164.0750,69.1000
Z" /> 
<path style="fill:#FFFFFF; fill-opacity:1.0000; 
stroke:#FFFFFF; stroke-width:0.0000; stroke-opacity:1; 
stroke-linecap:round; stroke-linejoin:round;fill-rule:evenodd;"
d="M 163.2750,70.6000
162.7250,70.6000
162.7250,69.1000
163.2750,69.1000
Z" /> 
<path style="fill:#FFFFFF; fill-opacity:1.0000; 
stroke:#FFFFFF; stroke-width:0.0000; stroke-opacity:1; 
stroke-linecap:round; stroke-linejoin:round;fill-rule:evenodd;"
d="M 162.4750,70.6000
161.9250,70.6000
161.9250,69.1000
162.4750,69.1000
Z" /> 
<path style="fill:#FFFFFF; fill-opacity:1.0000; 
stroke:#FFFFFF; stroke-width:0.0000; stroke-opacity:1; 
stroke-linecap:round; stroke-linejoin:round;fill-rule:evenodd;"
d="M 161.6750,70.6000
161.1250,70.6000
161.1250,69.1000
161.6750,69.1000
Z" /> 
<path style="fill:#FFFFFF; fill-opacity:1.0000; 
stroke:#FFFFFF; stroke-width:0.0000; stroke-opacity:1; 
stroke-linecap:round; stroke-linejoin:round;fill-rule:evenodd;"
d="M 160.8750,70.6000
160.3250,70.6000
160.3250,69.1000
160.8750,69.1000
Z" /> 
<path style="fill:#FFFFFF; fill-opacity:1.0000; 
stroke:#FFFFFF; stroke-width:0.0000; stroke-opacity:1; 
stroke-linecap:round; stroke-linejoin:round;fill-rule:evenodd;"
d="M 160.0750,70.6000
159.5250,70.6000
159.5250,69.1000
160.0750,69.1000
Z" /> 
<path style="fill:#FFFFFF; fill-opacity:1.0000; 
stroke:#FFFFFF; stroke-width:0.0000; stroke-opacity:1; 
stroke-linecap:round; stroke-linejoin:round;fill-rule:evenodd;"
d="M 159.2750,70.6000
158.7250,70.6000
158.7250,69.1000
159.2750,69.1000
Z" /> 
<path style="fill:#FFFFFF; fill-opacity:1.0000; 
stroke:#FFFFFF; stroke-width:0.0000; stroke-opacity:1; 
stroke-linecap:round; stroke-linejoin:round;fill-rule:evenodd;"
d="M 158.4750,70.6000
157.9250,70.6000
157.9250,69.1000
158.4750,69.1000
Z" /> 
<path style="fill:#FFFFFF; fill-opacity:1.0000; 
stroke:#FFFFFF; stroke-width:0.0000; stroke-opacity:1; 
stroke-linecap:round; stroke-linejoin:round;fill-rule:evenodd;"
d="M 157.6750,70.6000
157.1250,70.6000
157.1250,69.1000
157.6750,69.1000
Z" /> 
</g>
<g >
</g>
<g style="fill:#FFFFFF; fill-opacity:1.0000; 
stroke:#FFFFFF; stroke-width:0.0000; stroke-opacity:1; 
stroke-linecap:round; stroke-linejoin:round;">
<path style="fill:#FFFFFF; fill-opacity:1.0000; 
stroke:#FFFFFF; stroke-width:0.0000; stroke-opacity:1; 
stroke-linecap:round; stroke-linejoin:round;fill-rule:evenodd;"
d="M 136.3500,95.7150
136.3538,95.6959
136.3646,95.6796
136.3809,95.6688
136.4000,95.6650
137.2300,95.6650
137.2491,95.6688
137.2654,95.6796
137.2762,95.6959
137.2800,95.7150
137.2800,96.1150
137.2762,96.1341
137.2654,96.1504
137.2491,96.1612
137.2300,96.1650
136.4000,96.1650
136.3809,96.1612
136.3646,96.1504
136.3538,96.1341
136.3500,96.1150
Z" /> 
<path style="fill:#FFFFFF; fill-opacity:1.0000; 
stroke:#FFFFFF; stroke-width:0.0000; stroke-opacity:1; 
stroke-linecap:round; stroke-linejoin:round;fill-rule:evenodd;"
d="M 136.3500,96.3650
136.3538,96.3459
136.3646,96.3296
136.3809,96.3188
136.4000,96.3150
137.2300,96.3150
137.2491,96.3188
137.2654,96.3296
137.2762,96.3459
137.2800,96.3650
137.2800,96.7650
137.2762,96.7841
137.2654,96.8004
137.2491,96.8112
137.2300,96.8150
136.4000,96.8150
136.3809,96.8112
136.3646,96.8004
136.3538,96.7841
136.3500,96.7650
Z" /> 
<path style="fill:#FFFFFF; fill-opacity:1.0000; 
stroke:#FFFFFF; stroke-width:0.0000; stroke-opacity:1; 
stroke-linecap:round; stroke-linejoin:round;fill-rule:evenodd;"
d="M 136.3500,97.0150
136.3538,96.9959
136.3646,96.9796
136.3809,96.9688
136.4000,96.9650
137.2300,96.9650
137.2491,96.9688
137.2654,96.9796
137.2762,96.9959
137.2800,97.0150
137.2800,97.4150
137.2762,97.4341
137.2654,97.4504
137.2491,97.4612
137.2300,97.4650
136.4000,97.4650
136.3809,97.4612
136.3646,97.4504
136.3538,97.4341
136.3500,97.4150
Z" /> 
<path style="fill:#FFFFFF; fill-opacity:1.0000; 
stroke:#FFFFFF; stroke-width:0.0000; stroke-opacity:1; 
stroke-linecap:round; stroke-linejoin:round;fill-rule:evenodd;"
d="M 136.3500,97.6650
136.3538,97.6459
136.3646,97.6296
136.3809,97.6188
136.4000,97.6150
137.2300,97.6150
137.2491,97.6188
137.2654,97.6296
137.2762,97.6459
137.2800,97.6650
137.2800,98.0650
137.2762,98.0841
137.2654,98.1004
137.2491,98.1112
137.2300,98.1150
136.4000,98.1150
136.3809,98.1112
136.3646,98.1004
136.3538,98.0841
136.3500,98.0650
Z" /> 
<path style="fill:#FFFFFF; fill-opacity:1.0000; 
stroke:#FFFFFF; stroke-width:0.0000; stroke-opacity:1; 
stroke-linecap:round; stroke-linejoin:round;fill-rule:evenodd;"
d="M 140.3354,95.6796
140.3500,95.7150
140.3500,96.1150
140.3354,96.1504
140.3000,96.1650
139.7300,96.1650
139.7300,96.3150
140.3000,96.3150
140.3354,96.3296
140.3500,96.3650
140.3500,96.7650
140.3354,96.8004
140.3000,96.8150
139.7300,96.8150
139.7300,96.9650
140.3000,96.9650
140.3354,96.9796
140.3500,97.0150
140.3500,97.4150
140.3354,97.4504
140.3000,97.4650
139.7300,97.4650
139.7300,97.6150
140.3000,97.6150
140.3354,97.6296
140.3500,97.6650
140.3500,98.0650
140.3354,98.1004
140.3000,98.1150
139.6800,98.1150
139.6446,98.1004
139.6300,98.0650
137.8300,98.0650
137.7946,98.0504
137.7800,98.0150
137.7800,95.7650
137.7946,95.7296
137.8300,95.7150
139.6300,95.7150
139.6446,95.6796
139.6800,95.6650
140.3000,95.6650
Z" /> 
</g>
<g >
</g>
<g style="fill:#FFFFFF; fill-opacity:1.0000; 
stroke:#FFFFFF; stroke-width:0.0000; stroke-opacity:1; 
stroke-linecap:round; stroke-linejoin:round;">
<path style="fill:#FFFFFF; fill-opacity:1.0000; 
stroke:#FFFFFF; stroke-width:0.0000; stroke-opacity:1; 
stroke-linecap:round; stroke-linejoin:round;fill-rule:evenodd;"
d="M 151.9000,98.5600
152.9000,98.5600
152.9000,99.5600
151.9000,99.5600
Z" /> 
</g>
<g >
</g>
<g style="fill:#FFFFFF; fill-opacity:1.0000; 
stroke:#FFFFFF; stroke-width:0.0000; stroke-opacity:1; 
stroke-linecap:round; stroke-linejoin:round;">
<path style="fill:#FFFFFF; fill-opacity:1.0000; 
stroke:#FFFFFF; stroke-width:0.0000; stroke-opacity:1; 
stroke-linecap:round; stroke-linejoin:round;fill-rule:evenodd;"
d="M 154.4400,98.5600
155.4400,98.5600
155.4400,99.5600
154.4400,99.5600
Z" /> 
</g>
<g >
</g>
<g style="fill:#FFFFFF; fill-opacity:1.0000; 
stroke:#FFFFFF; stroke-width:0.0000; stroke-opacity:1; 
stroke-linecap:round; stroke-linejoin:round;">
<path style="fill:#FFFFFF; fill-opacity:1.0000; 
stroke:#FFFFFF; stroke-width:0.0000; stroke-opacity:1; 
stroke-linecap:round; stroke-linejoin:round;fill-rule:evenodd;"
d="M 164.4500,92.3000
164.4500,91.3000
165.4500,91.3000
165.4500,92.3000
Z" /> 
</g>
<g >
</g>
<g style="fill:#FFFFFF; fill-opacity:1.0000; 
stroke:#FFFFFF; stroke-width:0.0000; stroke-opacity:1; 
stroke-linecap:round; stroke-linejoin:round;">
<path style="fill:#FFFFFF; fill-opacity:1.0000; 
stroke:#FFFFFF; stroke-width:0.0000; stroke-opacity:1; 
stroke-linecap:round; stroke-linejoin:round;fill-rule:evenodd;"
d="M 164.4500,88.9500
164.4500,87.9500
165.4500,87.9500
165.4500,88.9500
Z" /> 
</g>
<g >
</g>
<g style="fill:#FFFFFF; fill-opacity:1.0000; 
stroke:#FFFFFF; stroke-width:0.0000; stroke-opacity:1; 
stroke-linecap:round; stroke-linejoin:round;">
<path style="fill:#FFFFFF; fill-opacity:1.0000; 
stroke:#FFFFFF; stroke-width:0.0000; stroke-opacity:1; 
stroke-linecap:round; stroke-linejoin:round;fill-rule:evenodd;"
d="M 136.4000,92.4400
136.4000,90.4400
138.4000,90.4400
138.4000,92.4400
Z" /> 
<circle cx="152.4000" cy="91.4400" r="1.0000" /> 
</g>
<g >
</g>
<g style="fill:#FFFFFF; fill-opacity:1.0000; 
stroke:#FFFFFF; stroke-width:0.0000; stroke-opacity:1; 
stroke-linecap:round; stroke-linejoin:round;">
<path style="fill:#FFFFFF; fill-opacity:1.0000; 
stroke:#FFFFFF; stroke-width:0.0000; stroke-opacity:1; 
stroke-linecap:round; stroke-linejoin:round;fill-rule:evenodd;"
d="M 136.4000,85.9050
136.4000,83.9050
138.4000,83.9050
138.4000,85.9050
Z" /> 
<circle cx="152.4000" cy="84.9050" r="1.0000" /> 
</g>
<g >
</g>
<g style="fill:#FFFFFF; fill-opacity:1.0000; 
stroke:#FFFFFF; stroke-width:0.0000; stroke-opacity:1; 
stroke-linecap:round; stroke-linejoin:round;">
<path style="fill:#FFFFFF; fill-opacity:1.0000; 
stroke:#FFFFFF; stroke-width:0.0000; stroke-opacity:1; 
stroke-linecap:round; stroke-linejoin:round;fill-rule:evenodd;"
d="M 136.4000,79.3700
136.4000,77.3700
138.4000,77.3700
138.4000,79.3700
Z" /> 
<circle cx="152.4000" cy="78.3700" r="1.0000" /> 
</g>
<g >
</g>
<g style="fill:#FFFFFF; fill-opacity:1.0000; 
stroke:#FFFFFF; stroke-width:0.0000; stroke-opacity:1; 
stroke-linecap:round; stroke-linejoin:round;">
<path style="fill:#FFFFFF; fill-opacity:1.0000; 
stroke:#FFFFFF; stroke-width:0.0000; stroke-opacity:1; 
stroke-linecap:round; stroke-linejoin:round;fill-rule:evenodd;"
d="M 136.4000,72.8350
136.4000,70.8350
138.4000,70.8350
138.4000,72.8350
Z" /> 
<circle cx="152.4000" cy="71.8350" r="1.0000" /> 
</g>
<g >
</g>
<g >
</g>
<g >
</g>
</g> 
</svg>
