<?xml version="1.0" standalone="no"?>
 <!DOCTYPE svg PUBLIC "-//W3C//DTD SVG 1.1//EN" 
 "http://www.w3.org/Graphics/SVG/1.1/DTD/svg11.dtd"> 
<svg
  xmlns:svg="http://www.w3.org/2000/svg"
  xmlns="http://www.w3.org/2000/svg"
  xmlns:xlink="http://www.w3.org/1999/xlink"
  version="1.1"
  width="297.0022mm" height="210.0072mm" viewBox="0.0000 0.0000 297.0022 210.0072">
<title>SVG Image created as Projeto final de EA075-F_Silkscreen.svg date 2023/06/25 00:54:47 </title>
  <desc>Image generated by PCBNEW </desc>
<g style="fill:#000000; fill-opacity:1.0000;stroke:#000000; stroke-opacity:1.0000;
stroke-linecap:round; stroke-linejoin:round;"
 transform="translate(0 0) scale(1 1)">
</g>
<g style="fill:#000000; fill-opacity:0.0; 
stroke:#000000; stroke-width:0.0000; stroke-opacity:1; 
stroke-linecap:round; stroke-linejoin:round;">
</g>
<g style="fill:#000000; fill-opacity:1.0000; 
stroke:#000000; stroke-width:0.0212; stroke-opacity:1; 
stroke-linecap:round; stroke-linejoin:round;">
<rect x="127.030000" y="60.990000" width="53.280000" height="51.709048" rx="0.000000" />
</g>
<g style="fill:#FFFFFF; fill-opacity:1.0000; 
stroke:#FFFFFF; stroke-width:0.0212; stroke-opacity:1; 
stroke-linecap:round; stroke-linejoin:round;">
</g>
<g style="fill:#FFFFFF; fill-opacity:1.0000; 
stroke:#FFFFFF; stroke-width:0.1500; stroke-opacity:1; 
stroke-linecap:round; stroke-linejoin:round;">
</g>
<g style="fill:#FFFFFF; fill-opacity:0.0; 
stroke:#FFFFFF; stroke-width:0.1500; stroke-opacity:1; 
stroke-linecap:round; stroke-linejoin:round;">
<text x="162.5600" y="94.4800"
textLength="2.1750" font-size="1.3333" lengthAdjust="spacingAndGlyphs"
text-anchor="middle" opacity="0">U3</text>
<g class="stroked-text"><desc>U3</desc>
<path d="M161.7981 93.4426
L161.7981 94.2521
" />
<path d="M161.7981 94.2521
L161.8457 94.3474
" />
<path d="M161.8457 94.3474
L161.8933 94.3950
" />
<path d="M161.8933 94.3950
L161.9886 94.4426
" />
<path d="M161.9886 94.4426
L162.1790 94.4426
" />
<path d="M162.1790 94.4426
L162.2743 94.3950
" />
<path d="M162.2743 94.3950
L162.3219 94.3474
" />
<path d="M162.3219 94.3474
L162.3695 94.2521
" />
<path d="M162.3695 94.2521
L162.3695 93.4426
" />
<path d="M162.7505 93.4426
L163.3695 93.4426
" />
<path d="M163.3695 93.4426
L163.0362 93.8236
" />
<path d="M163.0362 93.8236
L163.1790 93.8236
" />
<path d="M163.1790 93.8236
L163.2743 93.8712
" />
<path d="M163.2743 93.8712
L163.3219 93.9188
" />
<path d="M163.3219 93.9188
L163.3695 94.0140
" />
<path d="M163.3695 94.0140
L163.3695 94.2521
" />
<path d="M163.3695 94.2521
L163.3219 94.3474
" />
<path d="M163.3219 94.3474
L163.2743 94.3950
" />
<path d="M163.2743 94.3950
L163.1790 94.4426
" />
<path d="M163.1790 94.4426
L162.8933 94.4426
" />
<path d="M162.8933 94.4426
L162.7981 94.3950
" />
<path d="M162.7981 94.3950
L162.7505 94.3474
" />
</g><text x="165.3700" y="93.9300"
textLength="2.1750" font-size="1.3333" lengthAdjust="spacingAndGlyphs"
text-anchor="middle" opacity="0">U2</text>
<g class="stroked-text"><desc>U2</desc>
<path d="M164.6081 92.8926
L164.6081 93.7021
" />
<path d="M164.6081 93.7021
L164.6557 93.7974
" />
<path d="M164.6557 93.7974
L164.7033 93.8450
" />
<path d="M164.7033 93.8450
L164.7986 93.8926
" />
<path d="M164.7986 93.8926
L164.9890 93.8926
" />
<path d="M164.9890 93.8926
L165.0843 93.8450
" />
<path d="M165.0843 93.8450
L165.1319 93.7974
" />
<path d="M165.1319 93.7974
L165.1795 93.7021
" />
<path d="M165.1795 93.7021
L165.1795 92.8926
" />
<path d="M165.6081 92.9879
L165.6557 92.9402
" />
<path d="M165.6557 92.9402
L165.7510 92.8926
" />
<path d="M165.7510 92.8926
L165.9890 92.8926
" />
<path d="M165.9890 92.8926
L166.0843 92.9402
" />
<path d="M166.0843 92.9402
L166.1319 92.9879
" />
<path d="M166.1319 92.9879
L166.1795 93.0831
" />
<path d="M166.1795 93.0831
L166.1795 93.1783
" />
<path d="M166.1795 93.1783
L166.1319 93.3212
" />
<path d="M166.1319 93.3212
L165.5605 93.8926
" />
<path d="M165.5605 93.8926
L166.1795 93.8926
" />
</g><text x="163.4000" y="68.6000"
textLength="2.1750" font-size="1.3333" lengthAdjust="spacingAndGlyphs"
text-anchor="middle" opacity="0">U1</text>
<g class="stroked-text"><desc>U1</desc>
<path d="M162.6381 67.5626
L162.6381 68.3721
" />
<path d="M162.6381 68.3721
L162.6857 68.4674
" />
<path d="M162.6857 68.4674
L162.7333 68.5150
" />
<path d="M162.7333 68.5150
L162.8286 68.5626
" />
<path d="M162.8286 68.5626
L163.0190 68.5626
" />
<path d="M163.0190 68.5626
L163.1143 68.5150
" />
<path d="M163.1143 68.5150
L163.1619 68.4674
" />
<path d="M163.1619 68.4674
L163.2095 68.3721
" />
<path d="M163.2095 68.3721
L163.2095 67.5626
" />
<path d="M164.2095 68.5626
L163.6381 68.5626
" />
<path d="M163.9238 68.5626
L163.9238 67.5626
" />
<path d="M163.9238 67.5626
L163.8286 67.7055
" />
<path d="M163.8286 67.7055
L163.7333 67.8007
" />
<path d="M163.7333 67.8007
L163.6381 67.8483
" />
</g><text x="138.3500" y="94.8400"
textLength="2.1750" font-size="1.3333" lengthAdjust="spacingAndGlyphs"
text-anchor="middle" opacity="0">Q1</text>
<g class="stroked-text"><desc>Q1</desc>
<path d="M138.2548 94.8979
L138.1595 94.8502
" />
<path d="M138.1595 94.8502
L138.0643 94.7550
" />
<path d="M138.0643 94.7550
L137.9214 94.6121
" />
<path d="M137.9214 94.6121
L137.8262 94.5645
" />
<path d="M137.8262 94.5645
L137.7310 94.5645
" />
<path d="M137.7786 94.8026
L137.6833 94.7550
" />
<path d="M137.6833 94.7550
L137.5881 94.6598
" />
<path d="M137.5881 94.6598
L137.5405 94.4693
" />
<path d="M137.5405 94.4693
L137.5405 94.1360
" />
<path d="M137.5405 94.1360
L137.5881 93.9455
" />
<path d="M137.5881 93.9455
L137.6833 93.8502
" />
<path d="M137.6833 93.8502
L137.7786 93.8026
" />
<path d="M137.7786 93.8026
L137.9690 93.8026
" />
<path d="M137.9690 93.8026
L138.0643 93.8502
" />
<path d="M138.0643 93.8502
L138.1595 93.9455
" />
<path d="M138.1595 93.9455
L138.2071 94.1360
" />
<path d="M138.2071 94.1360
L138.2071 94.4693
" />
<path d="M138.2071 94.4693
L138.1595 94.6598
" />
<path d="M138.1595 94.6598
L138.0643 94.7550
" />
<path d="M138.0643 94.7550
L137.9690 94.8026
" />
<path d="M137.9690 94.8026
L137.7786 94.8026
" />
<path d="M139.1595 94.8026
L138.5881 94.8026
" />
<path d="M138.8738 94.8026
L138.8738 93.8026
" />
<path d="M138.8738 93.8026
L138.7786 93.9455
" />
<path d="M138.7786 93.9455
L138.6833 94.0407
" />
<path d="M138.6833 94.0407
L138.5881 94.0883
" />
</g><g transform="rotate(-90.000000 154.0350 101.4925)">
<text x="154.0350" y="101.9925"
textLength="1.8893" font-size="1.3333" lengthAdjust="spacingAndGlyphs"
text-anchor="middle" opacity="0">J4</text>
</g>
<g class="stroked-text"><desc>J4</desc>
<path d="M153.4976 101.8258
L154.2119 101.8258
" />
<path d="M154.2119 101.8258
L154.3548 101.8735
" />
<path d="M154.3548 101.8735
L154.4500 101.9687
" />
<path d="M154.4500 101.9687
L154.4976 102.1115
" />
<path d="M154.4976 102.1115
L154.4976 102.2068
" />
<path d="M153.8310 100.9211
L154.4976 100.9211
" />
<path d="M153.4500 101.1592
L154.1643 101.3973
" />
<path d="M154.1643 101.3973
L154.1643 100.7782
" />
</g><g transform="rotate(-90.000000 156.5750 101.4925)">
<text x="156.5750" y="101.9925"
textLength="1.8893" font-size="1.3333" lengthAdjust="spacingAndGlyphs"
text-anchor="middle" opacity="0">J3</text>
</g>
<g class="stroked-text"><desc>J3</desc>
<path d="M156.0376 101.8258
L156.7519 101.8258
" />
<path d="M156.7519 101.8258
L156.8948 101.8735
" />
<path d="M156.8948 101.8735
L156.9900 101.9687
" />
<path d="M156.9900 101.9687
L157.0376 102.1115
" />
<path d="M157.0376 102.1115
L157.0376 102.2068
" />
<path d="M156.0376 101.4449
L156.0376 100.8258
" />
<path d="M156.0376 100.8258
L156.4186 101.1592
" />
<path d="M156.4186 101.1592
L156.4186 101.0163
" />
<path d="M156.4186 101.0163
L156.4662 100.9211
" />
<path d="M156.4662 100.9211
L156.5138 100.8735
" />
<path d="M156.5138 100.8735
L156.6090 100.8258
" />
<path d="M156.6090 100.8258
L156.8471 100.8258
" />
<path d="M156.8471 100.8258
L156.9424 100.8735
" />
<path d="M156.9424 100.8735
L156.9900 100.9211
" />
<path d="M156.9900 100.9211
L157.0376 101.0163
" />
<path d="M157.0376 101.0163
L157.0376 101.3020
" />
<path d="M157.0376 101.3020
L156.9900 101.3973
" />
<path d="M156.9900 101.3973
L156.9424 101.4449
" />
</g><text x="164.9500" y="90.1650"
textLength="1.8893" font-size="1.3333" lengthAdjust="spacingAndGlyphs"
text-anchor="middle" opacity="0">J2</text>
<g class="stroked-text"><desc>J2</desc>
<path d="M164.6167 89.1276
L164.6167 89.8419
" />
<path d="M164.6167 89.8419
L164.5690 89.9848
" />
<path d="M164.5690 89.9848
L164.4738 90.0800
" />
<path d="M164.4738 90.0800
L164.3310 90.1276
" />
<path d="M164.3310 90.1276
L164.2357 90.1276
" />
<path d="M165.0452 89.2229
L165.0929 89.1752
" />
<path d="M165.0929 89.1752
L165.1881 89.1276
" />
<path d="M165.1881 89.1276
L165.4262 89.1276
" />
<path d="M165.4262 89.1276
L165.5214 89.1752
" />
<path d="M165.5214 89.1752
L165.5690 89.2229
" />
<path d="M165.5690 89.2229
L165.6167 89.3181
" />
<path d="M165.6167 89.3181
L165.6167 89.4133
" />
<path d="M165.6167 89.4133
L165.5690 89.5562
" />
<path d="M165.5690 89.5562
L164.9976 90.1276
" />
<path d="M164.9976 90.1276
L165.6167 90.1276
" />
</g><text x="167.6400" y="89.4000"
textLength="1.8893" font-size="1.3333" lengthAdjust="spacingAndGlyphs"
text-anchor="middle" opacity="0">J1</text>
<g class="stroked-text"><desc>J1</desc>
<path d="M167.3067 88.3626
L167.3067 89.0769
" />
<path d="M167.3067 89.0769
L167.2590 89.2198
" />
<path d="M167.2590 89.2198
L167.1638 89.3150
" />
<path d="M167.1638 89.3150
L167.0210 89.3626
" />
<path d="M167.0210 89.3626
L166.9257 89.3626
" />
<path d="M168.3067 89.3626
L167.7352 89.3626
" />
<path d="M168.0210 89.3626
L168.0210 88.3626
" />
<path d="M168.0210 88.3626
L167.9257 88.5055
" />
<path d="M167.9257 88.5055
L167.8305 88.6007
" />
<path d="M167.8305 88.6007
L167.7352 88.6483
" />
</g><text x="144.9000" y="88.5700"
textLength="2.1274" font-size="1.3333" lengthAdjust="spacingAndGlyphs"
text-anchor="middle" opacity="0">C5</text>
<g class="stroked-text"><desc>C5</desc>
<path d="M144.7333 88.4374
L144.6857 88.4850
" />
<path d="M144.6857 88.4850
L144.5429 88.5326
" />
<path d="M144.5429 88.5326
L144.4476 88.5326
" />
<path d="M144.4476 88.5326
L144.3048 88.4850
" />
<path d="M144.3048 88.4850
L144.2095 88.3898
" />
<path d="M144.2095 88.3898
L144.1619 88.2945
" />
<path d="M144.1619 88.2945
L144.1143 88.1040
" />
<path d="M144.1143 88.1040
L144.1143 87.9612
" />
<path d="M144.1143 87.9612
L144.1619 87.7707
" />
<path d="M144.1619 87.7707
L144.2095 87.6755
" />
<path d="M144.2095 87.6755
L144.3048 87.5802
" />
<path d="M144.3048 87.5802
L144.4476 87.5326
" />
<path d="M144.4476 87.5326
L144.5429 87.5326
" />
<path d="M144.5429 87.5326
L144.6857 87.5802
" />
<path d="M144.6857 87.5802
L144.7333 87.6279
" />
<path d="M145.6381 87.5326
L145.1619 87.5326
" />
<path d="M145.1619 87.5326
L145.1143 88.0088
" />
<path d="M145.1143 88.0088
L145.1619 87.9612
" />
<path d="M145.1619 87.9612
L145.2571 87.9136
" />
<path d="M145.2571 87.9136
L145.4952 87.9136
" />
<path d="M145.4952 87.9136
L145.5905 87.9612
" />
<path d="M145.5905 87.9612
L145.6381 88.0088
" />
<path d="M145.6381 88.0088
L145.6857 88.1040
" />
<path d="M145.6857 88.1040
L145.6857 88.3421
" />
<path d="M145.6857 88.3421
L145.6381 88.4374
" />
<path d="M145.6381 88.4374
L145.5905 88.4850
" />
<path d="M145.5905 88.4850
L145.4952 88.5326
" />
<path d="M145.4952 88.5326
L145.2571 88.5326
" />
<path d="M145.2571 88.5326
L145.1619 88.4850
" />
<path d="M145.1619 88.4850
L145.1143 88.4374
" />
</g><text x="144.9000" y="82.0350"
textLength="2.1274" font-size="1.3333" lengthAdjust="spacingAndGlyphs"
text-anchor="middle" opacity="0">C4</text>
<g class="stroked-text"><desc>C4</desc>
<path d="M144.7333 81.9024
L144.6857 81.9500
" />
<path d="M144.6857 81.9500
L144.5429 81.9976
" />
<path d="M144.5429 81.9976
L144.4476 81.9976
" />
<path d="M144.4476 81.9976
L144.3048 81.9500
" />
<path d="M144.3048 81.9500
L144.2095 81.8548
" />
<path d="M144.2095 81.8548
L144.1619 81.7595
" />
<path d="M144.1619 81.7595
L144.1143 81.5690
" />
<path d="M144.1143 81.5690
L144.1143 81.4262
" />
<path d="M144.1143 81.4262
L144.1619 81.2357
" />
<path d="M144.1619 81.2357
L144.2095 81.1405
" />
<path d="M144.2095 81.1405
L144.3048 81.0452
" />
<path d="M144.3048 81.0452
L144.4476 80.9976
" />
<path d="M144.4476 80.9976
L144.5429 80.9976
" />
<path d="M144.5429 80.9976
L144.6857 81.0452
" />
<path d="M144.6857 81.0452
L144.7333 81.0929
" />
<path d="M145.5905 81.3310
L145.5905 81.9976
" />
<path d="M145.3524 80.9500
L145.1143 81.6643
" />
<path d="M145.1143 81.6643
L145.7333 81.6643
" />
</g><text x="144.9000" y="75.5000"
textLength="2.1274" font-size="1.3333" lengthAdjust="spacingAndGlyphs"
text-anchor="middle" opacity="0">C3</text>
<g class="stroked-text"><desc>C3</desc>
<path d="M144.7333 75.3674
L144.6857 75.4150
" />
<path d="M144.6857 75.4150
L144.5429 75.4626
" />
<path d="M144.5429 75.4626
L144.4476 75.4626
" />
<path d="M144.4476 75.4626
L144.3048 75.4150
" />
<path d="M144.3048 75.4150
L144.2095 75.3198
" />
<path d="M144.2095 75.3198
L144.1619 75.2245
" />
<path d="M144.1619 75.2245
L144.1143 75.0340
" />
<path d="M144.1143 75.0340
L144.1143 74.8912
" />
<path d="M144.1143 74.8912
L144.1619 74.7007
" />
<path d="M144.1619 74.7007
L144.2095 74.6055
" />
<path d="M144.2095 74.6055
L144.3048 74.5102
" />
<path d="M144.3048 74.5102
L144.4476 74.4626
" />
<path d="M144.4476 74.4626
L144.5429 74.4626
" />
<path d="M144.5429 74.4626
L144.6857 74.5102
" />
<path d="M144.6857 74.5102
L144.7333 74.5579
" />
<path d="M145.0667 74.4626
L145.6857 74.4626
" />
<path d="M145.6857 74.4626
L145.3524 74.8436
" />
<path d="M145.3524 74.8436
L145.4952 74.8436
" />
<path d="M145.4952 74.8436
L145.5905 74.8912
" />
<path d="M145.5905 74.8912
L145.6381 74.9388
" />
<path d="M145.6381 74.9388
L145.6857 75.0340
" />
<path d="M145.6857 75.0340
L145.6857 75.2721
" />
<path d="M145.6857 75.2721
L145.6381 75.3674
" />
<path d="M145.6381 75.3674
L145.5905 75.4150
" />
<path d="M145.5905 75.4150
L145.4952 75.4626
" />
<path d="M145.4952 75.4626
L145.2095 75.4626
" />
<path d="M145.2095 75.4626
L145.1143 75.4150
" />
<path d="M145.1143 75.4150
L145.0667 75.3674
" />
</g><text x="144.9000" y="68.9650"
textLength="2.1274" font-size="1.3333" lengthAdjust="spacingAndGlyphs"
text-anchor="middle" opacity="0">C1</text>
<g class="stroked-text"><desc>C1</desc>
<path d="M144.7333 68.8324
L144.6857 68.8800
" />
<path d="M144.6857 68.8800
L144.5429 68.9276
" />
<path d="M144.5429 68.9276
L144.4476 68.9276
" />
<path d="M144.4476 68.9276
L144.3048 68.8800
" />
<path d="M144.3048 68.8800
L144.2095 68.7848
" />
<path d="M144.2095 68.7848
L144.1619 68.6895
" />
<path d="M144.1619 68.6895
L144.1143 68.4990
" />
<path d="M144.1143 68.4990
L144.1143 68.3562
" />
<path d="M144.1143 68.3562
L144.1619 68.1657
" />
<path d="M144.1619 68.1657
L144.2095 68.0705
" />
<path d="M144.2095 68.0705
L144.3048 67.9752
" />
<path d="M144.3048 67.9752
L144.4476 67.9276
" />
<path d="M144.4476 67.9276
L144.5429 67.9276
" />
<path d="M144.5429 67.9276
L144.6857 67.9752
" />
<path d="M144.6857 67.9752
L144.7333 68.0229
" />
<path d="M145.6857 68.9276
L145.1143 68.9276
" />
<path d="M145.4000 68.9276
L145.4000 67.9276
" />
<path d="M145.4000 67.9276
L145.3048 68.0705
" />
<path d="M145.3048 68.0705
L145.2095 68.1657
" />
<path d="M145.2095 68.1657
L145.1143 68.2133
" />
</g></g>
<g style="fill:#FFFFFF; fill-opacity:0.0; 
stroke:#FFFFFF; stroke-width:0.1200; stroke-opacity:1; 
stroke-linecap:round; stroke-linejoin:round;">
<path d="M158.4000 92.5600
L160.3500 92.5600
" />
<path d="M158.4000 87.4400
L154.9500 87.4400
" />
<path d="M158.4000 87.4400
L160.3500 87.4400
" />
<path d="M158.4000 92.5600
L156.4500 92.5600
" />
<path d="M167.3400 94.1400
L163.9000 94.1400
" />
<path d="M163.4000 96.7200
L167.3400 96.7200
" />
</g>
<g style="fill:#FFFFFF; fill-opacity:0.0; 
stroke:#FFFFFF; stroke-width:0.1500; stroke-opacity:1; 
stroke-linecap:round; stroke-linejoin:round;">
<path d="M170.5750 70.3750
L170.5750 71.0500
" />
<path d="M156.2250 84.7250
L156.2250 84.0500
" />
<path d="M156.2250 84.7250
L156.9000 84.7250
" />
<path d="M170.5750 84.7250
L169.9000 84.7250
" />
<path d="M170.5750 84.7250
L170.5750 84.0500
" />
<path d="M156.2250 70.3750
L156.2250 70.9500
" />
<path d="M156.2250 70.9500
L154.9500 70.9500
" />
<path d="M156.2250 70.3750
L156.9000 70.3750
" />
<path d="M170.5750 70.3750
L169.9000 70.3750
" />
</g>
<g style="fill:#FFFFFF; fill-opacity:0.0; 
stroke:#FFFFFF; stroke-width:0.1200; stroke-opacity:1; 
stroke-linecap:round; stroke-linejoin:round;">
<path d="M137.1300 95.1200
L137.1300 95.4150
" />
<path d="M139.9700 95.4150
L139.9700 95.1200
" />
<path d="M136.4000 95.4150
L137.1300 95.4150
" />
<path d="M137.1300 98.3650
L137.1300 98.6600
" />
<path d="M139.9700 95.1200
L137.1300 95.1200
" />
<path d="M137.1300 98.6600
L139.9700 98.6600
" />
<path d="M139.9700 98.6600
L139.9700 98.3650
" />
<path d="M153.0950 99.8200
L153.0950 100.6200
" />
<path d="M151.7050 100.6200
L151.7050 99.8200
" />
<path d="M152.3600 100.6200
L152.3600 104.6200
" />
<path d="M152.6600 104.6200
L152.1400 104.6200
" />
<path d="M152.6600 100.6200
L152.6600 104.6200
" />
<path d="M151.7050 99.8200
L151.7803 99.8200
" />
<path d="M153.0950 100.6200
L151.7050 100.6200
" />
<path d="M152.4000 98.3000
L153.1600 98.3000
" />
<path d="M152.1400 104.6200
L152.1400 100.6200
" />
<path d="M152.2400 100.6200
L152.2400 104.6200
" />
<path d="M152.4800 100.6200
L152.4800 104.6200
" />
<path d="M152.6000 100.6200
L152.6000 104.6200
" />
<path d="M153.1600 98.3000
L153.1600 99.0600
" />
<path d="M155.7000 98.3000
L155.7000 99.0600
" />
<path d="M155.1400 100.6200
L155.1400 104.6200
" />
<path d="M155.0200 100.6200
L155.0200 104.6200
" />
<path d="M154.7800 100.6200
L154.7800 104.6200
" />
<path d="M154.6800 104.6200
L154.6800 100.6200
" />
<path d="M154.9400 98.3000
L155.7000 98.3000
" />
<path d="M155.6350 100.6200
L154.2450 100.6200
" />
<path d="M154.2450 99.8200
L154.3203 99.8200
" />
<path d="M155.2000 100.6200
L155.2000 104.6200
" />
<path d="M155.2000 104.6200
L154.6800 104.6200
" />
<path d="M154.9000 100.6200
L154.9000 104.6200
" />
<path d="M154.2450 100.6200
L154.2450 99.8200
" />
<path d="M155.6350 99.8200
L155.6350 100.6200
" />
<path d="M166.2800 91.0400
L166.2800 91.8000
" />
<path d="M163.6200 92.3750
L163.6200 92.4950
" />
<path d="M163.6200 92.4950
L164.1900 92.4950
" />
<path d="M164.9500 91.0400
L166.2800 91.0400
" />
<path d="M165.7100 92.4950
L166.2800 92.4950
" />
<path d="M166.2800 92.3750
L166.2800 92.4950
" />
<path d="M166.2800 87.6900
L166.2800 88.4500
" />
<path d="M163.6200 89.0250
L163.6200 89.1450
" />
<path d="M163.6200 89.1450
L164.1900 89.1450
" />
<path d="M164.9500 87.6900
L166.2800 87.6900
" />
<path d="M165.7100 89.1450
L166.2800 89.1450
" />
<path d="M166.2800 89.0250
L166.2800 89.1450
" />
<path d="M142.7800 93.8100
L150.0200 93.8100
" />
<path d="M138.0300 89.2400
L139.5300 89.2400
" />
<path d="M142.0300 89.8200
L142.7800 89.0700
" />
<path d="M150.0200 89.0700
L150.0200 93.8100
" />
<path d="M139.7800 89.0700
L139.7800 93.8100
" />
<path d="M141.2800 89.0700
L142.0300 89.8200
" />
<path d="M139.7800 89.0700
L141.2800 89.0700
" />
<path d="M141.2800 93.8100
L142.0300 93.0600
" />
<path d="M142.0300 93.0600
L142.7800 93.8100
" />
<path d="M142.7800 89.0700
L150.0200 89.0700
" />
<path d="M151.1600 91.4400
L150.0200 91.4400
" />
<path d="M139.7800 93.8100
L141.2800 93.8100
" />
<path d="M138.7800 88.4900
L138.7800 89.9900
" />
<path d="M138.6400 91.4400
L139.7800 91.4400
" />
<path d="M142.7800 87.2750
L150.0200 87.2750
" />
<path d="M138.0300 82.7050
L139.5300 82.7050
" />
<path d="M142.0300 83.2850
L142.7800 82.5350
" />
<path d="M150.0200 82.5350
L150.0200 87.2750
" />
<path d="M139.7800 82.5350
L139.7800 87.2750
" />
<path d="M141.2800 82.5350
L142.0300 83.2850
" />
<path d="M139.7800 82.5350
L141.2800 82.5350
" />
<path d="M141.2800 87.2750
L142.0300 86.5250
" />
<path d="M142.0300 86.5250
L142.7800 87.2750
" />
<path d="M142.7800 82.5350
L150.0200 82.5350
" />
<path d="M151.1600 84.9050
L150.0200 84.9050
" />
<path d="M139.7800 87.2750
L141.2800 87.2750
" />
<path d="M138.7800 81.9550
L138.7800 83.4550
" />
<path d="M138.6400 84.9050
L139.7800 84.9050
" />
<path d="M142.7800 80.7400
L150.0200 80.7400
" />
<path d="M138.0300 76.1700
L139.5300 76.1700
" />
<path d="M142.0300 76.7500
L142.7800 76.0000
" />
<path d="M150.0200 76.0000
L150.0200 80.7400
" />
<path d="M139.7800 76.0000
L139.7800 80.7400
" />
<path d="M141.2800 76.0000
L142.0300 76.7500
" />
<path d="M139.7800 76.0000
L141.2800 76.0000
" />
<path d="M141.2800 80.7400
L142.0300 79.9900
" />
<path d="M142.0300 79.9900
L142.7800 80.7400
" />
<path d="M142.7800 76.0000
L150.0200 76.0000
" />
<path d="M151.1600 78.3700
L150.0200 78.3700
" />
<path d="M139.7800 80.7400
L141.2800 80.7400
" />
<path d="M138.7800 75.4200
L138.7800 76.9200
" />
<path d="M138.6400 78.3700
L139.7800 78.3700
" />
<path d="M142.7800 74.2050
L150.0200 74.2050
" />
<path d="M138.0300 69.6350
L139.5300 69.6350
" />
<path d="M142.0300 70.2150
L142.7800 69.4650
" />
<path d="M150.0200 69.4650
L150.0200 74.2050
" />
<path d="M139.7800 69.4650
L139.7800 74.2050
" />
<path d="M141.2800 69.4650
L142.0300 70.2150
" />
<path d="M139.7800 69.4650
L141.2800 69.4650
" />
<path d="M141.2800 74.2050
L142.0300 73.4550
" />
<path d="M142.0300 73.4550
L142.7800 74.2050
" />
<path d="M142.7800 69.4650
L150.0200 69.4650
" />
<path d="M151.1600 71.8350
L150.0200 71.8350
" />
<path d="M139.7800 74.2050
L141.2800 74.2050
" />
<path d="M138.7800 68.8850
L138.7800 70.3850
" />
<path d="M138.6400 71.8350
L139.7800 71.8350
" />
<g >
</g>
<g >
</g>
<g >
</g>
<g >
</g>
<g >
</g>
<g >
</g>
<g >
</g>
<g >
</g>
<g >
</g>
<g >
</g>
<g >
</g>
<g >
</g>
<g >
</g>
<g >
</g>
<g >
</g>
</g>
<g style="fill:#000000; fill-opacity:0.0; 
stroke:#000000; stroke-width:0.1200; stroke-opacity:1; 
stroke-linecap:round; stroke-linejoin:round;">
</g>
<g style="fill:#000000; fill-opacity:1.0000; 
stroke:#000000; stroke-width:0.0000; stroke-opacity:1; 
stroke-linecap:round; stroke-linejoin:round;">
<circle cx="154.9721" cy="86.1157" r="0.1750" /> 
</g>
<g style="fill:#000000; fill-opacity:1.0000; 
stroke:#000000; stroke-width:0.0212; stroke-opacity:1; 
stroke-linecap:round; stroke-linejoin:round;">
</g>
<g style="fill:#000000; fill-opacity:1.0000; 
stroke:#000000; stroke-width:0.0000; stroke-opacity:1; 
stroke-linecap:round; stroke-linejoin:round;">
<circle cx="152.4000" cy="94.9000" r="0.1750" /> 
</g>
<g style="fill:#000000; fill-opacity:1.0000; 
stroke:#000000; stroke-width:0.0212; stroke-opacity:1; 
stroke-linecap:round; stroke-linejoin:round;">
</g>
<g style="fill:#000000; fill-opacity:1.0000; 
stroke:#000000; stroke-width:0.0000; stroke-opacity:1; 
stroke-linecap:round; stroke-linejoin:round;">
<circle cx="155.6789" cy="86.8225" r="0.1750" /> 
</g>
<g style="fill:#000000; fill-opacity:1.0000; 
stroke:#000000; stroke-width:0.0212; stroke-opacity:1; 
stroke-linecap:round; stroke-linejoin:round;">
</g>
<g style="fill:#000000; fill-opacity:1.0000; 
stroke:#000000; stroke-width:0.0000; stroke-opacity:1; 
stroke-linecap:round; stroke-linejoin:round;">
<circle cx="154.1004" cy="81.2800" r="0.1750" /> 
</g>
<g style="fill:#000000; fill-opacity:1.0000; 
stroke:#000000; stroke-width:0.0212; stroke-opacity:1; 
stroke-linecap:round; stroke-linejoin:round;">
</g>
<g style="fill:#000000; fill-opacity:1.0000; 
stroke:#000000; stroke-width:0.0000; stroke-opacity:1; 
stroke-linecap:round; stroke-linejoin:round;">
<circle cx="164.8850" cy="96.1300" r="0.1750" /> 
</g>
<g style="fill:#000000; fill-opacity:1.0000; 
stroke:#000000; stroke-width:0.0212; stroke-opacity:1; 
stroke-linecap:round; stroke-linejoin:round;">
</g>
<g style="fill:#000000; fill-opacity:1.0000; 
stroke:#000000; stroke-width:0.0000; stroke-opacity:1; 
stroke-linecap:round; stroke-linejoin:round;">
<circle cx="165.1927" cy="86.5995" r="0.1750" /> 
</g>
<g style="fill:#000000; fill-opacity:1.0000; 
stroke:#000000; stroke-width:0.0212; stroke-opacity:1; 
stroke-linecap:round; stroke-linejoin:round;">
</g>
<g style="fill:#000000; fill-opacity:1.0000; 
stroke:#000000; stroke-width:0.0000; stroke-opacity:1; 
stroke-linecap:round; stroke-linejoin:round;">
<circle cx="162.5600" cy="96.5200" r="0.1750" /> 
</g>
<g style="fill:#000000; fill-opacity:1.0000; 
stroke:#000000; stroke-width:0.0212; stroke-opacity:1; 
stroke-linecap:round; stroke-linejoin:round;">
</g>
<g style="fill:#000000; fill-opacity:1.0000; 
stroke:#000000; stroke-width:0.0000; stroke-opacity:1; 
stroke-linecap:round; stroke-linejoin:round;">
<circle cx="157.4800" cy="87.2995" r="0.1750" /> 
</g>
<g style="fill:#000000; fill-opacity:1.0000; 
stroke:#000000; stroke-width:0.0212; stroke-opacity:1; 
stroke-linecap:round; stroke-linejoin:round;">
</g>
<g style="fill:#000000; fill-opacity:1.0000; 
stroke:#000000; stroke-width:0.0000; stroke-opacity:1; 
stroke-linecap:round; stroke-linejoin:round;">
<circle cx="160.0200" cy="85.6005" r="0.1750" /> 
</g>
<g style="fill:#000000; fill-opacity:1.0000; 
stroke:#000000; stroke-width:0.0212; stroke-opacity:1; 
stroke-linecap:round; stroke-linejoin:round;">
</g>
<g style="fill:#000000; fill-opacity:1.0000; 
stroke:#000000; stroke-width:0.0000; stroke-opacity:1; 
stroke-linecap:round; stroke-linejoin:round;">
<circle cx="165.0962" cy="67.8005" r="0.1750" /> 
</g>
<g style="fill:#000000; fill-opacity:1.0000; 
stroke:#000000; stroke-width:0.0212; stroke-opacity:1; 
stroke-linecap:round; stroke-linejoin:round;">
</g>
<g style="fill:#000000; fill-opacity:1.0000; 
stroke:#000000; stroke-width:0.0000; stroke-opacity:1; 
stroke-linecap:round; stroke-linejoin:round;">
<circle cx="154.9400" cy="71.1200" r="0.1750" /> 
</g>
<g style="fill:#000000; fill-opacity:1.0000; 
stroke:#000000; stroke-width:0.0212; stroke-opacity:1; 
stroke-linecap:round; stroke-linejoin:round;">
</g>
<g style="fill:#000000; fill-opacity:1.0000; 
stroke:#000000; stroke-width:0.0000; stroke-opacity:1; 
stroke-linecap:round; stroke-linejoin:round;">
<circle cx="134.6200" cy="99.0600" r="0.1750" /> 
</g>
<g style="fill:#000000; fill-opacity:1.0000; 
stroke:#000000; stroke-width:0.0212; stroke-opacity:1; 
stroke-linecap:round; stroke-linejoin:round;">
</g>
<g style="fill:#000000; fill-opacity:1.0000; 
stroke:#000000; stroke-width:0.0000; stroke-opacity:1; 
stroke-linecap:round; stroke-linejoin:round;">
<circle cx="162.5600" cy="88.5155" r="0.1750" /> 
</g>
<g style="fill:#000000; fill-opacity:1.0000; 
stroke:#000000; stroke-width:0.0212; stroke-opacity:1; 
stroke-linecap:round; stroke-linejoin:round;">
</g>
<g style="fill:#000000; fill-opacity:1.0000; 
stroke:#000000; stroke-width:0.0000; stroke-opacity:1; 
stroke-linecap:round; stroke-linejoin:round;">
<circle cx="162.5600" cy="91.4845" r="0.1750" /> 
</g>
<g style="fill:#000000; fill-opacity:1.0000; 
stroke:#000000; stroke-width:0.0212; stroke-opacity:1; 
stroke-linecap:round; stroke-linejoin:round;">
</g>
<g style="fill:#000000; fill-opacity:1.0000; 
stroke:#000000; stroke-width:0.0000; stroke-opacity:1; 
stroke-linecap:round; stroke-linejoin:round;">
<circle cx="134.6200" cy="93.9800" r="0.1750" /> 
</g>
<g style="fill:#000000; fill-opacity:1.0000; 
stroke:#000000; stroke-width:0.0212; stroke-opacity:1; 
stroke-linecap:round; stroke-linejoin:round;">
</g>
<g style="fill:#000000; fill-opacity:1.0000; 
stroke:#000000; stroke-width:0.0000; stroke-opacity:1; 
stroke-linecap:round; stroke-linejoin:round;">
<circle cx="142.2400" cy="93.9800" r="0.1750" /> 
</g>
<g style="fill:#000000; fill-opacity:1.0000; 
stroke:#000000; stroke-width:0.0212; stroke-opacity:1; 
stroke-linecap:round; stroke-linejoin:round;">
</g>
<g style="fill:#000000; fill-opacity:1.0000; 
stroke:#000000; stroke-width:0.0000; stroke-opacity:1; 
stroke-linecap:round; stroke-linejoin:round;">
<circle cx="152.4000" cy="99.0600" r="0.1750" /> 
</g>
<g style="fill:#000000; fill-opacity:1.0000; 
stroke:#000000; stroke-width:0.0212; stroke-opacity:1; 
stroke-linecap:round; stroke-linejoin:round;">
</g>
<g style="fill:#000000; fill-opacity:1.0000; 
stroke:#000000; stroke-width:0.0000; stroke-opacity:1; 
stroke-linecap:round; stroke-linejoin:round;">
<circle cx="154.9400" cy="99.0600" r="0.1750" /> 
</g>
<g style="fill:#000000; fill-opacity:1.0000; 
stroke:#000000; stroke-width:0.0212; stroke-opacity:1; 
stroke-linecap:round; stroke-linejoin:round;">
</g>
<g style="fill:#000000; fill-opacity:1.0000; 
stroke:#000000; stroke-width:0.0000; stroke-opacity:1; 
stroke-linecap:round; stroke-linejoin:round;">
<circle cx="164.9500" cy="91.8000" r="0.1750" /> 
</g>
<g style="fill:#000000; fill-opacity:1.0000; 
stroke:#000000; stroke-width:0.0212; stroke-opacity:1; 
stroke-linecap:round; stroke-linejoin:round;">
</g>
<g style="fill:#000000; fill-opacity:1.0000; 
stroke:#000000; stroke-width:0.0000; stroke-opacity:1; 
stroke-linecap:round; stroke-linejoin:round;">
<circle cx="164.9500" cy="88.4500" r="0.1750" /> 
</g>
<g style="fill:#000000; fill-opacity:1.0000; 
stroke:#000000; stroke-width:0.0212; stroke-opacity:1; 
stroke-linecap:round; stroke-linejoin:round;">
</g>
<g style="fill:#000000; fill-opacity:1.0000; 
stroke:#000000; stroke-width:0.0000; stroke-opacity:1; 
stroke-linecap:round; stroke-linejoin:round;">
<circle cx="137.4000" cy="91.4400" r="0.1750" /> 
</g>
<g style="fill:#000000; fill-opacity:1.0000; 
stroke:#000000; stroke-width:0.0212; stroke-opacity:1; 
stroke-linecap:round; stroke-linejoin:round;">
</g>
<g style="fill:#000000; fill-opacity:1.0000; 
stroke:#000000; stroke-width:0.0000; stroke-opacity:1; 
stroke-linecap:round; stroke-linejoin:round;">
<circle cx="152.4000" cy="91.4400" r="0.1750" /> 
</g>
<g style="fill:#000000; fill-opacity:1.0000; 
stroke:#000000; stroke-width:0.0212; stroke-opacity:1; 
stroke-linecap:round; stroke-linejoin:round;">
</g>
<g style="fill:#000000; fill-opacity:1.0000; 
stroke:#000000; stroke-width:0.0000; stroke-opacity:1; 
stroke-linecap:round; stroke-linejoin:round;">
<circle cx="137.4000" cy="84.9050" r="0.1750" /> 
</g>
<g style="fill:#000000; fill-opacity:1.0000; 
stroke:#000000; stroke-width:0.0212; stroke-opacity:1; 
stroke-linecap:round; stroke-linejoin:round;">
</g>
<g style="fill:#000000; fill-opacity:1.0000; 
stroke:#000000; stroke-width:0.0000; stroke-opacity:1; 
stroke-linecap:round; stroke-linejoin:round;">
<circle cx="152.4000" cy="84.9050" r="0.1750" /> 
</g>
<g style="fill:#000000; fill-opacity:1.0000; 
stroke:#000000; stroke-width:0.0212; stroke-opacity:1; 
stroke-linecap:round; stroke-linejoin:round;">
</g>
<g style="fill:#000000; fill-opacity:1.0000; 
stroke:#000000; stroke-width:0.0000; stroke-opacity:1; 
stroke-linecap:round; stroke-linejoin:round;">
<circle cx="137.4000" cy="78.3700" r="0.1750" /> 
</g>
<g style="fill:#000000; fill-opacity:1.0000; 
stroke:#000000; stroke-width:0.0212; stroke-opacity:1; 
stroke-linecap:round; stroke-linejoin:round;">
</g>
<g style="fill:#000000; fill-opacity:1.0000; 
stroke:#000000; stroke-width:0.0000; stroke-opacity:1; 
stroke-linecap:round; stroke-linejoin:round;">
<circle cx="152.4000" cy="78.3700" r="0.1750" /> 
</g>
<g style="fill:#000000; fill-opacity:1.0000; 
stroke:#000000; stroke-width:0.0212; stroke-opacity:1; 
stroke-linecap:round; stroke-linejoin:round;">
</g>
<g style="fill:#000000; fill-opacity:1.0000; 
stroke:#000000; stroke-width:0.0000; stroke-opacity:1; 
stroke-linecap:round; stroke-linejoin:round;">
<circle cx="137.4000" cy="71.8350" r="0.1750" /> 
</g>
<g style="fill:#000000; fill-opacity:1.0000; 
stroke:#000000; stroke-width:0.0212; stroke-opacity:1; 
stroke-linecap:round; stroke-linejoin:round;">
</g>
<g style="fill:#000000; fill-opacity:1.0000; 
stroke:#000000; stroke-width:0.0000; stroke-opacity:1; 
stroke-linecap:round; stroke-linejoin:round;">
<circle cx="152.4000" cy="71.8350" r="0.1750" /> 
</g>
<g style="fill:#000000; fill-opacity:1.0000; 
stroke:#000000; stroke-width:0.0212; stroke-opacity:1; 
stroke-linecap:round; stroke-linejoin:round;">
</g>
<g style="fill:#FFFFFF; fill-opacity:1.0000; 
stroke:#FFFFFF; stroke-width:0.0212; stroke-opacity:1; 
stroke-linecap:round; stroke-linejoin:round;">
</g> 
</svg>
