<?xml version="1.0" standalone="no"?>
 <!DOCTYPE svg PUBLIC "-//W3C//DTD SVG 1.1//EN" 
 "http://www.w3.org/Graphics/SVG/1.1/DTD/svg11.dtd"> 
<svg
  xmlns:svg="http://www.w3.org/2000/svg"
  xmlns="http://www.w3.org/2000/svg"
  xmlns:xlink="http://www.w3.org/1999/xlink"
  version="1.1"
  width="297.0022mm" height="210.0072mm" viewBox="0.0000 0.0000 297.0022 210.0072">
<title>SVG Image created as Projeto final de EA075-F_Paste.svg date 2023/06/25 00:54:47 </title>
  <desc>Image generated by PCBNEW </desc>
<g style="fill:#000000; fill-opacity:1.0000;stroke:#000000; stroke-opacity:1.0000;
stroke-linecap:round; stroke-linejoin:round;"
 transform="translate(0 0) scale(1 1)">
</g>
<g style="fill:#000000; fill-opacity:0.0; 
stroke:#000000; stroke-width:0.0000; stroke-opacity:1; 
stroke-linecap:round; stroke-linejoin:round;">
</g>
<g style="fill:#000000; fill-opacity:1.0000; 
stroke:#000000; stroke-width:0.0212; stroke-opacity:1; 
stroke-linecap:round; stroke-linejoin:round;">
<rect x="127.030000" y="60.990000" width="53.280000" height="51.709048" rx="0.000000" />
</g>
<g style="fill:#FFFFFF; fill-opacity:1.0000; 
stroke:#FFFFFF; stroke-width:0.0212; stroke-opacity:1; 
stroke-linecap:round; stroke-linejoin:round;">
<g >
</g>
<g style="fill:#FFFFFF; fill-opacity:1.0000; 
stroke:#FFFFFF; stroke-width:0.0000; stroke-opacity:1; 
stroke-linecap:round; stroke-linejoin:round;">
<path style="fill:#FFFFFF; fill-opacity:1.0000; 
stroke:#FFFFFF; stroke-width:0.0000; stroke-opacity:1; 
stroke-linecap:round; stroke-linejoin:round;fill-rule:evenodd;"
d="M 160.2500,87.9450
160.2614,87.8876
160.2939,87.8389
160.3426,87.8064
160.4000,87.7950
161.7000,87.7950
161.7574,87.8064
161.8061,87.8389
161.8386,87.8876
161.8500,87.9450
161.8500,88.2450
161.8386,88.3024
161.8061,88.3511
161.7574,88.3836
161.7000,88.3950
160.4000,88.3950
160.3426,88.3836
160.2939,88.3511
160.2614,88.3024
160.2500,88.2450
Z" /> 
<path style="fill:#FFFFFF; fill-opacity:1.0000; 
stroke:#FFFFFF; stroke-width:0.0000; stroke-opacity:1; 
stroke-linecap:round; stroke-linejoin:round;fill-rule:evenodd;"
d="M 160.2500,89.2150
160.2614,89.1576
160.2939,89.1089
160.3426,89.0764
160.4000,89.0650
161.7000,89.0650
161.7574,89.0764
161.8061,89.1089
161.8386,89.1576
161.8500,89.2150
161.8500,89.5150
161.8386,89.5724
161.8061,89.6211
161.7574,89.6536
161.7000,89.6650
160.4000,89.6650
160.3426,89.6536
160.2939,89.6211
160.2614,89.5724
160.2500,89.5150
Z" /> 
<path style="fill:#FFFFFF; fill-opacity:1.0000; 
stroke:#FFFFFF; stroke-width:0.0000; stroke-opacity:1; 
stroke-linecap:round; stroke-linejoin:round;fill-rule:evenodd;"
d="M 160.2500,90.4850
160.2614,90.4276
160.2939,90.3789
160.3426,90.3464
160.4000,90.3350
161.7000,90.3350
161.7574,90.3464
161.8061,90.3789
161.8386,90.4276
161.8500,90.4850
161.8500,90.7850
161.8386,90.8424
161.8061,90.8911
161.7574,90.9236
161.7000,90.9350
160.4000,90.9350
160.3426,90.9236
160.2939,90.8911
160.2614,90.8424
160.2500,90.7850
Z" /> 
<path style="fill:#FFFFFF; fill-opacity:1.0000; 
stroke:#FFFFFF; stroke-width:0.0000; stroke-opacity:1; 
stroke-linecap:round; stroke-linejoin:round;fill-rule:evenodd;"
d="M 160.2500,91.7550
160.2614,91.6976
160.2939,91.6489
160.3426,91.6164
160.4000,91.6050
161.7000,91.6050
161.7574,91.6164
161.8061,91.6489
161.8386,91.6976
161.8500,91.7550
161.8500,92.0550
161.8386,92.1124
161.8061,92.1611
161.7574,92.1936
161.7000,92.2050
160.4000,92.2050
160.3426,92.1936
160.2939,92.1611
160.2614,92.1124
160.2500,92.0550
Z" /> 
<path style="fill:#FFFFFF; fill-opacity:1.0000; 
stroke:#FFFFFF; stroke-width:0.0000; stroke-opacity:1; 
stroke-linecap:round; stroke-linejoin:round;fill-rule:evenodd;"
d="M 154.9500,91.7550
154.9614,91.6976
154.9939,91.6489
155.0426,91.6164
155.1000,91.6050
156.4000,91.6050
156.4574,91.6164
156.5061,91.6489
156.5386,91.6976
156.5500,91.7550
156.5500,92.0550
156.5386,92.1124
156.5061,92.1611
156.4574,92.1936
156.4000,92.2050
155.1000,92.2050
155.0426,92.1936
154.9939,92.1611
154.9614,92.1124
154.9500,92.0550
Z" /> 
<path style="fill:#FFFFFF; fill-opacity:1.0000; 
stroke:#FFFFFF; stroke-width:0.0000; stroke-opacity:1; 
stroke-linecap:round; stroke-linejoin:round;fill-rule:evenodd;"
d="M 154.9500,90.4850
154.9614,90.4276
154.9939,90.3789
155.0426,90.3464
155.1000,90.3350
156.4000,90.3350
156.4574,90.3464
156.5061,90.3789
156.5386,90.4276
156.5500,90.4850
156.5500,90.7850
156.5386,90.8424
156.5061,90.8911
156.4574,90.9236
156.4000,90.9350
155.1000,90.9350
155.0426,90.9236
154.9939,90.8911
154.9614,90.8424
154.9500,90.7850
Z" /> 
<path style="fill:#FFFFFF; fill-opacity:1.0000; 
stroke:#FFFFFF; stroke-width:0.0000; stroke-opacity:1; 
stroke-linecap:round; stroke-linejoin:round;fill-rule:evenodd;"
d="M 154.9500,89.2150
154.9614,89.1576
154.9939,89.1089
155.0426,89.0764
155.1000,89.0650
156.4000,89.0650
156.4574,89.0764
156.5061,89.1089
156.5386,89.1576
156.5500,89.2150
156.5500,89.5150
156.5386,89.5724
156.5061,89.6211
156.4574,89.6536
156.4000,89.6650
155.1000,89.6650
155.0426,89.6536
154.9939,89.6211
154.9614,89.5724
154.9500,89.5150
Z" /> 
<path style="fill:#FFFFFF; fill-opacity:1.0000; 
stroke:#FFFFFF; stroke-width:0.0000; stroke-opacity:1; 
stroke-linecap:round; stroke-linejoin:round;fill-rule:evenodd;"
d="M 154.9500,87.9450
154.9614,87.8876
154.9939,87.8389
155.0426,87.8064
155.1000,87.7950
156.4000,87.7950
156.4574,87.8064
156.5061,87.8389
156.5386,87.8876
156.5500,87.9450
156.5500,88.2450
156.5386,88.3024
156.5061,88.3511
156.4574,88.3836
156.4000,88.3950
155.1000,88.3950
155.0426,88.3836
154.9939,88.3511
154.9614,88.3024
154.9500,88.2450
Z" /> 
<path style="fill:#FFFFFF; fill-opacity:1.0000; 
stroke:#FFFFFF; stroke-width:0.0000; stroke-opacity:1; 
stroke-linecap:round; stroke-linejoin:round;fill-rule:evenodd;"
d="M 158.5150,90.3975
158.5335,90.3047
158.5860,90.2260
158.6647,90.1735
158.7575,90.1550
159.2425,90.1550
159.3353,90.1735
159.4140,90.2260
159.4665,90.3047
159.4850,90.3975
159.4850,91.2025
159.4665,91.2953
159.4140,91.3740
159.3353,91.4265
159.2425,91.4450
158.7575,91.4450
158.6647,91.4265
158.5860,91.3740
158.5335,91.2953
158.5150,91.2025
Z" /> 
<path style="fill:#FFFFFF; fill-opacity:1.0000; 
stroke:#FFFFFF; stroke-width:0.0000; stroke-opacity:1; 
stroke-linecap:round; stroke-linejoin:round;fill-rule:evenodd;"
d="M 157.3150,90.3975
157.3335,90.3047
157.3860,90.2260
157.4647,90.1735
157.5575,90.1550
158.0425,90.1550
158.1353,90.1735
158.2140,90.2260
158.2665,90.3047
158.2850,90.3975
158.2850,91.2025
158.2665,91.2953
158.2140,91.3740
158.1353,91.4265
158.0425,91.4450
157.5575,91.4450
157.4647,91.4265
157.3860,91.3740
157.3335,91.2953
157.3150,91.2025
Z" /> 
<path style="fill:#FFFFFF; fill-opacity:1.0000; 
stroke:#FFFFFF; stroke-width:0.0000; stroke-opacity:1; 
stroke-linecap:round; stroke-linejoin:round;fill-rule:evenodd;"
d="M 158.5150,88.7975
158.5335,88.7047
158.5860,88.6260
158.6647,88.5735
158.7575,88.5550
159.2425,88.5550
159.3353,88.5735
159.4140,88.6260
159.4665,88.7047
159.4850,88.7975
159.4850,89.6025
159.4665,89.6953
159.4140,89.7740
159.3353,89.8265
159.2425,89.8450
158.7575,89.8450
158.6647,89.8265
158.5860,89.7740
158.5335,89.6953
158.5150,89.6025
Z" /> 
<path style="fill:#FFFFFF; fill-opacity:1.0000; 
stroke:#FFFFFF; stroke-width:0.0000; stroke-opacity:1; 
stroke-linecap:round; stroke-linejoin:round;fill-rule:evenodd;"
d="M 157.3150,88.7975
157.3335,88.7047
157.3860,88.6260
157.4647,88.5735
157.5575,88.5550
158.0425,88.5550
158.1353,88.5735
158.2140,88.6260
158.2665,88.7047
158.2850,88.7975
158.2850,89.6025
158.2665,89.6953
158.2140,89.7740
158.1353,89.8265
158.0425,89.8450
157.5575,89.8450
157.4647,89.8265
157.3860,89.7740
157.3335,89.6953
157.3150,89.6025
Z" /> 
</g>
<g >
</g>
<g style="fill:#FFFFFF; fill-opacity:1.0000; 
stroke:#FFFFFF; stroke-width:0.0000; stroke-opacity:1; 
stroke-linecap:round; stroke-linejoin:round;">
<path style="fill:#FFFFFF; fill-opacity:1.0000; 
stroke:#FFFFFF; stroke-width:0.0000; stroke-opacity:1; 
stroke-linecap:round; stroke-linejoin:round;fill-rule:evenodd;"
d="M 163.5550,95.0300
163.5550,94.4300
164.2750,94.4300
164.2750,95.0300
Z" /> 
<path style="fill:#FFFFFF; fill-opacity:1.0000; 
stroke:#FFFFFF; stroke-width:0.0000; stroke-opacity:1; 
stroke-linecap:round; stroke-linejoin:round;fill-rule:evenodd;"
d="M 164.5250,95.0300
164.5250,94.4300
165.2450,94.4300
165.2450,95.0300
Z" /> 
<path style="fill:#FFFFFF; fill-opacity:1.0000; 
stroke:#FFFFFF; stroke-width:0.0000; stroke-opacity:1; 
stroke-linecap:round; stroke-linejoin:round;fill-rule:evenodd;"
d="M 165.4950,95.0300
165.4950,94.4300
166.2150,94.4300
166.2150,95.0300
Z" /> 
<path style="fill:#FFFFFF; fill-opacity:1.0000; 
stroke:#FFFFFF; stroke-width:0.0000; stroke-opacity:1; 
stroke-linecap:round; stroke-linejoin:round;fill-rule:evenodd;"
d="M 166.4650,95.0300
166.4650,94.4300
167.1850,94.4300
167.1850,95.0300
Z" /> 
<path style="fill:#FFFFFF; fill-opacity:1.0000; 
stroke:#FFFFFF; stroke-width:0.0000; stroke-opacity:1; 
stroke-linecap:round; stroke-linejoin:round;fill-rule:evenodd;"
d="M 166.4650,96.4300
166.4650,95.8300
167.1850,95.8300
167.1850,96.4300
Z" /> 
<path style="fill:#FFFFFF; fill-opacity:1.0000; 
stroke:#FFFFFF; stroke-width:0.0000; stroke-opacity:1; 
stroke-linecap:round; stroke-linejoin:round;fill-rule:evenodd;"
d="M 165.4950,96.4300
165.4950,95.8300
166.2150,95.8300
166.2150,96.4300
Z" /> 
<path style="fill:#FFFFFF; fill-opacity:1.0000; 
stroke:#FFFFFF; stroke-width:0.0000; stroke-opacity:1; 
stroke-linecap:round; stroke-linejoin:round;fill-rule:evenodd;"
d="M 164.5250,96.4300
164.5250,95.8300
165.2450,95.8300
165.2450,96.4300
Z" /> 
<path style="fill:#FFFFFF; fill-opacity:1.0000; 
stroke:#FFFFFF; stroke-width:0.0000; stroke-opacity:1; 
stroke-linecap:round; stroke-linejoin:round;fill-rule:evenodd;"
d="M 163.5550,96.4300
163.5550,95.8300
164.2750,95.8300
164.2750,96.4300
Z" /> 
</g>
<g >
</g>
<g style="fill:#FFFFFF; fill-opacity:1.0000; 
stroke:#FFFFFF; stroke-width:0.0000; stroke-opacity:1; 
stroke-linecap:round; stroke-linejoin:round;">
<path style="fill:#FFFFFF; fill-opacity:1.0000; 
stroke:#FFFFFF; stroke-width:0.0000; stroke-opacity:1; 
stroke-linecap:round; stroke-linejoin:round;fill-rule:evenodd;"
d="M 154.9500,71.8250
154.9500,71.2750
156.4500,71.2750
156.4500,71.8250
Z" /> 
<path style="fill:#FFFFFF; fill-opacity:1.0000; 
stroke:#FFFFFF; stroke-width:0.0000; stroke-opacity:1; 
stroke-linecap:round; stroke-linejoin:round;fill-rule:evenodd;"
d="M 154.9500,72.6250
154.9500,72.0750
156.4500,72.0750
156.4500,72.6250
Z" /> 
<path style="fill:#FFFFFF; fill-opacity:1.0000; 
stroke:#FFFFFF; stroke-width:0.0000; stroke-opacity:1; 
stroke-linecap:round; stroke-linejoin:round;fill-rule:evenodd;"
d="M 154.9500,73.4250
154.9500,72.8750
156.4500,72.8750
156.4500,73.4250
Z" /> 
<path style="fill:#FFFFFF; fill-opacity:1.0000; 
stroke:#FFFFFF; stroke-width:0.0000; stroke-opacity:1; 
stroke-linecap:round; stroke-linejoin:round;fill-rule:evenodd;"
d="M 154.9500,74.2250
154.9500,73.6750
156.4500,73.6750
156.4500,74.2250
Z" /> 
<path style="fill:#FFFFFF; fill-opacity:1.0000; 
stroke:#FFFFFF; stroke-width:0.0000; stroke-opacity:1; 
stroke-linecap:round; stroke-linejoin:round;fill-rule:evenodd;"
d="M 154.9500,75.0250
154.9500,74.4750
156.4500,74.4750
156.4500,75.0250
Z" /> 
<path style="fill:#FFFFFF; fill-opacity:1.0000; 
stroke:#FFFFFF; stroke-width:0.0000; stroke-opacity:1; 
stroke-linecap:round; stroke-linejoin:round;fill-rule:evenodd;"
d="M 154.9500,75.8250
154.9500,75.2750
156.4500,75.2750
156.4500,75.8250
Z" /> 
<path style="fill:#FFFFFF; fill-opacity:1.0000; 
stroke:#FFFFFF; stroke-width:0.0000; stroke-opacity:1; 
stroke-linecap:round; stroke-linejoin:round;fill-rule:evenodd;"
d="M 154.9500,76.6250
154.9500,76.0750
156.4500,76.0750
156.4500,76.6250
Z" /> 
<path style="fill:#FFFFFF; fill-opacity:1.0000; 
stroke:#FFFFFF; stroke-width:0.0000; stroke-opacity:1; 
stroke-linecap:round; stroke-linejoin:round;fill-rule:evenodd;"
d="M 154.9500,77.4250
154.9500,76.8750
156.4500,76.8750
156.4500,77.4250
Z" /> 
<path style="fill:#FFFFFF; fill-opacity:1.0000; 
stroke:#FFFFFF; stroke-width:0.0000; stroke-opacity:1; 
stroke-linecap:round; stroke-linejoin:round;fill-rule:evenodd;"
d="M 154.9500,78.2250
154.9500,77.6750
156.4500,77.6750
156.4500,78.2250
Z" /> 
<path style="fill:#FFFFFF; fill-opacity:1.0000; 
stroke:#FFFFFF; stroke-width:0.0000; stroke-opacity:1; 
stroke-linecap:round; stroke-linejoin:round;fill-rule:evenodd;"
d="M 154.9500,79.0250
154.9500,78.4750
156.4500,78.4750
156.4500,79.0250
Z" /> 
<path style="fill:#FFFFFF; fill-opacity:1.0000; 
stroke:#FFFFFF; stroke-width:0.0000; stroke-opacity:1; 
stroke-linecap:round; stroke-linejoin:round;fill-rule:evenodd;"
d="M 154.9500,79.8250
154.9500,79.2750
156.4500,79.2750
156.4500,79.8250
Z" /> 
<path style="fill:#FFFFFF; fill-opacity:1.0000; 
stroke:#FFFFFF; stroke-width:0.0000; stroke-opacity:1; 
stroke-linecap:round; stroke-linejoin:round;fill-rule:evenodd;"
d="M 154.9500,80.6250
154.9500,80.0750
156.4500,80.0750
156.4500,80.6250
Z" /> 
<path style="fill:#FFFFFF; fill-opacity:1.0000; 
stroke:#FFFFFF; stroke-width:0.0000; stroke-opacity:1; 
stroke-linecap:round; stroke-linejoin:round;fill-rule:evenodd;"
d="M 154.9500,81.4250
154.9500,80.8750
156.4500,80.8750
156.4500,81.4250
Z" /> 
<path style="fill:#FFFFFF; fill-opacity:1.0000; 
stroke:#FFFFFF; stroke-width:0.0000; stroke-opacity:1; 
stroke-linecap:round; stroke-linejoin:round;fill-rule:evenodd;"
d="M 154.9500,82.2250
154.9500,81.6750
156.4500,81.6750
156.4500,82.2250
Z" /> 
<path style="fill:#FFFFFF; fill-opacity:1.0000; 
stroke:#FFFFFF; stroke-width:0.0000; stroke-opacity:1; 
stroke-linecap:round; stroke-linejoin:round;fill-rule:evenodd;"
d="M 154.9500,83.0250
154.9500,82.4750
156.4500,82.4750
156.4500,83.0250
Z" /> 
<path style="fill:#FFFFFF; fill-opacity:1.0000; 
stroke:#FFFFFF; stroke-width:0.0000; stroke-opacity:1; 
stroke-linecap:round; stroke-linejoin:round;fill-rule:evenodd;"
d="M 154.9500,83.8250
154.9500,83.2750
156.4500,83.2750
156.4500,83.8250
Z" /> 
<path style="fill:#FFFFFF; fill-opacity:1.0000; 
stroke:#FFFFFF; stroke-width:0.0000; stroke-opacity:1; 
stroke-linecap:round; stroke-linejoin:round;fill-rule:evenodd;"
d="M 157.6750,86.0000
157.1250,86.0000
157.1250,84.5000
157.6750,84.5000
Z" /> 
<path style="fill:#FFFFFF; fill-opacity:1.0000; 
stroke:#FFFFFF; stroke-width:0.0000; stroke-opacity:1; 
stroke-linecap:round; stroke-linejoin:round;fill-rule:evenodd;"
d="M 158.4750,86.0000
157.9250,86.0000
157.9250,84.5000
158.4750,84.5000
Z" /> 
<path style="fill:#FFFFFF; fill-opacity:1.0000; 
stroke:#FFFFFF; stroke-width:0.0000; stroke-opacity:1; 
stroke-linecap:round; stroke-linejoin:round;fill-rule:evenodd;"
d="M 159.2750,86.0000
158.7250,86.0000
158.7250,84.5000
159.2750,84.5000
Z" /> 
<path style="fill:#FFFFFF; fill-opacity:1.0000; 
stroke:#FFFFFF; stroke-width:0.0000; stroke-opacity:1; 
stroke-linecap:round; stroke-linejoin:round;fill-rule:evenodd;"
d="M 160.0750,86.0000
159.5250,86.0000
159.5250,84.5000
160.0750,84.5000
Z" /> 
<path style="fill:#FFFFFF; fill-opacity:1.0000; 
stroke:#FFFFFF; stroke-width:0.0000; stroke-opacity:1; 
stroke-linecap:round; stroke-linejoin:round;fill-rule:evenodd;"
d="M 160.8750,86.0000
160.3250,86.0000
160.3250,84.5000
160.8750,84.5000
Z" /> 
<path style="fill:#FFFFFF; fill-opacity:1.0000; 
stroke:#FFFFFF; stroke-width:0.0000; stroke-opacity:1; 
stroke-linecap:round; stroke-linejoin:round;fill-rule:evenodd;"
d="M 161.6750,86.0000
161.1250,86.0000
161.1250,84.5000
161.6750,84.5000
Z" /> 
<path style="fill:#FFFFFF; fill-opacity:1.0000; 
stroke:#FFFFFF; stroke-width:0.0000; stroke-opacity:1; 
stroke-linecap:round; stroke-linejoin:round;fill-rule:evenodd;"
d="M 162.4750,86.0000
161.9250,86.0000
161.9250,84.5000
162.4750,84.5000
Z" /> 
<path style="fill:#FFFFFF; fill-opacity:1.0000; 
stroke:#FFFFFF; stroke-width:0.0000; stroke-opacity:1; 
stroke-linecap:round; stroke-linejoin:round;fill-rule:evenodd;"
d="M 163.2750,86.0000
162.7250,86.0000
162.7250,84.5000
163.2750,84.5000
Z" /> 
<path style="fill:#FFFFFF; fill-opacity:1.0000; 
stroke:#FFFFFF; stroke-width:0.0000; stroke-opacity:1; 
stroke-linecap:round; stroke-linejoin:round;fill-rule:evenodd;"
d="M 164.0750,86.0000
163.5250,86.0000
163.5250,84.5000
164.0750,84.5000
Z" /> 
<path style="fill:#FFFFFF; fill-opacity:1.0000; 
stroke:#FFFFFF; stroke-width:0.0000; stroke-opacity:1; 
stroke-linecap:round; stroke-linejoin:round;fill-rule:evenodd;"
d="M 164.8750,86.0000
164.3250,86.0000
164.3250,84.5000
164.8750,84.5000
Z" /> 
<path style="fill:#FFFFFF; fill-opacity:1.0000; 
stroke:#FFFFFF; stroke-width:0.0000; stroke-opacity:1; 
stroke-linecap:round; stroke-linejoin:round;fill-rule:evenodd;"
d="M 165.6750,86.0000
165.1250,86.0000
165.1250,84.5000
165.6750,84.5000
Z" /> 
<path style="fill:#FFFFFF; fill-opacity:1.0000; 
stroke:#FFFFFF; stroke-width:0.0000; stroke-opacity:1; 
stroke-linecap:round; stroke-linejoin:round;fill-rule:evenodd;"
d="M 166.4750,86.0000
165.9250,86.0000
165.9250,84.5000
166.4750,84.5000
Z" /> 
<path style="fill:#FFFFFF; fill-opacity:1.0000; 
stroke:#FFFFFF; stroke-width:0.0000; stroke-opacity:1; 
stroke-linecap:round; stroke-linejoin:round;fill-rule:evenodd;"
d="M 167.2750,86.0000
166.7250,86.0000
166.7250,84.5000
167.2750,84.5000
Z" /> 
<path style="fill:#FFFFFF; fill-opacity:1.0000; 
stroke:#FFFFFF; stroke-width:0.0000; stroke-opacity:1; 
stroke-linecap:round; stroke-linejoin:round;fill-rule:evenodd;"
d="M 168.0750,86.0000
167.5250,86.0000
167.5250,84.5000
168.0750,84.5000
Z" /> 
<path style="fill:#FFFFFF; fill-opacity:1.0000; 
stroke:#FFFFFF; stroke-width:0.0000; stroke-opacity:1; 
stroke-linecap:round; stroke-linejoin:round;fill-rule:evenodd;"
d="M 168.8750,86.0000
168.3250,86.0000
168.3250,84.5000
168.8750,84.5000
Z" /> 
<path style="fill:#FFFFFF; fill-opacity:1.0000; 
stroke:#FFFFFF; stroke-width:0.0000; stroke-opacity:1; 
stroke-linecap:round; stroke-linejoin:round;fill-rule:evenodd;"
d="M 169.6750,86.0000
169.1250,86.0000
169.1250,84.5000
169.6750,84.5000
Z" /> 
<path style="fill:#FFFFFF; fill-opacity:1.0000; 
stroke:#FFFFFF; stroke-width:0.0000; stroke-opacity:1; 
stroke-linecap:round; stroke-linejoin:round;fill-rule:evenodd;"
d="M 170.3500,83.8250
170.3500,83.2750
171.8500,83.2750
171.8500,83.8250
Z" /> 
<path style="fill:#FFFFFF; fill-opacity:1.0000; 
stroke:#FFFFFF; stroke-width:0.0000; stroke-opacity:1; 
stroke-linecap:round; stroke-linejoin:round;fill-rule:evenodd;"
d="M 170.3500,83.0250
170.3500,82.4750
171.8500,82.4750
171.8500,83.0250
Z" /> 
<path style="fill:#FFFFFF; fill-opacity:1.0000; 
stroke:#FFFFFF; stroke-width:0.0000; stroke-opacity:1; 
stroke-linecap:round; stroke-linejoin:round;fill-rule:evenodd;"
d="M 170.3500,82.2250
170.3500,81.6750
171.8500,81.6750
171.8500,82.2250
Z" /> 
<path style="fill:#FFFFFF; fill-opacity:1.0000; 
stroke:#FFFFFF; stroke-width:0.0000; stroke-opacity:1; 
stroke-linecap:round; stroke-linejoin:round;fill-rule:evenodd;"
d="M 170.3500,81.4250
170.3500,80.8750
171.8500,80.8750
171.8500,81.4250
Z" /> 
<path style="fill:#FFFFFF; fill-opacity:1.0000; 
stroke:#FFFFFF; stroke-width:0.0000; stroke-opacity:1; 
stroke-linecap:round; stroke-linejoin:round;fill-rule:evenodd;"
d="M 170.3500,80.6250
170.3500,80.0750
171.8500,80.0750
171.8500,80.6250
Z" /> 
<path style="fill:#FFFFFF; fill-opacity:1.0000; 
stroke:#FFFFFF; stroke-width:0.0000; stroke-opacity:1; 
stroke-linecap:round; stroke-linejoin:round;fill-rule:evenodd;"
d="M 170.3500,79.8250
170.3500,79.2750
171.8500,79.2750
171.8500,79.8250
Z" /> 
<path style="fill:#FFFFFF; fill-opacity:1.0000; 
stroke:#FFFFFF; stroke-width:0.0000; stroke-opacity:1; 
stroke-linecap:round; stroke-linejoin:round;fill-rule:evenodd;"
d="M 170.3500,79.0250
170.3500,78.4750
171.8500,78.4750
171.8500,79.0250
Z" /> 
<path style="fill:#FFFFFF; fill-opacity:1.0000; 
stroke:#FFFFFF; stroke-width:0.0000; stroke-opacity:1; 
stroke-linecap:round; stroke-linejoin:round;fill-rule:evenodd;"
d="M 170.3500,78.2250
170.3500,77.6750
171.8500,77.6750
171.8500,78.2250
Z" /> 
<path style="fill:#FFFFFF; fill-opacity:1.0000; 
stroke:#FFFFFF; stroke-width:0.0000; stroke-opacity:1; 
stroke-linecap:round; stroke-linejoin:round;fill-rule:evenodd;"
d="M 170.3500,77.4250
170.3500,76.8750
171.8500,76.8750
171.8500,77.4250
Z" /> 
<path style="fill:#FFFFFF; fill-opacity:1.0000; 
stroke:#FFFFFF; stroke-width:0.0000; stroke-opacity:1; 
stroke-linecap:round; stroke-linejoin:round;fill-rule:evenodd;"
d="M 170.3500,76.6250
170.3500,76.0750
171.8500,76.0750
171.8500,76.6250
Z" /> 
<path style="fill:#FFFFFF; fill-opacity:1.0000; 
stroke:#FFFFFF; stroke-width:0.0000; stroke-opacity:1; 
stroke-linecap:round; stroke-linejoin:round;fill-rule:evenodd;"
d="M 170.3500,75.8250
170.3500,75.2750
171.8500,75.2750
171.8500,75.8250
Z" /> 
<path style="fill:#FFFFFF; fill-opacity:1.0000; 
stroke:#FFFFFF; stroke-width:0.0000; stroke-opacity:1; 
stroke-linecap:round; stroke-linejoin:round;fill-rule:evenodd;"
d="M 170.3500,75.0250
170.3500,74.4750
171.8500,74.4750
171.8500,75.0250
Z" /> 
<path style="fill:#FFFFFF; fill-opacity:1.0000; 
stroke:#FFFFFF; stroke-width:0.0000; stroke-opacity:1; 
stroke-linecap:round; stroke-linejoin:round;fill-rule:evenodd;"
d="M 170.3500,74.2250
170.3500,73.6750
171.8500,73.6750
171.8500,74.2250
Z" /> 
<path style="fill:#FFFFFF; fill-opacity:1.0000; 
stroke:#FFFFFF; stroke-width:0.0000; stroke-opacity:1; 
stroke-linecap:round; stroke-linejoin:round;fill-rule:evenodd;"
d="M 170.3500,73.4250
170.3500,72.8750
171.8500,72.8750
171.8500,73.4250
Z" /> 
<path style="fill:#FFFFFF; fill-opacity:1.0000; 
stroke:#FFFFFF; stroke-width:0.0000; stroke-opacity:1; 
stroke-linecap:round; stroke-linejoin:round;fill-rule:evenodd;"
d="M 170.3500,72.6250
170.3500,72.0750
171.8500,72.0750
171.8500,72.6250
Z" /> 
<path style="fill:#FFFFFF; fill-opacity:1.0000; 
stroke:#FFFFFF; stroke-width:0.0000; stroke-opacity:1; 
stroke-linecap:round; stroke-linejoin:round;fill-rule:evenodd;"
d="M 170.3500,71.8250
170.3500,71.2750
171.8500,71.2750
171.8500,71.8250
Z" /> 
<path style="fill:#FFFFFF; fill-opacity:1.0000; 
stroke:#FFFFFF; stroke-width:0.0000; stroke-opacity:1; 
stroke-linecap:round; stroke-linejoin:round;fill-rule:evenodd;"
d="M 169.6750,70.6000
169.1250,70.6000
169.1250,69.1000
169.6750,69.1000
Z" /> 
<path style="fill:#FFFFFF; fill-opacity:1.0000; 
stroke:#FFFFFF; stroke-width:0.0000; stroke-opacity:1; 
stroke-linecap:round; stroke-linejoin:round;fill-rule:evenodd;"
d="M 168.8750,70.6000
168.3250,70.6000
168.3250,69.1000
168.8750,69.1000
Z" /> 
<path style="fill:#FFFFFF; fill-opacity:1.0000; 
stroke:#FFFFFF; stroke-width:0.0000; stroke-opacity:1; 
stroke-linecap:round; stroke-linejoin:round;fill-rule:evenodd;"
d="M 168.0750,70.6000
167.5250,70.6000
167.5250,69.1000
168.0750,69.1000
Z" /> 
<path style="fill:#FFFFFF; fill-opacity:1.0000; 
stroke:#FFFFFF; stroke-width:0.0000; stroke-opacity:1; 
stroke-linecap:round; stroke-linejoin:round;fill-rule:evenodd;"
d="M 167.2750,70.6000
166.7250,70.6000
166.7250,69.1000
167.2750,69.1000
Z" /> 
<path style="fill:#FFFFFF; fill-opacity:1.0000; 
stroke:#FFFFFF; stroke-width:0.0000; stroke-opacity:1; 
stroke-linecap:round; stroke-linejoin:round;fill-rule:evenodd;"
d="M 166.4750,70.6000
165.9250,70.6000
165.9250,69.1000
166.4750,69.1000
Z" /> 
<path style="fill:#FFFFFF; fill-opacity:1.0000; 
stroke:#FFFFFF; stroke-width:0.0000; stroke-opacity:1; 
stroke-linecap:round; stroke-linejoin:round;fill-rule:evenodd;"
d="M 165.6750,70.6000
165.1250,70.6000
165.1250,69.1000
165.6750,69.1000
Z" /> 
<path style="fill:#FFFFFF; fill-opacity:1.0000; 
stroke:#FFFFFF; stroke-width:0.0000; stroke-opacity:1; 
stroke-linecap:round; stroke-linejoin:round;fill-rule:evenodd;"
d="M 164.8750,70.6000
164.3250,70.6000
164.3250,69.1000
164.8750,69.1000
Z" /> 
<path style="fill:#FFFFFF; fill-opacity:1.0000; 
stroke:#FFFFFF; stroke-width:0.0000; stroke-opacity:1; 
stroke-linecap:round; stroke-linejoin:round;fill-rule:evenodd;"
d="M 164.0750,70.6000
163.5250,70.6000
163.5250,69.1000
164.0750,69.1000
Z" /> 
<path style="fill:#FFFFFF; fill-opacity:1.0000; 
stroke:#FFFFFF; stroke-width:0.0000; stroke-opacity:1; 
stroke-linecap:round; stroke-linejoin:round;fill-rule:evenodd;"
d="M 163.2750,70.6000
162.7250,70.6000
162.7250,69.1000
163.2750,69.1000
Z" /> 
<path style="fill:#FFFFFF; fill-opacity:1.0000; 
stroke:#FFFFFF; stroke-width:0.0000; stroke-opacity:1; 
stroke-linecap:round; stroke-linejoin:round;fill-rule:evenodd;"
d="M 162.4750,70.6000
161.9250,70.6000
161.9250,69.1000
162.4750,69.1000
Z" /> 
<path style="fill:#FFFFFF; fill-opacity:1.0000; 
stroke:#FFFFFF; stroke-width:0.0000; stroke-opacity:1; 
stroke-linecap:round; stroke-linejoin:round;fill-rule:evenodd;"
d="M 161.6750,70.6000
161.1250,70.6000
161.1250,69.1000
161.6750,69.1000
Z" /> 
<path style="fill:#FFFFFF; fill-opacity:1.0000; 
stroke:#FFFFFF; stroke-width:0.0000; stroke-opacity:1; 
stroke-linecap:round; stroke-linejoin:round;fill-rule:evenodd;"
d="M 160.8750,70.6000
160.3250,70.6000
160.3250,69.1000
160.8750,69.1000
Z" /> 
<path style="fill:#FFFFFF; fill-opacity:1.0000; 
stroke:#FFFFFF; stroke-width:0.0000; stroke-opacity:1; 
stroke-linecap:round; stroke-linejoin:round;fill-rule:evenodd;"
d="M 160.0750,70.6000
159.5250,70.6000
159.5250,69.1000
160.0750,69.1000
Z" /> 
<path style="fill:#FFFFFF; fill-opacity:1.0000; 
stroke:#FFFFFF; stroke-width:0.0000; stroke-opacity:1; 
stroke-linecap:round; stroke-linejoin:round;fill-rule:evenodd;"
d="M 159.2750,70.6000
158.7250,70.6000
158.7250,69.1000
159.2750,69.1000
Z" /> 
<path style="fill:#FFFFFF; fill-opacity:1.0000; 
stroke:#FFFFFF; stroke-width:0.0000; stroke-opacity:1; 
stroke-linecap:round; stroke-linejoin:round;fill-rule:evenodd;"
d="M 158.4750,70.6000
157.9250,70.6000
157.9250,69.1000
158.4750,69.1000
Z" /> 
<path style="fill:#FFFFFF; fill-opacity:1.0000; 
stroke:#FFFFFF; stroke-width:0.0000; stroke-opacity:1; 
stroke-linecap:round; stroke-linejoin:round;fill-rule:evenodd;"
d="M 157.6750,70.6000
157.1250,70.6000
157.1250,69.1000
157.6750,69.1000
Z" /> 
</g>
<g >
</g>
<g style="fill:#FFFFFF; fill-opacity:1.0000; 
stroke:#FFFFFF; stroke-width:0.0000; stroke-opacity:1; 
stroke-linecap:round; stroke-linejoin:round;">
<path style="fill:#FFFFFF; fill-opacity:1.0000; 
stroke:#FFFFFF; stroke-width:0.0000; stroke-opacity:1; 
stroke-linecap:round; stroke-linejoin:round;fill-rule:evenodd;"
d="M 138.7400,96.5815
138.7400,95.9465
139.2500,95.9465
139.2500,96.5815
Z" /> 
<path style="fill:#FFFFFF; fill-opacity:1.0000; 
stroke:#FFFFFF; stroke-width:0.0000; stroke-opacity:1; 
stroke-linecap:round; stroke-linejoin:round;fill-rule:evenodd;"
d="M 138.7400,97.8335
138.7400,97.1985
139.2500,97.1985
139.2500,97.8335
Z" /> 
<path style="fill:#FFFFFF; fill-opacity:1.0000; 
stroke:#FFFFFF; stroke-width:0.0000; stroke-opacity:1; 
stroke-linecap:round; stroke-linejoin:round;fill-rule:evenodd;"
d="M 139.5500,98.0150
139.5500,97.7150
140.3000,97.7150
140.3000,98.0150
Z" /> 
<path style="fill:#FFFFFF; fill-opacity:1.0000; 
stroke:#FFFFFF; stroke-width:0.0000; stroke-opacity:1; 
stroke-linecap:round; stroke-linejoin:round;fill-rule:evenodd;"
d="M 136.4000,98.0150
136.4000,97.7150
137.2300,97.7150
137.2300,98.0150
Z" /> 
<path style="fill:#FFFFFF; fill-opacity:1.0000; 
stroke:#FFFFFF; stroke-width:0.0000; stroke-opacity:1; 
stroke-linecap:round; stroke-linejoin:round;fill-rule:evenodd;"
d="M 139.5500,96.0650
139.5500,95.7650
140.3000,95.7650
140.3000,96.0650
Z" /> 
<path style="fill:#FFFFFF; fill-opacity:1.0000; 
stroke:#FFFFFF; stroke-width:0.0000; stroke-opacity:1; 
stroke-linecap:round; stroke-linejoin:round;fill-rule:evenodd;"
d="M 139.5500,97.3650
139.5500,97.0650
140.3000,97.0650
140.3000,97.3650
Z" /> 
<path style="fill:#FFFFFF; fill-opacity:1.0000; 
stroke:#FFFFFF; stroke-width:0.0000; stroke-opacity:1; 
stroke-linecap:round; stroke-linejoin:round;fill-rule:evenodd;"
d="M 136.4000,97.3650
136.4000,97.0650
137.2300,97.0650
137.2300,97.3650
Z" /> 
<path style="fill:#FFFFFF; fill-opacity:1.0000; 
stroke:#FFFFFF; stroke-width:0.0000; stroke-opacity:1; 
stroke-linecap:round; stroke-linejoin:round;fill-rule:evenodd;"
d="M 139.5500,96.7150
139.5500,96.4150
140.3000,96.4150
140.3000,96.7150
Z" /> 
<path style="fill:#FFFFFF; fill-opacity:1.0000; 
stroke:#FFFFFF; stroke-width:0.0000; stroke-opacity:1; 
stroke-linecap:round; stroke-linejoin:round;fill-rule:evenodd;"
d="M 137.8800,96.5815
137.8800,95.9465
138.3900,95.9465
138.3900,96.5815
Z" /> 
<path style="fill:#FFFFFF; fill-opacity:1.0000; 
stroke:#FFFFFF; stroke-width:0.0000; stroke-opacity:1; 
stroke-linecap:round; stroke-linejoin:round;fill-rule:evenodd;"
d="M 136.4000,96.0650
136.4000,95.7650
137.2300,95.7650
137.2300,96.0650
Z" /> 
<path style="fill:#FFFFFF; fill-opacity:1.0000; 
stroke:#FFFFFF; stroke-width:0.0000; stroke-opacity:1; 
stroke-linecap:round; stroke-linejoin:round;fill-rule:evenodd;"
d="M 136.4000,96.7150
136.4000,96.4150
137.2300,96.4150
137.2300,96.7150
Z" /> 
<path style="fill:#FFFFFF; fill-opacity:1.0000; 
stroke:#FFFFFF; stroke-width:0.0000; stroke-opacity:1; 
stroke-linecap:round; stroke-linejoin:round;fill-rule:evenodd;"
d="M 137.8800,97.8335
137.8800,97.1985
138.3900,97.1985
138.3900,97.8335
Z" /> 
</g>
<g >
</g>
<g >
</g>
<g >
</g>
<g >
</g>
<g >
</g>
<g >
</g>
<g >
</g>
<g >
</g>
<g >
</g>
<g >
</g>
<g >
</g>
</g> 
</svg>
