M48
; DRILL file {KiCad 7.0.2} date Sun Jun 25 20:59:58 2023
; FORMAT={-:-/ absolute / inch / decimal}
; #@! TF.CreationDate,2023-06-25T20:59:58-03:00
; #@! TF.GenerationSoftware,Kicad,Pcbnew,7.0.2
; #@! TF.FileFunction,Plated,1,2,PTH
FMAT,2
INCH
; #@! TA.AperFunction,Plated,PTH,ComponentDrill
T1C0.0276
; #@! TA.AperFunction,Plated,PTH,ComponentDrill
T2C0.0315
; #@! TA.AperFunction,Plated,PTH,ComponentDrill
T3C0.0354
; #@! TA.AperFunction,Plated,PTH,ComponentDrill
T4C0.0433
; #@! TA.AperFunction,Plated,PTH,ComponentDrill
T5C0.0472
%
G90
G05
T1
X4.2661Y-4.95
X4.2661Y-5.0
X4.3Y-3.35
X4.3Y-3.4
X5.2661Y-4.05
X5.2661Y-4.1
X5.2661Y-4.15
X5.2661Y-4.2
X5.3661Y-3.0
X5.3661Y-3.05
X6.3661Y-4.55
X6.3661Y-4.6
X7.1661Y-5.0
X7.1661Y-5.05
T2
X4.7165Y-3.6
X4.7661Y-4.5
X4.9661Y-4.8
X5.0157Y-3.6
X5.0646Y-4.8
X5.1661Y-4.5
X5.3661Y-3.4
X5.3661Y-3.8
X5.3661Y-4.5
X5.7661Y-3.0
X5.7661Y-4.5
X5.9677Y-3.4
X6.0661Y-3.4
X6.1661Y-3.0
X6.3661Y-3.0
X6.7661Y-3.0
X7.1661Y-3.1
X7.1661Y-3.5
T3
X7.1661Y-2.8
X7.1661Y-2.9
T4
X5.3382Y-4.7114
X5.3382Y-4.8886
X5.5941Y-4.7114
X5.5941Y-4.8886
X6.3382Y-3.2114
X6.3382Y-3.3886
X6.5941Y-3.2114
X6.5941Y-3.3886
T5
X4.083Y-2.8221
X4.1221Y-3.8903
X4.1221Y-4.717
X4.2208Y-3.1174
X4.4174Y-3.8903
X4.4174Y-4.5792
X4.9097Y-2.8221
X4.9097Y-3.1174
X7.0221Y-3.8903
X7.0221Y-4.717
X7.3174Y-3.8903
X7.3174Y-4.5792
T0
M30
