%TF.GenerationSoftware,KiCad,Pcbnew,7.0.2*%
%TF.CreationDate,2023-06-25T21:00:02-03:00*%
%TF.ProjectId,horta,686f7274-612e-46b6-9963-61645f706362,rev?*%
%TF.SameCoordinates,Original*%
%TF.FileFunction,Copper,L2,Bot*%
%TF.FilePolarity,Positive*%
%FSLAX46Y46*%
G04 Gerber Fmt 4.6, Leading zero omitted, Abs format (unit mm)*
G04 Created by KiCad (PCBNEW 7.0.2) date 2023-06-25 21:00:02*
%MOMM*%
%LPD*%
G01*
G04 APERTURE LIST*
%TA.AperFunction,ComponentPad*%
%ADD10C,2.000000*%
%TD*%
%TA.AperFunction,ComponentPad*%
%ADD11C,1.600000*%
%TD*%
%TA.AperFunction,ComponentPad*%
%ADD12O,1.600000X1.600000*%
%TD*%
%TA.AperFunction,ComponentPad*%
%ADD13R,2.500000X2.500000*%
%TD*%
%TA.AperFunction,ComponentPad*%
%ADD14O,2.500000X2.500000*%
%TD*%
%TA.AperFunction,ComponentPad*%
%ADD15R,1.000000X1.000000*%
%TD*%
%TA.AperFunction,ComponentPad*%
%ADD16O,1.000000X1.000000*%
%TD*%
%TA.AperFunction,ComponentPad*%
%ADD17R,1.800000X1.800000*%
%TD*%
%TA.AperFunction,ComponentPad*%
%ADD18C,1.800000*%
%TD*%
%TA.AperFunction,Conductor*%
%ADD19C,0.800000*%
%TD*%
G04 APERTURE END LIST*
D10*
%TO.P,SW2,2,2*%
%TO.N,GND*%
X160990000Y-86070000D03*
X167490000Y-86070000D03*
%TO.P,SW2,1,1*%
%TO.N,Net-(R5-Pad2)*%
X160990000Y-81570000D03*
X167490000Y-81570000D03*
%TD*%
%TO.P,SW1,1,1*%
%TO.N,Net-(R1-Pad1)*%
X142090000Y-119670000D03*
X135590000Y-119670000D03*
%TO.P,SW1,2,2*%
%TO.N,GND*%
X142090000Y-124170000D03*
X135590000Y-124170000D03*
%TD*%
D11*
%TO.P,R7,1*%
%TO.N,Net-(D1-K)*%
X182020000Y-78740000D03*
D12*
%TO.P,R7,2*%
%TO.N,GND*%
X182020000Y-88900000D03*
%TD*%
%TO.P,R6,2*%
%TO.N,VCC*%
X171860000Y-76200000D03*
D11*
%TO.P,R6,1*%
%TO.N,Net-(R5-Pad2)*%
X161700000Y-76200000D03*
%TD*%
D12*
%TO.P,R5,2*%
%TO.N,Net-(R5-Pad2)*%
X156620000Y-76200000D03*
D11*
%TO.P,R5,1*%
%TO.N,Net-(U1-PB0)*%
X146460000Y-76200000D03*
%TD*%
D12*
%TO.P,R4,2*%
%TO.N,GND*%
X136300000Y-96520000D03*
D11*
%TO.P,R4,1*%
%TO.N,Net-(U1-PA2)*%
X136300000Y-86360000D03*
%TD*%
%TO.P,R3,1*%
%TO.N,VCC*%
X119800000Y-91440000D03*
%TO.P,R3,2*%
%TO.N,Net-(U1-PA2)*%
X127400000Y-91440000D03*
%TD*%
%TO.P,R2,1*%
%TO.N,Net-(U1-PA0)*%
X121060000Y-114300000D03*
D12*
%TO.P,R2,2*%
%TO.N,Net-(R1-Pad1)*%
X131220000Y-114300000D03*
%TD*%
D11*
%TO.P,R1,1*%
%TO.N,Net-(R1-Pad1)*%
X136300000Y-114300000D03*
D12*
%TO.P,R1,2*%
%TO.N,VCC*%
X146460000Y-114300000D03*
%TD*%
D13*
%TO.P,K3,1*%
%TO.N,GND*%
X178362500Y-98812500D03*
D14*
%TO.P,K3,3*%
%TO.N,Net-(J8-Pin_1)*%
X178362500Y-119812500D03*
%TO.P,K3,5*%
%TO.N,Net-(J8-Pin_2)*%
X185862500Y-116312500D03*
%TO.P,K3,6*%
%TO.N,Net-(U1-PB2)*%
X185862500Y-98812500D03*
%TD*%
D13*
%TO.P,K2,1*%
%TO.N,GND*%
X124707500Y-71682500D03*
D14*
%TO.P,K2,3*%
%TO.N,Net-(J7-Pin_1)*%
X103707500Y-71682500D03*
%TO.P,K2,5*%
%TO.N,Net-(J7-Pin_2)*%
X107207500Y-79182500D03*
%TO.P,K2,6*%
%TO.N,Net-(U1-PA5)*%
X124707500Y-79182500D03*
%TD*%
D13*
%TO.P,K1,1*%
%TO.N,GND*%
X104702500Y-98812500D03*
D14*
%TO.P,K1,3*%
%TO.N,Net-(J1-Pin_1)*%
X104702500Y-119812500D03*
%TO.P,K1,5*%
%TO.N,Net-(J1-Pin_2)*%
X112202500Y-116312500D03*
%TO.P,K1,6*%
%TO.N,Net-(U1-PA3)*%
X112202500Y-98812500D03*
%TD*%
D15*
%TO.P,J8,1,Pin_1*%
%TO.N,Net-(J8-Pin_1)*%
X182020000Y-127000000D03*
D16*
%TO.P,J8,2,Pin_2*%
%TO.N,Net-(J8-Pin_2)*%
X182020000Y-128270000D03*
%TD*%
D15*
%TO.P,J7,1,Pin_1*%
%TO.N,Net-(J7-Pin_1)*%
X109220000Y-86360000D03*
D16*
%TO.P,J7,2,Pin_2*%
%TO.N,Net-(J7-Pin_2)*%
X109220000Y-85090000D03*
%TD*%
D15*
%TO.P,J5,1,Pin_1*%
%TO.N,VCC*%
X133760000Y-102870000D03*
D16*
%TO.P,J5,2,Pin_2*%
%TO.N,GND*%
X133760000Y-104140000D03*
%TO.P,J5,3,Pin_3*%
%TO.N,unconnected-(J5-Pin_3-Pad3)*%
X133760000Y-105410000D03*
%TO.P,J5,4,Pin_4*%
%TO.N,Net-(J5-Pin_4)*%
X133760000Y-106680000D03*
%TD*%
D15*
%TO.P,J4,1,Pin_1*%
%TO.N,VCC*%
X161700000Y-115570000D03*
D16*
%TO.P,J4,2,Pin_2*%
%TO.N,GND*%
X161700000Y-116840000D03*
%TD*%
D15*
%TO.P,J2,1,Pin_1*%
%TO.N,Net-(J2-Pin_1)*%
X136300000Y-76200000D03*
D16*
%TO.P,J2,2,Pin_2*%
%TO.N,GND*%
X136300000Y-77470000D03*
%TD*%
D15*
%TO.P,J1,1,Pin_1*%
%TO.N,Net-(J1-Pin_1)*%
X108360000Y-125730000D03*
D16*
%TO.P,J1,2,Pin_2*%
%TO.N,Net-(J1-Pin_2)*%
X108360000Y-127000000D03*
%TD*%
D17*
%TO.P,D1,1,K*%
%TO.N,Net-(D1-K)*%
X182020000Y-71120000D03*
D18*
%TO.P,D1,2,A*%
%TO.N,Net-(D1-A)*%
X182020000Y-73660000D03*
%TD*%
D11*
%TO.P,C2,2*%
%TO.N,GND*%
X154080000Y-86360000D03*
%TO.P,C2,1*%
%TO.N,Net-(U1-PB0)*%
X151580000Y-86360000D03*
%TD*%
%TO.P,C1,2*%
%TO.N,GND*%
X128640000Y-121920000D03*
%TO.P,C1,1*%
%TO.N,Net-(U1-PA0)*%
X126140000Y-121920000D03*
%TD*%
D19*
%TO.N,GND*%
X124707500Y-73732500D02*
X104702500Y-93737500D01*
X104702500Y-93737500D02*
X104702500Y-98812500D01*
X124707500Y-71682500D02*
X124707500Y-73732500D01*
X159160000Y-116840000D02*
X161700000Y-116840000D01*
X149860000Y-106680000D02*
X149860000Y-107540000D01*
X144780000Y-102460000D02*
X144780000Y-104140000D01*
X144780000Y-104140000D02*
X147320000Y-106680000D01*
X138840000Y-96520000D02*
X144780000Y-102460000D01*
X136300000Y-96520000D02*
X138840000Y-96520000D01*
X147320000Y-106680000D02*
X149860000Y-106680000D01*
X149860000Y-107540000D02*
X159160000Y-116840000D01*
X178362500Y-92557500D02*
X182020000Y-88900000D01*
X178362500Y-98812500D02*
X178362500Y-92557500D01*
X178362500Y-103147349D02*
X178362500Y-98812500D01*
X157339849Y-124170000D02*
X178362500Y-103147349D01*
X142090000Y-124170000D02*
X157339849Y-124170000D01*
%TO.N,VCC*%
X122330000Y-91440000D02*
X133760000Y-102870000D01*
X119800000Y-91440000D02*
X122330000Y-91440000D01*
X160715635Y-119380000D02*
X151540000Y-119380000D01*
X162800000Y-117295635D02*
X160715635Y-119380000D01*
X162800000Y-116384365D02*
X162800000Y-117295635D01*
X151540000Y-119380000D02*
X146460000Y-114300000D01*
X161985635Y-115570000D02*
X162800000Y-116384365D01*
X161700000Y-115570000D02*
X161985635Y-115570000D01*
X135308630Y-74800000D02*
X119800000Y-90308630D01*
X170460000Y-74800000D02*
X135308630Y-74800000D01*
X171860000Y-76200000D02*
X170460000Y-74800000D01*
X119800000Y-90308630D02*
X119800000Y-91440000D01*
%TO.N,GND*%
X134900000Y-78870000D02*
X136300000Y-77470000D01*
X134900000Y-95120000D02*
X134900000Y-78870000D01*
X136300000Y-96520000D02*
X134900000Y-95120000D01*
X167200000Y-86360000D02*
X167490000Y-86070000D01*
X154080000Y-86360000D02*
X167200000Y-86360000D01*
X137700000Y-95120000D02*
X145320000Y-95120000D01*
X136300000Y-96520000D02*
X137700000Y-95120000D01*
X145320000Y-95120000D02*
X154080000Y-86360000D01*
X135590000Y-124170000D02*
X142090000Y-124170000D01*
X133340000Y-121920000D02*
X135590000Y-124170000D01*
X128640000Y-121920000D02*
X133340000Y-121920000D01*
X128640000Y-108552894D02*
X128640000Y-121920000D01*
X133052894Y-104140000D02*
X128640000Y-108552894D01*
X133760000Y-104140000D02*
X133052894Y-104140000D01*
X110030000Y-104140000D02*
X104702500Y-98812500D01*
X133760000Y-104140000D02*
X110030000Y-104140000D01*
X136300000Y-102530000D02*
X134690000Y-104140000D01*
X134690000Y-104140000D02*
X133760000Y-104140000D01*
X136300000Y-96520000D02*
X136300000Y-102530000D01*
%TO.N,VCC*%
X171860000Y-93980000D02*
X171860000Y-76200000D01*
X159160000Y-106680000D02*
X171860000Y-93980000D01*
X161700000Y-115570000D02*
X161700000Y-109220000D01*
X161700000Y-109220000D02*
X159160000Y-106680000D01*
%TD*%
M02*
