%TF.GenerationSoftware,KiCad,Pcbnew,7.0.2*%
%TF.CreationDate,2023-06-25T21:00:02-03:00*%
%TF.ProjectId,horta,686f7274-612e-46b6-9963-61645f706362,rev?*%
%TF.SameCoordinates,Original*%
%TF.FileFunction,Copper,L1,Top*%
%TF.FilePolarity,Positive*%
%FSLAX46Y46*%
G04 Gerber Fmt 4.6, Leading zero omitted, Abs format (unit mm)*
G04 Created by KiCad (PCBNEW 7.0.2) date 2023-06-25 21:00:02*
%MOMM*%
%LPD*%
G01*
G04 APERTURE LIST*
G04 Aperture macros list*
%AMRoundRect*
0 Rectangle with rounded corners*
0 $1 Rounding radius*
0 $2 $3 $4 $5 $6 $7 $8 $9 X,Y pos of 4 corners*
0 Add a 4 corners polygon primitive as box body*
4,1,4,$2,$3,$4,$5,$6,$7,$8,$9,$2,$3,0*
0 Add four circle primitives for the rounded corners*
1,1,$1+$1,$2,$3*
1,1,$1+$1,$4,$5*
1,1,$1+$1,$6,$7*
1,1,$1+$1,$8,$9*
0 Add four rect primitives between the rounded corners*
20,1,$1+$1,$2,$3,$4,$5,0*
20,1,$1+$1,$4,$5,$6,$7,0*
20,1,$1+$1,$6,$7,$8,$9,0*
20,1,$1+$1,$8,$9,$2,$3,0*%
G04 Aperture macros list end*
%TA.AperFunction,SMDPad,CuDef*%
%ADD10RoundRect,0.150000X-0.875000X-0.150000X0.875000X-0.150000X0.875000X0.150000X-0.875000X0.150000X0*%
%TD*%
%TA.AperFunction,ComponentPad*%
%ADD11C,2.000000*%
%TD*%
%TA.AperFunction,ComponentPad*%
%ADD12C,1.600000*%
%TD*%
%TA.AperFunction,ComponentPad*%
%ADD13O,1.600000X1.600000*%
%TD*%
%TA.AperFunction,ComponentPad*%
%ADD14R,2.500000X2.500000*%
%TD*%
%TA.AperFunction,ComponentPad*%
%ADD15O,2.500000X2.500000*%
%TD*%
%TA.AperFunction,ComponentPad*%
%ADD16R,1.000000X1.000000*%
%TD*%
%TA.AperFunction,ComponentPad*%
%ADD17O,1.000000X1.000000*%
%TD*%
%TA.AperFunction,ComponentPad*%
%ADD18R,1.800000X1.800000*%
%TD*%
%TA.AperFunction,ComponentPad*%
%ADD19C,1.800000*%
%TD*%
%TA.AperFunction,Conductor*%
%ADD20C,0.800000*%
%TD*%
G04 APERTURE END LIST*
D10*
%TO.P,U1,1,PB0*%
%TO.N,Net-(U1-PB0)*%
X149860000Y-95250000D03*
%TO.P,U1,2,PA7*%
%TO.N,unconnected-(U1-PA7-Pad2)*%
X149860000Y-96520000D03*
%TO.P,U1,3,PA6*%
%TO.N,unconnected-(U1-PA6-Pad3)*%
X149860000Y-97790000D03*
%TO.P,U1,4,PA5*%
%TO.N,Net-(U1-PA5)*%
X149860000Y-99060000D03*
%TO.P,U1,5,PA4*%
%TO.N,Net-(J2-Pin_1)*%
X149860000Y-100330000D03*
%TO.P,U1,6,PA3*%
%TO.N,Net-(U1-PA3)*%
X149860000Y-101600000D03*
%TO.P,U1,7,PA2*%
%TO.N,Net-(U1-PA2)*%
X149860000Y-102870000D03*
%TO.P,U1,8,PA1*%
%TO.N,Net-(J5-Pin_4)*%
X149860000Y-104140000D03*
%TO.P,U1,9,PA0*%
%TO.N,Net-(U1-PA0)*%
X149860000Y-105410000D03*
%TO.P,U1,10,GND*%
%TO.N,GND*%
X149860000Y-106680000D03*
%TO.P,U1,11,VCC*%
%TO.N,VCC*%
X159160000Y-106680000D03*
%TO.P,U1,12,PC5*%
%TO.N,unconnected-(U1-PC5-Pad12)*%
X159160000Y-105410000D03*
%TO.P,U1,13,PC4*%
%TO.N,unconnected-(U1-PC4-Pad13)*%
X159160000Y-104140000D03*
%TO.P,U1,14,~{RESET}/PC3*%
%TO.N,unconnected-(U1-~{RESET}{slash}PC3-Pad14)*%
X159160000Y-102870000D03*
%TO.P,U1,15,PC2*%
%TO.N,unconnected-(U1-PC2-Pad15)*%
X159160000Y-101600000D03*
%TO.P,U1,16,PC1*%
%TO.N,unconnected-(U1-PC1-Pad16)*%
X159160000Y-100330000D03*
%TO.P,U1,17,PC0*%
%TO.N,unconnected-(U1-PC0-Pad17)*%
X159160000Y-99060000D03*
%TO.P,U1,18,PB3*%
%TO.N,unconnected-(U1-PB3-Pad18)*%
X159160000Y-97790000D03*
%TO.P,U1,19,PB2*%
%TO.N,Net-(U1-PB2)*%
X159160000Y-96520000D03*
%TO.P,U1,20,PB1*%
%TO.N,Net-(D1-A)*%
X159160000Y-95250000D03*
%TD*%
D11*
%TO.P,SW2,2,2*%
%TO.N,GND*%
X160990000Y-86070000D03*
X167490000Y-86070000D03*
%TO.P,SW2,1,1*%
%TO.N,Net-(R5-Pad2)*%
X160990000Y-81570000D03*
X167490000Y-81570000D03*
%TD*%
%TO.P,SW1,1,1*%
%TO.N,Net-(R1-Pad1)*%
X142090000Y-119670000D03*
X135590000Y-119670000D03*
%TO.P,SW1,2,2*%
%TO.N,GND*%
X142090000Y-124170000D03*
X135590000Y-124170000D03*
%TD*%
D12*
%TO.P,R7,1*%
%TO.N,Net-(D1-K)*%
X182020000Y-78740000D03*
D13*
%TO.P,R7,2*%
%TO.N,GND*%
X182020000Y-88900000D03*
%TD*%
%TO.P,R6,2*%
%TO.N,VCC*%
X171860000Y-76200000D03*
D12*
%TO.P,R6,1*%
%TO.N,Net-(R5-Pad2)*%
X161700000Y-76200000D03*
%TD*%
D13*
%TO.P,R5,2*%
%TO.N,Net-(R5-Pad2)*%
X156620000Y-76200000D03*
D12*
%TO.P,R5,1*%
%TO.N,Net-(U1-PB0)*%
X146460000Y-76200000D03*
%TD*%
D13*
%TO.P,R4,2*%
%TO.N,GND*%
X136300000Y-96520000D03*
D12*
%TO.P,R4,1*%
%TO.N,Net-(U1-PA2)*%
X136300000Y-86360000D03*
%TD*%
%TO.P,R3,1*%
%TO.N,VCC*%
X119800000Y-91440000D03*
%TO.P,R3,2*%
%TO.N,Net-(U1-PA2)*%
X127400000Y-91440000D03*
%TD*%
%TO.P,R2,1*%
%TO.N,Net-(U1-PA0)*%
X121060000Y-114300000D03*
D13*
%TO.P,R2,2*%
%TO.N,Net-(R1-Pad1)*%
X131220000Y-114300000D03*
%TD*%
D12*
%TO.P,R1,1*%
%TO.N,Net-(R1-Pad1)*%
X136300000Y-114300000D03*
D13*
%TO.P,R1,2*%
%TO.N,VCC*%
X146460000Y-114300000D03*
%TD*%
D14*
%TO.P,K3,1*%
%TO.N,GND*%
X178362500Y-98812500D03*
D15*
%TO.P,K3,3*%
%TO.N,Net-(J8-Pin_1)*%
X178362500Y-119812500D03*
%TO.P,K3,5*%
%TO.N,Net-(J8-Pin_2)*%
X185862500Y-116312500D03*
%TO.P,K3,6*%
%TO.N,Net-(U1-PB2)*%
X185862500Y-98812500D03*
%TD*%
D14*
%TO.P,K2,1*%
%TO.N,GND*%
X124707500Y-71682500D03*
D15*
%TO.P,K2,3*%
%TO.N,Net-(J7-Pin_1)*%
X103707500Y-71682500D03*
%TO.P,K2,5*%
%TO.N,Net-(J7-Pin_2)*%
X107207500Y-79182500D03*
%TO.P,K2,6*%
%TO.N,Net-(U1-PA5)*%
X124707500Y-79182500D03*
%TD*%
D14*
%TO.P,K1,1*%
%TO.N,GND*%
X104702500Y-98812500D03*
D15*
%TO.P,K1,3*%
%TO.N,Net-(J1-Pin_1)*%
X104702500Y-119812500D03*
%TO.P,K1,5*%
%TO.N,Net-(J1-Pin_2)*%
X112202500Y-116312500D03*
%TO.P,K1,6*%
%TO.N,Net-(U1-PA3)*%
X112202500Y-98812500D03*
%TD*%
D16*
%TO.P,J8,1,Pin_1*%
%TO.N,Net-(J8-Pin_1)*%
X182020000Y-127000000D03*
D17*
%TO.P,J8,2,Pin_2*%
%TO.N,Net-(J8-Pin_2)*%
X182020000Y-128270000D03*
%TD*%
D16*
%TO.P,J7,1,Pin_1*%
%TO.N,Net-(J7-Pin_1)*%
X109220000Y-86360000D03*
D17*
%TO.P,J7,2,Pin_2*%
%TO.N,Net-(J7-Pin_2)*%
X109220000Y-85090000D03*
%TD*%
D16*
%TO.P,J5,1,Pin_1*%
%TO.N,VCC*%
X133760000Y-102870000D03*
D17*
%TO.P,J5,2,Pin_2*%
%TO.N,GND*%
X133760000Y-104140000D03*
%TO.P,J5,3,Pin_3*%
%TO.N,unconnected-(J5-Pin_3-Pad3)*%
X133760000Y-105410000D03*
%TO.P,J5,4,Pin_4*%
%TO.N,Net-(J5-Pin_4)*%
X133760000Y-106680000D03*
%TD*%
D16*
%TO.P,J4,1,Pin_1*%
%TO.N,VCC*%
X161700000Y-115570000D03*
D17*
%TO.P,J4,2,Pin_2*%
%TO.N,GND*%
X161700000Y-116840000D03*
%TD*%
D16*
%TO.P,J2,1,Pin_1*%
%TO.N,Net-(J2-Pin_1)*%
X136300000Y-76200000D03*
D17*
%TO.P,J2,2,Pin_2*%
%TO.N,GND*%
X136300000Y-77470000D03*
%TD*%
D16*
%TO.P,J1,1,Pin_1*%
%TO.N,Net-(J1-Pin_1)*%
X108360000Y-125730000D03*
D17*
%TO.P,J1,2,Pin_2*%
%TO.N,Net-(J1-Pin_2)*%
X108360000Y-127000000D03*
%TD*%
D18*
%TO.P,D1,1,K*%
%TO.N,Net-(D1-K)*%
X182020000Y-71120000D03*
D19*
%TO.P,D1,2,A*%
%TO.N,Net-(D1-A)*%
X182020000Y-73660000D03*
%TD*%
D12*
%TO.P,C2,2*%
%TO.N,GND*%
X154080000Y-86360000D03*
%TO.P,C2,1*%
%TO.N,Net-(U1-PB0)*%
X151580000Y-86360000D03*
%TD*%
%TO.P,C1,2*%
%TO.N,GND*%
X128640000Y-121920000D03*
%TO.P,C1,1*%
%TO.N,Net-(U1-PA0)*%
X126140000Y-121920000D03*
%TD*%
D20*
%TO.N,Net-(J7-Pin_2)*%
X107207500Y-79182500D02*
X107207500Y-83077500D01*
X107207500Y-83077500D02*
X109220000Y-85090000D01*
%TO.N,Net-(J7-Pin_1)*%
X109505635Y-86360000D02*
X109220000Y-86360000D01*
X110320000Y-85545635D02*
X109505635Y-86360000D01*
X110320000Y-78295000D02*
X110320000Y-85545635D01*
X103707500Y-71682500D02*
X110320000Y-78295000D01*
%TO.N,Net-(U1-PA5)*%
X143920000Y-81620000D02*
X143920000Y-93935660D01*
X149044340Y-99060000D02*
X149860000Y-99060000D01*
X137400000Y-75100000D02*
X143920000Y-81620000D01*
X128790000Y-75100000D02*
X137400000Y-75100000D01*
X124707500Y-79182500D02*
X128790000Y-75100000D01*
X143920000Y-93935660D02*
X149044340Y-99060000D01*
%TO.N,Net-(R5-Pad2)*%
X160990000Y-81570000D02*
X167490000Y-81570000D01*
X161700000Y-80860000D02*
X160990000Y-81570000D01*
X161700000Y-76200000D02*
X161700000Y-80860000D01*
X156620000Y-76200000D02*
X161700000Y-76200000D01*
%TO.N,Net-(U1-PB0)*%
X146460000Y-81240000D02*
X151580000Y-86360000D01*
X146460000Y-76200000D02*
X146460000Y-81240000D01*
%TO.N,Net-(J2-Pin_1)*%
X136014365Y-76200000D02*
X136300000Y-76200000D01*
X135200000Y-77014365D02*
X136014365Y-76200000D01*
X142380000Y-89045887D02*
X135200000Y-81865887D01*
X135200000Y-81865887D02*
X135200000Y-77014365D01*
X142380000Y-100060000D02*
X142380000Y-89045887D01*
X149860000Y-100330000D02*
X142650000Y-100330000D01*
X142650000Y-100330000D02*
X142380000Y-100060000D01*
%TO.N,Net-(U1-PA3)*%
X141380000Y-101600000D02*
X149860000Y-101600000D01*
X141380000Y-89460101D02*
X141380000Y-101600000D01*
X131900101Y-84960000D02*
X136879899Y-84960000D01*
X118047601Y-98812500D02*
X131900101Y-84960000D01*
X136879899Y-84960000D02*
X141380000Y-89460101D01*
X112202500Y-98812500D02*
X118047601Y-98812500D01*
%TO.N,Net-(J5-Pin_4)*%
X142505786Y-104140000D02*
X149860000Y-104140000D01*
X139965786Y-106680000D02*
X142505786Y-104140000D01*
X133760000Y-106680000D02*
X139965786Y-106680000D01*
%TO.N,Net-(U1-PA2)*%
X138840000Y-104140000D02*
X140110000Y-102870000D01*
X140110000Y-102870000D02*
X149860000Y-102870000D01*
X138840000Y-88900000D02*
X138840000Y-104140000D01*
X136300000Y-86360000D02*
X138840000Y-88900000D01*
X131220000Y-91440000D02*
X136300000Y-86360000D01*
X127400000Y-91440000D02*
X131220000Y-91440000D01*
%TO.N,Net-(J8-Pin_1)*%
X178362500Y-123342500D02*
X182020000Y-127000000D01*
X178362500Y-119812500D02*
X178362500Y-123342500D01*
%TO.N,Net-(J8-Pin_2)*%
X185862500Y-125357500D02*
X182950000Y-128270000D01*
X185862500Y-116312500D02*
X185862500Y-125357500D01*
X182950000Y-128270000D02*
X182020000Y-128270000D01*
%TO.N,Net-(U1-PB2)*%
X183570000Y-96520000D02*
X159160000Y-96520000D01*
X185862500Y-98812500D02*
X183570000Y-96520000D01*
%TO.N,Net-(D1-K)*%
X183520000Y-77240000D02*
X182020000Y-78740000D01*
X182020000Y-71120000D02*
X183520000Y-72620000D01*
X183520000Y-72620000D02*
X183520000Y-77240000D01*
%TO.N,Net-(D1-A)*%
X182020000Y-73802742D02*
X182020000Y-73660000D01*
X159160000Y-95250000D02*
X160572742Y-95250000D01*
X160572742Y-95250000D02*
X182020000Y-73802742D01*
%TO.N,Net-(U1-PB0)*%
X151580000Y-93530000D02*
X149860000Y-95250000D01*
X151580000Y-86360000D02*
X151580000Y-93530000D01*
%TO.N,Net-(J1-Pin_1)*%
X104702500Y-122072500D02*
X108360000Y-125730000D01*
X104702500Y-119812500D02*
X104702500Y-122072500D01*
%TO.N,Net-(J1-Pin_2)*%
X112202500Y-124087500D02*
X112202500Y-116312500D01*
X108360000Y-127000000D02*
X109290000Y-127000000D01*
X109290000Y-127000000D02*
X112202500Y-124087500D01*
%TO.N,Net-(U1-PA0)*%
X142650000Y-105410000D02*
X149860000Y-105410000D01*
X136300000Y-111760000D02*
X142650000Y-105410000D01*
X123600000Y-111760000D02*
X136300000Y-111760000D01*
X121060000Y-114300000D02*
X123600000Y-111760000D01*
%TO.N,Net-(R1-Pad1)*%
X135590000Y-119670000D02*
X142090000Y-119670000D01*
X136300000Y-118960000D02*
X135590000Y-119670000D01*
X136300000Y-114300000D02*
X136300000Y-118960000D01*
X131220000Y-114300000D02*
X136300000Y-114300000D01*
%TO.N,Net-(U1-PA0)*%
X126140000Y-119380000D02*
X121060000Y-114300000D01*
X126140000Y-121920000D02*
X126140000Y-119380000D01*
%TD*%
M02*
