G04*
G04 #@! TF.GenerationSoftware,Altium Limited,Altium Designer,21.4.1 (30)*
G04*
G04 Layer_Color=16711935*
%FSLAX24Y24*%
%MOIN*%
G70*
G04*
G04 #@! TF.SameCoordinates,136769D1-9CB9-4328-8E5A-620BB88F4A60*
G04*
G04*
G04 #@! TF.FilePolarity,Negative*
G04*
G01*
G75*
%ADD22R,0.0434X0.0749*%
%ADD28C,0.1181*%
%ADD29C,0.0867*%
%ADD30C,0.0080*%
%ADD31C,0.0474*%
%ADD32R,0.0474X0.0474*%
%ADD33R,0.0080X0.0080*%
%ADD34C,0.1064*%
%ADD35C,0.0197*%
%ADD50R,0.0749X0.0434*%
%ADD51R,0.0592X0.0513*%
%ADD52R,0.0580X0.1430*%
%ADD53R,0.0610X0.0157*%
%ADD54R,0.0474X0.0631*%
%ADD55R,0.0297X0.0671*%
%ADD56R,0.0671X0.0297*%
%ADD57O,0.0671X0.0297*%
D22*
X22146Y6673D02*
D03*
X21004D02*
D03*
D28*
X118Y28543D02*
D03*
X31496Y-0D02*
D03*
D29*
X0Y4969D02*
D03*
Y3469D02*
D03*
Y1969D02*
D03*
Y10436D02*
D03*
Y8936D02*
D03*
Y7436D02*
D03*
X-0Y15904D02*
D03*
Y14404D02*
D03*
Y12904D02*
D03*
X0Y21372D02*
D03*
Y19872D02*
D03*
Y18372D02*
D03*
X0Y31941D02*
D03*
Y33441D02*
D03*
X41772Y16150D02*
D03*
Y14650D02*
D03*
Y12134D02*
D03*
Y10634D02*
D03*
Y3469D02*
D03*
Y1969D02*
D03*
Y7484D02*
D03*
Y5984D02*
D03*
Y24776D02*
D03*
Y23276D02*
D03*
Y20799D02*
D03*
Y19299D02*
D03*
Y33441D02*
D03*
Y31941D02*
D03*
Y29425D02*
D03*
Y27925D02*
D03*
D30*
X27661Y18494D02*
D03*
X7755D02*
D03*
D31*
X21183Y18484D02*
D03*
X20683D02*
D03*
X20183D02*
D03*
X19683D02*
D03*
X19183D02*
D03*
X18683D02*
D03*
X18183D02*
D03*
X17683D02*
D03*
X17183D02*
D03*
X16683D02*
D03*
X16183D02*
D03*
X15683D02*
D03*
X15183D02*
D03*
X14683D02*
D03*
D32*
X14183D02*
D03*
D33*
X41772Y35409D02*
D03*
X0D02*
D03*
X0Y0D02*
D03*
X41772Y-0D02*
D03*
D34*
X7323Y25384D02*
D03*
Y29616D02*
D03*
X22480Y28533D02*
D03*
Y25384D02*
D03*
D35*
X29868Y3209D02*
D03*
X25543Y10059D02*
D03*
X13514Y8749D02*
D03*
X6386Y2341D02*
D03*
X15917Y2341D02*
D03*
X25447Y2371D02*
D03*
X19331Y11063D02*
D03*
X16270Y9429D02*
D03*
X16280Y11634D02*
D03*
X17598Y4039D02*
D03*
X35433Y15777D02*
D03*
X36890Y1969D02*
D03*
Y10634D02*
D03*
Y27925D02*
D03*
X19528Y10059D02*
D03*
X12766Y8898D02*
D03*
X22776Y12992D02*
D03*
X23091D02*
D03*
X19528Y9744D02*
D03*
Y9114D02*
D03*
Y9429D02*
D03*
D50*
X19006Y4039D02*
D03*
Y2897D02*
D03*
D51*
X18760Y11063D02*
D03*
X17854D02*
D03*
X18760Y10354D02*
D03*
X17854D02*
D03*
D52*
X24406Y2897D02*
D03*
X23406Y4045D02*
D03*
X22406Y2897D02*
D03*
X21406Y4045D02*
D03*
X20406Y2897D02*
D03*
D53*
X12274Y10965D02*
D03*
Y10374D02*
D03*
Y10571D02*
D03*
Y10768D02*
D03*
Y11161D02*
D03*
X14006Y10374D02*
D03*
Y10571D02*
D03*
Y10768D02*
D03*
Y10965D02*
D03*
Y11161D02*
D03*
D54*
X12766Y9587D02*
D03*
X13514D02*
D03*
X17018Y10359D02*
D03*
X16270D02*
D03*
X16280Y11063D02*
D03*
X17028D02*
D03*
D55*
X24035Y12303D02*
D03*
X23720D02*
D03*
X23406D02*
D03*
X23091D02*
D03*
X22776D02*
D03*
X22461D02*
D03*
X22146D02*
D03*
X21831D02*
D03*
X21516D02*
D03*
X21201D02*
D03*
X20886D02*
D03*
Y7815D02*
D03*
X21201D02*
D03*
X21516D02*
D03*
X21831D02*
D03*
X22146D02*
D03*
X22461D02*
D03*
X22776D02*
D03*
X23091D02*
D03*
X23406D02*
D03*
X23720D02*
D03*
X24035D02*
D03*
D56*
X20217Y11634D02*
D03*
Y11319D02*
D03*
Y11004D02*
D03*
Y10689D02*
D03*
Y10374D02*
D03*
Y10059D02*
D03*
Y9744D02*
D03*
Y9429D02*
D03*
Y9114D02*
D03*
Y8799D02*
D03*
Y8484D02*
D03*
X24705D02*
D03*
Y8799D02*
D03*
Y9114D02*
D03*
Y9429D02*
D03*
Y9744D02*
D03*
Y10059D02*
D03*
Y10374D02*
D03*
Y10689D02*
D03*
Y11004D02*
D03*
Y11319D02*
D03*
D57*
Y11634D02*
D03*
M02*
