G04*
G04 #@! TF.GenerationSoftware,Altium Limited,Altium Designer,21.4.1 (30)*
G04*
G04 Layer_Color=255*
%FSLAX24Y24*%
%MOIN*%
G70*
G04*
G04 #@! TF.SameCoordinates,136769D1-9CB9-4328-8E5A-620BB88F4A60*
G04*
G04*
G04 #@! TF.FilePolarity,Positive*
G04*
G01*
G75*
%ADD15R,0.0354X0.0669*%
%ADD16R,0.0827X0.0551*%
%ADD17R,0.0394X0.0276*%
%ADD18O,0.0394X0.0276*%
%ADD19R,0.0630X0.0630*%
%ADD20R,0.0433X0.0630*%
%ADD21C,0.0394*%
%ADD38C,0.0787*%
%ADD39R,0.0394X0.0394*%
%ADD40C,0.0984*%
D15*
X8749Y5886D02*
D03*
X7607D02*
D03*
X17137D02*
D03*
X18279D02*
D03*
X27809D02*
D03*
X26667D02*
D03*
D16*
X25447Y4980D02*
D03*
Y3209D02*
D03*
X29030Y4980D02*
D03*
Y3209D02*
D03*
X19499Y3179D02*
D03*
Y4951D02*
D03*
X15917Y3179D02*
D03*
Y4951D02*
D03*
X6386Y4951D02*
D03*
Y3179D02*
D03*
X9969Y4951D02*
D03*
Y3179D02*
D03*
D17*
X36890Y22281D02*
D03*
Y30947D02*
D03*
Y13656D02*
D03*
Y4990D02*
D03*
D18*
Y21907D02*
D03*
Y21533D02*
D03*
X37913D02*
D03*
Y21907D02*
D03*
Y22281D02*
D03*
Y30947D02*
D03*
Y30573D02*
D03*
Y30199D02*
D03*
X36890D02*
D03*
Y30573D02*
D03*
X37913Y13656D02*
D03*
Y13282D02*
D03*
Y12907D02*
D03*
X36890D02*
D03*
Y13282D02*
D03*
Y4616D02*
D03*
Y4242D02*
D03*
X37913D02*
D03*
Y4616D02*
D03*
Y4990D02*
D03*
D19*
X30846Y8858D02*
D03*
D20*
X31299Y7717D02*
D03*
X30394D02*
D03*
D21*
X118Y28543D02*
D03*
X31496Y-0D02*
D03*
X21183Y18484D02*
D03*
X20683D02*
D03*
X20183D02*
D03*
X19683D02*
D03*
X19183D02*
D03*
X18683D02*
D03*
X18183D02*
D03*
X17683D02*
D03*
X17183D02*
D03*
X16683D02*
D03*
X16183D02*
D03*
X15683D02*
D03*
X15183D02*
D03*
X14683D02*
D03*
D38*
X0Y4969D02*
D03*
Y3469D02*
D03*
Y1969D02*
D03*
Y10436D02*
D03*
Y8936D02*
D03*
Y7436D02*
D03*
X-0Y15904D02*
D03*
Y14404D02*
D03*
Y12904D02*
D03*
X0Y21372D02*
D03*
Y19872D02*
D03*
Y18372D02*
D03*
X0Y31941D02*
D03*
Y33441D02*
D03*
X41772Y16150D02*
D03*
Y14650D02*
D03*
Y12134D02*
D03*
Y10634D02*
D03*
Y3469D02*
D03*
Y1969D02*
D03*
Y7484D02*
D03*
Y5984D02*
D03*
Y24776D02*
D03*
Y23276D02*
D03*
Y20799D02*
D03*
Y19299D02*
D03*
Y33441D02*
D03*
Y31941D02*
D03*
Y29425D02*
D03*
Y27925D02*
D03*
D39*
X14183Y18484D02*
D03*
D40*
X7323Y25384D02*
D03*
Y29616D02*
D03*
X22480Y28533D02*
D03*
Y25384D02*
D03*
M02*
