G04*
G04 #@! TF.GenerationSoftware,Altium Limited,Altium Designer,22.11.1 (43)*
G04*
G04 Layer_Physical_Order=1*
G04 Layer_Color=255*
%FSLAX24Y24*%
%MOIN*%
G70*
G04*
G04 #@! TF.SameCoordinates,7676E619-B689-43AB-A287-34DBDB4E9A50*
G04*
G04*
G04 #@! TF.FilePolarity,Positive*
G04*
G01*
G75*
%ADD11C,0.0100*%
%ADD13C,0.0118*%
%ADD15R,0.0354X0.0669*%
%ADD16R,0.0827X0.0551*%
%ADD17R,0.0394X0.0276*%
%ADD18O,0.0394X0.0276*%
%ADD19R,0.0630X0.0630*%
%ADD20R,0.0433X0.0630*%
%ADD21C,0.0394*%
%ADD35C,0.0197*%
%ADD36C,0.0394*%
%ADD37C,0.0236*%
%ADD38C,0.0787*%
%ADD39R,0.0394X0.0394*%
%ADD40C,0.0984*%
G36*
X-1024Y36350D02*
X38622Y36350D01*
Y33661D01*
X38622Y30433D01*
X38215D01*
X38211Y30437D01*
X38141Y30491D01*
X38060Y30525D01*
X37972Y30536D01*
X37854D01*
X37767Y30525D01*
X37686Y30491D01*
X37616Y30437D01*
X37612Y30433D01*
X37191D01*
X37187Y30437D01*
X37118Y30491D01*
X37036Y30525D01*
X36949Y30536D01*
X36831D01*
X36743Y30525D01*
X36662Y30491D01*
X36592Y30437D01*
X36589Y30433D01*
X35866D01*
Y25783D01*
X38622D01*
Y21811D01*
X38160D01*
X38141Y21826D01*
X38060Y21860D01*
X37972Y21871D01*
X37854D01*
X37767Y21860D01*
X37686Y21826D01*
X37666Y21811D01*
X37137D01*
X37118Y21826D01*
X37036Y21860D01*
X36949Y21871D01*
X36831D01*
X36743Y21860D01*
X36662Y21826D01*
X36643Y21811D01*
X35866D01*
Y21792D01*
X35799Y21783D01*
X35737Y21757D01*
X35684Y21716D01*
X35251Y21283D01*
X35210Y21229D01*
X35184Y21167D01*
X35175Y21100D01*
Y15920D01*
X35158Y15891D01*
X35138Y15816D01*
Y15738D01*
X35158Y15663D01*
X35197Y15595D01*
X35252Y15540D01*
X35319Y15501D01*
X35394Y15481D01*
X35472D01*
X35547Y15501D01*
X35614Y15540D01*
X35669Y15595D01*
X35708Y15663D01*
X35728Y15738D01*
Y15816D01*
X35708Y15891D01*
X35691Y15920D01*
Y20993D01*
X35820Y21122D01*
X35866Y21103D01*
Y17157D01*
X38622D01*
Y13150D01*
X38207D01*
X38141Y13200D01*
X38060Y13234D01*
X37972Y13245D01*
X37854D01*
X37767Y13234D01*
X37686Y13200D01*
X37620Y13150D01*
X37183D01*
X37118Y13200D01*
X37036Y13234D01*
X36949Y13245D01*
X36831D01*
X36743Y13234D01*
X36662Y13200D01*
X36597Y13150D01*
X35866D01*
Y9599D01*
X38587Y9604D01*
X38622Y9569D01*
Y4659D01*
Y4488D01*
X38201D01*
X38141Y4534D01*
X38060Y4568D01*
X37972Y4580D01*
X37854D01*
X37767Y4568D01*
X37686Y4534D01*
X37625Y4488D01*
X37178D01*
X37118Y4534D01*
X37036Y4568D01*
X36949Y4580D01*
X36831D01*
X36743Y4568D01*
X36662Y4534D01*
X36602Y4488D01*
X36554D01*
Y4432D01*
X36538Y4411D01*
X36505Y4329D01*
X36493Y4242D01*
X36505Y4155D01*
X36538Y4073D01*
X36554Y4053D01*
Y3536D01*
Y984D01*
X33071D01*
Y13150D01*
Y23701D01*
X23822D01*
X23816Y29891D01*
X18425D01*
Y23701D01*
X-1137D01*
Y32122D01*
X-1137Y32122D01*
Y36236D01*
X-1137Y36236D01*
X-1137Y36236D01*
X-1129Y36283D01*
X-1105Y36318D01*
X-1068Y36343D01*
X-1028Y36351D01*
X-1024Y36350D01*
D02*
G37*
G36*
X42909Y34449D02*
Y26890D01*
X37480D01*
Y30036D01*
X37612D01*
X37638Y30039D01*
X37664D01*
X37689Y30046D01*
X37715Y30050D01*
X37739Y30059D01*
X37764Y30066D01*
X37787Y30079D01*
X37811Y30089D01*
X37831Y30105D01*
X37854Y30118D01*
X37862Y30126D01*
X37879Y30139D01*
X37880Y30139D01*
X37946D01*
X37948Y30139D01*
X37965Y30126D01*
X37973Y30118D01*
X37995Y30105D01*
X38016Y30089D01*
X38040Y30079D01*
X38063Y30066D01*
X38088Y30059D01*
X38112Y30050D01*
X38138Y30046D01*
X38163Y30039D01*
X38189Y30039D01*
X38215Y30036D01*
X38622D01*
X38725Y30050D01*
X38821Y30089D01*
X38903Y30152D01*
X38966Y30235D01*
X39006Y30330D01*
X39019Y30433D01*
X39019Y33661D01*
Y34449D01*
X39055Y34484D01*
X42909Y34449D01*
D02*
G37*
G36*
X23425Y23700D02*
X23431Y23649D01*
X23438Y23598D01*
X23438Y23598D01*
X23438Y23598D01*
X23458Y23550D01*
X23478Y23502D01*
X23478Y23502D01*
X23478Y23502D01*
X23509Y23461D01*
X23541Y23420D01*
X23541Y23420D01*
X23541Y23420D01*
X23582Y23388D01*
X23623Y23357D01*
X23623Y23357D01*
X23623Y23357D01*
X23671Y23337D01*
X23719Y23317D01*
X23719Y23317D01*
X23719Y23317D01*
X23770Y23310D01*
X23822Y23304D01*
X32674D01*
Y13150D01*
Y984D01*
X32687Y881D01*
X32727Y786D01*
X32790Y703D01*
X32872Y640D01*
X32968Y601D01*
X33071Y587D01*
X36554D01*
X36657Y601D01*
X36753Y640D01*
X36835Y703D01*
X36898Y786D01*
X36938Y881D01*
X36951Y984D01*
Y1802D01*
X36990Y1818D01*
X37033Y1861D01*
X37065Y1855D01*
X37083Y1846D01*
Y933D01*
X37097Y830D01*
X37136Y735D01*
X37200Y652D01*
X37282Y589D01*
X37378Y549D01*
X37480Y536D01*
X41157D01*
X41168Y508D01*
X41173Y486D01*
X41091Y364D01*
X41033Y224D01*
X41004Y76D01*
Y-76D01*
X41033Y-224D01*
X41091Y-364D01*
X41175Y-489D01*
X41282Y-596D01*
X41408Y-680D01*
X41548Y-738D01*
X41696Y-768D01*
X41847D01*
X41996Y-738D01*
X42135Y-680D01*
X42261Y-596D01*
X42368Y-489D01*
X42452Y-364D01*
X42510Y-224D01*
X42539Y-76D01*
Y76D01*
X42510Y224D01*
X42452Y364D01*
X42370Y486D01*
X42375Y508D01*
X42387Y536D01*
X42909D01*
X42979Y545D01*
X43029Y506D01*
Y-827D01*
X43030Y-831D01*
X43013Y-917D01*
X42962Y-993D01*
X42885Y-1045D01*
X42800Y-1062D01*
X42795Y-1061D01*
X-974Y-1061D01*
X-1024Y-1061D01*
X-1071Y-1053D01*
X-1114Y-1045D01*
X-1190Y-993D01*
X-1241Y-917D01*
X-1250Y-874D01*
X-1258Y-827D01*
X-1258Y-827D01*
X-1258Y-778D01*
X-1258Y23274D01*
X-1208Y23313D01*
X-1137Y23304D01*
X18425D01*
X18528Y23317D01*
X18624Y23357D01*
X18706Y23420D01*
X18769Y23502D01*
X18809Y23598D01*
X18822Y23701D01*
Y29493D01*
X23419D01*
X23425Y23700D01*
D02*
G37*
G36*
X42909Y25784D02*
X42909Y18224D01*
X37480D01*
Y21414D01*
X37666D01*
X37692Y21417D01*
X37718D01*
X37743Y21424D01*
X37769Y21427D01*
X37793Y21437D01*
X37818Y21444D01*
X37841Y21457D01*
X37865Y21467D01*
X37872Y21473D01*
X37880Y21474D01*
X37946D01*
X37954Y21473D01*
X37962Y21467D01*
X37986Y21457D01*
X38008Y21444D01*
X38034Y21437D01*
X38058Y21427D01*
X38083Y21424D01*
X38109Y21417D01*
X38135D01*
X38160Y21414D01*
X38622D01*
X38725Y21427D01*
X38821Y21467D01*
X38903Y21530D01*
X38966Y21612D01*
X39006Y21708D01*
X39019Y21811D01*
Y25769D01*
X39054Y25819D01*
X42909Y25784D01*
D02*
G37*
G36*
X42909Y17158D02*
Y9598D01*
X39015D01*
X39012Y9620D01*
X39006Y9671D01*
X39006Y9672D01*
X39006Y9672D01*
X38986Y9719D01*
X38966Y9767D01*
X38966Y9767D01*
X38966Y9768D01*
X38934Y9808D01*
X38903Y9849D01*
X38903Y9850D01*
X38903Y9850D01*
X38867Y9885D01*
X38867Y9885D01*
X38867Y9885D01*
X38826Y9917D01*
X38785Y9948D01*
X38785Y9948D01*
X38785Y9948D01*
X38737Y9968D01*
X38689Y9988D01*
X38689Y9988D01*
X38689Y9988D01*
X38638Y9994D01*
X38586Y10001D01*
X38586Y10001D01*
X38586Y10001D01*
X37516Y9999D01*
X37480Y10034D01*
Y12753D01*
X37620D01*
X37646Y12756D01*
X37672D01*
X37697Y12763D01*
X37723Y12766D01*
X37747Y12776D01*
X37772Y12783D01*
X37795Y12796D01*
X37819Y12806D01*
X37839Y12822D01*
X37862Y12835D01*
X37879Y12848D01*
X37880Y12848D01*
X37946D01*
X37948Y12848D01*
X37965Y12835D01*
X37987Y12822D01*
X38008Y12806D01*
X38032Y12796D01*
X38055Y12783D01*
X38080Y12776D01*
X38104Y12766D01*
X38130Y12763D01*
X38155Y12756D01*
X38181D01*
X38207Y12753D01*
X38622D01*
X38725Y12766D01*
X38821Y12806D01*
X38903Y12869D01*
X38966Y12951D01*
X39006Y13047D01*
X39019Y13150D01*
Y17143D01*
X39054Y17193D01*
X42909Y17158D01*
D02*
G37*
G36*
Y8493D02*
Y3287D01*
X42909Y3287D01*
Y933D01*
X37480D01*
Y4091D01*
X37625D01*
X37651Y4094D01*
X37677D01*
X37702Y4101D01*
X37728Y4105D01*
X37752Y4115D01*
X37777Y4121D01*
X37800Y4134D01*
X37824Y4144D01*
X37844Y4160D01*
X37867Y4173D01*
X37879Y4182D01*
X37880Y4183D01*
X37946D01*
X37948Y4182D01*
X37960Y4173D01*
X37982Y4160D01*
X38003Y4144D01*
X38027Y4134D01*
X38050Y4121D01*
X38075Y4115D01*
X38099Y4105D01*
X38125Y4101D01*
X38150Y4094D01*
X38176D01*
X38201Y4091D01*
X38622D01*
X38725Y4105D01*
X38821Y4144D01*
X38903Y4207D01*
X38966Y4290D01*
X39006Y4385D01*
X39019Y4488D01*
Y4659D01*
Y8492D01*
X39055Y8528D01*
X42909Y8493D01*
D02*
G37*
%LPC*%
G36*
X87Y36295D02*
X-87D01*
X-258Y36261D01*
X-420Y36194D01*
X-565Y36098D01*
X-688Y35974D01*
X-785Y35829D01*
X-852Y35668D01*
X-886Y35497D01*
Y35322D01*
X-852Y35151D01*
X-785Y34990D01*
X-688Y34845D01*
X-565Y34721D01*
X-420Y34624D01*
X-258Y34558D01*
X-87Y34524D01*
X87D01*
X258Y34558D01*
X420Y34624D01*
X565Y34721D01*
X688Y34845D01*
X785Y34990D01*
X852Y35151D01*
X886Y35322D01*
Y35497D01*
X852Y35668D01*
X785Y35829D01*
X688Y35974D01*
X565Y36098D01*
X420Y36194D01*
X258Y36261D01*
X87Y36295D01*
D02*
G37*
G36*
X58Y34031D02*
X-58D01*
X-172Y34009D01*
X-280Y33964D01*
X-376Y33900D01*
X-459Y33817D01*
X-523Y33721D01*
X-568Y33613D01*
X-591Y33499D01*
Y33383D01*
X-568Y33269D01*
X-523Y33161D01*
X-459Y33064D01*
X-376Y32982D01*
X-280Y32918D01*
X-172Y32873D01*
X-58Y32850D01*
X58D01*
X172Y32873D01*
X280Y32918D01*
X376Y32982D01*
X459Y33064D01*
X523Y33161D01*
X568Y33269D01*
X591Y33383D01*
Y33499D01*
X568Y33613D01*
X523Y33721D01*
X459Y33817D01*
X376Y33900D01*
X280Y33964D01*
X172Y34009D01*
X58Y34031D01*
D02*
G37*
G36*
X197Y32705D02*
Y32138D01*
X764D01*
X757Y32171D01*
X698Y32314D01*
X612Y32443D01*
X502Y32553D01*
X373Y32639D01*
X230Y32698D01*
X197Y32705D01*
D02*
G37*
G36*
X-197Y32705D02*
X-230Y32698D01*
X-373Y32639D01*
X-502Y32553D01*
X-612Y32443D01*
X-698Y32314D01*
X-757Y32171D01*
X-764Y32138D01*
X-197D01*
Y32705D01*
D02*
G37*
G36*
X764Y31744D02*
X197D01*
Y31177D01*
X230Y31184D01*
X373Y31243D01*
X502Y31329D01*
X612Y31439D01*
X698Y31568D01*
X757Y31711D01*
X764Y31744D01*
D02*
G37*
G36*
X-197D02*
X-764D01*
X-757Y31711D01*
X-698Y31568D01*
X-612Y31439D01*
X-502Y31329D01*
X-373Y31243D01*
X-230Y31184D01*
X-197Y31177D01*
Y31744D01*
D02*
G37*
G36*
X7391Y30305D02*
X7255D01*
X7122Y30279D01*
X6996Y30227D01*
X6884Y30151D01*
X6788Y30055D01*
X6712Y29942D01*
X6660Y29817D01*
X6634Y29684D01*
Y29548D01*
X6660Y29415D01*
X6712Y29290D01*
X6788Y29177D01*
X6884Y29081D01*
X6996Y29006D01*
X7122Y28954D01*
X7255Y28927D01*
X7391D01*
X7524Y28954D01*
X7649Y29006D01*
X7762Y29081D01*
X7858Y29177D01*
X7933Y29290D01*
X7985Y29415D01*
X8012Y29548D01*
Y29684D01*
X7985Y29817D01*
X7933Y29942D01*
X7858Y30055D01*
X7762Y30151D01*
X7649Y30227D01*
X7524Y30279D01*
X7391Y30305D01*
D02*
G37*
G36*
X118Y29435D02*
X-56Y29417D01*
X-223Y29367D01*
X-377Y29284D01*
X-512Y29173D01*
X-623Y29038D01*
X-705Y28884D01*
X-756Y28717D01*
X-773Y28543D01*
X-756Y28369D01*
X-705Y28202D01*
X-623Y28048D01*
X-512Y27913D01*
X-377Y27802D01*
X-223Y27720D01*
X-56Y27669D01*
X118Y27652D01*
X292Y27669D01*
X459Y27720D01*
X613Y27802D01*
X748Y27913D01*
X859Y28048D01*
X941Y28202D01*
X992Y28369D01*
X1009Y28543D01*
X992Y28717D01*
X941Y28884D01*
X859Y29038D01*
X748Y29173D01*
X613Y29284D01*
X459Y29367D01*
X292Y29417D01*
X118Y29435D01*
D02*
G37*
G36*
X7520Y26248D02*
Y25581D01*
X8187D01*
X8175Y25642D01*
X8108Y25803D01*
X8011Y25949D01*
X7888Y26072D01*
X7742Y26169D01*
X7581Y26236D01*
X7520Y26248D01*
D02*
G37*
G36*
X7126D02*
X7064Y26236D01*
X6903Y26169D01*
X6758Y26072D01*
X6635Y25949D01*
X6538Y25803D01*
X6471Y25642D01*
X6459Y25581D01*
X7126D01*
Y26248D01*
D02*
G37*
G36*
X8187Y25187D02*
X7520D01*
Y24520D01*
X7581Y24532D01*
X7742Y24599D01*
X7888Y24696D01*
X8011Y24819D01*
X8108Y24964D01*
X8175Y25125D01*
X8187Y25187D01*
D02*
G37*
G36*
X7126D02*
X6459D01*
X6471Y25125D01*
X6538Y24964D01*
X6635Y24819D01*
X6758Y24696D01*
X6903Y24599D01*
X7064Y24532D01*
X7126Y24520D01*
Y25187D01*
D02*
G37*
G36*
X41968Y34205D02*
Y33638D01*
X42535D01*
X42529Y33671D01*
X42469Y33814D01*
X42383Y33943D01*
X42274Y34053D01*
X42145Y34139D01*
X42001Y34198D01*
X41968Y34205D01*
D02*
G37*
G36*
X41575D02*
X41542Y34198D01*
X41399Y34139D01*
X41270Y34053D01*
X41160Y33943D01*
X41074Y33814D01*
X41015Y33671D01*
X41008Y33638D01*
X41575D01*
Y34205D01*
D02*
G37*
G36*
X42535Y33244D02*
X41968D01*
Y32677D01*
X42001Y32684D01*
X42145Y32743D01*
X42274Y32829D01*
X42383Y32939D01*
X42469Y33068D01*
X42529Y33211D01*
X42535Y33244D01*
D02*
G37*
G36*
X41575D02*
X41008D01*
X41015Y33211D01*
X41074Y33068D01*
X41160Y32939D01*
X41270Y32829D01*
X41399Y32743D01*
X41542Y32684D01*
X41575Y32677D01*
Y33244D01*
D02*
G37*
G36*
X41830Y32531D02*
X41713D01*
X41599Y32509D01*
X41492Y32464D01*
X41395Y32400D01*
X41313Y32317D01*
X41248Y32221D01*
X41204Y32113D01*
X41181Y31999D01*
Y31883D01*
X41204Y31769D01*
X41248Y31661D01*
X41313Y31564D01*
X41395Y31482D01*
X41492Y31418D01*
X41599Y31373D01*
X41713Y31350D01*
X41830D01*
X41944Y31373D01*
X42051Y31418D01*
X42148Y31482D01*
X42230Y31564D01*
X42295Y31661D01*
X42340Y31769D01*
X42362Y31883D01*
Y31999D01*
X42340Y32113D01*
X42295Y32221D01*
X42230Y32317D01*
X42148Y32400D01*
X42051Y32464D01*
X41944Y32509D01*
X41830Y32531D01*
D02*
G37*
G36*
X41968Y30189D02*
Y29622D01*
X42535D01*
X42529Y29655D01*
X42469Y29798D01*
X42383Y29927D01*
X42274Y30037D01*
X42145Y30123D01*
X42001Y30182D01*
X41968Y30189D01*
D02*
G37*
G36*
X41575D02*
X41542Y30182D01*
X41399Y30123D01*
X41270Y30037D01*
X41160Y29927D01*
X41074Y29798D01*
X41015Y29655D01*
X41008Y29622D01*
X41575D01*
Y30189D01*
D02*
G37*
G36*
X42535Y29228D02*
X41968D01*
Y28662D01*
X42001Y28668D01*
X42145Y28727D01*
X42274Y28814D01*
X42383Y28923D01*
X42469Y29052D01*
X42529Y29196D01*
X42535Y29228D01*
D02*
G37*
G36*
X41575D02*
X41008D01*
X41015Y29196D01*
X41074Y29052D01*
X41160Y28923D01*
X41270Y28814D01*
X41399Y28727D01*
X41542Y28668D01*
X41575Y28662D01*
Y29228D01*
D02*
G37*
G36*
X41830Y28516D02*
X41713D01*
X41599Y28493D01*
X41492Y28449D01*
X41395Y28384D01*
X41313Y28302D01*
X41248Y28205D01*
X41204Y28097D01*
X41181Y27983D01*
Y27867D01*
X41204Y27753D01*
X41248Y27645D01*
X41313Y27549D01*
X41395Y27466D01*
X41492Y27402D01*
X41599Y27357D01*
X41713Y27335D01*
X41830D01*
X41944Y27357D01*
X42051Y27402D01*
X42148Y27466D01*
X42230Y27549D01*
X42295Y27645D01*
X42340Y27753D01*
X42362Y27867D01*
Y27983D01*
X42340Y28097D01*
X42295Y28205D01*
X42230Y28302D01*
X42148Y28384D01*
X42051Y28449D01*
X41944Y28493D01*
X41830Y28516D01*
D02*
G37*
G36*
X22555Y29104D02*
X22405D01*
X22260Y29065D01*
X22130Y28990D01*
X22024Y28884D01*
X21948Y28754D01*
X21909Y28609D01*
Y28458D01*
X21948Y28313D01*
X22024Y28183D01*
X22130Y28077D01*
X22260Y28001D01*
X22405Y27963D01*
X22555D01*
X22701Y28001D01*
X22831Y28077D01*
X22937Y28183D01*
X23012Y28313D01*
X23051Y28458D01*
Y28609D01*
X23012Y28754D01*
X22937Y28884D01*
X22831Y28990D01*
X22701Y29065D01*
X22555Y29104D01*
D02*
G37*
G36*
X22540Y25994D02*
X22539D01*
Y25443D01*
X23091D01*
Y25444D01*
X23067Y25562D01*
X23021Y25673D01*
X22954Y25773D01*
X22869Y25858D01*
X22769Y25925D01*
X22658Y25971D01*
X22540Y25994D01*
D02*
G37*
G36*
X22421D02*
X22420D01*
X22302Y25971D01*
X22191Y25925D01*
X22091Y25858D01*
X22006Y25773D01*
X21940Y25673D01*
X21894Y25562D01*
X21870Y25444D01*
Y25443D01*
X22421D01*
Y25994D01*
D02*
G37*
G36*
X23091Y25325D02*
X22539D01*
Y24774D01*
X22540D01*
X22658Y24797D01*
X22769Y24843D01*
X22869Y24910D01*
X22954Y24995D01*
X23021Y25095D01*
X23067Y25206D01*
X23091Y25324D01*
Y25325D01*
D02*
G37*
G36*
X22421D02*
X21870D01*
Y25324D01*
X21894Y25206D01*
X21940Y25095D01*
X22006Y24995D01*
X22091Y24910D01*
X22191Y24843D01*
X22302Y24797D01*
X22420Y24774D01*
X22421D01*
Y25325D01*
D02*
G37*
G36*
X62Y20344D02*
X-62D01*
X-182Y20312D01*
X-290Y20250D01*
X-378Y20162D01*
X-440Y20054D01*
X-472Y19934D01*
Y19810D01*
X-440Y19690D01*
X-378Y19582D01*
X-290Y19494D01*
X-182Y19432D01*
X-62Y19400D01*
X62D01*
X182Y19432D01*
X290Y19494D01*
X378Y19582D01*
X440Y19690D01*
X472Y19810D01*
Y19934D01*
X440Y20054D01*
X378Y20162D01*
X290Y20250D01*
X182Y20312D01*
X62Y20344D01*
D02*
G37*
G36*
X19124Y18794D02*
X19061Y18778D01*
X18990Y18736D01*
X18933Y18680D01*
X18876Y18736D01*
X18805Y18778D01*
X18742Y18794D01*
Y18484D01*
Y18174D01*
X18805Y18191D01*
X18876Y18232D01*
X18933Y18289D01*
X18990Y18232D01*
X19061Y18191D01*
X19124Y18174D01*
Y18484D01*
Y18794D01*
D02*
G37*
G36*
X18624D02*
X18562Y18778D01*
X18490Y18736D01*
X18433Y18680D01*
X18376Y18736D01*
X18305Y18778D01*
X18242Y18794D01*
Y18484D01*
Y18174D01*
X18305Y18191D01*
X18376Y18232D01*
X18433Y18289D01*
X18490Y18232D01*
X18562Y18191D01*
X18624Y18174D01*
Y18484D01*
Y18794D01*
D02*
G37*
G36*
X18124D02*
X18061Y18778D01*
X17990Y18736D01*
X17933Y18680D01*
X17876Y18736D01*
X17805Y18778D01*
X17742Y18794D01*
Y18484D01*
Y18174D01*
X17805Y18191D01*
X17876Y18232D01*
X17933Y18289D01*
X17990Y18232D01*
X18061Y18191D01*
X18124Y18174D01*
Y18484D01*
Y18794D01*
D02*
G37*
G36*
X27722Y19104D02*
X27720D01*
Y18553D01*
X28272D01*
Y18554D01*
X28248Y18672D01*
X28202Y18783D01*
X28135Y18883D01*
X28050Y18968D01*
X27950Y19034D01*
X27839Y19080D01*
X27722Y19104D01*
D02*
G37*
G36*
X7815D02*
X7814D01*
Y18553D01*
X8365D01*
Y18554D01*
X8342Y18672D01*
X8296Y18783D01*
X8229Y18883D01*
X8144Y18968D01*
X8044Y19034D01*
X7933Y19080D01*
X7815Y19104D01*
D02*
G37*
G36*
X7696D02*
X7695D01*
X7577Y19080D01*
X7466Y19034D01*
X7366Y18968D01*
X7281Y18883D01*
X7214Y18783D01*
X7168Y18672D01*
X7144Y18554D01*
Y18553D01*
X7696D01*
Y19104D01*
D02*
G37*
G36*
X27602D02*
X27601D01*
X27483Y19080D01*
X27372Y19034D01*
X27272Y18968D01*
X27187Y18883D01*
X27121Y18783D01*
X27075Y18672D01*
X27051Y18554D01*
Y18553D01*
X27602D01*
Y19104D01*
D02*
G37*
G36*
X14124Y18799D02*
X13868D01*
Y18543D01*
X14124D01*
Y18799D01*
D02*
G37*
G36*
X67Y18884D02*
X59D01*
Y18431D01*
X512D01*
Y18439D01*
X477Y18570D01*
X410Y18686D01*
X314Y18782D01*
X198Y18849D01*
X67Y18884D01*
D02*
G37*
G36*
X-59D02*
X-67D01*
X-198Y18849D01*
X-314Y18782D01*
X-410Y18686D01*
X-477Y18570D01*
X-512Y18439D01*
Y18431D01*
X-59D01*
Y18884D01*
D02*
G37*
G36*
X19242Y18794D02*
Y18484D01*
Y18174D01*
X19305Y18191D01*
X19376Y18232D01*
X19428Y18284D01*
X19436Y18291D01*
X19491Y18287D01*
X19514Y18264D01*
X19577Y18227D01*
X19647Y18209D01*
X19719D01*
X19789Y18227D01*
X19852Y18264D01*
X19904Y18315D01*
X19908Y18323D01*
X19958D01*
X19963Y18315D01*
X20014Y18264D01*
X20077Y18227D01*
X20147Y18209D01*
X20219D01*
X20289Y18227D01*
X20352Y18264D01*
X20404Y18315D01*
X20408Y18323D01*
X20458D01*
X20463Y18315D01*
X20514Y18264D01*
X20577Y18227D01*
X20647Y18209D01*
X20719D01*
X20789Y18227D01*
X20852Y18264D01*
X20904Y18315D01*
X20908Y18323D01*
X20958D01*
X20963Y18315D01*
X21014Y18264D01*
X21077Y18227D01*
X21147Y18209D01*
X21219D01*
X21289Y18227D01*
X21352Y18264D01*
X21404Y18315D01*
X21440Y18378D01*
X21459Y18448D01*
Y18521D01*
X21440Y18591D01*
X21404Y18653D01*
X21352Y18705D01*
X21289Y18741D01*
X21219Y18760D01*
X21147D01*
X21077Y18741D01*
X21014Y18705D01*
X20963Y18653D01*
X20958Y18646D01*
X20908D01*
X20904Y18653D01*
X20852Y18705D01*
X20789Y18741D01*
X20719Y18760D01*
X20647D01*
X20577Y18741D01*
X20514Y18705D01*
X20463Y18653D01*
X20458Y18646D01*
X20408D01*
X20404Y18653D01*
X20352Y18705D01*
X20289Y18741D01*
X20219Y18760D01*
X20147D01*
X20077Y18741D01*
X20014Y18705D01*
X19963Y18653D01*
X19958Y18646D01*
X19908D01*
X19904Y18653D01*
X19852Y18705D01*
X19789Y18741D01*
X19719Y18760D01*
X19647D01*
X19577Y18741D01*
X19514Y18705D01*
X19491Y18682D01*
X19436Y18678D01*
X19428Y18685D01*
X19376Y18736D01*
X19305Y18778D01*
X19242Y18794D01*
D02*
G37*
G36*
X62Y21844D02*
X-62D01*
X-182Y21812D01*
X-290Y21750D01*
X-378Y21662D01*
X-440Y21554D01*
X-472Y21434D01*
Y21310D01*
X-440Y21190D01*
X-378Y21082D01*
X-290Y20994D01*
X-182Y20932D01*
X-62Y20900D01*
X62D01*
X182Y20932D01*
X290Y20994D01*
X378Y21082D01*
X385Y21094D01*
X4497D01*
X4683Y20908D01*
Y16493D01*
X4372Y16182D01*
X385D01*
X378Y16194D01*
X290Y16282D01*
X182Y16344D01*
X62Y16377D01*
X-62D01*
X-182Y16344D01*
X-290Y16282D01*
X-378Y16194D01*
X-440Y16087D01*
X-472Y15966D01*
Y15842D01*
X-440Y15722D01*
X-378Y15614D01*
X-290Y15526D01*
X-182Y15464D01*
X-62Y15432D01*
X62D01*
X182Y15464D01*
X290Y15526D01*
X378Y15614D01*
X385Y15626D01*
X4487D01*
X4559Y15636D01*
X4626Y15663D01*
X4638Y15673D01*
X4683Y15651D01*
Y10942D01*
X4455Y10714D01*
X385D01*
X378Y10726D01*
X290Y10814D01*
X182Y10877D01*
X62Y10909D01*
X-62D01*
X-182Y10877D01*
X-290Y10814D01*
X-378Y10726D01*
X-440Y10619D01*
X-472Y10499D01*
Y10374D01*
X-440Y10254D01*
X-378Y10146D01*
X-290Y10058D01*
X-182Y9996D01*
X-62Y9964D01*
X62D01*
X182Y9996D01*
X290Y10058D01*
X378Y10146D01*
X385Y10158D01*
X4570D01*
X4633Y10167D01*
X4683Y10141D01*
Y6299D01*
Y6021D01*
X3861Y5199D01*
X412D01*
X378Y5259D01*
X290Y5347D01*
X182Y5409D01*
X62Y5441D01*
X-62D01*
X-182Y5409D01*
X-290Y5347D01*
X-378Y5259D01*
X-440Y5151D01*
X-472Y5031D01*
Y4906D01*
X-440Y4786D01*
X-378Y4678D01*
X-290Y4590D01*
X-182Y4528D01*
X-62Y4496D01*
X62D01*
X182Y4528D01*
X290Y4590D01*
X343Y4643D01*
X3976D01*
X4048Y4653D01*
X4115Y4681D01*
X4173Y4725D01*
X4636Y5188D01*
X4683Y5169D01*
Y2244D01*
X4692Y2172D01*
X4720Y2105D01*
X4764Y2048D01*
X5315Y1496D01*
X5373Y1452D01*
X5440Y1424D01*
X5512Y1415D01*
X30787D01*
X30859Y1424D01*
X30926Y1452D01*
X30984Y1496D01*
X31496Y2008D01*
X31540Y2066D01*
X31568Y2133D01*
X31577Y2205D01*
Y7323D01*
X31594D01*
Y8110D01*
X31004D01*
Y7323D01*
X31021D01*
Y2320D01*
X30672Y1971D01*
X23967D01*
X23948Y2017D01*
X24058Y2126D01*
X24102Y2184D01*
X24129Y2251D01*
X24139Y2323D01*
Y5200D01*
X24547Y5608D01*
X26412D01*
Y5472D01*
X26923D01*
Y5783D01*
X26936Y5814D01*
X26945Y5886D01*
X26936Y5958D01*
X26923Y5988D01*
Y6299D01*
X26412D01*
Y6164D01*
X24432D01*
X24360Y6154D01*
X24293Y6127D01*
X24235Y6082D01*
X23664Y5512D01*
X23620Y5454D01*
X23592Y5387D01*
X23583Y5315D01*
Y2438D01*
X23116Y1971D01*
X17705D01*
X17686Y2017D01*
X17795Y2126D01*
X17839Y2184D01*
X17867Y2251D01*
X17876Y2323D01*
Y4039D01*
X17867Y4111D01*
X17839Y4178D01*
X17795Y4235D01*
X17737Y4279D01*
X17670Y4307D01*
X17598Y4317D01*
X17526Y4307D01*
X17459Y4279D01*
X17402Y4235D01*
X17358Y4178D01*
X17330Y4111D01*
X17320Y4039D01*
Y2438D01*
X16853Y1971D01*
X14437D01*
X14418Y2017D01*
X14527Y2126D01*
X14571Y2184D01*
X14599Y2251D01*
X14609Y2323D01*
Y5200D01*
X15017Y5608D01*
X16881D01*
Y5472D01*
X17393D01*
Y5783D01*
X17406Y5814D01*
X17415Y5886D01*
X17406Y5958D01*
X17393Y5988D01*
Y6299D01*
X16881D01*
Y6164D01*
X14902D01*
X14830Y6154D01*
X14763Y6127D01*
X14705Y6082D01*
X14134Y5512D01*
X14090Y5454D01*
X14062Y5387D01*
X14053Y5315D01*
Y2438D01*
X13586Y1971D01*
X5627D01*
X5239Y2359D01*
Y5599D01*
X5280Y5626D01*
X5302Y5617D01*
X5374Y5608D01*
X7351D01*
Y5472D01*
X7863D01*
Y5783D01*
X7875Y5814D01*
X7885Y5886D01*
X7875Y5958D01*
X7863Y5988D01*
Y6299D01*
X7808D01*
Y8429D01*
X8075Y8697D01*
X12766D01*
X12843Y8712D01*
X12908Y8756D01*
X12951Y8821D01*
X12966Y8898D01*
Y9661D01*
X13164Y9858D01*
X14077D01*
X14098Y9808D01*
X13956Y9666D01*
X13925Y9621D01*
X13915Y9567D01*
Y8592D01*
X13810Y8487D01*
X13579D01*
X13569Y8537D01*
X13636Y8565D01*
X13697Y8626D01*
X13724Y8690D01*
X13304D01*
X13330Y8626D01*
X13391Y8565D01*
X13459Y8537D01*
X13449Y8487D01*
X9016D01*
X8962Y8476D01*
X8916Y8446D01*
X8649Y8179D01*
X8619Y8133D01*
X8608Y8079D01*
Y6299D01*
X8493D01*
Y5472D01*
X9005D01*
Y5685D01*
X9698D01*
X9768Y5614D01*
Y5305D01*
X9477D01*
Y5151D01*
X6879D01*
Y5305D01*
X5894D01*
Y4596D01*
X6879D01*
Y4750D01*
X9477D01*
Y4596D01*
X10461D01*
Y5305D01*
X10170D01*
Y5697D01*
X10155Y5774D01*
X10111Y5839D01*
X9923Y6028D01*
X9858Y6071D01*
X9781Y6087D01*
X9005D01*
Y6299D01*
X8889D01*
Y8021D01*
X9074Y8206D01*
X13868D01*
X13922Y8217D01*
X13967Y8247D01*
X14154Y8434D01*
X14185Y8480D01*
X14196Y8533D01*
Y9509D01*
X14290Y9604D01*
X16073D01*
X16092Y9557D01*
X16086Y9552D01*
X16060Y9488D01*
X16480D01*
X16453Y9552D01*
X16448Y9557D01*
X16467Y9604D01*
X18621D01*
X18626Y9589D01*
X18629Y9554D01*
X18592Y9528D01*
X18180Y9116D01*
X18149Y9071D01*
X18138Y9017D01*
Y8647D01*
X18138Y8647D01*
Y6299D01*
X18023D01*
Y5472D01*
X18535D01*
Y5685D01*
X19228D01*
X19299Y5614D01*
Y5305D01*
X19007D01*
Y5151D01*
X16409D01*
Y5305D01*
X15425D01*
Y4596D01*
X16409D01*
Y4750D01*
X19007D01*
Y4596D01*
X19992D01*
Y5305D01*
X19700D01*
Y5697D01*
X19685Y5774D01*
X19641Y5839D01*
X19453Y6028D01*
X19388Y6071D01*
X19311Y6087D01*
X18535D01*
Y6299D01*
X18419D01*
Y8647D01*
X18419Y8647D01*
Y8959D01*
X18749Y9289D01*
X19381D01*
X19401Y9239D01*
X19377Y9215D01*
X19350Y9149D01*
Y9079D01*
X19377Y9014D01*
X19427Y8964D01*
X19492Y8937D01*
X19563D01*
X19628Y8964D01*
X19638Y8974D01*
X27495D01*
X27669Y8800D01*
Y6299D01*
X27553D01*
Y5472D01*
X28065D01*
Y5715D01*
X28758D01*
X28829Y5644D01*
Y5335D01*
X28538D01*
Y5181D01*
X25939D01*
Y5335D01*
X24955D01*
Y4626D01*
X25939D01*
Y4780D01*
X28538D01*
Y4626D01*
X29522D01*
Y5335D01*
X29230D01*
Y5727D01*
X29215Y5804D01*
X29172Y5869D01*
X28983Y6057D01*
X28918Y6101D01*
X28841Y6116D01*
X28065D01*
Y6299D01*
X27950D01*
Y8858D01*
X27939Y8912D01*
X27909Y8958D01*
X27653Y9214D01*
X27607Y9244D01*
X27553Y9255D01*
X19674D01*
X19654Y9305D01*
X19678Y9329D01*
X19705Y9394D01*
Y9464D01*
X19678Y9529D01*
X19653Y9554D01*
X19633Y9587D01*
X19653Y9619D01*
X19678Y9644D01*
X19705Y9709D01*
Y9779D01*
X19678Y9844D01*
X19659Y9863D01*
X19664Y9913D01*
X19669Y9917D01*
X19713Y9982D01*
X19728Y10059D01*
X19713Y10136D01*
X19694Y10164D01*
X19721Y10214D01*
X25326D01*
X25352Y10164D01*
X25333Y10118D01*
X25753D01*
X25734Y10164D01*
X25759Y10214D01*
X30532D01*
X30706Y10040D01*
Y9252D01*
X30453D01*
Y8465D01*
X31240D01*
Y9252D01*
X30987D01*
Y10098D01*
X30976Y10152D01*
X30946Y10198D01*
X30690Y10454D01*
X30644Y10484D01*
X30591Y10495D01*
X15924D01*
X15824Y10596D01*
Y18247D01*
X15852Y18264D01*
X15904Y18315D01*
X15908Y18323D01*
X15958D01*
X15963Y18315D01*
X16014Y18264D01*
X16043Y18247D01*
Y17557D01*
X16053Y17503D01*
X16084Y17458D01*
X16869Y16672D01*
X16915Y16642D01*
X16969Y16631D01*
X22147D01*
X22635Y16143D01*
Y13102D01*
X22625Y13092D01*
X22598Y13027D01*
Y12957D01*
X22625Y12892D01*
X22675Y12842D01*
X22740Y12815D01*
X22811D01*
X22876Y12842D01*
X22900Y12866D01*
X22933Y12887D01*
X22966Y12866D01*
X22990Y12842D01*
X23055Y12815D01*
X23126D01*
X23191Y12842D01*
X23241Y12892D01*
X23268Y12957D01*
Y13027D01*
X23241Y13092D01*
X23231Y13102D01*
Y16240D01*
X23220Y16294D01*
X23190Y16339D01*
X22383Y17147D01*
X22337Y17177D01*
X22283Y17188D01*
X17853D01*
X17324Y17718D01*
Y18247D01*
X17352Y18264D01*
X17376Y18287D01*
X17430Y18291D01*
X17438Y18284D01*
X17490Y18232D01*
X17562Y18191D01*
X17624Y18174D01*
Y18484D01*
Y18794D01*
X17562Y18778D01*
X17490Y18736D01*
X17438Y18685D01*
X17430Y18678D01*
X17376Y18682D01*
X17352Y18705D01*
X17289Y18741D01*
X17219Y18760D01*
X17147D01*
X17077Y18741D01*
X17014Y18705D01*
X16991Y18682D01*
X16936Y18678D01*
X16928Y18685D01*
X16876Y18736D01*
X16805Y18778D01*
X16742Y18794D01*
Y18484D01*
Y18174D01*
X16805Y18191D01*
X16876Y18232D01*
X16928Y18284D01*
X16936Y18291D01*
X16991Y18287D01*
X17014Y18264D01*
X17043Y18247D01*
Y17659D01*
X17053Y17606D01*
X17084Y17560D01*
X17682Y16962D01*
X17662Y16912D01*
X17027D01*
X16324Y17615D01*
Y18247D01*
X16352Y18264D01*
X16376Y18287D01*
X16430Y18291D01*
X16438Y18284D01*
X16490Y18232D01*
X16561Y18191D01*
X16624Y18174D01*
Y18484D01*
Y18794D01*
X16561Y18778D01*
X16490Y18736D01*
X16438Y18685D01*
X16430Y18678D01*
X16376Y18682D01*
X16352Y18705D01*
X16289Y18741D01*
X16219Y18760D01*
X16147D01*
X16077Y18741D01*
X16014Y18705D01*
X15963Y18653D01*
X15958Y18646D01*
X15908D01*
X15904Y18653D01*
X15852Y18705D01*
X15789Y18741D01*
X15719Y18760D01*
X15647D01*
X15577Y18741D01*
X15514Y18705D01*
X15463Y18653D01*
X15458Y18646D01*
X15408D01*
X15404Y18653D01*
X15352Y18705D01*
X15289Y18741D01*
X15219Y18760D01*
X15147D01*
X15077Y18741D01*
X15014Y18705D01*
X14991Y18682D01*
X14936Y18678D01*
X14928Y18685D01*
X14876Y18736D01*
X14805Y18778D01*
X14742Y18794D01*
Y18484D01*
Y18174D01*
X14805Y18191D01*
X14876Y18232D01*
X14928Y18284D01*
X14936Y18291D01*
X14991Y18287D01*
X15014Y18264D01*
X15077Y18227D01*
X15147Y18209D01*
X15219D01*
X15289Y18227D01*
X15352Y18264D01*
X15404Y18315D01*
X15408Y18323D01*
X15458D01*
X15463Y18315D01*
X15514Y18264D01*
X15543Y18247D01*
Y10537D01*
X15553Y10484D01*
X15584Y10438D01*
X15716Y10306D01*
X15697Y10260D01*
X13081D01*
X13004Y10244D01*
X12939Y10201D01*
X12624Y9886D01*
X12580Y9821D01*
X12565Y9744D01*
Y9098D01*
X7992D01*
X7915Y9083D01*
X7850Y9040D01*
X7465Y8654D01*
X7422Y8589D01*
X7406Y8512D01*
Y6299D01*
X7351D01*
Y6164D01*
X5489D01*
X5239Y6414D01*
Y10827D01*
Y16378D01*
Y21024D01*
X5229Y21096D01*
X5201Y21163D01*
X5157Y21220D01*
X4809Y21569D01*
X4751Y21613D01*
X4684Y21641D01*
X4612Y21650D01*
X385D01*
X378Y21662D01*
X290Y21750D01*
X182Y21812D01*
X62Y21844D01*
D02*
G37*
G36*
X14498Y18799D02*
X14242D01*
Y18484D01*
Y18169D01*
X14498D01*
Y18177D01*
X14541Y18202D01*
X14562Y18191D01*
X14624Y18174D01*
Y18484D01*
Y18794D01*
X14562Y18778D01*
X14541Y18766D01*
X14498Y18791D01*
Y18799D01*
D02*
G37*
G36*
X14124Y18425D02*
X13868D01*
Y18169D01*
X14124D01*
Y18425D01*
D02*
G37*
G36*
X28272Y18435D02*
X27720D01*
Y17883D01*
X27722D01*
X27839Y17907D01*
X27950Y17953D01*
X28050Y18020D01*
X28135Y18105D01*
X28202Y18205D01*
X28248Y18316D01*
X28272Y18434D01*
Y18435D01*
D02*
G37*
G36*
X27602D02*
X27051D01*
Y18434D01*
X27075Y18316D01*
X27121Y18205D01*
X27187Y18105D01*
X27272Y18020D01*
X27372Y17953D01*
X27483Y17907D01*
X27601Y17883D01*
X27602D01*
Y18435D01*
D02*
G37*
G36*
X8365D02*
X7814D01*
Y17883D01*
X7815D01*
X7933Y17907D01*
X8044Y17953D01*
X8144Y18020D01*
X8229Y18105D01*
X8296Y18205D01*
X8342Y18316D01*
X8365Y18434D01*
Y18435D01*
D02*
G37*
G36*
X7696D02*
X7144D01*
Y18434D01*
X7168Y18316D01*
X7214Y18205D01*
X7281Y18105D01*
X7366Y18020D01*
X7466Y17953D01*
X7577Y17907D01*
X7695Y17883D01*
X7696D01*
Y18435D01*
D02*
G37*
G36*
X512Y18313D02*
X59D01*
Y17860D01*
X67D01*
X198Y17895D01*
X314Y17962D01*
X410Y18058D01*
X477Y18174D01*
X512Y18305D01*
Y18313D01*
D02*
G37*
G36*
X-59D02*
X-512D01*
Y18305D01*
X-477Y18174D01*
X-410Y18058D01*
X-314Y17962D01*
X-198Y17895D01*
X-67Y17860D01*
X-59D01*
Y18313D01*
D02*
G37*
G36*
X62Y14877D02*
X-62D01*
X-182Y14844D01*
X-290Y14782D01*
X-378Y14694D01*
X-440Y14587D01*
X-472Y14466D01*
Y14342D01*
X-440Y14222D01*
X-378Y14114D01*
X-290Y14026D01*
X-182Y13964D01*
X-62Y13932D01*
X62D01*
X182Y13964D01*
X290Y14026D01*
X378Y14114D01*
X440Y14222D01*
X472Y14342D01*
Y14466D01*
X440Y14587D01*
X378Y14694D01*
X290Y14782D01*
X182Y14844D01*
X62Y14877D01*
D02*
G37*
G36*
X67Y13416D02*
X59D01*
Y12963D01*
X512D01*
Y12972D01*
X477Y13102D01*
X410Y13218D01*
X314Y13314D01*
X198Y13381D01*
X67Y13416D01*
D02*
G37*
G36*
X-59D02*
X-67D01*
X-198Y13381D01*
X-314Y13314D01*
X-410Y13218D01*
X-477Y13102D01*
X-512Y12972D01*
Y12963D01*
X-59D01*
Y13416D01*
D02*
G37*
G36*
X512Y12845D02*
X59D01*
Y12392D01*
X67D01*
X198Y12427D01*
X314Y12495D01*
X410Y12590D01*
X477Y12707D01*
X512Y12837D01*
Y12845D01*
D02*
G37*
G36*
X-59D02*
X-512D01*
Y12837D01*
X-477Y12707D01*
X-410Y12590D01*
X-314Y12495D01*
X-198Y12427D01*
X-67Y12392D01*
X-59D01*
Y12845D01*
D02*
G37*
G36*
X16339Y11844D02*
Y11693D01*
X16489D01*
X16463Y11757D01*
X16402Y11817D01*
X16339Y11844D01*
D02*
G37*
G36*
X16220D02*
X16157Y11817D01*
X16096Y11757D01*
X16070Y11693D01*
X16220D01*
Y11844D01*
D02*
G37*
G36*
X16489Y11575D02*
X16339D01*
Y11424D01*
X16402Y11450D01*
X16463Y11511D01*
X16489Y11575D01*
D02*
G37*
G36*
X16220D02*
X16070D01*
X16096Y11511D01*
X16157Y11450D01*
X16220Y11424D01*
Y11575D01*
D02*
G37*
G36*
X19390Y11273D02*
Y11122D01*
X19541D01*
X19514Y11186D01*
X19453Y11247D01*
X19390Y11273D01*
D02*
G37*
G36*
X19272D02*
X19208Y11247D01*
X19147Y11186D01*
X19121Y11122D01*
X19272D01*
Y11273D01*
D02*
G37*
G36*
X19541Y11004D02*
X19390D01*
Y10853D01*
X19453Y10879D01*
X19514Y10940D01*
X19541Y11004D01*
D02*
G37*
G36*
X19272D02*
X19121D01*
X19147Y10940D01*
X19208Y10879D01*
X19272Y10853D01*
Y11004D01*
D02*
G37*
G36*
X25753Y10000D02*
X25602D01*
Y9849D01*
X25665Y9875D01*
X25726Y9936D01*
X25753Y10000D01*
D02*
G37*
G36*
X25484D02*
X25333D01*
X25359Y9936D01*
X25420Y9875D01*
X25484Y9849D01*
Y10000D01*
D02*
G37*
G36*
X16480Y9370D02*
X16329D01*
Y9219D01*
X16392Y9246D01*
X16453Y9306D01*
X16480Y9370D01*
D02*
G37*
G36*
X16211D02*
X16060D01*
X16086Y9306D01*
X16147Y9246D01*
X16211Y9219D01*
Y9370D01*
D02*
G37*
G36*
X13573Y8959D02*
Y8808D01*
X13724D01*
X13697Y8871D01*
X13636Y8932D01*
X13573Y8959D01*
D02*
G37*
G36*
X13455D02*
X13391Y8932D01*
X13330Y8871D01*
X13304Y8808D01*
X13455D01*
Y8959D01*
D02*
G37*
G36*
X62Y9409D02*
X-62D01*
X-182Y9377D01*
X-290Y9314D01*
X-378Y9226D01*
X-440Y9119D01*
X-472Y8999D01*
Y8874D01*
X-440Y8754D01*
X-378Y8646D01*
X-290Y8558D01*
X-182Y8496D01*
X-62Y8464D01*
X62D01*
X182Y8496D01*
X290Y8558D01*
X378Y8646D01*
X440Y8754D01*
X472Y8874D01*
Y8999D01*
X440Y9119D01*
X378Y9226D01*
X290Y9314D01*
X182Y9377D01*
X62Y9409D01*
D02*
G37*
G36*
X30728Y8150D02*
X30453D01*
Y7776D01*
X30728D01*
Y8150D01*
D02*
G37*
G36*
X30335D02*
X30059D01*
Y7776D01*
X30335D01*
Y8150D01*
D02*
G37*
G36*
X67Y7948D02*
X59D01*
Y7495D01*
X512D01*
Y7504D01*
X477Y7634D01*
X410Y7751D01*
X314Y7846D01*
X198Y7913D01*
X67Y7948D01*
D02*
G37*
G36*
X-59D02*
X-67D01*
X-198Y7913D01*
X-314Y7846D01*
X-410Y7751D01*
X-477Y7634D01*
X-512Y7504D01*
Y7495D01*
X-59D01*
Y7948D01*
D02*
G37*
G36*
X30728Y7657D02*
X30453D01*
Y7283D01*
X30728D01*
Y7657D01*
D02*
G37*
G36*
X30335D02*
X30059D01*
Y7283D01*
X30335D01*
Y7657D01*
D02*
G37*
G36*
X512Y7377D02*
X59D01*
Y6925D01*
X67D01*
X198Y6959D01*
X314Y7027D01*
X410Y7122D01*
X477Y7239D01*
X512Y7369D01*
Y7377D01*
D02*
G37*
G36*
X-59D02*
X-512D01*
Y7369D01*
X-477Y7239D01*
X-410Y7122D01*
X-314Y7027D01*
X-198Y6959D01*
X-67Y6925D01*
X-59D01*
Y7377D01*
D02*
G37*
G36*
X29927Y3419D02*
Y3268D01*
X30078D01*
X30051Y3331D01*
X29990Y3392D01*
X29927Y3419D01*
D02*
G37*
G36*
X28971Y3602D02*
X28498D01*
Y3268D01*
X28971D01*
Y3602D01*
D02*
G37*
G36*
X25979D02*
X25506D01*
Y3268D01*
X25979D01*
Y3602D01*
D02*
G37*
G36*
X25388D02*
X24916D01*
Y3268D01*
X25388D01*
Y3602D01*
D02*
G37*
G36*
X20031Y3573D02*
X19558D01*
Y3238D01*
X20031D01*
Y3573D01*
D02*
G37*
G36*
X19440D02*
X18968D01*
Y3238D01*
X19440D01*
Y3573D01*
D02*
G37*
G36*
X16448D02*
X15976D01*
Y3238D01*
X16448D01*
Y3573D01*
D02*
G37*
G36*
X15858D02*
X15385D01*
Y3238D01*
X15858D01*
Y3573D01*
D02*
G37*
G36*
X10501Y3573D02*
X10028D01*
Y3238D01*
X10501D01*
Y3573D01*
D02*
G37*
G36*
X9910D02*
X9438D01*
Y3238D01*
X9910D01*
Y3573D01*
D02*
G37*
G36*
X6918D02*
X6446D01*
Y3238D01*
X6918D01*
Y3573D01*
D02*
G37*
G36*
X6327D02*
X5855D01*
Y3238D01*
X6327D01*
Y3573D01*
D02*
G37*
G36*
X30078Y3150D02*
X29927D01*
Y2999D01*
X29990Y3025D01*
X30051Y3086D01*
X30078Y3150D01*
D02*
G37*
G36*
X29561Y3602D02*
X29089D01*
Y3209D01*
Y2815D01*
X29561D01*
Y3068D01*
X29702D01*
X29745Y3025D01*
X29809Y2999D01*
Y3209D01*
Y3419D01*
X29745Y3392D01*
X29702Y3349D01*
X29561D01*
Y3602D01*
D02*
G37*
G36*
X62Y3941D02*
X-62D01*
X-182Y3909D01*
X-290Y3847D01*
X-378Y3759D01*
X-440Y3651D01*
X-472Y3531D01*
Y3406D01*
X-440Y3286D01*
X-378Y3178D01*
X-290Y3090D01*
X-182Y3028D01*
X-62Y2996D01*
X62D01*
X182Y3028D01*
X290Y3090D01*
X378Y3178D01*
X440Y3286D01*
X472Y3406D01*
Y3531D01*
X440Y3651D01*
X378Y3759D01*
X290Y3847D01*
X182Y3909D01*
X62Y3941D01*
D02*
G37*
G36*
X28971Y3150D02*
X28498D01*
Y2815D01*
X28971D01*
Y3150D01*
D02*
G37*
G36*
X20031Y3120D02*
X19558D01*
Y2785D01*
X20031D01*
Y3120D01*
D02*
G37*
G36*
X19440D02*
X18968D01*
Y2785D01*
X19440D01*
Y3120D01*
D02*
G37*
G36*
X10501Y3120D02*
X10028D01*
Y2785D01*
X10501D01*
Y3120D01*
D02*
G37*
G36*
X9910D02*
X9438D01*
Y2785D01*
X9910D01*
Y3120D01*
D02*
G37*
G36*
X25979Y3150D02*
X24916D01*
Y2815D01*
X25307D01*
Y2536D01*
X25263Y2493D01*
X25237Y2430D01*
X25657D01*
X25631Y2493D01*
X25588Y2536D01*
Y2815D01*
X25979D01*
Y3150D01*
D02*
G37*
G36*
X16448Y3120D02*
X15385D01*
Y2785D01*
X15776D01*
Y2507D01*
X15733Y2464D01*
X15707Y2400D01*
X16127D01*
X16100Y2464D01*
X16057Y2507D01*
Y2785D01*
X16448D01*
Y3120D01*
D02*
G37*
G36*
X6918Y3120D02*
X5855D01*
Y2785D01*
X6246D01*
Y2507D01*
X6203Y2464D01*
X6177Y2400D01*
X6596D01*
X6570Y2464D01*
X6527Y2507D01*
Y2785D01*
X6918D01*
Y3120D01*
D02*
G37*
G36*
X25657Y2312D02*
X25506D01*
Y2161D01*
X25570Y2187D01*
X25631Y2248D01*
X25657Y2312D01*
D02*
G37*
G36*
X25388D02*
X25237D01*
X25263Y2248D01*
X25324Y2187D01*
X25388Y2161D01*
Y2312D01*
D02*
G37*
G36*
X16127Y2282D02*
X15976D01*
Y2131D01*
X16039Y2158D01*
X16100Y2218D01*
X16127Y2282D01*
D02*
G37*
G36*
X15858D02*
X15707D01*
X15733Y2218D01*
X15794Y2158D01*
X15858Y2131D01*
Y2282D01*
D02*
G37*
G36*
X6596Y2282D02*
X6446D01*
Y2131D01*
X6509Y2158D01*
X6570Y2218D01*
X6596Y2282D01*
D02*
G37*
G36*
X6327D02*
X6177D01*
X6203Y2218D01*
X6264Y2158D01*
X6327Y2131D01*
Y2282D01*
D02*
G37*
G36*
X67Y2480D02*
X59D01*
Y2028D01*
X512D01*
Y2036D01*
X477Y2166D01*
X410Y2283D01*
X314Y2378D01*
X198Y2445D01*
X67Y2480D01*
D02*
G37*
G36*
X-59D02*
X-67D01*
X-198Y2445D01*
X-314Y2378D01*
X-410Y2283D01*
X-477Y2166D01*
X-512Y2036D01*
Y2028D01*
X-59D01*
Y2480D01*
D02*
G37*
G36*
X512Y1909D02*
X59D01*
Y1457D01*
X67D01*
X198Y1492D01*
X314Y1559D01*
X410Y1654D01*
X477Y1771D01*
X512Y1901D01*
Y1909D01*
D02*
G37*
G36*
X-59D02*
X-512D01*
Y1901D01*
X-477Y1771D01*
X-410Y1654D01*
X-314Y1559D01*
X-198Y1492D01*
X-67Y1457D01*
X-59D01*
Y1909D01*
D02*
G37*
G36*
X76Y768D02*
X-76D01*
X-224Y738D01*
X-364Y680D01*
X-489Y596D01*
X-596Y489D01*
X-680Y364D01*
X-738Y224D01*
X-768Y76D01*
Y-76D01*
X-738Y-224D01*
X-680Y-364D01*
X-596Y-489D01*
X-489Y-596D01*
X-364Y-680D01*
X-224Y-738D01*
X-76Y-768D01*
X76D01*
X224Y-738D01*
X364Y-680D01*
X489Y-596D01*
X596Y-489D01*
X680Y-364D01*
X738Y-224D01*
X768Y-76D01*
Y76D01*
X738Y224D01*
X680Y364D01*
X596Y489D01*
X489Y596D01*
X364Y680D01*
X224Y738D01*
X76Y768D01*
D02*
G37*
G36*
X31496Y773D02*
X31345Y758D01*
X31200Y714D01*
X31067Y642D01*
X30950Y546D01*
X30854Y429D01*
X30782Y296D01*
X30738Y151D01*
X30724Y-0D01*
X30738Y-151D01*
X30782Y-296D01*
X30854Y-429D01*
X30950Y-546D01*
X31067Y-642D01*
X31200Y-714D01*
X31345Y-758D01*
X31496Y-773D01*
X31647Y-758D01*
X31792Y-714D01*
X31925Y-642D01*
X32042Y-546D01*
X32138Y-429D01*
X32210Y-296D01*
X32254Y-151D01*
X32269Y-0D01*
X32254Y151D01*
X32210Y296D01*
X32138Y429D01*
X32042Y546D01*
X31925Y642D01*
X31792Y714D01*
X31647Y758D01*
X31496Y773D01*
D02*
G37*
G36*
X41969Y25539D02*
Y24972D01*
X42535D01*
X42529Y25005D01*
X42469Y25149D01*
X42383Y25278D01*
X42274Y25387D01*
X42145Y25473D01*
X42001Y25533D01*
X41969Y25539D01*
D02*
G37*
G36*
X41575Y25539D02*
X41542Y25533D01*
X41399Y25473D01*
X41270Y25387D01*
X41160Y25278D01*
X41074Y25149D01*
X41015Y25005D01*
X41008Y24972D01*
X41575D01*
Y25539D01*
D02*
G37*
G36*
X42535Y24579D02*
X41969D01*
Y24012D01*
X42001Y24018D01*
X42145Y24078D01*
X42274Y24164D01*
X42383Y24274D01*
X42469Y24403D01*
X42529Y24546D01*
X42535Y24579D01*
D02*
G37*
G36*
X41575D02*
X41008D01*
X41015Y24546D01*
X41074Y24403D01*
X41160Y24274D01*
X41270Y24164D01*
X41399Y24078D01*
X41542Y24018D01*
X41575Y24012D01*
Y24579D01*
D02*
G37*
G36*
X41830Y23866D02*
X41713D01*
X41599Y23843D01*
X41492Y23799D01*
X41395Y23734D01*
X41313Y23652D01*
X41248Y23555D01*
X41204Y23448D01*
X41181Y23334D01*
Y23217D01*
X41204Y23103D01*
X41248Y22996D01*
X41313Y22899D01*
X41395Y22817D01*
X41492Y22752D01*
X41599Y22708D01*
X41713Y22685D01*
X41830D01*
X41944Y22708D01*
X42051Y22752D01*
X42148Y22817D01*
X42230Y22899D01*
X42295Y22996D01*
X42340Y23103D01*
X42362Y23217D01*
Y23334D01*
X42340Y23448D01*
X42295Y23555D01*
X42230Y23652D01*
X42148Y23734D01*
X42051Y23799D01*
X41944Y23843D01*
X41830Y23866D01*
D02*
G37*
G36*
X41968Y21563D02*
Y20996D01*
X42535D01*
X42529Y21029D01*
X42469Y21172D01*
X42383Y21301D01*
X42274Y21411D01*
X42145Y21497D01*
X42001Y21556D01*
X41968Y21563D01*
D02*
G37*
G36*
X41575D02*
X41542Y21556D01*
X41399Y21497D01*
X41270Y21411D01*
X41160Y21301D01*
X41074Y21172D01*
X41015Y21029D01*
X41008Y20996D01*
X41575D01*
Y21563D01*
D02*
G37*
G36*
X42535Y20602D02*
X41968D01*
Y20036D01*
X42001Y20042D01*
X42145Y20101D01*
X42274Y20188D01*
X42383Y20297D01*
X42469Y20426D01*
X42529Y20570D01*
X42535Y20602D01*
D02*
G37*
G36*
X41575D02*
X41008D01*
X41015Y20570D01*
X41074Y20426D01*
X41160Y20297D01*
X41270Y20188D01*
X41399Y20101D01*
X41542Y20042D01*
X41575Y20036D01*
Y20602D01*
D02*
G37*
G36*
X41830Y19890D02*
X41713D01*
X41599Y19867D01*
X41492Y19823D01*
X41395Y19758D01*
X41313Y19676D01*
X41248Y19579D01*
X41204Y19471D01*
X41181Y19357D01*
Y19241D01*
X41204Y19127D01*
X41248Y19019D01*
X41313Y18923D01*
X41395Y18841D01*
X41492Y18776D01*
X41599Y18731D01*
X41713Y18709D01*
X41830D01*
X41944Y18731D01*
X42051Y18776D01*
X42148Y18841D01*
X42230Y18923D01*
X42295Y19019D01*
X42340Y19127D01*
X42362Y19241D01*
Y19357D01*
X42340Y19471D01*
X42295Y19579D01*
X42230Y19676D01*
X42148Y19758D01*
X42051Y19823D01*
X41944Y19867D01*
X41830Y19890D01*
D02*
G37*
G36*
X41969Y16913D02*
Y16346D01*
X42535D01*
X42529Y16379D01*
X42469Y16523D01*
X42383Y16652D01*
X42274Y16761D01*
X42145Y16847D01*
X42001Y16907D01*
X41969Y16913D01*
D02*
G37*
G36*
X41575Y16913D02*
X41542Y16907D01*
X41399Y16847D01*
X41270Y16761D01*
X41160Y16652D01*
X41074Y16523D01*
X41015Y16379D01*
X41008Y16346D01*
X41575D01*
Y16913D01*
D02*
G37*
G36*
X42535Y15953D02*
X41969D01*
Y15386D01*
X42001Y15392D01*
X42145Y15452D01*
X42274Y15538D01*
X42383Y15648D01*
X42469Y15777D01*
X42529Y15920D01*
X42535Y15953D01*
D02*
G37*
G36*
X41575D02*
X41008D01*
X41015Y15920D01*
X41074Y15777D01*
X41160Y15648D01*
X41270Y15538D01*
X41399Y15452D01*
X41542Y15392D01*
X41575Y15386D01*
Y15953D01*
D02*
G37*
G36*
X41830Y15240D02*
X41713D01*
X41599Y15217D01*
X41492Y15173D01*
X41395Y15108D01*
X41313Y15026D01*
X41248Y14929D01*
X41204Y14822D01*
X41181Y14708D01*
Y14591D01*
X41204Y14477D01*
X41248Y14370D01*
X41313Y14273D01*
X41395Y14191D01*
X41492Y14126D01*
X41599Y14082D01*
X41713Y14059D01*
X41830D01*
X41944Y14082D01*
X42051Y14126D01*
X42148Y14191D01*
X42230Y14273D01*
X42295Y14370D01*
X42340Y14477D01*
X42362Y14591D01*
Y14708D01*
X42340Y14822D01*
X42295Y14929D01*
X42230Y15026D01*
X42148Y15108D01*
X42051Y15173D01*
X41944Y15217D01*
X41830Y15240D01*
D02*
G37*
G36*
X41969Y12898D02*
Y12331D01*
X42535D01*
X42529Y12364D01*
X42469Y12507D01*
X42383Y12636D01*
X42274Y12745D01*
X42145Y12832D01*
X42001Y12891D01*
X41969Y12898D01*
D02*
G37*
G36*
X41575Y12898D02*
X41542Y12891D01*
X41399Y12832D01*
X41270Y12745D01*
X41160Y12636D01*
X41074Y12507D01*
X41015Y12364D01*
X41008Y12331D01*
X41575D01*
Y12898D01*
D02*
G37*
G36*
X42535Y11937D02*
X41969D01*
Y11370D01*
X42001Y11377D01*
X42145Y11436D01*
X42274Y11522D01*
X42383Y11632D01*
X42469Y11761D01*
X42529Y11904D01*
X42535Y11937D01*
D02*
G37*
G36*
X41575D02*
X41008D01*
X41015Y11904D01*
X41074Y11761D01*
X41160Y11632D01*
X41270Y11522D01*
X41399Y11436D01*
X41542Y11377D01*
X41575Y11370D01*
Y11937D01*
D02*
G37*
G36*
X41830Y11224D02*
X41713D01*
X41599Y11202D01*
X41492Y11157D01*
X41395Y11093D01*
X41313Y11010D01*
X41248Y10914D01*
X41204Y10806D01*
X41181Y10692D01*
Y10576D01*
X41204Y10462D01*
X41248Y10354D01*
X41313Y10257D01*
X41395Y10175D01*
X41492Y10111D01*
X41599Y10066D01*
X41713Y10043D01*
X41830D01*
X41944Y10066D01*
X42051Y10111D01*
X42148Y10175D01*
X42230Y10257D01*
X42295Y10354D01*
X42340Y10462D01*
X42362Y10576D01*
Y10692D01*
X42340Y10806D01*
X42295Y10914D01*
X42230Y11010D01*
X42148Y11093D01*
X42051Y11157D01*
X41944Y11202D01*
X41830Y11224D01*
D02*
G37*
G36*
X41968Y8248D02*
Y7681D01*
X42535D01*
X42529Y7714D01*
X42469Y7857D01*
X42383Y7986D01*
X42274Y8096D01*
X42145Y8182D01*
X42001Y8241D01*
X41968Y8248D01*
D02*
G37*
G36*
X41575D02*
X41542Y8241D01*
X41399Y8182D01*
X41270Y8096D01*
X41160Y7986D01*
X41074Y7857D01*
X41015Y7714D01*
X41008Y7681D01*
X41575D01*
Y8248D01*
D02*
G37*
G36*
X42535Y7287D02*
X41968D01*
Y6721D01*
X42001Y6727D01*
X42145Y6786D01*
X42274Y6873D01*
X42383Y6982D01*
X42469Y7111D01*
X42529Y7255D01*
X42535Y7287D01*
D02*
G37*
G36*
X41575D02*
X41008D01*
X41015Y7255D01*
X41074Y7111D01*
X41160Y6982D01*
X41270Y6873D01*
X41399Y6786D01*
X41542Y6727D01*
X41575Y6721D01*
Y7287D01*
D02*
G37*
G36*
X41830Y6575D02*
X41713D01*
X41599Y6552D01*
X41492Y6508D01*
X41395Y6443D01*
X41313Y6361D01*
X41248Y6264D01*
X41204Y6157D01*
X41181Y6042D01*
Y5926D01*
X41204Y5812D01*
X41248Y5705D01*
X41313Y5608D01*
X41395Y5526D01*
X41492Y5461D01*
X41599Y5416D01*
X41713Y5394D01*
X41830D01*
X41944Y5416D01*
X42051Y5461D01*
X42148Y5526D01*
X42230Y5608D01*
X42295Y5705D01*
X42340Y5812D01*
X42362Y5926D01*
Y6042D01*
X42340Y6157D01*
X42295Y6264D01*
X42230Y6361D01*
X42148Y6443D01*
X42051Y6508D01*
X41944Y6552D01*
X41830Y6575D01*
D02*
G37*
G36*
X41968Y4232D02*
Y3665D01*
X42535D01*
X42529Y3698D01*
X42469Y3841D01*
X42383Y3970D01*
X42274Y4080D01*
X42145Y4166D01*
X42001Y4226D01*
X41968Y4232D01*
D02*
G37*
G36*
X41575D02*
X41542Y4226D01*
X41399Y4166D01*
X41270Y4080D01*
X41160Y3970D01*
X41074Y3841D01*
X41015Y3698D01*
X41008Y3665D01*
X41575D01*
Y4232D01*
D02*
G37*
G36*
X42535Y3272D02*
X41968D01*
Y2705D01*
X42001Y2711D01*
X42145Y2771D01*
X42274Y2857D01*
X42383Y2967D01*
X42469Y3096D01*
X42529Y3239D01*
X42535Y3272D01*
D02*
G37*
G36*
X41575D02*
X41008D01*
X41015Y3239D01*
X41074Y3096D01*
X41160Y2967D01*
X41270Y2857D01*
X41399Y2771D01*
X41542Y2711D01*
X41575Y2705D01*
Y3272D01*
D02*
G37*
G36*
X41830Y2559D02*
X41713D01*
X41599Y2536D01*
X41492Y2492D01*
X41395Y2427D01*
X41313Y2345D01*
X41248Y2248D01*
X41204Y2141D01*
X41181Y2027D01*
Y1910D01*
X41204Y1796D01*
X41248Y1689D01*
X41313Y1592D01*
X41395Y1510D01*
X41492Y1445D01*
X41599Y1401D01*
X41713Y1378D01*
X41830D01*
X41944Y1401D01*
X42051Y1445D01*
X42148Y1510D01*
X42230Y1592D01*
X42295Y1689D01*
X42340Y1796D01*
X42362Y1910D01*
Y2027D01*
X42340Y2141D01*
X42295Y2248D01*
X42230Y2345D01*
X42148Y2427D01*
X42051Y2492D01*
X41944Y2536D01*
X41830Y2559D01*
D02*
G37*
%LPD*%
D11*
X758Y28543D02*
G03*
X758Y28543I-640J0D01*
G01*
X32136Y-0D02*
G03*
X32136Y-0I-640J0D01*
G01*
D13*
X29030Y3209D02*
X29868D01*
X9016Y8346D02*
X13868D01*
X8749Y8079D02*
X9016Y8346D01*
X8749Y5886D02*
Y8079D01*
X13868Y8346D02*
X14055Y8533D01*
Y9567D01*
X6386Y2341D02*
Y3179D01*
X15917Y2341D02*
Y3179D01*
X25447Y2371D02*
Y3209D01*
X14232Y9744D02*
X19528D01*
X14055Y9567D02*
X14232Y9744D01*
X35433Y15777D02*
Y21100D01*
X35866Y21533D01*
X36890D01*
Y1969D02*
Y4242D01*
Y10634D02*
Y12907D01*
Y27925D02*
Y30199D01*
X30591Y10354D02*
X30846Y10098D01*
Y8858D02*
Y10098D01*
X15866Y10354D02*
X30591D01*
X15683Y10537D02*
X15866Y10354D01*
X15683Y10537D02*
Y18484D01*
X19528Y9114D02*
X27553D01*
X27809Y5886D02*
Y8858D01*
X27553Y9114D02*
X27809Y8858D01*
X16183Y17557D02*
Y18484D01*
Y17557D02*
X16969Y16772D01*
X22205D01*
X22776Y16201D01*
Y12992D02*
Y16201D01*
X17183Y17659D02*
X17795Y17047D01*
X17183Y17659D02*
Y18484D01*
X17795Y17047D02*
X22283D01*
X23091Y16240D01*
Y12992D02*
Y16240D01*
X18691Y9429D02*
X19528D01*
X18279Y8647D02*
Y9017D01*
X18691Y9429D01*
X18279Y5886D02*
Y8647D01*
X18279Y8647D01*
X18279Y5886D02*
Y5886D01*
D15*
X8749D02*
D03*
X7607D02*
D03*
X17137D02*
D03*
X18279D02*
D03*
X27809D02*
D03*
X26667D02*
D03*
D16*
X25447Y4980D02*
D03*
Y3209D02*
D03*
X29030Y4980D02*
D03*
Y3209D02*
D03*
X19499Y3179D02*
D03*
Y4951D02*
D03*
X15917Y3179D02*
D03*
Y4951D02*
D03*
X6386Y4951D02*
D03*
Y3179D02*
D03*
X9969Y4951D02*
D03*
Y3179D02*
D03*
D17*
X36890Y22281D02*
D03*
Y30947D02*
D03*
Y13656D02*
D03*
Y4990D02*
D03*
D18*
Y21907D02*
D03*
Y21533D02*
D03*
X37913D02*
D03*
Y21907D02*
D03*
Y22281D02*
D03*
Y30947D02*
D03*
Y30573D02*
D03*
Y30199D02*
D03*
X36890D02*
D03*
Y30573D02*
D03*
X37913Y13656D02*
D03*
Y13282D02*
D03*
Y12907D02*
D03*
X36890D02*
D03*
Y13282D02*
D03*
Y4616D02*
D03*
Y4242D02*
D03*
X37913D02*
D03*
Y4616D02*
D03*
Y4990D02*
D03*
D19*
X30846Y8858D02*
D03*
D20*
X31299Y7717D02*
D03*
X30394D02*
D03*
D21*
X118Y28543D02*
D03*
X31496Y-0D02*
D03*
X21183Y18484D02*
D03*
X20683D02*
D03*
X20183D02*
D03*
X19683D02*
D03*
X19183D02*
D03*
X18683D02*
D03*
X18183D02*
D03*
X17683D02*
D03*
X17183D02*
D03*
X16683D02*
D03*
X16183D02*
D03*
X15683D02*
D03*
X15183D02*
D03*
X14683D02*
D03*
D35*
X29868Y3209D02*
D03*
X25543Y10059D02*
D03*
X13514Y8749D02*
D03*
X6386Y2341D02*
D03*
X15917Y2341D02*
D03*
X25447Y2371D02*
D03*
X19331Y11063D02*
D03*
X16270Y9429D02*
D03*
X16280Y11634D02*
D03*
X17598Y4039D02*
D03*
X35433Y15777D02*
D03*
X36890Y1969D02*
D03*
Y10634D02*
D03*
Y27925D02*
D03*
X19528Y10059D02*
D03*
X12766Y8898D02*
D03*
X22776Y12992D02*
D03*
X23091D02*
D03*
X19528Y9744D02*
D03*
Y9114D02*
D03*
Y9429D02*
D03*
D36*
X-0Y15904D02*
X4487D01*
X-62D02*
X-0D01*
X16969Y1693D02*
X23231D01*
X13701D02*
X16969D01*
X17598Y2323D02*
Y4039D01*
X16969Y1693D02*
X17598Y2323D01*
X30787Y1693D02*
X31299Y2205D01*
Y7717D01*
X23231Y1693D02*
X30787D01*
X23231D02*
X23861Y2323D01*
Y5315D01*
X24432Y5886D01*
X26667D01*
X14902D02*
X17137D01*
X14331Y5315D02*
X14902Y5886D01*
X14331Y2323D02*
Y5315D01*
X13701Y1693D02*
X14331Y2323D01*
X4961Y6299D02*
Y10827D01*
Y5906D02*
Y6299D01*
X5374Y5886D02*
X7607D01*
X4961Y6299D02*
X5374Y5886D01*
X5512Y1693D02*
X13701D01*
X4961Y2244D02*
Y5906D01*
Y2244D02*
X5512Y1693D01*
X3976Y4921D02*
X4961Y5906D01*
X47Y4921D02*
X3976D01*
X4961Y16378D02*
Y21024D01*
Y10827D02*
Y16378D01*
X4487Y15904D02*
X4961Y16378D01*
X4570Y10436D02*
X4961Y10827D01*
X0Y10436D02*
X4570D01*
X0Y4969D02*
X47Y4921D01*
X4612Y21372D02*
X4961Y21024D01*
X0Y21372D02*
X4612D01*
D37*
X7607Y5886D02*
Y8512D01*
X7992Y8898D02*
X12766D01*
X7607Y8512D02*
X7992Y8898D01*
X12766D02*
Y9744D01*
X13081Y10059D01*
X19528D01*
X19499Y4951D02*
Y5697D01*
X19311Y5886D02*
X19499Y5697D01*
X18279Y5886D02*
X19311D01*
X29030Y4980D02*
Y5727D01*
X28841Y5915D02*
X29030Y5727D01*
X27809Y5915D02*
X28841D01*
X9969Y4951D02*
Y5697D01*
X9781Y5886D02*
X9969Y5697D01*
X8749Y5886D02*
X9781D01*
X25447Y4980D02*
X29030D01*
X15917Y4951D02*
X19499D01*
X6386Y4951D02*
X9969D01*
D38*
X0Y4969D02*
D03*
Y3469D02*
D03*
Y1969D02*
D03*
Y10436D02*
D03*
Y8936D02*
D03*
Y7436D02*
D03*
X-0Y15904D02*
D03*
Y14404D02*
D03*
Y12904D02*
D03*
X0Y21372D02*
D03*
Y19872D02*
D03*
Y18372D02*
D03*
X0Y31941D02*
D03*
Y33441D02*
D03*
X41772Y16150D02*
D03*
Y14650D02*
D03*
Y12134D02*
D03*
Y10634D02*
D03*
Y3469D02*
D03*
Y1969D02*
D03*
Y7484D02*
D03*
Y5984D02*
D03*
Y24776D02*
D03*
Y23276D02*
D03*
Y20799D02*
D03*
Y19299D02*
D03*
Y33441D02*
D03*
Y31941D02*
D03*
Y29425D02*
D03*
Y27925D02*
D03*
D39*
X14183Y18484D02*
D03*
D40*
X7323Y25384D02*
D03*
Y29616D02*
D03*
X22480Y28533D02*
D03*
Y25384D02*
D03*
M02*
