G04*
G04 #@! TF.GenerationSoftware,Altium Limited,Altium Designer,22.11.1 (43)*
G04*
G04 Layer_Color=32896*
%FSLAX24Y24*%
%MOIN*%
G70*
G04*
G04 #@! TF.SameCoordinates,7676E619-B689-43AB-A287-34DBDB4E9A50*
G04*
G04*
G04 #@! TF.FilePolarity,Positive*
G04*
G01*
G75*
%ADD10C,0.0079*%
%ADD11C,0.0100*%
%ADD14C,0.0039*%
%ADD58C,0.0200*%
G36*
X28004Y33016D02*
X28011D01*
Y33012D01*
X28050D01*
Y33008D01*
X28061D01*
Y33004D01*
X28069D01*
Y33000D01*
X28088D01*
Y32996D01*
X28095D01*
Y32993D01*
X28111D01*
Y32989D01*
X28122D01*
Y32985D01*
X28130D01*
Y32981D01*
X28138D01*
Y32977D01*
X28141D01*
Y32973D01*
X28153D01*
Y32970D01*
X28157D01*
Y32966D01*
X28164D01*
Y32962D01*
X28172D01*
Y32958D01*
X28176D01*
Y32954D01*
X28187D01*
Y32950D01*
X28191D01*
Y32947D01*
X28195D01*
Y32943D01*
X28199D01*
Y32939D01*
X28206D01*
Y32935D01*
X28210D01*
Y32931D01*
X28214D01*
Y32928D01*
X28218D01*
Y32924D01*
X28226D01*
Y32920D01*
X28229D01*
Y32916D01*
X28233D01*
Y32912D01*
X28237D01*
Y32908D01*
X28245D01*
Y32905D01*
X28249D01*
Y32901D01*
X28252D01*
Y32897D01*
X28256D01*
Y32889D01*
X28264D01*
Y32882D01*
X28268D01*
Y32878D01*
X28272D01*
Y32874D01*
X28275D01*
Y32866D01*
X28279D01*
Y32862D01*
X28283D01*
Y32859D01*
X28287D01*
Y32855D01*
X28291D01*
Y32847D01*
X28295D01*
Y32843D01*
X28298D01*
Y32839D01*
X28302D01*
Y32832D01*
X28306D01*
Y32828D01*
X28310D01*
Y32820D01*
X28314D01*
Y32813D01*
X28317D01*
Y32805D01*
X28321D01*
Y32797D01*
X28325D01*
Y32794D01*
X28329D01*
Y32782D01*
X28333D01*
Y32778D01*
X28337D01*
Y32771D01*
X28340D01*
Y32759D01*
X28344D01*
Y32751D01*
X28348D01*
Y32732D01*
X28352D01*
Y32725D01*
X28356D01*
Y32709D01*
X28360D01*
Y32698D01*
X28363D01*
Y32675D01*
X28367D01*
Y32633D01*
X28371D01*
Y32583D01*
X28367D01*
Y32541D01*
X28363D01*
Y32518D01*
X28360D01*
Y32510D01*
X28356D01*
Y32491D01*
X28352D01*
Y32483D01*
X28348D01*
Y32468D01*
X28344D01*
Y32457D01*
X28340D01*
Y32449D01*
X28337D01*
Y32438D01*
X28333D01*
Y32434D01*
X28329D01*
Y32422D01*
X28325D01*
Y32418D01*
X28321D01*
Y32411D01*
X28317D01*
Y32403D01*
X28314D01*
Y32399D01*
X28310D01*
Y32388D01*
X28306D01*
Y32384D01*
X28302D01*
Y32376D01*
X28298D01*
Y32373D01*
X28295D01*
Y32369D01*
X28291D01*
Y32361D01*
X28287D01*
Y32357D01*
X28283D01*
Y32353D01*
X28279D01*
Y32350D01*
X28275D01*
Y32346D01*
X28272D01*
Y32342D01*
X28268D01*
Y32338D01*
X28264D01*
Y32330D01*
X28260D01*
Y32327D01*
X28256D01*
Y32323D01*
X28252D01*
Y32319D01*
X28249D01*
Y32315D01*
X28245D01*
Y32311D01*
X28241D01*
Y32307D01*
X28237D01*
Y32304D01*
X28229D01*
Y32300D01*
X28226D01*
Y32296D01*
X28222D01*
Y32292D01*
X28218D01*
Y32288D01*
X28214D01*
Y32284D01*
X28206D01*
Y32281D01*
X28203D01*
Y32277D01*
X28199D01*
Y32273D01*
X28195D01*
Y32269D01*
X28187D01*
Y32265D01*
X28180D01*
Y32261D01*
X28176D01*
Y32258D01*
X28168D01*
Y32254D01*
X28161D01*
Y32250D01*
X28153D01*
Y32246D01*
X28145D01*
Y32242D01*
X28141D01*
Y32239D01*
X28130D01*
Y32235D01*
X28126D01*
Y32231D01*
X28115D01*
Y32227D01*
X28103D01*
Y32223D01*
X28092D01*
Y32219D01*
X28076D01*
Y32216D01*
X28069D01*
Y32212D01*
X28053D01*
Y32208D01*
X28042D01*
Y32204D01*
X28000D01*
Y32200D01*
X27958D01*
Y32196D01*
X27954D01*
Y32185D01*
X27950D01*
Y32150D01*
X27946D01*
Y32124D01*
X27942D01*
Y32078D01*
X27939D01*
Y32055D01*
X27935D01*
Y32009D01*
X27931D01*
Y31982D01*
X27927D01*
Y31951D01*
X27923D01*
Y31909D01*
X27919D01*
Y31886D01*
X27916D01*
Y31840D01*
X27912D01*
Y31821D01*
X27908D01*
Y31817D01*
X27904D01*
Y31814D01*
X27900D01*
Y31810D01*
X27893D01*
Y31806D01*
X27885D01*
Y31802D01*
X27877D01*
Y31798D01*
X27870D01*
Y31795D01*
X27866D01*
Y31791D01*
X27858D01*
Y31787D01*
X27851D01*
Y31783D01*
X27843D01*
Y31779D01*
X27835D01*
Y31775D01*
X27831D01*
Y31772D01*
X27824D01*
Y31768D01*
X27816D01*
Y31764D01*
X27808D01*
Y31760D01*
X27801D01*
Y31756D01*
X27797D01*
Y31752D01*
X27789D01*
Y31749D01*
X27782D01*
Y31745D01*
X27774D01*
Y31741D01*
X27766D01*
Y31737D01*
X27762D01*
Y31733D01*
X27755D01*
Y31729D01*
X27751D01*
Y31726D01*
X27740D01*
Y31722D01*
X27736D01*
Y31718D01*
X27728D01*
Y31714D01*
X27720D01*
Y31710D01*
X27717D01*
Y31706D01*
X27705D01*
Y31703D01*
X27701D01*
Y31699D01*
X27694D01*
Y31695D01*
X27686D01*
Y31691D01*
X27682D01*
Y31687D01*
X27671D01*
Y31684D01*
X27667D01*
Y31680D01*
X27659D01*
Y31676D01*
X27651D01*
Y31672D01*
X27644D01*
Y31668D01*
X27636D01*
Y31664D01*
X27632D01*
Y31661D01*
X27625D01*
Y31657D01*
X27617D01*
Y31653D01*
X27609D01*
Y31649D01*
X27606D01*
Y31645D01*
X27598D01*
Y31641D01*
X27586D01*
Y31672D01*
X27590D01*
Y31695D01*
X27594D01*
Y31741D01*
X27598D01*
Y31768D01*
X27602D01*
Y31806D01*
X27606D01*
Y31840D01*
X27609D01*
Y31867D01*
X27613D01*
Y31913D01*
X27617D01*
Y31936D01*
X27621D01*
Y31982D01*
X27625D01*
Y32009D01*
X27629D01*
Y32039D01*
X27632D01*
Y32082D01*
X27636D01*
Y32105D01*
X27640D01*
Y32150D01*
X27644D01*
Y32177D01*
X27648D01*
Y32196D01*
X27640D01*
Y32200D01*
X25600D01*
Y32196D01*
X25596D01*
Y32193D01*
X25592D01*
Y31638D01*
X25585D01*
Y31641D01*
X25577D01*
Y31645D01*
X25569D01*
Y31649D01*
X25565D01*
Y31653D01*
X25554D01*
Y31657D01*
X25550D01*
Y31661D01*
X25542D01*
Y31664D01*
X25535D01*
Y31668D01*
X25527D01*
Y31672D01*
X25523D01*
Y31676D01*
X25516D01*
Y31680D01*
X25508D01*
Y31684D01*
X25504D01*
Y31687D01*
X25493D01*
Y31691D01*
X25489D01*
Y31695D01*
X25481D01*
Y31699D01*
X25474D01*
Y31703D01*
X25470D01*
Y31706D01*
X25458D01*
Y31710D01*
X25454D01*
Y31714D01*
X25447D01*
Y31718D01*
X25439D01*
Y31722D01*
X25435D01*
Y31726D01*
X25424D01*
Y31729D01*
X25420D01*
Y31733D01*
X25412D01*
Y31737D01*
X25405D01*
Y31741D01*
X25401D01*
Y31745D01*
X25389D01*
Y31749D01*
X25385D01*
Y31752D01*
X25378D01*
Y31756D01*
X25370D01*
Y31760D01*
X25363D01*
Y31764D01*
X25359D01*
Y31768D01*
X25351D01*
Y31772D01*
X25343D01*
Y31775D01*
X25340D01*
Y31779D01*
X25328D01*
Y31783D01*
X25324D01*
Y31787D01*
X25317D01*
Y31791D01*
X25309D01*
Y31795D01*
X25305D01*
Y31798D01*
X25294D01*
Y31802D01*
X25290D01*
Y31925D01*
X25286D01*
Y31928D01*
X25275D01*
Y31932D01*
X25271D01*
Y31936D01*
X25263D01*
Y31940D01*
X25255D01*
Y31944D01*
X25248D01*
Y31948D01*
X25244D01*
Y31951D01*
X25236D01*
Y31955D01*
X25232D01*
Y31959D01*
X25229D01*
Y31963D01*
X25221D01*
Y31967D01*
X25217D01*
Y31971D01*
X25213D01*
Y31974D01*
X25206D01*
Y31978D01*
X25202D01*
Y31982D01*
X25198D01*
Y31986D01*
X25194D01*
Y31990D01*
X25190D01*
Y31994D01*
X25186D01*
Y31997D01*
X25183D01*
Y32001D01*
X25179D01*
Y32005D01*
X25175D01*
Y32009D01*
X25171D01*
Y32013D01*
X25167D01*
Y32017D01*
X25164D01*
Y32020D01*
X25160D01*
Y32028D01*
X25156D01*
Y32032D01*
X25152D01*
Y32036D01*
X25148D01*
Y32039D01*
X25144D01*
Y32047D01*
X25141D01*
Y32051D01*
X25137D01*
Y32059D01*
X25133D01*
Y32066D01*
X25129D01*
Y32070D01*
X25125D01*
Y32082D01*
X25121D01*
Y32085D01*
X25118D01*
Y32093D01*
X25114D01*
Y32101D01*
X25110D01*
Y32108D01*
X25106D01*
Y32120D01*
X25102D01*
Y32128D01*
X25098D01*
Y32139D01*
X25095D01*
Y32150D01*
X25091D01*
Y32166D01*
X25087D01*
Y32189D01*
X25083D01*
Y32204D01*
X25079D01*
Y32296D01*
X25083D01*
Y32311D01*
X25087D01*
Y32334D01*
X25091D01*
Y32350D01*
X25095D01*
Y32361D01*
X25098D01*
Y32373D01*
X25102D01*
Y32380D01*
X25106D01*
Y32392D01*
X25110D01*
Y32399D01*
X25114D01*
Y32407D01*
X25118D01*
Y32415D01*
X25121D01*
Y32422D01*
X25125D01*
Y32430D01*
X25129D01*
Y32434D01*
X25133D01*
Y32441D01*
X25137D01*
Y32449D01*
X25141D01*
Y32453D01*
X25144D01*
Y32461D01*
X25148D01*
Y32464D01*
X25152D01*
Y32468D01*
X25156D01*
Y32472D01*
X25160D01*
Y32480D01*
X25164D01*
Y32483D01*
X25167D01*
Y32487D01*
X25171D01*
Y32491D01*
X25175D01*
Y32495D01*
X25179D01*
Y32499D01*
X25183D01*
Y32503D01*
X25186D01*
Y32506D01*
X25190D01*
Y32510D01*
X25194D01*
Y32514D01*
X25198D01*
Y32518D01*
X25202D01*
Y32522D01*
X25206D01*
Y32526D01*
X25209D01*
Y32529D01*
X25217D01*
Y32533D01*
X25221D01*
Y32537D01*
X25225D01*
Y32541D01*
X25232D01*
Y32545D01*
X25236D01*
Y32549D01*
X25240D01*
Y32552D01*
X25248D01*
Y32556D01*
X25252D01*
Y32560D01*
X25263D01*
Y32564D01*
X25267D01*
Y32568D01*
X25275D01*
Y32572D01*
X25282D01*
Y32575D01*
X25286D01*
Y32579D01*
X25290D01*
Y33019D01*
X28004D01*
Y33016D01*
D02*
G37*
G36*
X17295Y34399D02*
X17313D01*
Y34380D01*
X17332D01*
Y34343D01*
X17350D01*
Y34306D01*
X17369D01*
Y34288D01*
X17387D01*
Y34251D01*
X17406D01*
Y34214D01*
X17424D01*
Y34177D01*
X17443D01*
Y34158D01*
X17461D01*
Y34121D01*
X17480D01*
Y34084D01*
X17498D01*
Y34066D01*
X17517D01*
Y34029D01*
X17535D01*
Y33992D01*
X17554D01*
Y33955D01*
X17572D01*
Y33918D01*
X17591D01*
Y33899D01*
X17609D01*
Y33862D01*
X17628D01*
Y33844D01*
X17646D01*
Y33807D01*
X17665D01*
Y33770D01*
X17683D01*
Y33733D01*
X17702D01*
Y33696D01*
X17720D01*
Y33677D01*
X17739D01*
Y33640D01*
X17757D01*
Y33603D01*
X17776D01*
Y33585D01*
X17794D01*
Y33548D01*
X17813D01*
Y33529D01*
X17831D01*
Y33474D01*
X17850D01*
Y33455D01*
X17868D01*
Y33418D01*
X17887D01*
Y33381D01*
X17905D01*
Y33363D01*
X17924D01*
Y33326D01*
X17942D01*
Y33289D01*
X17961D01*
Y33252D01*
X17979D01*
Y33233D01*
X17998D01*
Y33196D01*
X18016D01*
Y33159D01*
X18035D01*
Y33141D01*
X18053D01*
Y33104D01*
X18072D01*
Y33067D01*
X18090D01*
Y33048D01*
X18109D01*
Y33011D01*
X18127D01*
Y32974D01*
X18146D01*
Y32937D01*
X18164D01*
Y32919D01*
X18183D01*
Y32882D01*
X18201D01*
Y32845D01*
X18220D01*
Y32826D01*
X18238D01*
Y32789D01*
X18257D01*
Y32752D01*
X18275D01*
Y32715D01*
X18294D01*
Y32697D01*
X18312D01*
Y32660D01*
X18331D01*
Y32623D01*
X18349D01*
Y32604D01*
X18368D01*
Y32567D01*
X18386D01*
Y32530D01*
X18405D01*
Y32493D01*
X18423D01*
Y32475D01*
X18442D01*
Y32438D01*
X18460D01*
Y32401D01*
X18479D01*
Y32382D01*
X18497D01*
Y32345D01*
X18516D01*
Y32308D01*
X18534D01*
Y32271D01*
X18553D01*
Y32253D01*
X18571D01*
Y32216D01*
X18590D01*
Y32179D01*
X18608D01*
Y32160D01*
X18627D01*
Y32123D01*
X18645D01*
Y32086D01*
X18664D01*
Y32049D01*
X18682D01*
Y32031D01*
X18701D01*
Y31994D01*
X18719D01*
Y31957D01*
X18738D01*
Y31938D01*
X18756D01*
Y31901D01*
X18775D01*
Y31864D01*
X18793D01*
Y31846D01*
X18812D01*
Y31790D01*
X18830D01*
Y31772D01*
X18849D01*
Y31735D01*
X18867D01*
Y31716D01*
X18886D01*
Y31679D01*
X18904D01*
Y31642D01*
X18923D01*
Y31587D01*
X18886D01*
Y31568D01*
X18867D01*
Y31550D01*
X18830D01*
Y31531D01*
X18793D01*
Y31513D01*
X18775D01*
Y31494D01*
X18719D01*
Y31476D01*
X18701D01*
Y31457D01*
X18664D01*
Y31439D01*
X18627D01*
Y31457D01*
X18608D01*
Y31476D01*
X18590D01*
Y31513D01*
X18571D01*
Y31550D01*
X18553D01*
Y31568D01*
X18534D01*
Y31605D01*
X18516D01*
Y31624D01*
X18497D01*
Y31642D01*
X18479D01*
Y31661D01*
X18460D01*
Y31679D01*
X18442D01*
Y31698D01*
X18423D01*
Y31716D01*
X18386D01*
Y31735D01*
X18368D01*
Y31753D01*
X18349D01*
Y31772D01*
X18312D01*
Y31790D01*
X18275D01*
Y31809D01*
X18201D01*
Y31827D01*
X18127D01*
Y31846D01*
X17868D01*
Y31864D01*
X17702D01*
Y31883D01*
X17572D01*
Y31901D01*
X17424D01*
Y31920D01*
X17313D01*
Y31938D01*
X17073D01*
Y31957D01*
X16906D01*
Y31975D01*
X16777D01*
Y31994D01*
X16647D01*
Y32012D01*
X16592D01*
Y32031D01*
X16499D01*
Y32049D01*
X16462D01*
Y32068D01*
X16407D01*
Y32086D01*
X16370D01*
Y32105D01*
X16351D01*
Y32123D01*
X16314D01*
Y32142D01*
X16296D01*
Y32160D01*
X16277D01*
Y32179D01*
X16259D01*
Y32197D01*
X16240D01*
Y32216D01*
X16222D01*
Y32234D01*
X16203D01*
Y32253D01*
X16185D01*
Y32271D01*
X16166D01*
Y32290D01*
X16148D01*
Y32308D01*
X16129D01*
Y32327D01*
X16111D01*
Y32345D01*
X16092D01*
Y32382D01*
X16074D01*
Y32438D01*
X16092D01*
Y32475D01*
X16111D01*
Y32493D01*
X16129D01*
Y32530D01*
X16148D01*
Y32567D01*
X16166D01*
Y32586D01*
X16185D01*
Y32623D01*
X16203D01*
Y32660D01*
X16222D01*
Y32678D01*
X16240D01*
Y32715D01*
X16259D01*
Y32752D01*
X16277D01*
Y32789D01*
X16296D01*
Y32808D01*
X16314D01*
Y32845D01*
X16333D01*
Y32882D01*
X16351D01*
Y32900D01*
X16370D01*
Y32937D01*
X16388D01*
Y32974D01*
X16407D01*
Y33011D01*
X16425D01*
Y33030D01*
X16444D01*
Y33067D01*
X16462D01*
Y33104D01*
X16481D01*
Y33122D01*
X16499D01*
Y33159D01*
X16518D01*
Y33196D01*
X16536D01*
Y33233D01*
X16555D01*
Y33252D01*
X16573D01*
Y33289D01*
X16592D01*
Y33326D01*
X16610D01*
Y33344D01*
X16629D01*
Y33381D01*
X16647D01*
Y33418D01*
X16666D01*
Y33437D01*
X16684D01*
Y33474D01*
X16703D01*
Y33511D01*
X16721D01*
Y33548D01*
X16740D01*
Y33566D01*
X16758D01*
Y33603D01*
X16777D01*
Y33640D01*
X16795D01*
Y33659D01*
X16814D01*
Y33696D01*
X16832D01*
Y33733D01*
X16851D01*
Y33770D01*
X16869D01*
Y33788D01*
X16888D01*
Y33825D01*
X16906D01*
Y33862D01*
X16925D01*
Y33881D01*
X16943D01*
Y33918D01*
X16962D01*
Y33955D01*
X16980D01*
Y33992D01*
X16999D01*
Y34010D01*
X17017D01*
Y34047D01*
X17036D01*
Y34084D01*
X17054D01*
Y34103D01*
X17073D01*
Y34140D01*
X17091D01*
Y34177D01*
X17110D01*
Y34195D01*
X17128D01*
Y34232D01*
X17147D01*
Y34269D01*
X17165D01*
Y34306D01*
X17184D01*
Y34325D01*
X17202D01*
Y34362D01*
X17221D01*
Y34399D01*
X17239D01*
Y34417D01*
X17258D01*
Y34436D01*
X17295D01*
Y34399D01*
D02*
G37*
G36*
X27851Y31588D02*
X27854D01*
Y31580D01*
X27858D01*
Y31573D01*
X27862D01*
Y31565D01*
X27866D01*
Y31561D01*
X27870D01*
Y31553D01*
X27873D01*
Y31546D01*
X27877D01*
Y31538D01*
X27881D01*
Y31530D01*
X27885D01*
Y31527D01*
X27889D01*
Y31519D01*
X27893D01*
Y31511D01*
X27896D01*
Y31504D01*
X27900D01*
Y31500D01*
X27904D01*
Y31492D01*
X27908D01*
Y31484D01*
X27912D01*
Y31481D01*
X27916D01*
Y31469D01*
X27919D01*
Y31465D01*
X27923D01*
Y31458D01*
X27927D01*
Y31450D01*
X27931D01*
Y31442D01*
X27935D01*
Y31435D01*
X27939D01*
Y31431D01*
X27942D01*
Y31423D01*
X27946D01*
Y31416D01*
X27942D01*
Y31412D01*
X27939D01*
Y31408D01*
X27935D01*
Y31404D01*
X27923D01*
Y31400D01*
X27919D01*
Y31396D01*
X27912D01*
Y31393D01*
X27904D01*
Y31389D01*
X27900D01*
Y31385D01*
X27889D01*
Y31381D01*
X27885D01*
Y31377D01*
X27877D01*
Y31373D01*
X27870D01*
Y31370D01*
X27866D01*
Y31366D01*
X27854D01*
Y31362D01*
X27851D01*
Y31358D01*
X27843D01*
Y31354D01*
X27835D01*
Y31351D01*
X27831D01*
Y31347D01*
X27824D01*
Y31343D01*
X27816D01*
Y31339D01*
X27808D01*
Y31335D01*
X27805D01*
Y31331D01*
X27793D01*
Y31328D01*
X27789D01*
Y31324D01*
X27782D01*
Y31320D01*
X27774D01*
Y31316D01*
X27770D01*
Y31312D01*
X27759D01*
Y31308D01*
X27755D01*
Y31305D01*
X27747D01*
Y31301D01*
X27740D01*
Y31297D01*
X27736D01*
Y31293D01*
X27724D01*
Y31289D01*
X27720D01*
Y31285D01*
X27713D01*
Y31282D01*
X27705D01*
Y31278D01*
X27701D01*
Y31274D01*
X27694D01*
Y31270D01*
X27686D01*
Y31266D01*
X27678D01*
Y31262D01*
X27674D01*
Y31259D01*
X27667D01*
Y31255D01*
X27659D01*
Y31251D01*
X27651D01*
Y31247D01*
X27644D01*
Y31243D01*
X27640D01*
Y31240D01*
X27629D01*
Y31236D01*
X27625D01*
Y31232D01*
X27617D01*
Y31228D01*
X27609D01*
Y31224D01*
X27606D01*
Y31220D01*
X27594D01*
Y31217D01*
X27590D01*
Y31213D01*
X27583D01*
Y31209D01*
X27575D01*
Y31205D01*
X27571D01*
Y31201D01*
X27560D01*
Y31197D01*
X27556D01*
Y31194D01*
X27548D01*
Y31190D01*
X27540D01*
Y31186D01*
X27537D01*
Y31182D01*
X27529D01*
Y31178D01*
X27521D01*
Y31174D01*
X27514D01*
Y31171D01*
X27510D01*
Y31167D01*
X27502D01*
Y31163D01*
X27495D01*
Y31159D01*
X27487D01*
Y31155D01*
X27479D01*
Y31151D01*
X27475D01*
Y31148D01*
X27464D01*
Y31144D01*
X27460D01*
Y31140D01*
X27452D01*
Y31136D01*
X27445D01*
Y31132D01*
X27441D01*
Y31129D01*
X27429D01*
Y31125D01*
X27426D01*
Y31121D01*
X27418D01*
Y31117D01*
X27410D01*
Y31113D01*
X27406D01*
Y31109D01*
X27395D01*
Y31106D01*
X27391D01*
Y31102D01*
X27384D01*
Y31098D01*
X27376D01*
Y31094D01*
X27372D01*
Y31090D01*
X27364D01*
Y31086D01*
X27357D01*
Y31083D01*
X27349D01*
Y31079D01*
X27345D01*
Y31075D01*
X27338D01*
Y31071D01*
X27330D01*
Y31067D01*
X27322D01*
Y31063D01*
X27315D01*
Y31060D01*
X27311D01*
Y31056D01*
X27303D01*
Y31052D01*
X27295D01*
Y31048D01*
X27288D01*
Y31044D01*
X27280D01*
Y31040D01*
X27276D01*
Y31037D01*
X27265D01*
Y31033D01*
X27261D01*
Y31029D01*
X27253D01*
Y31025D01*
X27246D01*
Y31021D01*
X27242D01*
Y31018D01*
X27234D01*
Y31014D01*
X27227D01*
Y31010D01*
X27219D01*
Y31006D01*
X27215D01*
Y31002D01*
X27207D01*
Y30998D01*
X27200D01*
Y30995D01*
X27192D01*
Y30991D01*
X27185D01*
Y30987D01*
X27181D01*
Y30983D01*
X27173D01*
Y30979D01*
X27165D01*
Y30975D01*
X27158D01*
Y30972D01*
X27150D01*
Y30968D01*
X27146D01*
Y30964D01*
X27139D01*
Y30960D01*
X27131D01*
Y30956D01*
X27123D01*
Y30952D01*
X27116D01*
Y30949D01*
X27112D01*
Y30945D01*
X27104D01*
Y30941D01*
X27096D01*
Y30937D01*
X27089D01*
Y30933D01*
X27081D01*
Y30929D01*
X27077D01*
Y30926D01*
X27070D01*
Y30922D01*
X27062D01*
Y30918D01*
X27054D01*
Y30914D01*
X27051D01*
Y30910D01*
X27043D01*
Y30907D01*
X27035D01*
Y30903D01*
X27031D01*
Y30899D01*
X27020D01*
Y30895D01*
X27016D01*
Y30891D01*
X27008D01*
Y30887D01*
X27001D01*
Y30884D01*
X26997D01*
Y30880D01*
X26985D01*
Y30876D01*
X26982D01*
Y30872D01*
X26974D01*
Y30868D01*
X26966D01*
Y30864D01*
X26959D01*
Y30861D01*
X26951D01*
Y30857D01*
X26947D01*
Y30853D01*
X26940D01*
Y30849D01*
X26932D01*
Y30845D01*
X26924D01*
Y30841D01*
X26917D01*
Y30838D01*
X26913D01*
Y30834D01*
X26905D01*
Y30830D01*
X26897D01*
Y30826D01*
X26890D01*
Y30822D01*
X26886D01*
Y30818D01*
X26878D01*
Y30815D01*
X26871D01*
Y30811D01*
X26867D01*
Y30807D01*
X26855D01*
Y30803D01*
X26851D01*
Y30799D01*
X26844D01*
Y30796D01*
X26836D01*
Y30792D01*
X26832D01*
Y30788D01*
X26821D01*
Y30784D01*
X26817D01*
Y30780D01*
X26806D01*
Y30776D01*
X26802D01*
Y30773D01*
X26806D01*
Y30769D01*
X26809D01*
Y30765D01*
X26813D01*
Y30761D01*
X26825D01*
Y30757D01*
X26829D01*
Y30753D01*
X26836D01*
Y30750D01*
X26844D01*
Y30746D01*
X26848D01*
Y30742D01*
X26855D01*
Y30738D01*
X26863D01*
Y30734D01*
X26871D01*
Y30730D01*
X26874D01*
Y30727D01*
X26882D01*
Y30723D01*
X26890D01*
Y30719D01*
X26897D01*
Y30715D01*
X26905D01*
Y30711D01*
X26909D01*
Y30707D01*
X26917D01*
Y30704D01*
X26924D01*
Y30700D01*
X26928D01*
Y30696D01*
X26940D01*
Y30692D01*
X26943D01*
Y30688D01*
X26951D01*
Y30684D01*
X26959D01*
Y30681D01*
X26966D01*
Y30677D01*
X26974D01*
Y30673D01*
X26978D01*
Y30669D01*
X26985D01*
Y30665D01*
X26993D01*
Y30662D01*
X27001D01*
Y30658D01*
X27008D01*
Y30654D01*
X27012D01*
Y30650D01*
X27020D01*
Y30646D01*
X27028D01*
Y30642D01*
X27035D01*
Y30639D01*
X27039D01*
Y30635D01*
X27047D01*
Y30631D01*
X27054D01*
Y30627D01*
X27058D01*
Y30623D01*
X27070D01*
Y30619D01*
X27073D01*
Y30616D01*
X27081D01*
Y30612D01*
X27089D01*
Y30608D01*
X27093D01*
Y30604D01*
X27104D01*
Y30600D01*
X27108D01*
Y30596D01*
X27116D01*
Y30593D01*
X27123D01*
Y30589D01*
X27131D01*
Y30585D01*
X27139D01*
Y30581D01*
X27142D01*
Y30577D01*
X27150D01*
Y30573D01*
X27158D01*
Y30570D01*
X27165D01*
Y30566D01*
X27169D01*
Y30562D01*
X27177D01*
Y30558D01*
X27185D01*
Y30554D01*
X27188D01*
Y30551D01*
X27200D01*
Y30547D01*
X27204D01*
Y30543D01*
X27211D01*
Y30539D01*
X27219D01*
Y30535D01*
X27223D01*
Y30531D01*
X27234D01*
Y30528D01*
X27238D01*
Y30524D01*
X27246D01*
Y30520D01*
X27253D01*
Y30516D01*
X27257D01*
Y30512D01*
X27269D01*
Y30508D01*
X27273D01*
Y30505D01*
X27280D01*
Y30501D01*
X27288D01*
Y30497D01*
X27295D01*
Y30493D01*
X27303D01*
Y30489D01*
X27307D01*
Y30485D01*
X27315D01*
Y30482D01*
X27322D01*
Y30478D01*
X27330D01*
Y30474D01*
X27334D01*
Y30470D01*
X27341D01*
Y30466D01*
X27349D01*
Y30463D01*
X27353D01*
Y30459D01*
X27364D01*
Y30455D01*
X27368D01*
Y30451D01*
X27376D01*
Y30447D01*
X27384D01*
Y30443D01*
X27387D01*
Y30440D01*
X27399D01*
Y30436D01*
X27403D01*
Y30432D01*
X27410D01*
Y30428D01*
X27418D01*
Y30424D01*
X27422D01*
Y30420D01*
X27433D01*
Y30417D01*
X27437D01*
Y30413D01*
X27445D01*
Y30409D01*
X27452D01*
Y30405D01*
X27460D01*
Y30401D01*
X27468D01*
Y30397D01*
X27472D01*
Y30394D01*
X27479D01*
Y30390D01*
X27483D01*
Y30386D01*
X27495D01*
Y30382D01*
X27498D01*
Y30378D01*
X27506D01*
Y30374D01*
X27514D01*
Y30371D01*
X27517D01*
Y30367D01*
X27529D01*
Y30363D01*
X27533D01*
Y30359D01*
X27540D01*
Y30355D01*
X27548D01*
Y30352D01*
X27552D01*
Y30348D01*
X27563D01*
Y30344D01*
X27567D01*
Y30340D01*
X27575D01*
Y30336D01*
X27583D01*
Y30332D01*
X27586D01*
Y30329D01*
X27598D01*
Y30325D01*
X27602D01*
Y30321D01*
X27609D01*
Y30317D01*
X27617D01*
Y30313D01*
X27621D01*
Y30309D01*
X27629D01*
Y30306D01*
X27636D01*
Y30302D01*
X27644D01*
Y30298D01*
X27648D01*
Y30294D01*
X27659D01*
Y30290D01*
X27663D01*
Y30286D01*
X27671D01*
Y30283D01*
X27678D01*
Y30279D01*
X27682D01*
Y30275D01*
X27694D01*
Y30271D01*
X27697D01*
Y30267D01*
X27705D01*
Y30263D01*
X27713D01*
Y30260D01*
X27717D01*
Y30256D01*
X27728D01*
Y30252D01*
X27732D01*
Y30248D01*
X27740D01*
Y30244D01*
X27747D01*
Y30240D01*
X27751D01*
Y30237D01*
X27762D01*
Y30233D01*
X27766D01*
Y30229D01*
X27774D01*
Y30225D01*
X27782D01*
Y30221D01*
X27785D01*
Y30218D01*
X27793D01*
Y30214D01*
X27801D01*
Y30210D01*
X27808D01*
Y30206D01*
X27812D01*
Y30202D01*
X27824D01*
Y30198D01*
X27828D01*
Y30195D01*
X27835D01*
Y30191D01*
X27843D01*
Y30187D01*
X27847D01*
Y30183D01*
X27858D01*
Y30179D01*
X27862D01*
Y30175D01*
X27870D01*
Y30172D01*
X27877D01*
Y30168D01*
X27881D01*
Y30164D01*
X27893D01*
Y30160D01*
X27896D01*
Y30156D01*
X27904D01*
Y30152D01*
X27912D01*
Y30149D01*
X27916D01*
Y30145D01*
X27923D01*
Y30141D01*
X27931D01*
Y30137D01*
X27939D01*
Y30133D01*
X27942D01*
Y30129D01*
X27946D01*
Y30122D01*
X27942D01*
Y30114D01*
X27939D01*
Y30110D01*
X27935D01*
Y30099D01*
X27931D01*
Y30095D01*
X27927D01*
Y30087D01*
X27923D01*
Y30080D01*
X27919D01*
Y30076D01*
X27916D01*
Y30064D01*
X27912D01*
Y30061D01*
X27908D01*
Y30053D01*
X27904D01*
Y30045D01*
X27900D01*
Y30041D01*
X27896D01*
Y30030D01*
X27893D01*
Y30026D01*
X27889D01*
Y30018D01*
X27885D01*
Y30011D01*
X27881D01*
Y30007D01*
X27877D01*
Y29996D01*
X27873D01*
Y29992D01*
X27870D01*
Y29984D01*
X27866D01*
Y29980D01*
X27862D01*
Y29969D01*
X27858D01*
Y29965D01*
X27854D01*
Y29957D01*
X27851D01*
Y29953D01*
X27835D01*
Y29957D01*
X27831D01*
Y29961D01*
X27824D01*
Y29965D01*
X27816D01*
Y29969D01*
X27812D01*
Y29973D01*
X27801D01*
Y29976D01*
X27797D01*
Y29980D01*
X27789D01*
Y29984D01*
X27782D01*
Y29988D01*
X27774D01*
Y29992D01*
X27770D01*
Y29996D01*
X27762D01*
Y29999D01*
X27755D01*
Y30003D01*
X27751D01*
Y30007D01*
X27740D01*
Y30011D01*
X27736D01*
Y30015D01*
X27728D01*
Y30018D01*
X27720D01*
Y30022D01*
X27717D01*
Y30026D01*
X27705D01*
Y30030D01*
X27701D01*
Y30034D01*
X27694D01*
Y30038D01*
X27686D01*
Y30041D01*
X27682D01*
Y30045D01*
X27671D01*
Y30049D01*
X27667D01*
Y30053D01*
X27659D01*
Y30057D01*
X27651D01*
Y30061D01*
X27648D01*
Y30064D01*
X27636D01*
Y30068D01*
X27632D01*
Y30072D01*
X27625D01*
Y30076D01*
X27617D01*
Y30080D01*
X27613D01*
Y30084D01*
X27606D01*
Y30087D01*
X27598D01*
Y30091D01*
X27590D01*
Y30095D01*
X27586D01*
Y30099D01*
X27575D01*
Y30103D01*
X27571D01*
Y30107D01*
X27563D01*
Y30110D01*
X27556D01*
Y30114D01*
X27552D01*
Y30118D01*
X27540D01*
Y30122D01*
X27537D01*
Y30126D01*
X27529D01*
Y30129D01*
X27521D01*
Y30133D01*
X27517D01*
Y30137D01*
X27506D01*
Y30141D01*
X27502D01*
Y30145D01*
X27495D01*
Y30149D01*
X27487D01*
Y30152D01*
X27483D01*
Y30156D01*
X27475D01*
Y30160D01*
X27468D01*
Y30164D01*
X27460D01*
Y30168D01*
X27456D01*
Y30172D01*
X27449D01*
Y30175D01*
X27441D01*
Y30179D01*
X27433D01*
Y30183D01*
X27426D01*
Y30187D01*
X27422D01*
Y30191D01*
X27410D01*
Y30195D01*
X27406D01*
Y30198D01*
X27399D01*
Y30202D01*
X27391D01*
Y30206D01*
X27387D01*
Y30210D01*
X27376D01*
Y30214D01*
X27372D01*
Y30218D01*
X27364D01*
Y30221D01*
X27357D01*
Y30225D01*
X27353D01*
Y30229D01*
X27341D01*
Y30233D01*
X27338D01*
Y30237D01*
X27330D01*
Y30240D01*
X27322D01*
Y30244D01*
X27318D01*
Y30248D01*
X27311D01*
Y30252D01*
X27303D01*
Y30256D01*
X27295D01*
Y30260D01*
X27292D01*
Y30263D01*
X27284D01*
Y30267D01*
X27276D01*
Y30271D01*
X27269D01*
Y30275D01*
X27261D01*
Y30279D01*
X27257D01*
Y30283D01*
X27246D01*
Y30286D01*
X27242D01*
Y30290D01*
X27234D01*
Y30294D01*
X27227D01*
Y30298D01*
X27223D01*
Y30302D01*
X27211D01*
Y30306D01*
X27207D01*
Y30309D01*
X27200D01*
Y30313D01*
X27192D01*
Y30317D01*
X27188D01*
Y30321D01*
X27181D01*
Y30325D01*
X27173D01*
Y30329D01*
X27165D01*
Y30332D01*
X27158D01*
Y30336D01*
X27154D01*
Y30340D01*
X27146D01*
Y30344D01*
X27139D01*
Y30348D01*
X27131D01*
Y30352D01*
X27127D01*
Y30355D01*
X27119D01*
Y30359D01*
X27112D01*
Y30363D01*
X27104D01*
Y30367D01*
X27096D01*
Y30371D01*
X27093D01*
Y30374D01*
X27081D01*
Y30378D01*
X27077D01*
Y30382D01*
X27070D01*
Y30386D01*
X27062D01*
Y30390D01*
X27058D01*
Y30394D01*
X27051D01*
Y30397D01*
X27043D01*
Y30401D01*
X27035D01*
Y30405D01*
X27028D01*
Y30409D01*
X27024D01*
Y30413D01*
X27016D01*
Y30417D01*
X27008D01*
Y30420D01*
X27001D01*
Y30424D01*
X26997D01*
Y30428D01*
X26989D01*
Y30432D01*
X26982D01*
Y30436D01*
X26978D01*
Y30440D01*
X26966D01*
Y30443D01*
X26962D01*
Y30447D01*
X26955D01*
Y30451D01*
X26947D01*
Y30455D01*
X26940D01*
Y30459D01*
X26932D01*
Y30463D01*
X26928D01*
Y30466D01*
X26920D01*
Y30470D01*
X26913D01*
Y30474D01*
X26905D01*
Y30478D01*
X26897D01*
Y30482D01*
X26894D01*
Y30485D01*
X26886D01*
Y30489D01*
X26878D01*
Y30493D01*
X26871D01*
Y30497D01*
X26863D01*
Y30501D01*
X26859D01*
Y30505D01*
X26851D01*
Y30508D01*
X26844D01*
Y30512D01*
X26836D01*
Y30516D01*
X26832D01*
Y30520D01*
X26825D01*
Y30524D01*
X26817D01*
Y30528D01*
X26813D01*
Y30531D01*
X26802D01*
Y30535D01*
X26798D01*
Y30539D01*
X26790D01*
Y30543D01*
X26783D01*
Y30547D01*
X26779D01*
Y30551D01*
X26767D01*
Y30554D01*
X26763D01*
Y30558D01*
X26756D01*
Y30562D01*
X26748D01*
Y30566D01*
X26740D01*
Y30570D01*
X26733D01*
Y30573D01*
X26729D01*
Y30577D01*
X26721D01*
Y30581D01*
X26714D01*
Y30585D01*
X26706D01*
Y30589D01*
X26702D01*
Y30593D01*
X26695D01*
Y30596D01*
X26687D01*
Y30600D01*
X26679D01*
Y30604D01*
X26672D01*
Y30608D01*
X26668D01*
Y30612D01*
X26660D01*
Y30616D01*
X26652D01*
Y30619D01*
X26649D01*
Y30623D01*
X26637D01*
Y30627D01*
X26633D01*
Y30631D01*
X26626D01*
Y30635D01*
X26618D01*
Y30639D01*
X26614D01*
Y30642D01*
X26603D01*
Y30646D01*
X26599D01*
Y30650D01*
X26591D01*
Y30654D01*
X26587D01*
Y30650D01*
X26576D01*
Y30646D01*
X26572D01*
Y30642D01*
X26561D01*
Y30639D01*
X26557D01*
Y30635D01*
X26549D01*
Y30631D01*
X26541D01*
Y30627D01*
X26538D01*
Y30623D01*
X26526D01*
Y30619D01*
X26522D01*
Y30616D01*
X26515D01*
Y30612D01*
X26507D01*
Y30608D01*
X26503D01*
Y30604D01*
X26492D01*
Y30600D01*
X26488D01*
Y30596D01*
X26480D01*
Y30593D01*
X26473D01*
Y30589D01*
X26469D01*
Y30585D01*
X26457D01*
Y30581D01*
X26453D01*
Y30577D01*
X26446D01*
Y30573D01*
X26438D01*
Y30570D01*
X26430D01*
Y30566D01*
X26427D01*
Y30562D01*
X26419D01*
Y30558D01*
X26411D01*
Y30554D01*
X26407D01*
Y30551D01*
X26396D01*
Y30547D01*
X26392D01*
Y30543D01*
X26385D01*
Y30539D01*
X26377D01*
Y30535D01*
X26373D01*
Y30531D01*
X26362D01*
Y30528D01*
X26358D01*
Y30524D01*
X26350D01*
Y30520D01*
X26342D01*
Y30516D01*
X26339D01*
Y30512D01*
X26327D01*
Y30508D01*
X26323D01*
Y30505D01*
X26316D01*
Y30501D01*
X26308D01*
Y30497D01*
X26304D01*
Y30493D01*
X26293D01*
Y30489D01*
X26289D01*
Y30485D01*
X26281D01*
Y30482D01*
X26277D01*
Y30478D01*
X26266D01*
Y30474D01*
X26262D01*
Y30470D01*
X26254D01*
Y30466D01*
X26247D01*
Y30463D01*
X26243D01*
Y30459D01*
X26231D01*
Y30455D01*
X26228D01*
Y30451D01*
X26220D01*
Y30447D01*
X26212D01*
Y30443D01*
X26208D01*
Y30440D01*
X26197D01*
Y30436D01*
X26193D01*
Y30432D01*
X26185D01*
Y30428D01*
X26178D01*
Y30424D01*
X26174D01*
Y30420D01*
X26163D01*
Y30417D01*
X26159D01*
Y30413D01*
X26151D01*
Y30409D01*
X26143D01*
Y30405D01*
X26140D01*
Y30401D01*
X26132D01*
Y30397D01*
X26124D01*
Y30394D01*
X26117D01*
Y30390D01*
X26113D01*
Y30386D01*
X26101D01*
Y30382D01*
X26097D01*
Y30378D01*
X26090D01*
Y30374D01*
X26082D01*
Y30371D01*
X26078D01*
Y30367D01*
X26067D01*
Y30363D01*
X26063D01*
Y30359D01*
X26055D01*
Y30355D01*
X26048D01*
Y30352D01*
X26044D01*
Y30348D01*
X26032D01*
Y30344D01*
X26029D01*
Y30340D01*
X26021D01*
Y30336D01*
X26013D01*
Y30332D01*
X26009D01*
Y30329D01*
X25998D01*
Y30325D01*
X25994D01*
Y30321D01*
X25986D01*
Y30317D01*
X25979D01*
Y30313D01*
X25975D01*
Y30309D01*
X25967D01*
Y30306D01*
X25960D01*
Y30302D01*
X25952D01*
Y30298D01*
X25948D01*
Y30294D01*
X25937D01*
Y30290D01*
X25933D01*
Y30286D01*
X25925D01*
Y30283D01*
X25918D01*
Y30279D01*
X25914D01*
Y30275D01*
X25902D01*
Y30271D01*
X25898D01*
Y30267D01*
X25891D01*
Y30263D01*
X25883D01*
Y30260D01*
X25879D01*
Y30256D01*
X25868D01*
Y30252D01*
X25864D01*
Y30248D01*
X25856D01*
Y30244D01*
X25849D01*
Y30240D01*
X25845D01*
Y30237D01*
X25837D01*
Y30233D01*
X25830D01*
Y30229D01*
X25822D01*
Y30225D01*
X25818D01*
Y30221D01*
X25810D01*
Y30218D01*
X25803D01*
Y30214D01*
X25795D01*
Y30210D01*
X25787D01*
Y30206D01*
X25784D01*
Y30202D01*
X25776D01*
Y30198D01*
X25768D01*
Y30195D01*
X25761D01*
Y30191D01*
X25753D01*
Y30187D01*
X25749D01*
Y30183D01*
X25738D01*
Y30179D01*
X25734D01*
Y30175D01*
X25726D01*
Y30172D01*
X25719D01*
Y30168D01*
X25715D01*
Y30164D01*
X25703D01*
Y30160D01*
X25699D01*
Y30156D01*
X25692D01*
Y30152D01*
X25684D01*
Y30149D01*
X25680D01*
Y30145D01*
X25673D01*
Y30141D01*
X25665D01*
Y30137D01*
X25657D01*
Y30133D01*
X25653D01*
Y30129D01*
X25646D01*
Y30126D01*
X25638D01*
Y30122D01*
X25630D01*
Y30118D01*
X25623D01*
Y30114D01*
X25619D01*
Y30110D01*
X25611D01*
Y30107D01*
X25604D01*
Y30103D01*
X25596D01*
Y30099D01*
X25588D01*
Y30095D01*
X25585D01*
Y30091D01*
X25573D01*
Y30087D01*
X25569D01*
Y30084D01*
X25562D01*
Y30080D01*
X25554D01*
Y30076D01*
X25550D01*
Y30072D01*
X25542D01*
Y30068D01*
X25535D01*
Y30064D01*
X25527D01*
Y30061D01*
X25523D01*
Y30057D01*
X25516D01*
Y30053D01*
X25508D01*
Y30049D01*
X25500D01*
Y30045D01*
X25493D01*
Y30041D01*
X25489D01*
Y30038D01*
X25481D01*
Y30034D01*
X25474D01*
Y30030D01*
X25470D01*
Y30026D01*
X25458D01*
Y30022D01*
X25454D01*
Y30018D01*
X25447D01*
Y30015D01*
X25439D01*
Y30011D01*
X25431D01*
Y30007D01*
X25424D01*
Y30003D01*
X25420D01*
Y29999D01*
X25412D01*
Y29996D01*
X25405D01*
Y29992D01*
X25397D01*
Y29988D01*
X25389D01*
Y29984D01*
X25385D01*
Y29980D01*
X25378D01*
Y29976D01*
X25370D01*
Y29973D01*
X25363D01*
Y29969D01*
X25359D01*
Y29965D01*
X25351D01*
Y29961D01*
X25343D01*
Y29957D01*
X25340D01*
Y29953D01*
X25324D01*
Y29957D01*
X25320D01*
Y29961D01*
X25317D01*
Y29969D01*
X25313D01*
Y29976D01*
X25309D01*
Y29984D01*
X25305D01*
Y29988D01*
X25301D01*
Y29996D01*
X25297D01*
Y30003D01*
X25294D01*
Y30011D01*
X25290D01*
Y30018D01*
X25286D01*
Y30022D01*
X25282D01*
Y30030D01*
X25278D01*
Y30038D01*
X25275D01*
Y30045D01*
X25271D01*
Y30053D01*
X25267D01*
Y30057D01*
X25263D01*
Y30068D01*
X25259D01*
Y30072D01*
X25255D01*
Y30080D01*
X25252D01*
Y30087D01*
X25248D01*
Y30091D01*
X25244D01*
Y30103D01*
X25240D01*
Y30107D01*
X25236D01*
Y30114D01*
X25232D01*
Y30118D01*
X25229D01*
Y30133D01*
X25236D01*
Y30137D01*
X25244D01*
Y30141D01*
X25248D01*
Y30145D01*
X25259D01*
Y30149D01*
X25263D01*
Y30152D01*
X25271D01*
Y30156D01*
X25278D01*
Y30160D01*
X25282D01*
Y30164D01*
X25294D01*
Y30168D01*
X25297D01*
Y30172D01*
X25305D01*
Y30175D01*
X25313D01*
Y30179D01*
X25317D01*
Y30183D01*
X25328D01*
Y30187D01*
X25332D01*
Y30191D01*
X25340D01*
Y30195D01*
X25347D01*
Y30198D01*
X25351D01*
Y30202D01*
X25359D01*
Y30206D01*
X25366D01*
Y30210D01*
X25374D01*
Y30214D01*
X25378D01*
Y30218D01*
X25385D01*
Y30221D01*
X25393D01*
Y30225D01*
X25401D01*
Y30229D01*
X25408D01*
Y30233D01*
X25412D01*
Y30237D01*
X25424D01*
Y30240D01*
X25428D01*
Y30244D01*
X25435D01*
Y30248D01*
X25443D01*
Y30252D01*
X25447D01*
Y30256D01*
X25458D01*
Y30260D01*
X25462D01*
Y30263D01*
X25470D01*
Y30267D01*
X25477D01*
Y30271D01*
X25481D01*
Y30275D01*
X25489D01*
Y30279D01*
X25496D01*
Y30283D01*
X25504D01*
Y30286D01*
X25508D01*
Y30290D01*
X25516D01*
Y30294D01*
X25523D01*
Y30298D01*
X25531D01*
Y30302D01*
X25539D01*
Y30306D01*
X25542D01*
Y30309D01*
X25550D01*
Y30313D01*
X25558D01*
Y30317D01*
X25565D01*
Y30321D01*
X25573D01*
Y30325D01*
X25577D01*
Y30329D01*
X25585D01*
Y30332D01*
X25592D01*
Y30336D01*
X25600D01*
Y30340D01*
X25608D01*
Y30344D01*
X25611D01*
Y30348D01*
X25619D01*
Y30352D01*
X25627D01*
Y30355D01*
X25634D01*
Y30359D01*
X25642D01*
Y30363D01*
X25646D01*
Y30367D01*
X25653D01*
Y30371D01*
X25661D01*
Y30374D01*
X25669D01*
Y30378D01*
X25673D01*
Y30382D01*
X25680D01*
Y30386D01*
X25688D01*
Y30390D01*
X25692D01*
Y30394D01*
X25703D01*
Y30397D01*
X25707D01*
Y30401D01*
X25715D01*
Y30405D01*
X25722D01*
Y30409D01*
X25726D01*
Y30413D01*
X25738D01*
Y30417D01*
X25741D01*
Y30420D01*
X25749D01*
Y30424D01*
X25757D01*
Y30428D01*
X25764D01*
Y30432D01*
X25772D01*
Y30436D01*
X25776D01*
Y30440D01*
X25784D01*
Y30443D01*
X25791D01*
Y30447D01*
X25799D01*
Y30451D01*
X25807D01*
Y30455D01*
X25810D01*
Y30459D01*
X25818D01*
Y30463D01*
X25826D01*
Y30466D01*
X25833D01*
Y30470D01*
X25837D01*
Y30474D01*
X25845D01*
Y30478D01*
X25852D01*
Y30482D01*
X25856D01*
Y30485D01*
X25868D01*
Y30489D01*
X25872D01*
Y30493D01*
X25879D01*
Y30497D01*
X25887D01*
Y30501D01*
X25891D01*
Y30505D01*
X25902D01*
Y30508D01*
X25906D01*
Y30512D01*
X25914D01*
Y30516D01*
X25921D01*
Y30520D01*
X25929D01*
Y30524D01*
X25937D01*
Y30528D01*
X25941D01*
Y30531D01*
X25948D01*
Y30535D01*
X25956D01*
Y30539D01*
X25963D01*
Y30543D01*
X25967D01*
Y30547D01*
X25975D01*
Y30551D01*
X25983D01*
Y30554D01*
X25986D01*
Y30558D01*
X25998D01*
Y30562D01*
X26002D01*
Y30566D01*
X26009D01*
Y30570D01*
X26017D01*
Y30573D01*
X26021D01*
Y30577D01*
X26032D01*
Y30581D01*
X26036D01*
Y30585D01*
X26044D01*
Y30589D01*
X26052D01*
Y30593D01*
X26055D01*
Y30596D01*
X26067D01*
Y30600D01*
X26071D01*
Y30604D01*
X26078D01*
Y30608D01*
X26086D01*
Y30612D01*
X26090D01*
Y30616D01*
X26101D01*
Y30619D01*
X26105D01*
Y30623D01*
X26113D01*
Y30627D01*
X26120D01*
Y30631D01*
X26128D01*
Y30635D01*
X26132D01*
Y30639D01*
X26140D01*
Y30642D01*
X26147D01*
Y30646D01*
X26151D01*
Y30650D01*
X26163D01*
Y30654D01*
X26166D01*
Y30658D01*
X26174D01*
Y30662D01*
X26182D01*
Y30665D01*
X26185D01*
Y30669D01*
X26197D01*
Y30673D01*
X26201D01*
Y30677D01*
X26208D01*
Y30681D01*
X26216D01*
Y30684D01*
X26220D01*
Y30688D01*
X26231D01*
Y30692D01*
X26235D01*
Y30696D01*
X26243D01*
Y30700D01*
X26251D01*
Y30704D01*
X26254D01*
Y30707D01*
X26266D01*
Y30711D01*
X26270D01*
Y30715D01*
X26277D01*
Y30719D01*
X26285D01*
Y30723D01*
X26293D01*
Y30727D01*
X26296D01*
Y30730D01*
X26304D01*
Y30734D01*
X26312D01*
Y30738D01*
X26316D01*
Y30742D01*
X26327D01*
Y30746D01*
X26331D01*
Y30750D01*
X26339D01*
Y30753D01*
X26346D01*
Y30757D01*
X26350D01*
Y30761D01*
X26362D01*
Y30765D01*
X26365D01*
Y30769D01*
X26369D01*
Y30780D01*
X26358D01*
Y30784D01*
X26354D01*
Y30788D01*
X26342D01*
Y30792D01*
X26339D01*
Y30796D01*
X26331D01*
Y30799D01*
X26323D01*
Y30803D01*
X26319D01*
Y30807D01*
X26308D01*
Y30811D01*
X26304D01*
Y30815D01*
X26296D01*
Y30818D01*
X26289D01*
Y30822D01*
X26285D01*
Y30826D01*
X26274D01*
Y30830D01*
X26270D01*
Y30834D01*
X26262D01*
Y30838D01*
X26254D01*
Y30841D01*
X26251D01*
Y30845D01*
X26239D01*
Y30849D01*
X26235D01*
Y30853D01*
X26228D01*
Y30857D01*
X26220D01*
Y30861D01*
X26212D01*
Y30864D01*
X26208D01*
Y30868D01*
X26201D01*
Y30872D01*
X26193D01*
Y30876D01*
X26189D01*
Y30880D01*
X26178D01*
Y30884D01*
X26174D01*
Y30887D01*
X26166D01*
Y30891D01*
X26159D01*
Y30895D01*
X26155D01*
Y30899D01*
X26143D01*
Y30903D01*
X26140D01*
Y30907D01*
X26132D01*
Y30910D01*
X26124D01*
Y30914D01*
X26120D01*
Y30918D01*
X26109D01*
Y30922D01*
X26105D01*
Y30926D01*
X26097D01*
Y30929D01*
X26090D01*
Y30933D01*
X26086D01*
Y30937D01*
X26078D01*
Y30941D01*
X26071D01*
Y30945D01*
X26063D01*
Y30949D01*
X26059D01*
Y30952D01*
X26048D01*
Y30956D01*
X26044D01*
Y30960D01*
X26036D01*
Y30964D01*
X26029D01*
Y30968D01*
X26025D01*
Y30972D01*
X26013D01*
Y30975D01*
X26009D01*
Y30979D01*
X26002D01*
Y30983D01*
X25994D01*
Y30987D01*
X25990D01*
Y30991D01*
X25979D01*
Y30995D01*
X25975D01*
Y30998D01*
X25967D01*
Y31002D01*
X25960D01*
Y31006D01*
X25956D01*
Y31010D01*
X25944D01*
Y31014D01*
X25941D01*
Y31018D01*
X25933D01*
Y31021D01*
X25925D01*
Y31025D01*
X25921D01*
Y31029D01*
X25914D01*
Y31033D01*
X25906D01*
Y31037D01*
X25898D01*
Y31040D01*
X25895D01*
Y31044D01*
X25883D01*
Y31048D01*
X25879D01*
Y31052D01*
X25872D01*
Y31056D01*
X25864D01*
Y31060D01*
X25860D01*
Y31063D01*
X25849D01*
Y31067D01*
X25845D01*
Y31071D01*
X25837D01*
Y31075D01*
X25830D01*
Y31079D01*
X25826D01*
Y31083D01*
X25814D01*
Y31086D01*
X25810D01*
Y31090D01*
X25803D01*
Y31094D01*
X25795D01*
Y31098D01*
X25791D01*
Y31102D01*
X25784D01*
Y31106D01*
X25776D01*
Y31109D01*
X25768D01*
Y31113D01*
X25764D01*
Y31117D01*
X25757D01*
Y31121D01*
X25749D01*
Y31125D01*
X25741D01*
Y31129D01*
X25734D01*
Y31132D01*
X25730D01*
Y31136D01*
X25719D01*
Y31140D01*
X25715D01*
Y31144D01*
X25707D01*
Y31148D01*
X25699D01*
Y31151D01*
X25696D01*
Y31155D01*
X25684D01*
Y31159D01*
X25680D01*
Y31163D01*
X25673D01*
Y31167D01*
X25665D01*
Y31171D01*
X25661D01*
Y31174D01*
X25650D01*
Y31178D01*
X25646D01*
Y31182D01*
X25638D01*
Y31186D01*
X25630D01*
Y31190D01*
X25627D01*
Y31194D01*
X25619D01*
Y31197D01*
X25611D01*
Y31201D01*
X25604D01*
Y31205D01*
X25600D01*
Y31209D01*
X25592D01*
Y31213D01*
X25585D01*
Y31217D01*
X25577D01*
Y31220D01*
X25569D01*
Y31224D01*
X25565D01*
Y31228D01*
X25554D01*
Y31232D01*
X25550D01*
Y31236D01*
X25542D01*
Y31240D01*
X25535D01*
Y31243D01*
X25531D01*
Y31247D01*
X25519D01*
Y31251D01*
X25516D01*
Y31255D01*
X25508D01*
Y31259D01*
X25500D01*
Y31262D01*
X25496D01*
Y31266D01*
X25489D01*
Y31270D01*
X25481D01*
Y31274D01*
X25474D01*
Y31278D01*
X25466D01*
Y31282D01*
X25462D01*
Y31285D01*
X25454D01*
Y31289D01*
X25447D01*
Y31293D01*
X25439D01*
Y31297D01*
X25435D01*
Y31301D01*
X25428D01*
Y31305D01*
X25420D01*
Y31308D01*
X25412D01*
Y31312D01*
X25405D01*
Y31316D01*
X25401D01*
Y31320D01*
X25393D01*
Y31324D01*
X25385D01*
Y31328D01*
X25378D01*
Y31331D01*
X25370D01*
Y31335D01*
X25366D01*
Y31339D01*
X25355D01*
Y31343D01*
X25351D01*
Y31347D01*
X25343D01*
Y31351D01*
X25336D01*
Y31354D01*
X25332D01*
Y31358D01*
X25324D01*
Y31362D01*
X25317D01*
Y31366D01*
X25309D01*
Y31370D01*
X25305D01*
Y31373D01*
X25297D01*
Y31377D01*
X25290D01*
Y31381D01*
X25282D01*
Y31385D01*
X25275D01*
Y31389D01*
X25271D01*
Y31393D01*
X25263D01*
Y31396D01*
X25255D01*
Y31400D01*
X25252D01*
Y31404D01*
X25240D01*
Y31408D01*
X25236D01*
Y31412D01*
X25229D01*
Y31423D01*
X25232D01*
Y31431D01*
X25236D01*
Y31439D01*
X25240D01*
Y31442D01*
X25244D01*
Y31454D01*
X25248D01*
Y31458D01*
X25252D01*
Y31465D01*
X25255D01*
Y31473D01*
X25259D01*
Y31477D01*
X25263D01*
Y31488D01*
X25267D01*
Y31492D01*
X25271D01*
Y31500D01*
X25275D01*
Y31507D01*
X25278D01*
Y31511D01*
X25282D01*
Y31523D01*
X25286D01*
Y31527D01*
X25290D01*
Y31534D01*
X25294D01*
Y31542D01*
X25297D01*
Y31550D01*
X25301D01*
Y31553D01*
X25305D01*
Y31561D01*
X25309D01*
Y31569D01*
X25313D01*
Y31573D01*
X25317D01*
Y31584D01*
X25320D01*
Y31588D01*
X25324D01*
Y31592D01*
X25336D01*
Y31588D01*
X25343D01*
Y31584D01*
X25347D01*
Y31580D01*
X25355D01*
Y31576D01*
X25363D01*
Y31573D01*
X25366D01*
Y31569D01*
X25378D01*
Y31565D01*
X25382D01*
Y31561D01*
X25389D01*
Y31557D01*
X25397D01*
Y31553D01*
X25401D01*
Y31550D01*
X25412D01*
Y31546D01*
X25416D01*
Y31542D01*
X25424D01*
Y31538D01*
X25431D01*
Y31534D01*
X25439D01*
Y31530D01*
X25447D01*
Y31527D01*
X25451D01*
Y31523D01*
X25458D01*
Y31519D01*
X25466D01*
Y31515D01*
X25474D01*
Y31511D01*
X25477D01*
Y31507D01*
X25485D01*
Y31504D01*
X25493D01*
Y31500D01*
X25500D01*
Y31496D01*
X25508D01*
Y31492D01*
X25512D01*
Y31488D01*
X25519D01*
Y31484D01*
X25527D01*
Y31481D01*
X25531D01*
Y31477D01*
X25542D01*
Y31473D01*
X25546D01*
Y31469D01*
X25554D01*
Y31465D01*
X25562D01*
Y31462D01*
X25565D01*
Y31458D01*
X25577D01*
Y31454D01*
X25581D01*
Y31450D01*
X25588D01*
Y31446D01*
X25596D01*
Y31442D01*
X25604D01*
Y31439D01*
X25611D01*
Y31435D01*
X25615D01*
Y31431D01*
X25623D01*
Y31427D01*
X25630D01*
Y31423D01*
X25638D01*
Y31419D01*
X25642D01*
Y31416D01*
X25650D01*
Y31412D01*
X25657D01*
Y31408D01*
X25661D01*
Y31404D01*
X25673D01*
Y31400D01*
X25676D01*
Y31396D01*
X25684D01*
Y31393D01*
X25692D01*
Y31389D01*
X25696D01*
Y31385D01*
X25707D01*
Y31381D01*
X25711D01*
Y31377D01*
X25719D01*
Y31373D01*
X25726D01*
Y31370D01*
X25730D01*
Y31366D01*
X25741D01*
Y31362D01*
X25745D01*
Y31358D01*
X25753D01*
Y31354D01*
X25761D01*
Y31351D01*
X25768D01*
Y31347D01*
X25776D01*
Y31343D01*
X25780D01*
Y31339D01*
X25787D01*
Y31335D01*
X25795D01*
Y31331D01*
X25803D01*
Y31328D01*
X25807D01*
Y31324D01*
X25814D01*
Y31320D01*
X25822D01*
Y31316D01*
X25826D01*
Y31312D01*
X25837D01*
Y31308D01*
X25841D01*
Y31305D01*
X25849D01*
Y31301D01*
X25856D01*
Y31297D01*
X25860D01*
Y31293D01*
X25872D01*
Y31289D01*
X25875D01*
Y31285D01*
X25883D01*
Y31282D01*
X25891D01*
Y31278D01*
X25895D01*
Y31274D01*
X25906D01*
Y31270D01*
X25910D01*
Y31266D01*
X25918D01*
Y31262D01*
X25925D01*
Y31259D01*
X25933D01*
Y31255D01*
X25937D01*
Y31251D01*
X25944D01*
Y31247D01*
X25952D01*
Y31243D01*
X25960D01*
Y31240D01*
X25967D01*
Y31236D01*
X25971D01*
Y31232D01*
X25979D01*
Y31228D01*
X25986D01*
Y31224D01*
X25990D01*
Y31220D01*
X26002D01*
Y31217D01*
X26006D01*
Y31213D01*
X26013D01*
Y31209D01*
X26021D01*
Y31205D01*
X26025D01*
Y31201D01*
X26036D01*
Y31197D01*
X26040D01*
Y31194D01*
X26048D01*
Y31190D01*
X26055D01*
Y31186D01*
X26059D01*
Y31182D01*
X26071D01*
Y31178D01*
X26074D01*
Y31174D01*
X26082D01*
Y31171D01*
X26090D01*
Y31167D01*
X26097D01*
Y31163D01*
X26101D01*
Y31159D01*
X26109D01*
Y31155D01*
X26117D01*
Y31151D01*
X26120D01*
Y31148D01*
X26132D01*
Y31144D01*
X26136D01*
Y31140D01*
X26143D01*
Y31136D01*
X26151D01*
Y31132D01*
X26155D01*
Y31129D01*
X26166D01*
Y31125D01*
X26170D01*
Y31121D01*
X26178D01*
Y31117D01*
X26185D01*
Y31113D01*
X26189D01*
Y31109D01*
X26201D01*
Y31106D01*
X26205D01*
Y31102D01*
X26212D01*
Y31098D01*
X26220D01*
Y31094D01*
X26224D01*
Y31090D01*
X26235D01*
Y31086D01*
X26239D01*
Y31083D01*
X26247D01*
Y31079D01*
X26254D01*
Y31075D01*
X26262D01*
Y31071D01*
X26266D01*
Y31067D01*
X26274D01*
Y31063D01*
X26281D01*
Y31060D01*
X26285D01*
Y31056D01*
X26296D01*
Y31052D01*
X26300D01*
Y31048D01*
X26308D01*
Y31044D01*
X26316D01*
Y31040D01*
X26319D01*
Y31037D01*
X26331D01*
Y31033D01*
X26335D01*
Y31029D01*
X26342D01*
Y31025D01*
X26350D01*
Y31021D01*
X26354D01*
Y31018D01*
X26365D01*
Y31014D01*
X26369D01*
Y31010D01*
X26377D01*
Y31006D01*
X26385D01*
Y31002D01*
X26388D01*
Y30998D01*
X26400D01*
Y30995D01*
X26404D01*
Y30991D01*
X26411D01*
Y30987D01*
X26419D01*
Y30983D01*
X26427D01*
Y30979D01*
X26430D01*
Y30975D01*
X26438D01*
Y30972D01*
X26446D01*
Y30968D01*
X26450D01*
Y30964D01*
X26461D01*
Y30960D01*
X26465D01*
Y30956D01*
X26473D01*
Y30952D01*
X26480D01*
Y30949D01*
X26484D01*
Y30945D01*
X26496D01*
Y30941D01*
X26499D01*
Y30937D01*
X26507D01*
Y30933D01*
X26515D01*
Y30929D01*
X26518D01*
Y30926D01*
X26530D01*
Y30922D01*
X26534D01*
Y30918D01*
X26541D01*
Y30914D01*
X26549D01*
Y30910D01*
X26553D01*
Y30907D01*
X26561D01*
Y30903D01*
X26568D01*
Y30899D01*
X26576D01*
Y30895D01*
X26580D01*
Y30891D01*
X26591D01*
Y30895D01*
X26599D01*
Y30899D01*
X26607D01*
Y30903D01*
X26610D01*
Y30907D01*
X26618D01*
Y30910D01*
X26626D01*
Y30914D01*
X26633D01*
Y30918D01*
X26641D01*
Y30922D01*
X26645D01*
Y30926D01*
X26656D01*
Y30929D01*
X26660D01*
Y30933D01*
X26668D01*
Y30937D01*
X26675D01*
Y30941D01*
X26679D01*
Y30945D01*
X26691D01*
Y30949D01*
X26695D01*
Y30952D01*
X26702D01*
Y30956D01*
X26710D01*
Y30960D01*
X26714D01*
Y30964D01*
X26721D01*
Y30968D01*
X26729D01*
Y30972D01*
X26737D01*
Y30975D01*
X26740D01*
Y30979D01*
X26748D01*
Y30983D01*
X26756D01*
Y30987D01*
X26763D01*
Y30991D01*
X26771D01*
Y30995D01*
X26775D01*
Y30998D01*
X26783D01*
Y31002D01*
X26790D01*
Y31006D01*
X26798D01*
Y31010D01*
X26806D01*
Y31014D01*
X26809D01*
Y31018D01*
X26821D01*
Y31021D01*
X26825D01*
Y31025D01*
X26832D01*
Y31029D01*
X26840D01*
Y31033D01*
X26844D01*
Y31037D01*
X26851D01*
Y31040D01*
X26859D01*
Y31044D01*
X26867D01*
Y31048D01*
X26874D01*
Y31052D01*
X26878D01*
Y31056D01*
X26886D01*
Y31060D01*
X26894D01*
Y31063D01*
X26901D01*
Y31067D01*
X26905D01*
Y31071D01*
X26913D01*
Y31075D01*
X26920D01*
Y31079D01*
X26928D01*
Y31083D01*
X26936D01*
Y31086D01*
X26940D01*
Y31090D01*
X26947D01*
Y31094D01*
X26955D01*
Y31098D01*
X26962D01*
Y31102D01*
X26970D01*
Y31106D01*
X26974D01*
Y31109D01*
X26985D01*
Y31113D01*
X26989D01*
Y31117D01*
X26997D01*
Y31121D01*
X27005D01*
Y31125D01*
X27008D01*
Y31129D01*
X27016D01*
Y31132D01*
X27024D01*
Y31136D01*
X27031D01*
Y31140D01*
X27039D01*
Y31144D01*
X27043D01*
Y31148D01*
X27051D01*
Y31151D01*
X27058D01*
Y31155D01*
X27066D01*
Y31159D01*
X27070D01*
Y31163D01*
X27077D01*
Y31167D01*
X27085D01*
Y31171D01*
X27089D01*
Y31174D01*
X27100D01*
Y31178D01*
X27104D01*
Y31182D01*
X27112D01*
Y31186D01*
X27119D01*
Y31190D01*
X27127D01*
Y31194D01*
X27135D01*
Y31197D01*
X27139D01*
Y31201D01*
X27146D01*
Y31205D01*
X27154D01*
Y31209D01*
X27162D01*
Y31213D01*
X27169D01*
Y31217D01*
X27173D01*
Y31220D01*
X27181D01*
Y31224D01*
X27188D01*
Y31228D01*
X27196D01*
Y31232D01*
X27200D01*
Y31236D01*
X27207D01*
Y31240D01*
X27215D01*
Y31243D01*
X27219D01*
Y31247D01*
X27230D01*
Y31251D01*
X27234D01*
Y31255D01*
X27242D01*
Y31259D01*
X27250D01*
Y31262D01*
X27253D01*
Y31266D01*
X27265D01*
Y31270D01*
X27269D01*
Y31274D01*
X27276D01*
Y31278D01*
X27284D01*
Y31282D01*
X27292D01*
Y31285D01*
X27299D01*
Y31289D01*
X27303D01*
Y31293D01*
X27311D01*
Y31297D01*
X27318D01*
Y31301D01*
X27326D01*
Y31305D01*
X27334D01*
Y31308D01*
X27338D01*
Y31312D01*
X27345D01*
Y31316D01*
X27353D01*
Y31320D01*
X27361D01*
Y31324D01*
X27364D01*
Y31328D01*
X27372D01*
Y31331D01*
X27380D01*
Y31335D01*
X27384D01*
Y31339D01*
X27395D01*
Y31343D01*
X27399D01*
Y31347D01*
X27406D01*
Y31351D01*
X27414D01*
Y31354D01*
X27418D01*
Y31358D01*
X27429D01*
Y31362D01*
X27433D01*
Y31366D01*
X27441D01*
Y31370D01*
X27449D01*
Y31373D01*
X27456D01*
Y31377D01*
X27464D01*
Y31381D01*
X27468D01*
Y31385D01*
X27475D01*
Y31389D01*
X27483D01*
Y31393D01*
X27491D01*
Y31396D01*
X27498D01*
Y31400D01*
X27502D01*
Y31404D01*
X27510D01*
Y31408D01*
X27517D01*
Y31412D01*
X27525D01*
Y31416D01*
X27529D01*
Y31419D01*
X27537D01*
Y31423D01*
X27544D01*
Y31427D01*
X27548D01*
Y31431D01*
X27560D01*
Y31435D01*
X27563D01*
Y31439D01*
X27571D01*
Y31442D01*
X27579D01*
Y31446D01*
X27583D01*
Y31450D01*
X27594D01*
Y31454D01*
X27598D01*
Y31458D01*
X27606D01*
Y31462D01*
X27613D01*
Y31465D01*
X27621D01*
Y31469D01*
X27629D01*
Y31473D01*
X27632D01*
Y31477D01*
X27640D01*
Y31481D01*
X27648D01*
Y31484D01*
X27655D01*
Y31488D01*
X27659D01*
Y31492D01*
X27667D01*
Y31496D01*
X27674D01*
Y31500D01*
X27678D01*
Y31504D01*
X27690D01*
Y31507D01*
X27694D01*
Y31511D01*
X27701D01*
Y31515D01*
X27709D01*
Y31519D01*
X27713D01*
Y31523D01*
X27724D01*
Y31527D01*
X27728D01*
Y31530D01*
X27736D01*
Y31534D01*
X27743D01*
Y31538D01*
X27747D01*
Y31542D01*
X27759D01*
Y31546D01*
X27762D01*
Y31550D01*
X27770D01*
Y31553D01*
X27778D01*
Y31557D01*
X27782D01*
Y31561D01*
X27793D01*
Y31565D01*
X27797D01*
Y31569D01*
X27805D01*
Y31573D01*
X27812D01*
Y31576D01*
X27820D01*
Y31580D01*
X27824D01*
Y31584D01*
X27831D01*
Y31588D01*
X27839D01*
Y31592D01*
X27851D01*
Y31588D01*
D02*
G37*
G36*
X27835Y31129D02*
X27831D01*
Y31090D01*
X27828D01*
Y31063D01*
X27824D01*
Y31018D01*
X27820D01*
Y30995D01*
X27816D01*
Y30952D01*
X27812D01*
Y30922D01*
X27808D01*
Y30895D01*
X27805D01*
Y30849D01*
X27801D01*
Y30826D01*
X27797D01*
Y30780D01*
X27793D01*
Y30753D01*
X27789D01*
Y30723D01*
X27785D01*
Y30681D01*
X27782D01*
Y30658D01*
X27778D01*
Y30608D01*
X27774D01*
Y30585D01*
X27770D01*
Y30543D01*
X27766D01*
Y30512D01*
X27762D01*
Y30485D01*
X27759D01*
Y30440D01*
X27755D01*
Y30432D01*
X27740D01*
Y30436D01*
X27736D01*
Y30440D01*
X27728D01*
Y30443D01*
X27720D01*
Y30447D01*
X27713D01*
Y30451D01*
X27705D01*
Y30455D01*
X27701D01*
Y30459D01*
X27694D01*
Y30463D01*
X27686D01*
Y30466D01*
X27678D01*
Y30470D01*
X27674D01*
Y30474D01*
X27667D01*
Y30478D01*
X27659D01*
Y30482D01*
X27655D01*
Y30485D01*
X27644D01*
Y30489D01*
X27640D01*
Y30493D01*
X27632D01*
Y30497D01*
X27625D01*
Y30501D01*
X27621D01*
Y30505D01*
X27609D01*
Y30508D01*
X27606D01*
Y30512D01*
X27598D01*
Y30516D01*
X27590D01*
Y30520D01*
X27583D01*
Y30524D01*
X27575D01*
Y30528D01*
X27571D01*
Y30531D01*
X27563D01*
Y30535D01*
X27556D01*
Y30539D01*
X27548D01*
Y30543D01*
X27540D01*
Y30547D01*
X27537D01*
Y30551D01*
X27529D01*
Y30554D01*
X27521D01*
Y30558D01*
X27514D01*
Y30562D01*
X27510D01*
Y30566D01*
X27502D01*
Y30570D01*
X27495D01*
Y30573D01*
X27491D01*
Y30577D01*
X27479D01*
Y30581D01*
X27475D01*
Y30585D01*
X27468D01*
Y30616D01*
X27472D01*
Y30639D01*
X27475D01*
Y30684D01*
X27479D01*
Y30707D01*
X27483D01*
Y30753D01*
X27487D01*
Y30757D01*
Y30761D01*
Y30780D01*
X27491D01*
Y30811D01*
X27495D01*
Y30853D01*
X27498D01*
Y30880D01*
X27502D01*
Y30926D01*
X27506D01*
Y30949D01*
X27510D01*
Y30979D01*
X27514D01*
Y30983D01*
X27517D01*
Y30987D01*
X27521D01*
Y30991D01*
X27533D01*
Y30995D01*
X27537D01*
Y30998D01*
X27544D01*
Y31002D01*
X27552D01*
Y31006D01*
X27556D01*
Y31010D01*
X27563D01*
Y31014D01*
X27571D01*
Y31018D01*
X27579D01*
Y31021D01*
X27583D01*
Y31025D01*
X27590D01*
Y31029D01*
X27598D01*
Y31033D01*
X27606D01*
Y31037D01*
X27613D01*
Y31040D01*
X27617D01*
Y31044D01*
X27629D01*
Y31048D01*
X27632D01*
Y31052D01*
X27640D01*
Y31056D01*
X27648D01*
Y31060D01*
X27651D01*
Y31063D01*
X27663D01*
Y31067D01*
X27667D01*
Y31071D01*
X27674D01*
Y31075D01*
X27682D01*
Y31079D01*
X27686D01*
Y31083D01*
X27697D01*
Y31086D01*
X27701D01*
Y31090D01*
X27709D01*
Y31094D01*
X27717D01*
Y31098D01*
X27720D01*
Y31102D01*
X27728D01*
Y31106D01*
X27736D01*
Y31109D01*
X27743D01*
Y31113D01*
X27747D01*
Y31117D01*
X27755D01*
Y31121D01*
X27762D01*
Y31125D01*
X27770D01*
Y31129D01*
X27778D01*
Y31132D01*
X27782D01*
Y31136D01*
X27789D01*
Y31140D01*
X27797D01*
Y31144D01*
X27805D01*
Y31148D01*
X27812D01*
Y31151D01*
X27816D01*
Y31155D01*
X27824D01*
Y31159D01*
X27835D01*
Y31129D01*
D02*
G37*
G36*
X25297Y31186D02*
X25301D01*
Y31182D01*
X25309D01*
Y31178D01*
X25313D01*
Y31174D01*
X25324D01*
Y31171D01*
X25328D01*
Y31167D01*
X25336D01*
Y31163D01*
X25343D01*
Y31159D01*
X25347D01*
Y31155D01*
X25359D01*
Y31151D01*
X25363D01*
Y31148D01*
X25370D01*
Y31144D01*
X25378D01*
Y31140D01*
X25382D01*
Y31136D01*
X25393D01*
Y31132D01*
X25397D01*
Y31129D01*
X25405D01*
Y31125D01*
X25412D01*
Y31121D01*
X25420D01*
Y31117D01*
X25424D01*
Y31113D01*
X25431D01*
Y31109D01*
X25439D01*
Y31106D01*
X25443D01*
Y31102D01*
X25454D01*
Y31098D01*
X25458D01*
Y31094D01*
X25466D01*
Y31090D01*
X25474D01*
Y31086D01*
X25477D01*
Y31083D01*
X25489D01*
Y31079D01*
X25493D01*
Y31075D01*
X25500D01*
Y31071D01*
X25508D01*
Y31067D01*
X25512D01*
Y31063D01*
X25523D01*
Y31060D01*
X25527D01*
Y31056D01*
X25535D01*
Y31052D01*
X25542D01*
Y31048D01*
X25546D01*
Y31044D01*
X25558D01*
Y31040D01*
X25562D01*
Y31037D01*
X25569D01*
Y31033D01*
X25577D01*
Y31029D01*
X25581D01*
Y31025D01*
X25588D01*
Y31021D01*
X25592D01*
Y30524D01*
X25588D01*
Y30520D01*
X25585D01*
Y30516D01*
X25577D01*
Y30512D01*
X25569D01*
Y30508D01*
X25565D01*
Y30505D01*
X25554D01*
Y30501D01*
X25550D01*
Y30497D01*
X25542D01*
Y30493D01*
X25535D01*
Y30489D01*
X25531D01*
Y30485D01*
X25519D01*
Y30482D01*
X25516D01*
Y30478D01*
X25508D01*
Y30474D01*
X25500D01*
Y30470D01*
X25496D01*
Y30466D01*
X25485D01*
Y30463D01*
X25481D01*
Y30459D01*
X25474D01*
Y30455D01*
X25466D01*
Y30451D01*
X25462D01*
Y30447D01*
X25451D01*
Y30443D01*
X25447D01*
Y30440D01*
X25439D01*
Y30436D01*
X25435D01*
Y30432D01*
X25424D01*
Y30428D01*
X25420D01*
Y30424D01*
X25412D01*
Y30420D01*
X25405D01*
Y30417D01*
X25401D01*
Y30413D01*
X25389D01*
Y30409D01*
X25385D01*
Y30405D01*
X25378D01*
Y30401D01*
X25370D01*
Y30397D01*
X25366D01*
Y30394D01*
X25355D01*
Y30390D01*
X25351D01*
Y30386D01*
X25343D01*
Y30382D01*
X25336D01*
Y30378D01*
X25332D01*
Y30374D01*
X25320D01*
Y30371D01*
X25317D01*
Y30367D01*
X25309D01*
Y30363D01*
X25301D01*
Y30359D01*
X25297D01*
Y30355D01*
X25294D01*
Y30359D01*
X25290D01*
Y31186D01*
X25294D01*
Y31190D01*
X25297D01*
Y31186D01*
D02*
G37*
G36*
X27414Y30003D02*
X27418D01*
Y29999D01*
X27426D01*
Y29996D01*
X27429D01*
Y29992D01*
X27437D01*
Y29988D01*
X27445D01*
Y29984D01*
X27452D01*
Y29980D01*
X27460D01*
Y29976D01*
X27464D01*
Y29973D01*
X27475D01*
Y29969D01*
X27479D01*
Y29965D01*
X27487D01*
Y29961D01*
X27495D01*
Y29957D01*
X27498D01*
Y29953D01*
X27510D01*
Y29950D01*
X27514D01*
Y29946D01*
X27521D01*
Y29942D01*
X27529D01*
Y29938D01*
X27533D01*
Y29934D01*
X27544D01*
Y29930D01*
X27548D01*
Y29927D01*
X27556D01*
Y29923D01*
X27563D01*
Y29919D01*
X27567D01*
Y29915D01*
X27575D01*
Y29911D01*
X27583D01*
Y29907D01*
X27590D01*
Y29904D01*
X27594D01*
Y29900D01*
X27602D01*
Y29896D01*
X27609D01*
Y29892D01*
X27617D01*
Y29888D01*
X27625D01*
Y29885D01*
X27629D01*
Y29881D01*
X27640D01*
Y29877D01*
X27644D01*
Y29873D01*
X27651D01*
Y29869D01*
X27659D01*
Y29865D01*
X27663D01*
Y29862D01*
X27674D01*
Y29858D01*
X27678D01*
Y29854D01*
X27686D01*
Y29850D01*
X27690D01*
Y29839D01*
X27686D01*
Y29793D01*
X27682D01*
Y29770D01*
X27678D01*
Y29728D01*
X27674D01*
Y29693D01*
X27671D01*
Y29666D01*
X27667D01*
Y29624D01*
X27663D01*
Y29597D01*
X27659D01*
Y29555D01*
X27655D01*
Y29529D01*
X27651D01*
Y29494D01*
X27648D01*
Y29456D01*
X27644D01*
Y29429D01*
X27640D01*
Y29383D01*
X27636D01*
Y29360D01*
X27632D01*
Y29318D01*
X27629D01*
Y29287D01*
X27625D01*
Y29257D01*
X27621D01*
Y29215D01*
X27617D01*
Y29192D01*
X27613D01*
Y29146D01*
X27609D01*
Y29119D01*
X27606D01*
Y29085D01*
X27602D01*
Y29046D01*
X27598D01*
Y29019D01*
X27594D01*
Y28974D01*
X27590D01*
Y28951D01*
X27586D01*
Y28908D01*
X27583D01*
Y28878D01*
X27579D01*
Y28851D01*
X27575D01*
Y28805D01*
X27571D01*
Y28782D01*
X27567D01*
Y28736D01*
X27563D01*
Y28709D01*
X27560D01*
Y28675D01*
X27556D01*
Y28637D01*
X27552D01*
Y28610D01*
X27548D01*
Y28591D01*
X25944D01*
Y28587D01*
X25941D01*
Y28579D01*
X25937D01*
Y28575D01*
X25933D01*
Y28568D01*
X25929D01*
Y28560D01*
X25925D01*
Y28556D01*
X25921D01*
Y28549D01*
X25918D01*
Y28541D01*
X25914D01*
Y28533D01*
X25910D01*
Y28530D01*
X25906D01*
Y28526D01*
X25902D01*
Y28522D01*
X25898D01*
Y28514D01*
X25895D01*
Y28510D01*
X25891D01*
Y28507D01*
X25887D01*
Y28499D01*
X25883D01*
Y28495D01*
X25879D01*
Y28491D01*
X25875D01*
Y28487D01*
X25872D01*
Y28484D01*
X25868D01*
Y28476D01*
X25864D01*
Y28472D01*
X25860D01*
Y28468D01*
X25856D01*
Y28464D01*
X25849D01*
Y28457D01*
X25841D01*
Y28449D01*
X25833D01*
Y28445D01*
X25830D01*
Y28442D01*
X25826D01*
Y28438D01*
X25822D01*
Y28434D01*
X25818D01*
Y28430D01*
X25814D01*
Y28426D01*
X25807D01*
Y28422D01*
X25803D01*
Y28419D01*
X25795D01*
Y28415D01*
X25791D01*
Y28411D01*
X25787D01*
Y28407D01*
X25784D01*
Y28403D01*
X25776D01*
Y28399D01*
X25772D01*
Y28396D01*
X25764D01*
Y28392D01*
X25757D01*
Y28388D01*
X25753D01*
Y28384D01*
X25745D01*
Y28380D01*
X25738D01*
Y28376D01*
X25730D01*
Y28373D01*
X25722D01*
Y28369D01*
X25719D01*
Y28365D01*
X25707D01*
Y28361D01*
X25699D01*
Y28357D01*
X25688D01*
Y28353D01*
X25676D01*
Y28350D01*
X25669D01*
Y28346D01*
X25657D01*
Y28342D01*
X25650D01*
Y28338D01*
X25630D01*
Y28334D01*
X25615D01*
Y28331D01*
X25600D01*
Y28327D01*
X25573D01*
Y28323D01*
X25562D01*
Y28319D01*
X25447D01*
Y28323D01*
X25439D01*
Y28327D01*
X25408D01*
Y28331D01*
X25393D01*
Y28334D01*
X25382D01*
Y28338D01*
X25363D01*
Y28342D01*
X25355D01*
Y28346D01*
X25340D01*
Y28350D01*
X25332D01*
Y28353D01*
X25324D01*
Y28357D01*
X25313D01*
Y28361D01*
X25305D01*
Y28365D01*
X25294D01*
Y28369D01*
X25290D01*
Y28373D01*
X25278D01*
Y28376D01*
X25275D01*
Y28380D01*
X25267D01*
Y28384D01*
X25259D01*
Y28388D01*
X25255D01*
Y28392D01*
X25248D01*
Y28396D01*
X25240D01*
Y28399D01*
X25236D01*
Y28403D01*
X25229D01*
Y28407D01*
X25225D01*
Y28411D01*
X25221D01*
Y28415D01*
X25217D01*
Y28419D01*
X25209D01*
Y28422D01*
X25206D01*
Y28426D01*
X25202D01*
Y28430D01*
X25198D01*
Y28434D01*
X25194D01*
Y28438D01*
X25186D01*
Y28442D01*
X25183D01*
Y28445D01*
X25179D01*
Y28449D01*
X25175D01*
Y28453D01*
X25171D01*
Y28457D01*
X25164D01*
Y28461D01*
X25160D01*
Y28464D01*
X25156D01*
Y28468D01*
X25152D01*
Y28476D01*
X25148D01*
Y28480D01*
X25144D01*
Y28484D01*
X25141D01*
Y28487D01*
X25137D01*
Y28495D01*
X25133D01*
Y28499D01*
X25129D01*
Y28503D01*
X25125D01*
Y28507D01*
X25121D01*
Y28510D01*
X25118D01*
Y28518D01*
X25114D01*
Y28522D01*
X25110D01*
Y28526D01*
X25106D01*
Y28530D01*
X25102D01*
Y28533D01*
X25098D01*
Y28541D01*
X25095D01*
Y28549D01*
X25091D01*
Y28552D01*
X25087D01*
Y28560D01*
X25083D01*
Y28568D01*
X25079D01*
Y28575D01*
X25075D01*
Y28579D01*
X25072D01*
Y28587D01*
X25068D01*
Y28598D01*
X25064D01*
Y28602D01*
X25060D01*
Y28614D01*
X25056D01*
Y28621D01*
X25052D01*
Y28633D01*
X25049D01*
Y28641D01*
X25045D01*
Y28652D01*
X25041D01*
Y28664D01*
X25037D01*
Y28675D01*
X25033D01*
Y28694D01*
X25030D01*
Y28706D01*
X25026D01*
Y28729D01*
X25022D01*
Y28759D01*
X25018D01*
Y28843D01*
X25022D01*
Y28889D01*
X25026D01*
Y28905D01*
X25030D01*
Y28920D01*
X25033D01*
Y28943D01*
X25037D01*
Y28951D01*
X25041D01*
Y28966D01*
X25045D01*
Y28974D01*
X25049D01*
Y28981D01*
X25052D01*
Y28997D01*
X25056D01*
Y29000D01*
X25060D01*
Y29016D01*
X25064D01*
Y29019D01*
X25068D01*
Y29027D01*
X25072D01*
Y29035D01*
X25075D01*
Y29039D01*
X25079D01*
Y29050D01*
X25083D01*
Y29054D01*
X25087D01*
Y29062D01*
X25091D01*
Y29069D01*
X25095D01*
Y29073D01*
X25098D01*
Y29081D01*
X25102D01*
Y29085D01*
X25106D01*
Y29092D01*
X25110D01*
Y29096D01*
X25114D01*
Y29100D01*
X25118D01*
Y29108D01*
X25121D01*
Y29111D01*
X25125D01*
Y29115D01*
X25129D01*
Y29119D01*
X25133D01*
Y29127D01*
X25137D01*
Y29130D01*
X25141D01*
Y29134D01*
X25144D01*
Y29138D01*
X25148D01*
Y29142D01*
X25152D01*
Y29146D01*
X25156D01*
Y29150D01*
X25160D01*
Y29153D01*
X25164D01*
Y29157D01*
X25167D01*
Y29161D01*
X25171D01*
Y29165D01*
X25175D01*
Y29169D01*
X25179D01*
Y29173D01*
X25183D01*
Y29176D01*
X25186D01*
Y29180D01*
X25194D01*
Y29184D01*
X25198D01*
Y29188D01*
X25202D01*
Y29192D01*
X25206D01*
Y29196D01*
X25209D01*
Y29199D01*
X25217D01*
Y29203D01*
X25221D01*
Y29207D01*
X25225D01*
Y29211D01*
X25232D01*
Y29215D01*
X25236D01*
Y29219D01*
X25244D01*
Y29222D01*
X25252D01*
Y29226D01*
X25259D01*
Y29230D01*
X25263D01*
Y29234D01*
X25271D01*
Y29238D01*
X25278D01*
Y29241D01*
X25282D01*
Y29245D01*
X25290D01*
Y29739D01*
X25294D01*
Y29743D01*
X25297D01*
Y29747D01*
X25301D01*
Y29751D01*
X25313D01*
Y29754D01*
X25317D01*
Y29758D01*
X25324D01*
Y29762D01*
X25332D01*
Y29766D01*
X25336D01*
Y29770D01*
X25347D01*
Y29774D01*
X25351D01*
Y29777D01*
X25359D01*
Y29781D01*
X25366D01*
Y29785D01*
X25370D01*
Y29789D01*
X25382D01*
Y29793D01*
X25385D01*
Y29796D01*
X25393D01*
Y29800D01*
X25401D01*
Y29804D01*
X25405D01*
Y29808D01*
X25412D01*
Y29812D01*
X25420D01*
Y29816D01*
X25428D01*
Y29819D01*
X25431D01*
Y29823D01*
X25443D01*
Y29827D01*
X25447D01*
Y29831D01*
X25454D01*
Y29835D01*
X25462D01*
Y29839D01*
X25466D01*
Y29842D01*
X25477D01*
Y29846D01*
X25481D01*
Y29850D01*
X25489D01*
Y29854D01*
X25496D01*
Y29858D01*
X25500D01*
Y29862D01*
X25512D01*
Y29865D01*
X25516D01*
Y29869D01*
X25523D01*
Y29873D01*
X25531D01*
Y29877D01*
X25535D01*
Y29881D01*
X25542D01*
Y29885D01*
X25550D01*
Y29888D01*
X25558D01*
Y29892D01*
X25562D01*
Y29896D01*
X25569D01*
Y29900D01*
X25577D01*
Y29904D01*
X25581D01*
Y29907D01*
X25592D01*
Y29295D01*
X25596D01*
Y29291D01*
X25600D01*
Y29287D01*
X25608D01*
Y29284D01*
X25627D01*
Y29280D01*
X25638D01*
Y29276D01*
X25653D01*
Y29272D01*
X25669D01*
Y29268D01*
X25676D01*
Y29264D01*
X25688D01*
Y29261D01*
X25692D01*
Y29257D01*
X25703D01*
Y29253D01*
X25711D01*
Y29249D01*
X25719D01*
Y29245D01*
X25730D01*
Y29241D01*
X25734D01*
Y29238D01*
X25745D01*
Y29234D01*
X25749D01*
Y29230D01*
X25753D01*
Y29226D01*
X25761D01*
Y29222D01*
X25764D01*
Y29219D01*
X25776D01*
Y29215D01*
X25780D01*
Y29211D01*
X25787D01*
Y29207D01*
X25791D01*
Y29203D01*
X25795D01*
Y29199D01*
X25803D01*
Y29196D01*
X25807D01*
Y29192D01*
X25810D01*
Y29188D01*
X25814D01*
Y29184D01*
X25818D01*
Y29180D01*
X25826D01*
Y29176D01*
X25830D01*
Y29173D01*
X25833D01*
Y29169D01*
X25837D01*
Y29165D01*
X25841D01*
Y29161D01*
X25845D01*
Y29157D01*
X25849D01*
Y29153D01*
X25856D01*
Y29146D01*
X25860D01*
Y29142D01*
X25864D01*
Y29138D01*
X25868D01*
Y29134D01*
X25872D01*
Y29130D01*
X25875D01*
Y29127D01*
X25879D01*
Y29119D01*
X25883D01*
Y29115D01*
X25887D01*
Y29111D01*
X25891D01*
Y29108D01*
X25895D01*
Y29104D01*
X25898D01*
Y29096D01*
X25902D01*
Y29092D01*
X25906D01*
Y29085D01*
X25910D01*
Y29081D01*
X25914D01*
Y29073D01*
X25918D01*
Y29069D01*
X25921D01*
Y29062D01*
X25925D01*
Y29054D01*
X25929D01*
Y29050D01*
X25933D01*
Y29042D01*
X25937D01*
Y29039D01*
X25941D01*
Y29027D01*
X25944D01*
Y29019D01*
X25948D01*
Y29012D01*
X25952D01*
Y29000D01*
X25956D01*
Y28997D01*
X25960D01*
Y28981D01*
X25963D01*
Y28977D01*
X25967D01*
Y28966D01*
X25971D01*
Y28951D01*
X25975D01*
Y28939D01*
X25979D01*
Y28920D01*
X25983D01*
Y28908D01*
X25986D01*
Y28897D01*
X25990D01*
Y28893D01*
X27273D01*
Y28897D01*
X27276D01*
Y28905D01*
X27280D01*
Y28939D01*
X27284D01*
Y28977D01*
X27288D01*
Y29000D01*
X27292D01*
Y29050D01*
X27295D01*
Y29073D01*
X27299D01*
Y29115D01*
X27303D01*
Y29146D01*
X27307D01*
Y29176D01*
X27311D01*
Y29219D01*
X27315D01*
Y29241D01*
X27318D01*
Y29287D01*
X27322D01*
Y29314D01*
X27326D01*
Y29349D01*
X27330D01*
Y29387D01*
X27334D01*
Y29414D01*
X27338D01*
Y29460D01*
X27341D01*
Y29483D01*
X27345D01*
Y29525D01*
X27349D01*
Y29555D01*
X27353D01*
Y29586D01*
X27357D01*
Y29628D01*
X27361D01*
Y29651D01*
X27364D01*
Y29697D01*
X27368D01*
Y29724D01*
X27372D01*
Y29762D01*
X27376D01*
Y29796D01*
X27380D01*
Y29823D01*
X27384D01*
Y29869D01*
X27387D01*
Y29892D01*
X27391D01*
Y29934D01*
X27395D01*
Y29965D01*
X27399D01*
Y29999D01*
X27403D01*
Y30007D01*
X27414D01*
Y30003D01*
D02*
G37*
G36*
X15389Y31124D02*
X15445D01*
Y31106D01*
X15500D01*
Y31087D01*
X15537D01*
Y31069D01*
X15574D01*
Y31050D01*
X15611D01*
Y31032D01*
X15648D01*
Y31013D01*
X15685D01*
Y30995D01*
X15704D01*
Y30958D01*
X15722D01*
Y30939D01*
X15741D01*
Y30921D01*
X15759D01*
Y30884D01*
X15778D01*
Y30847D01*
X15796D01*
Y30810D01*
X15815D01*
Y30791D01*
X15833D01*
Y30736D01*
X15852D01*
Y30717D01*
X15870D01*
Y30680D01*
X15889D01*
Y30662D01*
X15907D01*
Y30643D01*
X15926D01*
Y30606D01*
X15944D01*
Y30588D01*
X15963D01*
Y30569D01*
X15981D01*
Y30532D01*
X16000D01*
Y30514D01*
X16018D01*
Y30495D01*
X16037D01*
Y30477D01*
X16074D01*
Y30458D01*
X16092D01*
Y30440D01*
X16111D01*
Y30421D01*
X16129D01*
Y30403D01*
X16148D01*
Y30384D01*
X16185D01*
Y30366D01*
X16203D01*
Y30347D01*
X16222D01*
Y30329D01*
X16240D01*
Y30310D01*
X16259D01*
Y30292D01*
X16296D01*
Y30273D01*
X16314D01*
Y30255D01*
X16333D01*
Y30236D01*
X16351D01*
Y30218D01*
X16370D01*
Y30199D01*
X16388D01*
Y30162D01*
X16407D01*
Y30144D01*
X16388D01*
Y30125D01*
X16351D01*
Y30107D01*
X16333D01*
Y30088D01*
X16296D01*
Y30070D01*
X16259D01*
Y30051D01*
X16240D01*
Y30033D01*
X16185D01*
Y30014D01*
X16166D01*
Y29996D01*
X16129D01*
Y29977D01*
X16092D01*
Y29959D01*
X16074D01*
Y29940D01*
X16037D01*
Y29922D01*
X16000D01*
Y29903D01*
X15963D01*
Y29885D01*
X15944D01*
Y29866D01*
X15907D01*
Y29848D01*
X15870D01*
Y29829D01*
X15852D01*
Y29811D01*
X15815D01*
Y29792D01*
X15778D01*
Y29774D01*
X15741D01*
Y29755D01*
X15722D01*
Y29737D01*
X15685D01*
Y29718D01*
X15648D01*
Y29700D01*
X15630D01*
Y29681D01*
X15593D01*
Y29663D01*
X15556D01*
Y29644D01*
X15519D01*
Y29626D01*
X15482D01*
Y29607D01*
X15463D01*
Y29589D01*
X15426D01*
Y29570D01*
X15389D01*
Y29552D01*
X15352D01*
Y29533D01*
X15334D01*
Y29515D01*
X15297D01*
Y29496D01*
X15260D01*
Y29478D01*
X15241D01*
Y29459D01*
X15204D01*
Y29441D01*
X15167D01*
Y29422D01*
X15130D01*
Y29404D01*
X15093D01*
Y29385D01*
X15075D01*
Y29367D01*
X15038D01*
Y29348D01*
X15019D01*
Y29330D01*
X14982D01*
Y29311D01*
X14945D01*
Y29293D01*
X14908D01*
Y29274D01*
X14871D01*
Y29256D01*
X14853D01*
Y29237D01*
X14816D01*
Y29219D01*
X14779D01*
Y29200D01*
X14760D01*
Y29182D01*
X14723D01*
Y29163D01*
X14686D01*
Y29145D01*
X14649D01*
Y29126D01*
X14631D01*
Y29108D01*
X14594D01*
Y29089D01*
X14557D01*
Y29071D01*
X14538D01*
Y29052D01*
X14501D01*
Y29034D01*
X14464D01*
Y29015D01*
X14427D01*
Y28997D01*
X14409D01*
Y28978D01*
X14372D01*
Y28960D01*
X14335D01*
Y28941D01*
X14316D01*
Y28923D01*
X14261D01*
Y28904D01*
X14242D01*
Y28886D01*
X14205D01*
Y28867D01*
X14168D01*
Y28849D01*
X14150D01*
Y28830D01*
X14113D01*
Y28812D01*
X14076D01*
Y28793D01*
X14039D01*
Y28775D01*
X14020D01*
Y28756D01*
X13983D01*
Y28738D01*
X13965D01*
Y28719D01*
X13928D01*
Y28775D01*
X13946D01*
Y28793D01*
X13965D01*
Y28830D01*
X13983D01*
Y28867D01*
X14002D01*
Y28886D01*
X14020D01*
Y28923D01*
X14039D01*
Y28960D01*
X14057D01*
Y28997D01*
X14076D01*
Y29015D01*
X14094D01*
Y29052D01*
X14113D01*
Y29089D01*
X14131D01*
Y29108D01*
X14150D01*
Y29145D01*
X14168D01*
Y29182D01*
X14187D01*
Y29219D01*
X14205D01*
Y29237D01*
X14224D01*
Y29274D01*
X14242D01*
Y29311D01*
X14261D01*
Y29330D01*
X14279D01*
Y29367D01*
X14298D01*
Y29404D01*
X14316D01*
Y29441D01*
X14335D01*
Y29459D01*
X14353D01*
Y29496D01*
X14372D01*
Y29533D01*
X14390D01*
Y29552D01*
X14409D01*
Y29589D01*
X14427D01*
Y29626D01*
X14446D01*
Y29644D01*
X14464D01*
Y29681D01*
X14483D01*
Y29718D01*
X14501D01*
Y29755D01*
X14520D01*
Y29774D01*
X14538D01*
Y29811D01*
X14557D01*
Y29848D01*
X14575D01*
Y29866D01*
X14594D01*
Y29903D01*
X14612D01*
Y29940D01*
X14631D01*
Y29977D01*
X14649D01*
Y29996D01*
X14668D01*
Y30033D01*
X14686D01*
Y30070D01*
X14705D01*
Y30088D01*
X14723D01*
Y30125D01*
X14742D01*
Y30162D01*
X14760D01*
Y30199D01*
X14779D01*
Y30218D01*
X14797D01*
Y30255D01*
X14816D01*
Y30292D01*
X14834D01*
Y30310D01*
X14853D01*
Y30347D01*
X14871D01*
Y30384D01*
X14890D01*
Y30403D01*
X14908D01*
Y30440D01*
X14927D01*
Y30477D01*
X14945D01*
Y30514D01*
X14964D01*
Y30532D01*
X14982D01*
Y30569D01*
X15001D01*
Y30606D01*
X15019D01*
Y30625D01*
X15038D01*
Y30662D01*
X15056D01*
Y30699D01*
X15075D01*
Y30736D01*
X15093D01*
Y30754D01*
X15112D01*
Y30791D01*
X15130D01*
Y30828D01*
X15149D01*
Y30847D01*
X15167D01*
Y30884D01*
X15186D01*
Y30921D01*
X15204D01*
Y30958D01*
X15223D01*
Y30976D01*
X15241D01*
Y31013D01*
X15260D01*
Y31050D01*
X15278D01*
Y31069D01*
X15297D01*
Y31106D01*
X15315D01*
Y31124D01*
X15334D01*
Y31143D01*
X15389D01*
Y31124D01*
D02*
G37*
G36*
X19237Y31069D02*
X19256D01*
Y31032D01*
X19274D01*
Y31013D01*
X19293D01*
Y30976D01*
X19311D01*
Y30939D01*
X19330D01*
Y30902D01*
X19348D01*
Y30865D01*
X19367D01*
Y30847D01*
X19385D01*
Y30810D01*
X19404D01*
Y30791D01*
X19422D01*
Y30754D01*
X19441D01*
Y30717D01*
X19459D01*
Y30680D01*
X19478D01*
Y30643D01*
X19496D01*
Y30625D01*
X19515D01*
Y30588D01*
X19533D01*
Y30551D01*
X19552D01*
Y30532D01*
X19570D01*
Y30495D01*
X19589D01*
Y30458D01*
X19607D01*
Y30421D01*
X19626D01*
Y30403D01*
X19644D01*
Y30366D01*
X19663D01*
Y30329D01*
X19681D01*
Y30310D01*
X19700D01*
Y30273D01*
X19718D01*
Y30236D01*
X19737D01*
Y30199D01*
X19755D01*
Y30181D01*
X19774D01*
Y30144D01*
X19792D01*
Y30107D01*
X19811D01*
Y30088D01*
X19829D01*
Y30051D01*
X19848D01*
Y30014D01*
X19866D01*
Y29977D01*
X19885D01*
Y29959D01*
X19903D01*
Y29922D01*
X19922D01*
Y29885D01*
X19940D01*
Y29866D01*
X19959D01*
Y29829D01*
X19977D01*
Y29792D01*
X19996D01*
Y29774D01*
X20014D01*
Y29737D01*
X20033D01*
Y29700D01*
X20051D01*
Y29663D01*
X20070D01*
Y29644D01*
X20088D01*
Y29607D01*
X20107D01*
Y29570D01*
X20125D01*
Y29552D01*
X20144D01*
Y29515D01*
X20162D01*
Y29478D01*
X20181D01*
Y29441D01*
X20199D01*
Y29422D01*
X20218D01*
Y29385D01*
X20236D01*
Y29348D01*
X20255D01*
Y29330D01*
X20273D01*
Y29293D01*
X20292D01*
Y29256D01*
X20310D01*
Y29219D01*
X20329D01*
Y29200D01*
X20347D01*
Y29163D01*
X20366D01*
Y29126D01*
X20384D01*
Y29108D01*
X20403D01*
Y29071D01*
X20421D01*
Y29034D01*
X20440D01*
Y28997D01*
X20458D01*
Y28978D01*
X20477D01*
Y28941D01*
X20495D01*
Y28904D01*
X20514D01*
Y28886D01*
X20532D01*
Y28849D01*
X20551D01*
Y28812D01*
X20569D01*
Y28775D01*
X20588D01*
Y28738D01*
X20606D01*
Y28719D01*
X20625D01*
Y28682D01*
X20643D01*
Y28664D01*
X20662D01*
Y28627D01*
X20680D01*
Y28589D01*
X20699D01*
Y28552D01*
X20717D01*
Y28516D01*
X20736D01*
Y28497D01*
X20754D01*
Y28460D01*
X20773D01*
Y28423D01*
X20791D01*
Y28405D01*
X20810D01*
Y28368D01*
X20828D01*
Y28349D01*
X20847D01*
Y28275D01*
X14316D01*
Y28312D01*
X14335D01*
Y28331D01*
X14372D01*
Y28349D01*
X14409D01*
Y28368D01*
X14446D01*
Y28386D01*
X14483D01*
Y28405D01*
X14501D01*
Y28423D01*
X14538D01*
Y28442D01*
X14575D01*
Y28460D01*
X14594D01*
Y28479D01*
X14631D01*
Y28497D01*
X14668D01*
Y28516D01*
X14705D01*
Y28534D01*
X14723D01*
Y28552D01*
X14760D01*
Y28571D01*
X14797D01*
Y28589D01*
X14816D01*
Y28608D01*
X14871D01*
Y28627D01*
X14890D01*
Y28645D01*
X14927D01*
Y28664D01*
X14964D01*
Y28682D01*
X14982D01*
Y28701D01*
X15019D01*
Y28719D01*
X15056D01*
Y28738D01*
X15093D01*
Y28756D01*
X15112D01*
Y28775D01*
X15149D01*
Y28793D01*
X15186D01*
Y28812D01*
X15204D01*
Y28830D01*
X15241D01*
Y28849D01*
X15278D01*
Y28867D01*
X15315D01*
Y28886D01*
X15334D01*
Y28904D01*
X15371D01*
Y28923D01*
X15408D01*
Y28941D01*
X15426D01*
Y28960D01*
X15463D01*
Y28978D01*
X15500D01*
Y28997D01*
X15537D01*
Y29015D01*
X15574D01*
Y29034D01*
X15593D01*
Y29052D01*
X15630D01*
Y29071D01*
X15667D01*
Y29089D01*
X15685D01*
Y29108D01*
X15722D01*
Y29126D01*
X15759D01*
Y29145D01*
X15796D01*
Y29163D01*
X15815D01*
Y29182D01*
X15852D01*
Y29200D01*
X15889D01*
Y29219D01*
X15907D01*
Y29237D01*
X15944D01*
Y29256D01*
X15981D01*
Y29274D01*
X16018D01*
Y29293D01*
X16037D01*
Y29311D01*
X16074D01*
Y29330D01*
X16111D01*
Y29348D01*
X16148D01*
Y29367D01*
X16185D01*
Y29385D01*
X16203D01*
Y29404D01*
X16240D01*
Y29422D01*
X16277D01*
Y29441D01*
X16296D01*
Y29459D01*
X16333D01*
Y29478D01*
X16370D01*
Y29496D01*
X16407D01*
Y29515D01*
X16425D01*
Y29533D01*
X16462D01*
Y29552D01*
X16499D01*
Y29570D01*
X16518D01*
Y29589D01*
X16555D01*
Y29607D01*
X16592D01*
Y29626D01*
X16629D01*
Y29644D01*
X16666D01*
Y29663D01*
X16684D01*
Y29681D01*
X16721D01*
Y29700D01*
X16758D01*
Y29718D01*
X16795D01*
Y29737D01*
X16814D01*
Y29755D01*
X16851D01*
Y29774D01*
X16869D01*
Y29792D01*
X16925D01*
Y29774D01*
X16943D01*
Y29755D01*
X16962D01*
Y29737D01*
X16980D01*
Y29718D01*
X16999D01*
Y29700D01*
X17017D01*
Y29681D01*
X17036D01*
Y29663D01*
X17054D01*
Y29644D01*
X17073D01*
Y29626D01*
X17091D01*
Y29607D01*
X17110D01*
Y29589D01*
X17128D01*
Y29570D01*
X17147D01*
Y29552D01*
X17165D01*
Y29533D01*
X17202D01*
Y29496D01*
X17221D01*
Y29478D01*
X17239D01*
Y29459D01*
X17258D01*
Y29441D01*
X17276D01*
Y29422D01*
X17295D01*
Y29404D01*
X17313D01*
Y29385D01*
X17332D01*
Y29367D01*
X17350D01*
Y29348D01*
X17369D01*
Y29330D01*
X17387D01*
Y29293D01*
X17406D01*
Y29274D01*
X17424D01*
Y29237D01*
X17443D01*
Y29200D01*
X17461D01*
Y29182D01*
X17480D01*
Y29126D01*
X17535D01*
Y29145D01*
X17554D01*
Y29163D01*
X17572D01*
Y29200D01*
X17609D01*
Y29219D01*
X17628D01*
Y29237D01*
X17665D01*
Y29256D01*
X17702D01*
Y29274D01*
X17905D01*
Y29256D01*
X17942D01*
Y29237D01*
X17979D01*
Y29219D01*
X17998D01*
Y29200D01*
X18016D01*
Y29182D01*
X18035D01*
Y29163D01*
X18053D01*
Y29108D01*
X18072D01*
Y29071D01*
X18090D01*
Y29015D01*
X18109D01*
Y28960D01*
X18127D01*
Y28904D01*
X18183D01*
Y29126D01*
X18164D01*
Y29219D01*
X18146D01*
Y29311D01*
X18127D01*
Y29348D01*
X18109D01*
Y29385D01*
X18090D01*
Y29441D01*
X18072D01*
Y29478D01*
X18053D01*
Y29515D01*
X18035D01*
Y29552D01*
X18016D01*
Y29589D01*
X17998D01*
Y29626D01*
X17979D01*
Y29663D01*
X17961D01*
Y29681D01*
X17942D01*
Y29700D01*
X17924D01*
Y29737D01*
X17905D01*
Y29755D01*
X17887D01*
Y29774D01*
X17868D01*
Y29792D01*
X17850D01*
Y29811D01*
X17831D01*
Y29829D01*
X17813D01*
Y29848D01*
X17776D01*
Y29866D01*
X17757D01*
Y29885D01*
X17739D01*
Y29903D01*
X17702D01*
Y29922D01*
X17683D01*
Y29940D01*
X17665D01*
Y29959D01*
X17646D01*
Y29977D01*
X17628D01*
Y29996D01*
X17609D01*
Y30014D01*
X17591D01*
Y30033D01*
X17572D01*
Y30051D01*
X17554D01*
Y30070D01*
X17535D01*
Y30088D01*
X17517D01*
Y30162D01*
X17554D01*
Y30181D01*
X17591D01*
Y30199D01*
X17609D01*
Y30218D01*
X17646D01*
Y30236D01*
X17683D01*
Y30255D01*
X17720D01*
Y30273D01*
X17739D01*
Y30292D01*
X17776D01*
Y30310D01*
X17813D01*
Y30292D01*
X17831D01*
Y30273D01*
X17850D01*
Y30255D01*
X17868D01*
Y30218D01*
X17887D01*
Y30181D01*
X17905D01*
Y30144D01*
X17887D01*
Y30088D01*
X17868D01*
Y30070D01*
X17850D01*
Y29996D01*
X17924D01*
Y30014D01*
X17942D01*
Y30033D01*
X17961D01*
Y30051D01*
X17979D01*
Y30107D01*
X17998D01*
Y30144D01*
X17979D01*
Y30181D01*
X17961D01*
Y30218D01*
X17942D01*
Y30255D01*
X17924D01*
Y30273D01*
X17905D01*
Y30292D01*
X17887D01*
Y30366D01*
X17905D01*
Y30384D01*
X17979D01*
Y30366D01*
X17998D01*
Y30329D01*
X18016D01*
Y30310D01*
X18035D01*
Y30273D01*
X18053D01*
Y30218D01*
X18072D01*
Y30162D01*
X18090D01*
Y29959D01*
X18072D01*
Y29940D01*
X18053D01*
Y29903D01*
X18035D01*
Y29885D01*
X18016D01*
Y29811D01*
X18035D01*
Y29792D01*
X18090D01*
Y29811D01*
X18109D01*
Y29848D01*
X18127D01*
Y29866D01*
X18146D01*
Y29903D01*
X18164D01*
Y29922D01*
X18183D01*
Y30107D01*
X18164D01*
Y30162D01*
X18146D01*
Y30236D01*
X18127D01*
Y30273D01*
X18109D01*
Y30310D01*
X18090D01*
Y30347D01*
X18072D01*
Y30366D01*
X18053D01*
Y30403D01*
X18035D01*
Y30458D01*
X18072D01*
Y30477D01*
X18146D01*
Y30458D01*
X18164D01*
Y30440D01*
X18183D01*
Y30421D01*
X18201D01*
Y30403D01*
X18238D01*
Y30440D01*
X18220D01*
Y30477D01*
X18201D01*
Y30551D01*
X18220D01*
Y30569D01*
X18257D01*
Y30588D01*
X18275D01*
Y30606D01*
X18349D01*
Y30588D01*
X18368D01*
Y30551D01*
X18386D01*
Y30514D01*
X18405D01*
Y30477D01*
X18423D01*
Y30458D01*
X18442D01*
Y30421D01*
X18460D01*
Y30403D01*
X18479D01*
Y30384D01*
X18497D01*
Y30347D01*
X18516D01*
Y30329D01*
X18534D01*
Y30310D01*
X18553D01*
Y30292D01*
X18571D01*
Y30273D01*
X18590D01*
Y30255D01*
X18608D01*
Y30236D01*
X18627D01*
Y30181D01*
X18608D01*
Y30162D01*
X18590D01*
Y30107D01*
X18571D01*
Y30051D01*
X18553D01*
Y29996D01*
X18534D01*
Y29922D01*
X18516D01*
Y29792D01*
X18534D01*
Y29737D01*
X18553D01*
Y29700D01*
X18571D01*
Y29681D01*
X18590D01*
Y29589D01*
X18571D01*
Y29552D01*
X18553D01*
Y29533D01*
X18534D01*
Y29496D01*
X18516D01*
Y29459D01*
X18497D01*
Y29422D01*
X18479D01*
Y29404D01*
X18460D01*
Y29348D01*
X18442D01*
Y29274D01*
X18423D01*
Y29219D01*
X18405D01*
Y29034D01*
X18386D01*
Y28978D01*
X18405D01*
Y28830D01*
X18423D01*
Y28793D01*
X18442D01*
Y28756D01*
X18460D01*
Y28738D01*
X18479D01*
Y28719D01*
X18497D01*
Y28701D01*
X18516D01*
Y28682D01*
X18534D01*
Y28664D01*
X18553D01*
Y28645D01*
X18590D01*
Y28664D01*
X18608D01*
Y28793D01*
X18627D01*
Y28923D01*
X18645D01*
Y28997D01*
X18664D01*
Y29052D01*
X18682D01*
Y29089D01*
X18701D01*
Y29126D01*
X18719D01*
Y29145D01*
X18738D01*
Y29163D01*
X18756D01*
Y29182D01*
X18830D01*
Y29200D01*
X18941D01*
Y29256D01*
X18960D01*
Y29293D01*
X18978D01*
Y29330D01*
X18997D01*
Y29385D01*
X19015D01*
Y29422D01*
X19034D01*
Y29496D01*
X19052D01*
Y29552D01*
X19071D01*
Y29626D01*
X19089D01*
Y29700D01*
X19108D01*
Y29774D01*
X19126D01*
Y29848D01*
X19145D01*
Y29922D01*
X19163D01*
Y30014D01*
X19182D01*
Y30125D01*
X19200D01*
Y30347D01*
X19182D01*
Y30403D01*
X19163D01*
Y30458D01*
X19145D01*
Y30477D01*
X19126D01*
Y30514D01*
X19108D01*
Y30551D01*
X19089D01*
Y30588D01*
X19071D01*
Y30625D01*
X19052D01*
Y30643D01*
X19034D01*
Y30699D01*
X19015D01*
Y30717D01*
X18997D01*
Y30773D01*
X18978D01*
Y30810D01*
X18960D01*
Y30847D01*
X18941D01*
Y30902D01*
X18923D01*
Y30958D01*
X18941D01*
Y30976D01*
X18960D01*
Y30995D01*
X18997D01*
Y31013D01*
X19034D01*
Y31032D01*
X19052D01*
Y31050D01*
X19089D01*
Y31069D01*
X19126D01*
Y31087D01*
X19145D01*
Y31106D01*
X19237D01*
Y31069D01*
D02*
G37*
G36*
X32532Y32403D02*
X32686Y32249D01*
X32850Y31961D01*
X32973Y31756D01*
X33138Y31468D01*
X33240Y31284D01*
X33281Y31243D01*
X33322Y31140D01*
X33384Y31078D01*
X33405Y30996D01*
X33466Y30934D01*
X33487Y30893D01*
X33528Y30791D01*
X33589Y30729D01*
X33610Y30647D01*
X33672Y30585D01*
X33713Y30483D01*
X33764Y30431D01*
X33815Y30298D01*
X33877Y30236D01*
X33898Y30154D01*
X33959Y30092D01*
X33980Y30031D01*
X34082Y29887D01*
X34103Y29805D01*
X34144Y29764D01*
X34226Y29620D01*
X34349Y29415D01*
X34432Y29271D01*
X34493Y29168D01*
X34575Y29045D01*
X34596Y28963D01*
X34657Y28901D01*
X34678Y28778D01*
X34657Y28696D01*
X34596Y28634D01*
X34483Y28542D01*
X30498Y28521D01*
X30354Y28562D01*
X30221Y28696D01*
X30200Y28819D01*
X30221Y28901D01*
X30262Y28942D01*
X30283Y28983D01*
X30324Y29086D01*
X30365Y29127D01*
X30406Y29230D01*
X30447Y29271D01*
X30611Y29579D01*
X30673Y29640D01*
X30693Y29723D01*
X30734Y29764D01*
X30837Y29949D01*
X31001Y30236D01*
X31053Y30287D01*
X31104Y30421D01*
X31166Y30483D01*
X31186Y30565D01*
X31248Y30626D01*
X31289Y30729D01*
X31340Y30780D01*
X31392Y30914D01*
X31433Y30955D01*
X31515Y31099D01*
X31577Y31201D01*
X31659Y31325D01*
X31679Y31407D01*
X31741Y31468D01*
X31782Y31571D01*
X31823Y31612D01*
X31844Y31653D01*
X31854Y31664D01*
X31864Y31715D01*
X31905Y31756D01*
X32008Y31941D01*
X32172Y32228D01*
X32337Y32393D01*
X32419Y32413D01*
X32532Y32403D01*
D02*
G37*
%LPC*%
G36*
X27969Y32717D02*
X25596D01*
Y32713D01*
X25592D01*
Y32506D01*
X25596D01*
Y32503D01*
X27973D01*
Y32506D01*
X27996D01*
Y32510D01*
X28004D01*
Y32514D01*
X28011D01*
Y32518D01*
X28015D01*
Y32522D01*
X28023D01*
Y32526D01*
X28027D01*
Y32529D01*
X28034D01*
Y32533D01*
X28038D01*
Y32537D01*
X28042D01*
Y32545D01*
X28046D01*
Y32549D01*
X28050D01*
Y32552D01*
X28053D01*
Y32560D01*
X28057D01*
Y32568D01*
X28061D01*
Y32587D01*
X28065D01*
Y32602D01*
X28069D01*
Y32617D01*
X28065D01*
Y32633D01*
X28061D01*
Y32652D01*
X28057D01*
Y32656D01*
X28053D01*
Y32663D01*
X28050D01*
Y32667D01*
X28046D01*
Y32675D01*
X28042D01*
Y32679D01*
X28038D01*
Y32683D01*
X28034D01*
Y32686D01*
X28030D01*
Y32690D01*
X28027D01*
Y32694D01*
X28019D01*
Y32698D01*
X28011D01*
Y32702D01*
X28007D01*
Y32706D01*
X28000D01*
Y32709D01*
X27981D01*
Y32713D01*
X27969D01*
Y32717D01*
D02*
G37*
G36*
X25531Y28993D02*
X25481D01*
Y28989D01*
X25454D01*
Y28985D01*
X25447D01*
Y28981D01*
X25435D01*
Y28977D01*
X25428D01*
Y28974D01*
X25420D01*
Y28970D01*
X25412D01*
Y28966D01*
X25408D01*
Y28962D01*
X25401D01*
Y28958D01*
X25397D01*
Y28954D01*
X25389D01*
Y28951D01*
X25385D01*
Y28947D01*
X25382D01*
Y28943D01*
X25378D01*
Y28939D01*
X25374D01*
Y28935D01*
X25370D01*
Y28931D01*
X25366D01*
Y28928D01*
X25363D01*
Y28920D01*
X25359D01*
Y28916D01*
X25355D01*
Y28912D01*
X25351D01*
Y28905D01*
X25347D01*
Y28901D01*
X25343D01*
Y28889D01*
X25340D01*
Y28886D01*
X25336D01*
Y28874D01*
X25332D01*
Y28866D01*
X25328D01*
Y28851D01*
X25324D01*
Y28824D01*
X25320D01*
Y28794D01*
X25324D01*
Y28767D01*
X25328D01*
Y28752D01*
X25332D01*
Y28744D01*
X25336D01*
Y28732D01*
X25340D01*
Y28725D01*
X25343D01*
Y28717D01*
X25347D01*
Y28709D01*
X25351D01*
Y28706D01*
X25355D01*
Y28698D01*
X25359D01*
Y28694D01*
X25363D01*
Y28690D01*
X25366D01*
Y28686D01*
X25370D01*
Y28683D01*
X25374D01*
Y28679D01*
X25378D01*
Y28675D01*
X25382D01*
Y28671D01*
X25385D01*
Y28667D01*
X25389D01*
Y28664D01*
X25393D01*
Y28660D01*
X25401D01*
Y28656D01*
X25405D01*
Y28652D01*
X25408D01*
Y28648D01*
X25420D01*
Y28644D01*
X25424D01*
Y28641D01*
X25435D01*
Y28637D01*
X25443D01*
Y28633D01*
X25454D01*
Y28629D01*
X25470D01*
Y28625D01*
X25496D01*
Y28621D01*
X25519D01*
Y28625D01*
X25542D01*
Y28629D01*
X25558D01*
Y28633D01*
X25569D01*
Y28637D01*
X25581D01*
Y28641D01*
X25588D01*
Y28644D01*
X25592D01*
Y28648D01*
X25604D01*
Y28652D01*
X25608D01*
Y28656D01*
X25615D01*
Y28660D01*
X25619D01*
Y28664D01*
X25623D01*
Y28667D01*
X25627D01*
Y28671D01*
X25630D01*
Y28675D01*
X25638D01*
Y28679D01*
X25642D01*
Y28686D01*
X25646D01*
Y28690D01*
X25650D01*
Y28694D01*
X25653D01*
Y28698D01*
X25657D01*
Y28706D01*
X25661D01*
Y28709D01*
X25665D01*
Y28717D01*
X25669D01*
Y28725D01*
X25673D01*
Y28729D01*
X25676D01*
Y28740D01*
X25680D01*
Y28748D01*
X25684D01*
Y28767D01*
X25688D01*
Y28786D01*
X25692D01*
Y28832D01*
X25688D01*
Y28851D01*
X25684D01*
Y28866D01*
X25680D01*
Y28874D01*
X25676D01*
Y28886D01*
X25673D01*
Y28893D01*
X25669D01*
Y28901D01*
X25665D01*
Y28908D01*
X25661D01*
Y28912D01*
X25657D01*
Y28920D01*
X25653D01*
Y28924D01*
X25650D01*
Y28928D01*
X25646D01*
Y28931D01*
X25642D01*
Y28935D01*
X25638D01*
Y28943D01*
X25630D01*
Y28947D01*
X25627D01*
Y28951D01*
X25623D01*
Y28954D01*
X25619D01*
Y28958D01*
X25611D01*
Y28962D01*
X25608D01*
Y28966D01*
X25600D01*
Y28970D01*
X25592D01*
Y28974D01*
X25585D01*
Y28977D01*
X25581D01*
Y28981D01*
X25565D01*
Y28985D01*
X25558D01*
Y28989D01*
X25531D01*
Y28993D01*
D02*
G37*
G36*
X18275Y30366D02*
X18238D01*
Y30310D01*
X18257D01*
Y30162D01*
X18275D01*
Y30125D01*
X18294D01*
Y30088D01*
X18312D01*
Y30033D01*
X18331D01*
Y29977D01*
X18349D01*
Y29959D01*
X18331D01*
Y29903D01*
X18312D01*
Y29848D01*
X18294D01*
Y29829D01*
X18275D01*
Y29792D01*
X18257D01*
Y29755D01*
X18238D01*
Y29737D01*
X18220D01*
Y29700D01*
X18201D01*
Y29681D01*
X18183D01*
Y29663D01*
X18164D01*
Y29626D01*
X18146D01*
Y29589D01*
X18164D01*
Y29570D01*
X18183D01*
Y29515D01*
X18201D01*
Y29478D01*
X18220D01*
Y29441D01*
X18238D01*
Y29404D01*
X18275D01*
Y29385D01*
X18294D01*
Y29404D01*
X18312D01*
Y29422D01*
X18331D01*
Y29478D01*
X18349D01*
Y29515D01*
X18368D01*
Y29570D01*
X18386D01*
Y29589D01*
X18405D01*
Y29663D01*
X18423D01*
Y29681D01*
X18405D01*
Y29811D01*
X18386D01*
Y29959D01*
X18405D01*
Y30144D01*
X18423D01*
Y30199D01*
X18405D01*
Y30236D01*
X18386D01*
Y30255D01*
X18368D01*
Y30273D01*
X18349D01*
Y30292D01*
X18331D01*
Y30310D01*
X18312D01*
Y30329D01*
X18294D01*
Y30347D01*
X18275D01*
Y30366D01*
D02*
G37*
G36*
X17054Y29441D02*
X17036D01*
Y29422D01*
X16999D01*
Y29385D01*
X16980D01*
Y29348D01*
X16962D01*
Y29330D01*
X16943D01*
Y29274D01*
X16925D01*
Y29256D01*
X16906D01*
Y29182D01*
X16888D01*
Y29126D01*
X16906D01*
Y29071D01*
X16925D01*
Y29052D01*
X16943D01*
Y29034D01*
X16962D01*
Y29015D01*
X16999D01*
Y28997D01*
X17017D01*
Y28978D01*
X17054D01*
Y28960D01*
X17091D01*
Y28978D01*
X17128D01*
Y29015D01*
X17147D01*
Y29034D01*
X17165D01*
Y29071D01*
X17184D01*
Y29108D01*
X17202D01*
Y29145D01*
X17221D01*
Y29182D01*
X17239D01*
Y29200D01*
X17258D01*
Y29274D01*
X17239D01*
Y29293D01*
X17221D01*
Y29311D01*
X17202D01*
Y29330D01*
X17184D01*
Y29348D01*
X17165D01*
Y29367D01*
X17128D01*
Y29385D01*
X17110D01*
Y29404D01*
X17091D01*
Y29422D01*
X17054D01*
Y29441D01*
D02*
G37*
G36*
X18867Y29089D02*
X18775D01*
Y29052D01*
X18756D01*
Y29015D01*
X18738D01*
Y28978D01*
X18719D01*
Y28886D01*
X18701D01*
Y28775D01*
X18682D01*
Y28682D01*
X18738D01*
Y28701D01*
X18756D01*
Y28719D01*
X18775D01*
Y28756D01*
X18793D01*
Y28775D01*
X18812D01*
Y28830D01*
X18830D01*
Y28886D01*
X18849D01*
Y28978D01*
X18867D01*
Y29089D01*
D02*
G37*
G36*
X17350Y29108D02*
X17313D01*
Y29089D01*
X17295D01*
Y29071D01*
X17276D01*
Y29052D01*
X17258D01*
Y29034D01*
X17239D01*
Y28997D01*
X17221D01*
Y28978D01*
X17202D01*
Y28812D01*
X17221D01*
Y28775D01*
X17239D01*
Y28756D01*
X17258D01*
Y28719D01*
X17276D01*
Y28701D01*
X17295D01*
Y28682D01*
X17313D01*
Y28664D01*
X17369D01*
Y28645D01*
X17387D01*
Y28664D01*
X17480D01*
Y28682D01*
X17498D01*
Y28701D01*
X17517D01*
Y28756D01*
X17535D01*
Y28812D01*
X17517D01*
Y28867D01*
X17498D01*
Y28886D01*
X17480D01*
Y28904D01*
X17461D01*
Y28923D01*
X17443D01*
Y28960D01*
X17424D01*
Y28997D01*
X17406D01*
Y29034D01*
X17387D01*
Y29071D01*
X17369D01*
Y29089D01*
X17350D01*
Y29108D01*
D02*
G37*
G36*
X17850Y29163D02*
X17702D01*
Y29145D01*
X17646D01*
Y29126D01*
X17609D01*
Y29089D01*
X17591D01*
Y28978D01*
X17609D01*
Y28923D01*
X17628D01*
Y28904D01*
X17646D01*
Y28867D01*
X17665D01*
Y28849D01*
X17683D01*
Y28830D01*
X17702D01*
Y28793D01*
X17720D01*
Y28775D01*
X17739D01*
Y28738D01*
X17757D01*
Y28701D01*
X17776D01*
Y28682D01*
X17794D01*
Y28664D01*
X17813D01*
Y28645D01*
X17831D01*
Y28627D01*
X17868D01*
Y28608D01*
X17979D01*
Y28627D01*
X18035D01*
Y28645D01*
X18053D01*
Y28664D01*
X18072D01*
Y28793D01*
X18053D01*
Y28830D01*
Y28849D01*
Y28867D01*
X18035D01*
Y28904D01*
X18016D01*
Y28960D01*
X17998D01*
Y28978D01*
X17979D01*
Y29015D01*
X17961D01*
Y29052D01*
X17942D01*
Y29089D01*
X17924D01*
Y29108D01*
X17905D01*
Y29126D01*
X17887D01*
Y29145D01*
X17850D01*
Y29163D01*
D02*
G37*
G36*
X32450Y32115D02*
X32367Y32095D01*
X32337Y32044D01*
X32316Y31961D01*
X32275Y31920D01*
X32193Y31777D01*
X32090Y31592D01*
X32008Y31448D01*
X31967Y31407D01*
X31946Y31366D01*
X31905Y31263D01*
X31844Y31201D01*
X31823Y31119D01*
X31761Y31058D01*
X31720Y30955D01*
X31669Y30904D01*
X31618Y30770D01*
X31577Y30729D01*
X31412Y30442D01*
X31392Y30400D01*
X31351Y30359D01*
X31330Y30277D01*
X31289Y30236D01*
X31207Y30092D01*
X31084Y29887D01*
X31001Y29743D01*
X30940Y29640D01*
X30858Y29517D01*
X30837Y29435D01*
X30776Y29373D01*
X30734Y29271D01*
X30673Y29209D01*
X30652Y29127D01*
X30622Y29096D01*
X30611Y29086D01*
X30550Y28963D01*
X30488Y28901D01*
X30467Y28819D01*
X30498Y28788D01*
X34390Y28798D01*
X34411Y28881D01*
X34329Y28963D01*
X34308Y29045D01*
X34247Y29106D01*
X34206Y29209D01*
X34144Y29271D01*
X34123Y29353D01*
X34082Y29394D01*
X33980Y29579D01*
X33815Y29866D01*
X33764Y29918D01*
X33713Y30051D01*
X33651Y30113D01*
X33631Y30195D01*
X33569Y30257D01*
X33548Y30298D01*
X33507Y30400D01*
X33466Y30442D01*
X33425Y30544D01*
X33364Y30606D01*
X33322Y30709D01*
X33271Y30760D01*
X33220Y30893D01*
X33158Y30955D01*
X33138Y31037D01*
X33096Y31078D01*
X33014Y31222D01*
X32912Y31407D01*
X32829Y31551D01*
X32778Y31602D01*
X32727Y31735D01*
X32665Y31797D01*
X32645Y31879D01*
X32583Y31941D01*
X32562Y31982D01*
X32521Y32085D01*
X32450Y32115D01*
D02*
G37*
%LPD*%
G36*
X33055Y30647D02*
X33096Y30606D01*
X33117Y30277D01*
X33035Y30092D01*
X33014Y30010D01*
X32953Y29949D01*
X32932Y29640D01*
X32973Y29599D01*
X32994Y29497D01*
X32922Y29425D01*
X32860Y29404D01*
X32850Y29435D01*
X32768Y29558D01*
X32747Y29887D01*
X32829Y30072D01*
X32850Y30154D01*
X32891Y30195D01*
X32912Y30236D01*
X32922Y30246D01*
X32932Y30524D01*
X32891Y30565D01*
X32871Y30606D01*
X32891Y30688D01*
X32922Y30719D01*
X33004Y30739D01*
X33055Y30647D01*
D02*
G37*
G36*
X32562D02*
X32604Y30606D01*
X32624Y30257D01*
X32521Y30031D01*
X32460Y29928D01*
X32439Y29640D01*
X32480Y29599D01*
X32501Y29497D01*
X32429Y29425D01*
X32367Y29404D01*
X32316Y29517D01*
X32275Y29558D01*
X32254Y29907D01*
X32378Y30174D01*
X32388Y30185D01*
X32419Y30216D01*
X32439Y30524D01*
X32398Y30565D01*
X32378Y30606D01*
X32398Y30688D01*
X32429Y30719D01*
X32511Y30739D01*
X32562Y30647D01*
D02*
G37*
G36*
X32008Y30750D02*
X32070Y30647D01*
X32111Y30606D01*
X32131Y30298D01*
Y30277D01*
Y30257D01*
X32028Y30031D01*
X31967Y29928D01*
X31946Y29640D01*
X31987Y29599D01*
X32008Y29497D01*
X31915Y29404D01*
X31885Y29415D01*
X31823Y29517D01*
X31782Y29558D01*
X31761Y29887D01*
X31823Y30031D01*
X31844Y30072D01*
X31885Y30174D01*
X31926Y30216D01*
X31946Y30524D01*
X31905Y30565D01*
X31885Y30606D01*
X31905Y30688D01*
X31998Y30760D01*
X32008Y30750D01*
D02*
G37*
G36*
X33302Y29168D02*
X33322Y29045D01*
X33292Y29014D01*
X31607Y28993D01*
X31577Y29024D01*
X31556Y29148D01*
X31618Y29189D01*
X31792Y29178D01*
X33148D01*
X33209Y29199D01*
X33302Y29168D01*
D02*
G37*
D10*
X13189Y10276D02*
G03*
X13091Y10276I-49J0D01*
G01*
X18632Y3281D02*
Y3655D01*
X19380Y3281D02*
Y3655D01*
X18187Y11201D02*
X18427D01*
X18187Y10217D02*
X18427D01*
X18937Y10650D02*
Y10768D01*
X17677Y10650D02*
Y10768D01*
X23906Y3971D02*
X24906D01*
X22906Y2971D02*
X23906D01*
X21906Y3971D02*
X22906D01*
X19906D02*
X20906D01*
Y2971D02*
X21906D01*
X19906D02*
Y3971D01*
X24906Y2971D02*
Y3971D01*
X12888Y10276D02*
X13091D01*
X13189D02*
X13392D01*
Y11260D01*
X12888D02*
X13392D01*
X12888Y10276D02*
Y11260D01*
X13061Y9311D02*
X13219D01*
X13061Y9872D02*
X13219D01*
X16565Y10635D02*
X16722D01*
X16565Y10073D02*
X16722D01*
X16575Y10778D02*
X16732D01*
X16575Y11339D02*
X16732D01*
X21388Y7047D02*
X21762D01*
X21388Y6299D02*
X21762D01*
X23693Y11797D02*
X24199Y11291D01*
X20722Y11797D02*
X23693D01*
X20722Y8321D02*
Y11797D01*
Y8321D02*
X24199D01*
Y11291D01*
D11*
X12767Y10118D02*
G03*
X12767Y10118I-31J0D01*
G01*
X18809Y3468D02*
X19203D01*
X21575Y6476D02*
Y6870D01*
D14*
X18438Y11713D02*
X18307Y11516D01*
Y11713D02*
X18438Y11516D01*
X18241D02*
X18176D01*
X18209D01*
Y11713D01*
X18241Y11680D01*
X12331Y11791D02*
Y11627D01*
X12298Y11594D01*
X12233D01*
X12200Y11627D01*
Y11791D01*
X12036Y11594D02*
Y11791D01*
X12134Y11692D01*
X12003D01*
X20251Y13071D02*
Y12907D01*
X20218Y12874D01*
X20153D01*
X20120Y12907D01*
Y13071D01*
X20054Y13038D02*
X20022Y13071D01*
X19956D01*
X19923Y13038D01*
Y13005D01*
X19956Y12972D01*
X19989D01*
X19956D01*
X19923Y12940D01*
Y12907D01*
X19956Y12874D01*
X20022D01*
X20054Y12907D01*
X19180Y4429D02*
Y4626D01*
X19081D01*
X19049Y4593D01*
Y4528D01*
X19081Y4495D01*
X19180D01*
X19114D02*
X19049Y4429D01*
X18852Y4626D02*
X18917Y4593D01*
X18983Y4528D01*
Y4462D01*
X18950Y4429D01*
X18885D01*
X18852Y4462D01*
Y4495D01*
X18885Y4528D01*
X18983D01*
X21411Y6191D02*
Y5994D01*
X21509D01*
X21542Y6027D01*
Y6093D01*
X21509Y6125D01*
X21411D01*
X21476D02*
X21542Y6191D01*
X21739Y5994D02*
X21608D01*
Y6093D01*
X21673Y6060D01*
X21706D01*
X21739Y6093D01*
Y6158D01*
X21706Y6191D01*
X21640D01*
X21608Y6158D01*
X20270Y5201D02*
X20336D01*
X20303D01*
Y5037D01*
X20336Y5004D01*
X20368D01*
X20401Y5037D01*
X20204Y5004D02*
X20139D01*
X20172D01*
Y5201D01*
X20204Y5168D01*
X19942Y5004D02*
Y5201D01*
X20040Y5102D01*
X19909D01*
X17060Y9928D02*
X17093Y9961D01*
X17159D01*
X17192Y9928D01*
Y9797D01*
X17159Y9764D01*
X17093D01*
X17060Y9797D01*
X16995Y9928D02*
X16962Y9961D01*
X16896D01*
X16864Y9928D01*
Y9895D01*
X16896Y9862D01*
X16929D01*
X16896D01*
X16864Y9829D01*
Y9797D01*
X16896Y9764D01*
X16962D01*
X16995Y9797D01*
X17051Y11631D02*
X17083Y11663D01*
X17149D01*
X17182Y11631D01*
Y11499D01*
X17149Y11467D01*
X17083D01*
X17051Y11499D01*
X16854Y11467D02*
X16985D01*
X16854Y11598D01*
Y11631D01*
X16887Y11663D01*
X16952D01*
X16985Y11631D01*
X13514Y9121D02*
X13547Y9154D01*
X13612D01*
X13645Y9121D01*
Y8990D01*
X13612Y8957D01*
X13547D01*
X13514Y8990D01*
X13448Y8957D02*
X13383D01*
X13415D01*
Y9154D01*
X13448Y9121D01*
D58*
X24675Y12234D02*
G03*
X24675Y12234I-71J0D01*
G01*
M02*
