G04*
G04 #@! TF.GenerationSoftware,Altium Limited,Altium Designer,22.11.1 (43)*
G04*
G04 Layer_Color=8388736*
%FSLAX24Y24*%
%MOIN*%
G70*
G04*
G04 #@! TF.SameCoordinates,7676E619-B689-43AB-A287-34DBDB4E9A50*
G04*
G04*
G04 #@! TF.FilePolarity,Negative*
G04*
G01*
G75*
%ADD22R,0.0434X0.0749*%
%ADD23R,0.0907X0.0631*%
%ADD24R,0.0474X0.0356*%
%ADD25O,0.0474X0.0356*%
%ADD26R,0.0710X0.0710*%
%ADD27R,0.0513X0.0710*%
%ADD28C,0.1181*%
%ADD29C,0.0867*%
%ADD30C,0.0080*%
%ADD31C,0.0474*%
%ADD32R,0.0474X0.0474*%
%ADD33R,0.0080X0.0080*%
%ADD34C,0.1064*%
%ADD35C,0.0197*%
D22*
X8749Y5886D02*
D03*
X7607D02*
D03*
X17137D02*
D03*
X18279D02*
D03*
X27809D02*
D03*
X26667D02*
D03*
D23*
X25447Y4980D02*
D03*
Y3209D02*
D03*
X29030Y4980D02*
D03*
Y3209D02*
D03*
X19499Y3179D02*
D03*
Y4951D02*
D03*
X15917Y3179D02*
D03*
Y4951D02*
D03*
X6386Y4951D02*
D03*
Y3179D02*
D03*
X9969Y4951D02*
D03*
Y3179D02*
D03*
D24*
X36890Y22281D02*
D03*
Y30947D02*
D03*
Y13656D02*
D03*
Y4990D02*
D03*
D25*
Y21907D02*
D03*
Y21533D02*
D03*
X37913D02*
D03*
Y21907D02*
D03*
Y22281D02*
D03*
Y30947D02*
D03*
Y30573D02*
D03*
Y30199D02*
D03*
X36890D02*
D03*
Y30573D02*
D03*
X37913Y13656D02*
D03*
Y13282D02*
D03*
Y12907D02*
D03*
X36890D02*
D03*
Y13282D02*
D03*
Y4616D02*
D03*
Y4242D02*
D03*
X37913D02*
D03*
Y4616D02*
D03*
Y4990D02*
D03*
D26*
X30846Y8858D02*
D03*
D27*
X31299Y7717D02*
D03*
X30394D02*
D03*
D28*
X118Y28543D02*
D03*
X31496Y-0D02*
D03*
D29*
X0Y4969D02*
D03*
Y3469D02*
D03*
Y1969D02*
D03*
Y10436D02*
D03*
Y8936D02*
D03*
Y7436D02*
D03*
X-0Y15904D02*
D03*
Y14404D02*
D03*
Y12904D02*
D03*
X0Y21372D02*
D03*
Y19872D02*
D03*
Y18372D02*
D03*
X0Y31941D02*
D03*
Y33441D02*
D03*
X41772Y16150D02*
D03*
Y14650D02*
D03*
Y12134D02*
D03*
Y10634D02*
D03*
Y3469D02*
D03*
Y1969D02*
D03*
Y7484D02*
D03*
Y5984D02*
D03*
Y24776D02*
D03*
Y23276D02*
D03*
Y20799D02*
D03*
Y19299D02*
D03*
Y33441D02*
D03*
Y31941D02*
D03*
Y29425D02*
D03*
Y27925D02*
D03*
D30*
X27661Y18494D02*
D03*
X7755D02*
D03*
D31*
X21183Y18484D02*
D03*
X20683D02*
D03*
X20183D02*
D03*
X19683D02*
D03*
X19183D02*
D03*
X18683D02*
D03*
X18183D02*
D03*
X17683D02*
D03*
X17183D02*
D03*
X16683D02*
D03*
X16183D02*
D03*
X15683D02*
D03*
X15183D02*
D03*
X14683D02*
D03*
D32*
X14183D02*
D03*
D33*
X41772Y35409D02*
D03*
X0D02*
D03*
X0Y0D02*
D03*
X41772Y-0D02*
D03*
D34*
X7323Y25384D02*
D03*
Y29616D02*
D03*
X22480Y28533D02*
D03*
Y25384D02*
D03*
D35*
X29868Y3209D02*
D03*
X25543Y10059D02*
D03*
X13514Y8749D02*
D03*
X6386Y2341D02*
D03*
X15917Y2341D02*
D03*
X25447Y2371D02*
D03*
X19331Y11063D02*
D03*
X16270Y9429D02*
D03*
X16280Y11634D02*
D03*
X17598Y4039D02*
D03*
X35433Y15777D02*
D03*
X36890Y1969D02*
D03*
Y10634D02*
D03*
Y27925D02*
D03*
X19528Y10059D02*
D03*
X12766Y8898D02*
D03*
X22776Y12992D02*
D03*
X23091D02*
D03*
X19528Y9744D02*
D03*
Y9114D02*
D03*
Y9429D02*
D03*
M02*
