G04*
G04 #@! TF.GenerationSoftware,Altium Limited,Altium Designer,21.4.1 (30)*
G04*
G04 Layer_Color=255*
%FSLAX24Y24*%
%MOIN*%
G70*
G04*
G04 #@! TF.SameCoordinates,136769D1-9CB9-4328-8E5A-620BB88F4A60*
G04*
G04*
G04 #@! TF.FilePolarity,Positive*
G04*
G01*
G75*
%ADD15R,0.0354X0.0669*%
%ADD21C,0.0394*%
%ADD38C,0.0787*%
%ADD39R,0.0394X0.0394*%
%ADD40C,0.0984*%
%ADD41R,0.0669X0.0354*%
%ADD42R,0.0512X0.0433*%
%ADD43R,0.0500X0.1350*%
%ADD44R,0.0571X0.0118*%
%ADD45R,0.0394X0.0551*%
%ADD46R,0.0217X0.0591*%
%ADD47R,0.0591X0.0217*%
%ADD48O,0.0591X0.0217*%
D15*
X22146Y6673D02*
D03*
X21004D02*
D03*
D21*
X118Y28543D02*
D03*
X31496Y-0D02*
D03*
X21183Y18484D02*
D03*
X20683D02*
D03*
X20183D02*
D03*
X19683D02*
D03*
X19183D02*
D03*
X18683D02*
D03*
X18183D02*
D03*
X17683D02*
D03*
X17183D02*
D03*
X16683D02*
D03*
X16183D02*
D03*
X15683D02*
D03*
X15183D02*
D03*
X14683D02*
D03*
D38*
X0Y4969D02*
D03*
Y3469D02*
D03*
Y1969D02*
D03*
Y10436D02*
D03*
Y8936D02*
D03*
Y7436D02*
D03*
X-0Y15904D02*
D03*
Y14404D02*
D03*
Y12904D02*
D03*
X0Y21372D02*
D03*
Y19872D02*
D03*
Y18372D02*
D03*
X0Y31941D02*
D03*
Y33441D02*
D03*
X41772Y16150D02*
D03*
Y14650D02*
D03*
Y12134D02*
D03*
Y10634D02*
D03*
Y3469D02*
D03*
Y1969D02*
D03*
Y7484D02*
D03*
Y5984D02*
D03*
Y24776D02*
D03*
Y23276D02*
D03*
Y20799D02*
D03*
Y19299D02*
D03*
Y33441D02*
D03*
Y31941D02*
D03*
Y29425D02*
D03*
Y27925D02*
D03*
D39*
X14183Y18484D02*
D03*
D40*
X7323Y25384D02*
D03*
Y29616D02*
D03*
X22480Y28533D02*
D03*
Y25384D02*
D03*
D41*
X19006Y4039D02*
D03*
Y2897D02*
D03*
D42*
X18760Y11063D02*
D03*
X17854D02*
D03*
X18760Y10354D02*
D03*
X17854D02*
D03*
D43*
X24406Y2897D02*
D03*
X23406Y4045D02*
D03*
X22406Y2897D02*
D03*
X21406Y4045D02*
D03*
X20406Y2897D02*
D03*
D44*
X12274Y10965D02*
D03*
Y10374D02*
D03*
Y10571D02*
D03*
Y10768D02*
D03*
Y11161D02*
D03*
X14006Y10374D02*
D03*
Y10571D02*
D03*
Y10768D02*
D03*
Y10965D02*
D03*
Y11161D02*
D03*
D45*
X12766Y9587D02*
D03*
X13514D02*
D03*
X17018Y10359D02*
D03*
X16270D02*
D03*
X16280Y11063D02*
D03*
X17028D02*
D03*
D46*
X24035Y12303D02*
D03*
X23720D02*
D03*
X23406D02*
D03*
X23091D02*
D03*
X22776D02*
D03*
X22461D02*
D03*
X22146D02*
D03*
X21831D02*
D03*
X21516D02*
D03*
X21201D02*
D03*
X20886D02*
D03*
Y7815D02*
D03*
X21201D02*
D03*
X21516D02*
D03*
X21831D02*
D03*
X22146D02*
D03*
X22461D02*
D03*
X22776D02*
D03*
X23091D02*
D03*
X23406D02*
D03*
X23720D02*
D03*
X24035D02*
D03*
D47*
X20217Y11634D02*
D03*
Y11319D02*
D03*
Y11004D02*
D03*
Y10689D02*
D03*
Y10374D02*
D03*
Y10059D02*
D03*
Y9744D02*
D03*
Y9429D02*
D03*
Y9114D02*
D03*
Y8799D02*
D03*
Y8484D02*
D03*
X24705D02*
D03*
Y8799D02*
D03*
Y9114D02*
D03*
Y9429D02*
D03*
Y9744D02*
D03*
Y10059D02*
D03*
Y10374D02*
D03*
Y10689D02*
D03*
Y11004D02*
D03*
Y11319D02*
D03*
D48*
Y11634D02*
D03*
M02*
