%TF.GenerationSoftware,KiCad,Pcbnew,7.0.2*%
%TF.CreationDate,2023-05-18T09:17:58-03:00*%
%TF.ProjectId,placaSensIC075,706c6163-6153-4656-9e73-49433037352e,rev?*%
%TF.SameCoordinates,Original*%
%TF.FileFunction,Drillmap*%
%TF.FilePolarity,Positive*%
%FSLAX45Y45*%
G04 Gerber Fmt 4.5, Leading zero omitted, Abs format (unit mm)*
G04 Created by KiCad (PCBNEW 7.0.2) date 2023-05-18 09:17:58*
%MOMM*%
%LPD*%
G01*
G04 APERTURE LIST*
%ADD10C,0.100000*%
%ADD11C,0.200000*%
%ADD12C,0.080000*%
G04 APERTURE END LIST*
D10*
X19634663Y-12563000D02*
G75*
G03*
X19634663Y-12563000I-100663J0D01*
G01*
X8534400Y-4964700D02*
X19828000Y-4964700D01*
X19828000Y-12863300D01*
X8534400Y-12863300D01*
X8534400Y-4964700D01*
X8932344Y-12562000D02*
G75*
G03*
X8932344Y-12562000I-100344J0D01*
G01*
X19628000Y-5265000D02*
G75*
G03*
X19628000Y-5265000I-100000J0D01*
G01*
X8934499Y-5265000D02*
G75*
G03*
X8934499Y-5265000I-100499J0D01*
G01*
D11*
D12*
X16774800Y-5548000D02*
X16854800Y-5628000D01*
X16854800Y-5548000D02*
X16774800Y-5628000D01*
X16774800Y-5802000D02*
X16854800Y-5882000D01*
X16854800Y-5802000D02*
X16774800Y-5882000D01*
X16774800Y-6056000D02*
X16854800Y-6136000D01*
X16854800Y-6056000D02*
X16774800Y-6136000D01*
X16774800Y-6818000D02*
X16854800Y-6898000D01*
X16854800Y-6818000D02*
X16774800Y-6898000D01*
X16774800Y-7072000D02*
X16854800Y-7152000D01*
X16854800Y-7072000D02*
X16774800Y-7152000D01*
X16774800Y-7326000D02*
X16854800Y-7406000D01*
X16854800Y-7326000D02*
X16774800Y-7406000D01*
X16774800Y-8088000D02*
X16854800Y-8168000D01*
X16854800Y-8088000D02*
X16774800Y-8168000D01*
X16774800Y-8342000D02*
X16854800Y-8422000D01*
X16854800Y-8342000D02*
X16774800Y-8422000D01*
X16774800Y-8596000D02*
X16854800Y-8676000D01*
X16854800Y-8596000D02*
X16774800Y-8676000D01*
X16774800Y-9358000D02*
X16854800Y-9438000D01*
X16854800Y-9358000D02*
X16774800Y-9438000D01*
X16774800Y-9612000D02*
X16854800Y-9692000D01*
X16854800Y-9612000D02*
X16774800Y-9692000D01*
X16774800Y-9866000D02*
X16854800Y-9946000D01*
X16854800Y-9866000D02*
X16774800Y-9946000D01*
X18261250Y-9198000D02*
X18341250Y-9278000D01*
X18341250Y-9198000D02*
X18261250Y-9278000D01*
X18261250Y-9518000D02*
X18341250Y-9598000D01*
X18341250Y-9518000D02*
X18261250Y-9598000D01*
X18261250Y-9833000D02*
X18341250Y-9913000D01*
X18341250Y-9833000D02*
X18261250Y-9913000D01*
X18261250Y-10153000D02*
X18341250Y-10233000D01*
X18341250Y-10153000D02*
X18261250Y-10233000D01*
X18261250Y-10468000D02*
X18341250Y-10548000D01*
X18341250Y-10468000D02*
X18261250Y-10548000D01*
X18261250Y-10788000D02*
X18341250Y-10868000D01*
X18341250Y-10788000D02*
X18261250Y-10868000D01*
X18261250Y-11103000D02*
X18341250Y-11183000D01*
X18341250Y-11103000D02*
X18261250Y-11183000D01*
X18261250Y-11423000D02*
X18341250Y-11503000D01*
X18341250Y-11423000D02*
X18261250Y-11503000D01*
X18511250Y-9198000D02*
X18591250Y-9278000D01*
X18591250Y-9198000D02*
X18511250Y-9278000D01*
X18511250Y-9518000D02*
X18591250Y-9598000D01*
X18591250Y-9518000D02*
X18511250Y-9598000D01*
X18511250Y-9833000D02*
X18591250Y-9913000D01*
X18591250Y-9833000D02*
X18511250Y-9913000D01*
X18511250Y-10153000D02*
X18591250Y-10233000D01*
X18591250Y-10153000D02*
X18511250Y-10233000D01*
X18511250Y-10468000D02*
X18591250Y-10548000D01*
X18591250Y-10468000D02*
X18511250Y-10548000D01*
X18511250Y-10788000D02*
X18591250Y-10868000D01*
X18591250Y-10788000D02*
X18511250Y-10868000D01*
X18511250Y-11103000D02*
X18591250Y-11183000D01*
X18591250Y-11103000D02*
X18511250Y-11183000D01*
X18511250Y-11423000D02*
X18591250Y-11503000D01*
X18591250Y-11423000D02*
X18511250Y-11503000D01*
X18761250Y-9198000D02*
X18841250Y-9278000D01*
X18841250Y-9198000D02*
X18761250Y-9278000D01*
X18761250Y-9518000D02*
X18841250Y-9598000D01*
X18841250Y-9518000D02*
X18761250Y-9598000D01*
X18761250Y-9833000D02*
X18841250Y-9913000D01*
X18841250Y-9833000D02*
X18761250Y-9913000D01*
X18761250Y-10153000D02*
X18841250Y-10233000D01*
X18841250Y-10153000D02*
X18761250Y-10233000D01*
X18761250Y-10468000D02*
X18841250Y-10548000D01*
X18841250Y-10468000D02*
X18761250Y-10548000D01*
X18761250Y-10788000D02*
X18841250Y-10868000D01*
X18841250Y-10788000D02*
X18761250Y-10868000D01*
X18761250Y-11103000D02*
X18841250Y-11183000D01*
X18841250Y-11103000D02*
X18761250Y-11183000D01*
X18761250Y-11423000D02*
X18841250Y-11503000D01*
X18841250Y-11423000D02*
X18761250Y-11503000D01*
D10*
X9122000Y-5913000D02*
G75*
G03*
X9122000Y-5913000I-50000J0D01*
G01*
X9123000Y-6314000D02*
G75*
G03*
X9123000Y-6314000I-50000J0D01*
G01*
X9123000Y-8854000D02*
G75*
G03*
X9123000Y-8854000I-50000J0D01*
G01*
X9125000Y-9237000D02*
G75*
G03*
X9125000Y-9237000I-50000J0D01*
G01*
X9376000Y-5913000D02*
G75*
G03*
X9376000Y-5913000I-50000J0D01*
G01*
X9377000Y-6314000D02*
G75*
G03*
X9377000Y-6314000I-50000J0D01*
G01*
X9377000Y-8854000D02*
G75*
G03*
X9377000Y-8854000I-50000J0D01*
G01*
X9379000Y-9237000D02*
G75*
G03*
X9379000Y-9237000I-50000J0D01*
G01*
X9630000Y-5913000D02*
G75*
G03*
X9630000Y-5913000I-50000J0D01*
G01*
X9631000Y-6314000D02*
G75*
G03*
X9631000Y-6314000I-50000J0D01*
G01*
X9631000Y-8854000D02*
G75*
G03*
X9631000Y-8854000I-50000J0D01*
G01*
X9633000Y-9237000D02*
G75*
G03*
X9633000Y-9237000I-50000J0D01*
G01*
X9884000Y-5913000D02*
G75*
G03*
X9884000Y-5913000I-50000J0D01*
G01*
X9885000Y-6314000D02*
G75*
G03*
X9885000Y-6314000I-50000J0D01*
G01*
X9885000Y-8854000D02*
G75*
G03*
X9885000Y-8854000I-50000J0D01*
G01*
X9887000Y-9237000D02*
G75*
G03*
X9887000Y-9237000I-50000J0D01*
G01*
X10083000Y-9906000D02*
G75*
G03*
X10083000Y-9906000I-50000J0D01*
G01*
X10083000Y-10944900D02*
G75*
G03*
X10083000Y-10944900I-50000J0D01*
G01*
X10138000Y-5913000D02*
G75*
G03*
X10138000Y-5913000I-50000J0D01*
G01*
X10139000Y-6314000D02*
G75*
G03*
X10139000Y-6314000I-50000J0D01*
G01*
X10139000Y-8854000D02*
G75*
G03*
X10139000Y-8854000I-50000J0D01*
G01*
X10141000Y-9237000D02*
G75*
G03*
X10141000Y-9237000I-50000J0D01*
G01*
X10337000Y-9906000D02*
G75*
G03*
X10337000Y-9906000I-50000J0D01*
G01*
X10337000Y-10944900D02*
G75*
G03*
X10337000Y-10944900I-50000J0D01*
G01*
X10392000Y-5913000D02*
G75*
G03*
X10392000Y-5913000I-50000J0D01*
G01*
X10393000Y-6314000D02*
G75*
G03*
X10393000Y-6314000I-50000J0D01*
G01*
X10393000Y-8854000D02*
G75*
G03*
X10393000Y-8854000I-50000J0D01*
G01*
X10395000Y-9237000D02*
G75*
G03*
X10395000Y-9237000I-50000J0D01*
G01*
X10646000Y-5913000D02*
G75*
G03*
X10646000Y-5913000I-50000J0D01*
G01*
X10647000Y-6314000D02*
G75*
G03*
X10647000Y-6314000I-50000J0D01*
G01*
X10647000Y-8854000D02*
G75*
G03*
X10647000Y-8854000I-50000J0D01*
G01*
X10649000Y-9237000D02*
G75*
G03*
X10649000Y-9237000I-50000J0D01*
G01*
X10900000Y-5913000D02*
G75*
G03*
X10900000Y-5913000I-50000J0D01*
G01*
X10901000Y-6314000D02*
G75*
G03*
X10901000Y-6314000I-50000J0D01*
G01*
X10901000Y-8854000D02*
G75*
G03*
X10901000Y-8854000I-50000J0D01*
G01*
X10903000Y-9237000D02*
G75*
G03*
X10903000Y-9237000I-50000J0D01*
G01*
X11154000Y-5913000D02*
G75*
G03*
X11154000Y-5913000I-50000J0D01*
G01*
X11155000Y-6314000D02*
G75*
G03*
X11155000Y-6314000I-50000J0D01*
G01*
X11155000Y-8854000D02*
G75*
G03*
X11155000Y-8854000I-50000J0D01*
G01*
X11157000Y-9237000D02*
G75*
G03*
X11157000Y-9237000I-50000J0D01*
G01*
X11408000Y-5913000D02*
G75*
G03*
X11408000Y-5913000I-50000J0D01*
G01*
X11409000Y-6314000D02*
G75*
G03*
X11409000Y-6314000I-50000J0D01*
G01*
X11409000Y-8854000D02*
G75*
G03*
X11409000Y-8854000I-50000J0D01*
G01*
X11411000Y-9237000D02*
G75*
G03*
X11411000Y-9237000I-50000J0D01*
G01*
X11662000Y-5913000D02*
G75*
G03*
X11662000Y-5913000I-50000J0D01*
G01*
X11663000Y-6314000D02*
G75*
G03*
X11663000Y-6314000I-50000J0D01*
G01*
X11663000Y-8854000D02*
G75*
G03*
X11663000Y-8854000I-50000J0D01*
G01*
X11665000Y-9237000D02*
G75*
G03*
X11665000Y-9237000I-50000J0D01*
G01*
X11916000Y-5913000D02*
G75*
G03*
X11916000Y-5913000I-50000J0D01*
G01*
X11917000Y-6314000D02*
G75*
G03*
X11917000Y-6314000I-50000J0D01*
G01*
X11917000Y-8854000D02*
G75*
G03*
X11917000Y-8854000I-50000J0D01*
G01*
X11919000Y-9237000D02*
G75*
G03*
X11919000Y-9237000I-50000J0D01*
G01*
X12170000Y-5913000D02*
G75*
G03*
X12170000Y-5913000I-50000J0D01*
G01*
X12171000Y-6314000D02*
G75*
G03*
X12171000Y-6314000I-50000J0D01*
G01*
X12171000Y-8854000D02*
G75*
G03*
X12171000Y-8854000I-50000J0D01*
G01*
X12173000Y-9237000D02*
G75*
G03*
X12173000Y-9237000I-50000J0D01*
G01*
X12424000Y-5913000D02*
G75*
G03*
X12424000Y-5913000I-50000J0D01*
G01*
X12425000Y-6314000D02*
G75*
G03*
X12425000Y-6314000I-50000J0D01*
G01*
X12425000Y-8854000D02*
G75*
G03*
X12425000Y-8854000I-50000J0D01*
G01*
X12427000Y-9237000D02*
G75*
G03*
X12427000Y-9237000I-50000J0D01*
G01*
X12678000Y-5913000D02*
G75*
G03*
X12678000Y-5913000I-50000J0D01*
G01*
X12679000Y-6314000D02*
G75*
G03*
X12679000Y-6314000I-50000J0D01*
G01*
X12679000Y-8854000D02*
G75*
G03*
X12679000Y-8854000I-50000J0D01*
G01*
X12681000Y-9237000D02*
G75*
G03*
X12681000Y-9237000I-50000J0D01*
G01*
X12932000Y-5913000D02*
G75*
G03*
X12932000Y-5913000I-50000J0D01*
G01*
X12933000Y-6314000D02*
G75*
G03*
X12933000Y-6314000I-50000J0D01*
G01*
X12933000Y-8854000D02*
G75*
G03*
X12933000Y-8854000I-50000J0D01*
G01*
X12935000Y-9237000D02*
G75*
G03*
X12935000Y-9237000I-50000J0D01*
G01*
X13186000Y-5913000D02*
G75*
G03*
X13186000Y-5913000I-50000J0D01*
G01*
X13187000Y-6314000D02*
G75*
G03*
X13187000Y-6314000I-50000J0D01*
G01*
X13187000Y-8854000D02*
G75*
G03*
X13187000Y-8854000I-50000J0D01*
G01*
X13189000Y-9237000D02*
G75*
G03*
X13189000Y-9237000I-50000J0D01*
G01*
X13440000Y-5913000D02*
G75*
G03*
X13440000Y-5913000I-50000J0D01*
G01*
X13441000Y-6314000D02*
G75*
G03*
X13441000Y-6314000I-50000J0D01*
G01*
X13441000Y-8854000D02*
G75*
G03*
X13441000Y-8854000I-50000J0D01*
G01*
X13443000Y-9237000D02*
G75*
G03*
X13443000Y-9237000I-50000J0D01*
G01*
X13694000Y-5913000D02*
G75*
G03*
X13694000Y-5913000I-50000J0D01*
G01*
X13695000Y-6314000D02*
G75*
G03*
X13695000Y-6314000I-50000J0D01*
G01*
X13695000Y-8854000D02*
G75*
G03*
X13695000Y-8854000I-50000J0D01*
G01*
X13697000Y-9237000D02*
G75*
G03*
X13697000Y-9237000I-50000J0D01*
G01*
X14515300Y-9928900D02*
G75*
G03*
X14515300Y-9928900I-50000J0D01*
G01*
X14515300Y-10944900D02*
G75*
G03*
X14515300Y-10944900I-50000J0D01*
G01*
X14769300Y-9928900D02*
G75*
G03*
X14769300Y-9928900I-50000J0D01*
G01*
X14769300Y-10944900D02*
G75*
G03*
X14769300Y-10944900I-50000J0D01*
G01*
X16052000Y-6350000D02*
G75*
G03*
X16052000Y-6350000I-50000J0D01*
G01*
X16052000Y-6604000D02*
G75*
G03*
X16052000Y-6604000I-50000J0D01*
G01*
X16052000Y-6858000D02*
G75*
G03*
X16052000Y-6858000I-50000J0D01*
G01*
X16052000Y-7112000D02*
G75*
G03*
X16052000Y-7112000I-50000J0D01*
G01*
X16052000Y-7366000D02*
G75*
G03*
X16052000Y-7366000I-50000J0D01*
G01*
X16052000Y-7620000D02*
G75*
G03*
X16052000Y-7620000I-50000J0D01*
G01*
X16052000Y-7874000D02*
G75*
G03*
X16052000Y-7874000I-50000J0D01*
G01*
X16052000Y-8128000D02*
G75*
G03*
X16052000Y-8128000I-50000J0D01*
G01*
X16052000Y-8382000D02*
G75*
G03*
X16052000Y-8382000I-50000J0D01*
G01*
X16052000Y-8636000D02*
G75*
G03*
X16052000Y-8636000I-50000J0D01*
G01*
X16483800Y-10541000D02*
G75*
G03*
X16483800Y-10541000I-50000J0D01*
G01*
X16483800Y-10795000D02*
G75*
G03*
X16483800Y-10795000I-50000J0D01*
G01*
X16483800Y-11049000D02*
G75*
G03*
X16483800Y-11049000I-50000J0D01*
G01*
X16483800Y-11303000D02*
G75*
G03*
X16483800Y-11303000I-50000J0D01*
G01*
X16737800Y-10541000D02*
G75*
G03*
X16737800Y-10541000I-50000J0D01*
G01*
X16737800Y-10795000D02*
G75*
G03*
X16737800Y-10795000I-50000J0D01*
G01*
X16737800Y-11049000D02*
G75*
G03*
X16737800Y-11049000I-50000J0D01*
G01*
X16737800Y-11303000D02*
G75*
G03*
X16737800Y-11303000I-50000J0D01*
G01*
X17959000Y-7493000D02*
G75*
G03*
X17959000Y-7493000I-50000J0D01*
G01*
X17959000Y-7747000D02*
G75*
G03*
X17959000Y-7747000I-50000J0D01*
G01*
X17959000Y-8001000D02*
G75*
G03*
X17959000Y-8001000I-50000J0D01*
G01*
X17959000Y-8255000D02*
G75*
G03*
X17959000Y-8255000I-50000J0D01*
G01*
X18213000Y-7493000D02*
G75*
G03*
X18213000Y-7493000I-50000J0D01*
G01*
X18213000Y-7747000D02*
G75*
G03*
X18213000Y-7747000I-50000J0D01*
G01*
X18213000Y-8001000D02*
G75*
G03*
X18213000Y-8001000I-50000J0D01*
G01*
X18213000Y-8255000D02*
G75*
G03*
X18213000Y-8255000I-50000J0D01*
G01*
X18592000Y-7493000D02*
G75*
G03*
X18592000Y-7493000I-50000J0D01*
G01*
X18592000Y-7747000D02*
G75*
G03*
X18592000Y-7747000I-50000J0D01*
G01*
X18592000Y-8001000D02*
G75*
G03*
X18592000Y-8001000I-50000J0D01*
G01*
X18592000Y-8255000D02*
G75*
G03*
X18592000Y-8255000I-50000J0D01*
G01*
X18846000Y-7493000D02*
G75*
G03*
X18846000Y-7493000I-50000J0D01*
G01*
X18846000Y-7747000D02*
G75*
G03*
X18846000Y-7747000I-50000J0D01*
G01*
X18846000Y-8001000D02*
G75*
G03*
X18846000Y-8001000I-50000J0D01*
G01*
X18846000Y-8255000D02*
G75*
G03*
X18846000Y-8255000I-50000J0D01*
G01*
D11*
X8777019Y-13180824D02*
X8777019Y-12980824D01*
X8777019Y-12980824D02*
X8824638Y-12980824D01*
X8824638Y-12980824D02*
X8853210Y-12990348D01*
X8853210Y-12990348D02*
X8872257Y-13009395D01*
X8872257Y-13009395D02*
X8881781Y-13028443D01*
X8881781Y-13028443D02*
X8891305Y-13066538D01*
X8891305Y-13066538D02*
X8891305Y-13095109D01*
X8891305Y-13095109D02*
X8881781Y-13133205D01*
X8881781Y-13133205D02*
X8872257Y-13152252D01*
X8872257Y-13152252D02*
X8853210Y-13171300D01*
X8853210Y-13171300D02*
X8824638Y-13180824D01*
X8824638Y-13180824D02*
X8777019Y-13180824D01*
X8977019Y-13180824D02*
X8977019Y-13047490D01*
X8977019Y-13085586D02*
X8986543Y-13066538D01*
X8986543Y-13066538D02*
X8996067Y-13057014D01*
X8996067Y-13057014D02*
X9015114Y-13047490D01*
X9015114Y-13047490D02*
X9034162Y-13047490D01*
X9100829Y-13180824D02*
X9100829Y-13047490D01*
X9100829Y-12980824D02*
X9091305Y-12990348D01*
X9091305Y-12990348D02*
X9100829Y-12999871D01*
X9100829Y-12999871D02*
X9110352Y-12990348D01*
X9110352Y-12990348D02*
X9100829Y-12980824D01*
X9100829Y-12980824D02*
X9100829Y-12999871D01*
X9224638Y-13180824D02*
X9205590Y-13171300D01*
X9205590Y-13171300D02*
X9196067Y-13152252D01*
X9196067Y-13152252D02*
X9196067Y-12980824D01*
X9329400Y-13180824D02*
X9310352Y-13171300D01*
X9310352Y-13171300D02*
X9300829Y-13152252D01*
X9300829Y-13152252D02*
X9300829Y-12980824D01*
X9557971Y-13180824D02*
X9557971Y-12980824D01*
X9557971Y-12980824D02*
X9624638Y-13123681D01*
X9624638Y-13123681D02*
X9691305Y-12980824D01*
X9691305Y-12980824D02*
X9691305Y-13180824D01*
X9872257Y-13180824D02*
X9872257Y-13076062D01*
X9872257Y-13076062D02*
X9862733Y-13057014D01*
X9862733Y-13057014D02*
X9843686Y-13047490D01*
X9843686Y-13047490D02*
X9805590Y-13047490D01*
X9805590Y-13047490D02*
X9786543Y-13057014D01*
X9872257Y-13171300D02*
X9853210Y-13180824D01*
X9853210Y-13180824D02*
X9805590Y-13180824D01*
X9805590Y-13180824D02*
X9786543Y-13171300D01*
X9786543Y-13171300D02*
X9777019Y-13152252D01*
X9777019Y-13152252D02*
X9777019Y-13133205D01*
X9777019Y-13133205D02*
X9786543Y-13114157D01*
X9786543Y-13114157D02*
X9805590Y-13104633D01*
X9805590Y-13104633D02*
X9853210Y-13104633D01*
X9853210Y-13104633D02*
X9872257Y-13095109D01*
X9967495Y-13047490D02*
X9967495Y-13247490D01*
X9967495Y-13057014D02*
X9986543Y-13047490D01*
X9986543Y-13047490D02*
X10024638Y-13047490D01*
X10024638Y-13047490D02*
X10043686Y-13057014D01*
X10043686Y-13057014D02*
X10053210Y-13066538D01*
X10053210Y-13066538D02*
X10062733Y-13085586D01*
X10062733Y-13085586D02*
X10062733Y-13142728D01*
X10062733Y-13142728D02*
X10053210Y-13161776D01*
X10053210Y-13161776D02*
X10043686Y-13171300D01*
X10043686Y-13171300D02*
X10024638Y-13180824D01*
X10024638Y-13180824D02*
X9986543Y-13180824D01*
X9986543Y-13180824D02*
X9967495Y-13171300D01*
X10148448Y-13161776D02*
X10157971Y-13171300D01*
X10157971Y-13171300D02*
X10148448Y-13180824D01*
X10148448Y-13180824D02*
X10138924Y-13171300D01*
X10138924Y-13171300D02*
X10148448Y-13161776D01*
X10148448Y-13161776D02*
X10148448Y-13180824D01*
X10148448Y-13057014D02*
X10157971Y-13066538D01*
X10157971Y-13066538D02*
X10148448Y-13076062D01*
X10148448Y-13076062D02*
X10138924Y-13066538D01*
X10138924Y-13066538D02*
X10148448Y-13057014D01*
X10148448Y-13057014D02*
X10148448Y-13076062D01*
D12*
X8449400Y-13468300D02*
X8529400Y-13548300D01*
X8529400Y-13468300D02*
X8449400Y-13548300D01*
D11*
X8815114Y-13400824D02*
X8834162Y-13400824D01*
X8834162Y-13400824D02*
X8853210Y-13410348D01*
X8853210Y-13410348D02*
X8862733Y-13419871D01*
X8862733Y-13419871D02*
X8872257Y-13438919D01*
X8872257Y-13438919D02*
X8881781Y-13477014D01*
X8881781Y-13477014D02*
X8881781Y-13524633D01*
X8881781Y-13524633D02*
X8872257Y-13562728D01*
X8872257Y-13562728D02*
X8862733Y-13581776D01*
X8862733Y-13581776D02*
X8853210Y-13591300D01*
X8853210Y-13591300D02*
X8834162Y-13600824D01*
X8834162Y-13600824D02*
X8815114Y-13600824D01*
X8815114Y-13600824D02*
X8796067Y-13591300D01*
X8796067Y-13591300D02*
X8786543Y-13581776D01*
X8786543Y-13581776D02*
X8777019Y-13562728D01*
X8777019Y-13562728D02*
X8767495Y-13524633D01*
X8767495Y-13524633D02*
X8767495Y-13477014D01*
X8767495Y-13477014D02*
X8777019Y-13438919D01*
X8777019Y-13438919D02*
X8786543Y-13419871D01*
X8786543Y-13419871D02*
X8796067Y-13410348D01*
X8796067Y-13410348D02*
X8815114Y-13400824D01*
X8967495Y-13581776D02*
X8977019Y-13591300D01*
X8977019Y-13591300D02*
X8967495Y-13600824D01*
X8967495Y-13600824D02*
X8957971Y-13591300D01*
X8957971Y-13591300D02*
X8967495Y-13581776D01*
X8967495Y-13581776D02*
X8967495Y-13600824D01*
X9091305Y-13486538D02*
X9072257Y-13477014D01*
X9072257Y-13477014D02*
X9062733Y-13467490D01*
X9062733Y-13467490D02*
X9053210Y-13448443D01*
X9053210Y-13448443D02*
X9053210Y-13438919D01*
X9053210Y-13438919D02*
X9062733Y-13419871D01*
X9062733Y-13419871D02*
X9072257Y-13410348D01*
X9072257Y-13410348D02*
X9091305Y-13400824D01*
X9091305Y-13400824D02*
X9129400Y-13400824D01*
X9129400Y-13400824D02*
X9148448Y-13410348D01*
X9148448Y-13410348D02*
X9157971Y-13419871D01*
X9157971Y-13419871D02*
X9167495Y-13438919D01*
X9167495Y-13438919D02*
X9167495Y-13448443D01*
X9167495Y-13448443D02*
X9157971Y-13467490D01*
X9157971Y-13467490D02*
X9148448Y-13477014D01*
X9148448Y-13477014D02*
X9129400Y-13486538D01*
X9129400Y-13486538D02*
X9091305Y-13486538D01*
X9091305Y-13486538D02*
X9072257Y-13496062D01*
X9072257Y-13496062D02*
X9062733Y-13505586D01*
X9062733Y-13505586D02*
X9053210Y-13524633D01*
X9053210Y-13524633D02*
X9053210Y-13562728D01*
X9053210Y-13562728D02*
X9062733Y-13581776D01*
X9062733Y-13581776D02*
X9072257Y-13591300D01*
X9072257Y-13591300D02*
X9091305Y-13600824D01*
X9091305Y-13600824D02*
X9129400Y-13600824D01*
X9129400Y-13600824D02*
X9148448Y-13591300D01*
X9148448Y-13591300D02*
X9157971Y-13581776D01*
X9157971Y-13581776D02*
X9167495Y-13562728D01*
X9167495Y-13562728D02*
X9167495Y-13524633D01*
X9167495Y-13524633D02*
X9157971Y-13505586D01*
X9157971Y-13505586D02*
X9148448Y-13496062D01*
X9148448Y-13496062D02*
X9129400Y-13486538D01*
X9291305Y-13400824D02*
X9310352Y-13400824D01*
X9310352Y-13400824D02*
X9329400Y-13410348D01*
X9329400Y-13410348D02*
X9338924Y-13419871D01*
X9338924Y-13419871D02*
X9348448Y-13438919D01*
X9348448Y-13438919D02*
X9357971Y-13477014D01*
X9357971Y-13477014D02*
X9357971Y-13524633D01*
X9357971Y-13524633D02*
X9348448Y-13562728D01*
X9348448Y-13562728D02*
X9338924Y-13581776D01*
X9338924Y-13581776D02*
X9329400Y-13591300D01*
X9329400Y-13591300D02*
X9310352Y-13600824D01*
X9310352Y-13600824D02*
X9291305Y-13600824D01*
X9291305Y-13600824D02*
X9272257Y-13591300D01*
X9272257Y-13591300D02*
X9262733Y-13581776D01*
X9262733Y-13581776D02*
X9253210Y-13562728D01*
X9253210Y-13562728D02*
X9243686Y-13524633D01*
X9243686Y-13524633D02*
X9243686Y-13477014D01*
X9243686Y-13477014D02*
X9253210Y-13438919D01*
X9253210Y-13438919D02*
X9262733Y-13419871D01*
X9262733Y-13419871D02*
X9272257Y-13410348D01*
X9272257Y-13410348D02*
X9291305Y-13400824D01*
X9481781Y-13400824D02*
X9500829Y-13400824D01*
X9500829Y-13400824D02*
X9519876Y-13410348D01*
X9519876Y-13410348D02*
X9529400Y-13419871D01*
X9529400Y-13419871D02*
X9538924Y-13438919D01*
X9538924Y-13438919D02*
X9548448Y-13477014D01*
X9548448Y-13477014D02*
X9548448Y-13524633D01*
X9548448Y-13524633D02*
X9538924Y-13562728D01*
X9538924Y-13562728D02*
X9529400Y-13581776D01*
X9529400Y-13581776D02*
X9519876Y-13591300D01*
X9519876Y-13591300D02*
X9500829Y-13600824D01*
X9500829Y-13600824D02*
X9481781Y-13600824D01*
X9481781Y-13600824D02*
X9462733Y-13591300D01*
X9462733Y-13591300D02*
X9453210Y-13581776D01*
X9453210Y-13581776D02*
X9443686Y-13562728D01*
X9443686Y-13562728D02*
X9434162Y-13524633D01*
X9434162Y-13524633D02*
X9434162Y-13477014D01*
X9434162Y-13477014D02*
X9443686Y-13438919D01*
X9443686Y-13438919D02*
X9453210Y-13419871D01*
X9453210Y-13419871D02*
X9462733Y-13410348D01*
X9462733Y-13410348D02*
X9481781Y-13400824D01*
X9634162Y-13600824D02*
X9634162Y-13467490D01*
X9634162Y-13486538D02*
X9643686Y-13477014D01*
X9643686Y-13477014D02*
X9662733Y-13467490D01*
X9662733Y-13467490D02*
X9691305Y-13467490D01*
X9691305Y-13467490D02*
X9710352Y-13477014D01*
X9710352Y-13477014D02*
X9719876Y-13496062D01*
X9719876Y-13496062D02*
X9719876Y-13600824D01*
X9719876Y-13496062D02*
X9729400Y-13477014D01*
X9729400Y-13477014D02*
X9748448Y-13467490D01*
X9748448Y-13467490D02*
X9777019Y-13467490D01*
X9777019Y-13467490D02*
X9796067Y-13477014D01*
X9796067Y-13477014D02*
X9805591Y-13496062D01*
X9805591Y-13496062D02*
X9805591Y-13600824D01*
X9900829Y-13600824D02*
X9900829Y-13467490D01*
X9900829Y-13486538D02*
X9910352Y-13477014D01*
X9910352Y-13477014D02*
X9929400Y-13467490D01*
X9929400Y-13467490D02*
X9957972Y-13467490D01*
X9957972Y-13467490D02*
X9977019Y-13477014D01*
X9977019Y-13477014D02*
X9986543Y-13496062D01*
X9986543Y-13496062D02*
X9986543Y-13600824D01*
X9986543Y-13496062D02*
X9996067Y-13477014D01*
X9996067Y-13477014D02*
X10015114Y-13467490D01*
X10015114Y-13467490D02*
X10043686Y-13467490D01*
X10043686Y-13467490D02*
X10062733Y-13477014D01*
X10062733Y-13477014D02*
X10072257Y-13496062D01*
X10072257Y-13496062D02*
X10072257Y-13600824D01*
X10462733Y-13391300D02*
X10291305Y-13648443D01*
X10719876Y-13400824D02*
X10738924Y-13400824D01*
X10738924Y-13400824D02*
X10757972Y-13410348D01*
X10757972Y-13410348D02*
X10767495Y-13419871D01*
X10767495Y-13419871D02*
X10777019Y-13438919D01*
X10777019Y-13438919D02*
X10786543Y-13477014D01*
X10786543Y-13477014D02*
X10786543Y-13524633D01*
X10786543Y-13524633D02*
X10777019Y-13562728D01*
X10777019Y-13562728D02*
X10767495Y-13581776D01*
X10767495Y-13581776D02*
X10757972Y-13591300D01*
X10757972Y-13591300D02*
X10738924Y-13600824D01*
X10738924Y-13600824D02*
X10719876Y-13600824D01*
X10719876Y-13600824D02*
X10700829Y-13591300D01*
X10700829Y-13591300D02*
X10691305Y-13581776D01*
X10691305Y-13581776D02*
X10681781Y-13562728D01*
X10681781Y-13562728D02*
X10672257Y-13524633D01*
X10672257Y-13524633D02*
X10672257Y-13477014D01*
X10672257Y-13477014D02*
X10681781Y-13438919D01*
X10681781Y-13438919D02*
X10691305Y-13419871D01*
X10691305Y-13419871D02*
X10700829Y-13410348D01*
X10700829Y-13410348D02*
X10719876Y-13400824D01*
X10872257Y-13581776D02*
X10881781Y-13591300D01*
X10881781Y-13591300D02*
X10872257Y-13600824D01*
X10872257Y-13600824D02*
X10862734Y-13591300D01*
X10862734Y-13591300D02*
X10872257Y-13581776D01*
X10872257Y-13581776D02*
X10872257Y-13600824D01*
X11005591Y-13400824D02*
X11024638Y-13400824D01*
X11024638Y-13400824D02*
X11043686Y-13410348D01*
X11043686Y-13410348D02*
X11053210Y-13419871D01*
X11053210Y-13419871D02*
X11062734Y-13438919D01*
X11062734Y-13438919D02*
X11072257Y-13477014D01*
X11072257Y-13477014D02*
X11072257Y-13524633D01*
X11072257Y-13524633D02*
X11062734Y-13562728D01*
X11062734Y-13562728D02*
X11053210Y-13581776D01*
X11053210Y-13581776D02*
X11043686Y-13591300D01*
X11043686Y-13591300D02*
X11024638Y-13600824D01*
X11024638Y-13600824D02*
X11005591Y-13600824D01*
X11005591Y-13600824D02*
X10986543Y-13591300D01*
X10986543Y-13591300D02*
X10977019Y-13581776D01*
X10977019Y-13581776D02*
X10967495Y-13562728D01*
X10967495Y-13562728D02*
X10957972Y-13524633D01*
X10957972Y-13524633D02*
X10957972Y-13477014D01*
X10957972Y-13477014D02*
X10967495Y-13438919D01*
X10967495Y-13438919D02*
X10977019Y-13419871D01*
X10977019Y-13419871D02*
X10986543Y-13410348D01*
X10986543Y-13410348D02*
X11005591Y-13400824D01*
X11138924Y-13400824D02*
X11262733Y-13400824D01*
X11262733Y-13400824D02*
X11196067Y-13477014D01*
X11196067Y-13477014D02*
X11224638Y-13477014D01*
X11224638Y-13477014D02*
X11243686Y-13486538D01*
X11243686Y-13486538D02*
X11253210Y-13496062D01*
X11253210Y-13496062D02*
X11262733Y-13515109D01*
X11262733Y-13515109D02*
X11262733Y-13562728D01*
X11262733Y-13562728D02*
X11253210Y-13581776D01*
X11253210Y-13581776D02*
X11243686Y-13591300D01*
X11243686Y-13591300D02*
X11224638Y-13600824D01*
X11224638Y-13600824D02*
X11167495Y-13600824D01*
X11167495Y-13600824D02*
X11148448Y-13591300D01*
X11148448Y-13591300D02*
X11138924Y-13581776D01*
X11453210Y-13600824D02*
X11338924Y-13600824D01*
X11396067Y-13600824D02*
X11396067Y-13400824D01*
X11396067Y-13400824D02*
X11377019Y-13429395D01*
X11377019Y-13429395D02*
X11357972Y-13448443D01*
X11357972Y-13448443D02*
X11338924Y-13457967D01*
X11634162Y-13400824D02*
X11538924Y-13400824D01*
X11538924Y-13400824D02*
X11529400Y-13496062D01*
X11529400Y-13496062D02*
X11538924Y-13486538D01*
X11538924Y-13486538D02*
X11557972Y-13477014D01*
X11557972Y-13477014D02*
X11605591Y-13477014D01*
X11605591Y-13477014D02*
X11624638Y-13486538D01*
X11624638Y-13486538D02*
X11634162Y-13496062D01*
X11634162Y-13496062D02*
X11643686Y-13515109D01*
X11643686Y-13515109D02*
X11643686Y-13562728D01*
X11643686Y-13562728D02*
X11634162Y-13581776D01*
X11634162Y-13581776D02*
X11624638Y-13591300D01*
X11624638Y-13591300D02*
X11605591Y-13600824D01*
X11605591Y-13600824D02*
X11557972Y-13600824D01*
X11557972Y-13600824D02*
X11538924Y-13591300D01*
X11538924Y-13591300D02*
X11529400Y-13581776D01*
X11719876Y-13400824D02*
X11719876Y-13438919D01*
X11796067Y-13400824D02*
X11796067Y-13438919D01*
X12091305Y-13677014D02*
X12081781Y-13667490D01*
X12081781Y-13667490D02*
X12062734Y-13638919D01*
X12062734Y-13638919D02*
X12053210Y-13619871D01*
X12053210Y-13619871D02*
X12043686Y-13591300D01*
X12043686Y-13591300D02*
X12034162Y-13543681D01*
X12034162Y-13543681D02*
X12034162Y-13505586D01*
X12034162Y-13505586D02*
X12043686Y-13457967D01*
X12043686Y-13457967D02*
X12053210Y-13429395D01*
X12053210Y-13429395D02*
X12062734Y-13410348D01*
X12062734Y-13410348D02*
X12081781Y-13381776D01*
X12081781Y-13381776D02*
X12091305Y-13372252D01*
X12148448Y-13400824D02*
X12272257Y-13400824D01*
X12272257Y-13400824D02*
X12205591Y-13477014D01*
X12205591Y-13477014D02*
X12234162Y-13477014D01*
X12234162Y-13477014D02*
X12253210Y-13486538D01*
X12253210Y-13486538D02*
X12262734Y-13496062D01*
X12262734Y-13496062D02*
X12272257Y-13515109D01*
X12272257Y-13515109D02*
X12272257Y-13562728D01*
X12272257Y-13562728D02*
X12262734Y-13581776D01*
X12262734Y-13581776D02*
X12253210Y-13591300D01*
X12253210Y-13591300D02*
X12234162Y-13600824D01*
X12234162Y-13600824D02*
X12177019Y-13600824D01*
X12177019Y-13600824D02*
X12157972Y-13591300D01*
X12157972Y-13591300D02*
X12148448Y-13581776D01*
X12443686Y-13400824D02*
X12405591Y-13400824D01*
X12405591Y-13400824D02*
X12386543Y-13410348D01*
X12386543Y-13410348D02*
X12377019Y-13419871D01*
X12377019Y-13419871D02*
X12357972Y-13448443D01*
X12357972Y-13448443D02*
X12348448Y-13486538D01*
X12348448Y-13486538D02*
X12348448Y-13562728D01*
X12348448Y-13562728D02*
X12357972Y-13581776D01*
X12357972Y-13581776D02*
X12367495Y-13591300D01*
X12367495Y-13591300D02*
X12386543Y-13600824D01*
X12386543Y-13600824D02*
X12424638Y-13600824D01*
X12424638Y-13600824D02*
X12443686Y-13591300D01*
X12443686Y-13591300D02*
X12453210Y-13581776D01*
X12453210Y-13581776D02*
X12462734Y-13562728D01*
X12462734Y-13562728D02*
X12462734Y-13515109D01*
X12462734Y-13515109D02*
X12453210Y-13496062D01*
X12453210Y-13496062D02*
X12443686Y-13486538D01*
X12443686Y-13486538D02*
X12424638Y-13477014D01*
X12424638Y-13477014D02*
X12386543Y-13477014D01*
X12386543Y-13477014D02*
X12367495Y-13486538D01*
X12367495Y-13486538D02*
X12357972Y-13496062D01*
X12357972Y-13496062D02*
X12348448Y-13515109D01*
X12700829Y-13600824D02*
X12700829Y-13400824D01*
X12786543Y-13600824D02*
X12786543Y-13496062D01*
X12786543Y-13496062D02*
X12777019Y-13477014D01*
X12777019Y-13477014D02*
X12757972Y-13467490D01*
X12757972Y-13467490D02*
X12729400Y-13467490D01*
X12729400Y-13467490D02*
X12710353Y-13477014D01*
X12710353Y-13477014D02*
X12700829Y-13486538D01*
X12910353Y-13600824D02*
X12891305Y-13591300D01*
X12891305Y-13591300D02*
X12881781Y-13581776D01*
X12881781Y-13581776D02*
X12872257Y-13562728D01*
X12872257Y-13562728D02*
X12872257Y-13505586D01*
X12872257Y-13505586D02*
X12881781Y-13486538D01*
X12881781Y-13486538D02*
X12891305Y-13477014D01*
X12891305Y-13477014D02*
X12910353Y-13467490D01*
X12910353Y-13467490D02*
X12938924Y-13467490D01*
X12938924Y-13467490D02*
X12957972Y-13477014D01*
X12957972Y-13477014D02*
X12967496Y-13486538D01*
X12967496Y-13486538D02*
X12977019Y-13505586D01*
X12977019Y-13505586D02*
X12977019Y-13562728D01*
X12977019Y-13562728D02*
X12967496Y-13581776D01*
X12967496Y-13581776D02*
X12957972Y-13591300D01*
X12957972Y-13591300D02*
X12938924Y-13600824D01*
X12938924Y-13600824D02*
X12910353Y-13600824D01*
X13091305Y-13600824D02*
X13072257Y-13591300D01*
X13072257Y-13591300D02*
X13062734Y-13572252D01*
X13062734Y-13572252D02*
X13062734Y-13400824D01*
X13243686Y-13591300D02*
X13224638Y-13600824D01*
X13224638Y-13600824D02*
X13186543Y-13600824D01*
X13186543Y-13600824D02*
X13167496Y-13591300D01*
X13167496Y-13591300D02*
X13157972Y-13572252D01*
X13157972Y-13572252D02*
X13157972Y-13496062D01*
X13157972Y-13496062D02*
X13167496Y-13477014D01*
X13167496Y-13477014D02*
X13186543Y-13467490D01*
X13186543Y-13467490D02*
X13224638Y-13467490D01*
X13224638Y-13467490D02*
X13243686Y-13477014D01*
X13243686Y-13477014D02*
X13253210Y-13496062D01*
X13253210Y-13496062D02*
X13253210Y-13515109D01*
X13253210Y-13515109D02*
X13157972Y-13534157D01*
X13329400Y-13591300D02*
X13348448Y-13600824D01*
X13348448Y-13600824D02*
X13386543Y-13600824D01*
X13386543Y-13600824D02*
X13405591Y-13591300D01*
X13405591Y-13591300D02*
X13415115Y-13572252D01*
X13415115Y-13572252D02*
X13415115Y-13562728D01*
X13415115Y-13562728D02*
X13405591Y-13543681D01*
X13405591Y-13543681D02*
X13386543Y-13534157D01*
X13386543Y-13534157D02*
X13357972Y-13534157D01*
X13357972Y-13534157D02*
X13338924Y-13524633D01*
X13338924Y-13524633D02*
X13329400Y-13505586D01*
X13329400Y-13505586D02*
X13329400Y-13496062D01*
X13329400Y-13496062D02*
X13338924Y-13477014D01*
X13338924Y-13477014D02*
X13357972Y-13467490D01*
X13357972Y-13467490D02*
X13386543Y-13467490D01*
X13386543Y-13467490D02*
X13405591Y-13477014D01*
X13481781Y-13677014D02*
X13491305Y-13667490D01*
X13491305Y-13667490D02*
X13510353Y-13638919D01*
X13510353Y-13638919D02*
X13519877Y-13619871D01*
X13519877Y-13619871D02*
X13529400Y-13591300D01*
X13529400Y-13591300D02*
X13538924Y-13543681D01*
X13538924Y-13543681D02*
X13538924Y-13505586D01*
X13538924Y-13505586D02*
X13529400Y-13457967D01*
X13529400Y-13457967D02*
X13519877Y-13429395D01*
X13519877Y-13429395D02*
X13510353Y-13410348D01*
X13510353Y-13410348D02*
X13491305Y-13381776D01*
X13491305Y-13381776D02*
X13481781Y-13372252D01*
D10*
X8529400Y-13772300D02*
G75*
G03*
X8529400Y-13772300I-50000J0D01*
G01*
D11*
X8881781Y-13864824D02*
X8767495Y-13864824D01*
X8824638Y-13864824D02*
X8824638Y-13664824D01*
X8824638Y-13664824D02*
X8805590Y-13693395D01*
X8805590Y-13693395D02*
X8786543Y-13712443D01*
X8786543Y-13712443D02*
X8767495Y-13721967D01*
X8967495Y-13845776D02*
X8977019Y-13855300D01*
X8977019Y-13855300D02*
X8967495Y-13864824D01*
X8967495Y-13864824D02*
X8957971Y-13855300D01*
X8957971Y-13855300D02*
X8967495Y-13845776D01*
X8967495Y-13845776D02*
X8967495Y-13864824D01*
X9100829Y-13664824D02*
X9119876Y-13664824D01*
X9119876Y-13664824D02*
X9138924Y-13674348D01*
X9138924Y-13674348D02*
X9148448Y-13683871D01*
X9148448Y-13683871D02*
X9157971Y-13702919D01*
X9157971Y-13702919D02*
X9167495Y-13741014D01*
X9167495Y-13741014D02*
X9167495Y-13788633D01*
X9167495Y-13788633D02*
X9157971Y-13826728D01*
X9157971Y-13826728D02*
X9148448Y-13845776D01*
X9148448Y-13845776D02*
X9138924Y-13855300D01*
X9138924Y-13855300D02*
X9119876Y-13864824D01*
X9119876Y-13864824D02*
X9100829Y-13864824D01*
X9100829Y-13864824D02*
X9081781Y-13855300D01*
X9081781Y-13855300D02*
X9072257Y-13845776D01*
X9072257Y-13845776D02*
X9062733Y-13826728D01*
X9062733Y-13826728D02*
X9053210Y-13788633D01*
X9053210Y-13788633D02*
X9053210Y-13741014D01*
X9053210Y-13741014D02*
X9062733Y-13702919D01*
X9062733Y-13702919D02*
X9072257Y-13683871D01*
X9072257Y-13683871D02*
X9081781Y-13674348D01*
X9081781Y-13674348D02*
X9100829Y-13664824D01*
X9291305Y-13664824D02*
X9310352Y-13664824D01*
X9310352Y-13664824D02*
X9329400Y-13674348D01*
X9329400Y-13674348D02*
X9338924Y-13683871D01*
X9338924Y-13683871D02*
X9348448Y-13702919D01*
X9348448Y-13702919D02*
X9357971Y-13741014D01*
X9357971Y-13741014D02*
X9357971Y-13788633D01*
X9357971Y-13788633D02*
X9348448Y-13826728D01*
X9348448Y-13826728D02*
X9338924Y-13845776D01*
X9338924Y-13845776D02*
X9329400Y-13855300D01*
X9329400Y-13855300D02*
X9310352Y-13864824D01*
X9310352Y-13864824D02*
X9291305Y-13864824D01*
X9291305Y-13864824D02*
X9272257Y-13855300D01*
X9272257Y-13855300D02*
X9262733Y-13845776D01*
X9262733Y-13845776D02*
X9253210Y-13826728D01*
X9253210Y-13826728D02*
X9243686Y-13788633D01*
X9243686Y-13788633D02*
X9243686Y-13741014D01*
X9243686Y-13741014D02*
X9253210Y-13702919D01*
X9253210Y-13702919D02*
X9262733Y-13683871D01*
X9262733Y-13683871D02*
X9272257Y-13674348D01*
X9272257Y-13674348D02*
X9291305Y-13664824D01*
X9481781Y-13664824D02*
X9500829Y-13664824D01*
X9500829Y-13664824D02*
X9519876Y-13674348D01*
X9519876Y-13674348D02*
X9529400Y-13683871D01*
X9529400Y-13683871D02*
X9538924Y-13702919D01*
X9538924Y-13702919D02*
X9548448Y-13741014D01*
X9548448Y-13741014D02*
X9548448Y-13788633D01*
X9548448Y-13788633D02*
X9538924Y-13826728D01*
X9538924Y-13826728D02*
X9529400Y-13845776D01*
X9529400Y-13845776D02*
X9519876Y-13855300D01*
X9519876Y-13855300D02*
X9500829Y-13864824D01*
X9500829Y-13864824D02*
X9481781Y-13864824D01*
X9481781Y-13864824D02*
X9462733Y-13855300D01*
X9462733Y-13855300D02*
X9453210Y-13845776D01*
X9453210Y-13845776D02*
X9443686Y-13826728D01*
X9443686Y-13826728D02*
X9434162Y-13788633D01*
X9434162Y-13788633D02*
X9434162Y-13741014D01*
X9434162Y-13741014D02*
X9443686Y-13702919D01*
X9443686Y-13702919D02*
X9453210Y-13683871D01*
X9453210Y-13683871D02*
X9462733Y-13674348D01*
X9462733Y-13674348D02*
X9481781Y-13664824D01*
X9634162Y-13864824D02*
X9634162Y-13731490D01*
X9634162Y-13750538D02*
X9643686Y-13741014D01*
X9643686Y-13741014D02*
X9662733Y-13731490D01*
X9662733Y-13731490D02*
X9691305Y-13731490D01*
X9691305Y-13731490D02*
X9710352Y-13741014D01*
X9710352Y-13741014D02*
X9719876Y-13760062D01*
X9719876Y-13760062D02*
X9719876Y-13864824D01*
X9719876Y-13760062D02*
X9729400Y-13741014D01*
X9729400Y-13741014D02*
X9748448Y-13731490D01*
X9748448Y-13731490D02*
X9777019Y-13731490D01*
X9777019Y-13731490D02*
X9796067Y-13741014D01*
X9796067Y-13741014D02*
X9805591Y-13760062D01*
X9805591Y-13760062D02*
X9805591Y-13864824D01*
X9900829Y-13864824D02*
X9900829Y-13731490D01*
X9900829Y-13750538D02*
X9910352Y-13741014D01*
X9910352Y-13741014D02*
X9929400Y-13731490D01*
X9929400Y-13731490D02*
X9957972Y-13731490D01*
X9957972Y-13731490D02*
X9977019Y-13741014D01*
X9977019Y-13741014D02*
X9986543Y-13760062D01*
X9986543Y-13760062D02*
X9986543Y-13864824D01*
X9986543Y-13760062D02*
X9996067Y-13741014D01*
X9996067Y-13741014D02*
X10015114Y-13731490D01*
X10015114Y-13731490D02*
X10043686Y-13731490D01*
X10043686Y-13731490D02*
X10062733Y-13741014D01*
X10062733Y-13741014D02*
X10072257Y-13760062D01*
X10072257Y-13760062D02*
X10072257Y-13864824D01*
X10462733Y-13655300D02*
X10291305Y-13912443D01*
X10719876Y-13664824D02*
X10738924Y-13664824D01*
X10738924Y-13664824D02*
X10757972Y-13674348D01*
X10757972Y-13674348D02*
X10767495Y-13683871D01*
X10767495Y-13683871D02*
X10777019Y-13702919D01*
X10777019Y-13702919D02*
X10786543Y-13741014D01*
X10786543Y-13741014D02*
X10786543Y-13788633D01*
X10786543Y-13788633D02*
X10777019Y-13826728D01*
X10777019Y-13826728D02*
X10767495Y-13845776D01*
X10767495Y-13845776D02*
X10757972Y-13855300D01*
X10757972Y-13855300D02*
X10738924Y-13864824D01*
X10738924Y-13864824D02*
X10719876Y-13864824D01*
X10719876Y-13864824D02*
X10700829Y-13855300D01*
X10700829Y-13855300D02*
X10691305Y-13845776D01*
X10691305Y-13845776D02*
X10681781Y-13826728D01*
X10681781Y-13826728D02*
X10672257Y-13788633D01*
X10672257Y-13788633D02*
X10672257Y-13741014D01*
X10672257Y-13741014D02*
X10681781Y-13702919D01*
X10681781Y-13702919D02*
X10691305Y-13683871D01*
X10691305Y-13683871D02*
X10700829Y-13674348D01*
X10700829Y-13674348D02*
X10719876Y-13664824D01*
X10872257Y-13845776D02*
X10881781Y-13855300D01*
X10881781Y-13855300D02*
X10872257Y-13864824D01*
X10872257Y-13864824D02*
X10862734Y-13855300D01*
X10862734Y-13855300D02*
X10872257Y-13845776D01*
X10872257Y-13845776D02*
X10872257Y-13864824D01*
X11005591Y-13664824D02*
X11024638Y-13664824D01*
X11024638Y-13664824D02*
X11043686Y-13674348D01*
X11043686Y-13674348D02*
X11053210Y-13683871D01*
X11053210Y-13683871D02*
X11062734Y-13702919D01*
X11062734Y-13702919D02*
X11072257Y-13741014D01*
X11072257Y-13741014D02*
X11072257Y-13788633D01*
X11072257Y-13788633D02*
X11062734Y-13826728D01*
X11062734Y-13826728D02*
X11053210Y-13845776D01*
X11053210Y-13845776D02*
X11043686Y-13855300D01*
X11043686Y-13855300D02*
X11024638Y-13864824D01*
X11024638Y-13864824D02*
X11005591Y-13864824D01*
X11005591Y-13864824D02*
X10986543Y-13855300D01*
X10986543Y-13855300D02*
X10977019Y-13845776D01*
X10977019Y-13845776D02*
X10967495Y-13826728D01*
X10967495Y-13826728D02*
X10957972Y-13788633D01*
X10957972Y-13788633D02*
X10957972Y-13741014D01*
X10957972Y-13741014D02*
X10967495Y-13702919D01*
X10967495Y-13702919D02*
X10977019Y-13683871D01*
X10977019Y-13683871D02*
X10986543Y-13674348D01*
X10986543Y-13674348D02*
X11005591Y-13664824D01*
X11138924Y-13664824D02*
X11262733Y-13664824D01*
X11262733Y-13664824D02*
X11196067Y-13741014D01*
X11196067Y-13741014D02*
X11224638Y-13741014D01*
X11224638Y-13741014D02*
X11243686Y-13750538D01*
X11243686Y-13750538D02*
X11253210Y-13760062D01*
X11253210Y-13760062D02*
X11262733Y-13779109D01*
X11262733Y-13779109D02*
X11262733Y-13826728D01*
X11262733Y-13826728D02*
X11253210Y-13845776D01*
X11253210Y-13845776D02*
X11243686Y-13855300D01*
X11243686Y-13855300D02*
X11224638Y-13864824D01*
X11224638Y-13864824D02*
X11167495Y-13864824D01*
X11167495Y-13864824D02*
X11148448Y-13855300D01*
X11148448Y-13855300D02*
X11138924Y-13845776D01*
X11357972Y-13864824D02*
X11396067Y-13864824D01*
X11396067Y-13864824D02*
X11415114Y-13855300D01*
X11415114Y-13855300D02*
X11424638Y-13845776D01*
X11424638Y-13845776D02*
X11443686Y-13817205D01*
X11443686Y-13817205D02*
X11453210Y-13779109D01*
X11453210Y-13779109D02*
X11453210Y-13702919D01*
X11453210Y-13702919D02*
X11443686Y-13683871D01*
X11443686Y-13683871D02*
X11434162Y-13674348D01*
X11434162Y-13674348D02*
X11415114Y-13664824D01*
X11415114Y-13664824D02*
X11377019Y-13664824D01*
X11377019Y-13664824D02*
X11357972Y-13674348D01*
X11357972Y-13674348D02*
X11348448Y-13683871D01*
X11348448Y-13683871D02*
X11338924Y-13702919D01*
X11338924Y-13702919D02*
X11338924Y-13750538D01*
X11338924Y-13750538D02*
X11348448Y-13769586D01*
X11348448Y-13769586D02*
X11357972Y-13779109D01*
X11357972Y-13779109D02*
X11377019Y-13788633D01*
X11377019Y-13788633D02*
X11415114Y-13788633D01*
X11415114Y-13788633D02*
X11434162Y-13779109D01*
X11434162Y-13779109D02*
X11443686Y-13769586D01*
X11443686Y-13769586D02*
X11453210Y-13750538D01*
X11624638Y-13731490D02*
X11624638Y-13864824D01*
X11577019Y-13655300D02*
X11529400Y-13798157D01*
X11529400Y-13798157D02*
X11653210Y-13798157D01*
X11719876Y-13664824D02*
X11719876Y-13702919D01*
X11796067Y-13664824D02*
X11796067Y-13702919D01*
X12091305Y-13941014D02*
X12081781Y-13931490D01*
X12081781Y-13931490D02*
X12062734Y-13902919D01*
X12062734Y-13902919D02*
X12053210Y-13883871D01*
X12053210Y-13883871D02*
X12043686Y-13855300D01*
X12043686Y-13855300D02*
X12034162Y-13807681D01*
X12034162Y-13807681D02*
X12034162Y-13769586D01*
X12034162Y-13769586D02*
X12043686Y-13721967D01*
X12043686Y-13721967D02*
X12053210Y-13693395D01*
X12053210Y-13693395D02*
X12062734Y-13674348D01*
X12062734Y-13674348D02*
X12081781Y-13645776D01*
X12081781Y-13645776D02*
X12091305Y-13636252D01*
X12272257Y-13864824D02*
X12157972Y-13864824D01*
X12215114Y-13864824D02*
X12215114Y-13664824D01*
X12215114Y-13664824D02*
X12196067Y-13693395D01*
X12196067Y-13693395D02*
X12177019Y-13712443D01*
X12177019Y-13712443D02*
X12157972Y-13721967D01*
X12462734Y-13864824D02*
X12348448Y-13864824D01*
X12405591Y-13864824D02*
X12405591Y-13664824D01*
X12405591Y-13664824D02*
X12386543Y-13693395D01*
X12386543Y-13693395D02*
X12367495Y-13712443D01*
X12367495Y-13712443D02*
X12348448Y-13721967D01*
X12577019Y-13750538D02*
X12557972Y-13741014D01*
X12557972Y-13741014D02*
X12548448Y-13731490D01*
X12548448Y-13731490D02*
X12538924Y-13712443D01*
X12538924Y-13712443D02*
X12538924Y-13702919D01*
X12538924Y-13702919D02*
X12548448Y-13683871D01*
X12548448Y-13683871D02*
X12557972Y-13674348D01*
X12557972Y-13674348D02*
X12577019Y-13664824D01*
X12577019Y-13664824D02*
X12615115Y-13664824D01*
X12615115Y-13664824D02*
X12634162Y-13674348D01*
X12634162Y-13674348D02*
X12643686Y-13683871D01*
X12643686Y-13683871D02*
X12653210Y-13702919D01*
X12653210Y-13702919D02*
X12653210Y-13712443D01*
X12653210Y-13712443D02*
X12643686Y-13731490D01*
X12643686Y-13731490D02*
X12634162Y-13741014D01*
X12634162Y-13741014D02*
X12615115Y-13750538D01*
X12615115Y-13750538D02*
X12577019Y-13750538D01*
X12577019Y-13750538D02*
X12557972Y-13760062D01*
X12557972Y-13760062D02*
X12548448Y-13769586D01*
X12548448Y-13769586D02*
X12538924Y-13788633D01*
X12538924Y-13788633D02*
X12538924Y-13826728D01*
X12538924Y-13826728D02*
X12548448Y-13845776D01*
X12548448Y-13845776D02*
X12557972Y-13855300D01*
X12557972Y-13855300D02*
X12577019Y-13864824D01*
X12577019Y-13864824D02*
X12615115Y-13864824D01*
X12615115Y-13864824D02*
X12634162Y-13855300D01*
X12634162Y-13855300D02*
X12643686Y-13845776D01*
X12643686Y-13845776D02*
X12653210Y-13826728D01*
X12653210Y-13826728D02*
X12653210Y-13788633D01*
X12653210Y-13788633D02*
X12643686Y-13769586D01*
X12643686Y-13769586D02*
X12634162Y-13760062D01*
X12634162Y-13760062D02*
X12615115Y-13750538D01*
X12891305Y-13864824D02*
X12891305Y-13664824D01*
X12977019Y-13864824D02*
X12977019Y-13760062D01*
X12977019Y-13760062D02*
X12967496Y-13741014D01*
X12967496Y-13741014D02*
X12948448Y-13731490D01*
X12948448Y-13731490D02*
X12919876Y-13731490D01*
X12919876Y-13731490D02*
X12900829Y-13741014D01*
X12900829Y-13741014D02*
X12891305Y-13750538D01*
X13100829Y-13864824D02*
X13081781Y-13855300D01*
X13081781Y-13855300D02*
X13072257Y-13845776D01*
X13072257Y-13845776D02*
X13062734Y-13826728D01*
X13062734Y-13826728D02*
X13062734Y-13769586D01*
X13062734Y-13769586D02*
X13072257Y-13750538D01*
X13072257Y-13750538D02*
X13081781Y-13741014D01*
X13081781Y-13741014D02*
X13100829Y-13731490D01*
X13100829Y-13731490D02*
X13129400Y-13731490D01*
X13129400Y-13731490D02*
X13148448Y-13741014D01*
X13148448Y-13741014D02*
X13157972Y-13750538D01*
X13157972Y-13750538D02*
X13167496Y-13769586D01*
X13167496Y-13769586D02*
X13167496Y-13826728D01*
X13167496Y-13826728D02*
X13157972Y-13845776D01*
X13157972Y-13845776D02*
X13148448Y-13855300D01*
X13148448Y-13855300D02*
X13129400Y-13864824D01*
X13129400Y-13864824D02*
X13100829Y-13864824D01*
X13281781Y-13864824D02*
X13262734Y-13855300D01*
X13262734Y-13855300D02*
X13253210Y-13836252D01*
X13253210Y-13836252D02*
X13253210Y-13664824D01*
X13434162Y-13855300D02*
X13415115Y-13864824D01*
X13415115Y-13864824D02*
X13377019Y-13864824D01*
X13377019Y-13864824D02*
X13357972Y-13855300D01*
X13357972Y-13855300D02*
X13348448Y-13836252D01*
X13348448Y-13836252D02*
X13348448Y-13760062D01*
X13348448Y-13760062D02*
X13357972Y-13741014D01*
X13357972Y-13741014D02*
X13377019Y-13731490D01*
X13377019Y-13731490D02*
X13415115Y-13731490D01*
X13415115Y-13731490D02*
X13434162Y-13741014D01*
X13434162Y-13741014D02*
X13443686Y-13760062D01*
X13443686Y-13760062D02*
X13443686Y-13779109D01*
X13443686Y-13779109D02*
X13348448Y-13798157D01*
X13519877Y-13855300D02*
X13538924Y-13864824D01*
X13538924Y-13864824D02*
X13577019Y-13864824D01*
X13577019Y-13864824D02*
X13596067Y-13855300D01*
X13596067Y-13855300D02*
X13605591Y-13836252D01*
X13605591Y-13836252D02*
X13605591Y-13826728D01*
X13605591Y-13826728D02*
X13596067Y-13807681D01*
X13596067Y-13807681D02*
X13577019Y-13798157D01*
X13577019Y-13798157D02*
X13548448Y-13798157D01*
X13548448Y-13798157D02*
X13529400Y-13788633D01*
X13529400Y-13788633D02*
X13519877Y-13769586D01*
X13519877Y-13769586D02*
X13519877Y-13760062D01*
X13519877Y-13760062D02*
X13529400Y-13741014D01*
X13529400Y-13741014D02*
X13548448Y-13731490D01*
X13548448Y-13731490D02*
X13577019Y-13731490D01*
X13577019Y-13731490D02*
X13596067Y-13741014D01*
X13672258Y-13941014D02*
X13681781Y-13931490D01*
X13681781Y-13931490D02*
X13700829Y-13902919D01*
X13700829Y-13902919D02*
X13710353Y-13883871D01*
X13710353Y-13883871D02*
X13719877Y-13855300D01*
X13719877Y-13855300D02*
X13729400Y-13807681D01*
X13729400Y-13807681D02*
X13729400Y-13769586D01*
X13729400Y-13769586D02*
X13719877Y-13721967D01*
X13719877Y-13721967D02*
X13710353Y-13693395D01*
X13710353Y-13693395D02*
X13700829Y-13674348D01*
X13700829Y-13674348D02*
X13681781Y-13645776D01*
X13681781Y-13645776D02*
X13672258Y-13636252D01*
M02*
