%TF.GenerationSoftware,KiCad,Pcbnew,7.0.2*%
%TF.CreationDate,2023-05-18T09:18:09-03:00*%
%TF.ProjectId,placaSensIC075,706c6163-6153-4656-9e73-49433037352e,rev?*%
%TF.SameCoordinates,Original*%
%TF.FileFunction,Copper,L2,Bot*%
%TF.FilePolarity,Positive*%
%FSLAX46Y46*%
G04 Gerber Fmt 4.6, Leading zero omitted, Abs format (unit mm)*
G04 Created by KiCad (PCBNEW 7.0.2) date 2023-05-18 09:18:09*
%MOMM*%
%LPD*%
G01*
G04 APERTURE LIST*
%TA.AperFunction,ComponentPad*%
%ADD10R,1.700000X1.700000*%
%TD*%
%TA.AperFunction,ComponentPad*%
%ADD11O,1.700000X1.700000*%
%TD*%
%TA.AperFunction,ComponentPad*%
%ADD12R,1.600000X1.600000*%
%TD*%
%TA.AperFunction,ComponentPad*%
%ADD13C,1.600000*%
%TD*%
%TA.AperFunction,ComponentPad*%
%ADD14C,1.440000*%
%TD*%
%TA.AperFunction,Conductor*%
%ADD15C,0.250000*%
%TD*%
G04 APERTURE END LIST*
D10*
%TO.P,J12,1,Pin_1*%
%TO.N,Net-(J12-Pin_1)*%
X90750000Y-92370000D03*
D11*
%TO.P,J12,2,Pin_2*%
%TO.N,Net-(J12-Pin_2)*%
X93290000Y-92370000D03*
%TO.P,J12,3,Pin_3*%
%TO.N,Net-(J12-Pin_3)*%
X95830000Y-92370000D03*
%TO.P,J12,4,Pin_4*%
%TO.N,Net-(J12-Pin_4)*%
X98370000Y-92370000D03*
%TO.P,J12,5,Pin_5*%
%TO.N,Net-(J12-Pin_5)*%
X100910000Y-92370000D03*
%TO.P,J12,6,Pin_6*%
%TO.N,Net-(J12-Pin_6)*%
X103450000Y-92370000D03*
%TO.P,J12,7,Pin_7*%
%TO.N,Net-(J12-Pin_7)*%
X105990000Y-92370000D03*
%TO.P,J12,8,Pin_8*%
%TO.N,Net-(J12-Pin_8)*%
X108530000Y-92370000D03*
%TO.P,J12,9,Pin_9*%
%TO.N,Net-(J12-Pin_9)*%
X111070000Y-92370000D03*
%TO.P,J12,10,Pin_10*%
%TO.N,Net-(J12-Pin_10)*%
X113610000Y-92370000D03*
%TO.P,J12,11,Pin_11*%
%TO.N,Net-(J12-Pin_11)*%
X116150000Y-92370000D03*
%TO.P,J12,12,Pin_12*%
%TO.N,Net-(J12-Pin_12)*%
X118690000Y-92370000D03*
%TO.P,J12,13,Pin_13*%
%TO.N,Net-(J12-Pin_13)*%
X121230000Y-92370000D03*
%TO.P,J12,14,Pin_14*%
%TO.N,Net-(J10-Pin_1)*%
X123770000Y-92370000D03*
%TO.P,J12,15,Pin_15*%
%TO.N,Net-(J12-Pin_15)*%
X126310000Y-92370000D03*
%TO.P,J12,16,Pin_16*%
%TO.N,Net-(J12-Pin_16)*%
X128850000Y-92370000D03*
%TO.P,J12,17,Pin_17*%
%TO.N,Net-(J10-Pin_3)*%
X131390000Y-92370000D03*
%TO.P,J12,18,Pin_18*%
%TO.N,Net-(J12-Pin_18)*%
X133930000Y-92370000D03*
%TO.P,J12,19,Pin_19*%
%TO.N,Net-(J12-Pin_19)*%
X136470000Y-92370000D03*
%TD*%
D10*
%TO.P,J3,1,Pin_1*%
%TO.N,Net-(J10-Pin_7)*%
X185420000Y-82550000D03*
D11*
%TO.P,J3,2,Pin_2*%
%TO.N,Net-(J3-Pin_2)*%
X187960000Y-82550000D03*
%TO.P,J3,3,Pin_3*%
%TO.N,Net-(J10-Pin_7)*%
X185420000Y-80010000D03*
%TO.P,J3,4,Pin_4*%
%TO.N,Net-(J3-Pin_4)*%
X187960000Y-80010000D03*
%TO.P,J3,5,Pin_5*%
%TO.N,Net-(J10-Pin_7)*%
X185420000Y-77470000D03*
%TO.P,J3,6,Pin_6*%
%TO.N,Net-(J3-Pin_6)*%
X187960000Y-77470000D03*
%TO.P,J3,7,Pin_7*%
%TO.N,Net-(J10-Pin_7)*%
X185420000Y-74930000D03*
%TO.P,J3,8,Pin_8*%
%TO.N,Net-(J3-Pin_8)*%
X187960000Y-74930000D03*
%TD*%
D10*
%TO.P,J6,1,Pin_1*%
%TO.N,unconnected-(J6-Pin_1-Pad1)*%
X102870000Y-99060000D03*
D11*
%TO.P,J6,2,Pin_2*%
%TO.N,Net-(J10-Pin_7)*%
X100330000Y-99060000D03*
%TD*%
D12*
%TO.P,SW1,1,A*%
%TO.N,Net-(J10-Pin_5)*%
X183012500Y-92380000D03*
D13*
%TO.P,SW1,2,B*%
%TO.N,Net-(J3-Pin_2)*%
X185512500Y-92380000D03*
%TO.P,SW1,3,C*%
%TO.N,Net-(J9-Pin_1)*%
X188012500Y-92380000D03*
%TO.P,SW1,4*%
%TO.N,N/C*%
X183012500Y-95580000D03*
%TO.P,SW1,5*%
X185512500Y-95580000D03*
%TO.P,SW1,6*%
X188012500Y-95580000D03*
%TD*%
D10*
%TO.P,J4,1,Pin_1*%
%TO.N,Net-(J11-Pin_1)*%
X136450000Y-63140000D03*
D11*
%TO.P,J4,2,Pin_2*%
%TO.N,Net-(J11-Pin_2)*%
X133910000Y-63140000D03*
%TO.P,J4,3,Pin_3*%
%TO.N,Net-(J11-Pin_3)*%
X131370000Y-63140000D03*
%TO.P,J4,4,Pin_4*%
%TO.N,Net-(J11-Pin_4)*%
X128830000Y-63140000D03*
%TO.P,J4,5,Pin_5*%
%TO.N,Net-(J11-Pin_5)*%
X126290000Y-63140000D03*
%TO.P,J4,6,Pin_6*%
%TO.N,Net-(J11-Pin_6)*%
X123750000Y-63140000D03*
%TO.P,J4,7,Pin_7*%
%TO.N,Net-(J11-Pin_7)*%
X121210000Y-63140000D03*
%TO.P,J4,8,Pin_8*%
%TO.N,Net-(J11-Pin_8)*%
X118670000Y-63140000D03*
%TO.P,J4,9,Pin_9*%
%TO.N,Net-(J11-Pin_9)*%
X116130000Y-63140000D03*
%TO.P,J4,10,Pin_10*%
%TO.N,Net-(J11-Pin_10)*%
X113590000Y-63140000D03*
%TO.P,J4,11,Pin_11*%
%TO.N,Net-(J11-Pin_11)*%
X111050000Y-63140000D03*
%TO.P,J4,12,Pin_12*%
%TO.N,Net-(J11-Pin_12)*%
X108510000Y-63140000D03*
%TO.P,J4,13,Pin_13*%
%TO.N,Net-(J11-Pin_13)*%
X105970000Y-63140000D03*
%TO.P,J4,14,Pin_14*%
%TO.N,Net-(J11-Pin_14)*%
X103430000Y-63140000D03*
%TO.P,J4,15,Pin_15*%
%TO.N,Net-(J11-Pin_15)*%
X100890000Y-63140000D03*
%TO.P,J4,16,Pin_16*%
%TO.N,Net-(J11-Pin_16)*%
X98350000Y-63140000D03*
%TO.P,J4,17,Pin_17*%
%TO.N,Net-(J11-Pin_17)*%
X95810000Y-63140000D03*
%TO.P,J4,18,Pin_18*%
%TO.N,Net-(J10-Pin_7)*%
X93270000Y-63140000D03*
%TO.P,J4,19,Pin_19*%
%TO.N,Net-(J11-Pin_19)*%
X90730000Y-63140000D03*
%TD*%
D14*
%TO.P,RV4,1,1*%
%TO.N,Net-(J1-Pin_1)*%
X168148000Y-55880000D03*
%TO.P,RV4,2,2*%
%TO.N,Net-(J2-Pin_10)*%
X168148000Y-58420000D03*
%TO.P,RV4,3,3*%
%TO.N,Net-(J10-Pin_7)*%
X168148000Y-60960000D03*
%TD*%
D12*
%TO.P,SW4,1,A*%
%TO.N,Net-(J10-Pin_5)*%
X183012500Y-111430000D03*
D13*
%TO.P,SW4,2,B*%
%TO.N,Net-(J3-Pin_8)*%
X185512500Y-111430000D03*
%TO.P,SW4,3,C*%
%TO.N,Net-(J9-Pin_1)*%
X188012500Y-111430000D03*
%TO.P,SW4,4*%
%TO.N,N/C*%
X183012500Y-114630000D03*
%TO.P,SW4,5*%
X185512500Y-114630000D03*
%TO.P,SW4,6,C*%
%TO.N,Net-(J9-Pin_1)*%
X188012500Y-114630000D03*
%TD*%
D10*
%TO.P,J10,1,Pin_1*%
%TO.N,Net-(J10-Pin_1)*%
X166878000Y-105410000D03*
D11*
%TO.P,J10,2,Pin_2*%
X164338000Y-105410000D03*
%TO.P,J10,3,Pin_3*%
%TO.N,Net-(J10-Pin_3)*%
X166878000Y-107950000D03*
%TO.P,J10,4,Pin_4*%
X164338000Y-107950000D03*
%TO.P,J10,5,Pin_5*%
%TO.N,Net-(J10-Pin_5)*%
X166878000Y-110490000D03*
%TO.P,J10,6,Pin_6*%
X164338000Y-110490000D03*
%TO.P,J10,7,Pin_7*%
%TO.N,Net-(J10-Pin_7)*%
X166878000Y-113030000D03*
%TO.P,J10,8,Pin_8*%
X164338000Y-113030000D03*
%TD*%
D12*
%TO.P,SW3,1,A*%
%TO.N,Net-(J10-Pin_5)*%
X183012500Y-105080000D03*
D13*
%TO.P,SW3,2,B*%
%TO.N,Net-(J3-Pin_6)*%
X185512500Y-105080000D03*
%TO.P,SW3,3,C*%
%TO.N,Net-(J9-Pin_1)*%
X188012500Y-105080000D03*
%TO.P,SW3,4*%
%TO.N,N/C*%
X183012500Y-108280000D03*
%TO.P,SW3,5*%
X185512500Y-108280000D03*
%TO.P,SW3,6,C*%
%TO.N,Net-(J9-Pin_1)*%
X188012500Y-108280000D03*
%TD*%
D10*
%TO.P,J9,1,Pin_1*%
%TO.N,Net-(J9-Pin_1)*%
X147193000Y-109449000D03*
D11*
%TO.P,J9,2,Pin_2*%
%TO.N,Net-(J10-Pin_7)*%
X144653000Y-109449000D03*
%TD*%
D14*
%TO.P,RV3,1,1*%
%TO.N,Net-(J1-Pin_7)*%
X168148000Y-93980000D03*
%TO.P,RV3,2,2*%
%TO.N,Net-(J2-Pin_7)*%
X168148000Y-96520000D03*
%TO.P,RV3,3,3*%
%TO.N,Net-(J10-Pin_7)*%
X168148000Y-99060000D03*
%TD*%
%TO.P,RV1,1,1*%
%TO.N,Net-(J1-Pin_3)*%
X168148000Y-68580000D03*
%TO.P,RV1,2,2*%
%TO.N,Net-(J2-Pin_9)*%
X168148000Y-71120000D03*
%TO.P,RV1,3,3*%
%TO.N,Net-(J10-Pin_7)*%
X168148000Y-73660000D03*
%TD*%
D12*
%TO.P,SW2,1,A*%
%TO.N,Net-(J10-Pin_5)*%
X183012500Y-98730000D03*
D13*
%TO.P,SW2,2,B*%
%TO.N,Net-(J3-Pin_4)*%
X185512500Y-98730000D03*
%TO.P,SW2,3,C*%
%TO.N,Net-(J9-Pin_1)*%
X188012500Y-98730000D03*
%TO.P,SW2,4*%
%TO.N,N/C*%
X183012500Y-101930000D03*
%TO.P,SW2,5*%
X185512500Y-101930000D03*
%TO.P,SW2,6,C*%
%TO.N,Net-(J9-Pin_1)*%
X188012500Y-101930000D03*
%TD*%
D10*
%TO.P,J2,1,Pin_1*%
%TO.N,Net-(J10-Pin_5)*%
X160020000Y-86360000D03*
D11*
%TO.P,J2,2,Pin_2*%
%TO.N,Net-(J10-Pin_7)*%
X160020000Y-83820000D03*
%TO.P,J2,3,Pin_3*%
%TO.N,Net-(J10-Pin_3)*%
X160020000Y-81280000D03*
%TO.P,J2,4,Pin_4*%
%TO.N,Net-(J10-Pin_1)*%
X160020000Y-78740000D03*
%TO.P,J2,5,Pin_5*%
%TO.N,unconnected-(J2-Pin_5-Pad5)*%
X160020000Y-76200000D03*
%TO.P,J2,6,Pin_6*%
%TO.N,unconnected-(J2-Pin_6-Pad6)*%
X160020000Y-73660000D03*
%TO.P,J2,7,Pin_7*%
%TO.N,Net-(J2-Pin_7)*%
X160020000Y-71120000D03*
%TO.P,J2,8,Pin_8*%
%TO.N,Net-(J2-Pin_8)*%
X160020000Y-68580000D03*
%TO.P,J2,9,Pin_9*%
%TO.N,Net-(J2-Pin_9)*%
X160020000Y-66040000D03*
%TO.P,J2,10,Pin_10*%
%TO.N,Net-(J2-Pin_10)*%
X160020000Y-63500000D03*
%TD*%
D10*
%TO.P,J5,1,Pin_1*%
%TO.N,Net-(J12-Pin_1)*%
X90730000Y-88540000D03*
D11*
%TO.P,J5,2,Pin_2*%
%TO.N,Net-(J12-Pin_2)*%
X93270000Y-88540000D03*
%TO.P,J5,3,Pin_3*%
%TO.N,Net-(J12-Pin_3)*%
X95810000Y-88540000D03*
%TO.P,J5,4,Pin_4*%
%TO.N,Net-(J12-Pin_4)*%
X98350000Y-88540000D03*
%TO.P,J5,5,Pin_5*%
%TO.N,Net-(J12-Pin_5)*%
X100890000Y-88540000D03*
%TO.P,J5,6,Pin_6*%
%TO.N,Net-(J12-Pin_6)*%
X103430000Y-88540000D03*
%TO.P,J5,7,Pin_7*%
%TO.N,Net-(J12-Pin_7)*%
X105970000Y-88540000D03*
%TO.P,J5,8,Pin_8*%
%TO.N,Net-(J12-Pin_8)*%
X108510000Y-88540000D03*
%TO.P,J5,9,Pin_9*%
%TO.N,Net-(J12-Pin_9)*%
X111050000Y-88540000D03*
%TO.P,J5,10,Pin_10*%
%TO.N,Net-(J12-Pin_10)*%
X113590000Y-88540000D03*
%TO.P,J5,11,Pin_11*%
%TO.N,Net-(J12-Pin_11)*%
X116130000Y-88540000D03*
%TO.P,J5,12,Pin_12*%
%TO.N,Net-(J12-Pin_12)*%
X118670000Y-88540000D03*
%TO.P,J5,13,Pin_13*%
%TO.N,Net-(J12-Pin_13)*%
X121210000Y-88540000D03*
%TO.P,J5,14,Pin_14*%
%TO.N,Net-(J10-Pin_1)*%
X123750000Y-88540000D03*
%TO.P,J5,15,Pin_15*%
%TO.N,Net-(J12-Pin_15)*%
X126290000Y-88540000D03*
%TO.P,J5,16,Pin_16*%
%TO.N,Net-(J12-Pin_16)*%
X128830000Y-88540000D03*
%TO.P,J5,17,Pin_17*%
%TO.N,Net-(J10-Pin_3)*%
X131370000Y-88540000D03*
%TO.P,J5,18,Pin_18*%
%TO.N,Net-(J12-Pin_18)*%
X133910000Y-88540000D03*
%TO.P,J5,19,Pin_19*%
%TO.N,Net-(J12-Pin_19)*%
X136450000Y-88540000D03*
%TD*%
D10*
%TO.P,J8,1,Pin_1*%
%TO.N,Net-(J10-Pin_5)*%
X102870000Y-109449000D03*
D11*
%TO.P,J8,2,Pin_2*%
%TO.N,Net-(J10-Pin_7)*%
X100330000Y-109449000D03*
%TD*%
D10*
%TO.P,J1,1,Pin_1*%
%TO.N,Net-(J1-Pin_1)*%
X181630000Y-74930000D03*
D11*
%TO.P,J1,2,Pin_2*%
X179090000Y-74930000D03*
%TO.P,J1,3,Pin_3*%
%TO.N,Net-(J1-Pin_3)*%
X181630000Y-77470000D03*
%TO.P,J1,4,Pin_4*%
X179090000Y-77470000D03*
%TO.P,J1,5,Pin_5*%
%TO.N,Net-(J1-Pin_5)*%
X181630000Y-80010000D03*
%TO.P,J1,6,Pin_6*%
X179090000Y-80010000D03*
%TO.P,J1,7,Pin_7*%
%TO.N,Net-(J1-Pin_7)*%
X181630000Y-82550000D03*
%TO.P,J1,8,Pin_8*%
X179090000Y-82550000D03*
%TD*%
D14*
%TO.P,RV2,1,1*%
%TO.N,Net-(J1-Pin_5)*%
X168148000Y-81280000D03*
%TO.P,RV2,2,2*%
%TO.N,Net-(J2-Pin_8)*%
X168148000Y-83820000D03*
%TO.P,RV2,3,3*%
%TO.N,Net-(J10-Pin_7)*%
X168148000Y-86360000D03*
%TD*%
D10*
%TO.P,J7,1,Pin_1*%
%TO.N,Net-(J11-Pin_19)*%
X147193000Y-99289000D03*
D11*
%TO.P,J7,2,Pin_2*%
%TO.N,Net-(J10-Pin_7)*%
X144653000Y-99289000D03*
%TD*%
D10*
%TO.P,J11,1,Pin_1*%
%TO.N,Net-(J11-Pin_1)*%
X136440000Y-59130000D03*
D11*
%TO.P,J11,2,Pin_2*%
%TO.N,Net-(J11-Pin_2)*%
X133900000Y-59130000D03*
%TO.P,J11,3,Pin_3*%
%TO.N,Net-(J11-Pin_3)*%
X131360000Y-59130000D03*
%TO.P,J11,4,Pin_4*%
%TO.N,Net-(J11-Pin_4)*%
X128820000Y-59130000D03*
%TO.P,J11,5,Pin_5*%
%TO.N,Net-(J11-Pin_5)*%
X126280000Y-59130000D03*
%TO.P,J11,6,Pin_6*%
%TO.N,Net-(J11-Pin_6)*%
X123740000Y-59130000D03*
%TO.P,J11,7,Pin_7*%
%TO.N,Net-(J11-Pin_7)*%
X121200000Y-59130000D03*
%TO.P,J11,8,Pin_8*%
%TO.N,Net-(J11-Pin_8)*%
X118660000Y-59130000D03*
%TO.P,J11,9,Pin_9*%
%TO.N,Net-(J11-Pin_9)*%
X116120000Y-59130000D03*
%TO.P,J11,10,Pin_10*%
%TO.N,Net-(J11-Pin_10)*%
X113580000Y-59130000D03*
%TO.P,J11,11,Pin_11*%
%TO.N,Net-(J11-Pin_11)*%
X111040000Y-59130000D03*
%TO.P,J11,12,Pin_12*%
%TO.N,Net-(J11-Pin_12)*%
X108500000Y-59130000D03*
%TO.P,J11,13,Pin_13*%
%TO.N,Net-(J11-Pin_13)*%
X105960000Y-59130000D03*
%TO.P,J11,14,Pin_14*%
%TO.N,Net-(J11-Pin_14)*%
X103420000Y-59130000D03*
%TO.P,J11,15,Pin_15*%
%TO.N,Net-(J11-Pin_15)*%
X100880000Y-59130000D03*
%TO.P,J11,16,Pin_16*%
%TO.N,Net-(J11-Pin_16)*%
X98340000Y-59130000D03*
%TO.P,J11,17,Pin_17*%
%TO.N,Net-(J11-Pin_17)*%
X95800000Y-59130000D03*
%TO.P,J11,18,Pin_18*%
%TO.N,Net-(J10-Pin_7)*%
X93260000Y-59130000D03*
%TO.P,J11,19,Pin_19*%
%TO.N,Net-(J11-Pin_19)*%
X90720000Y-59130000D03*
%TD*%
D15*
%TO.N,Net-(J2-Pin_8)*%
X167103000Y-82775000D02*
X167103000Y-75663000D01*
X168148000Y-83820000D02*
X167103000Y-82775000D01*
X167103000Y-75663000D02*
X160020000Y-68580000D01*
%TO.N,Net-(J10-Pin_7)*%
X178698299Y-76200000D02*
X168148000Y-65649701D01*
X168148000Y-65540000D02*
X168148000Y-65649701D01*
X168148000Y-60960000D02*
X168148000Y-65540000D01*
X184150000Y-76200000D02*
X178698299Y-76200000D01*
%TO.N,Net-(J11-Pin_2)*%
X133900000Y-63130000D02*
X133910000Y-63140000D01*
X133900000Y-59130000D02*
X133900000Y-63130000D01*
%TO.N,Net-(J10-Pin_7)*%
X161195000Y-82645000D02*
X160020000Y-83820000D01*
X161195000Y-80793299D02*
X161195000Y-82645000D01*
X130005000Y-85513299D02*
X135413298Y-80105000D01*
X130025000Y-92856701D02*
X130025000Y-89925000D01*
X128430850Y-94450851D02*
X130025000Y-92856701D01*
X130005000Y-89905000D02*
X130005000Y-85513299D01*
X135413298Y-80105000D02*
X160506701Y-80105000D01*
X128290000Y-94450851D02*
X128430850Y-94450851D01*
X130025000Y-89925000D02*
X130005000Y-89905000D01*
X160506701Y-80105000D02*
X161195000Y-80793299D01*
%TO.N,Net-(J1-Pin_1)*%
X168148000Y-55880000D02*
X179090000Y-66822000D01*
X179090000Y-66822000D02*
X179090000Y-74930000D01*
X179090000Y-74930000D02*
X181630000Y-74930000D01*
%TO.N,Net-(J3-Pin_2)*%
X185512500Y-92380000D02*
X187960000Y-89932500D01*
X187960000Y-89932500D02*
X187960000Y-82550000D01*
%TO.N,Net-(J10-Pin_3)*%
X163311989Y-107950000D02*
X153935000Y-98573011D01*
X166878000Y-107950000D02*
X164338000Y-107950000D01*
X131390000Y-88560000D02*
X131370000Y-88540000D01*
X131370000Y-88540000D02*
X132545000Y-87365000D01*
X153260000Y-87365000D02*
X153935000Y-87365000D01*
X153935000Y-87365000D02*
X154300000Y-87000000D01*
X164338000Y-107950000D02*
X163311989Y-107950000D01*
X154300000Y-87000000D02*
X160020000Y-81280000D01*
X153935000Y-98573011D02*
X153935000Y-87365000D01*
X131390000Y-92370000D02*
X131390000Y-88560000D01*
X132545000Y-87365000D02*
X153260000Y-87365000D01*
%TO.N,Net-(J10-Pin_1)*%
X133620000Y-78740000D02*
X160020000Y-78740000D01*
X161645000Y-80365000D02*
X160020000Y-78740000D01*
X133550000Y-78740000D02*
X133620000Y-78740000D01*
X161645000Y-102717000D02*
X161645000Y-80365000D01*
X164338000Y-105410000D02*
X161645000Y-102717000D01*
X123770000Y-88560000D02*
X123750000Y-88540000D01*
X123750000Y-88540000D02*
X133550000Y-78740000D01*
X166878000Y-105410000D02*
X164338000Y-105410000D01*
X123770000Y-92370000D02*
X123770000Y-88560000D01*
%TO.N,Net-(J10-Pin_5)*%
X183012500Y-105080000D02*
X181887500Y-103955000D01*
X181887500Y-110305000D02*
X181887500Y-106205000D01*
X181887500Y-97605000D02*
X181887500Y-93505000D01*
X163830000Y-109315000D02*
X168275000Y-109315000D01*
X149409000Y-109315000D02*
X162560000Y-109315000D01*
X104045000Y-108274000D02*
X148368000Y-108274000D01*
X181887500Y-103955000D02*
X181887500Y-99855000D01*
X168275000Y-107685299D02*
X168275000Y-109315000D01*
X180897500Y-109315000D02*
X183012500Y-111430000D01*
X162560000Y-109315000D02*
X163830000Y-109315000D01*
X181887500Y-99855000D02*
X183012500Y-98730000D01*
X181887500Y-93505000D02*
X183012500Y-92380000D01*
X183012500Y-111430000D02*
X181887500Y-110305000D01*
X164338000Y-110490000D02*
X163163000Y-109315000D01*
X102870000Y-109449000D02*
X104045000Y-108274000D01*
X166878000Y-110490000D02*
X164338000Y-110490000D01*
X160020000Y-86360000D02*
X160020000Y-104022321D01*
X163163000Y-109315000D02*
X162560000Y-109315000D01*
X148368000Y-108274000D02*
X149409000Y-109315000D01*
X181887500Y-106205000D02*
X183012500Y-105080000D01*
X162772679Y-106775000D02*
X167364701Y-106775000D01*
X168275000Y-109315000D02*
X180897500Y-109315000D01*
X167364701Y-106775000D02*
X168275000Y-107685299D01*
X160020000Y-104022321D02*
X162772679Y-106775000D01*
X183012500Y-98730000D02*
X181887500Y-97605000D01*
%TO.N,Net-(J1-Pin_3)*%
X168148000Y-68580000D02*
X170200000Y-68580000D01*
X179090000Y-77470000D02*
X181630000Y-77470000D01*
X170200000Y-68580000D02*
X179090000Y-77470000D01*
%TO.N,Net-(J1-Pin_5)*%
X180292081Y-80010000D02*
X181630000Y-80010000D01*
X177820000Y-81280000D02*
X179090000Y-80010000D01*
X168148000Y-81280000D02*
X177820000Y-81280000D01*
X179090000Y-80010000D02*
X180292081Y-80010000D01*
%TO.N,Net-(J1-Pin_7)*%
X168148000Y-93980000D02*
X179090000Y-83038000D01*
X179090000Y-82550000D02*
X181630000Y-82550000D01*
X179090000Y-83038000D02*
X179090000Y-82550000D01*
%TO.N,Net-(J2-Pin_7)*%
X162094501Y-73194501D02*
X162094501Y-90466501D01*
X160020000Y-71120000D02*
X162094501Y-73194501D01*
X162094501Y-90466501D02*
X168148000Y-96520000D01*
%TO.N,Net-(J2-Pin_9)*%
X165100000Y-71120000D02*
X160020000Y-66040000D01*
X165100000Y-71120000D02*
X168148000Y-71120000D01*
%TO.N,Net-(J2-Pin_10)*%
X168148000Y-58420000D02*
X165100000Y-58420000D01*
X165100000Y-58420000D02*
X160020000Y-63500000D01*
%TO.N,Net-(J3-Pin_4)*%
X186785000Y-83725706D02*
X186785000Y-81185000D01*
X184387500Y-86123206D02*
X186785000Y-83725706D01*
X184387500Y-97605000D02*
X184387500Y-86123206D01*
X185512500Y-98730000D02*
X184387500Y-97605000D01*
X186785000Y-81185000D02*
X187960000Y-80010000D01*
%TO.N,Net-(J3-Pin_6)*%
X194310000Y-102870000D02*
X194310000Y-83820000D01*
X185512500Y-105080000D02*
X186637500Y-106205000D01*
X186637500Y-106205000D02*
X190975000Y-106205000D01*
X194310000Y-83820000D02*
X187960000Y-77470000D01*
X190975000Y-106205000D02*
X194310000Y-102870000D01*
%TO.N,Net-(J3-Pin_8)*%
X185512500Y-111430000D02*
X184387500Y-110305000D01*
X186887500Y-102145991D02*
X186887500Y-101445991D01*
X190500000Y-80698299D02*
X188446701Y-78645000D01*
X184387500Y-104614009D02*
X185946509Y-103055000D01*
X187473299Y-78645000D02*
X186785000Y-77956701D01*
X185946509Y-103055000D02*
X185978491Y-103055000D01*
X190500000Y-97833491D02*
X190500000Y-80698299D01*
X186785000Y-77956701D02*
X186785000Y-76105000D01*
X186785000Y-76105000D02*
X187960000Y-74930000D01*
X185978491Y-103055000D02*
X186887500Y-102145991D01*
X184387500Y-110305000D02*
X184387500Y-104614009D01*
X186887500Y-101445991D02*
X190500000Y-97833491D01*
X188446701Y-78645000D02*
X187473299Y-78645000D01*
%TO.N,Net-(J9-Pin_1)*%
X188012500Y-111430000D02*
X188012500Y-108280000D01*
X149599000Y-111855000D02*
X147193000Y-109449000D01*
X188012500Y-98730000D02*
X186887500Y-97605000D01*
X182362500Y-113030000D02*
X181187500Y-111855000D01*
X186887500Y-93505000D02*
X188012500Y-92380000D01*
X188012500Y-111430000D02*
X188012500Y-112977500D01*
X186887500Y-97605000D02*
X186887500Y-93505000D01*
X187960000Y-113030000D02*
X182362500Y-113030000D01*
X188012500Y-112977500D02*
X187960000Y-113030000D01*
X188012500Y-105080000D02*
X188012500Y-101930000D01*
X181187500Y-111855000D02*
X149599000Y-111855000D01*
%TO.N,Net-(J10-Pin_7)*%
X167363299Y-64865000D02*
X138175000Y-64865000D01*
X120035000Y-88053299D02*
X116616701Y-84635000D01*
X184245000Y-81185000D02*
X178793299Y-81185000D01*
X93260000Y-63130000D02*
X93270000Y-63140000D01*
X121459150Y-94450851D02*
X120035000Y-93026701D01*
X164338000Y-113030000D02*
X103911000Y-113030000D01*
X168148000Y-65649701D02*
X167363299Y-64865000D01*
X185420000Y-82550000D02*
X185420000Y-84454310D01*
X94445000Y-64315000D02*
X93270000Y-63140000D01*
X93260000Y-58920000D02*
X93260000Y-63130000D01*
X144653000Y-99289000D02*
X133128149Y-99289000D01*
X138175000Y-64865000D02*
X137625000Y-64315000D01*
X185420000Y-74930000D02*
X185420000Y-77470000D01*
X185420000Y-77470000D02*
X185420000Y-80010000D01*
X185420000Y-74930000D02*
X184245000Y-76105000D01*
X185420000Y-78672081D02*
X185257081Y-78835000D01*
X114765000Y-84635000D02*
X93270000Y-63140000D01*
X116616701Y-84635000D02*
X114765000Y-84635000D01*
X173618299Y-86360000D02*
X168148000Y-86360000D01*
X170814310Y-99060000D02*
X168148000Y-99060000D01*
X178793299Y-81185000D02*
X173618299Y-86360000D01*
X185420000Y-74930000D02*
X184150000Y-76200000D01*
X103911000Y-113030000D02*
X100330000Y-109449000D01*
X137625000Y-64315000D02*
X94445000Y-64315000D01*
X133128149Y-99289000D02*
X128290000Y-94450851D01*
X168148000Y-73660000D02*
X173323000Y-78835000D01*
X166878000Y-113030000D02*
X164338000Y-113030000D01*
X125459149Y-94450851D02*
X121459150Y-94450851D01*
X185420000Y-80010000D02*
X185420000Y-82550000D01*
X125459149Y-94450851D02*
X128290000Y-94450851D01*
X120035000Y-93026701D02*
X120035000Y-88053299D01*
X185420000Y-77470000D02*
X185420000Y-78672081D01*
X185257081Y-78835000D02*
X173323000Y-78835000D01*
X185420000Y-80010000D02*
X184245000Y-81185000D01*
X185420000Y-84454310D02*
X170814310Y-99060000D01*
%TO.N,Net-(J11-Pin_19)*%
X112245000Y-92715000D02*
X119994000Y-100464000D01*
X119994000Y-100464000D02*
X146018000Y-100464000D01*
X90730000Y-63140000D02*
X112225000Y-84635000D01*
X112245000Y-91005000D02*
X112245000Y-92715000D01*
X146018000Y-100464000D02*
X147193000Y-99289000D01*
X90720000Y-63130000D02*
X90730000Y-63140000D01*
X112225000Y-90985000D02*
X112245000Y-91005000D01*
X112225000Y-84635000D02*
X112225000Y-90985000D01*
X90720000Y-58920000D02*
X90720000Y-63130000D01*
%TO.N,Net-(J11-Pin_17)*%
X95800000Y-58920000D02*
X95800000Y-63130000D01*
X95800000Y-63130000D02*
X95810000Y-63140000D01*
%TO.N,Net-(J11-Pin_16)*%
X98340000Y-63130000D02*
X98350000Y-63140000D01*
X98340000Y-58920000D02*
X98340000Y-63130000D01*
%TO.N,Net-(J11-Pin_15)*%
X100880000Y-58920000D02*
X100880000Y-63130000D01*
X100880000Y-63130000D02*
X100890000Y-63140000D01*
%TO.N,Net-(J11-Pin_14)*%
X103420000Y-63130000D02*
X103430000Y-63140000D01*
X103420000Y-58920000D02*
X103420000Y-63130000D01*
%TO.N,Net-(J11-Pin_13)*%
X105960000Y-58920000D02*
X105960000Y-63130000D01*
X105960000Y-63130000D02*
X105970000Y-63140000D01*
%TO.N,Net-(J11-Pin_12)*%
X108500000Y-63130000D02*
X108510000Y-63140000D01*
X108500000Y-58920000D02*
X108500000Y-63130000D01*
%TO.N,Net-(J11-Pin_11)*%
X111040000Y-58920000D02*
X111040000Y-63130000D01*
X111040000Y-63130000D02*
X111050000Y-63140000D01*
%TO.N,Net-(J11-Pin_10)*%
X113580000Y-58920000D02*
X113580000Y-63130000D01*
X113580000Y-63130000D02*
X113590000Y-63140000D01*
%TO.N,Net-(J11-Pin_9)*%
X116120000Y-58920000D02*
X116120000Y-63130000D01*
X116120000Y-63130000D02*
X116130000Y-63140000D01*
%TO.N,Net-(J11-Pin_8)*%
X118660000Y-58920000D02*
X118660000Y-63130000D01*
X118660000Y-63130000D02*
X118670000Y-63140000D01*
%TO.N,Net-(J11-Pin_7)*%
X121200000Y-58920000D02*
X121200000Y-63130000D01*
X121200000Y-63130000D02*
X121210000Y-63140000D01*
%TO.N,Net-(J11-Pin_6)*%
X123740000Y-58920000D02*
X123740000Y-63130000D01*
X123740000Y-63130000D02*
X123750000Y-63140000D01*
%TO.N,Net-(J11-Pin_5)*%
X126280000Y-63130000D02*
X126290000Y-63140000D01*
X126280000Y-58920000D02*
X126280000Y-63130000D01*
%TO.N,Net-(J11-Pin_4)*%
X128820000Y-63130000D02*
X128830000Y-63140000D01*
X128820000Y-58920000D02*
X128820000Y-63130000D01*
%TO.N,Net-(J11-Pin_3)*%
X131360000Y-58920000D02*
X131360000Y-63130000D01*
X131360000Y-63130000D02*
X131370000Y-63140000D01*
%TO.N,Net-(J11-Pin_1)*%
X136440000Y-63130000D02*
X136450000Y-63140000D01*
X136440000Y-58920000D02*
X136440000Y-63130000D01*
%TO.N,Net-(J12-Pin_1)*%
X90750000Y-88560000D02*
X90730000Y-88540000D01*
X90750000Y-92370000D02*
X90750000Y-88560000D01*
%TO.N,Net-(J12-Pin_2)*%
X93290000Y-92370000D02*
X93290000Y-88560000D01*
X93290000Y-88560000D02*
X93270000Y-88540000D01*
%TO.N,Net-(J12-Pin_3)*%
X95830000Y-92370000D02*
X95830000Y-88560000D01*
X95830000Y-88560000D02*
X95810000Y-88540000D01*
%TO.N,Net-(J12-Pin_4)*%
X98350000Y-88540000D02*
X98350000Y-92350000D01*
X98350000Y-92350000D02*
X98370000Y-92370000D01*
%TO.N,Net-(J12-Pin_5)*%
X100890000Y-92350000D02*
X100910000Y-92370000D01*
X100890000Y-88540000D02*
X100890000Y-92350000D01*
%TO.N,Net-(J12-Pin_6)*%
X103430000Y-88540000D02*
X103430000Y-92350000D01*
X103430000Y-92350000D02*
X103450000Y-92370000D01*
%TO.N,Net-(J12-Pin_7)*%
X105970000Y-88540000D02*
X105970000Y-92350000D01*
X105970000Y-92350000D02*
X105990000Y-92370000D01*
%TO.N,Net-(J12-Pin_8)*%
X108510000Y-92350000D02*
X108530000Y-92370000D01*
X108510000Y-88540000D02*
X108510000Y-92350000D01*
%TO.N,Net-(J12-Pin_9)*%
X111050000Y-88540000D02*
X111050000Y-92350000D01*
X111050000Y-92350000D02*
X111070000Y-92370000D01*
%TO.N,Net-(J12-Pin_10)*%
X113610000Y-92370000D02*
X113610000Y-88560000D01*
X113610000Y-88560000D02*
X113590000Y-88540000D01*
%TO.N,Net-(J12-Pin_11)*%
X116150000Y-92370000D02*
X116150000Y-88560000D01*
X116150000Y-88560000D02*
X116130000Y-88540000D01*
%TO.N,Net-(J12-Pin_12)*%
X118690000Y-88560000D02*
X118670000Y-88540000D01*
X118690000Y-92370000D02*
X118690000Y-88560000D01*
%TO.N,Net-(J12-Pin_13)*%
X121230000Y-88560000D02*
X121210000Y-88540000D01*
X121230000Y-92370000D02*
X121230000Y-88560000D01*
%TO.N,Net-(J12-Pin_15)*%
X126310000Y-92370000D02*
X126310000Y-88560000D01*
X126310000Y-88560000D02*
X126290000Y-88540000D01*
%TO.N,Net-(J12-Pin_16)*%
X128850000Y-92370000D02*
X128850000Y-88560000D01*
X128850000Y-88560000D02*
X128830000Y-88540000D01*
%TO.N,Net-(J12-Pin_18)*%
X133930000Y-92370000D02*
X133930000Y-88560000D01*
X133930000Y-88560000D02*
X133910000Y-88540000D01*
%TO.N,Net-(J12-Pin_19)*%
X136470000Y-92370000D02*
X136470000Y-88560000D01*
X136470000Y-88560000D02*
X136450000Y-88540000D01*
%TD*%
M02*
