%TF.GenerationSoftware,KiCad,Pcbnew,7.0.2*%
%TF.CreationDate,2023-05-18T09:18:09-03:00*%
%TF.ProjectId,placaSensIC075,706c6163-6153-4656-9e73-49433037352e,rev?*%
%TF.SameCoordinates,Original*%
%TF.FileFunction,Legend,Top*%
%TF.FilePolarity,Positive*%
%FSLAX46Y46*%
G04 Gerber Fmt 4.6, Leading zero omitted, Abs format (unit mm)*
G04 Created by KiCad (PCBNEW 7.0.2) date 2023-05-18 09:18:09*
%MOMM*%
%LPD*%
G01*
G04 APERTURE LIST*
%ADD10C,0.150000*%
%ADD11C,0.120000*%
G04 APERTURE END LIST*
D10*
%TO.C,J12*%
X87442619Y-93179523D02*
X88156904Y-93179523D01*
X88156904Y-93179523D02*
X88299761Y-93227142D01*
X88299761Y-93227142D02*
X88395000Y-93322380D01*
X88395000Y-93322380D02*
X88442619Y-93465237D01*
X88442619Y-93465237D02*
X88442619Y-93560475D01*
X88442619Y-92179523D02*
X88442619Y-92750951D01*
X88442619Y-92465237D02*
X87442619Y-92465237D01*
X87442619Y-92465237D02*
X87585476Y-92560475D01*
X87585476Y-92560475D02*
X87680714Y-92655713D01*
X87680714Y-92655713D02*
X87728333Y-92750951D01*
X87537857Y-91798570D02*
X87490238Y-91750951D01*
X87490238Y-91750951D02*
X87442619Y-91655713D01*
X87442619Y-91655713D02*
X87442619Y-91417618D01*
X87442619Y-91417618D02*
X87490238Y-91322380D01*
X87490238Y-91322380D02*
X87537857Y-91274761D01*
X87537857Y-91274761D02*
X87633095Y-91227142D01*
X87633095Y-91227142D02*
X87728333Y-91227142D01*
X87728333Y-91227142D02*
X87871190Y-91274761D01*
X87871190Y-91274761D02*
X88442619Y-91846189D01*
X88442619Y-91846189D02*
X88442619Y-91227142D01*
%TO.C,J3*%
X186356666Y-84782619D02*
X186356666Y-85496904D01*
X186356666Y-85496904D02*
X186309047Y-85639761D01*
X186309047Y-85639761D02*
X186213809Y-85735000D01*
X186213809Y-85735000D02*
X186070952Y-85782619D01*
X186070952Y-85782619D02*
X185975714Y-85782619D01*
X186737619Y-84782619D02*
X187356666Y-84782619D01*
X187356666Y-84782619D02*
X187023333Y-85163571D01*
X187023333Y-85163571D02*
X187166190Y-85163571D01*
X187166190Y-85163571D02*
X187261428Y-85211190D01*
X187261428Y-85211190D02*
X187309047Y-85258809D01*
X187309047Y-85258809D02*
X187356666Y-85354047D01*
X187356666Y-85354047D02*
X187356666Y-85592142D01*
X187356666Y-85592142D02*
X187309047Y-85687380D01*
X187309047Y-85687380D02*
X187261428Y-85735000D01*
X187261428Y-85735000D02*
X187166190Y-85782619D01*
X187166190Y-85782619D02*
X186880476Y-85782619D01*
X186880476Y-85782619D02*
X186785238Y-85735000D01*
X186785238Y-85735000D02*
X186737619Y-85687380D01*
%TO.C,J6*%
X105102619Y-99393333D02*
X105816904Y-99393333D01*
X105816904Y-99393333D02*
X105959761Y-99440952D01*
X105959761Y-99440952D02*
X106055000Y-99536190D01*
X106055000Y-99536190D02*
X106102619Y-99679047D01*
X106102619Y-99679047D02*
X106102619Y-99774285D01*
X105102619Y-98488571D02*
X105102619Y-98679047D01*
X105102619Y-98679047D02*
X105150238Y-98774285D01*
X105150238Y-98774285D02*
X105197857Y-98821904D01*
X105197857Y-98821904D02*
X105340714Y-98917142D01*
X105340714Y-98917142D02*
X105531190Y-98964761D01*
X105531190Y-98964761D02*
X105912142Y-98964761D01*
X105912142Y-98964761D02*
X106007380Y-98917142D01*
X106007380Y-98917142D02*
X106055000Y-98869523D01*
X106055000Y-98869523D02*
X106102619Y-98774285D01*
X106102619Y-98774285D02*
X106102619Y-98583809D01*
X106102619Y-98583809D02*
X106055000Y-98488571D01*
X106055000Y-98488571D02*
X106007380Y-98440952D01*
X106007380Y-98440952D02*
X105912142Y-98393333D01*
X105912142Y-98393333D02*
X105674047Y-98393333D01*
X105674047Y-98393333D02*
X105578809Y-98440952D01*
X105578809Y-98440952D02*
X105531190Y-98488571D01*
X105531190Y-98488571D02*
X105483571Y-98583809D01*
X105483571Y-98583809D02*
X105483571Y-98774285D01*
X105483571Y-98774285D02*
X105531190Y-98869523D01*
X105531190Y-98869523D02*
X105578809Y-98917142D01*
X105578809Y-98917142D02*
X105674047Y-98964761D01*
%TO.C,SW1*%
X184179167Y-91145000D02*
X184322024Y-91192619D01*
X184322024Y-91192619D02*
X184560119Y-91192619D01*
X184560119Y-91192619D02*
X184655357Y-91145000D01*
X184655357Y-91145000D02*
X184702976Y-91097380D01*
X184702976Y-91097380D02*
X184750595Y-91002142D01*
X184750595Y-91002142D02*
X184750595Y-90906904D01*
X184750595Y-90906904D02*
X184702976Y-90811666D01*
X184702976Y-90811666D02*
X184655357Y-90764047D01*
X184655357Y-90764047D02*
X184560119Y-90716428D01*
X184560119Y-90716428D02*
X184369643Y-90668809D01*
X184369643Y-90668809D02*
X184274405Y-90621190D01*
X184274405Y-90621190D02*
X184226786Y-90573571D01*
X184226786Y-90573571D02*
X184179167Y-90478333D01*
X184179167Y-90478333D02*
X184179167Y-90383095D01*
X184179167Y-90383095D02*
X184226786Y-90287857D01*
X184226786Y-90287857D02*
X184274405Y-90240238D01*
X184274405Y-90240238D02*
X184369643Y-90192619D01*
X184369643Y-90192619D02*
X184607738Y-90192619D01*
X184607738Y-90192619D02*
X184750595Y-90240238D01*
X185083929Y-90192619D02*
X185322024Y-91192619D01*
X185322024Y-91192619D02*
X185512500Y-90478333D01*
X185512500Y-90478333D02*
X185702976Y-91192619D01*
X185702976Y-91192619D02*
X185941072Y-90192619D01*
X186845833Y-91192619D02*
X186274405Y-91192619D01*
X186560119Y-91192619D02*
X186560119Y-90192619D01*
X186560119Y-90192619D02*
X186464881Y-90335476D01*
X186464881Y-90335476D02*
X186369643Y-90430714D01*
X186369643Y-90430714D02*
X186274405Y-90478333D01*
%TO.C,J4*%
X138682619Y-63473333D02*
X139396904Y-63473333D01*
X139396904Y-63473333D02*
X139539761Y-63520952D01*
X139539761Y-63520952D02*
X139635000Y-63616190D01*
X139635000Y-63616190D02*
X139682619Y-63759047D01*
X139682619Y-63759047D02*
X139682619Y-63854285D01*
X139015952Y-62568571D02*
X139682619Y-62568571D01*
X138635000Y-62806666D02*
X139349285Y-63044761D01*
X139349285Y-63044761D02*
X139349285Y-62425714D01*
%TO.C,RV4*%
X164950619Y-59015238D02*
X164474428Y-59348571D01*
X164950619Y-59586666D02*
X163950619Y-59586666D01*
X163950619Y-59586666D02*
X163950619Y-59205714D01*
X163950619Y-59205714D02*
X163998238Y-59110476D01*
X163998238Y-59110476D02*
X164045857Y-59062857D01*
X164045857Y-59062857D02*
X164141095Y-59015238D01*
X164141095Y-59015238D02*
X164283952Y-59015238D01*
X164283952Y-59015238D02*
X164379190Y-59062857D01*
X164379190Y-59062857D02*
X164426809Y-59110476D01*
X164426809Y-59110476D02*
X164474428Y-59205714D01*
X164474428Y-59205714D02*
X164474428Y-59586666D01*
X163950619Y-58729523D02*
X164950619Y-58396190D01*
X164950619Y-58396190D02*
X163950619Y-58062857D01*
X164283952Y-57300952D02*
X164950619Y-57300952D01*
X163903000Y-57539047D02*
X164617285Y-57777142D01*
X164617285Y-57777142D02*
X164617285Y-57158095D01*
%TO.C,SW4*%
X184179167Y-110195000D02*
X184322024Y-110242619D01*
X184322024Y-110242619D02*
X184560119Y-110242619D01*
X184560119Y-110242619D02*
X184655357Y-110195000D01*
X184655357Y-110195000D02*
X184702976Y-110147380D01*
X184702976Y-110147380D02*
X184750595Y-110052142D01*
X184750595Y-110052142D02*
X184750595Y-109956904D01*
X184750595Y-109956904D02*
X184702976Y-109861666D01*
X184702976Y-109861666D02*
X184655357Y-109814047D01*
X184655357Y-109814047D02*
X184560119Y-109766428D01*
X184560119Y-109766428D02*
X184369643Y-109718809D01*
X184369643Y-109718809D02*
X184274405Y-109671190D01*
X184274405Y-109671190D02*
X184226786Y-109623571D01*
X184226786Y-109623571D02*
X184179167Y-109528333D01*
X184179167Y-109528333D02*
X184179167Y-109433095D01*
X184179167Y-109433095D02*
X184226786Y-109337857D01*
X184226786Y-109337857D02*
X184274405Y-109290238D01*
X184274405Y-109290238D02*
X184369643Y-109242619D01*
X184369643Y-109242619D02*
X184607738Y-109242619D01*
X184607738Y-109242619D02*
X184750595Y-109290238D01*
X185083929Y-109242619D02*
X185322024Y-110242619D01*
X185322024Y-110242619D02*
X185512500Y-109528333D01*
X185512500Y-109528333D02*
X185702976Y-110242619D01*
X185702976Y-110242619D02*
X185941072Y-109242619D01*
X186750595Y-109575952D02*
X186750595Y-110242619D01*
X186512500Y-109195000D02*
X186274405Y-109909285D01*
X186274405Y-109909285D02*
X186893452Y-109909285D01*
%TO.C,J10*%
X164798476Y-102102619D02*
X164798476Y-102816904D01*
X164798476Y-102816904D02*
X164750857Y-102959761D01*
X164750857Y-102959761D02*
X164655619Y-103055000D01*
X164655619Y-103055000D02*
X164512762Y-103102619D01*
X164512762Y-103102619D02*
X164417524Y-103102619D01*
X165798476Y-103102619D02*
X165227048Y-103102619D01*
X165512762Y-103102619D02*
X165512762Y-102102619D01*
X165512762Y-102102619D02*
X165417524Y-102245476D01*
X165417524Y-102245476D02*
X165322286Y-102340714D01*
X165322286Y-102340714D02*
X165227048Y-102388333D01*
X166417524Y-102102619D02*
X166512762Y-102102619D01*
X166512762Y-102102619D02*
X166608000Y-102150238D01*
X166608000Y-102150238D02*
X166655619Y-102197857D01*
X166655619Y-102197857D02*
X166703238Y-102293095D01*
X166703238Y-102293095D02*
X166750857Y-102483571D01*
X166750857Y-102483571D02*
X166750857Y-102721666D01*
X166750857Y-102721666D02*
X166703238Y-102912142D01*
X166703238Y-102912142D02*
X166655619Y-103007380D01*
X166655619Y-103007380D02*
X166608000Y-103055000D01*
X166608000Y-103055000D02*
X166512762Y-103102619D01*
X166512762Y-103102619D02*
X166417524Y-103102619D01*
X166417524Y-103102619D02*
X166322286Y-103055000D01*
X166322286Y-103055000D02*
X166274667Y-103007380D01*
X166274667Y-103007380D02*
X166227048Y-102912142D01*
X166227048Y-102912142D02*
X166179429Y-102721666D01*
X166179429Y-102721666D02*
X166179429Y-102483571D01*
X166179429Y-102483571D02*
X166227048Y-102293095D01*
X166227048Y-102293095D02*
X166274667Y-102197857D01*
X166274667Y-102197857D02*
X166322286Y-102150238D01*
X166322286Y-102150238D02*
X166417524Y-102102619D01*
%TO.C,SW3*%
X184179167Y-103845000D02*
X184322024Y-103892619D01*
X184322024Y-103892619D02*
X184560119Y-103892619D01*
X184560119Y-103892619D02*
X184655357Y-103845000D01*
X184655357Y-103845000D02*
X184702976Y-103797380D01*
X184702976Y-103797380D02*
X184750595Y-103702142D01*
X184750595Y-103702142D02*
X184750595Y-103606904D01*
X184750595Y-103606904D02*
X184702976Y-103511666D01*
X184702976Y-103511666D02*
X184655357Y-103464047D01*
X184655357Y-103464047D02*
X184560119Y-103416428D01*
X184560119Y-103416428D02*
X184369643Y-103368809D01*
X184369643Y-103368809D02*
X184274405Y-103321190D01*
X184274405Y-103321190D02*
X184226786Y-103273571D01*
X184226786Y-103273571D02*
X184179167Y-103178333D01*
X184179167Y-103178333D02*
X184179167Y-103083095D01*
X184179167Y-103083095D02*
X184226786Y-102987857D01*
X184226786Y-102987857D02*
X184274405Y-102940238D01*
X184274405Y-102940238D02*
X184369643Y-102892619D01*
X184369643Y-102892619D02*
X184607738Y-102892619D01*
X184607738Y-102892619D02*
X184750595Y-102940238D01*
X185083929Y-102892619D02*
X185322024Y-103892619D01*
X185322024Y-103892619D02*
X185512500Y-103178333D01*
X185512500Y-103178333D02*
X185702976Y-103892619D01*
X185702976Y-103892619D02*
X185941072Y-102892619D01*
X186226786Y-102892619D02*
X186845833Y-102892619D01*
X186845833Y-102892619D02*
X186512500Y-103273571D01*
X186512500Y-103273571D02*
X186655357Y-103273571D01*
X186655357Y-103273571D02*
X186750595Y-103321190D01*
X186750595Y-103321190D02*
X186798214Y-103368809D01*
X186798214Y-103368809D02*
X186845833Y-103464047D01*
X186845833Y-103464047D02*
X186845833Y-103702142D01*
X186845833Y-103702142D02*
X186798214Y-103797380D01*
X186798214Y-103797380D02*
X186750595Y-103845000D01*
X186750595Y-103845000D02*
X186655357Y-103892619D01*
X186655357Y-103892619D02*
X186369643Y-103892619D01*
X186369643Y-103892619D02*
X186274405Y-103845000D01*
X186274405Y-103845000D02*
X186226786Y-103797380D01*
%TO.C,J9*%
X149425619Y-109782333D02*
X150139904Y-109782333D01*
X150139904Y-109782333D02*
X150282761Y-109829952D01*
X150282761Y-109829952D02*
X150378000Y-109925190D01*
X150378000Y-109925190D02*
X150425619Y-110068047D01*
X150425619Y-110068047D02*
X150425619Y-110163285D01*
X150425619Y-109258523D02*
X150425619Y-109068047D01*
X150425619Y-109068047D02*
X150378000Y-108972809D01*
X150378000Y-108972809D02*
X150330380Y-108925190D01*
X150330380Y-108925190D02*
X150187523Y-108829952D01*
X150187523Y-108829952D02*
X149997047Y-108782333D01*
X149997047Y-108782333D02*
X149616095Y-108782333D01*
X149616095Y-108782333D02*
X149520857Y-108829952D01*
X149520857Y-108829952D02*
X149473238Y-108877571D01*
X149473238Y-108877571D02*
X149425619Y-108972809D01*
X149425619Y-108972809D02*
X149425619Y-109163285D01*
X149425619Y-109163285D02*
X149473238Y-109258523D01*
X149473238Y-109258523D02*
X149520857Y-109306142D01*
X149520857Y-109306142D02*
X149616095Y-109353761D01*
X149616095Y-109353761D02*
X149854190Y-109353761D01*
X149854190Y-109353761D02*
X149949428Y-109306142D01*
X149949428Y-109306142D02*
X149997047Y-109258523D01*
X149997047Y-109258523D02*
X150044666Y-109163285D01*
X150044666Y-109163285D02*
X150044666Y-108972809D01*
X150044666Y-108972809D02*
X149997047Y-108877571D01*
X149997047Y-108877571D02*
X149949428Y-108829952D01*
X149949428Y-108829952D02*
X149854190Y-108782333D01*
%TO.C,RV3*%
X164950619Y-97115238D02*
X164474428Y-97448571D01*
X164950619Y-97686666D02*
X163950619Y-97686666D01*
X163950619Y-97686666D02*
X163950619Y-97305714D01*
X163950619Y-97305714D02*
X163998238Y-97210476D01*
X163998238Y-97210476D02*
X164045857Y-97162857D01*
X164045857Y-97162857D02*
X164141095Y-97115238D01*
X164141095Y-97115238D02*
X164283952Y-97115238D01*
X164283952Y-97115238D02*
X164379190Y-97162857D01*
X164379190Y-97162857D02*
X164426809Y-97210476D01*
X164426809Y-97210476D02*
X164474428Y-97305714D01*
X164474428Y-97305714D02*
X164474428Y-97686666D01*
X163950619Y-96829523D02*
X164950619Y-96496190D01*
X164950619Y-96496190D02*
X163950619Y-96162857D01*
X163950619Y-95924761D02*
X163950619Y-95305714D01*
X163950619Y-95305714D02*
X164331571Y-95639047D01*
X164331571Y-95639047D02*
X164331571Y-95496190D01*
X164331571Y-95496190D02*
X164379190Y-95400952D01*
X164379190Y-95400952D02*
X164426809Y-95353333D01*
X164426809Y-95353333D02*
X164522047Y-95305714D01*
X164522047Y-95305714D02*
X164760142Y-95305714D01*
X164760142Y-95305714D02*
X164855380Y-95353333D01*
X164855380Y-95353333D02*
X164903000Y-95400952D01*
X164903000Y-95400952D02*
X164950619Y-95496190D01*
X164950619Y-95496190D02*
X164950619Y-95781904D01*
X164950619Y-95781904D02*
X164903000Y-95877142D01*
X164903000Y-95877142D02*
X164855380Y-95924761D01*
%TO.C,RV1*%
X164950619Y-71715238D02*
X164474428Y-72048571D01*
X164950619Y-72286666D02*
X163950619Y-72286666D01*
X163950619Y-72286666D02*
X163950619Y-71905714D01*
X163950619Y-71905714D02*
X163998238Y-71810476D01*
X163998238Y-71810476D02*
X164045857Y-71762857D01*
X164045857Y-71762857D02*
X164141095Y-71715238D01*
X164141095Y-71715238D02*
X164283952Y-71715238D01*
X164283952Y-71715238D02*
X164379190Y-71762857D01*
X164379190Y-71762857D02*
X164426809Y-71810476D01*
X164426809Y-71810476D02*
X164474428Y-71905714D01*
X164474428Y-71905714D02*
X164474428Y-72286666D01*
X163950619Y-71429523D02*
X164950619Y-71096190D01*
X164950619Y-71096190D02*
X163950619Y-70762857D01*
X164950619Y-69905714D02*
X164950619Y-70477142D01*
X164950619Y-70191428D02*
X163950619Y-70191428D01*
X163950619Y-70191428D02*
X164093476Y-70286666D01*
X164093476Y-70286666D02*
X164188714Y-70381904D01*
X164188714Y-70381904D02*
X164236333Y-70477142D01*
%TO.C,SW2*%
X184179167Y-97495000D02*
X184322024Y-97542619D01*
X184322024Y-97542619D02*
X184560119Y-97542619D01*
X184560119Y-97542619D02*
X184655357Y-97495000D01*
X184655357Y-97495000D02*
X184702976Y-97447380D01*
X184702976Y-97447380D02*
X184750595Y-97352142D01*
X184750595Y-97352142D02*
X184750595Y-97256904D01*
X184750595Y-97256904D02*
X184702976Y-97161666D01*
X184702976Y-97161666D02*
X184655357Y-97114047D01*
X184655357Y-97114047D02*
X184560119Y-97066428D01*
X184560119Y-97066428D02*
X184369643Y-97018809D01*
X184369643Y-97018809D02*
X184274405Y-96971190D01*
X184274405Y-96971190D02*
X184226786Y-96923571D01*
X184226786Y-96923571D02*
X184179167Y-96828333D01*
X184179167Y-96828333D02*
X184179167Y-96733095D01*
X184179167Y-96733095D02*
X184226786Y-96637857D01*
X184226786Y-96637857D02*
X184274405Y-96590238D01*
X184274405Y-96590238D02*
X184369643Y-96542619D01*
X184369643Y-96542619D02*
X184607738Y-96542619D01*
X184607738Y-96542619D02*
X184750595Y-96590238D01*
X185083929Y-96542619D02*
X185322024Y-97542619D01*
X185322024Y-97542619D02*
X185512500Y-96828333D01*
X185512500Y-96828333D02*
X185702976Y-97542619D01*
X185702976Y-97542619D02*
X185941072Y-96542619D01*
X186274405Y-96637857D02*
X186322024Y-96590238D01*
X186322024Y-96590238D02*
X186417262Y-96542619D01*
X186417262Y-96542619D02*
X186655357Y-96542619D01*
X186655357Y-96542619D02*
X186750595Y-96590238D01*
X186750595Y-96590238D02*
X186798214Y-96637857D01*
X186798214Y-96637857D02*
X186845833Y-96733095D01*
X186845833Y-96733095D02*
X186845833Y-96828333D01*
X186845833Y-96828333D02*
X186798214Y-96971190D01*
X186798214Y-96971190D02*
X186226786Y-97542619D01*
X186226786Y-97542619D02*
X186845833Y-97542619D01*
%TO.C,J2*%
X159686666Y-88592619D02*
X159686666Y-89306904D01*
X159686666Y-89306904D02*
X159639047Y-89449761D01*
X159639047Y-89449761D02*
X159543809Y-89545000D01*
X159543809Y-89545000D02*
X159400952Y-89592619D01*
X159400952Y-89592619D02*
X159305714Y-89592619D01*
X160115238Y-88687857D02*
X160162857Y-88640238D01*
X160162857Y-88640238D02*
X160258095Y-88592619D01*
X160258095Y-88592619D02*
X160496190Y-88592619D01*
X160496190Y-88592619D02*
X160591428Y-88640238D01*
X160591428Y-88640238D02*
X160639047Y-88687857D01*
X160639047Y-88687857D02*
X160686666Y-88783095D01*
X160686666Y-88783095D02*
X160686666Y-88878333D01*
X160686666Y-88878333D02*
X160639047Y-89021190D01*
X160639047Y-89021190D02*
X160067619Y-89592619D01*
X160067619Y-89592619D02*
X160686666Y-89592619D01*
%TO.C,J5*%
X87422619Y-88873333D02*
X88136904Y-88873333D01*
X88136904Y-88873333D02*
X88279761Y-88920952D01*
X88279761Y-88920952D02*
X88375000Y-89016190D01*
X88375000Y-89016190D02*
X88422619Y-89159047D01*
X88422619Y-89159047D02*
X88422619Y-89254285D01*
X87422619Y-87920952D02*
X87422619Y-88397142D01*
X87422619Y-88397142D02*
X87898809Y-88444761D01*
X87898809Y-88444761D02*
X87851190Y-88397142D01*
X87851190Y-88397142D02*
X87803571Y-88301904D01*
X87803571Y-88301904D02*
X87803571Y-88063809D01*
X87803571Y-88063809D02*
X87851190Y-87968571D01*
X87851190Y-87968571D02*
X87898809Y-87920952D01*
X87898809Y-87920952D02*
X87994047Y-87873333D01*
X87994047Y-87873333D02*
X88232142Y-87873333D01*
X88232142Y-87873333D02*
X88327380Y-87920952D01*
X88327380Y-87920952D02*
X88375000Y-87968571D01*
X88375000Y-87968571D02*
X88422619Y-88063809D01*
X88422619Y-88063809D02*
X88422619Y-88301904D01*
X88422619Y-88301904D02*
X88375000Y-88397142D01*
X88375000Y-88397142D02*
X88327380Y-88444761D01*
%TO.C,J8*%
X105102619Y-109782333D02*
X105816904Y-109782333D01*
X105816904Y-109782333D02*
X105959761Y-109829952D01*
X105959761Y-109829952D02*
X106055000Y-109925190D01*
X106055000Y-109925190D02*
X106102619Y-110068047D01*
X106102619Y-110068047D02*
X106102619Y-110163285D01*
X105531190Y-109163285D02*
X105483571Y-109258523D01*
X105483571Y-109258523D02*
X105435952Y-109306142D01*
X105435952Y-109306142D02*
X105340714Y-109353761D01*
X105340714Y-109353761D02*
X105293095Y-109353761D01*
X105293095Y-109353761D02*
X105197857Y-109306142D01*
X105197857Y-109306142D02*
X105150238Y-109258523D01*
X105150238Y-109258523D02*
X105102619Y-109163285D01*
X105102619Y-109163285D02*
X105102619Y-108972809D01*
X105102619Y-108972809D02*
X105150238Y-108877571D01*
X105150238Y-108877571D02*
X105197857Y-108829952D01*
X105197857Y-108829952D02*
X105293095Y-108782333D01*
X105293095Y-108782333D02*
X105340714Y-108782333D01*
X105340714Y-108782333D02*
X105435952Y-108829952D01*
X105435952Y-108829952D02*
X105483571Y-108877571D01*
X105483571Y-108877571D02*
X105531190Y-108972809D01*
X105531190Y-108972809D02*
X105531190Y-109163285D01*
X105531190Y-109163285D02*
X105578809Y-109258523D01*
X105578809Y-109258523D02*
X105626428Y-109306142D01*
X105626428Y-109306142D02*
X105721666Y-109353761D01*
X105721666Y-109353761D02*
X105912142Y-109353761D01*
X105912142Y-109353761D02*
X106007380Y-109306142D01*
X106007380Y-109306142D02*
X106055000Y-109258523D01*
X106055000Y-109258523D02*
X106102619Y-109163285D01*
X106102619Y-109163285D02*
X106102619Y-108972809D01*
X106102619Y-108972809D02*
X106055000Y-108877571D01*
X106055000Y-108877571D02*
X106007380Y-108829952D01*
X106007380Y-108829952D02*
X105912142Y-108782333D01*
X105912142Y-108782333D02*
X105721666Y-108782333D01*
X105721666Y-108782333D02*
X105626428Y-108829952D01*
X105626428Y-108829952D02*
X105578809Y-108877571D01*
X105578809Y-108877571D02*
X105531190Y-108972809D01*
%TO.C,J1*%
X180026666Y-71622619D02*
X180026666Y-72336904D01*
X180026666Y-72336904D02*
X179979047Y-72479761D01*
X179979047Y-72479761D02*
X179883809Y-72575000D01*
X179883809Y-72575000D02*
X179740952Y-72622619D01*
X179740952Y-72622619D02*
X179645714Y-72622619D01*
X181026666Y-72622619D02*
X180455238Y-72622619D01*
X180740952Y-72622619D02*
X180740952Y-71622619D01*
X180740952Y-71622619D02*
X180645714Y-71765476D01*
X180645714Y-71765476D02*
X180550476Y-71860714D01*
X180550476Y-71860714D02*
X180455238Y-71908333D01*
%TO.C,RV2*%
X164950619Y-84415238D02*
X164474428Y-84748571D01*
X164950619Y-84986666D02*
X163950619Y-84986666D01*
X163950619Y-84986666D02*
X163950619Y-84605714D01*
X163950619Y-84605714D02*
X163998238Y-84510476D01*
X163998238Y-84510476D02*
X164045857Y-84462857D01*
X164045857Y-84462857D02*
X164141095Y-84415238D01*
X164141095Y-84415238D02*
X164283952Y-84415238D01*
X164283952Y-84415238D02*
X164379190Y-84462857D01*
X164379190Y-84462857D02*
X164426809Y-84510476D01*
X164426809Y-84510476D02*
X164474428Y-84605714D01*
X164474428Y-84605714D02*
X164474428Y-84986666D01*
X163950619Y-84129523D02*
X164950619Y-83796190D01*
X164950619Y-83796190D02*
X163950619Y-83462857D01*
X164045857Y-83177142D02*
X163998238Y-83129523D01*
X163998238Y-83129523D02*
X163950619Y-83034285D01*
X163950619Y-83034285D02*
X163950619Y-82796190D01*
X163950619Y-82796190D02*
X163998238Y-82700952D01*
X163998238Y-82700952D02*
X164045857Y-82653333D01*
X164045857Y-82653333D02*
X164141095Y-82605714D01*
X164141095Y-82605714D02*
X164236333Y-82605714D01*
X164236333Y-82605714D02*
X164379190Y-82653333D01*
X164379190Y-82653333D02*
X164950619Y-83224761D01*
X164950619Y-83224761D02*
X164950619Y-82605714D01*
%TO.C,J7*%
X149425619Y-99622333D02*
X150139904Y-99622333D01*
X150139904Y-99622333D02*
X150282761Y-99669952D01*
X150282761Y-99669952D02*
X150378000Y-99765190D01*
X150378000Y-99765190D02*
X150425619Y-99908047D01*
X150425619Y-99908047D02*
X150425619Y-100003285D01*
X149425619Y-99241380D02*
X149425619Y-98574714D01*
X149425619Y-98574714D02*
X150425619Y-99003285D01*
%TO.C,J11*%
X138672619Y-59939523D02*
X139386904Y-59939523D01*
X139386904Y-59939523D02*
X139529761Y-59987142D01*
X139529761Y-59987142D02*
X139625000Y-60082380D01*
X139625000Y-60082380D02*
X139672619Y-60225237D01*
X139672619Y-60225237D02*
X139672619Y-60320475D01*
X139672619Y-58939523D02*
X139672619Y-59510951D01*
X139672619Y-59225237D02*
X138672619Y-59225237D01*
X138672619Y-59225237D02*
X138815476Y-59320475D01*
X138815476Y-59320475D02*
X138910714Y-59415713D01*
X138910714Y-59415713D02*
X138958333Y-59510951D01*
X139672619Y-57987142D02*
X139672619Y-58558570D01*
X139672619Y-58272856D02*
X138672619Y-58272856D01*
X138672619Y-58272856D02*
X138815476Y-58368094D01*
X138815476Y-58368094D02*
X138910714Y-58463332D01*
X138910714Y-58463332D02*
X138958333Y-58558570D01*
D11*
%TO.C,J12*%
X92020000Y-93700000D02*
X137800000Y-93700000D01*
X92020000Y-93700000D02*
X92020000Y-91040000D01*
X137800000Y-93700000D02*
X137800000Y-91040000D01*
X89420000Y-92370000D02*
X89420000Y-91040000D01*
X89420000Y-91040000D02*
X90750000Y-91040000D01*
X92020000Y-91040000D02*
X137800000Y-91040000D01*
%TO.C,J3*%
X189290000Y-83880000D02*
X189290000Y-73600000D01*
X189290000Y-83880000D02*
X186690000Y-83880000D01*
X189290000Y-73600000D02*
X184090000Y-73600000D01*
X186690000Y-83880000D02*
X186690000Y-81280000D01*
X186690000Y-81280000D02*
X184090000Y-81280000D01*
X185420000Y-83880000D02*
X184090000Y-83880000D01*
X184090000Y-83880000D02*
X184090000Y-82550000D01*
X184090000Y-81280000D02*
X184090000Y-73600000D01*
%TO.C,J6*%
X101600000Y-97730000D02*
X99000000Y-97730000D01*
X101600000Y-97730000D02*
X101600000Y-100390000D01*
X99000000Y-97730000D02*
X99000000Y-100390000D01*
X104200000Y-99060000D02*
X104200000Y-100390000D01*
X104200000Y-100390000D02*
X102870000Y-100390000D01*
X101600000Y-100390000D02*
X99000000Y-100390000D01*
%TO.C,SW1*%
X180862500Y-91830000D02*
X181862500Y-91830000D01*
X180862500Y-92830000D02*
X180862500Y-91830000D01*
X181162500Y-92130000D02*
X182012500Y-92130000D01*
X181162500Y-95830000D02*
X181162500Y-92130000D01*
X182042500Y-95830000D02*
X181162500Y-95830000D01*
X184012500Y-92130000D02*
X184542500Y-92130000D01*
X184542500Y-95830000D02*
X183982500Y-95830000D01*
X186482500Y-92130000D02*
X187042500Y-92130000D01*
X187032500Y-95830000D02*
X186482500Y-95830000D01*
X188982500Y-92130000D02*
X189862500Y-92130000D01*
X189862500Y-92130000D02*
X189862500Y-95830000D01*
X189862500Y-95830000D02*
X188992500Y-95830000D01*
%TO.C,J4*%
X135180000Y-61810000D02*
X89400000Y-61810000D01*
X135180000Y-61810000D02*
X135180000Y-64470000D01*
X89400000Y-61810000D02*
X89400000Y-64470000D01*
X137780000Y-63140000D02*
X137780000Y-64470000D01*
X137780000Y-64470000D02*
X136450000Y-64470000D01*
X135180000Y-64470000D02*
X89400000Y-64470000D01*
%TO.C,RV4*%
X165618000Y-63305000D02*
X170688000Y-63305000D01*
X165618000Y-63305000D02*
X165618000Y-53535000D01*
X170688000Y-63305000D02*
X170688000Y-53535000D01*
X165618000Y-53535000D02*
X170688000Y-53535000D01*
%TO.C,SW4*%
X180862500Y-110880000D02*
X181862500Y-110880000D01*
X180862500Y-111880000D02*
X180862500Y-110880000D01*
X181162500Y-111180000D02*
X182012500Y-111180000D01*
X181162500Y-114880000D02*
X181162500Y-111180000D01*
X182042500Y-114880000D02*
X181162500Y-114880000D01*
X184012500Y-111180000D02*
X184542500Y-111180000D01*
X184542500Y-114880000D02*
X183982500Y-114880000D01*
X186482500Y-111180000D02*
X187042500Y-111180000D01*
X187032500Y-114880000D02*
X186482500Y-114880000D01*
X188982500Y-111180000D02*
X189862500Y-111180000D01*
X189862500Y-111180000D02*
X189862500Y-114880000D01*
X189862500Y-114880000D02*
X188992500Y-114880000D01*
%TO.C,J10*%
X163008000Y-104080000D02*
X163008000Y-114360000D01*
X163008000Y-104080000D02*
X165608000Y-104080000D01*
X163008000Y-114360000D02*
X168208000Y-114360000D01*
X165608000Y-104080000D02*
X165608000Y-106680000D01*
X165608000Y-106680000D02*
X168208000Y-106680000D01*
X166878000Y-104080000D02*
X168208000Y-104080000D01*
X168208000Y-104080000D02*
X168208000Y-105410000D01*
X168208000Y-106680000D02*
X168208000Y-114360000D01*
%TO.C,SW3*%
X180862500Y-104530000D02*
X181862500Y-104530000D01*
X180862500Y-105530000D02*
X180862500Y-104530000D01*
X181162500Y-104830000D02*
X182012500Y-104830000D01*
X181162500Y-108530000D02*
X181162500Y-104830000D01*
X182042500Y-108530000D02*
X181162500Y-108530000D01*
X184012500Y-104830000D02*
X184542500Y-104830000D01*
X184542500Y-108530000D02*
X183982500Y-108530000D01*
X186482500Y-104830000D02*
X187042500Y-104830000D01*
X187032500Y-108530000D02*
X186482500Y-108530000D01*
X188982500Y-104830000D02*
X189862500Y-104830000D01*
X189862500Y-104830000D02*
X189862500Y-108530000D01*
X189862500Y-108530000D02*
X188992500Y-108530000D01*
%TO.C,J9*%
X145923000Y-108119000D02*
X143323000Y-108119000D01*
X145923000Y-108119000D02*
X145923000Y-110779000D01*
X143323000Y-108119000D02*
X143323000Y-110779000D01*
X148523000Y-109449000D02*
X148523000Y-110779000D01*
X148523000Y-110779000D02*
X147193000Y-110779000D01*
X145923000Y-110779000D02*
X143323000Y-110779000D01*
%TO.C,RV3*%
X165618000Y-101405000D02*
X170688000Y-101405000D01*
X165618000Y-101405000D02*
X165618000Y-91635000D01*
X170688000Y-101405000D02*
X170688000Y-91635000D01*
X165618000Y-91635000D02*
X170688000Y-91635000D01*
%TO.C,RV1*%
X165618000Y-76005000D02*
X170688000Y-76005000D01*
X165618000Y-76005000D02*
X165618000Y-66235000D01*
X170688000Y-76005000D02*
X170688000Y-66235000D01*
X165618000Y-66235000D02*
X170688000Y-66235000D01*
%TO.C,SW2*%
X180862500Y-98180000D02*
X181862500Y-98180000D01*
X180862500Y-99180000D02*
X180862500Y-98180000D01*
X181162500Y-98480000D02*
X182012500Y-98480000D01*
X181162500Y-102180000D02*
X181162500Y-98480000D01*
X182042500Y-102180000D02*
X181162500Y-102180000D01*
X184012500Y-98480000D02*
X184542500Y-98480000D01*
X184542500Y-102180000D02*
X183982500Y-102180000D01*
X186482500Y-98480000D02*
X187042500Y-98480000D01*
X187032500Y-102180000D02*
X186482500Y-102180000D01*
X188982500Y-98480000D02*
X189862500Y-98480000D01*
X189862500Y-98480000D02*
X189862500Y-102180000D01*
X189862500Y-102180000D02*
X188992500Y-102180000D01*
%TO.C,J2*%
X161350000Y-85090000D02*
X161350000Y-62170000D01*
X161350000Y-85090000D02*
X158690000Y-85090000D01*
X161350000Y-62170000D02*
X158690000Y-62170000D01*
X160020000Y-87690000D02*
X158690000Y-87690000D01*
X158690000Y-87690000D02*
X158690000Y-86360000D01*
X158690000Y-85090000D02*
X158690000Y-62170000D01*
%TO.C,J5*%
X92000000Y-89870000D02*
X137780000Y-89870000D01*
X92000000Y-89870000D02*
X92000000Y-87210000D01*
X137780000Y-89870000D02*
X137780000Y-87210000D01*
X89400000Y-88540000D02*
X89400000Y-87210000D01*
X89400000Y-87210000D02*
X90730000Y-87210000D01*
X92000000Y-87210000D02*
X137780000Y-87210000D01*
%TO.C,J8*%
X101600000Y-108119000D02*
X99000000Y-108119000D01*
X101600000Y-108119000D02*
X101600000Y-110779000D01*
X99000000Y-108119000D02*
X99000000Y-110779000D01*
X104200000Y-109449000D02*
X104200000Y-110779000D01*
X104200000Y-110779000D02*
X102870000Y-110779000D01*
X101600000Y-110779000D02*
X99000000Y-110779000D01*
%TO.C,J1*%
X177760000Y-73600000D02*
X177760000Y-83880000D01*
X177760000Y-73600000D02*
X180360000Y-73600000D01*
X177760000Y-83880000D02*
X182960000Y-83880000D01*
X180360000Y-73600000D02*
X180360000Y-76200000D01*
X180360000Y-76200000D02*
X182960000Y-76200000D01*
X181630000Y-73600000D02*
X182960000Y-73600000D01*
X182960000Y-73600000D02*
X182960000Y-74930000D01*
X182960000Y-76200000D02*
X182960000Y-83880000D01*
%TO.C,RV2*%
X165618000Y-88705000D02*
X170688000Y-88705000D01*
X165618000Y-88705000D02*
X165618000Y-78935000D01*
X170688000Y-88705000D02*
X170688000Y-78935000D01*
X165618000Y-78935000D02*
X170688000Y-78935000D01*
%TO.C,J7*%
X145923000Y-97959000D02*
X143323000Y-97959000D01*
X145923000Y-97959000D02*
X145923000Y-100619000D01*
X143323000Y-97959000D02*
X143323000Y-100619000D01*
X148523000Y-99289000D02*
X148523000Y-100619000D01*
X148523000Y-100619000D02*
X147193000Y-100619000D01*
X145923000Y-100619000D02*
X143323000Y-100619000D01*
%TO.C,J11*%
X135170000Y-57800000D02*
X89390000Y-57800000D01*
X135170000Y-57800000D02*
X135170000Y-60460000D01*
X89390000Y-57800000D02*
X89390000Y-60460000D01*
X137770000Y-59130000D02*
X137770000Y-60460000D01*
X137770000Y-60460000D02*
X136440000Y-60460000D01*
X135170000Y-60460000D02*
X89390000Y-60460000D01*
%TD*%
M02*
