%TF.GenerationSoftware,KiCad,Pcbnew,7.0.2*%
%TF.CreationDate,2023-06-25T00:33:43-03:00*%
%TF.ProjectId,Projeto final de EA075,50726f6a-6574-46f2-9066-696e616c2064,rev?*%
%TF.SameCoordinates,Original*%
%TF.FileFunction,Legend,Top*%
%TF.FilePolarity,Positive*%
%FSLAX46Y46*%
G04 Gerber Fmt 4.6, Leading zero omitted, Abs format (unit mm)*
G04 Created by KiCad (PCBNEW 7.0.2) date 2023-06-25 00:33:43*
%MOMM*%
%LPD*%
G01*
G04 APERTURE LIST*
%ADD10C,0.150000*%
%ADD11C,0.120000*%
G04 APERTURE END LIST*
D10*
%TO.C,U3*%
X161798095Y-93442619D02*
X161798095Y-94252142D01*
X161798095Y-94252142D02*
X161845714Y-94347380D01*
X161845714Y-94347380D02*
X161893333Y-94395000D01*
X161893333Y-94395000D02*
X161988571Y-94442619D01*
X161988571Y-94442619D02*
X162179047Y-94442619D01*
X162179047Y-94442619D02*
X162274285Y-94395000D01*
X162274285Y-94395000D02*
X162321904Y-94347380D01*
X162321904Y-94347380D02*
X162369523Y-94252142D01*
X162369523Y-94252142D02*
X162369523Y-93442619D01*
X162750476Y-93442619D02*
X163369523Y-93442619D01*
X163369523Y-93442619D02*
X163036190Y-93823571D01*
X163036190Y-93823571D02*
X163179047Y-93823571D01*
X163179047Y-93823571D02*
X163274285Y-93871190D01*
X163274285Y-93871190D02*
X163321904Y-93918809D01*
X163321904Y-93918809D02*
X163369523Y-94014047D01*
X163369523Y-94014047D02*
X163369523Y-94252142D01*
X163369523Y-94252142D02*
X163321904Y-94347380D01*
X163321904Y-94347380D02*
X163274285Y-94395000D01*
X163274285Y-94395000D02*
X163179047Y-94442619D01*
X163179047Y-94442619D02*
X162893333Y-94442619D01*
X162893333Y-94442619D02*
X162798095Y-94395000D01*
X162798095Y-94395000D02*
X162750476Y-94347380D01*
%TO.C,U2*%
X164608095Y-92892619D02*
X164608095Y-93702142D01*
X164608095Y-93702142D02*
X164655714Y-93797380D01*
X164655714Y-93797380D02*
X164703333Y-93845000D01*
X164703333Y-93845000D02*
X164798571Y-93892619D01*
X164798571Y-93892619D02*
X164989047Y-93892619D01*
X164989047Y-93892619D02*
X165084285Y-93845000D01*
X165084285Y-93845000D02*
X165131904Y-93797380D01*
X165131904Y-93797380D02*
X165179523Y-93702142D01*
X165179523Y-93702142D02*
X165179523Y-92892619D01*
X165608095Y-92987857D02*
X165655714Y-92940238D01*
X165655714Y-92940238D02*
X165750952Y-92892619D01*
X165750952Y-92892619D02*
X165989047Y-92892619D01*
X165989047Y-92892619D02*
X166084285Y-92940238D01*
X166084285Y-92940238D02*
X166131904Y-92987857D01*
X166131904Y-92987857D02*
X166179523Y-93083095D01*
X166179523Y-93083095D02*
X166179523Y-93178333D01*
X166179523Y-93178333D02*
X166131904Y-93321190D01*
X166131904Y-93321190D02*
X165560476Y-93892619D01*
X165560476Y-93892619D02*
X166179523Y-93892619D01*
%TO.C,U1*%
X162638095Y-67562619D02*
X162638095Y-68372142D01*
X162638095Y-68372142D02*
X162685714Y-68467380D01*
X162685714Y-68467380D02*
X162733333Y-68515000D01*
X162733333Y-68515000D02*
X162828571Y-68562619D01*
X162828571Y-68562619D02*
X163019047Y-68562619D01*
X163019047Y-68562619D02*
X163114285Y-68515000D01*
X163114285Y-68515000D02*
X163161904Y-68467380D01*
X163161904Y-68467380D02*
X163209523Y-68372142D01*
X163209523Y-68372142D02*
X163209523Y-67562619D01*
X164209523Y-68562619D02*
X163638095Y-68562619D01*
X163923809Y-68562619D02*
X163923809Y-67562619D01*
X163923809Y-67562619D02*
X163828571Y-67705476D01*
X163828571Y-67705476D02*
X163733333Y-67800714D01*
X163733333Y-67800714D02*
X163638095Y-67848333D01*
%TO.C,Q1*%
X138254761Y-94897857D02*
X138159523Y-94850238D01*
X138159523Y-94850238D02*
X138064285Y-94755000D01*
X138064285Y-94755000D02*
X137921428Y-94612142D01*
X137921428Y-94612142D02*
X137826190Y-94564523D01*
X137826190Y-94564523D02*
X137730952Y-94564523D01*
X137778571Y-94802619D02*
X137683333Y-94755000D01*
X137683333Y-94755000D02*
X137588095Y-94659761D01*
X137588095Y-94659761D02*
X137540476Y-94469285D01*
X137540476Y-94469285D02*
X137540476Y-94135952D01*
X137540476Y-94135952D02*
X137588095Y-93945476D01*
X137588095Y-93945476D02*
X137683333Y-93850238D01*
X137683333Y-93850238D02*
X137778571Y-93802619D01*
X137778571Y-93802619D02*
X137969047Y-93802619D01*
X137969047Y-93802619D02*
X138064285Y-93850238D01*
X138064285Y-93850238D02*
X138159523Y-93945476D01*
X138159523Y-93945476D02*
X138207142Y-94135952D01*
X138207142Y-94135952D02*
X138207142Y-94469285D01*
X138207142Y-94469285D02*
X138159523Y-94659761D01*
X138159523Y-94659761D02*
X138064285Y-94755000D01*
X138064285Y-94755000D02*
X137969047Y-94802619D01*
X137969047Y-94802619D02*
X137778571Y-94802619D01*
X139159523Y-94802619D02*
X138588095Y-94802619D01*
X138873809Y-94802619D02*
X138873809Y-93802619D01*
X138873809Y-93802619D02*
X138778571Y-93945476D01*
X138778571Y-93945476D02*
X138683333Y-94040714D01*
X138683333Y-94040714D02*
X138588095Y-94088333D01*
%TO.C,J4*%
X153497619Y-101825833D02*
X154211904Y-101825833D01*
X154211904Y-101825833D02*
X154354761Y-101873452D01*
X154354761Y-101873452D02*
X154450000Y-101968690D01*
X154450000Y-101968690D02*
X154497619Y-102111547D01*
X154497619Y-102111547D02*
X154497619Y-102206785D01*
X153830952Y-100921071D02*
X154497619Y-100921071D01*
X153450000Y-101159166D02*
X154164285Y-101397261D01*
X154164285Y-101397261D02*
X154164285Y-100778214D01*
%TO.C,J3*%
X156037619Y-101825833D02*
X156751904Y-101825833D01*
X156751904Y-101825833D02*
X156894761Y-101873452D01*
X156894761Y-101873452D02*
X156990000Y-101968690D01*
X156990000Y-101968690D02*
X157037619Y-102111547D01*
X157037619Y-102111547D02*
X157037619Y-102206785D01*
X156037619Y-101444880D02*
X156037619Y-100825833D01*
X156037619Y-100825833D02*
X156418571Y-101159166D01*
X156418571Y-101159166D02*
X156418571Y-101016309D01*
X156418571Y-101016309D02*
X156466190Y-100921071D01*
X156466190Y-100921071D02*
X156513809Y-100873452D01*
X156513809Y-100873452D02*
X156609047Y-100825833D01*
X156609047Y-100825833D02*
X156847142Y-100825833D01*
X156847142Y-100825833D02*
X156942380Y-100873452D01*
X156942380Y-100873452D02*
X156990000Y-100921071D01*
X156990000Y-100921071D02*
X157037619Y-101016309D01*
X157037619Y-101016309D02*
X157037619Y-101302023D01*
X157037619Y-101302023D02*
X156990000Y-101397261D01*
X156990000Y-101397261D02*
X156942380Y-101444880D01*
%TO.C,J2*%
X164616666Y-89127619D02*
X164616666Y-89841904D01*
X164616666Y-89841904D02*
X164569047Y-89984761D01*
X164569047Y-89984761D02*
X164473809Y-90080000D01*
X164473809Y-90080000D02*
X164330952Y-90127619D01*
X164330952Y-90127619D02*
X164235714Y-90127619D01*
X165045238Y-89222857D02*
X165092857Y-89175238D01*
X165092857Y-89175238D02*
X165188095Y-89127619D01*
X165188095Y-89127619D02*
X165426190Y-89127619D01*
X165426190Y-89127619D02*
X165521428Y-89175238D01*
X165521428Y-89175238D02*
X165569047Y-89222857D01*
X165569047Y-89222857D02*
X165616666Y-89318095D01*
X165616666Y-89318095D02*
X165616666Y-89413333D01*
X165616666Y-89413333D02*
X165569047Y-89556190D01*
X165569047Y-89556190D02*
X164997619Y-90127619D01*
X164997619Y-90127619D02*
X165616666Y-90127619D01*
%TO.C,J1*%
X167306666Y-88362619D02*
X167306666Y-89076904D01*
X167306666Y-89076904D02*
X167259047Y-89219761D01*
X167259047Y-89219761D02*
X167163809Y-89315000D01*
X167163809Y-89315000D02*
X167020952Y-89362619D01*
X167020952Y-89362619D02*
X166925714Y-89362619D01*
X168306666Y-89362619D02*
X167735238Y-89362619D01*
X168020952Y-89362619D02*
X168020952Y-88362619D01*
X168020952Y-88362619D02*
X167925714Y-88505476D01*
X167925714Y-88505476D02*
X167830476Y-88600714D01*
X167830476Y-88600714D02*
X167735238Y-88648333D01*
%TO.C,C5*%
X144733333Y-88437380D02*
X144685714Y-88485000D01*
X144685714Y-88485000D02*
X144542857Y-88532619D01*
X144542857Y-88532619D02*
X144447619Y-88532619D01*
X144447619Y-88532619D02*
X144304762Y-88485000D01*
X144304762Y-88485000D02*
X144209524Y-88389761D01*
X144209524Y-88389761D02*
X144161905Y-88294523D01*
X144161905Y-88294523D02*
X144114286Y-88104047D01*
X144114286Y-88104047D02*
X144114286Y-87961190D01*
X144114286Y-87961190D02*
X144161905Y-87770714D01*
X144161905Y-87770714D02*
X144209524Y-87675476D01*
X144209524Y-87675476D02*
X144304762Y-87580238D01*
X144304762Y-87580238D02*
X144447619Y-87532619D01*
X144447619Y-87532619D02*
X144542857Y-87532619D01*
X144542857Y-87532619D02*
X144685714Y-87580238D01*
X144685714Y-87580238D02*
X144733333Y-87627857D01*
X145638095Y-87532619D02*
X145161905Y-87532619D01*
X145161905Y-87532619D02*
X145114286Y-88008809D01*
X145114286Y-88008809D02*
X145161905Y-87961190D01*
X145161905Y-87961190D02*
X145257143Y-87913571D01*
X145257143Y-87913571D02*
X145495238Y-87913571D01*
X145495238Y-87913571D02*
X145590476Y-87961190D01*
X145590476Y-87961190D02*
X145638095Y-88008809D01*
X145638095Y-88008809D02*
X145685714Y-88104047D01*
X145685714Y-88104047D02*
X145685714Y-88342142D01*
X145685714Y-88342142D02*
X145638095Y-88437380D01*
X145638095Y-88437380D02*
X145590476Y-88485000D01*
X145590476Y-88485000D02*
X145495238Y-88532619D01*
X145495238Y-88532619D02*
X145257143Y-88532619D01*
X145257143Y-88532619D02*
X145161905Y-88485000D01*
X145161905Y-88485000D02*
X145114286Y-88437380D01*
%TO.C,C4*%
X144733333Y-81902380D02*
X144685714Y-81950000D01*
X144685714Y-81950000D02*
X144542857Y-81997619D01*
X144542857Y-81997619D02*
X144447619Y-81997619D01*
X144447619Y-81997619D02*
X144304762Y-81950000D01*
X144304762Y-81950000D02*
X144209524Y-81854761D01*
X144209524Y-81854761D02*
X144161905Y-81759523D01*
X144161905Y-81759523D02*
X144114286Y-81569047D01*
X144114286Y-81569047D02*
X144114286Y-81426190D01*
X144114286Y-81426190D02*
X144161905Y-81235714D01*
X144161905Y-81235714D02*
X144209524Y-81140476D01*
X144209524Y-81140476D02*
X144304762Y-81045238D01*
X144304762Y-81045238D02*
X144447619Y-80997619D01*
X144447619Y-80997619D02*
X144542857Y-80997619D01*
X144542857Y-80997619D02*
X144685714Y-81045238D01*
X144685714Y-81045238D02*
X144733333Y-81092857D01*
X145590476Y-81330952D02*
X145590476Y-81997619D01*
X145352381Y-80950000D02*
X145114286Y-81664285D01*
X145114286Y-81664285D02*
X145733333Y-81664285D01*
%TO.C,C3*%
X144733333Y-75367380D02*
X144685714Y-75415000D01*
X144685714Y-75415000D02*
X144542857Y-75462619D01*
X144542857Y-75462619D02*
X144447619Y-75462619D01*
X144447619Y-75462619D02*
X144304762Y-75415000D01*
X144304762Y-75415000D02*
X144209524Y-75319761D01*
X144209524Y-75319761D02*
X144161905Y-75224523D01*
X144161905Y-75224523D02*
X144114286Y-75034047D01*
X144114286Y-75034047D02*
X144114286Y-74891190D01*
X144114286Y-74891190D02*
X144161905Y-74700714D01*
X144161905Y-74700714D02*
X144209524Y-74605476D01*
X144209524Y-74605476D02*
X144304762Y-74510238D01*
X144304762Y-74510238D02*
X144447619Y-74462619D01*
X144447619Y-74462619D02*
X144542857Y-74462619D01*
X144542857Y-74462619D02*
X144685714Y-74510238D01*
X144685714Y-74510238D02*
X144733333Y-74557857D01*
X145066667Y-74462619D02*
X145685714Y-74462619D01*
X145685714Y-74462619D02*
X145352381Y-74843571D01*
X145352381Y-74843571D02*
X145495238Y-74843571D01*
X145495238Y-74843571D02*
X145590476Y-74891190D01*
X145590476Y-74891190D02*
X145638095Y-74938809D01*
X145638095Y-74938809D02*
X145685714Y-75034047D01*
X145685714Y-75034047D02*
X145685714Y-75272142D01*
X145685714Y-75272142D02*
X145638095Y-75367380D01*
X145638095Y-75367380D02*
X145590476Y-75415000D01*
X145590476Y-75415000D02*
X145495238Y-75462619D01*
X145495238Y-75462619D02*
X145209524Y-75462619D01*
X145209524Y-75462619D02*
X145114286Y-75415000D01*
X145114286Y-75415000D02*
X145066667Y-75367380D01*
%TO.C,C1*%
X144733333Y-68832380D02*
X144685714Y-68880000D01*
X144685714Y-68880000D02*
X144542857Y-68927619D01*
X144542857Y-68927619D02*
X144447619Y-68927619D01*
X144447619Y-68927619D02*
X144304762Y-68880000D01*
X144304762Y-68880000D02*
X144209524Y-68784761D01*
X144209524Y-68784761D02*
X144161905Y-68689523D01*
X144161905Y-68689523D02*
X144114286Y-68499047D01*
X144114286Y-68499047D02*
X144114286Y-68356190D01*
X144114286Y-68356190D02*
X144161905Y-68165714D01*
X144161905Y-68165714D02*
X144209524Y-68070476D01*
X144209524Y-68070476D02*
X144304762Y-67975238D01*
X144304762Y-67975238D02*
X144447619Y-67927619D01*
X144447619Y-67927619D02*
X144542857Y-67927619D01*
X144542857Y-67927619D02*
X144685714Y-67975238D01*
X144685714Y-67975238D02*
X144733333Y-68022857D01*
X145685714Y-68927619D02*
X145114286Y-68927619D01*
X145400000Y-68927619D02*
X145400000Y-67927619D01*
X145400000Y-67927619D02*
X145304762Y-68070476D01*
X145304762Y-68070476D02*
X145209524Y-68165714D01*
X145209524Y-68165714D02*
X145114286Y-68213333D01*
D11*
%TO.C,U3*%
X158400000Y-92560000D02*
X160350000Y-92560000D01*
X158400000Y-87440000D02*
X154950000Y-87440000D01*
X158400000Y-87440000D02*
X160350000Y-87440000D01*
X158400000Y-92560000D02*
X156450000Y-92560000D01*
%TO.C,U2*%
X167340000Y-94140000D02*
X163900000Y-94140000D01*
X163400000Y-96720000D02*
X167340000Y-96720000D01*
D10*
%TO.C,U1*%
X170575000Y-70375000D02*
X170575000Y-71050000D01*
X156225000Y-84725000D02*
X156225000Y-84050000D01*
X156225000Y-84725000D02*
X156900000Y-84725000D01*
X170575000Y-84725000D02*
X169900000Y-84725000D01*
X170575000Y-84725000D02*
X170575000Y-84050000D01*
X156225000Y-70375000D02*
X156225000Y-70950000D01*
X156225000Y-70950000D02*
X154950000Y-70950000D01*
X156225000Y-70375000D02*
X156900000Y-70375000D01*
X170575000Y-70375000D02*
X169900000Y-70375000D01*
D11*
%TO.C,Q1*%
X137130000Y-95120000D02*
X137130000Y-95415000D01*
X139970000Y-95415000D02*
X139970000Y-95120000D01*
X136400000Y-95415000D02*
X137130000Y-95415000D01*
X137130000Y-98365000D02*
X137130000Y-98660000D01*
X139970000Y-95120000D02*
X137130000Y-95120000D01*
X137130000Y-98660000D02*
X139970000Y-98660000D01*
X139970000Y-98660000D02*
X139970000Y-98365000D01*
%TO.C,J4*%
X153095000Y-99820000D02*
X153095000Y-100620000D01*
X151705000Y-100620000D02*
X151705000Y-99820000D01*
X152360000Y-100620000D02*
X152360000Y-104620000D01*
X152660000Y-104620000D02*
X152140000Y-104620000D01*
X152660000Y-100620000D02*
X152660000Y-104620000D01*
X151705000Y-99820000D02*
X151780323Y-99820000D01*
X153095000Y-100620000D02*
X151705000Y-100620000D01*
X152400000Y-98300000D02*
X153160000Y-98300000D01*
X152140000Y-104620000D02*
X152140000Y-100620000D01*
X152240000Y-100620000D02*
X152240000Y-104620000D01*
X152480000Y-100620000D02*
X152480000Y-104620000D01*
X152600000Y-100620000D02*
X152600000Y-104620000D01*
X153160000Y-98300000D02*
X153160000Y-99060000D01*
%TO.C,J3*%
X155700000Y-98300000D02*
X155700000Y-99060000D01*
X155140000Y-100620000D02*
X155140000Y-104620000D01*
X155020000Y-100620000D02*
X155020000Y-104620000D01*
X154780000Y-100620000D02*
X154780000Y-104620000D01*
X154680000Y-104620000D02*
X154680000Y-100620000D01*
X154940000Y-98300000D02*
X155700000Y-98300000D01*
X155635000Y-100620000D02*
X154245000Y-100620000D01*
X154245000Y-99820000D02*
X154320323Y-99820000D01*
X155200000Y-100620000D02*
X155200000Y-104620000D01*
X155200000Y-104620000D02*
X154680000Y-104620000D01*
X154900000Y-100620000D02*
X154900000Y-104620000D01*
X154245000Y-100620000D02*
X154245000Y-99820000D01*
X155635000Y-99820000D02*
X155635000Y-100620000D01*
%TO.C,J2*%
X166280000Y-91040000D02*
X166280000Y-91800000D01*
X163620000Y-92375000D02*
X163620000Y-92495000D01*
X163620000Y-92495000D02*
X164190000Y-92495000D01*
X164950000Y-91040000D02*
X166280000Y-91040000D01*
X165710000Y-92495000D02*
X166280000Y-92495000D01*
X166280000Y-92375000D02*
X166280000Y-92495000D01*
%TO.C,J1*%
X166280000Y-87690000D02*
X166280000Y-88450000D01*
X163620000Y-89025000D02*
X163620000Y-89145000D01*
X163620000Y-89145000D02*
X164190000Y-89145000D01*
X164950000Y-87690000D02*
X166280000Y-87690000D01*
X165710000Y-89145000D02*
X166280000Y-89145000D01*
X166280000Y-89025000D02*
X166280000Y-89145000D01*
%TO.C,C5*%
X142780000Y-93810000D02*
X150020000Y-93810000D01*
X138030000Y-89240000D02*
X139530000Y-89240000D01*
X142030000Y-89820000D02*
X142780000Y-89070000D01*
X150020000Y-89070000D02*
X150020000Y-93810000D01*
X139780000Y-89070000D02*
X139780000Y-93810000D01*
X141280000Y-89070000D02*
X142030000Y-89820000D01*
X139780000Y-89070000D02*
X141280000Y-89070000D01*
X141280000Y-93810000D02*
X142030000Y-93060000D01*
X142030000Y-93060000D02*
X142780000Y-93810000D01*
X142780000Y-89070000D02*
X150020000Y-89070000D01*
X151160000Y-91440000D02*
X150020000Y-91440000D01*
X139780000Y-93810000D02*
X141280000Y-93810000D01*
X138780000Y-88490000D02*
X138780000Y-89990000D01*
X138640000Y-91440000D02*
X139780000Y-91440000D01*
%TO.C,C4*%
X142780000Y-87275000D02*
X150020000Y-87275000D01*
X138030000Y-82705000D02*
X139530000Y-82705000D01*
X142030000Y-83285000D02*
X142780000Y-82535000D01*
X150020000Y-82535000D02*
X150020000Y-87275000D01*
X139780000Y-82535000D02*
X139780000Y-87275000D01*
X141280000Y-82535000D02*
X142030000Y-83285000D01*
X139780000Y-82535000D02*
X141280000Y-82535000D01*
X141280000Y-87275000D02*
X142030000Y-86525000D01*
X142030000Y-86525000D02*
X142780000Y-87275000D01*
X142780000Y-82535000D02*
X150020000Y-82535000D01*
X151160000Y-84905000D02*
X150020000Y-84905000D01*
X139780000Y-87275000D02*
X141280000Y-87275000D01*
X138780000Y-81955000D02*
X138780000Y-83455000D01*
X138640000Y-84905000D02*
X139780000Y-84905000D01*
%TO.C,C3*%
X142780000Y-80740000D02*
X150020000Y-80740000D01*
X138030000Y-76170000D02*
X139530000Y-76170000D01*
X142030000Y-76750000D02*
X142780000Y-76000000D01*
X150020000Y-76000000D02*
X150020000Y-80740000D01*
X139780000Y-76000000D02*
X139780000Y-80740000D01*
X141280000Y-76000000D02*
X142030000Y-76750000D01*
X139780000Y-76000000D02*
X141280000Y-76000000D01*
X141280000Y-80740000D02*
X142030000Y-79990000D01*
X142030000Y-79990000D02*
X142780000Y-80740000D01*
X142780000Y-76000000D02*
X150020000Y-76000000D01*
X151160000Y-78370000D02*
X150020000Y-78370000D01*
X139780000Y-80740000D02*
X141280000Y-80740000D01*
X138780000Y-75420000D02*
X138780000Y-76920000D01*
X138640000Y-78370000D02*
X139780000Y-78370000D01*
%TO.C,C1*%
X142780000Y-74205000D02*
X150020000Y-74205000D01*
X138030000Y-69635000D02*
X139530000Y-69635000D01*
X142030000Y-70215000D02*
X142780000Y-69465000D01*
X150020000Y-69465000D02*
X150020000Y-74205000D01*
X139780000Y-69465000D02*
X139780000Y-74205000D01*
X141280000Y-69465000D02*
X142030000Y-70215000D01*
X139780000Y-69465000D02*
X141280000Y-69465000D01*
X141280000Y-74205000D02*
X142030000Y-73455000D01*
X142030000Y-73455000D02*
X142780000Y-74205000D01*
X142780000Y-69465000D02*
X150020000Y-69465000D01*
X151160000Y-71835000D02*
X150020000Y-71835000D01*
X139780000Y-74205000D02*
X141280000Y-74205000D01*
X138780000Y-68885000D02*
X138780000Y-70385000D01*
X138640000Y-71835000D02*
X139780000Y-71835000D01*
%TD*%
M02*
