M48
; DRILL file {KiCad 7.0.2} date Sun Jun 25 00:33:28 2023
; FORMAT={-:-/ absolute / inch / decimal}
; #@! TF.CreationDate,2023-06-25T00:33:28-03:00
; #@! TF.GenerationSoftware,Kicad,Pcbnew,7.0.2
; #@! TF.FileFunction,Plated,1,4,PTH
FMAT,2
INCH
; #@! TA.AperFunction,Plated,PTH,ViaDrill
T1C0.0157
; #@! TA.AperFunction,Plated,PTH,ComponentDrill
T2C0.0256
; #@! TA.AperFunction,Plated,PTH,ComponentDrill
T3C0.0276
; #@! TA.AperFunction,Plated,PTH,ComponentDrill
T4C0.0394
%
G90
G05
T1
X5.3Y-3.7
X5.3Y-3.9
X5.6Y-3.7
X6.0Y-3.7362
X6.0669Y-3.2
X6.1Y-2.8
X6.1013Y-3.3904
X6.1291Y-3.4182
X6.2Y-3.437
X6.3Y-3.3701
X6.4Y-3.4849
X6.4Y-3.6018
X6.4Y-3.8
X6.4915Y-3.7846
X6.4999Y-2.6693
X6.5037Y-3.4094
T2
X6.0Y-3.9
X6.1Y-3.9
T3
X6.4941Y-3.4823
X6.4941Y-3.6142
T4
X5.4094Y-2.8281
X5.4094Y-3.0854
X5.4094Y-3.3427
X5.4094Y-3.6
X6.0Y-2.8281
X6.0Y-3.0854
X6.0Y-3.3427
X6.0Y-3.6
T0
M30
