%TF.GenerationSoftware,KiCad,Pcbnew,7.0.2*%
%TF.CreationDate,2023-06-25T00:33:43-03:00*%
%TF.ProjectId,Projeto final de EA075,50726f6a-6574-46f2-9066-696e616c2064,rev?*%
%TF.SameCoordinates,Original*%
%TF.FileFunction,Paste,Top*%
%TF.FilePolarity,Positive*%
%FSLAX46Y46*%
G04 Gerber Fmt 4.6, Leading zero omitted, Abs format (unit mm)*
G04 Created by KiCad (PCBNEW 7.0.2) date 2023-06-25 00:33:43*
%MOMM*%
%LPD*%
G01*
G04 APERTURE LIST*
G04 Aperture macros list*
%AMRoundRect*
0 Rectangle with rounded corners*
0 $1 Rounding radius*
0 $2 $3 $4 $5 $6 $7 $8 $9 X,Y pos of 4 corners*
0 Add a 4 corners polygon primitive as box body*
4,1,4,$2,$3,$4,$5,$6,$7,$8,$9,$2,$3,0*
0 Add four circle primitives for the rounded corners*
1,1,$1+$1,$2,$3*
1,1,$1+$1,$4,$5*
1,1,$1+$1,$6,$7*
1,1,$1+$1,$8,$9*
0 Add four rect primitives between the rounded corners*
20,1,$1+$1,$2,$3,$4,$5,0*
20,1,$1+$1,$4,$5,$6,$7,0*
20,1,$1+$1,$6,$7,$8,$9,0*
20,1,$1+$1,$8,$9,$2,$3,0*%
G04 Aperture macros list end*
%ADD10RoundRect,0.150000X-0.650000X-0.150000X0.650000X-0.150000X0.650000X0.150000X-0.650000X0.150000X0*%
%ADD11RoundRect,0.242500X-0.242500X-0.402500X0.242500X-0.402500X0.242500X0.402500X-0.242500X0.402500X0*%
%ADD12R,0.720000X0.600000*%
%ADD13R,1.500000X0.550000*%
%ADD14R,0.550000X1.500000*%
%ADD15R,0.510000X0.635000*%
%ADD16R,0.750000X0.300000*%
%ADD17R,0.830000X0.300000*%
G04 APERTURE END LIST*
D10*
%TO.C,U3*%
X161050000Y-88095000D03*
X161050000Y-89365000D03*
X161050000Y-90635000D03*
X161050000Y-91905000D03*
X155750000Y-91905000D03*
X155750000Y-90635000D03*
X155750000Y-89365000D03*
X155750000Y-88095000D03*
D11*
X159000000Y-90800000D03*
X157800000Y-90800000D03*
X159000000Y-89200000D03*
X157800000Y-89200000D03*
%TD*%
D12*
%TO.C,U2*%
X163915000Y-94730000D03*
X164885000Y-94730000D03*
X165855000Y-94730000D03*
X166825000Y-94730000D03*
X166825000Y-96130000D03*
X165855000Y-96130000D03*
X164885000Y-96130000D03*
X163915000Y-96130000D03*
%TD*%
D13*
%TO.C,U1*%
X155700000Y-71550000D03*
X155700000Y-72350000D03*
X155700000Y-73150000D03*
X155700000Y-73950000D03*
X155700000Y-74750000D03*
X155700000Y-75550000D03*
X155700000Y-76350000D03*
X155700000Y-77150000D03*
X155700000Y-77950000D03*
X155700000Y-78750000D03*
X155700000Y-79550000D03*
X155700000Y-80350000D03*
X155700000Y-81150000D03*
X155700000Y-81950000D03*
X155700000Y-82750000D03*
X155700000Y-83550000D03*
D14*
X157400000Y-85250000D03*
X158200000Y-85250000D03*
X159000000Y-85250000D03*
X159800000Y-85250000D03*
X160600000Y-85250000D03*
X161400000Y-85250000D03*
X162200000Y-85250000D03*
X163000000Y-85250000D03*
X163800000Y-85250000D03*
X164600000Y-85250000D03*
X165400000Y-85250000D03*
X166200000Y-85250000D03*
X167000000Y-85250000D03*
X167800000Y-85250000D03*
X168600000Y-85250000D03*
X169400000Y-85250000D03*
D13*
X171100000Y-83550000D03*
X171100000Y-82750000D03*
X171100000Y-81950000D03*
X171100000Y-81150000D03*
X171100000Y-80350000D03*
X171100000Y-79550000D03*
X171100000Y-78750000D03*
X171100000Y-77950000D03*
X171100000Y-77150000D03*
X171100000Y-76350000D03*
X171100000Y-75550000D03*
X171100000Y-74750000D03*
X171100000Y-73950000D03*
X171100000Y-73150000D03*
X171100000Y-72350000D03*
X171100000Y-71550000D03*
D14*
X169400000Y-69850000D03*
X168600000Y-69850000D03*
X167800000Y-69850000D03*
X167000000Y-69850000D03*
X166200000Y-69850000D03*
X165400000Y-69850000D03*
X164600000Y-69850000D03*
X163800000Y-69850000D03*
X163000000Y-69850000D03*
X162200000Y-69850000D03*
X161400000Y-69850000D03*
X160600000Y-69850000D03*
X159800000Y-69850000D03*
X159000000Y-69850000D03*
X158200000Y-69850000D03*
X157400000Y-69850000D03*
%TD*%
D15*
%TO.C,Q1*%
X138995000Y-96264000D03*
X138995000Y-97516000D03*
D16*
X139925000Y-97865000D03*
D17*
X136815000Y-97865000D03*
D16*
X139925000Y-95915000D03*
X139925000Y-97215000D03*
D17*
X136815000Y-97215000D03*
D16*
X139925000Y-96565000D03*
D15*
X138135000Y-96264000D03*
D17*
X136815000Y-95915000D03*
X136815000Y-96565000D03*
D15*
X138135000Y-97516000D03*
%TD*%
M02*
