%TF.GenerationSoftware,KiCad,Pcbnew,7.0.2*%
%TF.CreationDate,2023-06-25T00:33:43-03:00*%
%TF.ProjectId,Projeto final de EA075,50726f6a-6574-46f2-9066-696e616c2064,rev?*%
%TF.SameCoordinates,Original*%
%TF.FileFunction,Copper,L3,Inr*%
%TF.FilePolarity,Positive*%
%FSLAX46Y46*%
G04 Gerber Fmt 4.6, Leading zero omitted, Abs format (unit mm)*
G04 Created by KiCad (PCBNEW 7.0.2) date 2023-06-25 00:33:43*
%MOMM*%
%LPD*%
G01*
G04 APERTURE LIST*
%TA.AperFunction,ComponentPad*%
%ADD10R,1.000000X1.000000*%
%TD*%
%TA.AperFunction,ComponentPad*%
%ADD11R,2.000000X2.000000*%
%TD*%
%TA.AperFunction,ComponentPad*%
%ADD12O,2.000000X2.000000*%
%TD*%
%TA.AperFunction,ViaPad*%
%ADD13C,0.800000*%
%TD*%
G04 APERTURE END LIST*
D10*
%TO.N,Net-(J4-Pin_1)*%
%TO.C,J4*%
X152400000Y-99060000D03*
%TD*%
%TO.N,GNDPWR*%
%TO.C,J3*%
X154940000Y-99060000D03*
%TD*%
%TO.N,+12V*%
%TO.C,J2*%
X164950000Y-91800000D03*
%TD*%
%TO.N,GNDPWR*%
%TO.C,J1*%
X164950000Y-88450000D03*
%TD*%
D11*
%TO.N,GNDPWR*%
%TO.C,C5*%
X137400000Y-91440000D03*
D12*
%TO.N,+12V*%
X152400000Y-91440000D03*
%TD*%
D11*
%TO.N,Net-(U1-AVCC)*%
%TO.C,C4*%
X137400000Y-84905000D03*
D12*
%TO.N,GNDPWR*%
X152400000Y-84905000D03*
%TD*%
D11*
%TO.N,Net-(U1-AVCC)*%
%TO.C,C3*%
X137400000Y-78370000D03*
D12*
%TO.N,GNDPWR*%
X152400000Y-78370000D03*
%TD*%
D11*
%TO.N,+12V*%
%TO.C,C1*%
X137400000Y-71835000D03*
D12*
%TO.N,GNDPWR*%
X152400000Y-71835000D03*
%TD*%
D13*
%TO.N,Net-(Q1-G)*%
X154972121Y-86115746D03*
%TO.N,GNDPWR*%
X152400000Y-94900000D03*
X155678876Y-86822500D03*
%TO.N,Net-(U1-AVCC)*%
X154100388Y-81280000D03*
%TO.N,Net-(U1-PD0)*%
X164885000Y-96130000D03*
X165192735Y-86599502D03*
%TO.N,Net-(U1-AVCC)*%
X162560000Y-96520000D03*
X157480000Y-87299500D03*
X160020000Y-85600500D03*
X165096211Y-67800500D03*
X154940000Y-71120000D03*
%TO.N,Net-(Q1-G)*%
X134620000Y-99060000D03*
%TO.N,+12V*%
X162560000Y-88515500D03*
X162560000Y-91484500D03*
X134620000Y-93980000D03*
X142240000Y-93980000D03*
%TD*%
%TA.AperFunction,Conductor*%
%TO.N,+12V*%
G36*
X175202539Y-66060185D02*
G01*
X175248294Y-66112989D01*
X175259500Y-66164500D01*
X175259500Y-106555500D01*
X175239815Y-106622539D01*
X175187011Y-106668294D01*
X175135500Y-106679500D01*
X132204500Y-106679500D01*
X132137461Y-106659815D01*
X132091706Y-106607011D01*
X132080500Y-106555500D01*
X132080500Y-99059999D01*
X133714540Y-99059999D01*
X133734326Y-99248257D01*
X133792820Y-99428284D01*
X133887466Y-99592216D01*
X134014129Y-99732889D01*
X134167269Y-99844151D01*
X134340197Y-99921144D01*
X134525352Y-99960500D01*
X134525354Y-99960500D01*
X134714648Y-99960500D01*
X134838084Y-99934262D01*
X134899803Y-99921144D01*
X135072730Y-99844151D01*
X135225871Y-99732888D01*
X135341402Y-99604578D01*
X151399500Y-99604578D01*
X151399501Y-99607872D01*
X151405909Y-99667483D01*
X151456204Y-99802331D01*
X151542454Y-99917546D01*
X151657669Y-100003796D01*
X151792517Y-100054091D01*
X151852127Y-100060500D01*
X152947872Y-100060499D01*
X153007483Y-100054091D01*
X153142331Y-100003796D01*
X153257546Y-99917546D01*
X153343796Y-99802331D01*
X153394091Y-99667483D01*
X153400500Y-99607873D01*
X153400500Y-99604578D01*
X153939500Y-99604578D01*
X153939501Y-99607872D01*
X153945909Y-99667483D01*
X153996204Y-99802331D01*
X154082454Y-99917546D01*
X154197669Y-100003796D01*
X154332517Y-100054091D01*
X154392127Y-100060500D01*
X155487872Y-100060499D01*
X155547483Y-100054091D01*
X155682331Y-100003796D01*
X155797546Y-99917546D01*
X155883796Y-99802331D01*
X155934091Y-99667483D01*
X155940500Y-99607873D01*
X155940499Y-98512128D01*
X155934091Y-98452517D01*
X155883796Y-98317669D01*
X155797546Y-98202454D01*
X155682331Y-98116204D01*
X155547483Y-98065909D01*
X155487873Y-98059500D01*
X155484550Y-98059500D01*
X154395439Y-98059500D01*
X154395420Y-98059500D01*
X154392128Y-98059501D01*
X154388848Y-98059853D01*
X154388840Y-98059854D01*
X154332515Y-98065909D01*
X154197669Y-98116204D01*
X154082454Y-98202454D01*
X153996204Y-98317668D01*
X153945910Y-98452515D01*
X153945909Y-98452517D01*
X153939500Y-98512127D01*
X153939500Y-98515448D01*
X153939500Y-98515449D01*
X153939500Y-99604560D01*
X153939500Y-99604578D01*
X153400500Y-99604578D01*
X153400499Y-98512128D01*
X153394091Y-98452517D01*
X153343796Y-98317669D01*
X153257546Y-98202454D01*
X153142331Y-98116204D01*
X153007483Y-98065909D01*
X152947873Y-98059500D01*
X152944550Y-98059500D01*
X151855439Y-98059500D01*
X151855420Y-98059500D01*
X151852128Y-98059501D01*
X151848848Y-98059853D01*
X151848840Y-98059854D01*
X151792515Y-98065909D01*
X151657669Y-98116204D01*
X151542454Y-98202454D01*
X151456204Y-98317668D01*
X151405910Y-98452515D01*
X151405909Y-98452517D01*
X151399500Y-98512127D01*
X151399500Y-98515448D01*
X151399500Y-98515449D01*
X151399500Y-99604560D01*
X151399500Y-99604578D01*
X135341402Y-99604578D01*
X135352533Y-99592216D01*
X135447179Y-99428284D01*
X135505674Y-99248256D01*
X135525460Y-99060000D01*
X135505674Y-98871744D01*
X135447179Y-98691716D01*
X135447179Y-98691715D01*
X135352533Y-98527783D01*
X135225870Y-98387110D01*
X135072730Y-98275848D01*
X134899802Y-98198855D01*
X134714648Y-98159500D01*
X134714646Y-98159500D01*
X134525354Y-98159500D01*
X134525352Y-98159500D01*
X134340197Y-98198855D01*
X134167269Y-98275848D01*
X134014129Y-98387110D01*
X133887466Y-98527783D01*
X133792820Y-98691715D01*
X133734326Y-98871742D01*
X133714540Y-99059999D01*
X132080500Y-99059999D01*
X132080500Y-96519999D01*
X161654540Y-96519999D01*
X161674326Y-96708257D01*
X161732820Y-96888284D01*
X161827466Y-97052216D01*
X161954129Y-97192889D01*
X162107269Y-97304151D01*
X162280197Y-97381144D01*
X162465352Y-97420500D01*
X162465354Y-97420500D01*
X162654648Y-97420500D01*
X162778083Y-97394262D01*
X162839803Y-97381144D01*
X163012730Y-97304151D01*
X163165871Y-97192888D01*
X163292533Y-97052216D01*
X163387179Y-96888284D01*
X163445674Y-96708256D01*
X163465460Y-96520000D01*
X163445674Y-96331744D01*
X163387179Y-96151716D01*
X163387179Y-96151715D01*
X163374642Y-96130000D01*
X163979540Y-96130000D01*
X163999326Y-96318257D01*
X164057820Y-96498284D01*
X164152466Y-96662216D01*
X164279129Y-96802889D01*
X164432269Y-96914151D01*
X164605197Y-96991144D01*
X164790352Y-97030500D01*
X164790354Y-97030500D01*
X164979648Y-97030500D01*
X165103084Y-97004262D01*
X165164803Y-96991144D01*
X165337730Y-96914151D01*
X165490871Y-96802888D01*
X165617533Y-96662216D01*
X165712179Y-96498284D01*
X165770674Y-96318256D01*
X165790460Y-96130000D01*
X165770674Y-95941744D01*
X165712179Y-95761716D01*
X165712179Y-95761715D01*
X165617533Y-95597783D01*
X165490870Y-95457110D01*
X165337730Y-95345848D01*
X165164802Y-95268855D01*
X164979648Y-95229500D01*
X164979646Y-95229500D01*
X164790354Y-95229500D01*
X164790352Y-95229500D01*
X164605197Y-95268855D01*
X164432269Y-95345848D01*
X164279129Y-95457110D01*
X164152466Y-95597783D01*
X164057820Y-95761715D01*
X163999326Y-95941742D01*
X163979540Y-96130000D01*
X163374642Y-96130000D01*
X163292533Y-95987783D01*
X163165870Y-95847110D01*
X163012730Y-95735848D01*
X162839802Y-95658855D01*
X162654648Y-95619500D01*
X162654646Y-95619500D01*
X162465354Y-95619500D01*
X162465352Y-95619500D01*
X162280197Y-95658855D01*
X162107269Y-95735848D01*
X161954129Y-95847110D01*
X161827466Y-95987783D01*
X161732820Y-96151715D01*
X161674326Y-96331742D01*
X161654540Y-96519999D01*
X132080500Y-96519999D01*
X132080500Y-94899999D01*
X151494540Y-94899999D01*
X151514326Y-95088257D01*
X151572820Y-95268284D01*
X151667466Y-95432216D01*
X151794129Y-95572889D01*
X151947269Y-95684151D01*
X152120197Y-95761144D01*
X152305352Y-95800500D01*
X152305354Y-95800500D01*
X152494648Y-95800500D01*
X152618083Y-95774262D01*
X152679803Y-95761144D01*
X152852730Y-95684151D01*
X152941715Y-95619500D01*
X153005870Y-95572889D01*
X153132533Y-95432216D01*
X153227179Y-95268284D01*
X153239781Y-95229500D01*
X153285674Y-95088256D01*
X153305460Y-94900000D01*
X153285674Y-94711744D01*
X153227179Y-94531716D01*
X153227179Y-94531715D01*
X153132533Y-94367783D01*
X153005870Y-94227110D01*
X152852730Y-94115848D01*
X152679802Y-94038855D01*
X152494648Y-93999500D01*
X152494646Y-93999500D01*
X152305354Y-93999500D01*
X152305352Y-93999500D01*
X152120197Y-94038855D01*
X151947269Y-94115848D01*
X151794129Y-94227110D01*
X151667466Y-94367783D01*
X151572820Y-94531715D01*
X151514326Y-94711742D01*
X151494540Y-94899999D01*
X132080500Y-94899999D01*
X132080500Y-92484578D01*
X135899500Y-92484578D01*
X135899501Y-92487872D01*
X135905909Y-92547483D01*
X135956204Y-92682331D01*
X136042454Y-92797546D01*
X136157669Y-92883796D01*
X136292517Y-92934091D01*
X136352127Y-92940500D01*
X138447872Y-92940499D01*
X138507483Y-92934091D01*
X138642331Y-92883796D01*
X138757546Y-92797546D01*
X138843796Y-92682331D01*
X138894091Y-92547483D01*
X138900500Y-92487873D01*
X138900500Y-91690000D01*
X150915960Y-91690000D01*
X150976413Y-91928720D01*
X151076266Y-92156365D01*
X151212233Y-92364477D01*
X151380596Y-92547368D01*
X151576766Y-92700053D01*
X151795393Y-92818368D01*
X152030508Y-92899083D01*
X152149999Y-92919023D01*
X152150000Y-92919022D01*
X152150000Y-91875501D01*
X152257685Y-91924680D01*
X152364237Y-91940000D01*
X152435763Y-91940000D01*
X152542315Y-91924680D01*
X152650000Y-91875501D01*
X152650000Y-92919023D01*
X152769491Y-92899083D01*
X153004606Y-92818368D01*
X153223233Y-92700053D01*
X153419403Y-92547368D01*
X153587766Y-92364477D01*
X153723733Y-92156365D01*
X153770388Y-92050000D01*
X163950000Y-92050000D01*
X163950000Y-92344518D01*
X163950354Y-92351132D01*
X163956400Y-92407371D01*
X164006647Y-92542089D01*
X164092811Y-92657188D01*
X164207910Y-92743352D01*
X164342628Y-92793599D01*
X164398867Y-92799645D01*
X164405482Y-92800000D01*
X164700000Y-92800000D01*
X164700000Y-92050000D01*
X163950000Y-92050000D01*
X153770388Y-92050000D01*
X153823586Y-91928720D01*
X153848763Y-91829302D01*
X164596372Y-91829302D01*
X164625047Y-91942538D01*
X164688936Y-92040327D01*
X164781115Y-92112072D01*
X164891595Y-92150000D01*
X164979005Y-92150000D01*
X165065216Y-92135614D01*
X165167947Y-92080019D01*
X165195581Y-92050000D01*
X165200000Y-92050000D01*
X165200000Y-92800000D01*
X165494518Y-92800000D01*
X165501132Y-92799645D01*
X165557371Y-92793599D01*
X165692089Y-92743352D01*
X165807188Y-92657188D01*
X165893352Y-92542089D01*
X165943599Y-92407371D01*
X165949645Y-92351132D01*
X165950000Y-92344518D01*
X165950000Y-92050000D01*
X165200000Y-92050000D01*
X165195581Y-92050000D01*
X165247060Y-91994079D01*
X165293982Y-91887108D01*
X165303628Y-91770698D01*
X165274953Y-91657462D01*
X165211064Y-91559673D01*
X165118885Y-91487928D01*
X165008405Y-91450000D01*
X164920995Y-91450000D01*
X164834784Y-91464386D01*
X164732053Y-91519981D01*
X164652940Y-91605921D01*
X164606018Y-91712892D01*
X164596372Y-91829302D01*
X153848763Y-91829302D01*
X153884040Y-91690000D01*
X152833686Y-91690000D01*
X152859493Y-91649844D01*
X152888810Y-91550000D01*
X163950000Y-91550000D01*
X164700000Y-91550000D01*
X164700000Y-90800000D01*
X165200000Y-90800000D01*
X165200000Y-91550000D01*
X165950000Y-91550000D01*
X165950000Y-91255481D01*
X165949645Y-91248867D01*
X165943599Y-91192628D01*
X165893352Y-91057910D01*
X165807188Y-90942811D01*
X165692089Y-90856647D01*
X165557371Y-90806400D01*
X165501132Y-90800354D01*
X165494518Y-90800000D01*
X165200000Y-90800000D01*
X164700000Y-90800000D01*
X164405482Y-90800000D01*
X164398867Y-90800354D01*
X164342628Y-90806400D01*
X164207910Y-90856647D01*
X164092811Y-90942811D01*
X164006647Y-91057910D01*
X163956400Y-91192628D01*
X163950354Y-91248867D01*
X163950000Y-91255481D01*
X163950000Y-91550000D01*
X152888810Y-91550000D01*
X152900000Y-91511889D01*
X152900000Y-91368111D01*
X152859493Y-91230156D01*
X152833686Y-91190000D01*
X153884040Y-91190000D01*
X153823586Y-90951279D01*
X153723733Y-90723634D01*
X153587766Y-90515522D01*
X153419403Y-90332631D01*
X153223233Y-90179946D01*
X153004606Y-90061631D01*
X152769493Y-89980916D01*
X152650000Y-89960976D01*
X152650000Y-91004498D01*
X152542315Y-90955320D01*
X152435763Y-90940000D01*
X152364237Y-90940000D01*
X152257685Y-90955320D01*
X152150000Y-91004498D01*
X152150000Y-89960976D01*
X152149999Y-89960976D01*
X152030506Y-89980916D01*
X151795393Y-90061631D01*
X151576766Y-90179946D01*
X151380596Y-90332631D01*
X151212233Y-90515522D01*
X151076266Y-90723634D01*
X150976413Y-90951279D01*
X150915960Y-91190000D01*
X151966314Y-91190000D01*
X151940507Y-91230156D01*
X151900000Y-91368111D01*
X151900000Y-91511889D01*
X151940507Y-91649844D01*
X151966314Y-91690000D01*
X150915960Y-91690000D01*
X138900500Y-91690000D01*
X138900499Y-90392128D01*
X138894091Y-90332517D01*
X138843796Y-90197669D01*
X138757546Y-90082454D01*
X138642331Y-89996204D01*
X138507483Y-89945909D01*
X138447873Y-89939500D01*
X138444550Y-89939500D01*
X136355439Y-89939500D01*
X136355420Y-89939500D01*
X136352128Y-89939501D01*
X136348848Y-89939853D01*
X136348840Y-89939854D01*
X136292515Y-89945909D01*
X136157669Y-89996204D01*
X136042454Y-90082454D01*
X135956204Y-90197668D01*
X135905910Y-90332515D01*
X135905909Y-90332517D01*
X135899500Y-90392127D01*
X135899500Y-90395448D01*
X135899500Y-90395449D01*
X135899500Y-92484560D01*
X135899500Y-92484578D01*
X132080500Y-92484578D01*
X132080500Y-88994578D01*
X163949500Y-88994578D01*
X163949501Y-88997872D01*
X163955909Y-89057483D01*
X164006204Y-89192331D01*
X164092454Y-89307546D01*
X164207669Y-89393796D01*
X164342517Y-89444091D01*
X164402127Y-89450500D01*
X165497872Y-89450499D01*
X165557483Y-89444091D01*
X165692331Y-89393796D01*
X165807546Y-89307546D01*
X165893796Y-89192331D01*
X165944091Y-89057483D01*
X165950500Y-88997873D01*
X165950499Y-87902128D01*
X165944091Y-87842517D01*
X165893796Y-87707669D01*
X165807546Y-87592454D01*
X165720765Y-87527490D01*
X165678896Y-87471558D01*
X165673912Y-87401867D01*
X165707397Y-87340544D01*
X165722184Y-87327913D01*
X165798606Y-87272390D01*
X165925268Y-87131718D01*
X166019914Y-86967786D01*
X166078409Y-86787758D01*
X166098195Y-86599502D01*
X166078409Y-86411246D01*
X166039106Y-86290284D01*
X166019914Y-86231217D01*
X165925268Y-86067285D01*
X165798605Y-85926612D01*
X165645465Y-85815350D01*
X165472537Y-85738357D01*
X165287383Y-85699002D01*
X165287381Y-85699002D01*
X165098089Y-85699002D01*
X165098087Y-85699002D01*
X164912932Y-85738357D01*
X164740004Y-85815350D01*
X164586864Y-85926612D01*
X164460201Y-86067285D01*
X164365555Y-86231217D01*
X164307061Y-86411244D01*
X164287275Y-86599501D01*
X164287275Y-86599502D01*
X164293702Y-86660654D01*
X164307061Y-86787759D01*
X164365555Y-86967786D01*
X164460199Y-87131715D01*
X164460202Y-87131718D01*
X164559976Y-87242529D01*
X164590206Y-87305519D01*
X164581581Y-87374854D01*
X164536840Y-87428520D01*
X164470187Y-87449478D01*
X164467828Y-87449500D01*
X164405440Y-87449500D01*
X164405421Y-87449500D01*
X164402128Y-87449501D01*
X164398848Y-87449853D01*
X164398840Y-87449854D01*
X164342515Y-87455909D01*
X164207669Y-87506204D01*
X164092454Y-87592454D01*
X164006204Y-87707668D01*
X163955910Y-87842515D01*
X163955909Y-87842517D01*
X163949500Y-87902127D01*
X163949500Y-87905448D01*
X163949500Y-87905449D01*
X163949500Y-88994560D01*
X163949500Y-88994578D01*
X132080500Y-88994578D01*
X132080500Y-85949578D01*
X135899500Y-85949578D01*
X135899501Y-85952872D01*
X135899853Y-85956152D01*
X135899854Y-85956159D01*
X135905909Y-86012484D01*
X135915556Y-86038349D01*
X135956204Y-86147331D01*
X136042454Y-86262546D01*
X136157669Y-86348796D01*
X136292517Y-86399091D01*
X136352127Y-86405500D01*
X138447872Y-86405499D01*
X138507483Y-86399091D01*
X138642331Y-86348796D01*
X138757546Y-86262546D01*
X138843796Y-86147331D01*
X138894091Y-86012483D01*
X138900500Y-85952873D01*
X138900499Y-84904999D01*
X150894356Y-84904999D01*
X150914891Y-85152816D01*
X150914891Y-85152819D01*
X150914892Y-85152821D01*
X150975937Y-85393881D01*
X151020960Y-85496523D01*
X151075825Y-85621604D01*
X151075827Y-85621607D01*
X151211836Y-85829785D01*
X151380256Y-86012738D01*
X151380259Y-86012740D01*
X151576485Y-86165470D01*
X151576487Y-86165471D01*
X151576491Y-86165474D01*
X151795190Y-86283828D01*
X152030386Y-86364571D01*
X152275665Y-86405500D01*
X152524335Y-86405500D01*
X152769614Y-86364571D01*
X153004810Y-86283828D01*
X153223509Y-86165474D01*
X153287399Y-86115746D01*
X154066661Y-86115746D01*
X154086447Y-86304003D01*
X154144941Y-86484030D01*
X154239587Y-86647962D01*
X154366250Y-86788635D01*
X154519390Y-86899897D01*
X154692315Y-86976889D01*
X154692316Y-86976889D01*
X154692318Y-86976890D01*
X154718837Y-86982526D01*
X154780319Y-87015718D01*
X154810989Y-87065499D01*
X154851696Y-87190784D01*
X154946342Y-87354716D01*
X155073005Y-87495389D01*
X155226145Y-87606651D01*
X155399073Y-87683644D01*
X155584228Y-87723000D01*
X155584230Y-87723000D01*
X155773524Y-87723000D01*
X155896960Y-87696762D01*
X155958679Y-87683644D01*
X156131606Y-87606651D01*
X156151147Y-87592454D01*
X156284746Y-87495389D01*
X156326065Y-87449500D01*
X156376327Y-87393678D01*
X156435812Y-87357030D01*
X156505669Y-87358360D01*
X156563718Y-87397247D01*
X156591528Y-87461344D01*
X156591797Y-87463689D01*
X156594326Y-87487757D01*
X156652820Y-87667784D01*
X156747466Y-87831716D01*
X156874129Y-87972389D01*
X157027269Y-88083651D01*
X157200197Y-88160644D01*
X157385352Y-88200000D01*
X157385354Y-88200000D01*
X157574648Y-88200000D01*
X157698084Y-88173762D01*
X157759803Y-88160644D01*
X157932730Y-88083651D01*
X158085871Y-87972388D01*
X158212533Y-87831716D01*
X158307179Y-87667784D01*
X158365674Y-87487756D01*
X158385460Y-87299500D01*
X158365674Y-87111244D01*
X158333023Y-87010756D01*
X158307179Y-86931215D01*
X158212533Y-86767283D01*
X158085870Y-86626610D01*
X157932730Y-86515348D01*
X157759802Y-86438355D01*
X157574648Y-86399000D01*
X157574646Y-86399000D01*
X157385354Y-86399000D01*
X157385352Y-86399000D01*
X157200197Y-86438355D01*
X157027269Y-86515348D01*
X156874129Y-86626611D01*
X156782548Y-86728321D01*
X156723061Y-86764969D01*
X156653204Y-86763638D01*
X156595156Y-86724751D01*
X156567347Y-86660654D01*
X156567090Y-86658418D01*
X156564550Y-86634244D01*
X156534208Y-86540863D01*
X156506055Y-86454215D01*
X156411409Y-86290283D01*
X156284746Y-86149610D01*
X156131608Y-86038349D01*
X155975362Y-85968784D01*
X155958679Y-85961356D01*
X155940326Y-85957455D01*
X155932155Y-85955718D01*
X155870674Y-85922524D01*
X155840007Y-85872746D01*
X155826048Y-85829785D01*
X155799300Y-85747462D01*
X155799300Y-85747461D01*
X155714452Y-85600500D01*
X159114540Y-85600500D01*
X159134326Y-85788757D01*
X159192820Y-85968784D01*
X159287466Y-86132716D01*
X159414129Y-86273389D01*
X159567269Y-86384651D01*
X159740197Y-86461644D01*
X159925352Y-86501000D01*
X159925354Y-86501000D01*
X160114648Y-86501000D01*
X160238083Y-86474762D01*
X160299803Y-86461644D01*
X160472730Y-86384651D01*
X160583733Y-86304003D01*
X160625870Y-86273389D01*
X160752533Y-86132716D01*
X160847179Y-85968784D01*
X160847178Y-85968783D01*
X160905674Y-85788756D01*
X160925460Y-85600500D01*
X160905674Y-85412244D01*
X160854453Y-85254602D01*
X160847179Y-85232215D01*
X160752533Y-85068283D01*
X160625870Y-84927610D01*
X160472730Y-84816348D01*
X160299802Y-84739355D01*
X160114648Y-84700000D01*
X160114646Y-84700000D01*
X159925354Y-84700000D01*
X159925352Y-84700000D01*
X159740197Y-84739355D01*
X159567269Y-84816348D01*
X159414129Y-84927610D01*
X159287466Y-85068283D01*
X159192820Y-85232215D01*
X159134326Y-85412242D01*
X159114540Y-85600500D01*
X155714452Y-85600500D01*
X155704654Y-85583529D01*
X155577991Y-85442856D01*
X155424851Y-85331594D01*
X155251923Y-85254601D01*
X155066769Y-85215246D01*
X155066767Y-85215246D01*
X154877475Y-85215246D01*
X154877473Y-85215246D01*
X154692318Y-85254601D01*
X154519390Y-85331594D01*
X154366250Y-85442856D01*
X154239587Y-85583529D01*
X154144941Y-85747461D01*
X154086447Y-85927488D01*
X154066661Y-86115746D01*
X153287399Y-86115746D01*
X153419744Y-86012738D01*
X153588164Y-85829785D01*
X153724173Y-85621607D01*
X153824063Y-85393881D01*
X153885108Y-85152821D01*
X153905643Y-84905000D01*
X153885108Y-84657179D01*
X153824063Y-84416119D01*
X153724173Y-84188393D01*
X153588164Y-83980215D01*
X153419744Y-83797262D01*
X153397612Y-83780036D01*
X153223514Y-83644529D01*
X153223510Y-83644526D01*
X153223509Y-83644526D01*
X153004810Y-83526172D01*
X153004806Y-83526170D01*
X153004805Y-83526170D01*
X152769615Y-83445429D01*
X152524335Y-83404500D01*
X152275665Y-83404500D01*
X152030384Y-83445429D01*
X151795194Y-83526170D01*
X151576485Y-83644529D01*
X151380259Y-83797259D01*
X151380256Y-83797261D01*
X151380256Y-83797262D01*
X151322098Y-83860439D01*
X151211837Y-83980214D01*
X151075825Y-84188395D01*
X150975938Y-84416117D01*
X150914891Y-84657183D01*
X150894356Y-84904999D01*
X138900499Y-84904999D01*
X138900499Y-83857128D01*
X138894091Y-83797517D01*
X138843796Y-83662669D01*
X138757546Y-83547454D01*
X138642331Y-83461204D01*
X138507483Y-83410909D01*
X138447873Y-83404500D01*
X138444550Y-83404500D01*
X136355439Y-83404500D01*
X136355420Y-83404500D01*
X136352128Y-83404501D01*
X136348848Y-83404853D01*
X136348840Y-83404854D01*
X136292515Y-83410909D01*
X136157669Y-83461204D01*
X136042454Y-83547454D01*
X135956204Y-83662668D01*
X135905910Y-83797515D01*
X135905909Y-83797517D01*
X135899500Y-83857127D01*
X135899500Y-83860448D01*
X135899500Y-83860449D01*
X135899500Y-85949560D01*
X135899500Y-85949578D01*
X132080500Y-85949578D01*
X132080500Y-81280000D01*
X153194928Y-81280000D01*
X153214714Y-81468257D01*
X153273208Y-81648284D01*
X153367854Y-81812216D01*
X153494517Y-81952889D01*
X153647657Y-82064151D01*
X153820585Y-82141144D01*
X154005740Y-82180500D01*
X154005742Y-82180500D01*
X154195036Y-82180500D01*
X154318472Y-82154262D01*
X154380191Y-82141144D01*
X154553118Y-82064151D01*
X154706259Y-81952888D01*
X154832921Y-81812216D01*
X154927567Y-81648284D01*
X154986062Y-81468256D01*
X155005848Y-81280000D01*
X154986062Y-81091744D01*
X154927567Y-80911716D01*
X154927567Y-80911715D01*
X154832921Y-80747783D01*
X154706258Y-80607110D01*
X154553118Y-80495848D01*
X154380190Y-80418855D01*
X154195036Y-80379500D01*
X154195034Y-80379500D01*
X154005742Y-80379500D01*
X154005740Y-80379500D01*
X153820585Y-80418855D01*
X153647657Y-80495848D01*
X153494517Y-80607110D01*
X153367854Y-80747783D01*
X153273208Y-80911715D01*
X153214714Y-81091742D01*
X153194928Y-81280000D01*
X132080500Y-81280000D01*
X132080500Y-79414578D01*
X135899500Y-79414578D01*
X135899501Y-79417872D01*
X135899853Y-79421152D01*
X135899854Y-79421159D01*
X135905909Y-79477484D01*
X135931056Y-79544906D01*
X135956204Y-79612331D01*
X136042454Y-79727546D01*
X136157669Y-79813796D01*
X136292517Y-79864091D01*
X136352127Y-79870500D01*
X138447872Y-79870499D01*
X138507483Y-79864091D01*
X138642331Y-79813796D01*
X138757546Y-79727546D01*
X138843796Y-79612331D01*
X138894091Y-79477483D01*
X138900500Y-79417873D01*
X138900499Y-78370000D01*
X150894356Y-78370000D01*
X150914891Y-78617816D01*
X150914891Y-78617819D01*
X150914892Y-78617821D01*
X150975937Y-78858881D01*
X151020960Y-78961523D01*
X151075825Y-79086604D01*
X151075827Y-79086607D01*
X151211836Y-79294785D01*
X151380256Y-79477738D01*
X151380259Y-79477740D01*
X151576485Y-79630470D01*
X151576487Y-79630471D01*
X151576491Y-79630474D01*
X151795190Y-79748828D01*
X152030386Y-79829571D01*
X152275665Y-79870500D01*
X152524335Y-79870500D01*
X152769614Y-79829571D01*
X153004810Y-79748828D01*
X153223509Y-79630474D01*
X153419744Y-79477738D01*
X153588164Y-79294785D01*
X153724173Y-79086607D01*
X153824063Y-78858881D01*
X153885108Y-78617821D01*
X153905643Y-78370000D01*
X153885108Y-78122179D01*
X153824063Y-77881119D01*
X153724173Y-77653393D01*
X153588164Y-77445215D01*
X153419744Y-77262262D01*
X153397612Y-77245036D01*
X153223514Y-77109529D01*
X153223510Y-77109526D01*
X153223509Y-77109526D01*
X153004810Y-76991172D01*
X153004806Y-76991170D01*
X153004805Y-76991170D01*
X152769615Y-76910429D01*
X152524335Y-76869500D01*
X152275665Y-76869500D01*
X152030384Y-76910429D01*
X151795194Y-76991170D01*
X151576485Y-77109529D01*
X151380259Y-77262259D01*
X151380256Y-77262261D01*
X151380256Y-77262262D01*
X151322098Y-77325439D01*
X151211837Y-77445214D01*
X151075825Y-77653395D01*
X150975938Y-77881117D01*
X150914891Y-78122183D01*
X150894356Y-78370000D01*
X138900499Y-78370000D01*
X138900499Y-77322128D01*
X138894091Y-77262517D01*
X138843796Y-77127669D01*
X138757546Y-77012454D01*
X138642331Y-76926204D01*
X138507483Y-76875909D01*
X138447873Y-76869500D01*
X138444550Y-76869500D01*
X136355439Y-76869500D01*
X136355420Y-76869500D01*
X136352128Y-76869501D01*
X136348848Y-76869853D01*
X136348840Y-76869854D01*
X136292515Y-76875909D01*
X136157669Y-76926204D01*
X136042454Y-77012454D01*
X135956204Y-77127668D01*
X135905910Y-77262515D01*
X135905909Y-77262517D01*
X135899500Y-77322127D01*
X135899500Y-77325448D01*
X135899500Y-77325449D01*
X135899500Y-79414560D01*
X135899500Y-79414578D01*
X132080500Y-79414578D01*
X132080500Y-72879518D01*
X135900000Y-72879518D01*
X135900354Y-72886132D01*
X135906400Y-72942371D01*
X135956647Y-73077089D01*
X136042811Y-73192188D01*
X136157910Y-73278352D01*
X136292628Y-73328599D01*
X136348867Y-73334645D01*
X136355482Y-73335000D01*
X137150000Y-73335000D01*
X137150000Y-72270501D01*
X137257685Y-72319680D01*
X137364237Y-72335000D01*
X137435763Y-72335000D01*
X137542315Y-72319680D01*
X137650000Y-72270501D01*
X137650000Y-73335000D01*
X138444518Y-73335000D01*
X138451132Y-73334645D01*
X138507371Y-73328599D01*
X138642089Y-73278352D01*
X138757188Y-73192188D01*
X138843352Y-73077089D01*
X138893599Y-72942371D01*
X138899645Y-72886132D01*
X138900000Y-72879518D01*
X138900000Y-72085000D01*
X137833686Y-72085000D01*
X137859493Y-72044844D01*
X137900000Y-71906889D01*
X137900000Y-71834999D01*
X150894356Y-71834999D01*
X150914891Y-72082816D01*
X150914891Y-72082819D01*
X150914892Y-72082821D01*
X150975937Y-72323881D01*
X151020960Y-72426523D01*
X151075825Y-72551604D01*
X151075827Y-72551607D01*
X151211836Y-72759785D01*
X151380256Y-72942738D01*
X151380259Y-72942740D01*
X151576485Y-73095470D01*
X151576487Y-73095471D01*
X151576491Y-73095474D01*
X151795190Y-73213828D01*
X152030386Y-73294571D01*
X152275665Y-73335500D01*
X152524335Y-73335500D01*
X152769614Y-73294571D01*
X153004810Y-73213828D01*
X153223509Y-73095474D01*
X153419744Y-72942738D01*
X153588164Y-72759785D01*
X153724173Y-72551607D01*
X153824063Y-72323881D01*
X153885108Y-72082821D01*
X153905643Y-71835000D01*
X153885108Y-71587179D01*
X153882103Y-71575312D01*
X153884727Y-71505493D01*
X153924682Y-71448175D01*
X153989283Y-71421557D01*
X154058019Y-71434091D01*
X154109067Y-71481796D01*
X154109695Y-71482871D01*
X154207466Y-71652215D01*
X154334129Y-71792889D01*
X154487269Y-71904151D01*
X154660197Y-71981144D01*
X154845352Y-72020500D01*
X154845354Y-72020500D01*
X155034648Y-72020500D01*
X155158084Y-71994262D01*
X155219803Y-71981144D01*
X155392730Y-71904151D01*
X155545871Y-71792888D01*
X155672533Y-71652216D01*
X155767179Y-71488284D01*
X155825674Y-71308256D01*
X155845460Y-71120000D01*
X155825674Y-70931744D01*
X155767179Y-70751716D01*
X155767179Y-70751715D01*
X155672533Y-70587783D01*
X155545870Y-70447110D01*
X155392730Y-70335848D01*
X155219802Y-70258855D01*
X155034648Y-70219500D01*
X155034646Y-70219500D01*
X154845354Y-70219500D01*
X154845352Y-70219500D01*
X154660197Y-70258855D01*
X154487269Y-70335848D01*
X154334129Y-70447110D01*
X154207466Y-70587783D01*
X154112820Y-70751715D01*
X154054326Y-70931742D01*
X154034540Y-71120000D01*
X154048799Y-71255671D01*
X154036229Y-71324401D01*
X153988497Y-71375424D01*
X153920757Y-71392542D01*
X153854515Y-71370319D01*
X153811923Y-71318443D01*
X153724878Y-71120000D01*
X153724174Y-71118395D01*
X153724173Y-71118393D01*
X153588164Y-70910215D01*
X153419744Y-70727262D01*
X153397612Y-70710036D01*
X153223514Y-70574529D01*
X153223510Y-70574526D01*
X153223509Y-70574526D01*
X153004810Y-70456172D01*
X153004806Y-70456170D01*
X153004805Y-70456170D01*
X152769615Y-70375429D01*
X152524335Y-70334500D01*
X152275665Y-70334500D01*
X152030384Y-70375429D01*
X151795194Y-70456170D01*
X151576485Y-70574529D01*
X151380259Y-70727259D01*
X151380256Y-70727261D01*
X151380256Y-70727262D01*
X151211836Y-70910215D01*
X151166499Y-70979607D01*
X151075825Y-71118395D01*
X151015611Y-71255671D01*
X150975937Y-71346119D01*
X150950093Y-71448175D01*
X150914891Y-71587183D01*
X150894356Y-71834999D01*
X137900000Y-71834999D01*
X137900000Y-71763111D01*
X137859493Y-71625156D01*
X137833686Y-71585000D01*
X138900000Y-71585000D01*
X138900000Y-70790481D01*
X138899645Y-70783867D01*
X138893599Y-70727628D01*
X138843352Y-70592910D01*
X138757188Y-70477811D01*
X138642089Y-70391647D01*
X138507371Y-70341400D01*
X138451132Y-70335354D01*
X138444518Y-70335000D01*
X137650000Y-70335000D01*
X137650000Y-71399498D01*
X137542315Y-71350320D01*
X137435763Y-71335000D01*
X137364237Y-71335000D01*
X137257685Y-71350320D01*
X137150000Y-71399498D01*
X137150000Y-70335000D01*
X136355482Y-70335000D01*
X136348867Y-70335354D01*
X136292628Y-70341400D01*
X136157910Y-70391647D01*
X136042811Y-70477811D01*
X135956647Y-70592910D01*
X135906400Y-70727628D01*
X135900354Y-70783867D01*
X135900000Y-70790481D01*
X135900000Y-71585000D01*
X136966314Y-71585000D01*
X136940507Y-71625156D01*
X136900000Y-71763111D01*
X136900000Y-71906889D01*
X136940507Y-72044844D01*
X136966314Y-72085000D01*
X135900000Y-72085000D01*
X135900000Y-72879518D01*
X132080500Y-72879518D01*
X132080500Y-67800499D01*
X164190751Y-67800499D01*
X164210537Y-67988757D01*
X164269031Y-68168784D01*
X164363677Y-68332716D01*
X164490340Y-68473389D01*
X164643480Y-68584651D01*
X164816408Y-68661644D01*
X165001563Y-68701000D01*
X165001565Y-68701000D01*
X165190859Y-68701000D01*
X165314294Y-68674762D01*
X165376014Y-68661644D01*
X165548941Y-68584651D01*
X165702082Y-68473388D01*
X165828744Y-68332716D01*
X165923390Y-68168784D01*
X165981885Y-67988756D01*
X166001671Y-67800500D01*
X165981885Y-67612244D01*
X165923390Y-67432216D01*
X165923390Y-67432215D01*
X165828744Y-67268283D01*
X165702081Y-67127610D01*
X165548941Y-67016348D01*
X165376013Y-66939355D01*
X165190859Y-66900000D01*
X165190857Y-66900000D01*
X165001565Y-66900000D01*
X165001563Y-66900000D01*
X164816408Y-66939355D01*
X164643480Y-67016348D01*
X164490340Y-67127610D01*
X164363677Y-67268283D01*
X164269031Y-67432215D01*
X164210537Y-67612242D01*
X164190751Y-67800499D01*
X132080500Y-67800499D01*
X132080500Y-66164500D01*
X132100185Y-66097461D01*
X132152989Y-66051706D01*
X132204500Y-66040500D01*
X175135500Y-66040500D01*
X175202539Y-66060185D01*
G37*
%TD.AperFunction*%
%TD*%
M02*
