%TF.GenerationSoftware,KiCad,Pcbnew,7.0.2*%
%TF.CreationDate,2023-06-25T00:33:43-03:00*%
%TF.ProjectId,Projeto final de EA075,50726f6a-6574-46f2-9066-696e616c2064,rev?*%
%TF.SameCoordinates,Original*%
%TF.FileFunction,Copper,L4,Bot*%
%TF.FilePolarity,Positive*%
%FSLAX46Y46*%
G04 Gerber Fmt 4.6, Leading zero omitted, Abs format (unit mm)*
G04 Created by KiCad (PCBNEW 7.0.2) date 2023-06-25 00:33:43*
%MOMM*%
%LPD*%
G01*
G04 APERTURE LIST*
%TA.AperFunction,ComponentPad*%
%ADD10R,1.000000X1.000000*%
%TD*%
%TA.AperFunction,ComponentPad*%
%ADD11R,2.000000X2.000000*%
%TD*%
%TA.AperFunction,ComponentPad*%
%ADD12O,2.000000X2.000000*%
%TD*%
%TA.AperFunction,ViaPad*%
%ADD13C,0.800000*%
%TD*%
%TA.AperFunction,Conductor*%
%ADD14C,0.500000*%
%TD*%
G04 APERTURE END LIST*
D10*
%TO.P,J4,1,Pin_1*%
%TO.N,Net-(J4-Pin_1)*%
X152400000Y-99060000D03*
%TD*%
%TO.P,J3,1,Pin_1*%
%TO.N,GNDPWR*%
X154940000Y-99060000D03*
%TD*%
%TO.P,J2,1,Pin_1*%
%TO.N,+12V*%
X164950000Y-91800000D03*
%TD*%
%TO.P,J1,1,Pin_1*%
%TO.N,GNDPWR*%
X164950000Y-88450000D03*
%TD*%
D11*
%TO.P,C5,1*%
%TO.N,GNDPWR*%
X137400000Y-91440000D03*
D12*
%TO.P,C5,2*%
%TO.N,+12V*%
X152400000Y-91440000D03*
%TD*%
D11*
%TO.P,C4,1*%
%TO.N,Net-(U1-AVCC)*%
X137400000Y-84905000D03*
D12*
%TO.P,C4,2*%
%TO.N,GNDPWR*%
X152400000Y-84905000D03*
%TD*%
D11*
%TO.P,C3,1*%
%TO.N,Net-(U1-AVCC)*%
X137400000Y-78370000D03*
D12*
%TO.P,C3,2*%
%TO.N,GNDPWR*%
X152400000Y-78370000D03*
%TD*%
D11*
%TO.P,C1,1*%
%TO.N,+12V*%
X137400000Y-71835000D03*
D12*
%TO.P,C1,2*%
%TO.N,GNDPWR*%
X152400000Y-71835000D03*
%TD*%
D13*
%TO.N,Net-(Q1-G)*%
X154972121Y-86115746D03*
%TO.N,GNDPWR*%
X152400000Y-94900000D03*
X155678876Y-86822500D03*
%TO.N,Net-(U1-AVCC)*%
X154100388Y-81280000D03*
%TO.N,Net-(U1-PD0)*%
X164885000Y-96130000D03*
X165192735Y-86599502D03*
%TO.N,Net-(U1-AVCC)*%
X162560000Y-96520000D03*
X157480000Y-87299500D03*
X160020000Y-85600500D03*
X165096211Y-67800500D03*
X154940000Y-71120000D03*
%TO.N,Net-(Q1-G)*%
X134620000Y-99060000D03*
%TO.N,+12V*%
X162560000Y-88515500D03*
X162560000Y-91484500D03*
X134620000Y-93980000D03*
X142240000Y-93980000D03*
%TD*%
D14*
%TO.N,Net-(Q1-G)*%
X154972121Y-86327879D02*
X154972121Y-86115746D01*
X142240000Y-99060000D02*
X154972121Y-86327879D01*
%TO.N,Net-(U1-AVCC)*%
X154940000Y-80440388D02*
X154940000Y-71120000D01*
X141025000Y-81280000D02*
X137400000Y-84905000D01*
X154100388Y-81280000D02*
X141025000Y-81280000D01*
X154100388Y-81280000D02*
X154940000Y-80440388D01*
%TO.N,GNDPWR*%
X152400000Y-93490610D02*
X152400000Y-94900000D01*
X155678876Y-86822500D02*
X155678876Y-90211734D01*
X155678876Y-90211734D02*
X152400000Y-93490610D01*
%TO.N,Net-(U1-PD0)*%
X165900000Y-95115000D02*
X164885000Y-96130000D01*
X165900000Y-87306767D02*
X165900000Y-95115000D01*
X165192735Y-86599502D02*
X165900000Y-87306767D01*
%TO.N,Net-(U1-AVCC)*%
X137400000Y-84905000D02*
X137400000Y-78370000D01*
X157480000Y-91440000D02*
X162560000Y-96520000D01*
X157480000Y-87299500D02*
X157480000Y-91440000D01*
X157480000Y-87299500D02*
X158321000Y-87299500D01*
X158321000Y-87299500D02*
X160020000Y-85600500D01*
X158259500Y-67800500D02*
X154940000Y-71120000D01*
X165096211Y-67800500D02*
X158259500Y-67800500D01*
%TO.N,Net-(Q1-G)*%
X142240000Y-99060000D02*
X134620000Y-99060000D01*
%TO.N,+12V*%
X162560000Y-91484500D02*
X162560000Y-88515500D01*
X142240000Y-93980000D02*
X134620000Y-93980000D01*
%TD*%
M02*
