%TF.GenerationSoftware,KiCad,Pcbnew,(6.0.9)*%
%TF.CreationDate,2022-11-29T22:08:51-03:00*%
%TF.ProjectId,luz_inteligente,6c757a5f-696e-4746-956c-6967656e7465,rev?*%
%TF.SameCoordinates,Original*%
%TF.FileFunction,Legend,Top*%
%TF.FilePolarity,Positive*%
%FSLAX46Y46*%
G04 Gerber Fmt 4.6, Leading zero omitted, Abs format (unit mm)*
G04 Created by KiCad (PCBNEW (6.0.9)) date 2022-11-29 22:08:51*
%MOMM*%
%LPD*%
G01*
G04 APERTURE LIST*
%ADD10C,0.150000*%
%ADD11C,0.120000*%
G04 APERTURE END LIST*
D10*
%TO.C,KY-037-connectors1*%
X68271428Y-72602380D02*
X68271428Y-71602380D01*
X68842857Y-72602380D02*
X68414285Y-72030952D01*
X68842857Y-71602380D02*
X68271428Y-72173809D01*
X69461904Y-72126190D02*
X69461904Y-72602380D01*
X69128571Y-71602380D02*
X69461904Y-72126190D01*
X69795238Y-71602380D01*
X70128571Y-72221428D02*
X70890476Y-72221428D01*
X71557142Y-71602380D02*
X71652380Y-71602380D01*
X71747619Y-71650000D01*
X71795238Y-71697619D01*
X71842857Y-71792857D01*
X71890476Y-71983333D01*
X71890476Y-72221428D01*
X71842857Y-72411904D01*
X71795238Y-72507142D01*
X71747619Y-72554761D01*
X71652380Y-72602380D01*
X71557142Y-72602380D01*
X71461904Y-72554761D01*
X71414285Y-72507142D01*
X71366666Y-72411904D01*
X71319047Y-72221428D01*
X71319047Y-71983333D01*
X71366666Y-71792857D01*
X71414285Y-71697619D01*
X71461904Y-71650000D01*
X71557142Y-71602380D01*
X72223809Y-71602380D02*
X72842857Y-71602380D01*
X72509523Y-71983333D01*
X72652380Y-71983333D01*
X72747619Y-72030952D01*
X72795238Y-72078571D01*
X72842857Y-72173809D01*
X72842857Y-72411904D01*
X72795238Y-72507142D01*
X72747619Y-72554761D01*
X72652380Y-72602380D01*
X72366666Y-72602380D01*
X72271428Y-72554761D01*
X72223809Y-72507142D01*
X73176190Y-71602380D02*
X73842857Y-71602380D01*
X73414285Y-72602380D01*
X74223809Y-72221428D02*
X74985714Y-72221428D01*
X75890476Y-72554761D02*
X75795238Y-72602380D01*
X75604761Y-72602380D01*
X75509523Y-72554761D01*
X75461904Y-72507142D01*
X75414285Y-72411904D01*
X75414285Y-72126190D01*
X75461904Y-72030952D01*
X75509523Y-71983333D01*
X75604761Y-71935714D01*
X75795238Y-71935714D01*
X75890476Y-71983333D01*
X76461904Y-72602380D02*
X76366666Y-72554761D01*
X76319047Y-72507142D01*
X76271428Y-72411904D01*
X76271428Y-72126190D01*
X76319047Y-72030952D01*
X76366666Y-71983333D01*
X76461904Y-71935714D01*
X76604761Y-71935714D01*
X76700000Y-71983333D01*
X76747619Y-72030952D01*
X76795238Y-72126190D01*
X76795238Y-72411904D01*
X76747619Y-72507142D01*
X76700000Y-72554761D01*
X76604761Y-72602380D01*
X76461904Y-72602380D01*
X77223809Y-71935714D02*
X77223809Y-72602380D01*
X77223809Y-72030952D02*
X77271428Y-71983333D01*
X77366666Y-71935714D01*
X77509523Y-71935714D01*
X77604761Y-71983333D01*
X77652380Y-72078571D01*
X77652380Y-72602380D01*
X78128571Y-71935714D02*
X78128571Y-72602380D01*
X78128571Y-72030952D02*
X78176190Y-71983333D01*
X78271428Y-71935714D01*
X78414285Y-71935714D01*
X78509523Y-71983333D01*
X78557142Y-72078571D01*
X78557142Y-72602380D01*
X79414285Y-72554761D02*
X79319047Y-72602380D01*
X79128571Y-72602380D01*
X79033333Y-72554761D01*
X78985714Y-72459523D01*
X78985714Y-72078571D01*
X79033333Y-71983333D01*
X79128571Y-71935714D01*
X79319047Y-71935714D01*
X79414285Y-71983333D01*
X79461904Y-72078571D01*
X79461904Y-72173809D01*
X78985714Y-72269047D01*
X80319047Y-72554761D02*
X80223809Y-72602380D01*
X80033333Y-72602380D01*
X79938095Y-72554761D01*
X79890476Y-72507142D01*
X79842857Y-72411904D01*
X79842857Y-72126190D01*
X79890476Y-72030952D01*
X79938095Y-71983333D01*
X80033333Y-71935714D01*
X80223809Y-71935714D01*
X80319047Y-71983333D01*
X80604761Y-71935714D02*
X80985714Y-71935714D01*
X80747619Y-71602380D02*
X80747619Y-72459523D01*
X80795238Y-72554761D01*
X80890476Y-72602380D01*
X80985714Y-72602380D01*
X81461904Y-72602380D02*
X81366666Y-72554761D01*
X81319047Y-72507142D01*
X81271428Y-72411904D01*
X81271428Y-72126190D01*
X81319047Y-72030952D01*
X81366666Y-71983333D01*
X81461904Y-71935714D01*
X81604761Y-71935714D01*
X81700000Y-71983333D01*
X81747619Y-72030952D01*
X81795238Y-72126190D01*
X81795238Y-72411904D01*
X81747619Y-72507142D01*
X81700000Y-72554761D01*
X81604761Y-72602380D01*
X81461904Y-72602380D01*
X82223809Y-72602380D02*
X82223809Y-71935714D01*
X82223809Y-72126190D02*
X82271428Y-72030952D01*
X82319047Y-71983333D01*
X82414285Y-71935714D01*
X82509523Y-71935714D01*
X82795238Y-72554761D02*
X82890476Y-72602380D01*
X83080952Y-72602380D01*
X83176190Y-72554761D01*
X83223809Y-72459523D01*
X83223809Y-72411904D01*
X83176190Y-72316666D01*
X83080952Y-72269047D01*
X82938095Y-72269047D01*
X82842857Y-72221428D01*
X82795238Y-72126190D01*
X82795238Y-72078571D01*
X82842857Y-71983333D01*
X82938095Y-71935714D01*
X83080952Y-71935714D01*
X83176190Y-71983333D01*
X84176190Y-72602380D02*
X83604761Y-72602380D01*
X83890476Y-72602380D02*
X83890476Y-71602380D01*
X83795238Y-71745238D01*
X83700000Y-71840476D01*
X83604761Y-71888095D01*
%TO.C,J1*%
X73286666Y-25932380D02*
X73286666Y-26646666D01*
X73239047Y-26789523D01*
X73143809Y-26884761D01*
X73000952Y-26932380D01*
X72905714Y-26932380D01*
X74286666Y-26932380D02*
X73715238Y-26932380D01*
X74000952Y-26932380D02*
X74000952Y-25932380D01*
X73905714Y-26075238D01*
X73810476Y-26170476D01*
X73715238Y-26218095D01*
X79548571Y-30587142D02*
X80691428Y-30587142D01*
X80120000Y-31158571D02*
X80120000Y-30015714D01*
X66548571Y-30587142D02*
X67691428Y-30587142D01*
%TO.C,HC-SR501-connectors1*%
X105622380Y-52180000D02*
X104622380Y-52180000D01*
X105098571Y-52180000D02*
X105098571Y-51608571D01*
X105622380Y-51608571D02*
X104622380Y-51608571D01*
X105527142Y-50560952D02*
X105574761Y-50608571D01*
X105622380Y-50751428D01*
X105622380Y-50846666D01*
X105574761Y-50989523D01*
X105479523Y-51084761D01*
X105384285Y-51132380D01*
X105193809Y-51180000D01*
X105050952Y-51180000D01*
X104860476Y-51132380D01*
X104765238Y-51084761D01*
X104670000Y-50989523D01*
X104622380Y-50846666D01*
X104622380Y-50751428D01*
X104670000Y-50608571D01*
X104717619Y-50560952D01*
X105241428Y-50132380D02*
X105241428Y-49370476D01*
X105574761Y-48941904D02*
X105622380Y-48799047D01*
X105622380Y-48560952D01*
X105574761Y-48465714D01*
X105527142Y-48418095D01*
X105431904Y-48370476D01*
X105336666Y-48370476D01*
X105241428Y-48418095D01*
X105193809Y-48465714D01*
X105146190Y-48560952D01*
X105098571Y-48751428D01*
X105050952Y-48846666D01*
X105003333Y-48894285D01*
X104908095Y-48941904D01*
X104812857Y-48941904D01*
X104717619Y-48894285D01*
X104670000Y-48846666D01*
X104622380Y-48751428D01*
X104622380Y-48513333D01*
X104670000Y-48370476D01*
X105622380Y-47370476D02*
X105146190Y-47703809D01*
X105622380Y-47941904D02*
X104622380Y-47941904D01*
X104622380Y-47560952D01*
X104670000Y-47465714D01*
X104717619Y-47418095D01*
X104812857Y-47370476D01*
X104955714Y-47370476D01*
X105050952Y-47418095D01*
X105098571Y-47465714D01*
X105146190Y-47560952D01*
X105146190Y-47941904D01*
X104622380Y-46465714D02*
X104622380Y-46941904D01*
X105098571Y-46989523D01*
X105050952Y-46941904D01*
X105003333Y-46846666D01*
X105003333Y-46608571D01*
X105050952Y-46513333D01*
X105098571Y-46465714D01*
X105193809Y-46418095D01*
X105431904Y-46418095D01*
X105527142Y-46465714D01*
X105574761Y-46513333D01*
X105622380Y-46608571D01*
X105622380Y-46846666D01*
X105574761Y-46941904D01*
X105527142Y-46989523D01*
X104622380Y-45799047D02*
X104622380Y-45703809D01*
X104670000Y-45608571D01*
X104717619Y-45560952D01*
X104812857Y-45513333D01*
X105003333Y-45465714D01*
X105241428Y-45465714D01*
X105431904Y-45513333D01*
X105527142Y-45560952D01*
X105574761Y-45608571D01*
X105622380Y-45703809D01*
X105622380Y-45799047D01*
X105574761Y-45894285D01*
X105527142Y-45941904D01*
X105431904Y-45989523D01*
X105241428Y-46037142D01*
X105003333Y-46037142D01*
X104812857Y-45989523D01*
X104717619Y-45941904D01*
X104670000Y-45894285D01*
X104622380Y-45799047D01*
X105622380Y-44513333D02*
X105622380Y-45084761D01*
X105622380Y-44799047D02*
X104622380Y-44799047D01*
X104765238Y-44894285D01*
X104860476Y-44989523D01*
X104908095Y-45084761D01*
X105241428Y-44084761D02*
X105241428Y-43322857D01*
X105574761Y-42418095D02*
X105622380Y-42513333D01*
X105622380Y-42703809D01*
X105574761Y-42799047D01*
X105527142Y-42846666D01*
X105431904Y-42894285D01*
X105146190Y-42894285D01*
X105050952Y-42846666D01*
X105003333Y-42799047D01*
X104955714Y-42703809D01*
X104955714Y-42513333D01*
X105003333Y-42418095D01*
X105622380Y-41846666D02*
X105574761Y-41941904D01*
X105527142Y-41989523D01*
X105431904Y-42037142D01*
X105146190Y-42037142D01*
X105050952Y-41989523D01*
X105003333Y-41941904D01*
X104955714Y-41846666D01*
X104955714Y-41703809D01*
X105003333Y-41608571D01*
X105050952Y-41560952D01*
X105146190Y-41513333D01*
X105431904Y-41513333D01*
X105527142Y-41560952D01*
X105574761Y-41608571D01*
X105622380Y-41703809D01*
X105622380Y-41846666D01*
X104955714Y-41084761D02*
X105622380Y-41084761D01*
X105050952Y-41084761D02*
X105003333Y-41037142D01*
X104955714Y-40941904D01*
X104955714Y-40799047D01*
X105003333Y-40703809D01*
X105098571Y-40656190D01*
X105622380Y-40656190D01*
X104955714Y-40180000D02*
X105622380Y-40180000D01*
X105050952Y-40180000D02*
X105003333Y-40132380D01*
X104955714Y-40037142D01*
X104955714Y-39894285D01*
X105003333Y-39799047D01*
X105098571Y-39751428D01*
X105622380Y-39751428D01*
X105574761Y-38894285D02*
X105622380Y-38989523D01*
X105622380Y-39180000D01*
X105574761Y-39275238D01*
X105479523Y-39322857D01*
X105098571Y-39322857D01*
X105003333Y-39275238D01*
X104955714Y-39180000D01*
X104955714Y-38989523D01*
X105003333Y-38894285D01*
X105098571Y-38846666D01*
X105193809Y-38846666D01*
X105289047Y-39322857D01*
X105574761Y-37989523D02*
X105622380Y-38084761D01*
X105622380Y-38275238D01*
X105574761Y-38370476D01*
X105527142Y-38418095D01*
X105431904Y-38465714D01*
X105146190Y-38465714D01*
X105050952Y-38418095D01*
X105003333Y-38370476D01*
X104955714Y-38275238D01*
X104955714Y-38084761D01*
X105003333Y-37989523D01*
X104955714Y-37703809D02*
X104955714Y-37322857D01*
X104622380Y-37560952D02*
X105479523Y-37560952D01*
X105574761Y-37513333D01*
X105622380Y-37418095D01*
X105622380Y-37322857D01*
X105622380Y-36846666D02*
X105574761Y-36941904D01*
X105527142Y-36989523D01*
X105431904Y-37037142D01*
X105146190Y-37037142D01*
X105050952Y-36989523D01*
X105003333Y-36941904D01*
X104955714Y-36846666D01*
X104955714Y-36703809D01*
X105003333Y-36608571D01*
X105050952Y-36560952D01*
X105146190Y-36513333D01*
X105431904Y-36513333D01*
X105527142Y-36560952D01*
X105574761Y-36608571D01*
X105622380Y-36703809D01*
X105622380Y-36846666D01*
X105622380Y-36084761D02*
X104955714Y-36084761D01*
X105146190Y-36084761D02*
X105050952Y-36037142D01*
X105003333Y-35989523D01*
X104955714Y-35894285D01*
X104955714Y-35799047D01*
X105574761Y-35513333D02*
X105622380Y-35418095D01*
X105622380Y-35227619D01*
X105574761Y-35132380D01*
X105479523Y-35084761D01*
X105431904Y-35084761D01*
X105336666Y-35132380D01*
X105289047Y-35227619D01*
X105289047Y-35370476D01*
X105241428Y-35465714D01*
X105146190Y-35513333D01*
X105098571Y-35513333D01*
X105003333Y-35465714D01*
X104955714Y-35370476D01*
X104955714Y-35227619D01*
X105003333Y-35132380D01*
X105622380Y-34132380D02*
X105622380Y-34703809D01*
X105622380Y-34418095D02*
X104622380Y-34418095D01*
X104765238Y-34513333D01*
X104860476Y-34608571D01*
X104908095Y-34703809D01*
%TO.C,Alimenta\u00E7\u00E3o1*%
X62586666Y-50513333D02*
X62586666Y-50037142D01*
X62872380Y-50608571D02*
X61872380Y-50275238D01*
X62872380Y-49941904D01*
X62872380Y-49465714D02*
X62824761Y-49560952D01*
X62729523Y-49608571D01*
X61872380Y-49608571D01*
X62872380Y-49084761D02*
X62205714Y-49084761D01*
X61872380Y-49084761D02*
X61920000Y-49132380D01*
X61967619Y-49084761D01*
X61920000Y-49037142D01*
X61872380Y-49084761D01*
X61967619Y-49084761D01*
X62872380Y-48608571D02*
X62205714Y-48608571D01*
X62300952Y-48608571D02*
X62253333Y-48560952D01*
X62205714Y-48465714D01*
X62205714Y-48322857D01*
X62253333Y-48227619D01*
X62348571Y-48180000D01*
X62872380Y-48180000D01*
X62348571Y-48180000D02*
X62253333Y-48132380D01*
X62205714Y-48037142D01*
X62205714Y-47894285D01*
X62253333Y-47799047D01*
X62348571Y-47751428D01*
X62872380Y-47751428D01*
X62824761Y-46894285D02*
X62872380Y-46989523D01*
X62872380Y-47180000D01*
X62824761Y-47275238D01*
X62729523Y-47322857D01*
X62348571Y-47322857D01*
X62253333Y-47275238D01*
X62205714Y-47180000D01*
X62205714Y-46989523D01*
X62253333Y-46894285D01*
X62348571Y-46846666D01*
X62443809Y-46846666D01*
X62539047Y-47322857D01*
X62205714Y-46418095D02*
X62872380Y-46418095D01*
X62300952Y-46418095D02*
X62253333Y-46370476D01*
X62205714Y-46275238D01*
X62205714Y-46132380D01*
X62253333Y-46037142D01*
X62348571Y-45989523D01*
X62872380Y-45989523D01*
X62205714Y-45656190D02*
X62205714Y-45275238D01*
X61872380Y-45513333D02*
X62729523Y-45513333D01*
X62824761Y-45465714D01*
X62872380Y-45370476D01*
X62872380Y-45275238D01*
X62872380Y-44513333D02*
X62348571Y-44513333D01*
X62253333Y-44560952D01*
X62205714Y-44656190D01*
X62205714Y-44846666D01*
X62253333Y-44941904D01*
X62824761Y-44513333D02*
X62872380Y-44608571D01*
X62872380Y-44846666D01*
X62824761Y-44941904D01*
X62729523Y-44989523D01*
X62634285Y-44989523D01*
X62539047Y-44941904D01*
X62491428Y-44846666D01*
X62491428Y-44608571D01*
X62443809Y-44513333D01*
X62824761Y-43608571D02*
X62872380Y-43703809D01*
X62872380Y-43894285D01*
X62824761Y-43989523D01*
X62777142Y-44037142D01*
X62681904Y-44084761D01*
X62396190Y-44084761D01*
X62300952Y-44037142D01*
X62253333Y-43989523D01*
X62205714Y-43894285D01*
X62205714Y-43703809D01*
X62253333Y-43608571D01*
X62920000Y-43799047D02*
X62967619Y-43703809D01*
X63062857Y-43656190D01*
X63158095Y-43703809D01*
X63205714Y-43799047D01*
X63205714Y-43941904D01*
X62872380Y-42751428D02*
X62348571Y-42751428D01*
X62253333Y-42799047D01*
X62205714Y-42894285D01*
X62205714Y-43084761D01*
X62253333Y-43180000D01*
X62824761Y-42751428D02*
X62872380Y-42846666D01*
X62872380Y-43084761D01*
X62824761Y-43180000D01*
X62729523Y-43227619D01*
X62634285Y-43227619D01*
X62539047Y-43180000D01*
X62491428Y-43084761D01*
X62491428Y-42846666D01*
X62443809Y-42751428D01*
X61967619Y-43227619D02*
X61920000Y-43180000D01*
X61872380Y-43084761D01*
X61967619Y-42894285D01*
X61920000Y-42799047D01*
X61872380Y-42751428D01*
X62872380Y-42132380D02*
X62824761Y-42227619D01*
X62777142Y-42275238D01*
X62681904Y-42322857D01*
X62396190Y-42322857D01*
X62300952Y-42275238D01*
X62253333Y-42227619D01*
X62205714Y-42132380D01*
X62205714Y-41989523D01*
X62253333Y-41894285D01*
X62300952Y-41846666D01*
X62396190Y-41799047D01*
X62681904Y-41799047D01*
X62777142Y-41846666D01*
X62824761Y-41894285D01*
X62872380Y-41989523D01*
X62872380Y-42132380D01*
X62872380Y-40846666D02*
X62872380Y-41418095D01*
X62872380Y-41132380D02*
X61872380Y-41132380D01*
X62015238Y-41227619D01*
X62110476Y-41322857D01*
X62158095Y-41418095D01*
X58527142Y-52751428D02*
X58527142Y-51608571D01*
X59098571Y-52180000D02*
X57955714Y-52180000D01*
X58527142Y-39751428D02*
X58527142Y-38608571D01*
%TO.C,Microcontrolador1*%
X67112380Y-40962380D02*
X67112380Y-39962380D01*
X67445714Y-40676666D01*
X67779047Y-39962380D01*
X67779047Y-40962380D01*
X68255238Y-40962380D02*
X68255238Y-40295714D01*
X68255238Y-39962380D02*
X68207619Y-40010000D01*
X68255238Y-40057619D01*
X68302857Y-40010000D01*
X68255238Y-39962380D01*
X68255238Y-40057619D01*
X69160000Y-40914761D02*
X69064761Y-40962380D01*
X68874285Y-40962380D01*
X68779047Y-40914761D01*
X68731428Y-40867142D01*
X68683809Y-40771904D01*
X68683809Y-40486190D01*
X68731428Y-40390952D01*
X68779047Y-40343333D01*
X68874285Y-40295714D01*
X69064761Y-40295714D01*
X69160000Y-40343333D01*
X69588571Y-40962380D02*
X69588571Y-40295714D01*
X69588571Y-40486190D02*
X69636190Y-40390952D01*
X69683809Y-40343333D01*
X69779047Y-40295714D01*
X69874285Y-40295714D01*
X70350476Y-40962380D02*
X70255238Y-40914761D01*
X70207619Y-40867142D01*
X70160000Y-40771904D01*
X70160000Y-40486190D01*
X70207619Y-40390952D01*
X70255238Y-40343333D01*
X70350476Y-40295714D01*
X70493333Y-40295714D01*
X70588571Y-40343333D01*
X70636190Y-40390952D01*
X70683809Y-40486190D01*
X70683809Y-40771904D01*
X70636190Y-40867142D01*
X70588571Y-40914761D01*
X70493333Y-40962380D01*
X70350476Y-40962380D01*
X71540952Y-40914761D02*
X71445714Y-40962380D01*
X71255238Y-40962380D01*
X71160000Y-40914761D01*
X71112380Y-40867142D01*
X71064761Y-40771904D01*
X71064761Y-40486190D01*
X71112380Y-40390952D01*
X71160000Y-40343333D01*
X71255238Y-40295714D01*
X71445714Y-40295714D01*
X71540952Y-40343333D01*
X72112380Y-40962380D02*
X72017142Y-40914761D01*
X71969523Y-40867142D01*
X71921904Y-40771904D01*
X71921904Y-40486190D01*
X71969523Y-40390952D01*
X72017142Y-40343333D01*
X72112380Y-40295714D01*
X72255238Y-40295714D01*
X72350476Y-40343333D01*
X72398095Y-40390952D01*
X72445714Y-40486190D01*
X72445714Y-40771904D01*
X72398095Y-40867142D01*
X72350476Y-40914761D01*
X72255238Y-40962380D01*
X72112380Y-40962380D01*
X72874285Y-40295714D02*
X72874285Y-40962380D01*
X72874285Y-40390952D02*
X72921904Y-40343333D01*
X73017142Y-40295714D01*
X73160000Y-40295714D01*
X73255238Y-40343333D01*
X73302857Y-40438571D01*
X73302857Y-40962380D01*
X73636190Y-40295714D02*
X74017142Y-40295714D01*
X73779047Y-39962380D02*
X73779047Y-40819523D01*
X73826666Y-40914761D01*
X73921904Y-40962380D01*
X74017142Y-40962380D01*
X74350476Y-40962380D02*
X74350476Y-40295714D01*
X74350476Y-40486190D02*
X74398095Y-40390952D01*
X74445714Y-40343333D01*
X74540952Y-40295714D01*
X74636190Y-40295714D01*
X75112380Y-40962380D02*
X75017142Y-40914761D01*
X74969523Y-40867142D01*
X74921904Y-40771904D01*
X74921904Y-40486190D01*
X74969523Y-40390952D01*
X75017142Y-40343333D01*
X75112380Y-40295714D01*
X75255238Y-40295714D01*
X75350476Y-40343333D01*
X75398095Y-40390952D01*
X75445714Y-40486190D01*
X75445714Y-40771904D01*
X75398095Y-40867142D01*
X75350476Y-40914761D01*
X75255238Y-40962380D01*
X75112380Y-40962380D01*
X76017142Y-40962380D02*
X75921904Y-40914761D01*
X75874285Y-40819523D01*
X75874285Y-39962380D01*
X76826666Y-40962380D02*
X76826666Y-40438571D01*
X76779047Y-40343333D01*
X76683809Y-40295714D01*
X76493333Y-40295714D01*
X76398095Y-40343333D01*
X76826666Y-40914761D02*
X76731428Y-40962380D01*
X76493333Y-40962380D01*
X76398095Y-40914761D01*
X76350476Y-40819523D01*
X76350476Y-40724285D01*
X76398095Y-40629047D01*
X76493333Y-40581428D01*
X76731428Y-40581428D01*
X76826666Y-40533809D01*
X77731428Y-40962380D02*
X77731428Y-39962380D01*
X77731428Y-40914761D02*
X77636190Y-40962380D01*
X77445714Y-40962380D01*
X77350476Y-40914761D01*
X77302857Y-40867142D01*
X77255238Y-40771904D01*
X77255238Y-40486190D01*
X77302857Y-40390952D01*
X77350476Y-40343333D01*
X77445714Y-40295714D01*
X77636190Y-40295714D01*
X77731428Y-40343333D01*
X78350476Y-40962380D02*
X78255238Y-40914761D01*
X78207619Y-40867142D01*
X78160000Y-40771904D01*
X78160000Y-40486190D01*
X78207619Y-40390952D01*
X78255238Y-40343333D01*
X78350476Y-40295714D01*
X78493333Y-40295714D01*
X78588571Y-40343333D01*
X78636190Y-40390952D01*
X78683809Y-40486190D01*
X78683809Y-40771904D01*
X78636190Y-40867142D01*
X78588571Y-40914761D01*
X78493333Y-40962380D01*
X78350476Y-40962380D01*
X79112380Y-40962380D02*
X79112380Y-40295714D01*
X79112380Y-40486190D02*
X79160000Y-40390952D01*
X79207619Y-40343333D01*
X79302857Y-40295714D01*
X79398095Y-40295714D01*
X80255238Y-40962380D02*
X79683809Y-40962380D01*
X79969523Y-40962380D02*
X79969523Y-39962380D01*
X79874285Y-40105238D01*
X79779047Y-40200476D01*
X79683809Y-40248095D01*
D11*
%TO.C,KY-037-connectors1*%
X69500000Y-66540000D02*
G75*
G03*
X69500000Y-68760000I0J-1110000D01*
G01*
X82900000Y-68760000D02*
G75*
G03*
X82900000Y-66540000I0J1110000D01*
G01*
X70340000Y-66540000D02*
X69500000Y-66540000D01*
X82060000Y-70960000D02*
X82060000Y-68760000D01*
X82060000Y-66540000D02*
X82060000Y-61740000D01*
X82060000Y-61740000D02*
X70340000Y-61740000D01*
X70340000Y-70960000D02*
X70340000Y-68760000D01*
X70340000Y-66540000D02*
X70340000Y-61740000D01*
X70340000Y-68760000D02*
X69500000Y-68760000D01*
X82900000Y-66540000D02*
X82060000Y-66540000D01*
X82900000Y-68760000D02*
X82060000Y-68760000D01*
X82060000Y-70960000D02*
X70340000Y-70960000D01*
%TO.C,J1*%
X68410000Y-29070000D02*
X68410000Y-31890000D01*
X68410000Y-31890000D02*
X70110000Y-33190000D01*
X68410000Y-29070000D02*
X70110000Y-27770000D01*
X70110000Y-33190000D02*
X78830000Y-33190000D01*
X70110000Y-27770000D02*
X78830000Y-27770000D01*
X78830000Y-27770000D02*
X78830000Y-33190000D01*
%TO.C,HC-SR501-connectors1*%
X99560000Y-49880000D02*
G75*
G03*
X101780000Y-49880000I1110000J0D01*
G01*
X101780000Y-36480000D02*
G75*
G03*
X99560000Y-36480000I-1110000J0D01*
G01*
X99560000Y-49040000D02*
X99560000Y-49880000D01*
X103980000Y-37320000D02*
X101780000Y-37320000D01*
X99560000Y-37320000D02*
X94760000Y-37320000D01*
X94760000Y-37320000D02*
X94760000Y-49040000D01*
X103980000Y-49040000D02*
X101780000Y-49040000D01*
X99560000Y-49040000D02*
X94760000Y-49040000D01*
X101780000Y-49040000D02*
X101780000Y-49880000D01*
X99560000Y-36480000D02*
X99560000Y-37320000D01*
X101780000Y-36480000D02*
X101780000Y-37320000D01*
X103980000Y-37320000D02*
X103980000Y-49040000D01*
%TO.C,Alimenta\u00E7\u00E3o1*%
X59830000Y-40470000D02*
X57010000Y-40470000D01*
X57010000Y-40470000D02*
X55710000Y-42170000D01*
X59830000Y-40470000D02*
X61130000Y-42170000D01*
X55710000Y-42170000D02*
X55710000Y-50890000D01*
X61130000Y-42170000D02*
X61130000Y-50890000D01*
X61130000Y-50890000D02*
X55710000Y-50890000D01*
%TO.C,Microcontrolador1*%
X71525000Y-46940000D02*
X71050000Y-46940000D01*
X76270000Y-41720000D02*
X76270000Y-42195000D01*
X75795000Y-41720000D02*
X76270000Y-41720000D01*
X75795000Y-46940000D02*
X76270000Y-46940000D01*
X71050000Y-46940000D02*
X71050000Y-46465000D01*
X71525000Y-41720000D02*
X71050000Y-41720000D01*
X76270000Y-46940000D02*
X76270000Y-46465000D01*
%TD*%
M02*
