%TF.GenerationSoftware,KiCad,Pcbnew,(6.0.9)*%
%TF.CreationDate,2022-11-29T22:08:51-03:00*%
%TF.ProjectId,luz_inteligente,6c757a5f-696e-4746-956c-6967656e7465,rev?*%
%TF.SameCoordinates,Original*%
%TF.FileFunction,Soldermask,Top*%
%TF.FilePolarity,Negative*%
%FSLAX46Y46*%
G04 Gerber Fmt 4.6, Leading zero omitted, Abs format (unit mm)*
G04 Created by KiCad (PCBNEW (6.0.9)) date 2022-11-29 22:08:51*
%MOMM*%
%LPD*%
G01*
G04 APERTURE LIST*
G04 Aperture macros list*
%AMRoundRect*
0 Rectangle with rounded corners*
0 $1 Rounding radius*
0 $2 $3 $4 $5 $6 $7 $8 $9 X,Y pos of 4 corners*
0 Add a 4 corners polygon primitive as box body*
4,1,4,$2,$3,$4,$5,$6,$7,$8,$9,$2,$3,0*
0 Add four circle primitives for the rounded corners*
1,1,$1+$1,$2,$3*
1,1,$1+$1,$4,$5*
1,1,$1+$1,$6,$7*
1,1,$1+$1,$8,$9*
0 Add four rect primitives between the rounded corners*
20,1,$1+$1,$2,$3,$4,$5,0*
20,1,$1+$1,$4,$5,$6,$7,0*
20,1,$1+$1,$6,$7,$8,$9,0*
20,1,$1+$1,$8,$9,$2,$3,0*%
G04 Aperture macros list end*
%ADD10C,3.000000*%
%ADD11R,3.000000X3.000000*%
%ADD12C,1.400000*%
%ADD13R,3.800000X3.800000*%
%ADD14C,3.800000*%
%ADD15RoundRect,0.062500X-0.375000X-0.062500X0.375000X-0.062500X0.375000X0.062500X-0.375000X0.062500X0*%
%ADD16RoundRect,0.062500X-0.062500X-0.375000X0.062500X-0.375000X0.062500X0.375000X-0.062500X0.375000X0*%
%ADD17R,3.450000X3.450000*%
G04 APERTURE END LIST*
D10*
%TO.C,KY-037-connectors1*%
X72700000Y-57650000D03*
X76200000Y-57650000D03*
D11*
X79700000Y-57650000D03*
D12*
X82700000Y-67650000D03*
X69700000Y-67650000D03*
%TD*%
D13*
%TO.C,J1*%
X71120000Y-30480000D03*
D14*
X76120000Y-30480000D03*
%TD*%
D10*
%TO.C,HC-SR501-connectors1*%
X90670000Y-46680000D03*
X90670000Y-43180000D03*
D11*
X90670000Y-39680000D03*
D12*
X100670000Y-36680000D03*
X100670000Y-49680000D03*
%TD*%
D13*
%TO.C,Alimenta\u00E7\u00E3o1*%
X58420000Y-43180000D03*
D14*
X58420000Y-48180000D03*
%TD*%
D15*
%TO.C,Microcontrolador1*%
X71222500Y-42580000D03*
X71222500Y-43080000D03*
X71222500Y-43580000D03*
X71222500Y-44080000D03*
X71222500Y-44580000D03*
X71222500Y-45080000D03*
X71222500Y-45580000D03*
X71222500Y-46080000D03*
D16*
X71910000Y-46767500D03*
X72410000Y-46767500D03*
X72910000Y-46767500D03*
X73410000Y-46767500D03*
X73910000Y-46767500D03*
X74410000Y-46767500D03*
X74910000Y-46767500D03*
X75410000Y-46767500D03*
D15*
X76097500Y-46080000D03*
X76097500Y-45580000D03*
X76097500Y-45080000D03*
X76097500Y-44580000D03*
X76097500Y-44080000D03*
X76097500Y-43580000D03*
X76097500Y-43080000D03*
X76097500Y-42580000D03*
D16*
X75410000Y-41892500D03*
X74910000Y-41892500D03*
X74410000Y-41892500D03*
X73910000Y-41892500D03*
X73410000Y-41892500D03*
X72910000Y-41892500D03*
X72410000Y-41892500D03*
X71910000Y-41892500D03*
D17*
X73660000Y-44330000D03*
%TD*%
M02*
