%TF.GenerationSoftware,KiCad,Pcbnew,(6.0.9)*%
%TF.CreationDate,2022-11-29T22:08:51-03:00*%
%TF.ProjectId,luz_inteligente,6c757a5f-696e-4746-956c-6967656e7465,rev?*%
%TF.SameCoordinates,Original*%
%TF.FileFunction,Copper,L1,Top*%
%TF.FilePolarity,Positive*%
%FSLAX46Y46*%
G04 Gerber Fmt 4.6, Leading zero omitted, Abs format (unit mm)*
G04 Created by KiCad (PCBNEW (6.0.9)) date 2022-11-29 22:08:51*
%MOMM*%
%LPD*%
G01*
G04 APERTURE LIST*
G04 Aperture macros list*
%AMRoundRect*
0 Rectangle with rounded corners*
0 $1 Rounding radius*
0 $2 $3 $4 $5 $6 $7 $8 $9 X,Y pos of 4 corners*
0 Add a 4 corners polygon primitive as box body*
4,1,4,$2,$3,$4,$5,$6,$7,$8,$9,$2,$3,0*
0 Add four circle primitives for the rounded corners*
1,1,$1+$1,$2,$3*
1,1,$1+$1,$4,$5*
1,1,$1+$1,$6,$7*
1,1,$1+$1,$8,$9*
0 Add four rect primitives between the rounded corners*
20,1,$1+$1,$2,$3,$4,$5,0*
20,1,$1+$1,$4,$5,$6,$7,0*
20,1,$1+$1,$6,$7,$8,$9,0*
20,1,$1+$1,$8,$9,$2,$3,0*%
G04 Aperture macros list end*
%TA.AperFunction,ComponentPad*%
%ADD10C,3.000000*%
%TD*%
%TA.AperFunction,ComponentPad*%
%ADD11R,3.000000X3.000000*%
%TD*%
%TA.AperFunction,ComponentPad*%
%ADD12C,1.400000*%
%TD*%
%TA.AperFunction,ComponentPad*%
%ADD13R,3.800000X3.800000*%
%TD*%
%TA.AperFunction,ComponentPad*%
%ADD14C,3.800000*%
%TD*%
%TA.AperFunction,SMDPad,CuDef*%
%ADD15RoundRect,0.062500X-0.375000X-0.062500X0.375000X-0.062500X0.375000X0.062500X-0.375000X0.062500X0*%
%TD*%
%TA.AperFunction,SMDPad,CuDef*%
%ADD16RoundRect,0.062500X-0.062500X-0.375000X0.062500X-0.375000X0.062500X0.375000X-0.062500X0.375000X0*%
%TD*%
%TA.AperFunction,SMDPad,CuDef*%
%ADD17R,3.450000X3.450000*%
%TD*%
%TA.AperFunction,Conductor*%
%ADD18C,0.250000*%
%TD*%
G04 APERTURE END LIST*
D10*
%TO.P,KY-037-connectors1,3,Pin_3*%
%TO.N,Net-(Microcontrolador1-Pad15)*%
X72700000Y-57650000D03*
%TO.P,KY-037-connectors1,2,Pin_2*%
%TO.N,Net-(Microcontrolador1-Pad33)*%
X76200000Y-57650000D03*
D11*
%TO.P,KY-037-connectors1,1,Pin_1*%
%TO.N,Net-(Alimenta\u00E7\u00E3o1-Pad1)*%
X79700000Y-57650000D03*
D12*
%TO.P,KY-037-connectors1,*%
%TO.N,*%
X82700000Y-67650000D03*
X69700000Y-67650000D03*
%TD*%
D13*
%TO.P,J1,1,Pin_1*%
%TO.N,Net-(Microcontrolador1-Pad24)*%
X71120000Y-30480000D03*
D14*
%TO.P,J1,2,Pin_2*%
%TO.N,Net-(Microcontrolador1-Pad33)*%
X76120000Y-30480000D03*
%TD*%
D10*
%TO.P,HC-SR501-connectors1,3,Pin_3*%
%TO.N,Net-(Microcontrolador1-Pad33)*%
X90670000Y-46680000D03*
%TO.P,HC-SR501-connectors1,2,Pin_2*%
%TO.N,Net-(HC-SR501-connectors1-Pad2)*%
X90670000Y-43180000D03*
D11*
%TO.P,HC-SR501-connectors1,1,Pin_1*%
%TO.N,Net-(Alimenta\u00E7\u00E3o1-Pad1)*%
X90670000Y-39680000D03*
D12*
%TO.P,HC-SR501-connectors1,*%
%TO.N,*%
X100670000Y-36680000D03*
X100670000Y-49680000D03*
%TD*%
D13*
%TO.P,Alimenta\u00E7\u00E3o1,1,Pin_1*%
%TO.N,Net-(Alimenta\u00E7\u00E3o1-Pad1)*%
X58420000Y-43180000D03*
D14*
%TO.P,Alimenta\u00E7\u00E3o1,2,Pin_2*%
%TO.N,Net-(Microcontrolador1-Pad33)*%
X58420000Y-48180000D03*
%TD*%
D15*
%TO.P,Microcontrolador1,1,VDDA*%
%TO.N,unconnected-(Microcontrolador1-Pad1)*%
X71222500Y-42580000D03*
%TO.P,Microcontrolador1,2,LNA*%
%TO.N,unconnected-(Microcontrolador1-Pad2)*%
X71222500Y-43080000D03*
%TO.P,Microcontrolador1,3,VDD3P3*%
%TO.N,unconnected-(Microcontrolador1-Pad3)*%
X71222500Y-43580000D03*
%TO.P,Microcontrolador1,4,VDD3P3*%
%TO.N,unconnected-(Microcontrolador1-Pad4)*%
X71222500Y-44080000D03*
%TO.P,Microcontrolador1,5,VDD_RTC*%
%TO.N,unconnected-(Microcontrolador1-Pad5)*%
X71222500Y-44580000D03*
%TO.P,Microcontrolador1,6,TOUT*%
%TO.N,unconnected-(Microcontrolador1-Pad6)*%
X71222500Y-45080000D03*
%TO.P,Microcontrolador1,7,CHIP_PU*%
%TO.N,unconnected-(Microcontrolador1-Pad7)*%
X71222500Y-45580000D03*
%TO.P,Microcontrolador1,8,XPD_DCDC*%
%TO.N,unconnected-(Microcontrolador1-Pad8)*%
X71222500Y-46080000D03*
D16*
%TO.P,Microcontrolador1,9,MTMS*%
%TO.N,unconnected-(Microcontrolador1-Pad9)*%
X71910000Y-46767500D03*
%TO.P,Microcontrolador1,10,MTDI*%
%TO.N,unconnected-(Microcontrolador1-Pad10)*%
X72410000Y-46767500D03*
%TO.P,Microcontrolador1,11,VDDPST*%
%TO.N,unconnected-(Microcontrolador1-Pad11)*%
X72910000Y-46767500D03*
%TO.P,Microcontrolador1,12,MTCK*%
%TO.N,unconnected-(Microcontrolador1-Pad12)*%
X73410000Y-46767500D03*
%TO.P,Microcontrolador1,13,MTDO*%
%TO.N,unconnected-(Microcontrolador1-Pad13)*%
X73910000Y-46767500D03*
%TO.P,Microcontrolador1,14,GPIO2*%
%TO.N,unconnected-(Microcontrolador1-Pad14)*%
X74410000Y-46767500D03*
%TO.P,Microcontrolador1,15,GPIO0*%
%TO.N,Net-(Microcontrolador1-Pad15)*%
X74910000Y-46767500D03*
%TO.P,Microcontrolador1,16,GPIO4*%
%TO.N,Net-(HC-SR501-connectors1-Pad2)*%
X75410000Y-46767500D03*
D15*
%TO.P,Microcontrolador1,17,VDDPST*%
%TO.N,unconnected-(Microcontrolador1-Pad17)*%
X76097500Y-46080000D03*
%TO.P,Microcontrolador1,18,SDIO_DATA_2*%
%TO.N,unconnected-(Microcontrolador1-Pad18)*%
X76097500Y-45580000D03*
%TO.P,Microcontrolador1,19,SDIO_DATA_3*%
%TO.N,unconnected-(Microcontrolador1-Pad19)*%
X76097500Y-45080000D03*
%TO.P,Microcontrolador1,20,SDIO_CMD*%
%TO.N,unconnected-(Microcontrolador1-Pad20)*%
X76097500Y-44580000D03*
%TO.P,Microcontrolador1,21,SDIO_CLK*%
%TO.N,unconnected-(Microcontrolador1-Pad21)*%
X76097500Y-44080000D03*
%TO.P,Microcontrolador1,22,SDIO_DATA_0*%
%TO.N,unconnected-(Microcontrolador1-Pad22)*%
X76097500Y-43580000D03*
%TO.P,Microcontrolador1,23,SDIO_DATA_1*%
%TO.N,unconnected-(Microcontrolador1-Pad23)*%
X76097500Y-43080000D03*
%TO.P,Microcontrolador1,24,GPIO5*%
%TO.N,Net-(Microcontrolador1-Pad24)*%
X76097500Y-42580000D03*
D16*
%TO.P,Microcontrolador1,25,U0RXD*%
%TO.N,unconnected-(Microcontrolador1-Pad25)*%
X75410000Y-41892500D03*
%TO.P,Microcontrolador1,26,U0TXD*%
%TO.N,unconnected-(Microcontrolador1-Pad26)*%
X74910000Y-41892500D03*
%TO.P,Microcontrolador1,27,XTAL_OUT*%
%TO.N,unconnected-(Microcontrolador1-Pad27)*%
X74410000Y-41892500D03*
%TO.P,Microcontrolador1,28,XTAL_IN*%
%TO.N,unconnected-(Microcontrolador1-Pad28)*%
X73910000Y-41892500D03*
%TO.P,Microcontrolador1,29,VDDD*%
%TO.N,unconnected-(Microcontrolador1-Pad29)*%
X73410000Y-41892500D03*
%TO.P,Microcontrolador1,30,VDDA*%
%TO.N,unconnected-(Microcontrolador1-Pad30)*%
X72910000Y-41892500D03*
%TO.P,Microcontrolador1,31,RES12K*%
%TO.N,unconnected-(Microcontrolador1-Pad31)*%
X72410000Y-41892500D03*
%TO.P,Microcontrolador1,32,~{EXT_RSTB}*%
%TO.N,unconnected-(Microcontrolador1-Pad32)*%
X71910000Y-41892500D03*
D17*
%TO.P,Microcontrolador1,33,GND*%
%TO.N,Net-(Microcontrolador1-Pad33)*%
X73660000Y-44330000D03*
%TD*%
D18*
%TO.N,Net-(Microcontrolador1-Pad33)*%
X73660000Y-28020000D02*
X76120000Y-30480000D01*
X66040000Y-27940000D02*
X73660000Y-27940000D01*
X73660000Y-27940000D02*
X73660000Y-28020000D01*
X60960000Y-48260000D02*
X63500000Y-45720000D01*
X60880000Y-48180000D02*
X60960000Y-48260000D01*
X63500000Y-30480000D02*
X66040000Y-27940000D01*
X58420000Y-48180000D02*
X60880000Y-48180000D01*
X63500000Y-45720000D02*
X63500000Y-30480000D01*
X78740000Y-53340000D02*
X76200000Y-55880000D01*
X84010000Y-53340000D02*
X78740000Y-53340000D01*
X76200000Y-55880000D02*
X76200000Y-57650000D01*
X90670000Y-46680000D02*
X84010000Y-53340000D01*
X70750000Y-60510000D02*
X58420000Y-48180000D01*
X73340000Y-60510000D02*
X70750000Y-60510000D01*
X76200000Y-57650000D02*
X73340000Y-60510000D01*
%TO.N,Net-(Microcontrolador1-Pad15)*%
X72700000Y-51720000D02*
X72700000Y-57650000D01*
X74910000Y-49510000D02*
X72700000Y-51720000D01*
%TO.N,Net-(Alimenta\u00E7\u00E3o1-Pad1)*%
X87130000Y-57650000D02*
X79700000Y-57650000D01*
X93020000Y-39680000D02*
X93980000Y-40640000D01*
X90670000Y-39680000D02*
X93020000Y-39680000D01*
X93980000Y-40640000D02*
X93980000Y-50800000D01*
X93980000Y-50800000D02*
X87130000Y-57650000D01*
X76390000Y-60960000D02*
X79700000Y-57650000D01*
X55880000Y-48786626D02*
X68053374Y-60960000D01*
X55880000Y-45720000D02*
X55880000Y-48786626D01*
X58420000Y-43180000D02*
X55880000Y-45720000D01*
X68053374Y-60960000D02*
X76390000Y-60960000D01*
%TO.N,Net-(Microcontrolador1-Pad24)*%
X76097500Y-35457500D02*
X71120000Y-30480000D01*
X76097500Y-42580000D02*
X76097500Y-35457500D01*
%TO.N,Net-(HC-SR501-connectors1-Pad2)*%
X75410000Y-46767500D02*
X87082500Y-46767500D01*
X87082500Y-46767500D02*
X90670000Y-43180000D01*
%TO.N,Net-(Microcontrolador1-Pad15)*%
X74910000Y-46767500D02*
X74910000Y-49510000D01*
%TD*%
M02*
