M48
;Layer_Color=9474304
;FILE_FORMAT=2:4
INCH,LZ
;TYPE=PLATED
T1F00S00C0.0118
T2F00S00C0.0236
T3F00S00C0.0472
T4F00S00C0.0984
T5F00S00C0.1378
%
T01
X025447Y002371
X029868Y003209
X03689Y001969
Y010634
X035433Y015777
X025543Y010059
X023091Y012992
X022776
X019331Y011063
X019528Y010059
Y009744
Y009429
Y009114
X01627Y009429
X01628Y011634
X013514Y008749
X012766Y008898
X017598Y004039
X015917Y002341
X006386Y002341
X03689Y027925
T02
X014183Y018484
X014683
X015183
X015683
X016183
X016683
X017183
X017683
X018183
X018683
X019183
X019683
X020183
X020683
X021183
T03
X041772Y001969
Y003469
Y005984
Y007484
Y010634
Y012134
Y01465
Y01615
X-0Y015904
Y014404
Y012904
X0Y010436
Y008936
Y007436
Y004969
Y003469
Y001969
Y018372
Y019872
Y021372
X0Y031941
X007323Y029616
Y025384
X02248
Y028533
X041772Y027925
Y029425
Y031941
Y024776
Y023276
Y020799
Y019299
Y033441
X0
T04
X007755Y018494
X027661
T05
X0Y0
X041772Y-0
X041772Y035409
X0
M30
