G04*
G04 #@! TF.GenerationSoftware,Altium Limited,Altium Designer,23.0.1 (38)*
G04*
G04 Layer_Color=8421504*
%FSLAX43Y43*%
%MOMM*%
G71*
G04*
G04 #@! TF.SameCoordinates,06591997-4E22-4AB0-80C0-D558F8CFEC8B*
G04*
G04*
G04 #@! TF.FilePolarity,Positive*
G04*
G01*
G75*
%ADD14R,0.800X1.000*%
%ADD15R,1.000X0.500*%
%ADD16R,1.145X0.550*%
%ADD17R,0.550X1.145*%
%ADD18R,0.250X0.850*%
%ADD19R,0.850X0.250*%
%ADD20R,0.400X0.210*%
%ADD21R,0.858X0.806*%
%ADD22R,1.158X1.012*%
%ADD23R,0.750X0.900*%
%ADD24R,0.700X0.650*%
%ADD25R,1.100X0.950*%
%ADD26R,1.012X1.208*%
%ADD27R,1.050X0.950*%
%ADD28R,0.700X0.650*%
%ADD29R,0.759X0.812*%
%ADD30R,0.520X0.520*%
%ADD31R,0.700X0.700*%
%ADD32C,1.016*%
%ADD33R,0.812X0.759*%
D14*
X50862Y110374D02*
D03*
X52262Y108574D02*
D03*
D15*
X68199Y112437D02*
D03*
Y111337D02*
D03*
D16*
X37891Y114268D02*
D03*
Y112668D02*
D03*
Y110268D02*
D03*
X40086D02*
D03*
Y111068D02*
D03*
Y111868D02*
D03*
Y112668D02*
D03*
Y113468D02*
D03*
D17*
X38989Y110171D02*
D03*
Y114366D02*
D03*
D18*
X60226Y112305D02*
D03*
X60726D02*
D03*
X61226D02*
D03*
X61726D02*
D03*
X62226D02*
D03*
X62726D02*
D03*
X63226D02*
D03*
X63726Y107405D02*
D03*
X63226D02*
D03*
X62226D02*
D03*
X61726D02*
D03*
D19*
X64426Y111605D02*
D03*
Y111105D02*
D03*
Y110605D02*
D03*
Y110105D02*
D03*
Y109605D02*
D03*
Y109105D02*
D03*
Y108605D02*
D03*
Y108105D02*
D03*
X59526D02*
D03*
Y108605D02*
D03*
Y109105D02*
D03*
Y109605D02*
D03*
Y110105D02*
D03*
Y110605D02*
D03*
Y111105D02*
D03*
Y111605D02*
D03*
D20*
X61849Y103979D02*
D03*
Y103539D02*
D03*
D21*
X66040Y101718D02*
D03*
Y100466D02*
D03*
D22*
X68199Y115443D02*
D03*
X66545D02*
D03*
D23*
X34636Y110236D02*
D03*
D24*
X34813Y114300D02*
D03*
D25*
X61849Y102235D02*
D03*
D26*
X73406Y110617D02*
D03*
D27*
X75946D02*
D03*
X79502Y115279D02*
D03*
X75819Y115316D02*
D03*
D28*
X70612Y115356D02*
D03*
D29*
X56134Y110363D02*
D03*
D30*
X86106Y115062D02*
D03*
X83439Y115100D02*
D03*
D31*
X73279Y115381D02*
D03*
D32*
X47498Y102235D02*
D03*
D33*
X63762Y101727D02*
D03*
M02*
