G04*
G04 #@! TF.GenerationSoftware,Altium Limited,Altium Designer,23.0.1 (38)*
G04*
G04 Layer_Physical_Order=1*
G04 Layer_Color=255*
%FSLAX43Y43*%
%MOMM*%
G71*
G04*
G04 #@! TF.SameCoordinates,06591997-4E22-4AB0-80C0-D558F8CFEC8B*
G04*
G04*
G04 #@! TF.FilePolarity,Positive*
G04*
G01*
G75*
%ADD12C,0.254*%
%ADD14R,0.800X1.000*%
%ADD15R,1.000X0.500*%
%ADD16R,1.145X0.550*%
%ADD17R,0.550X1.145*%
%ADD18R,0.250X0.850*%
%ADD19R,0.850X0.250*%
%ADD20R,0.400X0.210*%
%ADD21R,0.858X0.806*%
%ADD22R,1.158X1.012*%
%ADD23R,0.750X0.900*%
%ADD24R,0.700X0.650*%
%ADD25R,1.100X0.950*%
%ADD26R,1.012X1.208*%
%ADD27R,1.050X0.950*%
%ADD28R,0.700X0.650*%
%ADD29R,0.759X0.812*%
%ADD30R,0.520X0.520*%
%ADD31R,0.700X0.700*%
%ADD32C,1.016*%
%ADD33R,0.812X0.759*%
%ADD39C,1.270*%
%ADD40C,1.840*%
%ADD41C,1.980*%
%ADD46R,1.300X1.300*%
%ADD47C,1.300*%
%ADD48C,1.500*%
%ADD49R,1.500X1.500*%
D12*
X47498Y102235D02*
X61849D01*
X79235Y115062D02*
X86106D01*
X75819D02*
X79235D01*
X79452Y115279D01*
X75946Y111773D02*
X79235Y115062D01*
X79452Y115279D02*
X79502D01*
X75946Y110617D02*
Y111773D01*
X64135Y110597D02*
X69011D01*
X62210Y112305D02*
Y115296D01*
X62718Y112014D02*
Y114915D01*
X57131Y109613D02*
X59526D01*
X34671Y110020D02*
X34919Y110268D01*
X89662Y105156D02*
Y111506D01*
X86106Y115062D02*
X89662Y111506D01*
Y105156D02*
X92795Y102023D01*
X89279Y98296D02*
X92795Y101812D01*
Y102023D01*
X89279Y86204D02*
Y98296D01*
X80429Y118110D02*
X83439Y115100D01*
X82550Y118618D02*
X86106Y115062D01*
X65532Y107442D02*
X70104D01*
X64389Y108097D02*
X70465D01*
X64426Y108605D02*
X70866D01*
X70465Y108097D02*
X75946Y102616D01*
X70866Y108605D02*
X75712Y103759D01*
X79502Y115279D02*
Y117453D01*
X79353Y117602D02*
X79502Y117453D01*
X75754Y115381D02*
X75819Y115316D01*
X73279Y115381D02*
X75754D01*
X73279D02*
Y116840D01*
X73025Y117094D02*
X73279Y116840D01*
X68286Y115356D02*
X70612D01*
X68199Y115443D02*
X68286Y115356D01*
X64135Y118618D02*
X82550Y118618D01*
X64262Y118110D02*
X80429D01*
X52389Y116586D02*
X53467D01*
X55245Y117286D02*
Y118554D01*
X52435Y121364D02*
X55245Y118554D01*
Y117286D02*
X60226Y112305D01*
X52832Y116078D02*
X57277Y111633D01*
X58166Y112014D02*
Y113157D01*
X64052Y118618D02*
X64135D01*
X62210Y115296D02*
X64516Y117602D01*
X62718Y114915D02*
X64897Y117094D01*
X61194Y115760D02*
X64052Y118618D01*
X63226Y112305D02*
Y113772D01*
Y112014D02*
Y112305D01*
Y113772D02*
X64897Y115443D01*
X61194Y112649D02*
Y115760D01*
X61702Y112307D02*
Y115550D01*
X64516Y117602D02*
X79353D01*
X64897Y117094D02*
X73025D01*
X64897Y115443D02*
X66545D01*
X65758Y111605D02*
X66590Y112437D01*
X69031Y110617D02*
X73406D01*
X69011Y110597D02*
X69031Y110617D01*
X66590Y112437D02*
X68199D01*
X67967Y111105D02*
X68199Y111337D01*
X73406Y110617D02*
X75946D01*
X64426Y111605D02*
X65758D01*
X61724Y112307D02*
X61726Y112305D01*
X49149Y120460D02*
X51413D01*
X50635Y118340D02*
X52389Y116586D01*
X51562Y118132D02*
X51711Y117983D01*
X50635Y118340D02*
Y119164D01*
X51562Y118132D02*
Y120312D01*
X51413Y120460D02*
X51562Y120312D01*
X50435Y119364D02*
X50635Y119164D01*
X51711Y117983D02*
X53340D01*
X65786Y106934D02*
X69894D01*
X61722Y107401D02*
X61726Y107405D01*
X64897Y106045D02*
X65786Y106934D01*
X64643Y106553D02*
X65532Y107442D01*
X63758Y106553D02*
Y107405D01*
Y106553D02*
X64643D01*
X63250Y106045D02*
Y107405D01*
Y106045D02*
X64897D01*
X69894Y106934D02*
X76752Y100076D01*
X64426Y111105D02*
X67967D01*
X63762Y101727D02*
Y103159D01*
X57785Y111254D02*
Y112268D01*
X58166Y112014D02*
X58575Y111605D01*
X61726Y103979D02*
Y107405D01*
X61849Y102235D02*
Y103505D01*
X62234Y104688D02*
X63762Y103159D01*
X63226Y107405D02*
X63250D01*
X62234Y104688D02*
Y106438D01*
X62226Y106446D02*
X62234Y106438D01*
X62226Y106446D02*
Y107405D01*
X48514Y121158D02*
X49149Y120460D01*
X48514Y121158D02*
X49149Y120460D01*
X34813Y114300D02*
X34829Y114284D01*
X39138Y116078D02*
X52832D01*
X34829Y114284D02*
X37875D01*
X38989Y115929D02*
X39138Y116078D01*
X37875Y114284D02*
X37891Y114268D01*
X38989Y114366D02*
Y115929D01*
X57277Y110296D02*
Y111633D01*
X58575Y111605D02*
X59526D01*
X57934Y111105D02*
X59526D01*
X57277Y110296D02*
X57452Y110121D01*
X59526D01*
X57785Y111254D02*
X57934Y111105D01*
X57404Y112649D02*
X57785Y112268D01*
X53340Y117983D02*
X58166Y113157D01*
X53467Y116586D02*
X57404Y112649D01*
X52344Y108605D02*
X59526D01*
X52324Y108585D02*
X52344Y108605D01*
X53467Y108077D02*
X59526D01*
X53721Y109750D02*
X54358Y109113D01*
X56913Y109105D02*
X59526D01*
X56134Y110336D02*
Y110363D01*
X57020Y109725D02*
X57131Y109613D01*
X56134Y110336D02*
X56746Y109725D01*
X57020D01*
X54358Y109113D02*
X56913D01*
X51197Y110658D02*
Y111373D01*
X51203Y111379D02*
X53340D01*
X51197Y111373D02*
X51203Y111379D01*
X53340D02*
X53721Y110998D01*
X50924Y110385D02*
X51197Y110658D01*
X53721Y109750D02*
Y110998D01*
X52578Y107188D02*
X53467Y108077D01*
X34919Y110268D02*
X37891D01*
X83312Y100733D02*
Y103886D01*
X76962Y100584D02*
X83163D01*
X83312Y100733D01*
X63762Y101727D02*
X66031D01*
X66040Y101718D01*
X76752Y100076D02*
X83566D01*
X85852Y102362D01*
X80899Y103759D02*
X82042Y102616D01*
X75712Y103759D02*
X80899D01*
X75946Y102616D02*
X79502D01*
X83312Y103886D02*
X84582Y105156D01*
X85852Y103886D02*
X87122Y105156D01*
X85852Y102362D02*
Y103886D01*
X34671Y109982D02*
Y110020D01*
X61702Y115550D02*
X64262Y118110D01*
X70104Y107442D02*
X76962Y100584D01*
D14*
X50862Y110374D02*
D03*
X52262Y108574D02*
D03*
D15*
X68199Y112437D02*
D03*
Y111337D02*
D03*
D16*
X37891Y114268D02*
D03*
Y112668D02*
D03*
Y110268D02*
D03*
X40086D02*
D03*
Y111068D02*
D03*
Y111868D02*
D03*
Y112668D02*
D03*
Y113468D02*
D03*
D17*
X38989Y110171D02*
D03*
Y114366D02*
D03*
D18*
X60226Y112305D02*
D03*
X60726D02*
D03*
X61226D02*
D03*
X61726D02*
D03*
X62226D02*
D03*
X62726D02*
D03*
X63226D02*
D03*
X63726Y107405D02*
D03*
X63226D02*
D03*
X62226D02*
D03*
X61726D02*
D03*
D19*
X64426Y111605D02*
D03*
Y111105D02*
D03*
Y110605D02*
D03*
Y110105D02*
D03*
Y109605D02*
D03*
Y109105D02*
D03*
Y108605D02*
D03*
Y108105D02*
D03*
X59526D02*
D03*
Y108605D02*
D03*
Y109105D02*
D03*
Y109605D02*
D03*
Y110105D02*
D03*
Y110605D02*
D03*
Y111105D02*
D03*
Y111605D02*
D03*
D20*
X61849Y103979D02*
D03*
Y103539D02*
D03*
D21*
X66040Y101718D02*
D03*
Y100466D02*
D03*
D22*
X68199Y115443D02*
D03*
X66545D02*
D03*
D23*
X34636Y110236D02*
D03*
D24*
X34813Y114300D02*
D03*
D25*
X61849Y102235D02*
D03*
D26*
X73406Y110617D02*
D03*
D27*
X75946D02*
D03*
X79502Y115279D02*
D03*
X75819Y115316D02*
D03*
D28*
X70612Y115356D02*
D03*
D29*
X56134Y110363D02*
D03*
D30*
X86106Y115062D02*
D03*
X83439Y115100D02*
D03*
D31*
X73279Y115381D02*
D03*
D32*
X47498Y102235D02*
D03*
D33*
X63762Y101727D02*
D03*
D39*
X42418Y98679D02*
X47498D01*
X42418Y102235D02*
X47498D01*
X42291Y98679D02*
Y108839D01*
D40*
X89789Y88773D02*
D03*
X34929Y74353D02*
D03*
X89789D02*
D03*
D41*
X34929Y95503D02*
D03*
D46*
X48435Y119364D02*
D03*
D47*
Y121364D02*
D03*
X50435Y119364D02*
D03*
Y121364D02*
D03*
X52435D02*
D03*
D48*
X79502Y102616D02*
D03*
X82042D02*
D03*
Y105156D02*
D03*
X89662Y102616D02*
D03*
X87122Y105156D02*
D03*
Y102616D02*
D03*
X84582Y105156D02*
D03*
D49*
X89662D02*
D03*
M02*
