G04*
G04 #@! TF.GenerationSoftware,Altium Limited,Altium Designer,23.0.1 (38)*
G04*
G04 Layer_Color=16711935*
%FSLAX43Y43*%
%MOMM*%
G71*
G04*
G04 #@! TF.SameCoordinates,06591997-4E22-4AB0-80C0-D558F8CFEC8B*
G04*
G04*
G04 #@! TF.FilePolarity,Negative*
G04*
G01*
G75*
%ADD14R,0.800X1.000*%
%ADD16R,1.145X0.550*%
%ADD23R,0.750X0.900*%
%ADD24R,0.700X0.650*%
%ADD26R,1.012X1.208*%
%ADD28R,0.700X0.650*%
%ADD29R,0.759X0.812*%
%ADD30R,0.520X0.520*%
%ADD31R,0.700X0.700*%
%ADD33R,0.812X0.759*%
%ADD34R,0.453X1.053*%
%ADD36R,1.303X1.153*%
%ADD37R,1.253X1.153*%
%ADD38C,1.219*%
%ADD40C,1.840*%
%ADD41C,1.980*%
%ADD42R,1.503X1.503*%
%ADD43C,1.503*%
%ADD44C,1.703*%
%ADD45R,1.703X1.703*%
%ADD50R,1.840X1.840*%
%ADD53R,3.803X3.803*%
D14*
X50862Y108574D02*
D03*
X52262Y110374D02*
D03*
D16*
X37891Y113468D02*
D03*
Y111868D02*
D03*
Y111068D02*
D03*
X40086Y114268D02*
D03*
D23*
X33436Y110236D02*
D03*
D24*
X33513Y114300D02*
D03*
D26*
X73406Y109013D02*
D03*
D28*
X70612Y114006D02*
D03*
D29*
X54881Y110363D02*
D03*
D30*
X86106Y114262D02*
D03*
X83439Y114300D02*
D03*
D31*
X73279Y113981D02*
D03*
D33*
X63762Y100474D02*
D03*
D34*
X63726Y112305D02*
D03*
X61226Y107405D02*
D03*
X60726D02*
D03*
X60226D02*
D03*
D36*
X61849Y100785D02*
D03*
D37*
X75946Y109167D02*
D03*
X79502Y113829D02*
D03*
X75819Y113866D02*
D03*
D38*
X47498Y98679D02*
D03*
D40*
X89789Y88773D02*
D03*
X34929Y74353D02*
D03*
X89789D02*
D03*
D41*
X34929Y95503D02*
D03*
D42*
X48435Y119364D02*
D03*
D43*
X52435D02*
D03*
X48435Y121364D02*
D03*
X50435Y119364D02*
D03*
Y121364D02*
D03*
X52435D02*
D03*
D44*
X79502Y105156D02*
D03*
X84582Y102616D02*
D03*
X79502D02*
D03*
X82042D02*
D03*
Y105156D02*
D03*
X89662Y102616D02*
D03*
X87122Y105156D02*
D03*
Y102616D02*
D03*
X84582Y105156D02*
D03*
D45*
X89662D02*
D03*
D50*
X34929Y88773D02*
D03*
D53*
X61976Y109855D02*
D03*
M02*
