G04*
G04 #@! TF.GenerationSoftware,Altium Limited,Altium Designer,23.0.1 (38)*
G04*
G04 Layer_Color=0*
%FSLAX43Y43*%
%MOMM*%
G71*
G04*
G04 #@! TF.SameCoordinates,06591997-4E22-4AB0-80C0-D558F8CFEC8B*
G04*
G04*
G04 #@! TF.FilePolarity,Positive*
G04*
G01*
G75*
%ADD54C,0.100*%
D54*
X51562Y108974D02*
Y109974D01*
X51062Y109474D02*
X52062D01*
X68199Y111387D02*
Y112387D01*
X67699Y111887D02*
X68699D01*
X61859Y81563D02*
X62859D01*
X62359Y81063D02*
Y82063D01*
X38489Y112268D02*
X39489D01*
X38989Y111768D02*
Y112768D01*
X61849Y103259D02*
Y104259D01*
X61349Y103759D02*
X62349D01*
X66040Y100592D02*
Y101592D01*
X65540Y101092D02*
X66540D01*
X66872Y115443D02*
X67872D01*
X67372Y114943D02*
Y115943D01*
X33536Y110236D02*
X34536D01*
X34036Y109736D02*
Y110736D01*
X33663Y114300D02*
X34663D01*
X34163Y113800D02*
Y114800D01*
X73406Y109315D02*
Y110315D01*
X72906Y109815D02*
X73906D01*
X70612Y114181D02*
Y115181D01*
X70112Y114681D02*
X71112D01*
X55007Y110363D02*
X56007D01*
X55507Y109863D02*
Y110863D01*
X86106Y114162D02*
Y115162D01*
X85606Y114662D02*
X86606D01*
X83439Y114200D02*
Y115200D01*
X82939Y114700D02*
X83939D01*
X73279Y114181D02*
Y115181D01*
X72779Y114681D02*
X73779D01*
X63762Y100600D02*
Y101600D01*
X63262Y101100D02*
X64262D01*
M02*
